<svg xmlns="http://www.w3.org/2000/svg" xmlns:svg="http://www.w3.org/2000/svg" id="svg378" width="535.086" height="514.409" x="0" y="0" version="1.0"><metadata id="metadata3"/><rect style="opacity:1;fill:#fff;fill-opacity:1;stroke:none;stroke-width:.56699997;stroke-linecap:square;stroke-linejoin:miter;stroke-miterlimit:4;stroke-dasharray:none;stroke-dashoffset:.60000002;stroke-opacity:1" id="rect4135" width="535.086" height="514.409" x="0" y="0"/><rect id="rect403" width="266.468" height="708.661" x="-390.365" y="-97.126" style="font-size:12px;fill:#fff;fill-rule:evenodd;stroke-width:1pt"/><path id="path273" d="m 449.89309,202.64994 -54.86697,-11.5427 -28.85361,48.07439 -5.97811,-55.74828 -54.63828,-12.58691 51.1736,-22.91206 -4.91406,-55.852705 37.60409,41.587755 51.60069,-21.93259 -27.93158,48.61529 36.80423,42.29781 z" style="font-size:12px;fill:#000;fill-rule:evenodd;stroke-width:1pt"/><path id="path278" d="m 470.58989,344.69092 c -48.714,107.324 -176.541,154.212 -284.178,104.346 -107.636002,-49.865 -154.523002,-177.693 -104.657002,-285.329 25.434002,-54.9 67.057002,-92.628006 125.812002,-113.219006 -6.758,5.715 -13.445,11.643 -20.773,19.205 -75.899,78.328006 -73.927,203.498006 4.4,279.397006 78.328,75.899 203.498,73.928 279.396,-4.4 z" style="font-size:12px;fill:#000;fill-rule:evenodd;stroke-width:1pt"/></svg>