<svg xmlns="http://www.w3.org/2000/svg" xmlns:svg="http://www.w3.org/2000/svg" id="svg2" width="16" height="16" pagecolor="#ffffff" version="1.0" viewBox="0 0 16 16"><metadata id="metadata7"/><g id="layer4" transform="translate(-27.750002,-842.61183)" style="display:inline"><ellipse style="display:inline;opacity:1;fill:#000;fill-rule:evenodd;stroke:none;stroke-width:1.29307675;stroke-linecap:butt;stroke-linejoin:miter;stroke-miterlimit:4;stroke-dasharray:none;stroke-opacity:1" id="path2191" cx="35.752" cy="850.244" rx="7" ry="7" transform="matrix(0.99994714,0.01028229,0,1,0,0)"/></g><g id="layer18" transform="translate(-27.750002,-842.61183)" style="display:inline;opacity:1"><ellipse style="fill:#fff;fill-opacity:1;fill-rule:evenodd;stroke:none;stroke-width:1.07819784;stroke-linecap:butt;stroke-linejoin:miter;stroke-miterlimit:4;stroke-dasharray:none;stroke-opacity:1" id="path2807" cx="35.752" cy="850.244" rx="5.837" ry="5.836" transform="matrix(0.99994714,0.01028228,0,1,0,0)"/></g><g id="layer28" transform="translate(-27.750002,-842.61183)" style="display:inline;opacity:1"><path style="fill:#000;fill-opacity:1;fill-rule:evenodd;stroke:#000;stroke-width:.03551107px;stroke-linecap:butt;stroke-linejoin:miter;stroke-opacity:1" id="path13562" d="m 35.6823,846.92336 -3.388514,2.64627 1.419951,4.00168 4.163037,-0.12909 1.355403,-3.80805 z"/></g><g id="layer1" transform="translate(-27.750002,-842.61183)" style="display:inline"><g id="g5158" transform="matrix(0.02058823,0,0,0.02058826,28.178682,839.93453)" style="fill:#fff"><rect id="rect12655" width="41.683" height="125.048" x="346.908" y="391.102" style="fill:#fff;fill-opacity:1;stroke:none;stroke-width:5;stroke-miterlimit:4;stroke-dasharray:none;stroke-opacity:1"/><rect id="rect13547" width="41.846" height="125.538" x="-31.445" y="625.828" transform="rotate(-36.297057)" style="fill:#fff;fill-opacity:1;stroke-width:33;stroke-miterlimit:4;stroke-dasharray:none"/><rect id="rect13553" width="41.846" height="125.538" x="574.931" y="203.447" transform="rotate(34.640059)" style="fill:#fff;fill-opacity:1;stroke-width:33;stroke-miterlimit:4;stroke-dasharray:none"/><rect id="rect13556" width="41.846" height="125.538" x="-394.694" y="402.245" transform="rotate(-71.254027)" style="fill:#fff;fill-opacity:1;stroke-width:33;stroke-miterlimit:4;stroke-dasharray:none"/><rect id="rect13550" width="41.846" height="125.538" x="-629.86" y="179.104" transform="rotate(-108.24048)" style="fill:#fff;fill-opacity:1;stroke-width:33;stroke-miterlimit:4;stroke-dasharray:none"/><ellipse id="path2804" cx="741.957" cy="181.106" rx="56.063" ry="53.033" transform="matrix(1.856281,0,0,1.962354,-1009.531,-10.95022)" style="display:inline;fill:#fff;fill-opacity:1;stroke:none;stroke-width:4.7504735;stroke-miterlimit:4;stroke-dasharray:none;stroke-opacity:1"/><ellipse id="path2801" cx="741.957" cy="181.106" rx="56.063" ry="53.033" transform="matrix(1.856281,0,0,1.962354,-907.7207,306.383)" style="fill:#fff;fill-opacity:1;stroke:none;stroke-width:4.7504735;stroke-miterlimit:4;stroke-dasharray:none;stroke-opacity:1"/><ellipse id="path2798" cx="741.957" cy="181.106" rx="56.063" ry="53.033" transform="matrix(1.856281,0,0,1.962354,-1113.464,301.8346)" style="display:inline;fill:#fff;fill-opacity:1;stroke:none;stroke-width:4.7504735;stroke-miterlimit:4;stroke-dasharray:none;stroke-opacity:1"/><ellipse id="path2795" cx="741.957" cy="181.106" rx="56.063" ry="53.033" transform="matrix(1.856281,0,0,1.962354,-1176.044,107.6139)" style="display:inline;fill:#fff;fill-opacity:1;stroke:none;stroke-width:4.7504735;stroke-miterlimit:4;stroke-dasharray:none;stroke-opacity:1"/><ellipse id="path2792" cx="741.957" cy="181.106" rx="56.063" ry="53.033" transform="matrix(1.856281,0,0,1.962354,-844.0797,111.101)" style="display:inline;fill:#fff;fill-opacity:1;stroke:none;stroke-width:4.7504735;stroke-miterlimit:4;stroke-dasharray:none;stroke-opacity:1"/></g></g><g id="layer9" transform="translate(-27.750002,-842.61183)" style="display:inline;opacity:1"><g id="g5146" transform="matrix(0.02036664,0,0,0.02036667,28.260053,840.04601)" style="fill:#000"><path id="path6383" d="m 463.81406,344.44299 c 0.79683,47.69239 -37.51472,89.32098 -81.44089,94.9566 -45.79883,8.13416 -95.81043,-22.61821 -107.66146,-70.95782 -11.72983,-42.2015 10.31383,-89.55775 47.26037,-108.463 42.88161,-24.27255 101.94335,-9.39812 127.92807,34.6636 9.01388,14.74712 13.96107,32.2304 13.91391,49.80062 z" style="display:inline;fill:#000;fill-opacity:1;stroke:none;stroke-width:4.7504735;stroke-miterlimit:4;stroke-dasharray:none;stroke-opacity:1"/><ellipse id="path6396" cx="741.957" cy="181.106" rx="56.063" ry="53.033" transform="matrix(1.71349,0,0,1.811403,-801.7761,333.7208)" style="display:inline;fill:#000;stroke:none;stroke-width:4.7504735;stroke-miterlimit:4;stroke-dasharray:none;stroke-opacity:1"/><ellipse id="path6389" cx="741.957" cy="181.106" rx="56.063" ry="53.033" transform="matrix(1.71349,0,0,1.811403,-1007.519,329.1725)" style="display:inline;fill:#000;fill-opacity:1;stroke:none;stroke-width:4.7504735;stroke-miterlimit:4;stroke-dasharray:none;stroke-opacity:1"/><ellipse id="path6394" cx="741.957" cy="181.106" rx="56.063" ry="53.033" transform="matrix(1.71349,0,0,1.811403,-1070.099,134.9517)" style="display:inline;fill:#000;stroke:none;stroke-width:4.7504735;stroke-miterlimit:4;stroke-dasharray:none;stroke-opacity:1"/><ellipse id="path6399" cx="741.957" cy="181.106" rx="56.063" ry="53.033" transform="matrix(1.71349,0,0,1.811403,-738.1351,138.4389)" style="display:inline;fill:#000;stroke:none;stroke-width:4.7504735;stroke-miterlimit:4;stroke-dasharray:none;stroke-opacity:1"/><rect id="rect9064" width="27.788" height="83.365" x="353.855" y="411.943" style="display:inline;fill:#000;stroke:none;stroke-width:5;stroke-miterlimit:4;stroke-dasharray:none;stroke-opacity:1"/><rect id="rect9067" width="26.154" height="78.461" x="-23.599" y="649.366" transform="rotate(-36.297057)" style="display:inline;fill:#000;stroke-width:33;stroke-miterlimit:4;stroke-dasharray:none"/><rect id="rect9070" width="26.154" height="78.461" x="582.778" y="226.985" transform="rotate(34.640059)" style="display:inline;fill:#000;stroke-width:33;stroke-miterlimit:4;stroke-dasharray:none"/><rect id="rect9074" width="26.154" height="78.461" x="-386.847" y="425.783" transform="rotate(-71.254027)" style="display:inline;fill:#000;stroke-width:33;stroke-miterlimit:4;stroke-dasharray:none"/><rect id="rect10849" width="26.154" height="78.461" x="-622.014" y="202.642" transform="rotate(-108.24048)" style="display:inline;fill:#000;stroke-width:33;stroke-miterlimit:4;stroke-dasharray:none"/></g></g><g id="layer19" transform="translate(-27.750002,-842.61183)" style="display:inline"><ellipse style="opacity:1;fill:#fff;fill-opacity:1;stroke:none;stroke-width:.19531092;stroke-miterlimit:4;stroke-dasharray:none;stroke-opacity:1" id="path2805" cx="35.75" cy="850.608" rx=".879" ry=".879"/></g><g id="layer3" transform="translate(-27.750002,-842.61183)" style="display:inline;opacity:1"><ellipse style="fill:#000;stroke:none;stroke-width:.15979977;stroke-miterlimit:4;stroke-dasharray:none;stroke-opacity:1" id="path5495" cx="35.75" cy="850.608" rx=".719" ry=".719"/></g></svg>