<svg xmlns="http://www.w3.org/2000/svg" xmlns:svg="http://www.w3.org/2000/svg" id="svg3034" width="695.066" height="695.066" version="1.1"><defs id="defs3036"><filter id="filter4280" color-interpolation-filters="sRGB"><feGaussianBlur id="feGaussianBlur4282" stdDeviation="2.903"/></filter></defs><metadata id="metadata3039"/><g id="layer1" transform="translate(538.96173,155.17098)"><g id="g37657" transform="matrix(2.2848,0,0,2.2848,-991.38274,-142.16064)"><rect id="rect3481" width="290.28" height="290.28" x="204.98" y="1.272" style="fill:#000;fill-opacity:.99607999;filter:url(#filter4280)"/><rect id="rect3502" width="290.28" height="290.28" x="200.98" y="-2.728" style="fill:#a05a2c;fill-opacity:.99607999"/><rect id="rect3484" width="280.05" height="280.05" x="206.09" y="2.383" style="fill:#784421;fill-opacity:.99607999"/><rect id="rect3486" width="255.52" height="255.52" x="218.36" y="14.648" style="fill:#c87137;fill-opacity:.99607999"/><rect id="rect3488" width="235.08" height="235.08" x="228.58" y="24.869" style="fill:#784421;fill-opacity:.99607999"/><rect id="rect3490" width="204.42" height="204.42" x="243.91" y="40.2" style="fill:#fff;fill-opacity:.99607999"/><path id="rect3492" d="M 486.64,282.98 V 1.71 H 205.37 l 4.9462,4.9461 h 271.38 v 271.38 l 4.9461,4.9461 z" style="fill:#2b1100;fill-opacity:.99607999"/><path id="path3500" d="m 205.37,1.7121 v 281.27 h 281.27 l -4.9462,-4.9461 h -271.38 V 6.656 l -4.9461,-4.9461 z" style="fill:#d38d5f;fill-opacity:.99607999"/><g id="g4291" transform="matrix(0.90578,0,0,0.90578,-1237.3,-654.51)"><path id="path4287" d="M 1888.9,1020.4 V 739.13 h -281.27 l 4.9462,4.9461 h 271.38 v 271.38 l 4.9461,4.9461 z" style="fill:#2b1100;fill-opacity:.99607999"/><path id="path4289" d="m 1607.7,739.11 v 281.27 h 281.27 l -4.9462,-4.9461 h -271.38 v -271.38 l -4.9461,-4.9461 z" style="fill:#d38d5f;fill-opacity:.99607999"/></g><g id="g4295" transform="matrix(0.83468,0,0,0.83468,-1113,-591.95)"><path id="path4297" d="M 1888.9,1020.4 V 739.13 h -281.27 l 4.9462,4.9461 h 271.38 v 271.38 l 4.9461,4.9461 z" style="fill:#2b1100;fill-opacity:.99607999"/><path id="path4299" d="m 1607.7,739.11 v 281.27 h 281.27 l -4.9462,-4.9461 h -271.38 v -271.38 l -4.9461,-4.9461 z" style="fill:#d38d5f;fill-opacity:.99607999"/></g><g id="g4301" transform="matrix(0.72802,0,0,0.72802,-926.53,-498.12)"><path id="path4303" d="M 1888.9,1020.4 V 739.13 h -281.27 l 4.9462,4.9461 h 271.38 v 271.38 l 4.9461,4.9461 z" style="fill:#2b1100;fill-opacity:.99607999"/><path id="path4305" d="m 1607.7,739.11 v 281.27 h 281.27 l -4.9462,-4.9461 h -271.38 v -271.38 l -4.9461,-4.9461 z" style="fill:#d38d5f;fill-opacity:.99607999"/></g></g></g></svg>