<svg xmlns="http://www.w3.org/2000/svg" xmlns:svg="http://www.w3.org/2000/svg" id="svg4149" width="16" height="16" version="1.1" viewBox="0 0 16 16"><metadata id="metadata4154"/><g id="layer1" transform="translate(0,-1036.3622)"><path style="fill:#ccc;fill-rule:evenodd;stroke:none;stroke-width:1px;stroke-linecap:butt;stroke-linejoin:miter;stroke-opacity:1" id="path4180" d="m 1.295261,1046.0461 c 0.4758102,-2.617 3.9820475,-3.2654 6.704739,-3.2918 2.722692,-0.026 4,0 7.490264,3.2389 l -6.8728131,2.4055 z"/><path style="fill:#7f2aff;fill-rule:evenodd;stroke:none;stroke-width:1px;stroke-linecap:butt;stroke-linejoin:miter;stroke-opacity:1" id="path4151" d="M 8.2421875,2.7324219 7.65625,5.4082031 6.4726562,5.4785151 5.0429688,3.1328125 5.4082031,5.7949219 4.3671875,6.3222656 2.7773438,3.90625 3.40625,6.921875 2.6425781,7.4609375 0.84302229,5.1284462 1.5429688,8.3222656 c 0,0 -1.04882818,0.6350453 -1.04882818,1.4941406 0,0.8590958 0.85156248,1.2246098 0.85156248,1.2246098 L 0.53320312,14.134766 2.375,11.615234 3.3066406,12.103519 2.5996094,15.091797 4.28125,12.541016 5.4082031,12.9375 l -0.3652343,2.662109 1.46875,-2.410156 1.1230468,0.0293 L 8.2421875,16 8.7558594,13.078125 9.828125,12.835938 l 1.365234,2.732421 -0.316406,-3.044921 1.007813,-0.333985 1.52539,2.947266 -0.404297,-3.351563 1.009766,-0.378906 1.595703,2.884766 -0.607422,-3.273438 c 0,0 0.996094,-0.339191 0.996094,-1.2167968 0,-0.8415147 -1.103516,-1.5 -1.103516,-1.5 L 15.655522,4.8391538 13.90625,7.5234375 13.005859,6.9550781 13.542739,3.7724798 11.958984,6.4023438 10.900391,5.9804688 11.193359,3.1640625 9.9238281,5.7050781 8.7265625,5.4902344 Z M 7.2871094,7.3925781 c 2.258149,-0.1888014 6.0175786,2.1445313 6.0175786,2.1445313 0,0 -3.9387404,1.7891436 -6.0253911,1.7128906 C 5.7728828,11.194951 3.03125,9.6992188 3.03125,9.6992188 c 0,0 1.9977104,-2.1178393 4.2558594,-2.3066407 z" transform="translate(0,1036.3622)"/><path style="fill:none;fill-rule:evenodd;stroke:#784421;stroke-width:2;stroke-linecap:round;stroke-linejoin:miter;stroke-miterlimit:4;stroke-dasharray:none;stroke-opacity:1" id="path4150" d="m 1.0137856,1040.3622 c 2.1448529,0 4.3896429,-3 6.5344961,-3 3.7258593,0 5.3068623,1 7.4517183,1"/><circle style="opacity:1;fill:#fff;fill-opacity:1;stroke:none;stroke-width:2;stroke-linecap:round;stroke-linejoin:round;stroke-miterlimit:4;stroke-dasharray:none;stroke-dashoffset:.5;stroke-opacity:1" id="path4146" cx="7.519" cy="1045.689" r="1.934"/><circle id="circle4148" cx="7.519" cy="1045.689" r=".967" style="opacity:1;fill:#000;fill-opacity:1;stroke:none;stroke-width:2;stroke-linecap:round;stroke-linejoin:round;stroke-miterlimit:4;stroke-dasharray:none;stroke-dashoffset:.5;stroke-opacity:1"/></g></svg>