<svg xmlns="http://www.w3.org/2000/svg" xmlns:svg="http://www.w3.org/2000/svg" id="svg2249" width="16" height="10.584" version="1.1"><metadata id="metadata2260"/><rect style="opacity:1;fill:#fff;fill-opacity:1;stroke:#fff;stroke-width:1.16783786;stroke-linecap:square;stroke-linejoin:miter;stroke-miterlimit:4;stroke-dasharray:none;stroke-dashoffset:.60000002;stroke-opacity:1" id="rect4135" width="14.832" height="9.416" x=".584" y=".584"/><circle style="fill:none;stroke:#000;stroke-width:.5976333px" id="circle2251" cx="-12.295" cy="6.88" r="2.405" transform="scale(-1,1)"/><circle style="fill:none;stroke:#000;stroke-width:.5976333px" id="circle2253" cx="-3.704" cy="6.835" r="2.405" transform="scale(-1,1)"/><path style="fill:#000;fill-rule:evenodd;stroke:none" id="path2255" d="M 9.0907025,0.99998996 C 11.071363,1.01929 10.735463,0.79535996 11.801073,4.22 c 0.8681,2.73628 0.77355,2.43788 0.77809,2.62982 0.003,0.14911 -0.11719,0.26733 -0.26845,0.27745 -0.31455,-0.0318 -0.18224,0.034 -1.27281,-3.35256 -3.9849105,4.20368 -2.4898705,3.52202 -4.6344005,3.60739 -2.81847,-0.027 -3.04755,0.14671 -3.08101,-0.26641 0.004,-0.14028 0.0695,-0.22393 2.00381,-4.52886 l -0.18532,-0.50964 -0.63705,-0.0116 0.0232,-0.5328 2.37447,0 c 0.20978,0.28699 -0.0849,0.2857 -1.14669,0.52122 l 0.18532,0.52123 4.7373505,0.0116 C 10.358413,1.47232 10.538593,1.54182 9.1023325,1.54439 l -0.0116,-0.54439004 z M 10.814433,3.15809 6.1788425,3.15009 7.5185625,6.75007 10.814433,3.15831 Z m -5.1944905,0.2137 1.31506,3.45203 -2.8767,0.008 1.56164,-3.46025 z"/></svg>