<svg xmlns="http://www.w3.org/2000/svg" xmlns:svg="http://www.w3.org/2000/svg" id="svg3570" width="160" height="160" version="1.0" viewBox="0 0 160 160"><g id="layer1" transform="matrix(0.3297493,0,0,0.32416952,-25.4498,3.6063541)"><g id="g2577" transform="matrix(2.332,0,0,2.332,997.06,-122.71)"><g id="g2579" transform="translate(1.4286,-131.43)"><rect id="rect2581" width="84.286" height="138.57" x="-334.29" y="252.36" rx="12" ry="12" style="fill:#000"/><path id="path2583" d="m -291.43,172.36 a 48.571,48.571 0 1 1 -97.14,0 48.571,48.571 0 1 1 97.14,0 z" transform="matrix(0.72059,0,0,0.72059,-47.143,90.303)" style="fill:#000"/></g><rect id="rect2585" width="25.714" height="114.29" x="-172.71" y="298.63" rx="8" ry="8" transform="rotate(40)" style="fill:#000"/><rect id="rect2587" width="25.714" height="114.29" x="272.25" y="-74.733" rx="8" ry="8" transform="matrix(-0.76604,0.64279,0.64279,0.76604,0,0)" style="fill:#000"/></g></g><metadata id="metadata10"/></svg>