<svg xmlns="http://www.w3.org/2000/svg" xmlns:cc="http://web.resource.org/cc/" xmlns:ns1="http://sozi.baierouge.fr" xmlns:svg="http://www.w3.org/2000/svg" xmlns:xlink="http://www.w3.org/1999/xlink" id="svg2" version="1.0" viewBox="0 0 110 115"><defs id="defs4"><linearGradient id="linearGradient8148"><stop id="stop8150" offset="0" style="stop-color:#bfbfbf"/><stop id="stop8152" offset="1" style="stop-color:#f0f0f0"/></linearGradient><linearGradient id="linearGradient7144"><stop id="stop7146" offset="0" style="stop-color:#5e411f"/><stop id="stop7148" offset="1" style="stop-color:#be843f"/></linearGradient><linearGradient id="linearGradient9162" x1="105.88" x2="110.66" y1="84.858" y2="57.382" gradientTransform="translate(-23.251 -22.479)" gradientUnits="userSpaceOnUse"><stop id="stop8142" offset="0" style="stop-color:#fffe7f"/><stop id="stop8144" offset="1" style="stop-color:#ffffbf"/></linearGradient><linearGradient id="linearGradient9165" x1="48.713" x2="129.18" y1="86.894" y2="139.47" gradientTransform="translate(-22.118 -21.799)" gradientUnits="userSpaceOnUse" xlink:href="#linearGradient7144"/><linearGradient id="linearGradient9168" x1="133.04" x2="139.63" y1="105.83" y2="107.82" gradientTransform="translate(-22.118 -21.799)" gradientUnits="userSpaceOnUse" xlink:href="#linearGradient8148"/><linearGradient id="linearGradient9171" x1="107.39" x2="106.26" y1="136.25" y2="147.33" gradientTransform="translate(-22.118 -21.799)" gradientUnits="userSpaceOnUse" xlink:href="#linearGradient8148"/><linearGradient id="linearGradient9174" x1="81.779" x2="134.56" y1="82.104" y2="154.3" gradientTransform="translate(-22.118 -21.799)" gradientUnits="userSpaceOnUse" xlink:href="#linearGradient7144"/><linearGradient id="linearGradient9177" x1="59.666" x2="62.828" y1="97.321" y2="98.218" gradientTransform="translate(-22.118 -21.799)" gradientUnits="userSpaceOnUse" xlink:href="#linearGradient7144"/></defs><g id="layer1" transform="translate(-22.269 -20.463)"><path id="path4189" d="m55.76 23.935c-2.053-0.205-2.916 3.207-4.162 6.355l-25.938 83.93 5.341 3.14 24.759-93.425z" style="fill-rule:evenodd;stroke:#000;stroke-width:1px;fill:url(#linearGradient9177)"/><path id="path3206" d="m29.901 109.39c-4.816-0.41-6.508 12.96-2.998 13.72l85.247 8.89 17.35-88.172-14.43-1.967-13.25 68.909-71.919-1.38z" style="fill-rule:evenodd;stroke:#000;stroke-width:1px;fill:url(#linearGradient9174)"/><path id="path5162" d="m104.31 114.26l-72.679-6.17c-3.682 0.01-6.16 12.41-3.277 12.99l81.346 7.73" style="fill-rule:evenodd;stroke:#000;stroke-width:1px;fill:url(#linearGradient9171)"/><path id="path6139" d="m126.03 45.556l-16.88 83.004c-4.03-1.55-6.76-10.51-4.2-14.17l16.6-83.31c-1.24 3.888 1.31 13.362 4.48 14.476z" style="fill-rule:evenodd;stroke:#000;stroke-width:1px;fill:url(#linearGradient9168)"/><path id="path4187" d="m107.32 117.17l-77.623-7.78 26.009-85.404 69.014 4.916-17.4 88.268z" style="fill-rule:evenodd;stroke:#000;stroke-width:1px;fill:url(#linearGradient9165)"/><path id="path3214" d="m64.316 33.137l43.664 3.255-5.69 28.898-44.558-4.117 6.584-28.036z" style="fill-rule:evenodd;stroke:#000;stroke-width:1px;fill:url(#linearGradient9162)"/></g><metadata/></svg>