<svg xmlns="http://www.w3.org/2000/svg" xmlns:svg="http://www.w3.org/2000/svg" id="svg2" width="160" height="160" version="1.1" viewBox="0 0 160 160"><metadata id="metadata7"/><g id="layer1" transform="translate(0,-893.3622)"><g id="g3219" transform="matrix(0.99174847,0,0,1.2211756,-65.765762,226.37604)" style="fill:#3d5889;fill-opacity:1;stroke:#000;stroke-width:1.73248327;stroke-miterlimit:4;stroke-dasharray:none;stroke-opacity:1"><path id="path2427" d="m 67.613793,570.41735 c 24.468075,-13.10042 45.356037,-11.77452 66.041377,-23.06206 11.09637,2.43104 19.357,1.4592 26.99311,-0.26207 23.42862,10.78637 44.02825,12.51579 66.04138,23.5862 -1.82964,11.55946 -5.85886,21.54778 -12.57932,29.6138 -8.15361,-4.36994 -15.86829,-6.10632 -23.32413,-6.28966 l -0.52414,78.62069 c -32.1215,5.98273 -59.34716,3.39775 -85.95862,-0.26207 l -0.26207,-78.09655 c -9.370679,-0.2722 -16.500436,3.19047 -23.848277,6.28966 -7.067215,-9.63539 -10.36885,-19.80873 -12.57931,-30.13794 z" style="fill:#3d5889;fill-opacity:1;fill-rule:evenodd;stroke:#000;stroke-width:1.73248327;stroke-linecap:butt;stroke-linejoin:miter;stroke-miterlimit:4;stroke-dasharray:none;stroke-opacity:1"/><path id="path3199" d="m 71.282759,569.10701 c 2.214678,10.74851 6.083496,20.78686 13.627586,29.35172" style="fill:#3d5889;fill-opacity:1;fill-rule:evenodd;stroke:#000;stroke-width:1.73248327;stroke-linecap:butt;stroke-linejoin:miter;stroke-miterlimit:4;stroke-dasharray:none;stroke-opacity:1"/><path id="path3203" d="m 105.35172,668.16908 c 28.12874,4.60443 56.25747,5.59295 84.38621,-0.26207" style="fill:#3d5889;fill-opacity:1;fill-rule:evenodd;stroke:#000;stroke-width:1.73248327;stroke-linecap:butt;stroke-linejoin:miter;stroke-miterlimit:4;stroke-dasharray:none;stroke-opacity:1"/><path id="path3205" d="m 133.3931,547.61736 c -0.22816,2.3247 1.69237,12.73282 13.88965,13.36551 11.93593,0.61914 14.27527,-11.53603 13.88966,-13.10345" style="fill:#3d5889;fill-opacity:1;fill-rule:evenodd;stroke:#000;stroke-width:1.73248327;stroke-linecap:butt;stroke-linejoin:miter;stroke-miterlimit:4;stroke-dasharray:none;stroke-opacity:1"/><path style="fill:#3d5889;fill-opacity:1;fill-rule:evenodd;stroke:#000;stroke-width:1.73248327;stroke-linecap:butt;stroke-linejoin:miter;stroke-miterlimit:4;stroke-dasharray:none;stroke-opacity:1" id="path3207" d="m 128.21194,550.41871 c -0.22816,2.3247 4.57424,15.11165 18.34482,15.46206 14.03248,0.35707 19.77872,-14.68086 19.39311,-16.24828"/><path id="path3209" d="m 134.52279,552.33459 c 8.53814,2.23324 16.08174,1.75419 25.31809,-0.20185" style="fill:#3d5889;fill-opacity:1;fill-rule:evenodd;stroke:#000;stroke-width:1.73248327;stroke-linecap:butt;stroke-linejoin:miter;stroke-miterlimit:4;stroke-dasharray:none;stroke-opacity:1"/><path id="path3213" d="m 104.16182,558.28077 c 2.57594,9.88539 6.83803,21.48891 -0.26207,35.37931" style="fill:#3d5889;fill-opacity:1;fill-rule:evenodd;stroke:#000;stroke-width:1.73248327;stroke-linecap:butt;stroke-linejoin:miter;stroke-miterlimit:4;stroke-dasharray:none;stroke-opacity:1"/><path style="fill:#3d5889;fill-opacity:1;fill-rule:evenodd;stroke:#000;stroke-width:1.73248327;stroke-linecap:butt;stroke-linejoin:miter;stroke-miterlimit:4;stroke-dasharray:none;stroke-opacity:1" id="path3215" d="m 190.37521,558.48262 c -2.57594,9.88539 -6.83803,21.48891 0.26207,35.37931"/><path style="fill:#3d5889;fill-opacity:1;fill-rule:evenodd;stroke:#000;stroke-width:1.73248327;stroke-linecap:butt;stroke-linejoin:miter;stroke-miterlimit:4;stroke-dasharray:none;stroke-opacity:1" id="path3217" d="m 223.28276,568.84494 c -2.21468,10.74851 -6.0835,20.78686 -13.62759,29.35172"/></g></g></svg>