<svg xmlns="http://www.w3.org/2000/svg" xmlns:svg="http://www.w3.org/2000/svg" xmlns:xlink="http://www.w3.org/1999/xlink" id="svg1291" width="16" height="12.722" version="1.0"><metadata id="metadata3"/><defs id="defs3"><linearGradient id="linearGradient3651"><stop id="stop3653" offset="0" style="stop-color:#2c2c2c;stop-opacity:1"/><stop id="stop3655" offset="1" style="stop-color:#2c2c2c;stop-opacity:0"/></linearGradient><linearGradient id="linearGradient5111"><stop id="stop5113" offset="0" style="stop-color:#000;stop-opacity:1"/><stop id="stop5115" offset="1" style="stop-color:#000;stop-opacity:0"/></linearGradient><linearGradient id="linearGradient5117" x1="29.421" x2="-5.853" y1="28.106" y2="-16.604" gradientTransform="matrix(0.52064708,0,0,0.33294531,16.126655,17.963167)" gradientUnits="userSpaceOnUse" xlink:href="#linearGradient5111"/><linearGradient id="linearGradient3657" x1="12.829" x2="9.371" y1="53.589" y2="42.532" gradientTransform="matrix(0.74391497,0,0,0.23301944,14.695087,18.901693)" gradientUnits="userSpaceOnUse" xlink:href="#linearGradient3651"/></defs><g id="layer1" transform="translate(-15.857145,-19.515667)"><g id="g11220" transform="matrix(0.41634927,0,0,0.41634927,14.695088,18.901693)" style="fill:#3f3f3f;fill-opacity:1"><path id="path11214" d="m 34.098289,31.623542 1.043826,-0.677668 -1.438159,-1.154825 0.394333,1.832493 z" style="fill-rule:evenodd;stroke:#000;stroke-width:.5;stroke-linecap:butt;stroke-linejoin:miter;stroke-miterlimit:4;stroke-opacity:1"/><path id="path11212" d="m 6.1108233,25.087627 32.2291427,1.800818 -0.963515,1.944926 -1.001209,-0.05472 -0.963515,1.944926 -26.4725797,-1.446801 -1.155772,-2.060751 -0.946067,-0.05171 -0.726485,-2.076693 z" style="fill-rule:evenodd;stroke:#000;stroke-width:.5;stroke-linecap:butt;stroke-linejoin:miter;stroke-miterlimit:4;stroke-opacity:1"/><path id="path11218" d="m 35.753478,29.913804 1.329599,-0.856044 -1.657446,-1.092821 0.327847,1.948865 z" style="fill-rule:evenodd;stroke:#000;stroke-width:.5;stroke-linecap:butt;stroke-linejoin:miter;stroke-miterlimit:4;stroke-opacity:1"/></g><rect id="rect7393" width="15.13" height="9.601" x="18.316" y="18.506" rx=".686" ry="9.464" transform="matrix(0.99810154,0.06158985,-0.07799026,0.99695412,0,0)" style="fill:#fff;fill-opacity:1;stroke:#000;stroke-width:.20818877;stroke-miterlimit:4;stroke-opacity:1"/><rect id="rect1305" width="15.13" height="9.601" x="18.407" y="18.5" rx=".686" ry="9.464" transform="matrix(0.99810154,0.06158991,-0.07799024,0.99695412,0,0)" style="fill:#000;fill-opacity:.58638748;stroke:#000;stroke-width:.20818871;stroke-miterlimit:4;stroke-opacity:1"/><rect id="rect1307" width="15.13" height="9.601" x="17.979" y="18.944" rx=".686" ry="9.464" transform="matrix(0.99810154,0.06158991,-0.07799024,0.99695412,0,0)" style="fill:#fff;fill-opacity:1;stroke:#000;stroke-width:.20818871;stroke-miterlimit:4;stroke-opacity:1"/><rect id="rect1301" width="15.13" height="9.601" x="17.944" y="18.952" rx=".686" ry="9.464" transform="matrix(0.99810154,0.06158993,-0.07799026,0.99695412,0,0)" style="fill:#000;fill-opacity:.45026173;stroke:#000;stroke-width:.20818877;stroke-miterlimit:4;stroke-opacity:1"/><rect id="rect3593" width="12.46" height="7.906" x="18.994" y="19.925" rx=".686" ry="9.464" transform="matrix(0.99810155,0.06158981,-0.07799022,0.99695412,0,0)" style="fill:#fff;fill-opacity:1;stroke:#000;stroke-width:.17143984;stroke-miterlimit:4;stroke-opacity:1"/><rect id="rect1303" width="12.46" height="7.906" x="18.972" y="19.92" rx=".686" ry="9.464" transform="matrix(0.99810154,0.06158987,-0.0779902,0.99695413,0,0)" style="fill:url(#linearGradient5117);fill-opacity:1;stroke:#000;stroke-width:.1714398;stroke-miterlimit:4;stroke-opacity:1"/><path id="path2067" d="m 30.926395,20.920029 c 0.496486,-0.352939 0.496486,-0.352939 0.496486,-0.352939 l 0,0 -0.496486,0.352939 z" style="fill:none;fill-opacity:.75;fill-rule:evenodd;stroke:#000;stroke-width:.41634926px;stroke-linecap:butt;stroke-linejoin:miter;stroke-opacity:1"/><path id="path2833" d="m 17.007205,20.088436 0.552947,-0.470421 -0.552947,0.470421 z" style="fill:none;fill-opacity:.75;fill-rule:evenodd;stroke:#000;stroke-width:.20817463;stroke-linecap:butt;stroke-linejoin:miter;stroke-miterlimit:4;stroke-opacity:1"/><path id="path8153" d="m 16.577343,29.774258 13.41858,0.74977 -0.401158,0.809768 -0.416853,-0.02278 -0.401159,0.809768 -11.021839,-0.602374 -0.481205,-0.857992 -0.393894,-0.02153 -0.302472,-0.86463 z" style="fill:#969696;fill-opacity:1;fill-rule:evenodd;stroke:#000;stroke-width:.20817463;stroke-linecap:butt;stroke-linejoin:miter;stroke-miterlimit:4;stroke-opacity:1"/><g id="g11244" transform="matrix(0.24034469,-0.02145945,0,0.24034469,23.435354,22.139064)"><path id="rect11225" d="m 13.732812,37.130722 c 2.617383,0.0019 5.234993,-0.0039 7.852235,0.0029 0.446745,0.09769 0.625056,0.594662 0.749513,0.983995 0.243373,0.926721 0.234365,1.944273 -0.117445,2.842323 -0.130824,0.332526 -0.406477,0.71401 -0.81034,0.655302 -2.574532,-0.0019 -5.14929,0.0039 -7.72368,-0.0029 -0.446744,-0.09769 -0.625055,-0.594663 -0.749512,-0.983997 -0.243374,-0.926721 -0.234365,-1.944272 0.117445,-2.842323 0.128087,-0.283852 0.329415,-0.641629 0.681784,-0.655301 z" style="fill:#3f3f3f;fill-opacity:1;stroke:none;stroke-width:.5;stroke-miterlimit:4;stroke-opacity:1"/><rect id="rect11227" width="8.364" height=".056" x="13.387" y="37.425" rx="6.591" ry=".497" style="fill:#000;fill-opacity:1;stroke:#000;stroke-width:.03595135;stroke-miterlimit:4;stroke-opacity:1"/><rect id="rect11229" width="8.364" height=".056" x="13.387" y="41.256" rx="6.591" ry=".497" style="fill:#000;fill-opacity:1;stroke:#000;stroke-width:.03595135;stroke-miterlimit:4;stroke-opacity:1"/><rect id="rect11231" width="8.364" height=".056" x="13.387" y="40.161" rx="6.591" ry=".497" style="fill:#000;fill-opacity:1;stroke:#000;stroke-width:.03595135;stroke-miterlimit:4;stroke-opacity:1"/><rect id="rect11233" width="8.364" height=".056" x="13.387" y="39.067" rx="6.591" ry=".497" style="fill:#000;fill-opacity:1;stroke:#000;stroke-width:.03595135;stroke-miterlimit:4;stroke-opacity:1"/><rect id="rect11235" width="8.364" height=".056" x="13.387" y="38.52" rx="6.591" ry=".497" style="fill:#000;fill-opacity:1;stroke:#000;stroke-width:.03595135;stroke-miterlimit:4;stroke-opacity:1"/><rect id="rect11237" width="8.364" height=".056" x="13.387" y="40.709" rx="6.591" ry=".497" style="fill:#000;fill-opacity:1;stroke:#000;stroke-width:.03595135;stroke-miterlimit:4;stroke-opacity:1"/><rect id="rect11239" width="8.364" height=".056" x="13.387" y="37.972" rx="6.591" ry=".497" style="fill:#000;fill-opacity:1;stroke:#000;stroke-width:.03595135;stroke-miterlimit:4;stroke-opacity:1"/><rect id="rect11241" width="8.364" height=".056" x="13.387" y="39.614" rx="6.591" ry=".497" style="fill:#000;fill-opacity:1;stroke:#000;stroke-width:.03595135;stroke-miterlimit:4;stroke-opacity:1"/></g><g id="g11255" transform="matrix(-0.24034469,-0.0475754,0,0.24034469,22.985888,22.135154)"><path id="path11257" d="m 13.732812,37.130722 c 2.617383,0.0019 5.234993,-0.0039 7.852235,0.0029 0.446745,0.09769 0.625056,0.594662 0.749513,0.983995 0.243373,0.926721 0.234365,1.944273 -0.117445,2.842323 -0.130824,0.332526 -0.406477,0.71401 -0.81034,0.655302 -2.574532,-0.0019 -5.14929,0.0039 -7.72368,-0.0029 -0.446744,-0.09769 -0.625055,-0.594663 -0.749512,-0.983997 -0.243374,-0.926721 -0.234365,-1.944272 0.117445,-2.842323 0.128087,-0.283852 0.329415,-0.641629 0.681784,-0.655301 z" style="fill:#3f3f3f;fill-opacity:1;stroke:none;stroke-width:.5;stroke-miterlimit:4;stroke-opacity:1"/><rect id="rect11259" width="8.364" height=".056" x="13.387" y="37.425" rx="6.567" ry=".497" style="fill:#000;fill-opacity:1;stroke:#000;stroke-width:.03595135;stroke-miterlimit:4;stroke-opacity:1"/><rect id="rect11261" width="8.364" height=".056" x="13.387" y="41.256" rx="6.567" ry=".497" style="fill:#000;fill-opacity:1;stroke:#000;stroke-width:.03595135;stroke-miterlimit:4;stroke-opacity:1"/><rect id="rect11263" width="8.364" height=".056" x="13.387" y="40.161" rx="6.567" ry=".497" style="fill:#000;fill-opacity:1;stroke:#000;stroke-width:.03595135;stroke-miterlimit:4;stroke-opacity:1"/><rect id="rect11265" width="8.364" height=".056" x="13.387" y="39.067" rx="6.567" ry=".497" style="fill:#000;fill-opacity:1;stroke:#000;stroke-width:.03595135;stroke-miterlimit:4;stroke-opacity:1"/><rect id="rect11267" width="8.364" height=".056" x="13.387" y="38.52" rx="6.567" ry=".497" style="fill:#000;fill-opacity:1;stroke:#000;stroke-width:.03595135;stroke-miterlimit:4;stroke-opacity:1"/><rect id="rect11269" width="8.364" height=".056" x="13.387" y="40.709" rx="6.567" ry=".497" style="fill:#000;fill-opacity:1;stroke:#000;stroke-width:.03595135;stroke-miterlimit:4;stroke-opacity:1"/><rect id="rect11271" width="8.364" height=".056" x="13.387" y="37.972" rx="6.567" ry=".497" style="fill:#000;fill-opacity:1;stroke:#000;stroke-width:.03595135;stroke-miterlimit:4;stroke-opacity:1"/><rect id="rect11273" width="8.364" height=".056" x="13.387" y="39.614" rx="6.567" ry=".497" style="fill:#000;fill-opacity:1;stroke:#000;stroke-width:.03595135;stroke-miterlimit:4;stroke-opacity:1"/></g><path id="rect11295" d="m 20.999421,30.012301 c 1.350887,0.0655 2.701775,0.131002 4.052663,0.196502 0.202629,0.04061 0.238986,0.198421 0.280733,0.307428 0.05297,0.225332 0.05221,0.468259 -0.119053,0.664174 -0.131485,0.116016 -0.09408,0.04285 -0.421853,0.138299 -1.309467,0.171064 -2.483024,0.01364 -3.79249,-0.267656 -0.20263,-0.04061 -0.238987,-0.198421 -0.280733,-0.307427 -0.05297,-0.225332 -0.05221,-0.46826 0.119052,-0.664175 0.0357,-0.03384 0.08785,-0.07002 0.161681,-0.06715 z" style="fill:url(#linearGradient3657);fill-opacity:1;stroke:#000;stroke-width:.05204366;stroke-miterlimit:4;stroke-opacity:1"/><g id="g2858" transform="matrix(0.41634927,0,0,0.41634927,14.695088,18.901693)"><rect id="rect2086" width=".861" height=".858" x="19.965" y="26.697" rx=".236" ry=".233" transform="matrix(0.998712,0.05074527,-0.169934,0.985455,0,0)" style="fill:#181818;fill-opacity:1;stroke:none;stroke-width:.5;stroke-miterlimit:4;stroke-opacity:1"/><rect id="rect2846" width=".861" height=".858" x="21.377" y="26.947" rx=".236" ry=".233" transform="matrix(0.998712,0.05074527,-0.169934,0.985455,0,0)" style="fill:#181818;fill-opacity:1;stroke:none;stroke-width:.5;stroke-miterlimit:4;stroke-opacity:1"/><rect id="rect2848" width=".861" height=".858" x="22.79" y="27.266" rx=".236" ry=".233" transform="matrix(0.998712,0.05074527,-0.169934,0.985455,0,0)" style="fill:#181818;fill-opacity:1;stroke:none;stroke-width:.5;stroke-miterlimit:4;stroke-opacity:1"/><rect id="rect2850" width=".861" height=".858" x="24.202" y="27.486" rx=".236" ry=".233" transform="matrix(0.998712,0.05074527,-0.169934,0.985455,0,0)" style="fill:#181818;fill-opacity:1;stroke:none;stroke-width:.5;stroke-miterlimit:4;stroke-opacity:1"/><rect id="rect2852" width=".861" height=".858" x="25.615" y="27.426" rx=".236" ry=".233" transform="matrix(0.998712,0.05074527,-0.169934,0.985455,0,0)" style="fill:#181818;fill-opacity:1;stroke:none;stroke-width:.5;stroke-miterlimit:4;stroke-opacity:1"/><rect id="rect2854" width=".861" height=".858" x="27.027" y="27.146" rx=".236" ry=".233" transform="matrix(0.998712,0.05074527,-0.169934,0.985455,0,0)" style="fill:#181818;fill-opacity:1;stroke:none;stroke-width:.5;stroke-miterlimit:4;stroke-opacity:1"/><rect id="rect2856" width=".861" height=".858" x="28.44" y="27.007" rx=".236" ry=".233" transform="matrix(0.998712,0.05074527,-0.169934,0.985455,0,0)" style="fill:#181818;fill-opacity:1;stroke:none;stroke-width:.5;stroke-miterlimit:4;stroke-opacity:1"/></g><g id="g3633" transform="matrix(0.15210113,0,-0.04066217,0.15210113,23.36472,25.634936)"><circle id="path2867" cx="18.242" cy="33.911" r=".593" style="fill:none;fill-opacity:1;stroke:#ea9d1b;stroke-width:.30000001;stroke-miterlimit:4;stroke-opacity:1"/><rect id="rect3631" width=".207" height=".904" x="18.132" y="32.871" ry="0" style="fill:#ea9d1b;fill-opacity:1;stroke:#181818;stroke-width:.02;stroke-miterlimit:4;stroke-opacity:1"/></g></g></svg>