<svg xmlns="http://www.w3.org/2000/svg" xmlns:svg="http://www.w3.org/2000/svg" id="svg2" width="16" height="12" version="1.1" viewBox="0 0 16 12"><metadata id="metadata8"/><path id="furniture" d="M 4,1 C 3,1 2,2 2,3 4,3 5,4.5760463 5,6 l 6,0 C 11,4.4818344 12,3 14,3 14,2 13,1 12,1 Z M 2,4 C 1,4 1,5 1,5 1,5.5181656 1.481834,6 2,6 l 0,3 c 0,0.645252 0.423351,1 1,1 l 0.5,0 c 0,0 0,1 1,1 1,0 1,-1 1,-1 l 5,0 c 0,0 0,1 1,1 1,0 1,-1 1,-1 l 0.5,0 c 0.509491,0 1,-0.48425 1,-1 l 0,-3 c 0.494613,0 1,-0.3876224 1,-1 0,0 0,-1 -1,-1 -1,0 -2,1 -2,3 L 4,7 C 4,5 3,4 2,4 Z" style="fill:#ac39ac;fill-opacity:1;stroke:none"/></svg>