<svg xmlns="http://www.w3.org/2000/svg" xmlns:svg="http://www.w3.org/2000/svg" xmlns:xlink="http://www.w3.org/1999/xlink" id="svg2" width="150" height="160" version="1.1" viewBox="0 0 150 160"><defs id="defs4"><clipPath id="clipoutline2" clipPathUnits="userSpaceOnUse"><path id="outline2" d="m 55.8,12 0.76,0.16 c 8.84,-2.94 28.68,8.64 24.26,18.96 -1.12,1.62 -0.93,4.5 0.42,6.31 L 56.43,62.25 c -1.39,-1.39 -4.48,-1.36 -5.9,0 L 9.5,101.63 c -3.74,3.59 -0.8,6.64 0.78,8.25 l 7.36,7.36 c 1.61,1.6 5.86,3.76 8.88,0.56 L 65.24,76.99 c 1.35,-1.42 1.36,-4.47 0,-5.87 0,0 0.01,-0.02 0,-0.02 L 90.15,46.2 c 2.63,2.37 5.113827,2.574854 7.47,1.93 4.55057,-1.245432 7.08725,3.206643 9.81,6.46 l -1.23,1.21 c -1.82,1.84 -1.65,4.94 0.39,6.98 2.04,2.04 5.15,2.21 6.97,0.39 l 8.14,-8.13 c 1.82,-1.84 1.65,-4.94 -0.4,-6.97 -1.84,-1.85 -4.51,-2.09 -6.37,-0.77 -5.58,-6.26 -2.65,-7.2 -10.01,-15.35 L 91.13,17.86 C 81.2,8.12 68.3,8.13 55.8,12 Z"/></clipPath><clipPath id="clipoutline1" clipPathUnits="userSpaceOnUse"><path id="outline1" d="m 22.42,17.2 12.96,12.95 -2.5,8.78 -8.78,2.5 -12.96,-12.96 -5.86,5.86 14.89,21.46 17.56,-3.34 61.63,65.62 c 9.44,9.51 22.17,-4.75 13.34,-12.87 L 46.85,42.92 50.86,25.16 28.72,10.89 Z m 81.06,91.97 c 1.68,-1.68 4.4,-1.68 6.08,0 1.68,1.68 1.68,4.4 0,6.08 -1.68,1.67 -4.4,1.67 -6.08,0 -1.68,-1.68 -1.68,-4.4 0,-6.08 z"/></clipPath></defs><metadata id="metadata7"/><g id="layer1" transform="translate(0,-893.3622)"><g id="spanner" transform="matrix(-0.7932034,-0.82221181,0.82237152,-0.79304936,118.77808,1082.9729)" style="fill:#ac39ac;fill-opacity:1;stroke:#ac39ac;stroke-width:2.34710145;stroke-linecap:round;stroke-linejoin:round;stroke-miterlimit:4;stroke-dasharray:none;stroke-opacity:1"><use id="use4649" width="580" height="580" x="0" y="0" class="outline-big" xlink:href="#outline1" style="fill:#ac39ac;fill-opacity:1;stroke:#ac39ac;stroke-width:2.34710145;stroke-linecap:round;stroke-linejoin:round;stroke-miterlimit:4;stroke-dasharray:none;stroke-opacity:1"/><use id="use4651" width="580" height="580" x="0" y="0" class="outline-small" xlink:href="#outline1" style="fill:#ac39ac;fill-opacity:1;stroke:#ac39ac;stroke-width:2.34710145;stroke-linecap:round;stroke-linejoin:round;stroke-miterlimit:4;stroke-dasharray:none;stroke-opacity:1"/><use id="use4653" width="580" height="580" x="0" y="0" class="aluminium4" xlink:href="#outline1" style="fill:#ac39ac;fill-opacity:1;stroke:#ac39ac;stroke-width:2.34710145;stroke-linecap:round;stroke-linejoin:round;stroke-miterlimit:4;stroke-dasharray:none;stroke-opacity:1"/><use style="fill:#ac39ac;fill-opacity:1;stroke:#ac39ac;stroke-width:2.34710145;stroke-linecap:round;stroke-linejoin:round;stroke-miterlimit:4;stroke-dasharray:none;stroke-opacity:1" id="use4655" width="580" height="580" x="0" y="0" class="stroke-highlight" clip-path="url(#clipoutline1)" xlink:href="#outline1"/><path style="fill:#ac39ac;fill-opacity:1;stroke:#ac39ac;stroke-width:2.34710145;stroke-linecap:round;stroke-linejoin:round;stroke-miterlimit:4;stroke-dasharray:none;stroke-opacity:1" id="path4657" d="M 24.33,15.4 37.78,28.78 34.45,40.47 23.5,43.74 9.9319417,30 5.2,34.54 19.4,54.48 38.3,50.34 100.8,116.7 c 7.5,8.3 20.2,-2.67 11.14,-11.6 L 45.04,42 48.9,24.83 28.94,10.8 Z m 79.97,93.3 c 1.67,-1.67 4.63,-2 6.3,-0.3 1.7,1.67 3.06,4.63 0.65,7.84 -2,2 -5.2,1.92 -7.2,-0.24 -1.68,-1.68 -1.45,-5.6 0.25,-7.3 z" class="high-specularity"/><path style="fill:#ac39ac;fill-opacity:1;stroke:#ac39ac;stroke-width:2.34710145;stroke-linecap:round;stroke-linejoin:round;stroke-miterlimit:4;stroke-dasharray:none;stroke-opacity:1" id="path4659" d="M 24.2,15.42 47.67,39.07 50.89,25.2 28.79,10.8 Z" class="specularity"/></g><use id="use4686" width="580" height="580" x="0" y="0" class="stroke-highlight" clip-path="url(#clipoutline2)" transform="matrix(0.92415346,-0.92676516,0.92694517,0.92397399,-62.691105,961.36308)" xlink:href="#outline2" style="fill:#ac39ac;fill-opacity:1;stroke:#ac39ac;stroke-width:2.53515434;stroke-linecap:round;stroke-linejoin:round;stroke-miterlimit:4;stroke-dasharray:none;stroke-opacity:1"/></g></svg>