<svg xmlns="http://www.w3.org/2000/svg" xmlns:svg="http://www.w3.org/2000/svg" id="svg4149" width="16" height="16" version="1.1" viewBox="0 0 16 16"><metadata id="metadata4154"/><g id="layer1" transform="translate(0,-1036.3622)"><rect style="opacity:1;fill:#fff;fill-opacity:1;stroke:none;stroke-width:.5;stroke-linecap:round;stroke-linejoin:round;stroke-miterlimit:4;stroke-dasharray:none;stroke-dashoffset:.5;stroke-opacity:1" id="rect4352" width="16" height="16" x="0" y="1036.362" ry="2"/><path style="color:#000;font-style:normal;font-variant:normal;font-weight:400;font-stretch:normal;font-size:medium;line-height:normal;font-family:sans-serif;text-indent:0;text-align:start;text-decoration:none;text-decoration-line:none;text-decoration-style:solid;text-decoration-color:#000;letter-spacing:normal;word-spacing:normal;text-transform:none;direction:ltr;block-progression:tb;writing-mode:lr-tb;baseline-shift:baseline;text-anchor:start;white-space:normal;clip-rule:nonzero;display:inline;overflow:visible;visibility:visible;opacity:1;isolation:auto;mix-blend-mode:normal;color-interpolation:sRGB;color-interpolation-filters:linearRGB;solid-color:#000;solid-opacity:1;fill:#da0092;fill-opacity:1;fill-rule:nonzero;stroke:none;stroke-width:.99999994;stroke-linecap:round;stroke-linejoin:round;stroke-miterlimit:4;stroke-dasharray:none;stroke-dashoffset:.5;stroke-opacity:1;color-rendering:auto;image-rendering:auto;shape-rendering:auto;text-rendering:auto;enable-background:accumulate" id="path4144" d="m 7.5,1037.3613 c -1.9270768,0 -3.5,1.5729 -3.5,3.5 0,1.9271 1.5729232,3.5 3.5,3.5 1.9270768,0 3.5,-1.5729 3.5,-3.5 0,-1.9271 -1.5729232,-3.5 -3.5,-3.5 z"/><path style="fill:none;fill-rule:evenodd;stroke:#fff;stroke-width:.99999994px;stroke-linecap:round;stroke-linejoin:round;stroke-opacity:1" id="path4146" d="m 7.5007686,1039.148 0,1.7135 1.5383171,0.7158"/><path style="color:#000;font-style:normal;font-variant:normal;font-weight:400;font-stretch:normal;font-size:medium;line-height:normal;font-family:sans-serif;text-indent:0;text-align:start;text-decoration:none;text-decoration-line:none;text-decoration-style:solid;text-decoration-color:#000;letter-spacing:normal;word-spacing:normal;text-transform:none;direction:ltr;block-progression:tb;writing-mode:lr-tb;baseline-shift:baseline;text-anchor:start;white-space:normal;clip-rule:nonzero;display:inline;overflow:visible;visibility:visible;opacity:1;isolation:auto;mix-blend-mode:normal;color-interpolation:sRGB;color-interpolation-filters:linearRGB;solid-color:#000;solid-opacity:1;fill:#da0092;fill-opacity:1;fill-rule:evenodd;stroke:none;stroke-width:.99999988px;stroke-linecap:round;stroke-linejoin:miter;stroke-miterlimit:4;stroke-dasharray:none;stroke-dashoffset:0;stroke-opacity:1;color-rendering:auto;image-rendering:auto;shape-rendering:auto;text-rendering:auto;enable-background:accumulate" id="path4167" d="M 12.492188,1037.3173 A 0.50004994,0.50004994 0 0 0 12,1037.8231 l 0,7.5391 -1,0 -1,6 5,0 -1,-6 -1,0 0,-7.5391 a 0.50004994,0.50004994 0 0 0 -0.507812,-0.5058 z"/><path style="fill:#da0092;fill-rule:evenodd;stroke:none;stroke-width:1px;stroke-linecap:butt;stroke-linejoin:miter;stroke-opacity:1;fill-opacity:1" id="path4340" d="m 1,1044.3722 1,1.99 -1,5.0022 4,0 -1,-5.0022 0.5022826,-1 0.4977174,0 0,2 1,0 0,-3 z"/></g></svg>