<svg xmlns="http://www.w3.org/2000/svg" xmlns:svg="http://www.w3.org/2000/svg" id="svg2" width="577.452" height="577.452" version="1.1"><metadata id="metadata7"/><g id="layer1" transform="translate(-43.206071,-260.77882)"><g id="Layer_2" transform="matrix(1.0017469,0,0,1.0000008,41.499094,259.07437)" style="fill:#fff;fill-opacity:1;stroke:none"><g id="g1327" style="fill:#fff;fill-opacity:1;stroke:none"><path style="fill:#fff;fill-opacity:1;stroke:none" id="path1329" d="M 66.275,1.768 C 24.94,1.768 1.704,23.139 1.704,66.804 v 450.123 c 0,40.844 20.895,62.229 62.192,62.229 H 515.92 c 41.307,0 62.229,-20.315 62.229,-62.229 V 66.804 c 0,-42.601 -20.923,-65.036 -63.521,-65.036 -0.004,0 -448.495,-0.143 -448.353,0 z"/></g></g><g style="display:none" id="svg2-1" display="none" transform="translate(41.502071,259.07482)"><path style="opacity:.75;fill:#fff;stroke:#fff;stroke-width:35.84500122;stroke-linecap:round;stroke-linejoin:round;display:inline" id="rect3241" d="m 103.979,82.413 v 62.924 h 112.403 c 7.778,-20.622 12.715,-34.171 13.042,-36.067 l 190.991,-1.647 14.588,37.714 h 69.613 V 82.413 H 103.979 z" display="inline" enable-background="new"/><path style="fill:none;stroke:#fff;stroke-width:20;stroke-linejoin:round;display:inline" id="path2443" d="m 227.906,158.094 -40.375,0.375 C 185.928,167.765 65.218,517.094 65.218,517.094 l 403.813,-3.406 -15.594,-40.313 -333.094,2.844 c 10e-4,0 75.095,-232.387 107.563,-318.125 z" display="inline"/><path style="fill:none;stroke:#fff;stroke-width:20;stroke-linejoin:round;display:inline" id="path3243" d="m 242.694,117.588 c -1.603,9.296 -122.338,358.618 -122.338,358.618 l 403.838,-3.412 -122.542,-356.725 -158.958,1.519 z" display="inline"/><path style="opacity:.1;fill:#fff;stroke:#fff;stroke-width:20;stroke-linecap:round;stroke-linejoin:round;display:inline" id="path3163" d="m 242.694,117.588 c -1.603,9.296 -122.338,358.618 -122.338,358.618 l 403.838,-3.412 -122.542,-356.725 -158.958,1.519 z" display="inline" enable-background="new"/><path style="opacity:.1;fill:#fff;stroke:#fff;stroke-width:20;stroke-linecap:round;stroke-linejoin:round;display:inline" id="path3165" d="m 227.906,158.094 -40.375,0.375 C 185.928,167.765 65.218,517.094 65.218,517.094 l 403.813,-3.406 -15.594,-40.313 -333.094,2.844 c 10e-4,0 75.095,-232.387 107.563,-318.125 z" display="inline" enable-background="new"/><g style="display:inline" id="g4998" display="inline" transform="translate(-133.14896,123.86039)"><g id="g5004"><path style="fill:#fff" id="text2413" d="m 465.402,153.84 c 0.229,0.097 1.086,0.291 2.572,0.581 23.434,3.872 41.037,10.938 52.811,21.199 11.773,10.26 17.661,23.715 17.661,40.364 0,17.036 -6.459,31.798 -19.376,44.285 -12.917,12.487 -30.807,19.263 -53.669,20.327 v 26.426 h -18.347 v -26.135 c -23.32,-2.227 -41.209,-8.64 -53.669,-19.238 -12.46,-10.6 -19.49,-25.434 -21.09,-44.504 l 30.864,-4.646 c 2.4,14.326 7.259,25.36 14.575,33.104 7.315,7.744 17.089,12.148 29.321,13.213 V 175.62 c -23.205,-4.26 -40.581,-11.374 -52.126,-21.344 -11.545,-9.97 -17.318,-22.795 -17.318,-38.477 0,-15.584 5.716,-28.966 17.147,-40.146 11.431,-11.18 28.863,-17.641 52.297,-19.384 V 43.782 h 18.347 v 12.487 c 19.433,1.646 34.75,6.873 45.953,15.681 11.202,8.809 18.232,21.15 21.091,37.025 l -32.064,3.92 c -1.829,-9.873 -5.659,-17.689 -11.488,-23.449 -5.83,-5.759 -13.66,-9.462 -23.491,-11.107 v 75.501 z m -18.347,-3.194 V 78.048 c -12.46,1.839 -22.006,6.074 -28.635,12.705 -6.63,6.631 -9.945,14.302 -9.945,23.014 0,9.971 3.429,17.835 10.288,23.595 6.859,5.758 16.289,10.187 28.292,13.284 l 0,0 z m 18.347,108.171 c 12.003,-1.549 21.891,-5.977 29.664,-13.285 7.772,-7.309 11.659,-16.528 11.659,-27.66 0,-9.776 -2.943,-17.641 -8.83,-23.594 -5.888,-5.953 -16.719,-11.012 -32.493,-15.174 v 79.713 z"/></g><path style="fill:none;stroke:#fff;stroke-width:30;stroke-linecap:round;stroke-linejoin:round" id="path4370" d="M 455.376,43.427 V 308.47"/></g></g><polygon style="fill:#06f" id="polygon3008" points="57.166 279.626 97.878 125.442 206.176 125.442 249.896 279.626" transform="matrix(0.97903483,0,0,1.0576771,60.700564,227.59602)"/><rect style="fill:#06f" id="rect3010" width="32.347" height="289.269" x="194.839" y="494.229"/><path style="fill:#06f" id="path3012" d="m 311.84154,794.1746 c 0,5.89761 -44.24227,10.6762 -98.80881,10.6762 -54.56488,0 -98.80716,-4.77859 -98.80716,-10.6762 0,-5.8976 44.24228,-10.67619 98.80716,-10.67619 54.56654,0 98.80881,4.77753 98.80881,10.67619 z"/><g id="g3014" transform="matrix(0.93837554,0,0,0.88379798,76.599274,280.78345)" style="fill:#8e3900;fill-opacity:1"><polygon id="polygon3016" points="307.59 304.929 347.187 261.638 347.187 111.886 307.59 68.593" style="fill:#8e3900;fill-opacity:1"/><polygon id="polygon3018" points="531.824 65.115 312.54 65.115 350.953 107.113 493.411 107.113" style="fill:#8e3900;fill-opacity:1"/><polygon id="polygon3020" points="531.929 308.521 493.515 266.523 350.849 266.523 312.436 308.521" style="fill:#8e3900;fill-opacity:1"/><polygon id="polygon3022" points="537.079 68.26 497.482 111.553 497.482 261.972 537.079 305.264" style="fill:#8e3900;fill-opacity:1"/></g><path id="path3024" d="m 547.76931,627.02952 0.78659,-0.77959 H 372.75132 l 0.78659,0.77959 34.78756,34.47766 8.52803,8.45207 c 0,0 -79.14226,72.88438 -21.14488,119.37073 11.97284,9.59688 25.2337,15.22281 38.73863,18.122 8.7274,1.87291 17.55509,2.60579 26.20636,2.52556 8.65128,0.079 17.48017,-0.65265 26.20636,-2.52556 13.50494,-2.89919 26.76459,-8.52512 38.73863,-18.122 57.99739,-46.48516 -21.14488,-119.37073 -21.14488,-119.37073 l 8.52803,-8.45207 34.78756,-34.47766 z" style="fill:#677821"/></g></svg>