<svg xmlns="http://www.w3.org/2000/svg" xmlns:svg="http://www.w3.org/2000/svg" xmlns:xlink="http://www.w3.org/1999/xlink" id="svg2297" width="181.403" height="181.322" version="1.0"><metadata id="metadata2302"/><defs id="defs2300"><linearGradient id="linearGradient3960"><stop id="stop3962" offset="0" style="stop-color:#fff;stop-opacity:1"/><stop id="stop3964" offset="1" style="stop-color:#fff;stop-opacity:0"/></linearGradient><linearGradient id="linearGradient8554"><stop id="stop8556" offset="0" style="stop-color:#000391;stop-opacity:1"/><stop id="stop8558" offset="1" style="stop-color:#016fdb;stop-opacity:1"/></linearGradient><linearGradient id="linearGradient4142"><stop style="stop-color:#fff;stop-opacity:1" id="stop4144" offset="0"/><stop style="stop-color:#fff;stop-opacity:0" id="stop4146" offset="1"/></linearGradient><linearGradient id="linearGradient8560"><stop style="stop-color:#bfb800;stop-opacity:1" id="stop8562" offset="0"/><stop id="stop8564" offset=".5" style="stop-color:#f8fe05;stop-opacity:1"/><stop style="stop-color:#bfb800;stop-opacity:1" id="stop8566" offset="1"/></linearGradient><linearGradient id="linearGradient6278" x1="-29.469" x2="-29.469" y1="-10.199" y2="507.531" gradientTransform="matrix(0.944751, 0, 0, 0.804205, 376.333, -23.4036)" gradientUnits="userSpaceOnUse" xlink:href="#linearGradient3960"/><linearGradient id="linearGradient6296" x1="171.839" x2="577.027" y1="381.281" y2="381.281" gradientTransform="matrix(0.373423, 0, 0, 0.373423, -112.281, -15.0815)" gradientUnits="userSpaceOnUse" xlink:href="#linearGradient8560"/><linearGradient id="linearGradient6298" x1="353.587" x2="359.008" y1="493.62" y2="180.484" gradientUnits="userSpaceOnUse" xlink:href="#linearGradient4142"/><linearGradient id="linearGradient6300" x1="357.916" x2="357" y1="152.259" y2="440.061" gradientUnits="userSpaceOnUse" xlink:href="#linearGradient4142"/><linearGradient id="linearGradient6302" x1="361.191" x2="360.275" y1="110.541" y2="444.969" gradientUnits="userSpaceOnUse" xlink:href="#linearGradient4142"/><linearGradient id="linearGradient6304" x1="361.191" x2="360.275" y1="80.283" y2="444.969" gradientUnits="userSpaceOnUse" xlink:href="#linearGradient4142"/><radialGradient id="radialGradient6306" cx="259.852" cy="485.571" r="13.5" fx="259.852" fy="485.571" gradientTransform="matrix(-0.279365, 0.654874, -0.658877, -0.0877378, 657.025, 359.295)" gradientUnits="userSpaceOnUse" xlink:href="#linearGradient3960"/><linearGradient id="linearGradient6326" x1="-29.469" x2="-29.469" y1="-10.199" y2="507.531" gradientTransform="matrix(0.944751, 0, 0, -0.804205, 376.333, 523.121)" gradientUnits="userSpaceOnUse" xlink:href="#linearGradient3960"/><linearGradient id="linearGradient7303" x1="170.813" x2="526.188" y1="250.25" y2="250.25" gradientUnits="userSpaceOnUse" xlink:href="#linearGradient8560"/><linearGradient id="linearGradient7332" x1="170.813" x2="526.188" y1="250.25" y2="250.25" gradientTransform="matrix(0.467824,0,0,0.467824,-71.8466,-14.2105)" gradientUnits="userSpaceOnUse" xlink:href="#linearGradient8560"/><linearGradient id="linearGradient7336" x1="171.839" x2="577.027" y1="381.281" y2="381.281" gradientTransform="matrix(0.373423,0,0,0.373423,-112.281,-15.0815)" gradientUnits="userSpaceOnUse" xlink:href="#linearGradient8560"/><linearGradient id="linearGradient7338" x1="353.587" x2="359.008" y1="493.62" y2="180.484" gradientUnits="userSpaceOnUse" xlink:href="#linearGradient4142"/><linearGradient id="linearGradient7340" x1="357.916" x2="357" y1="152.259" y2="440.061" gradientUnits="userSpaceOnUse" xlink:href="#linearGradient4142"/><linearGradient id="linearGradient7342" x1="361.191" x2="360.275" y1="110.541" y2="444.969" gradientUnits="userSpaceOnUse" xlink:href="#linearGradient4142"/><linearGradient id="linearGradient7344" x1="361.191" x2="360.275" y1="80.283" y2="444.969" gradientUnits="userSpaceOnUse" xlink:href="#linearGradient4142"/><radialGradient id="radialGradient7346" cx="259.852" cy="485.571" r="13.5" fx="259.852" fy="485.571" gradientTransform="matrix(-0.279365,0.654874,-0.658877,-0.0877378,657.025,359.295)" gradientUnits="userSpaceOnUse" xlink:href="#linearGradient3960"/></defs><path style="opacity:1;fill:#000;fill-opacity:1;stroke:none;stroke-width:4.76399994;stroke-miterlimit:4;stroke-dasharray:none;stroke-opacity:1" id="path7309" d="m 91.138739,36.696728 c -43.069098,0 -78.023233,29.752497 -78.023233,66.414422 -5e-6,36.66193 34.954135,66.41442 78.023233,66.41442 43.069091,1e-5 78.023211,-29.75249 78.023211,-66.41442 1e-5,-36.661929 -34.95412,-66.414422 -78.023211,-66.414422 z m 0,15.19024 c 30.933601,-4e-6 56.040591,21.379585 56.040591,47.711354 0,26.331768 -25.107,47.697628 -56.040591,47.697628 -30.933599,0 -56.026888,-21.36586 -56.026888,-47.697628 -4e-6,-26.331769 25.093289,-47.711354 56.026888,-47.711354 z"/><path id="path7305" d="m 90.701857,29.348485 c -48.151772,-1e-6 -87.2309263,33.263657 -87.2309263,74.252135 -4.7e-6,40.98849 39.0791543,74.25214 87.2309263,74.25215 48.151773,0 87.230913,-33.26366 87.230913,-74.25215 1e-5,-40.988483 -39.07914,-74.252135 -87.230913,-74.252135 z m 0,16.982877 c 34.584153,-5e-6 62.654073,23.902634 62.654073,53.341877 0,29.439241 -28.06993,53.326541 -62.654073,53.326541 -34.584137,0 -62.638738,-23.8873 -62.638738,-53.326541 -5e-6,-29.439243 28.054596,-53.341877 62.638738,-53.341877 z" style="opacity:1;fill:#000;fill-opacity:1;stroke:none;stroke-width:4.76399994;stroke-miterlimit:4;stroke-dasharray:none;stroke-opacity:1"/><g style="fill:#000" id="g7519" transform="matrix(0.18938966,0,0,0.18938966,-63.537578,-27.203563)"><path id="path7521" d="m 812.27336,233.65414 c -77.5924,0 -145.00978,31.03659 -178.91776,76.49839 l -23.67657,0 0.75865,75.45526 c -2.58789,59.14115 96.31085,125.63028 203.82177,125.63026 107.51092,0 201.47605,-56.55868 199.88115,-125.63026 l 0.7271,-75.45526 -23.67658,0 C 957.28135,264.69474 889.86158,233.65414 812.27336,233.65414 Z" style="fill:#000;fill-opacity:1;stroke:none;stroke-width:1.46061003;stroke-miterlimit:4;stroke-dasharray:none;stroke-opacity:1"/><ellipse id="path7523" cx="372.075" cy="322.095" rx="199.921" ry="141.611" transform="matrix(1.01242,0,0,1.01242,435.702,-20.7693)" style="opacity:1;fill:#000;fill-opacity:1;stroke:none;stroke-width:18.86700058;stroke-miterlimit:4;stroke-dasharray:none;stroke-opacity:1"/></g><path style="opacity:1;fill:url(#linearGradient7332);fill-opacity:1;stroke:none;stroke-width:4.76399994;stroke-miterlimit:4;stroke-dasharray:none;stroke-opacity:1" id="path6321" d="m 91.190064,32.104076 c -45.886101,-10e-7 -83.126477,31.698515 -83.126477,70.758384 -4.7e-6,39.05986 37.240376,70.75837 83.126477,70.75838 45.886106,0 83.126476,-31.69852 83.126476,-70.75838 1e-5,-39.059874 -37.24037,-70.758384 -83.126476,-70.758384 z m 0,16.183787 c 32.956876,-5e-6 59.706036,22.777952 59.706036,50.832001 0,28.054046 -26.74917,50.817386 -59.706036,50.817386 -32.956863,0 -59.691418,-22.76334 -59.691418,-50.817386 -5e-6,-28.054049 26.73455,-50.832001 59.691418,-50.832001 z"/><g id="g6284" transform="matrix(0.467824,0,0,0.467824,77.873922,-16.966091)"><path style="fill:url(#linearGradient7336);fill-opacity:1;stroke:none;stroke-width:1.46061003;stroke-miterlimit:4;stroke-dasharray:none;stroke-opacity:1" id="path7525" d="m 27.54078,75.469492 c -28.9747399,0 -54.14991,11.58976 -66.81191,28.566208 l -8.84136,0 0.28329,28.17669 c -0.96637,22.08464 35.96464,46.91317 76.11163,46.91317 40.147,0 75.23568,-21.12029 74.64014,-46.91317 l 0.27148,-28.17669 -8.84134,0 C 81.69002,87.060742 56.51397,75.469492 27.54078,75.469492 Z"/><ellipse id="path7529" cx="372.075" cy="322.095" rx="199.921" ry="141.611" transform="matrix(0.274552,0,0,0.209226,-73.4314,80.2833)" style="opacity:.18719201;fill:url(#linearGradient7338);fill-opacity:1;stroke:none;stroke-width:2.20433998;stroke-miterlimit:4;stroke-dasharray:none;stroke-opacity:1"/><ellipse style="fill:#c0b900;fill-opacity:1;stroke:none;stroke-width:18.86700058;stroke-miterlimit:4;stroke-dasharray:none;stroke-opacity:1" id="path7527" cx="372.075" cy="322.095" rx="199.921" ry="141.611" transform="matrix(0.378061,0,0,0.378061,-113.079,-19.5379)"/><ellipse id="path7531" cx="372.075" cy="322.095" rx="199.921" ry="141.611" transform="matrix(0.370672,0,0,0.370672,-110.443,-15.2717)" style="fill:#c2bc00;fill-opacity:1;stroke:none;stroke-width:18.86700058;stroke-miterlimit:4;stroke-dasharray:none;stroke-opacity:1"/><ellipse id="path7533" cx="372.075" cy="322.095" rx="199.921" ry="141.611" transform="matrix(0.335835,0,0,-0.298769,-96.9713,208.929)" style="opacity:.340049;fill:url(#linearGradient7340);fill-opacity:1;stroke:none;stroke-width:2.20433998;stroke-miterlimit:4;stroke-dasharray:none;stroke-opacity:1"/><ellipse style="opacity:.63054199;fill:url(#linearGradient7342);fill-opacity:1;stroke:none;stroke-width:2.20433998;stroke-miterlimit:4;stroke-dasharray:none;stroke-opacity:1" id="path7535" cx="372.075" cy="322.095" rx="199.921" ry="141.611" transform="matrix(0.289277,0,0,0.257349,-78.325,5.61153)"/><ellipse style="fill:#c0b900;fill-opacity:1;stroke:none;stroke-width:2.20433998;stroke-miterlimit:4;stroke-dasharray:none;stroke-opacity:1" id="path7537" cx="372.075" cy="322.095" rx="199.921" ry="141.611" transform="matrix(0.280548,0,0,0.280548,-76.2445,8.5938)"/><ellipse id="path7539" cx="372.075" cy="322.095" rx="199.921" ry="141.611" transform="matrix(0.267704,0,0,0.267704,-71.2981,13.4052)" style="fill:#697dbc;fill-opacity:1;stroke:none;stroke-width:2.20433998;stroke-miterlimit:4;stroke-dasharray:none;stroke-opacity:1"/><ellipse id="path7563" cx="372.075" cy="322.095" rx="199.921" ry="141.611" transform="matrix(0.231516,0,0,0.205964,-57.3698,26.0148)" style="fill:url(#linearGradient7344);fill-opacity:1;stroke:none;stroke-width:2.20433998;stroke-miterlimit:4;stroke-dasharray:none;stroke-opacity:1"/><circle style="display:inline;opacity:.5;fill:url(#radialGradient7346);fill-opacity:1;stroke:none;stroke-width:1;stroke-linejoin:bevel;stroke-miterlimit:4;stroke-dasharray:none;stroke-dashoffset:0;stroke-opacity:1" id="path7565" cx="264.5" cy="486.862" r="13.5" transform="matrix(-0.0421347,-1.12142,1.96207,-0.0881344,-915.908,462.77)"/></g></svg>