<svg xmlns="http://www.w3.org/2000/svg" xmlns:cc="http://web.resource.org/cc/" xmlns:svg="http://www.w3.org/2000/svg" id="svg2" width="370" height="520" version="1.0"><metadata id="metadata7"/><g id="layer1" transform="translate(-214.64286,-311.71933)"><rect style="fill:#fff;fill-opacity:1;stroke:#000;stroke-width:7;stroke-miterlimit:4;stroke-dasharray:none;stroke-dashoffset:0;stroke-opacity:1" id="rect2160" width="348.571" height="491.429" x="226.061" y="329.361"/><path style="fill:none;fill-rule:evenodd;stroke:#000;stroke-width:5;stroke-linecap:butt;stroke-linejoin:miter;stroke-miterlimit:4;stroke-dasharray:none;stroke-opacity:1" id="path3138" d="M 223.20378,420.79004 L 571.77521,420.79004"/><g id="g3184" transform="translate(2.0203051,-56.568543)"><path id="path3136" d="M 574.28571 702.36218 A 124.28571 124.28571 0 1 1 325.71429,702.36218 A 124.28571 124.28571 0 1 1 574.28571 702.36218 z" transform="matrix(0.8089401,0,0,0.7974459,36.323589,89.265623)" style="fill:gray;fill-opacity:1;stroke:#ddd;stroke-width:37.35187912;stroke-miterlimit:4;stroke-dasharray:none;stroke-dashoffset:0;stroke-opacity:1"/><path id="path3142" d="M 485.71428 659.50507 A 61.42857 61.42857 0 1 1 362.85714,659.50507 A 61.42857 61.42857 0 1 1 485.71428 659.50507 z" transform="translate(-23.939072,-10.1436)" style="fill:none;fill-opacity:1;stroke:#c4c4c4;stroke-width:5;stroke-miterlimit:4;stroke-dasharray:none;stroke-dashoffset:0;stroke-opacity:1"/><rect id="rect3140" width="27.222" height="64.365" x="309.593" y="617.179" style="fill:#b3b3b3;fill-opacity:1;stroke:#d0d0d0;stroke-width:3.49218512;stroke-miterlimit:4;stroke-dasharray:none;stroke-dashoffset:0;stroke-opacity:1"/></g><path style="fill:#505050;fill-opacity:1;stroke:#505050;stroke-width:5;stroke-miterlimit:4;stroke-dasharray:none;stroke-dashoffset:0;stroke-opacity:1" id="path3144" d="M 505.7143 366.64789 A 17.142857 17.142857 0 1 1 471.42859,366.64789 A 17.142857 17.142857 0 1 1 505.7143 366.64789 z" transform="translate(23.203772,11.284993)"/><path style="fill:none;fill-rule:evenodd;stroke:#000;stroke-width:5;stroke-linecap:butt;stroke-linejoin:miter;stroke-miterlimit:4;stroke-dasharray:none;stroke-opacity:1" id="path3146" d="M 340.34663,329.36147 L 340.34663,417.93289"/><path style="fill:none;fill-rule:evenodd;stroke:#000;stroke-width:2.66105628px;stroke-linecap:butt;stroke-linejoin:miter;stroke-opacity:1" id="path3148" d="M 226.41806,396.90206 L 339.27521,396.90206"/><rect style="fill:#505050;fill-opacity:1;stroke:#000;stroke-width:7;stroke-miterlimit:4;stroke-dasharray:none;stroke-dashoffset:0;stroke-opacity:1" id="rect3150" width="10" height="2.857" x="382.132" y="392.861"/><rect id="rect3152" width="10" height="2.857" x="405.942" y="392.861" style="fill:#505050;fill-opacity:1;stroke:#000;stroke-width:7;stroke-miterlimit:4;stroke-dasharray:none;stroke-dashoffset:0;stroke-opacity:1"/><rect style="fill:#505050;fill-opacity:1;stroke:#000;stroke-width:7;stroke-miterlimit:4;stroke-dasharray:none;stroke-dashoffset:0;stroke-opacity:1" id="rect3154" width="10" height="2.857" x="429.751" y="392.861"/><rect id="rect3156" width="10" height="2.857" x="453.561" y="392.861" style="fill:#505050;fill-opacity:1;stroke:#000;stroke-width:7;stroke-miterlimit:4;stroke-dasharray:none;stroke-dashoffset:0;stroke-opacity:1"/></g></svg>