<svg xmlns="http://www.w3.org/2000/svg" xmlns:svg="http://www.w3.org/2000/svg" id="svg2" width="10" height="16" version="1.1" viewBox="0 0 10 16"><metadata id="metadata8"/><rect style="color:#000;clip-rule:nonzero;display:inline;overflow:visible;visibility:visible;opacity:1;isolation:auto;mix-blend-mode:normal;color-interpolation:sRGB;color-interpolation-filters:linearRGB;solid-color:#000;solid-opacity:1;fill:#fff;fill-opacity:1;fill-rule:evenodd;stroke:none;stroke-width:.477;stroke-linecap:butt;stroke-linejoin:miter;stroke-miterlimit:4;stroke-dasharray:none;stroke-dashoffset:0;stroke-opacity:1;color-rendering:auto;image-rendering:auto;shape-rendering:auto;text-rendering:auto;enable-background:accumulate" id="rect4136" width="6" height="9" x="2" y="5" ry="0"/><path id="mobile-phone" d="M 4,1 C 3.517164,1 3,1.3876224 3,2 L 3,3 C 1.8815,3.0818 1,3.90528 1,5 l 0,8 c 0,1.1488 0.803333,2 2,2 l 4,0 c 1.196667,0 2,-0.8512 2,-2 L 9,5 C 9,3.8512 8.196667,3 7,3 L 5,3 5,2 C 5,1.3640694 4.482836,1 4,1 Z M 2,5 8,5 8,12 2,12 2,5 Z m 2,8 2,0 0,1 -2,0 0,-1 z" style="fill:#ac39ac;fill-opacity:1"/></svg>