<svg xmlns="http://www.w3.org/2000/svg" xmlns:svg="http://www.w3.org/2000/svg" id="svg2" width="16" height="16" version="1.1" viewBox="0 0 16 16"><metadata id="metadata7"/><g id="layer1" transform="translate(0,-1037.3622)"><path style="opacity:1;fill:#ac39ac;fill-opacity:1;stroke:#da8dda;stroke-width:.477;stroke-linecap:butt;stroke-linejoin:miter;stroke-miterlimit:4;stroke-dasharray:none;stroke-opacity:1" id="path10992" d="M 1.0368432,1039.8644 H 15.130683"/><path id="path10994" d="M 1.0368432,1042.8582 H 15.130683" style="opacity:1;fill:#ac39ac;fill-opacity:1;stroke:#da8dda;stroke-width:.477;stroke-linecap:butt;stroke-linejoin:miter;stroke-miterlimit:4;stroke-dasharray:none;stroke-opacity:1"/><path style="opacity:1;fill:#ac39ac;fill-opacity:1;stroke:#da8dda;stroke-width:.477;stroke-linecap:butt;stroke-linejoin:miter;stroke-miterlimit:4;stroke-dasharray:none;stroke-opacity:1" id="path10996" d="M 1.0368432,1045.852 H 15.130683"/><path id="path10998" d="M 1.0368432,1048.8458 H 15.130683" style="opacity:1;fill:#ac39ac;fill-opacity:1;stroke:#da8dda;stroke-width:.477;stroke-linecap:butt;stroke-linejoin:miter;stroke-miterlimit:4;stroke-dasharray:none;stroke-opacity:1"/><path style="opacity:1;fill:#ac39ac;fill-opacity:1;stroke:#da8dda;stroke-width:.477;stroke-linecap:butt;stroke-linejoin:miter;stroke-miterlimit:4;stroke-dasharray:none;stroke-opacity:1" id="path11004" d="M 1.0368432,1051.8397 H 15.130683"/><g id="g10985" transform="matrix(0.03437867,0,0,0.03431875,-1.8253368,1035.6294)" style="fill:#ac39ac;fill-opacity:1;stroke:#ac39ac;stroke-opacity:1"><g id="g10979" style="fill:#ac39ac;fill-opacity:1;stroke:#ac39ac;stroke-opacity:1"><circle style="fill:#ac39ac;fill-opacity:1;stroke:#ac39ac;stroke-width:10;stroke-linecap:round;stroke-linejoin:round;stroke-miterlimit:4;stroke-dasharray:none;stroke-dashoffset:0;stroke-opacity:1" id="path10961" cx="101.27" cy="408.148" r="52.169" transform="translate(76.719576,-6.1375661)"/><path style="fill:#ac39ac;fill-opacity:1;stroke:#ac39ac;stroke-width:20;stroke-linecap:round;stroke-linejoin:round;stroke-miterlimit:4;stroke-dasharray:none;stroke-dashoffset:0;stroke-opacity:1" id="path10963" d="m 225.875,162.78125 c -2.61273,0.0409 -5.1927,1.15475 -7.0142,3.02829 -1.8215,1.87355 -2.86227,4.48387 -2.82955,7.09671 v 193.4375 c -9.518,-10.14902 -23.01953,-16.5 -38.03125,-16.5 -28.81232,0 -52.1875,23.34393 -52.1875,52.15625 0,28.81232 23.37518,52.1875 52.1875,52.1875 26.28278,0 53.24254,-16.72266 57.625,-48.71875 0.14129,-0.11507 0.46132,-5.4127 0.40625,-9.46875 V 172.90625 c 0.0334,-2.66492 -1.05191,-5.32625 -2.93935,-7.20788 -1.88743,-1.88163 -4.55209,-2.9587 -7.2169,-2.91712 z"/><path id="path10975" d="m 401.00727,92.19924 c -2.61273,0.04088 -5.1927,1.15475 -7.0142,3.02829 -1.8215,1.87355 -2.86227,4.48387 -2.82955,7.09671 v 193.4375 c -9.518,-10.14902 -23.01953,-16.5 -38.03125,-16.5 -28.81232,0 -52.1875,23.34393 -52.1875,52.15625 0,28.81232 23.37518,52.1875 52.1875,52.1875 26.28278,0 53.24254,-16.72266 57.625,-48.71875 0.14129,-0.11507 0.46132,-5.4127 0.40625,-9.46875 V 102.32424 c 0.0334,-2.66492 -1.05191,-5.32625 -2.93935,-7.20788 -1.88743,-1.88163 -4.55209,-2.9587 -7.2169,-2.91712 z" style="fill:#ac39ac;fill-opacity:1;stroke:#ac39ac;stroke-width:20;stroke-linecap:round;stroke-linejoin:round;stroke-miterlimit:4;stroke-dasharray:none;stroke-dashoffset:0;stroke-opacity:1"/><path style="fill:#ac39ac;fill-opacity:1;stroke:#ac39ac;stroke-width:40;stroke-linecap:round;stroke-linejoin:round;stroke-miterlimit:4;stroke-dasharray:none;stroke-opacity:1" id="path10977" d="M 227.85714,170.61905 398.9418,102.80424"/></g></g></g></svg>