<svg xmlns="http://www.w3.org/2000/svg" xmlns:svg="http://www.w3.org/2000/svg" id="svg2" width="100%" height="100%" version="1.1" viewBox="0 0 16 16"><metadata id="metadata8"/><rect id="canvas" width="16" height="16" x="0" y="0" style="fill:none;stroke:none;visibility:hidden"/><path id="optician" d="M 5,3 0,6 c 0,2 0.25,5 1.25,5 L 5,11 C 6,11 6.25,7.5 6.25,7.5 6.76702,7.25 7.23298,7.25 7.75,7.5 7.75,7.5 8,11 9,11 l 3.75,0 C 13.75,11 14,8 14,6 L 9,3 C 8.521411,2.7236864 8.12726,3.746123 9,4.25 L 12,6 2,6 5,4.25 C 5.922502,3.7173932 5.364967,2.789286 5,3 z m -3.75,4.25 3.75,0 -0.5,2.5 -2.75,0 z m 7.75,0 3.75,0 -0.5,2.5 -2.75,0 z" transform="translate(1,1)" style="fill:purple;fill-opacity:1;stroke:none"/></svg>