<svg xmlns="http://www.w3.org/2000/svg" xmlns:svg="http://www.w3.org/2000/svg" xmlns:xlink="http://www.w3.org/1999/xlink" id="svg1" width="687.5" height="687.5" version="1.1"><metadata id="metadata3"/><defs id="defs3"><linearGradient id="linearGradient12909"><stop id="stop12910" offset="0" style="stop-color:#f5db94;stop-opacity:1"/><stop id="stop12911" offset="1" style="stop-color:#be7900;stop-opacity:1"/></linearGradient><linearGradient id="linearGradient12906"><stop id="stop12907" offset="0" style="stop-color:#67e869;stop-opacity:1"/><stop id="stop12908" offset="1" style="stop-color:#1a4c00;stop-opacity:1"/></linearGradient><linearGradient id="linearGradient10342"><stop id="stop10343" offset="0" style="stop-color:#67e869;stop-opacity:1"/><stop id="stop10344" offset="1" style="stop-color:#1a4c00;stop-opacity:1"/></linearGradient><linearGradient id="linearGradient9715"><stop id="stop9716" offset="0" style="stop-color:#67ff69;stop-opacity:1"/><stop id="stop9717" offset="1" style="stop-color:#1a7600;stop-opacity:1"/></linearGradient><linearGradient id="linearGradient9088"><stop id="stop9089" offset="0" style="stop-color:#c5ab00;stop-opacity:1"/><stop id="stop9090" offset="1" style="stop-color:#746b00;stop-opacity:1"/></linearGradient><linearGradient id="linearGradient8463"><stop id="stop8464" offset="0" style="stop-color:#ffe59e;stop-opacity:1"/><stop id="stop8465" offset="1" style="stop-color:#db8e00;stop-opacity:1"/></linearGradient><linearGradient id="linearGradient4088"><stop id="stop4089" offset="0" style="stop-color:#a00000;stop-opacity:1"/><stop id="stop4090" offset="1" style="stop-color:#510000;stop-opacity:1"/></linearGradient><linearGradient id="linearGradient3462"><stop id="stop3463" offset="0" style="stop-color:#ff5f5f;stop-opacity:1"/><stop id="stop3464" offset="1" style="stop-color:#890000;stop-opacity:1"/></linearGradient><radialGradient id="radialGradient3465" cx="238.372" cy="215.974" r="222.308" fx="244.378" fy="210.718" gradientTransform="scale(0.92542244,1.0805876)" gradientUnits="userSpaceOnUse" xlink:href="#linearGradient3462"/><linearGradient id="linearGradient4087" x1="319.304" x2="319.657" y1="506.99" y2="492.153" gradientTransform="scale(0.97022246,1.0306915)" gradientUnits="userSpaceOnUse" xlink:href="#linearGradient4088"/><radialGradient id="radialGradient9718" cx="238.372" cy="215.974" r="222.308" fx="244.378" fy="210.718" gradientTransform="scale(0.92542244,1.0805876)" gradientUnits="userSpaceOnUse" xlink:href="#linearGradient9715"/><linearGradient id="linearGradient10341" x1="146.362" x2="134.983" y1="519.611" y2="478.084" gradientTransform="scale(0.96062594,1.0409879)" gradientUnits="userSpaceOnUse" xlink:href="#linearGradient10342"/></defs><rect style="opacity:1;fill:#fff;fill-opacity:1;stroke:#fff;stroke-width:1.11514652;stroke-linecap:square;stroke-linejoin:miter;stroke-miterlimit:4;stroke-dasharray:none;stroke-dashoffset:.60000002;stroke-opacity:1" id="rect4179" width="686.385" height="686.385" x=".558" y=".558"/><g id="g11034" transform="translate(162.45405,268.39124)"><path id="path10369" d="m 270.41041,326.46525 c -15.69626,33.09767 13.93913,62.90464 35.91665,84.01144 21.65726,20.68541 22.63385,51.05096 17.18343,78.44573 -4.07195,34.22013 -1.18807,73.44199 26.19689,97.99113 22.5108,20.78411 46.01128,54.20099 26.95798,84.77566 -2.20285,3.72121 -4.93534,7.1374 -8.14372,10.04188" style="fill:none;fill-opacity:.75;fill-rule:evenodd;stroke:#000;stroke-width:11.76399994;stroke-linecap:round;stroke-linejoin:round;stroke-miterlimit:4;stroke-dasharray:none;stroke-opacity:1"/><path id="path9092" d="m 118.73761,505.50611 c 5.92049,4.54502 8.14503,12.2066 8.89909,19.32712 0.59266,3.15428 0.11828,6.3348 0.17203,9.50269 0.0171,2.33202 1.32763,5.51901 4.18802,4.91107 2.01504,-0.53308 3.73287,-1.87874 5.42656,-3.07035 4.31033,-3.43035 7.4337,-8.72955 12.99766,-10.30624 4.61463,-0.89638 9.69879,-0.94788 13.53927,-4.03253 2.61724,-1.86527 1.95447,-6.0387 -1.15411,-6.96164 -3.20591,-1.42832 -6.8713,-1.91376 -9.60161,-4.3005 -7.01748,-4.78095 -11.38862,-12.43053 -14.36168,-20.20229 -1.61518,-2.8469 -5.89123,-2.06182 -7.50768,0.38923 -3.78415,4.41667 -4.98908,10.98521 -10.40744,13.95351 -0.68805,0.36425 -1.42644,0.6359 -2.19011,0.78993 z" transform="matrix(0.710507,0,0,0.710507,163.3868,-43.44494)" style="fill:url(#linearGradient10341);fill-opacity:1;fill-rule:evenodd;stroke:none;stroke-width:1.00000003pt;stroke-linecap:butt;stroke-linejoin:miter;stroke-opacity:1"/><ellipse id="path9093" cx="315.092" cy="321.409" rx="155.643" ry="181.74" transform="matrix(0.598546,-0.416502,0.414663,0.595902,-137.1147,141.6126)" style="fill:url(#radialGradient9718);fill-opacity:1;fill-rule:evenodd;stroke:none;stroke-width:1.00000003pt;stroke-linecap:butt;stroke-linejoin:miter;stroke-opacity:1"/></g><g id="g13540" transform="translate(162.45405,268.39124)"><path id="path2211" d="m 302.33609,531.99524 c -3.80669,44.12102 -27.5241,91.41466 -4.53752,133.95036 30.05164,45.86764 97.20361,51.31306 120.33411,103.76106 19.35629,33.49601 16.2321,72.75129 12.64291,109.64194 -2.51541,28.90739 2.17293,60.27497 23.71764,81.49211 12.74109,17.14391 24.17359,37.40155 22.26754,59.54359" transform="matrix(0.710507,0,0,0.710507,163.3868,-43.44494)" style="fill:none;fill-opacity:.75;fill-rule:evenodd;stroke:#000;stroke-width:16.55719085;stroke-linecap:round;stroke-linejoin:round;stroke-miterlimit:4;stroke-dasharray:none;stroke-opacity:1"/><path id="path1553" d="m 292.88809,498.92725 c 2.26367,7.11233 -0.28649,14.67176 -3.73462,20.94718 -1.31519,2.92763 -3.52121,5.26733 -5.28653,7.89832 -1.31795,1.92395 -2.06257,5.28846 0.63256,6.42323 1.95847,0.71339 4.13712,0.59001 6.20797,0.57932 5.49737,-0.35376 11.0879,-2.91949 16.55551,-1.03567 4.29981,1.90001 8.50244,4.76169 13.41669,4.42334 3.2137,-0.0362 5.05345,-3.84038 3.02901,-6.3735 -1.81567,-3.00355 -4.54705,-5.49561 -5.4249,-9.0142 -3.02936,-7.93256 -2.24804,-16.70824 -0.24935,-24.78565 0.30031,-3.25936 -3.658,-5.05733 -6.38481,-3.96873 -5.62884,1.4639 -10.36968,6.1673 -16.51264,5.50891 -0.77282,-0.094 -1.53407,-0.29278 -2.24889,-0.60255 z" transform="matrix(0.710507,0,0,0.710507,163.3868,-43.44494)" style="fill:url(#linearGradient4087);fill-opacity:1;fill-rule:evenodd;stroke:none;stroke-width:1.00000003pt;stroke-linecap:butt;stroke-linejoin:miter;stroke-opacity:1"/><ellipse id="path930" cx="315.092" cy="321.409" rx="155.643" ry="181.74" transform="matrix(0.729199,0,0,0.725978,155.025,-51.69274)" style="fill:url(#radialGradient3465);fill-opacity:1;fill-rule:evenodd;stroke:none;stroke-width:1.00000003pt;stroke-linecap:butt;stroke-linejoin:miter;stroke-opacity:1"/></g><path style="fill:red;stroke:none;stroke-width:1.67627048px;stroke-linecap:butt;stroke-linejoin:miter;stroke-opacity:1" id="path868-9" d="M -7.638125,168.27547 163.46306,150.51041 105.43175,372.5547 Z"/><path style="fill:#0f0;stroke:none;stroke-width:1.67627048px;stroke-linecap:butt;stroke-linejoin:miter;stroke-opacity:1" id="path868-9-3" d="m 330.93561,111.18855 161.01515,-60.588075 0.0958,229.514465 z"/><path style="fill:#00f;stroke:none;stroke-width:1.67627048px;stroke-linecap:butt;stroke-linejoin:miter;stroke-opacity:1;fill-opacity:1" id="path868-9-0" d="M 163.46306,150.51041 330.93561,111.18855 301.48624,338.80269 Z"/><path style="fill:#ff8f00;stroke:none;stroke-width:1.67627048px;stroke-linecap:butt;stroke-linejoin:miter;stroke-opacity:1;fill-opacity:1" id="path868-9-3-6" d="M 491.95076,50.600475 647.70905,-22.467444 665.8309,206.3293 Z"/><path style="fill:none;stroke:#000;stroke-width:32.76599884;stroke-linecap:butt;stroke-linejoin:miter;stroke-miterlimit:4;stroke-dasharray:none;stroke-opacity:1" id="path864" d="M -62.483289,162.3022 C 407.61782,185.34554 1203.244,-325.65214 1212.1819,-337.60013"/></svg>