<svg xmlns="http://www.w3.org/2000/svg" xmlns:svg="http://www.w3.org/2000/svg" xmlns:xlink="http://www.w3.org/1999/xlink" id="svg4679" width="147" height="122" version="1.0"><defs id="defs4681"><linearGradient id="linearGradient5676"><stop style="stop-color:#fff700;stop-opacity:1" id="stop5678" offset="0"/><stop style="stop-color:#f60;stop-opacity:1" id="stop5680" offset="1"/></linearGradient><linearGradient id="linearGradient5668"><stop style="stop-color:#fff;stop-opacity:1" id="stop5670" offset="0"/><stop style="stop-color:#fff;stop-opacity:0" id="stop5672" offset="1"/></linearGradient><radialGradient id="radialGradient5682" cx="27.8" cy="53.432" r="18.192" fx="27.8" fy="53.432" gradientTransform="matrix(-1.2578576,1.2578576,-0.7681944,-0.7681944,106.05052,60.620874)" gradientUnits="userSpaceOnUse" xlink:href="#linearGradient5676"/><radialGradient id="radialGradient5686" cx="27.8" cy="53.432" r="18.192" fx="27.8" fy="53.432" gradientTransform="matrix(-1.2578576,1.2578576,-0.7681944,-0.7681944,106.05052,60.620874)" gradientUnits="userSpaceOnUse" xlink:href="#linearGradient5676"/><radialGradient id="radialGradient5690" cx="27.8" cy="53.432" r="18.192" fx="27.8" fy="53.432" gradientTransform="matrix(-1.2578576,1.2578576,-0.7681944,-0.7681944,106.05052,60.620874)" gradientUnits="userSpaceOnUse" xlink:href="#linearGradient5676"/><radialGradient id="radialGradient5711" cx="27.8" cy="53.432" r="18.192" fx="27.8" fy="53.432" gradientTransform="matrix(-1.2578576,1.2578576,-0.7681944,-0.7681944,106.05052,60.620874)" gradientUnits="userSpaceOnUse" xlink:href="#linearGradient5676"/><radialGradient id="radialGradient5713" cx="27.8" cy="53.432" r="18.192" fx="27.8" fy="53.432" gradientTransform="matrix(-1.2578576,1.2578576,-0.7681944,-0.7681944,106.05052,60.620874)" gradientUnits="userSpaceOnUse" xlink:href="#linearGradient5676"/><radialGradient id="radialGradient5715" cx="27.8" cy="53.432" r="18.192" fx="27.8" fy="53.432" gradientTransform="matrix(-1.2578576,1.2578576,-0.7681944,-0.7681944,106.05052,60.620874)" gradientUnits="userSpaceOnUse" xlink:href="#linearGradient5676"/></defs><g id="layer1" transform="translate(-317.92856,-608.50507)"><path style="fill:none;fill-opacity:1;stroke:#000;stroke-width:3;stroke-linecap:square;stroke-linejoin:miter;stroke-miterlimit:4;stroke-dashoffset:.1;stroke-opacity:1" id="path5692" d="M 336.41254,656.18829 C 336.41254,631.25585 361.05972,611.02083 391.42856,611.02083 C 421.79742,611.02083 446.44459,631.25585 446.44459,656.18829"/><path style="fill:none;fill-rule:evenodd;stroke:#000;stroke-width:3;stroke-linecap:butt;stroke-linejoin:miter;stroke-miterlimit:4;stroke-dasharray:none;stroke-opacity:1" id="path5702" d="M 391.42856,611.14448 L 391.42856,693.75024"/><path style="fill:url(#radialGradient5711);fill-opacity:1;stroke:#fff;stroke-width:.96036774;stroke-linecap:square;stroke-linejoin:miter;stroke-miterlimit:4;stroke-dasharray:none;stroke-dashoffset:.09841505;stroke-opacity:1" id="path4697" d="M 35.576973 66.420525 A 17.712141 17.712141 0 1 1 0.15269089,66.420525 A 17.712141 17.712141 0 1 1 35.576973 66.420525 z" transform="matrix(1.0412678,0,0,1.0412678,318.46854,605.34963)"/><path style="fill:url(#radialGradient5713);fill-opacity:1;stroke:#fff;stroke-width:.96036774;stroke-linecap:square;stroke-linejoin:miter;stroke-miterlimit:4;stroke-dasharray:none;stroke-dashoffset:.09841505;stroke-opacity:1" id="path5684" d="M 35.576973 66.420525 A 17.712141 17.712141 0 1 1 0.15269089,66.420525 A 17.712141 17.712141 0 1 1 35.576973 66.420525 z" transform="matrix(1.0412678,0,0,1.0412678,427.18443,605.34963)"/><path style="fill:url(#radialGradient5715);fill-opacity:1;stroke:#fff;stroke-width:.96036774;stroke-linecap:square;stroke-linejoin:miter;stroke-miterlimit:4;stroke-dasharray:none;stroke-dashoffset:.09841505;stroke-opacity:1" id="path5688" d="M 35.576973 66.420525 A 17.712141 17.712141 0 1 1 0.15269089,66.420525 A 17.712141 17.712141 0 1 1 35.576973 66.420525 z" transform="matrix(1.0412678,0,0,1.0412678,372.82649,641.38467)"/></g></svg>