<svg xmlns="http://www.w3.org/2000/svg" xmlns:svg="http://www.w3.org/2000/svg" id="svg4149" width="16" height="16" version="1.1" viewBox="0 0 16 16"><metadata id="metadata4154"/><g id="layer1" transform="translate(0,-1036.3622)"><path style="fill:#fff;fill-rule:evenodd;stroke:#ac39ac;stroke-width:1px;stroke-linecap:butt;stroke-linejoin:miter;stroke-opacity:1" id="path4144" d="m 6,1042.8622 5,0 c 0,0 4,1 4,3 0,2 -5,6 -5,6 l -3,0 c 0,0 -5,-4 -5,-6 0,-2 4,-3 4,-3 z"/><path style="fill:#ac39ac;fill-rule:evenodd;stroke:none;stroke-width:1px;stroke-linecap:butt;stroke-linejoin:miter;stroke-opacity:1;fill-opacity:1" id="path4146" d="m 3,1047.3622 3.8942644,4.5815 3.0396509,-0.013 L 14,1047.3622 Z"/><path style="fill:none;fill-rule:evenodd;stroke:#ac39ac;stroke-width:1px;stroke-linecap:butt;stroke-linejoin:miter;stroke-opacity:1" id="path4148" d="m 8.5000002,1042.3622 0,7"/><rect id="rect4176" width="6" height="1" x="9" y="1039.362" rx="0" ry="0" style="opacity:1;fill:#ac39ac;fill-opacity:1;stroke:none;stroke-width:2;stroke-linecap:butt;stroke-linejoin:miter;stroke-miterlimit:4;stroke-dasharray:none;stroke-dashoffset:.5;stroke-opacity:1"/><ellipse style="opacity:1;fill:#ac39ac;fill-opacity:1;stroke:none;stroke-width:2;stroke-linecap:butt;stroke-linejoin:miter;stroke-miterlimit:4;stroke-dasharray:none;stroke-dashoffset:.5;stroke-opacity:1" id="path4178" cx="13.5" cy="1039.862" rx="2.5" ry="2.5"/><rect style="opacity:1;fill:#ac39ac;fill-opacity:1;stroke:none;stroke-width:2;stroke-linecap:butt;stroke-linejoin:miter;stroke-miterlimit:4;stroke-dasharray:none;stroke-dashoffset:.5;stroke-opacity:1" id="rect4174" width="3" height="6" x="7" y="1037.362" rx="1" ry="1"/><path style="fill:none;fill-rule:evenodd;stroke:#ac39ac;stroke-width:1px;stroke-linecap:butt;stroke-linejoin:miter;stroke-opacity:1" id="path4180" d="m 2,1036.8622 -1,0"/><path id="path4188" d="m 4,1037.8622 -1,0" style="fill:none;fill-rule:evenodd;stroke:#ac39ac;stroke-width:1px;stroke-linecap:butt;stroke-linejoin:miter;stroke-opacity:1"/><path style="fill:none;fill-rule:evenodd;stroke:#ac39ac;stroke-width:1px;stroke-linecap:butt;stroke-linejoin:miter;stroke-opacity:1" id="path4190" d="m 2,1041.8622 -1,0"/><path id="path4192" d="m 1,1038.8622 -1,0" style="fill:none;fill-rule:evenodd;stroke:#ac39ac;stroke-width:1px;stroke-linecap:butt;stroke-linejoin:miter;stroke-opacity:1"/><path style="fill:none;fill-rule:evenodd;stroke:#ac39ac;stroke-width:1px;stroke-linecap:butt;stroke-linejoin:miter;stroke-opacity:1" id="path4194" d="m 6,1039.8622 -1,0"/><path id="path4196" d="m 3,1039.8622 -1,0" style="fill:none;fill-rule:evenodd;stroke:#ac39ac;stroke-width:1px;stroke-linecap:butt;stroke-linejoin:miter;stroke-opacity:1"/><path style="fill:none;fill-rule:evenodd;stroke:#fff;stroke-width:1px;stroke-linecap:butt;stroke-linejoin:miter;stroke-opacity:1" id="path4147" d="m 6,1038.8622 -1,0"/><path id="path4149" d="m 4,1040.8622 -1,0" style="fill:none;fill-rule:evenodd;stroke:#fff;stroke-width:1px;stroke-linecap:butt;stroke-linejoin:miter;stroke-opacity:1"/><path style="fill:none;fill-rule:evenodd;stroke:#fff;stroke-width:1px;stroke-linecap:butt;stroke-linejoin:miter;stroke-opacity:1" id="path4151" d="m 2,1038.8622 -1,0"/><path id="path4153" d="m 4,1038.8622 -1,0" style="fill:none;fill-rule:evenodd;stroke:#fff;stroke-width:1px;stroke-linecap:butt;stroke-linejoin:miter;stroke-opacity:1"/><path style="fill:none;fill-rule:evenodd;stroke:#fff;stroke-width:1px;stroke-linecap:butt;stroke-linejoin:miter;stroke-opacity:1" id="path4155" d="m 1,1040.8622 -1,0"/><path id="path4157" d="m 3,1036.8622 -1,0" style="fill:none;fill-rule:evenodd;stroke:#fff;stroke-width:1px;stroke-linecap:butt;stroke-linejoin:miter;stroke-opacity:1"/></g></svg>