<svg xmlns="http://www.w3.org/2000/svg" xmlns:svg="http://www.w3.org/2000/svg" id="svg2" width="16" height="16" version="1.1" viewBox="0 0 16 16"><metadata id="metadata8"/><g id="g3612" transform="matrix(0.14047698,0,0,0.1363083,-1.0922324,0.12627798)"><path id="path3612" d="m 15.454,21.608 4.879,25.876 c -3.7786,6.3618 -5.9245,13.63 -5.9245,21.346 0,25.017 22.513,45.305 50.271,45.305 27.758,0 50.315,-20.288 50.315,-45.305 0,-7.4745 -2.0588,-14.519 -5.6196,-20.736 l 4.879,-25.833 -20.562,9.5402 c -8.1959,-5.2251 -18.217,-8.3205 -29.013,-8.3205 -10.481,0 -20.213,2.8909 -28.272,7.8413 l -20.948,-9.714 z" style="fill:none;stroke:#000;stroke-width:6;stroke-linecap:round;stroke-linejoin:round"/><path id="path3478" d="m 15.454,21.608 4.879,25.876 c -3.7786,6.3618 -5.9245,13.63 -5.9245,21.346 0,25.017 22.513,45.305 50.271,45.305 27.758,0 50.315,-20.288 50.315,-45.305 0,-7.4745 -2.0588,-14.519 -5.6196,-20.736 l 4.879,-25.833 -20.562,9.5402 c -8.1959,-5.2251 -18.217,-8.3205 -29.013,-8.3205 -10.481,0 -20.213,2.8909 -28.272,7.8413 l -20.948,-9.714 z" style="fill:#fff;stroke:#000;stroke-width:3.97819996;stroke-linecap:round;stroke-linejoin:round"/><circle id="path3183" cx="72" cy="48" r="4" transform="matrix(1.9388,0.8723,-0.8723,1.9388,-50.299,-95.029)" style="fill:#000"/><circle id="path3185" cx="72" cy="48" r="4" transform="matrix(0.76796,0.34552,-0.34552,0.76796,11.205,-1.3029)" style="fill:#fff"/><circle id="path3195" cx="72" cy="48" r="4" transform="matrix(1.9388,0.8723,-0.8723,1.9388,-15.389,-95.1)" style="fill:#000"/><circle id="path3197" cx="72" cy="48" r="4" transform="matrix(0.76796,0.34552,-0.34552,0.76796,46.115,-1.3742)" style="fill:#fff"/><path id="path3588" d="m 41.227,86.168 c 0.71997,5.451 3.9594,11.035 11.152,11.152 9.5596,0.15794 17.384,-10.258 19.682,-17.547 -5.2586,-0.76083 -10.517,-0.71929 -15.776,-0.23408 2.2988,6.9385 10.416,17.652 18.397,17.781 7.6568,0.12382 10.288,-4.9103 11.152,-11.152" style="fill:none;stroke:#000;stroke-width:2.78800011;stroke-linecap:round;stroke-linejoin:round"/></g><path id="hairdresser" d="m 4.0000003,5.9999999 h 2 V 2 H 7 V 5.9999999 H 8 V 2 h 1 v 3.9999999 h 1 V 2 h 1 v 3.9999999 h 1 V 2 h 6 V 0 H 6.0000003 c -1,0 -2,1 -2,2 z" style="fill:#ac39ac;fill-opacity:1;stroke:none"/></svg>