<svg xmlns="http://www.w3.org/2000/svg" xmlns:svg="http://www.w3.org/2000/svg" xmlns:xlink="http://www.w3.org/1999/xlink" id="svg3168" width="16" height="13.019" version="1.1"><defs id="defs3170"><linearGradient id="linearGradient3119" x1="289.3" x2="289.3" y1="429.13" y2="420.68" gradientUnits="userSpaceOnUse" xlink:href="#linearGradient4893"/><linearGradient id="linearGradient4893"><stop id="stop4895" offset="0" style="stop-color:#729fcf"/><stop id="stop4897" offset="1" style="stop-color:#eeeeec"/></linearGradient><linearGradient id="linearGradient3130" x1="329.03" x2="329.03" y1="434.63" y2="433.06" gradientTransform="matrix(0.58027148,0,0,0.79986757,-180.30929,695.4509)" gradientUnits="userSpaceOnUse" xlink:href="#linearGradient2194"/><linearGradient id="linearGradient2194"><stop id="stop2196" offset="0" style="stop-color:#babdb6"/><stop id="stop2198" offset="1" style="stop-color:#eeeeec"/></linearGradient><linearGradient id="linearGradient3133" x1="225.76" x2="225.76" y1="288.59" y2="309.36" gradientTransform="matrix(0.29251852,0,0,0.29251852,343.00012,452.99408)" gradientUnits="userSpaceOnUse" xlink:href="#linearGradient2204"/><linearGradient id="linearGradient2204"><stop id="stop2206" offset="0" style="stop-color:#babdb6"/><stop id="stop2208" offset=".811" style="stop-color:#7b7f76"/><stop id="stop2210" offset="1" style="stop-color:#50524e"/></linearGradient><linearGradient id="linearGradient3166" x1="225.76" x2="225.76" y1="288.59" y2="309.36" gradientTransform="matrix(0.29251852,0,0,0.29251852,-48.17407,960.67675)" gradientUnits="userSpaceOnUse" xlink:href="#linearGradient2204"/></defs><metadata id="metadata3173"/><g id="layer1" transform="translate(0,-1039.3432)"><path id="path3943" d="m 3.6371104,1040.0339 c -0.71368,0 -1.28923,0.5295 -1.3583,1.2316 -0.42591,0.1497 -0.72519,0.5411 -0.72519,1.013 v 8.311 c 0,0.5986 0.48346,1.082 1.08203,1.082 H 14.22727 c 0.59857,0 1.08204,-0.4834 1.08204,-1.082 v -8.311 c 0,-0.5986 -0.48347,-1.082 -1.08204,-1.082 H 6.7911404 c -0.1036,-0.6677 -0.64462,-1.1626 -1.33528,-1.1626 h -1.81875 z" style="fill:url(#linearGradient3166)"/><path id="path3859" d="m 6.5033604,1041.5878 c -0.0345,0.9094 0.48347,1.508 1.10506,1.508 H 15.02153 v -0.5525 c 0,-0.4144 -0.34533,-0.7252 -0.79426,-0.7252 H 6.7911404 c -0.14964,0 -0.27627,-0.1036 -0.28778,-0.2303 z" style="fill:url(#linearGradient3130)"/><path id="path3857" d="m 3.6371104,1039.3432 c -0.89786,0 -1.57701,0.6331 -1.85327,1.4504 -0.52951,0.2993 -0.92088999,0.8288 -0.92088999,1.4849 v 8.311 c 0,0.9669 0.80577999,1.7727 1.77269999,1.7727 H 14.22727 c 0.97844,0 1.7727,-0.8058 1.7727,-1.7727 v -8.311 c 0,-0.9784 -0.79426,-1.7727 -1.7727,-1.7727 H 7.1594904 c -0.34533,-0.6561 -0.92088,-1.1626 -1.70363,-1.1626 h -1.81875 z m 0,1.3813 h 1.81875 c 0.35684,0 0.59857,0.2302 0.64462,0.5756 0.0575,0.3338 0.34533,0.587 0.69066,0.5755 H 14.22727 c 0.23022,0 0.40289,0.1727 0.40289,0.4029 v 8.311 c 0,0.2302 -0.17267,0.3914 -0.40289,0.3914 H 2.6356504 c -0.23022,0 -0.39137,-0.1612 -0.39137,-0.3914 v -8.311 c 0,-0.1842 0.1036,-0.3108 0.26475,-0.3568 0.25324,-0.092 0.42591,-0.3223 0.46044,-0.5871 0.0345,-0.3568 0.29929,-0.6101 0.66764,-0.6101 z" style="fill:#555753"/><path id="path3869" d="m 283.125,434.98718 c 0,0.62132 -0.50368,1.125 -1.125,1.125 -0.62132,0 -1.125,-0.50368 -1.125,-1.125 0,-0.62132 0.50368,-1.125 1.125,-1.125 0.62132,0 1.125,0.50368 1.125,1.125 z" transform="matrix(1.1238458,0,0,1.1238458,-310.96764,554.79061)" style="fill:#ef2929"/><path id="path3843" d="m 295,425.11218 c 0,3.45178 -2.79822,6.25 -6.25,6.25 -3.45178,0 -6.25,-2.79822 -6.25,-6.25 0,-3.45178 2.79822,-6.25 6.25,-6.25 3.45178,0 6.25,2.79822 6.25,6.25 z" transform="matrix(0.54181309,0,0,0.54181309,-146.31719,817.11107)" style="fill:url(#linearGradient3119);stroke:#555753;stroke-width:2.9467001;stroke-linecap:round;stroke-linejoin:round;stroke-miterlimit:2.41420007"/><path id="path3951" d="M 0.41402041,1042.8886 H 3.5450304 c 0.59857,0 1.08203,0.495 1.08203,1.0935 -0.41439,1.6807 -0.34533,3.3728 0,5.0534 0,0.5986 -0.48346,1.082 -1.08203,1.082 H 0.41402041 c -0.79426,-0.8057 -0.0345,-2.2676 -0.046,-3.7065 -0.0115,-1.3583 -0.85182,-2.7051 0.046,-3.5224 z" style="fill:#555753"/><path id="path3871" d="m 0.05718041,1044.3505 c 0.0576,0.4144 0.19569,0.8863 0.28778,1.3698 H 2.8428504 c 0.48347,0 0.87484,-0.2647 0.87484,-0.6101 v -0.1496 c 0,-0.3453 -0.39137,-0.6101 -0.87484,-0.6101 H 0.05718041 z" style="fill:#babdb6"/><path id="path3873" d="m 0.35647041,1047.1707 c -0.0691,0.495 -0.19569,0.9554 -0.25325,1.3813 H 2.8658704 c 0.48347,0 0.87484,-0.2762 0.87484,-0.6101 v -0.1496 c 0,-0.3453 -0.39137,-0.6216 -0.87484,-0.6216 H 0.35647041 z" style="fill:#babdb6"/></g></svg>