<svg xmlns="http://www.w3.org/2000/svg" xmlns:svg="http://www.w3.org/2000/svg" id="svg2" width="14" height="16" version="1.1" viewBox="0 0 14 16" xml:space="preserve" style="clip-rule:evenodd;fill-rule:evenodd;image-rendering:optimizeQuality;shape-rendering:geometricPrecision;text-rendering:geometricPrecision"><metadata id="metadata24"/><g id="Camada_x0020_1" transform="matrix(8.851,0,0,8.851,-0.1381,-28909.065)"><polygon id="polygon9" points="1537 1691 0 803 18 2398 1537 3378" class="fil0" transform="matrix(5.2191721e-4,0,0,5.2821738e-4,0.01560276,3266.2091)" style="fill:#a57f58;fill-opacity:1"/><polygon id="polygon11" points="0 803 1537 3 2998 847 1537 1691 638 1172" class="fil1" transform="matrix(5.2706094e-4,0,0,5.3327512e-4,0.01560276,3266.192)" style="fill:#c2996d;fill-opacity:1"/><path id="path13" d="m 1.594151,3267.5407 -0.59768942,0.3493 z m 0,0 -0.0016,-0.8991 -0.76845293,0.4491 v 0.8995 h 0.0047 z" class="fil2" style="fill:#836648;stroke-width:.00053016;fill-opacity:1"/><line id="line15" x1="1.21" x2=".511" y1="3266.869" y2="3266.459" class="fil3" style="fill:none;stroke-width:.00053016"/><line id="line17" x1="1.21" x2="1.213" y1="3266.869" y2="3266.889" class="fil3" style="fill:none;stroke-width:.00053016"/><path style="fill:#664f34;fill-opacity:1" id="polygon19" d="m 1540.3494,1660.7585 -9.2108,66.0002 L 3001.3494,887.27592 2998,847 2972.9518,827.41371 Z" transform="matrix(5.2706094e-4,0,0,5.3327512e-4,0.01560276,3266.192)"/><path style="fill:#664f34;fill-opacity:1" id="polygon21" d="M -5.0240981,847.06907 16.16265,785.72408 1540.3494,1660.7585 l 0,70.9658 z" transform="matrix(5.2706094e-4,0,0,5.3327512e-4,0.01560276,3266.192)"/><polygon id="polygon23" points="2113 1358 628 476 942 310 2426 1177" class="fil6" transform="matrix(5.2706094e-4,0,0,5.3327512e-4,0.01560276,3266.192)" style="fill:#dfc9b1;fill-opacity:1"/><path id="path25" d="m 1.2062296,3266.8528 0.01476,-0.012 c 0.01423,-0.011 0.01898,-0.012 0.03584,-0.016 -0.01581,0.013 -0.03373,0.022 -0.047959,0.033 -0.0037,0 -0.0047,0 -0.0031,-0.01 z" class="fil7" style="fill:#fff;stroke-width:.00053016"/><path id="path27" d="m 1.1334956,3266.8965 0.01476,-0.012 c 0.01423,-0.011 0.01898,-0.012 0.03584,-0.016 -0.01581,0.013 -0.033729,0.022 -0.047959,0.033 -0.0037,0 -0.0047,0 -0.0031,-0.01 z" class="fil7" style="fill:#fff;stroke-width:.00053016"/><polygon id="polygon29" points="2998 875 2995 858 1540 1698 1548 1710 2998 879" class="fil8" transform="matrix(2.5897101e-4,4.5905038e-4,-4.644627e-4,2.6202434e-4,1.2210547,3265.0407)" style="fill:#422b22;fill-opacity:1"/><polygon id="polygon31" points="2113 1358 2426 1177 2426 1597 2382 1583 2349 1656 2300 1624 2271 1684 2228 1660 2195 1734 2159 1699 2123 1772" class="fil9" transform="matrix(5.2706094e-4,0,0,5.3327512e-4,0.01560276,3266.192)" style="fill:#ab9073;fill-opacity:1"/><polygon id="polygon33" points="772 409 781 402 2275 1264 2263 1271" class="fil10" transform="matrix(5.2706094e-4,0,0,5.3327512e-4,0.01560276,3266.192)" style="fill:#9b7b58;fill-rule:nonzero;stroke-width:703.25936138;stroke-miterlimit:4;stroke-dasharray:none"/><polygon id="polygon35" points="1522 1707 1537 1683 1564 1700 1564 3358 1527 3372" class="fil11" transform="matrix(9.1554613e-4,0,0,5.3327512e-4,-0.58449838,3266.192)" style="fill:#664f34;fill-opacity:1"/><path id="path37" d="m 1.5973109,3266.6448 v 0.8943 c 0,0 -5.65e-4,0 -0.0031,0.01 l -0.77109091,0.4506 -0.79850046,-0.5237 0.79850046,0.5167 0.76792491,-0.4485 v -0.898 h 0.0063 z" class="fil12" style="fill:#675341;fill-rule:nonzero;stroke-width:.00053016"/><polygon id="polygon39" points="1531 0 1543 0 1899 206 1900 213 1894 216 1537 10 11 810 0 803" class="fil12" transform="matrix(5.2706094e-4,0,0,5.3327512e-4,0.01560276,3266.192)" style="fill:#675341;fill-rule:nonzero"/></g></svg>