<svg xmlns="http://www.w3.org/2000/svg" xmlns:svg="http://www.w3.org/2000/svg" id="svg2" width="100%" height="100%" version="1.1" viewBox="0 0 16 16"><metadata id="metadata8"/><rect id="canvas" width="16" height="16" x="0" y="0" style="fill:none;stroke:none;visibility:hidden"/><rect id="shield" width="16" height="16" x="0" y="0" rx="2" ry="2" style="fill:#fff;stroke:none"/><path id="supermarket" d="M 0,0 0,1 1,1 2,11 12,11 12,10 3,10 2.875,9 12,9 14,3 2.34375,3 2,0 z m 3,12 c -0.552285,0 -1,0.447715 -1,1 0,0.552285 0.447715,1 1,1 0.552285,0 1,-0.447715 1,-1 0,-0.552285 -0.447715,-1 -1,-1 z m 8,0 c -0.552285,0 -1,0.447715 -1,1 0,0.552285 0.447715,1 1,1 0.552285,0 1,-0.447715 1,-1 0,-0.552285 -0.447715,-1 -1,-1 z" transform="translate(1,1)" style="fill:#ac39ac;fill-opacity:1"/></svg>