<svg xmlns="http://www.w3.org/2000/svg" xmlns:svg="http://www.w3.org/2000/svg" id="svg2" width="160" height="160" version="1.1" viewBox="0 0 160 160"><metadata id="metadata7"/><g id="layer1" transform="translate(0,-893.3622)"><g id="g3219" transform="matrix(0.99174847,0,0,1.2211756,-65.765762,226.37604)" style="fill:#3d5889;fill-opacity:1;stroke:#000;stroke-width:1.73248327;stroke-miterlimit:4;stroke-dasharray:none;stroke-opacity:1"><path id="path2427" d="m 67.613793,570.41735 c 24.468075,-13.10042 45.356037,-11.77452 66.041377,-23.06206 11.09637,2.43104 19.357,1.4592 26.99311,-0.26207 23.42862,10.78637 44.02825,12.51579 66.04138,23.5862 -1.82964,11.55946 -5.85886,21.54778 -12.57932,29.6138 -8.15361,-4.36994 -15.86829,-6.10632 -23.32413,-6.28966 l -0.52414,78.62069 c -32.1215,5.98273 -59.34716,3.39775 -85.95862,-0.26207 l -0.26207,-78.09655 c -9.370679,-0.2722 -16.500436,3.19047 -23.848277,6.28966 -7.067215,-9.63539 -10.36885,-19.80873 -12.57931,-30.13794 z" style="fill:#3d5889;fill-opacity:1;fill-rule:evenodd;stroke:#000;stroke-width:1.73248327;stroke-linecap:butt;stroke-linejoin:miter;stroke-miterlimit:4;stroke-dasharray:none;stroke-opacity:1"/><path id="path3199" d="m 71.282759,569.10701 c 2.214678,10.74851 6.083496,20.78686 13.627586,29.35172" style="fill:#3d5889;fill-opacity:1;fill-rule:evenodd;stroke:#000;stroke-width:1.73248327;stroke-linecap:butt;stroke-linejoin:miter;stroke-miterlimit:4;stroke-dasharray:none;stroke-opacity:1"/><path id="path3203" d="m 105.35172,668.16908 c 28.12874,4.60443 56.25747,5.59295 84.38621,-0.26207" style="fill:#3d5889;fill-opacity:1;fill-rule:evenodd;stroke:#000;stroke-width:1.73248327;stroke-linecap:butt;stroke-linejoin:miter;stroke-miterlimit:4;stroke-dasharray:none;stroke-opacity:1"/><path id="path3205" d="m 133.3931,547.61736 c -0.22816,2.3247 1.69237,12.73282 13.88965,13.36551 11.93593,0.61914 14.27527,-11.53603 13.88966,-13.10345" style="fill:#3d5889;fill-opacity:1;fill-rule:evenodd;stroke:#000;stroke-width:1.73248327;stroke-linecap:butt;stroke-linejoin:miter;stroke-miterlimit:4;stroke-dasharray:none;stroke-opacity:1"/><path style="fill:#3d5889;fill-opacity:1;fill-rule:evenodd;stroke:#000;stroke-width:1.73248327;stroke-linecap:butt;stroke-linejoin:miter;stroke-miterlimit:4;stroke-dasharray:none;stroke-opacity:1" id="path3207" d="m 128.21194,550.41871 c -0.22816,2.3247 4.57424,15.11165 18.34482,15.46206 14.03248,0.35707 19.77872,-14.68086 19.39311,-16.24828"/><path id="path3209" d="m 134.52279,552.33459 c 8.53814,2.23324 16.08174,1.75419 25.31809,-0.20185" style="fill:#3d5889;fill-opacity:1;fill-rule:evenodd;stroke:#000;stroke-width:1.73248327;stroke-linecap:butt;stroke-linejoin:miter;stroke-miterlimit:4;stroke-dasharray:none;stroke-opacity:1"/><path id="path3213" d="m 104.16182,558.28077 c 2.57594,9.88539 6.83803,21.48891 -0.26207,35.37931" style="fill:#3d5889;fill-opacity:1;fill-rule:evenodd;stroke:#000;stroke-width:1.73248327;stroke-linecap:butt;stroke-linejoin:miter;stroke-miterlimit:4;stroke-dasharray:none;stroke-opacity:1"/><path style="fill:#3d5889;fill-opacity:1;fill-rule:evenodd;stroke:#000;stroke-width:1.73248327;stroke-linecap:butt;stroke-linejoin:miter;stroke-miterlimit:4;stroke-dasharray:none;stroke-opacity:1" id="path3215" d="m 190.37521,558.48262 c -2.57594,9.88539 -6.83803,21.48891 0.26207,35.37931"/><path style="fill:#3d5889;fill-opacity:1;fill-rule:evenodd;stroke:#000;stroke-width:1.73248327;stroke-linecap:butt;stroke-linejoin:miter;stroke-miterlimit:4;stroke-dasharray:none;stroke-opacity:1" id="path3217" d="m 223.28276,568.84494 c -2.21468,10.74851 -6.0835,20.78686 -13.62759,29.35172"/></g><g id="g2546" transform="matrix(0.60702088,0.93350262,-0.75812172,0.74744675,-39.27023,955.44569)"><g id="g3167" transform="matrix(0.2747478,-0.04835528,0.04835528,0.2747478,-68.316528,-171.9058)"><ellipse id="path2383" cx="497.143" cy="642.362" rx="37.143" ry="64.286" style="fill:none;fill-opacity:1;stroke:#000;stroke-width:10;stroke-miterlimit:4;stroke-dasharray:none;stroke-opacity:1"/><path id="path3155" d="M 500,578.07647 465.71429,112.36218 460,600.93361 Z" style="opacity:.98999999;fill:#000;fill-opacity:1;fill-rule:evenodd;stroke:#000;stroke-width:1px;stroke-linecap:butt;stroke-linejoin:miter;stroke-opacity:1"/><ellipse id="path3157" cx="497.143" cy="642.362" rx="37.143" ry="64.286" style="fill:none;fill-opacity:1;stroke:#000;stroke-width:10;stroke-miterlimit:4;stroke-dasharray:none;stroke-opacity:1"/><path id="path3159" d="M 500,578.07647 465.71429,112.36218 460,600.93361 Z" style="opacity:.98999999;fill:#000;fill-opacity:1;fill-rule:evenodd;stroke:#000;stroke-width:1px;stroke-linecap:butt;stroke-linejoin:miter;stroke-opacity:1"/></g><g id="g3183" transform="matrix(-0.2747478,-0.04835528,-0.04835528,0.2747478,236.6762,-171.9058)"><ellipse style="fill:none;fill-opacity:1;stroke:#000;stroke-width:10;stroke-miterlimit:4;stroke-dasharray:none;stroke-opacity:1" id="path3185" cx="497.143" cy="642.362" rx="37.143" ry="64.286"/><path style="opacity:.98999999;fill:#000;fill-opacity:1;fill-rule:evenodd;stroke:#000;stroke-width:1px;stroke-linecap:butt;stroke-linejoin:miter;stroke-opacity:1" id="path3187" d="M 500,578.07647 465.71429,112.36218 460,600.93361 Z"/><ellipse style="fill:none;fill-opacity:1;stroke:#000;stroke-width:10;stroke-miterlimit:4;stroke-dasharray:none;stroke-opacity:1" id="path3189" cx="497.143" cy="642.362" rx="37.143" ry="64.286"/><path style="opacity:.98999999;fill:#000;fill-opacity:1;fill-rule:evenodd;stroke:#000;stroke-width:1px;stroke-linecap:butt;stroke-linejoin:miter;stroke-opacity:1" id="path3191" d="M 500,578.07647 465.71429,112.36218 460,600.93361 Z"/></g></g><path style="fill:none;fill-rule:evenodd;stroke:#efeb00;stroke-width:4.5112896;stroke-linecap:butt;stroke-linejoin:miter;stroke-miterlimit:4;stroke-dasharray:none;stroke-dashoffset:0;stroke-opacity:1" id="path3330" d="m 148.58591,1018.2425 c 0,0 -26.17714,-20.85043 -29.96848,-26.03105 -3.79134,-5.18057 -22.155068,0.46605 -28.342257,1.4303 -6.187192,0.96424 -15.038804,12.93625 -17.191211,19.45175 -2.152404,6.5156 -1.525752,14.9386 1.858514,21.1683 3.384258,6.2294 11.283745,13.066 16.72658,11.7282 5.442832,-1.3379 11.617534,-5.9509 12.312614,-11.1561 0.69511,-5.2054 -2.20761,-14.3375 -5.110886,-17.1634 -2.903288,-2.826 -7.297034,-3.2862 -9.757173,-1.4304"/></g></svg>