<svg xmlns="http://www.w3.org/2000/svg" xmlns:svg="http://www.w3.org/2000/svg" id="svg1441" width="439.002" height="478.295" version="1.0"><metadata id="metadata3"/><g id="layer1" transform="translate(-119.99828,-330.27552)"><rect id="rect11246" width="265.993" height="255.029" x="-390.428" y="513.171" rx="9.353" ry="20.972" transform="matrix(0.834898,-0.550405,0.864612,0.502441,0,0)" style="fill:#000;fill-opacity:1;fill-rule:nonzero;stroke:none;stroke-linecap:butt;stroke-linejoin:miter;stroke-opacity:1"/><rect id="rect27716" width="264.309" height="219.911" x="415.71" y="822.97" rx="13.064" ry="23.303" transform="matrix(0.835911,-0.548865,-1.115279e-2,0.999938,0,0)" style="fill:#000;fill-opacity:1;fill-rule:nonzero;stroke:none;stroke-linecap:butt;stroke-linejoin:miter;stroke-opacity:1"/><rect id="rect5005" width="75.21" height="57.294" x="419.257" y="978.369" rx="10.133" ry="7.258" transform="matrix(0.827575,-0.561355,0,1,0,0)" style="fill:#f41809;fill-opacity:1;fill-rule:nonzero;stroke:none;stroke-linecap:butt;stroke-linejoin:miter;stroke-opacity:1"/><rect id="rect5765" width="75.21" height="57.294" x="421.134" y="908.849" rx="11.229" ry="8.794" transform="matrix(0.827575,-0.561355,0,1,0,0)" style="fill:#f41809;fill-opacity:1;fill-rule:nonzero;stroke:none;stroke-linecap:butt;stroke-linejoin:miter;stroke-opacity:1"/><rect id="rect5767" width="75.21" height="57.294" x="421.134" y="838.359" rx="6.574" ry="13.179" transform="matrix(0.827575,-0.561355,0,1,0,0)" style="fill:#f41809;fill-opacity:1;fill-rule:nonzero;stroke:none;stroke-linecap:butt;stroke-linejoin:miter;stroke-opacity:1"/><rect id="rect5769" width="75.633" height="57.294" x="505.808" y="835.583" rx="10.163" ry="11.399" transform="matrix(0.829696,-0.558215,0,1,0,0)" style="fill:#f41809;fill-opacity:1;fill-rule:nonzero;stroke:none;stroke-linecap:butt;stroke-linejoin:miter;stroke-opacity:1"/><rect id="rect5771" width="75.633" height="57.294" x="505.808" y="905.64" rx="7.978" ry="13.614" transform="matrix(0.829696,-0.558215,0,1,0,0)" style="fill:#f41809;fill-opacity:1;fill-rule:nonzero;stroke:none;stroke-linecap:butt;stroke-linejoin:miter;stroke-opacity:1"/><rect id="rect5773" width="75.633" height="57.294" x="503.936" y="974.911" rx="11.255" ry="14.721" transform="matrix(0.829696,-0.558215,0,1,0,0)" style="fill:#f41809;fill-opacity:1;fill-rule:nonzero;stroke:none;stroke-linecap:butt;stroke-linejoin:miter;stroke-opacity:1"/><rect id="rect5775" width="75.633" height="57.294" x="589.653" y="972.403" rx="10.163" ry="11.432" transform="matrix(0.829696,-0.558215,0,1,0,0)" style="fill:#f41809;fill-opacity:1;fill-rule:nonzero;stroke:none;stroke-linecap:butt;stroke-linejoin:miter;stroke-opacity:1"/><rect id="rect5777" width="75.633" height="57.294" x="590.876" y="907.004" rx="9.071" ry="11.66" transform="matrix(0.829696,-0.558215,0,1,0,0)" style="fill:#f41809;fill-opacity:1;fill-rule:nonzero;stroke:none;stroke-linecap:butt;stroke-linejoin:miter;stroke-opacity:1"/><rect id="rect5779" width="75.633" height="57.294" x="590.876" y="836.256" rx="9.071" ry="7.458" transform="matrix(0.829696,-0.558215,0,1,0,0)" style="fill:#f41809;fill-opacity:1;fill-rule:nonzero;stroke:none;stroke-linecap:butt;stroke-linejoin:miter;stroke-opacity:1"/><rect id="rect12043" width="264.442" height="213.046" x="147.735" y="386.897" rx="7.997" ry="20.767" transform="matrix(0.858337,0.513087,-1.174769e-2,0.999931,0,0)" style="fill:#000;fill-opacity:1;fill-rule:nonzero;stroke:none;stroke-linecap:butt;stroke-linejoin:miter;stroke-opacity:1"/><rect id="rect8055" width="73.621" height="57.294" x="323.198" y="530.087" rx="9.521" ry="12.923" transform="matrix(0.845439,0.534071,0,1,0,0)" style="fill:#00d;fill-opacity:1;fill-rule:nonzero;stroke:none;stroke-linecap:butt;stroke-linejoin:miter;stroke-opacity:1"/><rect id="rect8815" width="73.621" height="57.294" x="324.435" y="458.47" rx="9.521" ry="6.767" transform="matrix(0.845439,0.534071,0,1,0,0)" style="fill:#00d;fill-opacity:1;fill-rule:nonzero;stroke:none;stroke-linecap:butt;stroke-linejoin:miter;stroke-opacity:1"/><rect id="rect8817" width="73.621" height="57.294" x="324.435" y="390.696" rx="9.521" ry="8.794" transform="matrix(0.845439,0.534071,0,1,0,0)" style="fill:#00d;fill-opacity:1;fill-rule:nonzero;stroke:none;stroke-linecap:butt;stroke-linejoin:miter;stroke-opacity:1"/><rect id="rect8819" width="73.621" height="57.294" x="240.313" y="530.002" rx="9.521" ry="11.164" transform="matrix(0.845439,0.534071,0,1,0,0)" style="fill:#00d;fill-opacity:1;fill-rule:nonzero;stroke:none;stroke-linecap:butt;stroke-linejoin:miter;stroke-opacity:1"/><rect id="rect8821" width="73.621" height="57.294" x="240.313" y="460.637" rx="9.521" ry="11.968" transform="matrix(0.845439,0.534071,0,1,0,0)" style="fill:#00d;fill-opacity:1;fill-rule:nonzero;stroke:none;stroke-linecap:butt;stroke-linejoin:miter;stroke-opacity:1"/><rect id="rect8823" width="73.621" height="57.294" x="240.917" y="393.491" rx="9.521" ry="9.598" transform="matrix(0.845439,0.534071,0,1,0,0)" style="fill:#00d;fill-opacity:1;fill-rule:nonzero;stroke:none;stroke-linecap:butt;stroke-linejoin:miter;stroke-opacity:1"/><rect id="rect8825" width="73.621" height="57.294" x="155.559" y="530.299" rx="9.521" ry="8.182" transform="matrix(0.845439,0.534071,0,1,0,0)" style="fill:#00d;fill-opacity:1;fill-rule:nonzero;stroke:none;stroke-linecap:butt;stroke-linejoin:miter;stroke-opacity:1"/><rect id="rect8827" width="73.621" height="57.294" x="156.796" y="463.123" rx="9.521" ry="7.839" transform="matrix(0.845439,0.534071,0,1,0,0)" style="fill:#00d;fill-opacity:1;fill-rule:nonzero;stroke:none;stroke-linecap:butt;stroke-linejoin:miter;stroke-opacity:1"/><rect id="rect8829" width="73.621" height="57.294" x="156.796" y="394.708" rx="9.521" ry="6.94" transform="matrix(0.845439,0.534071,0,1,0,0)" style="fill:#00d;fill-opacity:1;fill-rule:nonzero;stroke:none;stroke-linecap:butt;stroke-linejoin:miter;stroke-opacity:1"/><rect id="rect10429" width="71.1" height="70.533" x="517.448" y="295.326" rx="5.393" ry="11.477" transform="matrix(0.858218,0.513286,-0.834194,0.551472,0,0)" style="fill:#ffe200;fill-opacity:1;fill-rule:nonzero;stroke:none;stroke-linecap:butt;stroke-linejoin:miter;stroke-opacity:1"/><rect id="rect11189" width="71.099" height="70.533" x="601.078" y="296.969" rx="5.393" ry="11.477" transform="matrix(0.858218,0.513286,-0.834194,0.551472,0,0)" style="fill:#ffe200;fill-opacity:1;fill-rule:nonzero;stroke:none;stroke-linecap:butt;stroke-linejoin:miter;stroke-opacity:1"/><rect id="rect11191" width="71.099" height="70.533" x="685.29" y="296.952" rx="5.393" ry="11.477" transform="matrix(0.858218,0.513286,-0.834194,0.551472,0,0)" style="fill:#ffe200;fill-opacity:1;fill-rule:nonzero;stroke:none;stroke-linecap:butt;stroke-linejoin:miter;stroke-opacity:1"/><rect id="rect11193" width="71.099" height="70.533" x="518.031" y="210.439" rx="5.393" ry="11.477" transform="matrix(0.858218,0.513286,-0.834194,0.551472,0,0)" style="fill:#ffe200;fill-opacity:1;fill-rule:nonzero;stroke:none;stroke-linecap:butt;stroke-linejoin:miter;stroke-opacity:1"/><rect id="rect11195" width="71.099" height="70.533" x="601.078" y="210.405" rx="5.393" ry="11.477" transform="matrix(0.858218,0.513286,-0.834194,0.551472,0,0)" style="fill:#ffe200;fill-opacity:1;fill-rule:nonzero;stroke:none;stroke-linecap:butt;stroke-linejoin:miter;stroke-opacity:1"/><rect id="rect11197" width="71.099" height="70.533" x="687.097" y="210.412" rx="5.393" ry="11.477" transform="matrix(0.858218,0.513286,-0.834194,0.551472,0,0)" style="fill:#ffe200;fill-opacity:1;fill-rule:nonzero;stroke:none;stroke-linecap:butt;stroke-linejoin:miter;stroke-opacity:1"/><rect id="rect11199" width="71.099" height="70.533" x="518.031" y="127.441" rx="5.393" ry="11.477" transform="matrix(0.858218,0.513286,-0.834194,0.551472,0,0)" style="fill:#ffe200;fill-opacity:1;fill-rule:nonzero;stroke:none;stroke-linecap:butt;stroke-linejoin:miter;stroke-opacity:1"/><rect id="rect11201" width="71.099" height="70.533" x="602.272" y="126.196" rx="5.393" ry="11.477" transform="matrix(0.858218,0.513286,-0.834194,0.551472,0,0)" style="fill:#ffe200;fill-opacity:1;fill-rule:nonzero;stroke:none;stroke-linecap:butt;stroke-linejoin:miter;stroke-opacity:1"/><rect id="rect11203" width="71.099" height="70.533" x="687.097" y="127.357" rx="5.393" ry="11.477" transform="matrix(0.858218,0.513286,-0.834194,0.551472,0,0)" style="fill:#ffe200;fill-opacity:1;fill-rule:nonzero;stroke:none;stroke-linecap:butt;stroke-linejoin:miter;stroke-opacity:1"/><rect id="rect27914" width="66.726" height="9.722" x="661.708" y="367.684" rx="6.935" ry="6.666" transform="matrix(0.86241,0.50621,-0.971166,0.238406,0,0)" style="opacity:.41807909;fill:#fff;fill-opacity:1;fill-rule:nonzero;stroke:none;stroke-linecap:butt;stroke-linejoin:miter;stroke-opacity:1"/><rect id="rect29432" width="66.726" height="9.722" x="704.979" y="476.182" rx="6.935" ry="6.666" transform="matrix(0.86241,0.50621,-0.971166,0.238406,0,0)" style="opacity:.41807909;fill:#fff;fill-opacity:1;fill-rule:nonzero;stroke:none;stroke-linecap:butt;stroke-linejoin:miter;stroke-opacity:1"/><rect id="rect29434" width="66.726" height="9.722" x="806.003" y="572.071" rx="6.935" ry="6.666" transform="matrix(0.86241,0.50621,-0.971166,0.238406,0,0)" style="opacity:.41807909;fill:#fff;fill-opacity:1;fill-rule:nonzero;stroke:none;stroke-linecap:butt;stroke-linejoin:miter;stroke-opacity:1"/><rect id="rect29436" width="66.726" height="9.722" x="792.717" y="482.185" rx="6.935" ry="6.666" transform="matrix(0.86241,0.50621,-0.971166,0.238406,0,0)" style="opacity:.41807909;fill:#fff;fill-opacity:1;fill-rule:nonzero;stroke:none;stroke-linecap:butt;stroke-linejoin:miter;stroke-opacity:1"/><rect id="rect29438" width="66.726" height="9.722" x="877.448" y="483.289" rx="6.935" ry="6.666" transform="matrix(0.86241,0.50621,-0.971166,0.238406,0,0)" style="opacity:.41807909;fill:#fff;fill-opacity:1;fill-rule:nonzero;stroke:none;stroke-linecap:butt;stroke-linejoin:miter;stroke-opacity:1"/><rect id="rect29440" width="66.726" height="9.722" x="898.237" y="576.918" rx="6.935" ry="6.666" transform="matrix(0.86241,0.50621,-0.971166,0.238406,0,0)" style="opacity:.41807909;fill:#fff;fill-opacity:1;fill-rule:nonzero;stroke:none;stroke-linecap:butt;stroke-linejoin:miter;stroke-opacity:1"/><rect id="rect29442" width="66.726" height="9.722" x="975.471" y="576.513" rx="6.935" ry="6.666" transform="matrix(0.86241,0.50621,-0.971166,0.238406,0,0)" style="opacity:.41807909;fill:#fff;fill-opacity:1;fill-rule:nonzero;stroke:none;stroke-linecap:butt;stroke-linejoin:miter;stroke-opacity:1"/><rect id="rect29444" width="66.726" height="9.722" x="903.292" y="658.465" rx="6.935" ry="6.666" transform="matrix(0.86241,0.50621,-0.971166,0.238406,0,0)" style="opacity:.41807909;fill:#fff;fill-opacity:1;fill-rule:nonzero;stroke:none;stroke-linecap:butt;stroke-linejoin:miter;stroke-opacity:1"/><rect id="rect29446" width="66.726" height="9.722" x="992.487" y="662.672" rx="6.935" ry="6.666" transform="matrix(0.86241,0.50621,-0.971166,0.238406,0,0)" style="opacity:.41807909;fill:#fff;fill-opacity:1;fill-rule:nonzero;stroke:none;stroke-linecap:butt;stroke-linejoin:miter;stroke-opacity:1"/><rect id="rect29448" width="66.726" height="9.722" x="1076.445" y="664.12" rx="6.935" ry="6.666" transform="matrix(0.86241,0.50621,-0.971166,0.238406,0,0)" style="opacity:.41807909;fill:#fff;fill-opacity:1;fill-rule:nonzero;stroke:none;stroke-linecap:butt;stroke-linejoin:miter;stroke-opacity:1"/><rect id="rect29450" width="66.726" height="9.722" x="748.616" y="370.944" rx="6.935" ry="6.666" transform="matrix(0.86241,0.50621,-0.971166,0.238406,0,0)" style="opacity:.41807909;fill:#fff;fill-opacity:1;fill-rule:nonzero;stroke:none;stroke-linecap:butt;stroke-linejoin:miter;stroke-opacity:1"/><rect id="rect29452" width="66.726" height="9.722" x="624.304" y="261.583" rx="6.935" ry="6.666" transform="matrix(0.86241,0.50621,-0.971166,0.238406,0,0)" style="opacity:.41807909;fill:#fff;fill-opacity:1;fill-rule:nonzero;stroke:none;stroke-linecap:butt;stroke-linejoin:miter;stroke-opacity:1"/><rect id="rect29454" width="66.726" height="9.722" x="709.685" y="260.007" rx="6.935" ry="6.666" transform="matrix(0.86241,0.50621,-0.971166,0.238406,0,0)" style="opacity:.41807909;fill:#fff;fill-opacity:1;fill-rule:nonzero;stroke:none;stroke-linecap:butt;stroke-linejoin:miter;stroke-opacity:1"/><rect id="rect29456" width="66.726" height="9.722" x="794.416" y="261.112" rx="6.935" ry="6.666" transform="matrix(0.86241,0.50621,-0.971166,0.238406,0,0)" style="opacity:.41807909;fill:#fff;fill-opacity:1;fill-rule:nonzero;stroke:none;stroke-linecap:butt;stroke-linejoin:miter;stroke-opacity:1"/><rect id="rect29458" width="66.726" height="9.722" x="835.732" y="369.879" rx="6.935" ry="6.666" transform="matrix(0.86241,0.50621,-0.971166,0.238406,0,0)" style="opacity:.41807909;fill:#fff;fill-opacity:1;fill-rule:nonzero;stroke:none;stroke-linecap:butt;stroke-linejoin:miter;stroke-opacity:1"/><path id="path29466" d="M 259.60921,501.82904 A 9.5964489,9.0913725 0 1 1 240.41631,501.82904 A 9.5964489,9.0913725 0 1 1 259.60921,501.82904 z" transform="matrix(0.392835,0.139358,-0.257425,0.725654,518.5323,177.6341)" style="opacity:.3;fill:#fff;fill-opacity:1;fill-rule:nonzero;stroke:none;stroke-linecap:butt;stroke-linejoin:miter;stroke-opacity:1"/><path id="path29470" d="M 259.60921,501.82904 A 9.5964489,9.0913725 0 1 1 240.41631,501.82904 A 9.5964489,9.0913725 0 1 1 259.60921,501.82904 z" transform="matrix(0.392835,0.139358,-0.257425,0.725654,448.5323,226.0992)" style="opacity:.3;fill:#fff;fill-opacity:1;fill-rule:nonzero;stroke:none;stroke-linecap:butt;stroke-linejoin:miter;stroke-opacity:1"/><path id="path29472" d="M 259.60921,501.82904 A 9.5964489,9.0913725 0 1 1 240.41631,501.82904 A 9.5964489,9.0913725 0 1 1 259.60921,501.82904 z" transform="matrix(0.392835,0.139358,-0.257425,0.725654,447.5323,297.6341)" style="opacity:.3;fill:#fff;fill-opacity:1;fill-rule:nonzero;stroke:none;stroke-linecap:butt;stroke-linejoin:miter;stroke-opacity:1"/><path id="path29474" d="M 259.60921,501.82904 A 9.5964489,9.0913725 0 1 1 240.41631,501.82904 A 9.5964489,9.0913725 0 1 1 259.60921,501.82904 z" transform="matrix(0.392835,0.139358,-0.257425,0.725654,520.4068,246.6341)" style="opacity:.3;fill:#fff;fill-opacity:1;fill-rule:nonzero;stroke:none;stroke-linecap:butt;stroke-linejoin:miter;stroke-opacity:1"/><path id="path29476" d="M 259.60921,501.82904 A 9.5964489,9.0913725 0 1 1 240.41631,501.82904 A 9.5964489,9.0913725 0 1 1 259.60921,501.82904 z" transform="matrix(0.392835,0.139358,-0.257425,0.725654,379.5323,272.6341)" style="opacity:.3;fill:#fff;fill-opacity:1;fill-rule:nonzero;stroke:none;stroke-linecap:butt;stroke-linejoin:miter;stroke-opacity:1"/><path id="path29478" d="M 259.60921,501.82904 A 9.5964489,9.0913725 0 1 1 240.41631,501.82904 A 9.5964489,9.0913725 0 1 1 259.60921,501.82904 z" transform="matrix(0.392835,0.139358,-0.257425,0.725654,376.4068,344.6341)" style="opacity:.3;fill:#fff;fill-opacity:1;fill-rule:nonzero;stroke:none;stroke-linecap:butt;stroke-linejoin:miter;stroke-opacity:1"/><rect id="rect29482" width="66.726" height="9.722" x="674.47" y="975.609" rx="6.935" ry="6.666" transform="matrix(0.842776,-0.538264,-0.228865,0.973458,0,0)" style="opacity:.24858757;fill:#fff;fill-opacity:1;fill-rule:nonzero;stroke:none;stroke-linecap:butt;stroke-linejoin:miter;stroke-opacity:1"/><rect id="rect30242" width="66.726" height="9.722" x="762.712" y="978.852" rx="6.935" ry="6.666" transform="matrix(0.842776,-0.538264,-0.228865,0.973458,0,0)" style="opacity:.24858757;fill:#fff;fill-opacity:1;fill-rule:nonzero;stroke:none;stroke-linecap:butt;stroke-linejoin:miter;stroke-opacity:1"/><rect id="rect30244" width="66.726" height="9.722" x="845.486" y="975.842" rx="6.935" ry="6.666" transform="matrix(0.842776,-0.538264,-0.228865,0.973458,0,0)" style="opacity:.24858757;fill:#fff;fill-opacity:1;fill-rule:nonzero;stroke:none;stroke-linecap:butt;stroke-linejoin:miter;stroke-opacity:1"/><rect id="rect30246" width="66.726" height="9.722" x="532.285" y="759.515" rx="6.935" ry="6.666" transform="matrix(0.842776,-0.538264,-0.228865,0.973458,0,0)" style="opacity:.24858757;fill:#fff;fill-opacity:1;fill-rule:nonzero;stroke:none;stroke-linecap:butt;stroke-linejoin:miter;stroke-opacity:1"/><rect id="rect30248" width="66.726" height="9.722" x="448.582" y="761.514" rx="6.935" ry="6.666" transform="matrix(0.842776,-0.538264,-0.228865,0.973458,0,0)" style="opacity:.24858757;fill:#fff;fill-opacity:1;fill-rule:nonzero;stroke:none;stroke-linecap:butt;stroke-linejoin:miter;stroke-opacity:1"/><rect id="rect30250" width="66.726" height="9.722" x="611.387" y="758.054" rx="6.935" ry="6.666" transform="matrix(0.842776,-0.538264,-0.228865,0.973458,0,0)" style="opacity:.24858757;fill:#fff;fill-opacity:1;fill-rule:nonzero;stroke:none;stroke-linecap:butt;stroke-linejoin:miter;stroke-opacity:1"/><rect id="rect30252" width="66.726" height="9.722" x="565.078" y="869.572" rx="6.935" ry="6.666" transform="matrix(0.842776,-0.538264,-0.228865,0.973458,0,0)" style="opacity:.24858757;fill:#fff;fill-opacity:1;fill-rule:nonzero;stroke:none;stroke-linecap:butt;stroke-linejoin:miter;stroke-opacity:1"/><rect id="rect30254" width="66.726" height="9.722" x="644.18" y="868.111" rx="6.935" ry="6.666" transform="matrix(0.842776,-0.538264,-0.228865,0.973458,0,0)" style="opacity:.24858757;fill:#fff;fill-opacity:1;fill-rule:nonzero;stroke:none;stroke-linecap:butt;stroke-linejoin:miter;stroke-opacity:1"/><rect id="rect30256" width="66.726" height="9.722" x="729.392" y="864.892" rx="6.935" ry="6.666" transform="matrix(0.842776,-0.538264,-0.228865,0.973458,0,0)" style="opacity:.24858757;fill:#fff;fill-opacity:1;fill-rule:nonzero;stroke:none;stroke-linecap:butt;stroke-linejoin:miter;stroke-opacity:1"/></g></svg>