<svg xmlns="http://www.w3.org/2000/svg" xmlns:svg="http://www.w3.org/2000/svg" id="svg2" width="16" height="16" version="1.1" viewBox="0 0 16 16"><metadata id="metadata7"/><g id="layer1" transform="translate(0,-1036.3622)"><circle style="color:#000;clip-rule:nonzero;display:inline;overflow:visible;visibility:visible;opacity:1;isolation:auto;mix-blend-mode:normal;color-interpolation:sRGB;color-interpolation-filters:linearRGB;solid-color:#000;solid-opacity:1;fill:#fc0;fill-opacity:1;fill-rule:evenodd;stroke:#000;stroke-width:1.1249274;stroke-linecap:round;stroke-linejoin:miter;stroke-miterlimit:4;stroke-dasharray:none;stroke-dashoffset:0;stroke-opacity:1;color-rendering:auto;image-rendering:auto;shape-rendering:auto;text-rendering:auto;enable-background:accumulate" id="path4145" cx="8" cy="1044.362" r="7.438"/><g style="fill:#000;fill-opacity:1;stroke:none;stroke-width:1px;stroke-linecap:butt;stroke-linejoin:miter;stroke-opacity:1" id="text4147"><path id="path4152" d="m 8.6945188,1040.8537 q -1.1150488,0 -1.871689,0.5376 -0.4513293,0.3186 -0.816375,0.9026 -0.3716829,0.604 -0.4380549,1.1483 l 4.5265671,0 -0.1792043,0.8894 -4.4535579,0 q -0.00664,0.1393 -0.00664,0.2654 0,0.5111 0.00664,0.6107 l 4.2743537,0 -0.1858415,0.8893 -3.9491311,0 q 0.2787622,1.52 1.3407134,2.1571 0.7632775,0.458 1.6526616,0.458 1.2411555,0 1.9380611,-0.6504 l 0,1.3672 q -0.8296495,0.385 -1.831866,0.385 -3.0000122,0 -4.0553262,-2.4956 -0.2123902,-0.5044 -0.3650457,-1.2213 l -1.0154909,0 0.1858415,-0.8893 0.6969055,0 q -0.019912,-0.2788 -0.019912,-0.604 0,-0.1328 0.00664,-0.2721 l -0.8694726,0 0.1858415,-0.8894 0.7699146,0 q 0.4115061,-2.1638 2.143814,-3.1062 1.0685885,-0.5841 2.3562043,-0.5841 1.2345183,0 2.0774424,0.5376 l -0.265488,1.2345 q -0.8097379,-0.6703 -1.8385032,-0.6703 z"/></g></g></svg>