<svg xmlns="http://www.w3.org/2000/svg" xmlns:svg="http://www.w3.org/2000/svg" id="svg2" width="16" height="13" version="1.1"><metadata id="metadata10"/><rect style="opacity:1;fill:#fff;fill-opacity:1;stroke:#fff;stroke-width:.02964734;stroke-linecap:square;stroke-linejoin:miter;stroke-miterlimit:4;stroke-dasharray:none;stroke-dashoffset:.60000002;stroke-opacity:1" id="rect4135" width="15.97" height="12.97" x=".015" y=".015"/><path style="fill:#000;fill-rule:evenodd;stroke:none" id="Car" d="m 0.80590777,7.4573173 c -0.036385,-2.68144 -0.1818775,-0.37415 1.43425303,-4.34954 1.1692315,-2.70222 -0.01558,-1.9747 6.0332315,-2.07343 5.3836597,0.10912 4.2975727,-0.67036 5.5343587,2.19815 1.548585,3.67399 1.429066,1.75124 1.418673,4.14687 -0.05719,2.6294697 0.914593,1.95392 -7.2336427,2.04226 -8.08588703,-0.10913 -7.12971203,0.57682 -7.18687353,-1.96431 z m 1.63692603,-2.5879 1.106864,-2.55672 c 0.2065205,-0.45415 0.1406285,-0.38711 0.6235895,-0.38974 l 7.7386717,-8.3e-4 c 0.418941,0.002 0.357476,-0.0257 0.530053,0.37415 l 1.100717,2.54196 -11.0998952,0.0312 z m -0.791616,4.84552 2.069974,-0.005 c -0.00665,2.5988697 0.209019,2.4539497 -0.9197995,2.4706897 -1.3441835,-0.005 -1.131697,0.13049 -1.1501745,-2.4660697 z m 10.6599222,0.0185 2.073432,0 c -0.01387,2.6029097 0.175531,2.4250697 -0.997738,2.4319997 -1.213121,-0.0162 -1.058955,0.17553 -1.075694,-2.4319997 z"/><circle style="fill:#fff;fill-opacity:1;stroke:none" id="LeftLamp" cx="2.681" cy="6.782" r="1.011"/><circle style="fill:#fff;fill-opacity:1;stroke:none" id="RightLamp" cx="13.321" cy="6.782" r="1.011"/></svg>