<svg xmlns="http://www.w3.org/2000/svg" xmlns:svg="http://www.w3.org/2000/svg" id="svg2" version="1.1" viewBox="0 0 128 128"><defs id="defs4"><linearGradient id="linearGradient3818" x1="-3.401" x2="129.15" y1="920.22" y2="1052.8" gradientTransform="matrix(1.221957,0,0,1.221957,-12.830549,-217.09451)" gradientUnits="userSpaceOnUse"><stop id="stop3814" offset="0" style="stop-color:#4d4d4d"/><stop id="stop3822" offset=".24" style="stop-color:gray"/><stop id="stop3820" offset=".498" style="stop-color:#ccc"/><stop id="stop3824" offset=".751" style="stop-color:gray"/><stop id="stop3816" offset="1" style="stop-color:#4d4d4d"/></linearGradient><linearGradient id="linearGradient3832" x1="11" x2="114.75" y1="934.61" y2="1038.4" gradientTransform="matrix(1.221957,0,0,1.221957,-12.830549,-217.09451)" gradientUnits="userSpaceOnUse"><stop id="stop3836" offset="0" style="stop-color:#ccc"/><stop id="stop3838" offset=".27" style="stop-color:#2639c2;stop-opacity:1"/><stop id="stop3840" offset=".498" style="stop-color:#7c82f1;stop-opacity:1"/><stop id="stop3842" offset=".72" style="stop-color:#2f48e2;stop-opacity:1"/><stop id="stop3844" offset="1" style="stop-color:#8a89ff;stop-opacity:1"/></linearGradient><linearGradient id="linearGradient3916" x1="9.75" x2="120.5" y1="931.49" y2="1048.7" gradientTransform="matrix(1.221957,0,0,1.221957,-12.830549,-217.09451)" gradientUnits="userSpaceOnUse"><stop id="stop3920" offset="0" style="stop-color:#ccc"/><stop id="stop3922" offset=".24" style="stop-color:#e6e6e6"/><stop id="stop3924" offset=".498" style="stop-color:#6e6e6e;stop-opacity:1"/><stop id="stop3926" offset=".751" style="stop-color:#ccc"/><stop id="stop3928" offset="1" style="stop-color:#ccc"/></linearGradient><linearGradient id="linearGradient3936" x1="22.5" x2="101.5" y1="939.5" y2="1041.2" gradientTransform="matrix(1.221957,0,0,1.221957,-12.830549,-217.09451)" gradientUnits="userSpaceOnUse"><stop id="stop3940" offset="0" style="stop-color:#4d4d4d"/><stop id="stop3942" offset=".24" style="stop-color:gray"/><stop id="stop3944" offset=".498" style="stop-color:#b3b3b3"/><stop id="stop3946" offset=".751" style="stop-color:gray"/><stop id="stop3948" offset="1" style="stop-color:#4d4d4d"/></linearGradient></defs><g id="layer1" transform="translate(0 -924.36)"><path id="path3782" d="m 73.011933,988.35389 c 0,4.97715 -4.03478,9.01193 -9.011933,9.01193 -4.977153,0 -9.011933,-4.03478 -9.011933,-9.01193 0,-4.97715 4.03478,-9.01193 9.011933,-9.01193 4.977153,0 9.011933,4.03478 9.011933,9.01193 z m 15.274463,0 c 0,13.41341 -10.87334,24.28641 -24.286396,24.28641 -13.413056,0 -24.286396,-10.8735 -24.286396,-24.28641 0,-13.41293 10.87334,-24.2864 24.286396,-24.2864 13.413056,0 24.286396,10.87334 24.286396,24.2864 z" style="opacity:.45673002;fill:url(#linearGradient3916);fill-rule:evenodd"/><path id="path3784" d="m 88.286396,988.35389 c 0,13.41341 -10.87334,24.28641 -24.286396,24.28641 -13.413056,0 -24.286396,-10.8735 -24.286396,-24.28641 0,-13.41293 10.87334,-24.2864 24.286396,-24.2864 13.413056,0 24.286396,10.87334 24.286396,24.2864 z m 39.102624,10e-6 c 0,35.0091 -28.379951,63.389 -63.38902,63.389 -35.009069,0 -63.38902148,-28.3799 -63.38902148,-63.389 0,-35.00907 28.37995248,-63.38902 63.38902148,-63.38902 35.009069,0 63.38902,28.37995 63.38902,63.38902 z" style="fill:url(#linearGradient3832);fill-rule:evenodd"/><path id="path3792" d="m 64,924.36 c -35.338998,0 -64,28.661 -64,64 0,35.339 28.661002,64 64,64 35.338998,0 64,-28.661 64,-64 0,-35.339 -28.661002,-64 -64,-64 z m 0,1.22196 c 34.679141,0 62.77804,28.0989 62.77804,62.77804 0,34.6791 -28.098899,62.778 -62.77804,62.778 -34.679141,0 -62.778043,-28.0989 -62.778043,-62.778 0,-34.67914 28.098902,-62.77804 62.778043,-62.77804 z" style="color:#000;text-indent:0;text-transform:none;block-progression:tb;fill:url(#linearGradient3818);fill-rule:evenodd"/><path id="path3798" d="m 64,963.46263 c -13.743351,0 -24.897375,11.15414 -24.897375,24.89737 0,13.7432 11.154146,24.8974 24.897375,24.8974 13.743229,0 24.897375,-11.1542 24.897375,-24.8974 0,-13.74323 -11.154146,-24.89737 -24.897375,-24.89737 z m 0,1.22195 c 13.082272,0 23.675418,10.59266 23.675418,23.67542 0,13.0828 -10.592657,23.6754 -23.675418,23.6754 -13.082761,0 -23.675418,-10.5926 -23.675418,-23.6754 0,-13.08276 10.592657,-23.67542 23.675418,-23.67542 z m 0,14.05251 c -5.307326,0 -9.622912,4.31558 -9.622912,9.62291 0,5.30733 4.315586,9.62291 9.622912,9.62291 5.307326,0 9.622912,-4.31558 9.622912,-9.62291 0,-5.30733 -4.315586,-9.62291 -9.622912,-9.62291 z m 0,1.22196 c 4.64698,0 8.400955,3.75397 8.400955,8.40095 0,4.64698 -3.753975,8.40095 -8.400955,8.40095 -4.64698,0 -8.400955,-3.75397 -8.400955,-8.40095 0,-4.64698 3.753975,-8.40095 8.400955,-8.40095 z" style="color:#000;text-indent:0;text-transform:none;block-progression:tb;fill:url(#linearGradient3936)"/></g><metadata id="metadata35"/></svg>