<svg xmlns="http://www.w3.org/2000/svg" xmlns:svg="http://www.w3.org/2000/svg" id="svg6733" width="16" height="10" version="1.1" viewBox="0 0 16 10"><metadata id="metadata36"/><g id="layer1" transform="matrix(0.0366201,0,0,0.0366201,-5.2874403,-10.858967)"><g id="g7534" transform="matrix(2.236,0,0,2.236,-363.42,-1228.9)" style="fill-rule:evenodd"><g id="g10" stroke-miterlimit="2.613" style="stroke:#000;stroke-width:3.54329991;stroke-linecap:round;stroke-linejoin:round;stroke-miterlimit:2.61310005"><path id="path6676" d="m 315.36,745.85 h 6.0112 c 0.41163,5.4867 2.5646,9.3625 5.5105,12.506 -1.169,0.4631 -2.3379,0.9262 -3.5065,1.3897 -4.1495,-3.0944 -7.2442,-7.2875 -8.0152,-13.896 z" style="fill:#ccc"/><path id="path6678" d="m 344.11,755.22 c -0.44538,17.474 -33.586,16.543 -37.87,7.1253 -2.5558,-5.619 -3.915,-13.176 -1.5768,-19.149 h 44.896 c -6.1491,3.5259 -5.1145,3.9313 -5.4496,12.023 z m -33.019,-2.8759 c 4.4185,-7.2132 25.163,-8.6263 27.774,0.164 3.9129,13.173 -22.755,13.94 -26.497,8.8806 -2.4582,-3.3233 -2.2301,-7.4888 -1.2772,-9.0446 z" style="fill:#ccc"/><path id="path6680" d="m 285.33,695.91 c 7.633,0.075 7.4721,10.51 3.543,16.502 l 2.6365,4.3048 c 3.5571,-2.1539 14.358,-11.129 15.743,-15.34 -1.3635,-6.031 -5.5921,0.9935 -15.804,-8.3895 -3.5444,-3.2566 -6.3918,-1.131 -6.1182,2.9225 z" style="fill:#b3b3b3"/><path id="path6682" d="m 420.07,691.02 h -3.0888 c -4.265,7.836 -13.944,2.6237 -13.944,5.8266 v 5.8265 h 17.032 v -11.653 z" style="fill:#b3b3b3"/><path id="path6684" d="m 315.28,692.57 h 33.745 l 13.207,4.4798 v 34.825 c -6.5211,1.5026 -11.366,8.2445 -11.179,11.751 h -74.734 v -23.235 c 0.009,-3.2552 0.6105,-4.894 5.4688,-4.9163 11.342,-1.8655 31.257,-19.827 33.492,-22.904 z" style="fill:#ccc"/><path id="path6686" d="m 320.4,698.55 h 17.283 v 33.695 H 320.4 c -7.577,0 -13.776,-7.5813 -13.776,-16.847 0,-9.2658 6.1994,-16.847 13.776,-16.847 z" style="fill:#666"/><path id="path6688" d="m 361.9,699.59 h 58.841 v 21.097 H 361.9 Z" style="fill:#ccc"/><path id="path6690" d="m 361.9,729.82 h 58.841 v -9.1356 H 361.9 Z" style="fill:#ccc"/></g><path id="path6692" d="m 362.89,703.65 h 53.288 v 6.4914 H 362.89 Z" style="fill:#fff"/><path id="path6694" stroke-miterlimit="2.613" d="m 361.9,697.02 h -10.946 v 36.145 H 361.9 Z" style="fill:gray;stroke:#000;stroke-width:3.54329991;stroke-linecap:round;stroke-linejoin:round;stroke-miterlimit:2.61310005"/><g id="g17" style="fill:#b3b3b3"><path id="path6696" d="m 352.53,718 h 7.8095 v 4.3739 H 352.53 Z"/><path id="path6698" d="m 352.53,701.28 h 7.8095 v 4.3738 H 352.53 Z"/><path id="path6700" stroke-miterlimit="2.613" d="m 350.88,697.02 h -25.974 v 36.145 h 25.974 z" style="stroke:#000;stroke-width:3.54329991;stroke-linecap:round;stroke-linejoin:round;stroke-miterlimit:2.61310005"/></g><path id="path6702" stroke-miterlimit="2.613" d="m 319.9,697.02 h 5.0096 v 36.145 H 319.9 Z" style="fill:gray;stroke:#000;stroke-width:3.54329991;stroke-linecap:round;stroke-linejoin:round;stroke-miterlimit:2.61310005"/><path id="path6704" stroke-miterlimit="2.613" d="m 350.88,707.43 h -25.974 v 15.316 h 25.974 z" style="fill:#b3b3b3;stroke:#000;stroke-width:3.54329991;stroke-linecap:round;stroke-linejoin:round;stroke-miterlimit:2.61310005"/><path id="path6706" d="m 328.48,700.24 h 19.222 v 4.3738 H 328.48 Z" style="fill:#fff"/><path id="path6708" d="m 328.48,710.65 h 19.222 v 4.3738 H 328.48 Z" style="fill:#fff"/><g id="g27" stroke-miterlimit="2.613" style="stroke:#000;stroke-width:3.54329991;stroke-linecap:round;stroke-linejoin:round;stroke-miterlimit:2.61310005"><path id="path6710" d="m 304.88,731.9 c 1.8471,0 3.3445,1.4977 3.3445,3.3445 0,1.8471 -1.4974,3.3445 -3.3445,3.3445 -1.8468,0 -3.3445,-1.4974 -3.3445,-3.3445 0,-1.8468 1.4978,-3.3445 3.3445,-3.3445 z" style="fill:#b3b3b3"/><path id="path6712" d="m 228.99,797.37 c -1.468,-14.001 12.392,-49.105 30.931,-58.981 15.636,-15.392 28.323,-16.157 32.755,-4.8861 0.80262,1.9246 3.133,9.703 0.0908,12.252 -6.6932,5.6087 -4.7346,9.9063 -5.2834,10.885 -1.9542,3.4835 -5.5456,3.532 -6.6059,9.7757 -0.30688,1.8067 2.6565,5.6477 2.5569,7.5815 -0.2625,5.0893 -3.5954,3.5452 -2.4845,10.878 0.82938,1.997 3.6659,4.5808 3.989,6.3933 0.65413,3.6684 -2.8162,3.4264 -0.72987,9.0489 -12.843,3.1513 -51.187,3.6751 -55.219,-2.9467 z" style="fill:#630"/><path id="path6714" d="m 279.95,732.56 c 3.5811,0 6.4852,2.9044 6.4852,6.4852 0,3.5813 -2.9041,6.4857 -6.4852,6.4857 -3.5812,0 -6.4854,-2.9044 -6.4854,-6.4857 0,-3.5808 2.9041,-6.4852 6.4854,-6.4852 z" style="fill:#666"/><path id="path6716" d="m 239.12,789.11 c 2.1795,0 3.9466,1.7673 3.9466,3.9465 0,2.1795 -1.7671,3.9465 -3.9466,3.9465 -2.1791,0 -3.9465,-1.767 -3.9465,-3.9465 0,-2.1792 1.7674,-3.9465 3.9465,-3.9465 z" style="fill:#b3b3b3"/></g></g></g></svg>