<svg xmlns="http://www.w3.org/2000/svg" xmlns:svg="http://www.w3.org/2000/svg" id="svg2" width="945.6" height="945.6" version="1.1" xml:space="preserve"><metadata id="metadata8"/><path id="path14622" d="m 942.8,472.8 c 0,-259.5738 -210.42618,-470 -470,-470 -259.5739,0 -470,210.4262 -470,470 0,259.5739 210.4261,470 470,470 259.57382,0 470,-210.4261 470,-470 z" style="fill:#c50000;fill-opacity:1;stroke:none"/><path id="path15520" d="m 106.8,472.8 c 0,-202.1362 163.8638,-366 366,-366 202.13621,0 366.00001,163.8638 366.00001,366 0,202.1362 -163.8638,366 -366.00001,366 -202.1362,0 -366,-163.8638 -366,-366 z" style="fill:#fff;fill-opacity:1;stroke:none"/><path id="path3914" d="m 121.0143,771.5526 53.033,53.033 650.53831,-650.5382 -53.033,-53.033 z" style="fill:#c50000;fill-opacity:1;stroke:none"/><path style="fill:#000;fill-opacity:1;fill-rule:evenodd;stroke:none" id="path1885" d="m 439.23834,204.28759 -108.74546,106.35929 112.61162,0.55608 c 139.01327,5.82455 173.51318,124.45698 178.82914,159.0014 l 0,276.14862 -76.79267,0 0,-264.76754 c 0,-12.80765 -11.61087,-82.73186 -97.98084,-97.27668 l -118.63824,0.29657 110.79225,108.36118 -95.40339,0 -147.40705,-144.20971 -0.37904,0 0.18952,-0.18536 -0.11365,-0.11115 0.22742,0 147.44495,-144.17264 95.36544,0 z"/></svg>