<svg xmlns="http://www.w3.org/2000/svg" xmlns:svg="http://www.w3.org/2000/svg" id="svg2" width="725" height="725" version="1.0"><metadata id="metadata8"/><circle style="fill:#fff;stroke:#000;stroke-width:2.5px" id="circle4" cx="362.5" cy="362.5" r="350" transform="matrix(-1,0,0,1,725,0)"/><path style="opacity:1;fill:#039;fill-opacity:1;fill-rule:nonzero;stroke:none;stroke-width:2;stroke-linecap:round;stroke-linejoin:round;stroke-miterlimit:4;stroke-dasharray:none;stroke-dashoffset:0;stroke-opacity:1" id="path1883" d="M 34.355927,362.50146 C 34.355927,543.7316 181.27198,690.64765 362.50212,690.64765 C 543.73226,690.64765 690.64832,543.7316 690.64832,362.50146 C 690.64832,181.27132 543.73226,34.355265 362.50212,34.355265 C 181.27198,34.355265 34.355927,181.27132 34.355927,362.50146 z"/><path style="fill:#fff;fill-opacity:1;fill-rule:evenodd;stroke:none;stroke-width:1px;stroke-linecap:butt;stroke-linejoin:miter;stroke-opacity:1" id="path2806" d="M 416.53125,87.53125 L 416.375,97.5 L 416.6875,87.75 L 520.96875,191.9375 L 520.84375,267.71875 L 445.59375,193.875 L 445.8125,628.59375 L 385.6875,628.53125 L 385.78125,527.53125 C 379.86041,485.77121 356.78875,456.96293 306.34375,446.5 C 306.34376,446.49999 196.5,446.375 196.5,446.375 L 269.78125,520.65625 L 193.03125,520.875 L 89.53125,415.9375 L 99.5,416.09375 L 89.75,415.8125 L 193.9375,311.53125 L 269.6875,311.625 L 196.65625,384.875 L 302.21875,384.15625 C 335.15558,386.73156 362.45901,396.06844 385.90625,410.03125 L 386.09375,194.5 L 311.8125,267.78125 L 311.59375,191.03125 L 416.53125,87.53125 z"/></svg>