<svg xmlns="http://www.w3.org/2000/svg" xmlns:svg="http://www.w3.org/2000/svg" id="svg2" width="945.6" height="945.6" version="1.1" xml:space="preserve"><metadata id="metadata8"/><path id="path14622" d="M 2.8,472.79998 C 2.8,213.22617 213.22618,2.8 472.8,2.8 c 259.5739,0 470,210.42617 470,469.99998 0,259.5739 -210.4261,470 -470,470 -259.57382,0 -470,-210.4261 -470,-470 z" style="fill:#c50000;fill-opacity:1;stroke:none"/><path id="path15520" d="m 838.8,472.79998 c 0,-202.13618 -163.8638,-365.99997 -366,-365.99997 -202.13621,0 -366.00001,163.86379 -366.00001,365.99997 0,202.1362 163.8638,366 366.00001,366 202.1362,0 366,-163.8638 366,-366 z" style="fill:#fff;fill-opacity:1;stroke:none"/><path id="path3914" d="m 824.5857,771.55258 -53.033,53.033 -650.53831,-650.5382 53.033,-53.033 z" style="fill:#c50000;fill-opacity:1;stroke:none"/><path style="fill:#000" id="path10" d="M 469.45662,144.70847 257.209,389.29898 l 0,112.346 167.42918,-195.36124 0,497.15472 87.27801,0 0,-497.15472 167.42881,195.36124 0,-112.346"/></svg>