<svg xmlns="http://www.w3.org/2000/svg" xmlns:svg="http://www.w3.org/2000/svg" id="svg2" width="725" height="725" version="1.0"><metadata id="metadata8"/><circle style="fill:#fff;stroke:#000;stroke-width:2.5px" id="circle4" cx="362.5" cy="362.5" r="350" transform="matrix(-1,0,0,1,725,0)"/><path style="opacity:1;fill:#039;fill-opacity:1;fill-rule:nonzero;stroke:none;stroke-width:2;stroke-linecap:round;stroke-linejoin:round;stroke-miterlimit:4;stroke-dasharray:none;stroke-dashoffset:0;stroke-opacity:1" id="path1883" d="M 34.355927,362.50146 C 34.355927,543.7316 181.27198,690.64765 362.50212,690.64765 C 543.73226,690.64765 690.64832,543.7316 690.64832,362.50146 C 690.64832,181.27132 543.73226,34.355265 362.50212,34.355265 C 181.27198,34.355265 34.355927,181.27132 34.355927,362.50146 z"/><path style="fill:#fff;fill-opacity:1;fill-rule:evenodd;stroke:none;stroke-width:1px;stroke-linecap:butt;stroke-linejoin:miter;stroke-opacity:1" id="path1885" d="M 341.34375,138.34375 L 251.6875,228 L 344.53125,228.46875 C 459.14222,233.37859 487.58597,333.38056 491.96875,362.5 L 491.96875,595.28125 L 428.65625,595.28125 L 428.65625,372.09375 C 428.65626,361.29746 419.08354,302.3544 347.875,290.09375 L 250.0625,290.34375 L 341.40625,381.6875 L 262.75,381.6875 L 141.21875,260.125 L 140.90625,260.125 L 141.0625,259.96875 L 140.96875,259.875 L 141.15625,259.875 L 262.71875,138.34375 L 341.34375,138.34375 z"/></svg>