<svg xmlns="http://www.w3.org/2000/svg" xmlns:svg="http://www.w3.org/2000/svg" id="svg2" width="725" height="725" version="1.0"><metadata id="metadata8"/><circle style="fill:#fff;stroke:#000;stroke-width:2.5px" id="circle4" cx="362.5" cy="362.5" r="350" transform="matrix(0,-1,1,0,0,725)"/><path style="opacity:1;fill:#039;fill-opacity:1;fill-rule:nonzero;stroke:none;stroke-width:2;stroke-linecap:round;stroke-linejoin:round;stroke-miterlimit:4;stroke-dasharray:none;stroke-dashoffset:0;stroke-opacity:1" id="path1883" d="M 362.49788,34.355265 C 543.72802,34.355265 690.64407,181.27132 690.64407,362.50146 C 690.64407,543.7316 543.72802,690.64765 362.49788,690.64765 C 181.26774,690.64765 34.351685,543.7316 34.351685,362.50146 C 34.351685,181.27132 181.26774,34.355265 362.49788,34.355265 z"/><path style="fill:#fff;fill-opacity:1;fill-rule:evenodd;stroke:none;stroke-width:1px;stroke-linecap:butt;stroke-linejoin:miter;stroke-opacity:1" id="path2806" d="M 200.04688,353.01562 L 325.35938,227.85938 L 325.35938,626.70312 L 398.64062,626.70312 L 398.64062,227.45312 L 524.01562,352.67188 L 524.01562,260.32812 L 362.14062,98.140625 L 362.35938,114.23438 L 361.92188,98.484375 L 200.04688,260.70312 L 200.04688,353.01562 z"/></svg>