<svg xmlns="http://www.w3.org/2000/svg" xmlns:svg="http://www.w3.org/2000/svg" id="svg2" width="725" height="725" version="1.0"><metadata id="metadata8"/><circle style="fill:#fff;stroke:#000;stroke-width:2.5px" id="circle4" cx="362.5" cy="362.5" r="350"/><path style="opacity:1;fill:#039;fill-opacity:1;fill-rule:nonzero;stroke:none;stroke-width:2;stroke-linecap:round;stroke-linejoin:round;stroke-miterlimit:4;stroke-dasharray:none;stroke-dashoffset:0;stroke-opacity:1" id="path1883" d="M -176.30905 369.66949 A 309.2189 309.2189 0 1 1 -794.74686,369.66949 A 309.2189 309.2189 0 1 1 -176.30905 369.66949 z" transform="matrix(1.06121, 0, 0, 1.06121, 877.745, -29.7955)"/><path style="fill:#fff;fill-opacity:1;fill-rule:evenodd;stroke:none;stroke-width:1px;stroke-linecap:butt;stroke-linejoin:miter;stroke-opacity:1" id="path1885" d="M 383.65625,138.34375 L 473.3125,228 L 380.46875,228.46875 C 265.85778,233.37859 237.41403,333.38056 233.03125,362.5 L 233.03125,595.28125 L 296.34375,595.28125 L 296.34375,372.09375 C 296.34374,361.29746 305.91646,302.3544 377.125,290.09375 L 474.9375,290.34375 L 383.59375,381.6875 L 462.25,381.6875 L 583.78125,260.125 L 584.09375,260.125 L 583.9375,259.96875 L 584.03125,259.875 L 583.84375,259.875 L 462.28125,138.34375 L 383.65625,138.34375 z"/></svg>