<svg xmlns="http://www.w3.org/2000/svg" xmlns:svg="http://www.w3.org/2000/svg" id="svg2" width="760" height="760" version="1.0"><title id="title3003">bicycle_road_sign_icon</title><metadata id="metadata28"/><path id="rect2841" d="m 45.824811,3.3417118 667.440239,0 c 17.26431,0 44.40426,25.3658182 44.40426,44.6040572 l 0,663.062641 c 0,17.56106 -26.23171,45.64977 -47.01218,45.64977 l -662.224403,0 c -16.898243,0 -44.6781525,-25.29652 -44.6781525,-37.91916 l 0,-672.469767 c 0,-19.094699 22.7368545,-42.9275412 42.0702365,-42.9275412 z" style="fill:#fff;fill-opacity:1;fill-rule:nonzero;stroke:#000;stroke-width:2.01799999999999979;stroke-linecap:round;stroke-linejoin:round;stroke-miterlimit:4;stroke-opacity:0;stroke-dashoffset:0;opacity:1;stroke-dasharray:none"/><path id="path1934" d="m 25.443662,52.632534 0,658.329506 c 0,15.81111 15.542175,24.19269 27.474772,24.19269 l 657.360006,-0.25172 c 11.21703,0 24.66493,-13.41694 24.66493,-25.92349 l 0,-654.891497 c 0.17207,-19.416771 -15.69419,-29.40446 -26.88735,-29.40446 l -654.202941,0.25171 c -19.69216,0 -28.409417,14.141544 -28.409417,27.697261 z" style="fill:none;stroke:#000;stroke-width:17;stroke-linecap:butt;stroke-linejoin:miter;stroke-miterlimit:4;stroke-opacity:1;stroke-dasharray:none;opacity:1"/><g id="g3093" transform="translate(-0.29929775,60.174376)"><path style="fill:#039;fill-opacity:1;fill-rule:nonzero;stroke:none" id="path1882" d="m 620.29687,319.82557 a 239.28563,239.28563 0 0 1 -478.57126,0 239.28563,239.28563 0 1 1 478.57126,0 z"/><g id="g12681"><circle style="fill:none;stroke:#fff;stroke-width:40px;stroke-opacity:1" id="circle11777" cx="215" cy="409" r="161" d="m 376,409 c 0,88.91784 -72.08216,161 -161,161 -88.91784,0 -161,-72.08216 -161,-161 0,-88.91784 72.08216,-161 161,-161 88.91784,0 161,72.08216 161,161 z" transform="matrix(0.404263,0,0,0.404263,177.6268,199.8607)"/><circle style="fill:none;stroke:#fff;stroke-width:40px;stroke-opacity:1" id="circle11779" cx="790" cy="406" r="161" d="m 951,406 c 0,88.91784 -72.08216,161 -161,161 -88.91784,0 -161,-72.08216 -161,-161 0,-88.91784 72.08216,-161 161,-161 88.91784,0 161,72.08216 161,161 z" transform="matrix(0.404263,0,0,0.404263,177.6268,199.8607)"/><path style="fill:#fff;fill-rule:evenodd;stroke:#fff;stroke-opacity:1" id="path11781" d="m 351.25144,206.11348 c -53.59172,0.52234 -44.50307,-5.53676 -73.33604,87.12573 -23.48869,74.03725 -20.93021,65.96322 -21.05305,71.15653 -0.0861,4.03463 3.17077,7.23353 7.26337,7.50734 8.51119,-0.86058 4.93119,0.9205 34.43938,-90.71243 107.82185,113.74166 67.3698,95.29738 125.39558,97.60727 76.26112,-0.73127 82.45951,3.96976 83.3649,-7.20825 -0.10447,-3.79564 -1.88041,-6.0591 -54.21853,-122.54013 l 5.01443,-13.78968 17.2371,-0.3134 -0.6268,-14.41649 -64.24739,0 c -5.67605,7.7654 2.29829,7.73058 31.02679,14.10308 l -5.01443,14.10309 -128.18137,0.3134 c 8.63597,-30.15622 3.76082,-28.27581 42.62266,-28.20617 l 0.3134,-14.72989 z m -46.63991,58.39296 125.428,-0.22238 -36.24958,97.40685 -89.17842,-97.18447 z m 140.55052,5.78215 -35.58241,93.40383 77.83652,0.22239 -42.25411,-93.62622 z"/></g></g></svg>