<svg xmlns="http://www.w3.org/2000/svg" xmlns:svg="http://www.w3.org/2000/svg" id="svg4264" width="16" height="16" version="1.1" viewBox="0 0 16 16"><metadata id="metadata4269"/><g id="layer1" transform="translate(0,-1036.3621)"><path style="color:#000;font-style:normal;font-variant:normal;font-weight:400;font-stretch:normal;font-size:medium;line-height:normal;font-family:Sans;text-indent:0;text-align:start;text-decoration:none;text-decoration-line:none;letter-spacing:normal;word-spacing:normal;text-transform:none;direction:ltr;block-progression:tb;writing-mode:lr-tb;baseline-shift:baseline;text-anchor:start;display:inline;overflow:visible;visibility:visible;fill:#2ca02c;fill-opacity:1;stroke:none;stroke-width:45;marker:none;enable-background:accumulate" id="path3772-3" d="M 5.5234375,4 C 5.2827341,4 5.04231,4.1887532 5.046875,4.5644531 c -0.00886,1.5873785 -0.00728,3.0618654 0,4.4453125 0,0.6044999 0.362299,1.1337034 0.9570312,1.0332034 l 0.4921876,0 0,5.957031 1.2265624,0 0,-3 0.6054688,0 0,3 1.2265625,0 0,-5.957031 0.5410155,0 0,3.958984 c -0.0092,0.7514 0.964248,0.7514 0.955078,0 l 0,-4.0742186 0,-0.7226563 c 0,-0.6657999 -0.461731,-1.203125 -1.033203,-1.203125 l -3.9355468,0 c -0.04495,0 -0.038507,0.00173 -0.082031,0.00195 L 6,4.5644531 C 6.0045635,4.1887532 5.7641409,4 5.5234375,4 Z" transform="translate(-4.7683724e-7,1036.3621)"/><ellipse style="opacity:1;fill:#2ca02c;fill-opacity:1;stroke:none;stroke-width:.30000001;stroke-linecap:round;stroke-linejoin:round;stroke-miterlimit:4;stroke-dasharray:none;stroke-opacity:1" id="path4145-2" cx="8.05" cy="1042.569" rx="1.204" ry="1.204"/><path style="color:#000;font-style:normal;font-variant:normal;font-weight:400;font-stretch:normal;font-size:medium;line-height:normal;font-family:Sans;text-indent:0;text-align:start;text-decoration:none;text-decoration-line:none;letter-spacing:normal;word-spacing:normal;text-transform:none;direction:ltr;block-progression:tb;writing-mode:lr-tb;baseline-shift:baseline;text-anchor:start;display:inline;overflow:visible;visibility:visible;fill:#3771c8;fill-opacity:1;stroke:none;stroke-width:45;marker:none;enable-background:accumulate" id="path3772" d="m 11.031468,1039.3621 c -0.571473,0 -1.031173,0.5365 -1.031173,1.2025 l 0,0.6846 c -3.919e-4,0.013 -3.919e-4,0.026 0,0.039 l 0,0.1148 0,3.9584 c -0.00913,0.7514 0.962812,0.7514 0.953685,0 l 0,-3.9584 0.491463,0 0,10.2347 c -0.01173,0.9661 1.237895,0.9661 1.226168,0 l 0,-6.2782 0.606984,0 0,6.2782 c -0.01162,0.9659 1.237788,0.9659 1.226169,0 l 0,-10.2347 0.541489,0 0,3.9584 c -0.0092,0.7514 0.962855,0.7514 0.953685,0 l 0,-4.0735 0,-0.7235 c 0,-0.6658 -0.460553,-1.2024 -1.032025,-1.2024 l -3.936445,0 z"/><ellipse style="opacity:1;fill:#3771c8;fill-opacity:1;stroke:none;stroke-width:.30000001;stroke-linecap:round;stroke-linejoin:round;stroke-miterlimit:4;stroke-dasharray:none;stroke-opacity:1" id="path4145" cx="13" cy="1037.566" rx="1.204" ry="1.204"/><path style="color:#000;font-style:normal;font-variant:normal;font-weight:400;font-stretch:normal;font-size:medium;line-height:normal;font-family:Sans;text-indent:0;text-align:start;text-decoration:none;text-decoration-line:none;letter-spacing:normal;word-spacing:normal;text-transform:none;direction:ltr;block-progression:tb;writing-mode:lr-tb;baseline-shift:baseline;text-anchor:start;display:inline;overflow:visible;visibility:visible;fill:#fc0;fill-opacity:1;stroke:none;stroke-width:45;marker:none;enable-background:accumulate" id="path3772-3-7" d="m 4.0313961,1040.3621 c 0.2407035,0 0.4811276,0.1888 0.4765626,0.5645 0.00886,1.5873 0.00728,3.0618 0,4.4453 0,0.6045 -0.362299,1.1337 -0.9570313,1.0332 l -0.4921877,0 0,5.957 -1.2265631,0 0,-3 -0.605468,0 0,3 -1.22656300175,0 c -2.52e-4,-2.666 -3.52e-4,-5.332 0.001200002,-7.998 l 3.4715088,0 0.082031,0 2e-7,-3.4394 c -0.00456,-0.3757 0.2358591,-0.5645 0.4765625,-0.5645 z"/><ellipse style="opacity:1;fill:#fc0;fill-opacity:1;stroke:none;stroke-width:.30000001;stroke-linecap:round;stroke-linejoin:round;stroke-miterlimit:4;stroke-dasharray:none;stroke-opacity:1" id="path4145-2-4" cx="-1.505" cy="1042.569" rx="1.204" ry="1.204" transform="scale(-1,1)"/><g id="g4199" transform="translate(0.04588891,0)"><path id="path3772-3-0" d="m 5.4776113,1043.8006 c -0.2407034,0 -0.4811276,0.1888 -0.4765626,0.5645 -0.00886,1.5873 -0.00728,3.0618 0,4.4453 0,0.6045 0.3622991,1.1337 0.9570314,1.0332 l 0.4921877,0 0,2.5127 3.0585942,0 0,-2.5127 0.541016,0 0,2.5127 0.955078,0 0,-2.628 0,-0.7226 c 0,-0.6658 -0.461731,-1.2031 -1.033203,-1.2031 l -3.9355479,0 -0.082031,0 -2e-7,-3.4394 c 0.00456,-0.3757 -0.2358592,-0.5645 -0.4765626,-0.5645 z" style="color:#000;font-style:normal;font-variant:normal;font-weight:400;font-stretch:normal;font-size:medium;line-height:normal;font-family:Sans;text-indent:0;text-align:start;text-decoration:none;text-decoration-line:none;letter-spacing:normal;word-spacing:normal;text-transform:none;direction:ltr;block-progression:tb;writing-mode:lr-tb;baseline-shift:baseline;text-anchor:start;display:inline;overflow:visible;visibility:visible;fill:#0ff;fill-opacity:1;stroke:none;stroke-width:45;marker:none;enable-background:accumulate"/><ellipse id="path4145-2-2" cx="8.004" cy="1046.008" rx="1.204" ry="1.204" style="opacity:1;fill:#0ff;fill-opacity:1;stroke:none;stroke-width:.30000001;stroke-linecap:round;stroke-linejoin:round;stroke-miterlimit:4;stroke-dasharray:none;stroke-opacity:1"/></g><g id="g4195" transform="translate(0,-0.4375)"><path id="path3772-3-7-5" d="m 4.0313968,1044.2381 c 0.2407036,0 0.4811277,0.1888 0.4765627,0.5645 0.00886,1.5873 0.00728,3.0618 0,4.4453 0,0.6045 -0.362299,1.1337 -0.9570314,1.0332 l -0.4921878,0 0,2.5195 -3.05859470175,0 c 0,0 -3.52e-4,-1.8945 0.001200002,-4.5605 l 3.4715094,0 0.082031,0 2e-7,-3.4394 c -0.00456,-0.3757 0.2358591,-0.5645 0.4765625,-0.5645 z" style="color:#000;font-style:normal;font-variant:normal;font-weight:400;font-stretch:normal;font-size:medium;line-height:normal;font-family:Sans;text-indent:0;text-align:start;text-decoration:none;text-decoration-line:none;letter-spacing:normal;word-spacing:normal;text-transform:none;direction:ltr;block-progression:tb;writing-mode:lr-tb;baseline-shift:baseline;text-anchor:start;display:inline;overflow:visible;visibility:visible;fill:#f55;fill-opacity:1;stroke:none;stroke-width:45;marker:none;enable-background:accumulate"/><ellipse id="path4145-2-4-0" cx="-1.505" cy="1046.445" rx="1.204" ry="1.204" transform="scale(-1,1)" style="opacity:1;fill:#f55;fill-opacity:1;stroke:none;stroke-width:.30000001;stroke-linecap:round;stroke-linejoin:round;stroke-miterlimit:4;stroke-dasharray:none;stroke-opacity:1"/></g></g></svg>