<svg xmlns="http://www.w3.org/2000/svg" xmlns:svg="http://www.w3.org/2000/svg" id="svg4264" width="16" height="16" version="1.1" viewBox="0 0 16 16"><metadata id="metadata4269"/><g id="layer1" transform="translate(0,-1036.3621)"><path style="color:#000;font-style:normal;font-variant:normal;font-weight:400;font-stretch:normal;font-size:medium;line-height:normal;font-family:Sans;text-indent:0;text-align:start;text-decoration:none;text-decoration-line:none;letter-spacing:normal;word-spacing:normal;text-transform:none;direction:ltr;block-progression:tb;writing-mode:lr-tb;baseline-shift:baseline;text-anchor:start;display:inline;overflow:visible;visibility:visible;fill:#3771c8;fill-opacity:1;stroke:none;stroke-width:45;marker:none;enable-background:accumulate" id="path3772" d="m 11.031468,1039.3622 c -0.571473,0 -1.031173,0.5365 -1.031173,1.2025 l 0,0.6846 c -3.917e-4,0.013 -3.917e-4,0.026 0,0.039 l 0,0.1148 0,3.9584 c -0.00913,0.7514 0.962812,0.7514 0.953685,0 l 0,-3.9584 0.491463,0 0,10.2347 c -0.01173,0.9661 1.237895,0.9661 1.226168,0 l 0,-6.2782 0.606984,0 0,6.2782 c -0.01162,0.9659 1.237788,0.9659 1.226169,0 l 0,-10.2347 0.541489,0 0,3.9584 c -0.0092,0.7514 0.962855,0.7514 0.953685,0 l 0,-4.0735 0,-0.7235 c 0,-0.6658 -0.460553,-1.2024 -1.032025,-1.2024 l -3.936445,0 z"/><ellipse style="opacity:1;fill:#3771c8;fill-opacity:1;stroke:none;stroke-width:.30000001;stroke-linecap:round;stroke-linejoin:round;stroke-miterlimit:4;stroke-dasharray:none;stroke-opacity:1" id="path4145" cx="13" cy="1037.566" rx="1.204" ry="1.204"/><rect style="opacity:1;fill:#fff;fill-opacity:1;stroke:gray;stroke-width:1.00000024;stroke-linecap:butt;stroke-linejoin:miter;stroke-miterlimit:4;stroke-dasharray:none;stroke-opacity:1" id="rect4144-4" width="7.99" height="11.997" x=".5" y="1039.865" ry="0"/><rect style="opacity:1;fill:#f60;fill-opacity:1;stroke:none;stroke-width:1;stroke-linecap:butt;stroke-linejoin:miter;stroke-miterlimit:4;stroke-dasharray:none;stroke-opacity:1" id="rect4152" width="9" height="2" x="0" y="1044.863" ry="0"/><rect style="opacity:1;fill:#f60;fill-opacity:1;stroke:none;stroke-width:1;stroke-linecap:butt;stroke-linejoin:miter;stroke-miterlimit:4;stroke-dasharray:none;stroke-opacity:1" id="rect4148" width="2" height="12.998" x="3.504" y="1039.364" ry=".001"/></g></svg>