<svg xmlns="http://www.w3.org/2000/svg" xmlns:svg="http://www.w3.org/2000/svg" id="svg4264" width="16" height="16" version="1.1" viewBox="0 0 16 16"><metadata id="metadata4269"/><g id="layer1" transform="translate(0,-1036.3621)"><path style="fill:#fff;fill-rule:evenodd;stroke:none;stroke-width:1px;stroke-linecap:butt;stroke-linejoin:miter;stroke-opacity:1" id="path4146" d="m 4.949747,1037.314 -4.33102905,4.5741 8.99351435,-0.044 z"/><path style="fill:#fd5;fill-rule:evenodd;stroke:red;stroke-width:1px;stroke-linecap:butt;stroke-linejoin:miter;stroke-opacity:1;fill-opacity:1" id="path4154" d="m 0.3437494,1041.7293 4.6562501,-4.3672 4.6523438,4.3633"/><rect style="opacity:1;fill:#fd5;fill-opacity:1;stroke:red;stroke-width:1.00000024;stroke-linecap:butt;stroke-linejoin:miter;stroke-miterlimit:4;stroke-dasharray:none;stroke-opacity:1" id="rect4144" width="8.999" height="9.996" x=".5" y="1041.866" ry="0"/><path style="color:#000;font-style:normal;font-variant:normal;font-weight:400;font-stretch:normal;font-size:medium;line-height:normal;font-family:Sans;text-indent:0;text-align:start;text-decoration:none;text-decoration-line:none;letter-spacing:normal;word-spacing:normal;text-transform:none;direction:ltr;block-progression:tb;writing-mode:lr-tb;baseline-shift:baseline;text-anchor:start;display:inline;overflow:visible;visibility:visible;fill:#3771c8;fill-opacity:1;stroke:none;stroke-width:45;marker:none;enable-background:accumulate" id="path3772" d="m 11.031468,1039.3622 c -0.571473,0 -1.031173,0.5365 -1.031173,1.2025 l 0,0.6846 c -3.917e-4,0.013 -3.917e-4,0.026 0,0.039 l 0,0.1148 0,3.9584 c -0.00913,0.7514 0.962812,0.7514 0.953685,0 l 0,-3.9584 0.491463,0 0,10.2347 c -0.01173,0.9661 1.237895,0.9661 1.226168,0 l 0,-6.2782 0.606984,0 0,6.2782 c -0.01162,0.9659 1.237788,0.9659 1.226169,0 l 0,-10.2347 0.541489,0 0,3.9584 c -0.0092,0.7514 0.962855,0.7514 0.953685,0 l 0,-4.0735 0,-0.7235 c 0,-0.6658 -0.460553,-1.2024 -1.032025,-1.2024 l -3.936445,0 z"/><ellipse style="opacity:1;fill:#3771c8;fill-opacity:1;stroke:none;stroke-width:.30000001;stroke-linecap:round;stroke-linejoin:round;stroke-miterlimit:4;stroke-dasharray:none;stroke-opacity:1" id="path4145" cx="13" cy="1037.566" rx="1.204" ry="1.204"/><path style="fill:none;fill-rule:evenodd;stroke:#000;stroke-width:.81929415px;stroke-linecap:round;stroke-linejoin:round;stroke-opacity:1" id="path4366" d="m 4.9371319,1042.8107 0,8.1636"/><path style="fill:none;fill-rule:evenodd;stroke:#000;stroke-width:.87107658px;stroke-linecap:round;stroke-linejoin:round;stroke-opacity:1" id="path4368" d="m 6.9932009,1044.0175 c 0,0 -4.0863752,-1.3424 -4.0863703,1.4593 4.9e-6,2.8016 4.0684222,0.2334 4.0684164,3.035 -5.6e-6,2.8017 -4.0578992,1.109 -4.0578992,1.109"/></g></svg>