<svg xmlns="http://www.w3.org/2000/svg" xmlns:svg="http://www.w3.org/2000/svg" id="svg4264" width="16" height="16" version="1.1" viewBox="0 0 16 16"><metadata id="metadata4269"/><g id="layer1" transform="translate(0,-1036.3621)"><path style="color:#000;font-style:normal;font-variant:normal;font-weight:400;font-stretch:normal;font-size:medium;line-height:normal;font-family:Sans;text-indent:0;text-align:start;text-decoration:none;text-decoration-line:none;letter-spacing:normal;word-spacing:normal;text-transform:none;direction:ltr;block-progression:tb;writing-mode:lr-tb;baseline-shift:baseline;text-anchor:start;display:inline;overflow:visible;visibility:visible;fill:#3771c8;fill-opacity:1;stroke:none;stroke-width:45;marker:none;enable-background:accumulate" id="path3772" d="m 11.031468,1039.3622 c -0.571473,0 -1.031173,0.5365 -1.031173,1.2025 l 0,0.6846 c -3.917e-4,0.013 -3.917e-4,0.026 0,0.039 l 0,0.1148 0,3.9584 c -0.00913,0.7514 0.962812,0.7514 0.953685,0 l 0,-3.9584 0.491463,0 0,10.2347 c -0.01173,0.9661 1.237895,0.9661 1.226168,0 l 0,-6.2782 0.606984,0 0,6.2782 c -0.01162,0.9659 1.237788,0.9659 1.226169,0 l 0,-10.2347 0.541489,0 0,3.9584 c -0.0092,0.7514 0.962855,0.7514 0.953685,0 l 0,-4.0735 0,-0.7235 c 0,-0.6658 -0.460553,-1.2024 -1.032025,-1.2024 l -3.936445,0 z"/><ellipse style="opacity:1;fill:#3771c8;fill-opacity:1;stroke:none;stroke-width:.30000001;stroke-linecap:round;stroke-linejoin:round;stroke-miterlimit:4;stroke-dasharray:none;stroke-opacity:1" id="path4145" cx="13" cy="1037.566" rx="1.204" ry="1.204"/><rect id="rect4217" width="8.004" height="10.004" x=".5" y="1041.859" ry="0" style="opacity:1;fill:#fff;fill-opacity:1;stroke:gray;stroke-width:1.00000024;stroke-linecap:butt;stroke-linejoin:miter;stroke-miterlimit:4;stroke-dasharray:none;stroke-opacity:1"/><path id="path4219" d="m 4.5000504,1042.8692 0,8.1636" style="fill:none;fill-rule:evenodd;stroke:#000;stroke-width:1.00000024;stroke-linecap:round;stroke-linejoin:round;stroke-miterlimit:4;stroke-dasharray:none;stroke-opacity:1"/><path id="path4221" d="m 6.5402884,1044.0562 c 0,0 -4.086376,-1.3424 -4.086371,1.4593 4e-6,2.8016 4.068423,0.2334 4.068417,3.035 -6e-6,2.8017 -4.0579,1.109 -4.0579,1.109" style="fill:none;fill-rule:evenodd;stroke:#000;stroke-width:1.00000024;stroke-linecap:round;stroke-linejoin:round;stroke-miterlimit:4;stroke-dasharray:none;stroke-opacity:1"/><path style="fill:green;fill-rule:evenodd;stroke:none;stroke-width:1.20000017;stroke-linecap:round;stroke-linejoin:round;stroke-miterlimit:4;stroke-dasharray:none;stroke-opacity:1" id="path4231" d="m 1.5019531,1038.3585 3.0000005,3 3.0000006,-3"/><rect style="opacity:1;fill:green;fill-opacity:1;stroke:none;stroke-width:.30000001;stroke-linecap:round;stroke-linejoin:round;stroke-miterlimit:4;stroke-dasharray:none;stroke-opacity:1" id="rect4269" width="2" height="2.984" x="3.502" y="1036.362"/></g></svg>