<svg xmlns="http://www.w3.org/2000/svg" xmlns:svg="http://www.w3.org/2000/svg" xmlns:xlink="http://www.w3.org/1999/xlink" id="svg6361" width="16" height="16" version="1.1"><defs id="defs3"><linearGradient id="linearGradient2256"><stop style="stop-color:#ff0202;stop-opacity:1" id="stop2258" offset="0"/><stop style="stop-color:#ff9b9b;stop-opacity:1" id="stop2260" offset="1"/></linearGradient><linearGradient id="linearGradient2248"><stop style="stop-color:#fff;stop-opacity:1" id="stop2250" offset="0"/><stop style="stop-color:#fff;stop-opacity:0" id="stop2252" offset="1"/></linearGradient><linearGradient id="linearGradient9647"><stop style="stop-color:#fff;stop-opacity:1" id="stop9649" offset="0"/><stop style="stop-color:#dbdbdb;stop-opacity:1" id="stop9651" offset="1"/></linearGradient><linearGradient id="linearGradient7895"><stop style="stop-color:#fff;stop-opacity:1" id="stop7897" offset="0"/><stop style="stop-color:#fff;stop-opacity:0" id="stop7899" offset="1"/></linearGradient><linearGradient id="linearGradient4981"><stop style="stop-color:#c00;stop-opacity:1" id="stop4983" offset="0"/><stop style="stop-color:#b30000;stop-opacity:1" id="stop4985" offset="1"/></linearGradient><linearGradient id="linearGradient15762"><stop id="stop15764" offset="0" style="stop-color:#fff;stop-opacity:1"/><stop id="stop15766" offset="1" style="stop-color:#fff;stop-opacity:0"/></linearGradient><linearGradient id="linearGradient14236"><stop id="stop14238" offset="0" style="stop-color:#ed4040;stop-opacity:1"/><stop id="stop14240" offset="1" style="stop-color:#a40000;stop-opacity:1"/></linearGradient><linearGradient id="linearGradient11780"><stop style="stop-color:#ff8b8b;stop-opacity:1" id="stop11782" offset="0"/><stop style="stop-color:#ec1b1b;stop-opacity:1" id="stop11784" offset="1"/></linearGradient><linearGradient id="linearGradient11014"><stop style="stop-color:#a80000;stop-opacity:1" id="stop11016" offset="0"/><stop style="stop-color:#c60000;stop-opacity:1" id="stop13245" offset="0"/><stop style="stop-color:#e50000;stop-opacity:1" id="stop11018" offset="1"/></linearGradient><linearGradient id="linearGradient15772" x1="5.737" x2="9.894" y1="5.386" y2="9.651" gradientTransform="matrix(-1,0,0,-1,31.7217,31.29079)" gradientUnits="userSpaceOnUse" xlink:href="#linearGradient15762"/><linearGradient id="linearGradient7901" x1="15.579" x2="32.166" y1="16.285" y2="28.394" gradientUnits="userSpaceOnUse" xlink:href="#linearGradient7895"/><linearGradient id="linearGradient2243" x1="23.996" x2="41.048" y1="20.105" y2="37.96" gradientTransform="matrix(0.988373,0,0,0.988373,0.279002,0.278984)" gradientUnits="userSpaceOnUse" xlink:href="#linearGradient4981"/><linearGradient id="linearGradient3640" x1="23.996" x2="41.048" y1="20.105" y2="37.96" gradientTransform="translate(0.5,-0.25)" gradientUnits="userSpaceOnUse" xlink:href="#linearGradient4981"/><linearGradient id="linearGradient3642" x1="15.737" x2="53.57" y1="12.504" y2="47.374" gradientTransform="translate(0.5,-0.25)" gradientUnits="userSpaceOnUse" xlink:href="#linearGradient11780"/><radialGradient id="radialGradient3644" cx="16.75" cy="10.666" r="21.25" fx="16.75" fy="10.666" gradientTransform="matrix(4.154957,0,0,3.198723,-52.34553,-21.75921)" gradientUnits="userSpaceOnUse" xlink:href="#linearGradient2248"/><radialGradient id="radialGradient3670" cx="16.75" cy="10.666" r="21.25" fx="16.75" fy="10.666" gradientTransform="matrix(1.5107836,0,0,1.1630874,-3.4443523,7.1988518)" gradientUnits="userSpaceOnUse" xlink:href="#linearGradient2248"/><linearGradient id="linearGradient3673" x1="15.737" x2="53.57" y1="12.504" y2="47.374" gradientTransform="matrix(0.36360993,0,0,0.36360993,15.770807,15.019815)" gradientUnits="userSpaceOnUse" xlink:href="#linearGradient11780"/><linearGradient id="linearGradient3676" x1="23.996" x2="41.048" y1="20.105" y2="37.96" gradientTransform="matrix(0.36360993,0,0,0.36360993,15.770807,15.019815)" gradientUnits="userSpaceOnUse" xlink:href="#linearGradient4981"/></defs><metadata id="metadata4"/><g id="layer1" transform="translate(-16.5,-15.75)"><path style="fill:url(#linearGradient3676);fill-opacity:1;fill-rule:evenodd;stroke:#860000;stroke-width:.36360994;stroke-linecap:butt;stroke-linejoin:miter;stroke-miterlimit:4;stroke-opacity:1;stroke-dasharray:none" id="path9480" d="m 21.439851,15.925901 6.212387,0 4.661942,4.761277 0,6.506307 -4.599156,4.369464 -6.337843,0 -4.699391,-4.668266 0,-6.251977 4.762061,-4.716805 z"/><path style="opacity:.81318683;fill:none;stroke:url(#linearGradient3673);stroke-width:.36361;stroke-linecap:butt;stroke-linejoin:miter;stroke-miterlimit:4;stroke-opacity:1" id="path9482" d="m 21.596076,16.292573 5.900628,0 4.453456,4.516899 0,6.222923 -4.311681,4.163636 -6.097091,0 -4.494645,-4.464807 0,-5.949789 4.549333,-4.488862 z"/><path style="opacity:.28977272;fill:url(#radialGradient3670);fill-opacity:1;fill-rule:evenodd;stroke:none" id="path2241" d="m 21.474938,16.019741 -4.704204,4.658752 0,6.181369 1.068104,1.056742 c 6.095027,0.02093 5.991261,-4.733723 14.385318,-4.317868 l 0,-2.874791 -4.613301,-4.704204 -6.135917,0 z"/><path style="font-size:48px;font-style:normal;font-variant:normal;font-weight:700;font-stretch:normal;fill:#fff;fill-opacity:1;stroke:none;font-family:Courier New" id="path3710" d="m 25.943363,19.795035 -0.48576,5.266662 c -0.02273,0.272712 -0.113634,0.485764 -0.272708,0.639159 -0.159085,0.147719 -0.357934,0.221578 -0.596547,0.221574 -0.238625,4e-6 -0.437473,-0.07385 -0.596548,-0.221574 -0.159084,-0.153395 -0.249986,-0.366447 -0.272707,-0.639159 L 23.22481,19.795035 c -0.02273,-0.267016 -0.03409,-0.44314 -0.03409,-0.528371 -4e-6,-0.443139 0.133509,-0.798226 0.400539,-1.065263 0.267022,-0.272696 0.599384,-0.40905 0.997087,-0.409061 0.392011,1.1e-5 0.721532,0.136365 0.988564,0.409061 0.272701,0.272718 0.409055,0.616443 0.409061,1.031175 -6e-6,0.08523 -0.01421,0.272717 -0.04261,0.562459"/><path style="font-size:48px;font-style:normal;font-variant:normal;font-weight:700;font-stretch:normal;fill:#fff;fill-opacity:1;stroke:none;font-family:Courier New" id="path3679" d="m 25.956884,28.469352 c -8e-6,0.319709 -0.119898,0.592186 -0.359672,0.817434 -0.239788,0.217984 -0.570394,0.326974 -0.99182,0.326975 -0.421439,-1e-6 -0.752046,-0.108991 -0.991821,-0.326975 -0.239786,-0.225248 -0.359677,-0.497725 -0.359671,-0.817434 -6e-6,-0.31244 0.116251,-0.577652 0.348772,-0.795636 0.239775,-0.225247 0.574015,-0.337871 1.00272,-0.337873 0.428692,2e-6 0.759298,0.108993 0.99182,0.326974 0.239774,0.217984 0.359664,0.486829 0.359672,0.806535"/></g></svg>