<svg xmlns="http://www.w3.org/2000/svg" xmlns:svg="http://www.w3.org/2000/svg" xmlns:xlink="http://www.w3.org/1999/xlink" id="svg2636" width="32" height="32" version="1.0"><defs id="defs2638"><linearGradient id="linearGradient3307"><stop id="stop3309" offset="0" style="stop-color:#888a85;stop-opacity:1"/><stop id="stop3311" offset="1" style="stop-color:#888a85;stop-opacity:0"/></linearGradient><linearGradient id="linearGradient3213" x1="36.202" x2="30.035" y1="37.667" y2="41.842" gradientTransform="translate(-12.085485,46.559377)" gradientUnits="userSpaceOnUse" xlink:href="#linearGradient3307"/><linearGradient id="linearGradient3315"><stop id="stop3317" offset="0" style="stop-color:white;stop-opacity:1"/><stop id="stop3319" offset="1" style="stop-color:white;stop-opacity:0"/></linearGradient><linearGradient id="linearGradient3211" x1="33.358" x2="33.358" y1="37.386" y2="49.241" gradientTransform="matrix(0.707107,-0.707107,0.707107,0.707107,24.376723,41.46818)" gradientUnits="userSpaceOnUse" xlink:href="#linearGradient3315"/><linearGradient id="linearGradient3355"><stop style="stop-color:#6f716c;stop-opacity:1" id="stop3357" offset="0"/><stop style="stop-color:#888a85;stop-opacity:0" id="stop3359" offset="1"/></linearGradient><linearGradient id="linearGradient3209" x1="38.046" x2="35.045" y1="44.886" y2="49.835" gradientTransform="matrix(0.707107,-0.707107,0.707107,0.707107,24.376723,41.46818)" gradientUnits="userSpaceOnUse" xlink:href="#linearGradient3355"/><linearGradient id="linearGradient3331"><stop id="stop3333" offset="0" style="stop-color:#d3d7cf;stop-opacity:1"/><stop id="stop3335" offset="1" style="stop-color:#d3d7cf;stop-opacity:0"/></linearGradient><linearGradient id="linearGradient3207" x1="35.198" x2="33.975" y1="46.094" y2="48.781" gradientTransform="matrix(0.707107,-0.707107,0.707107,0.707107,24.376723,41.46818)" gradientUnits="userSpaceOnUse" xlink:href="#linearGradient3331"/><linearGradient id="linearGradient3373"><stop style="stop-color:white;stop-opacity:1" id="stop3375" offset="0"/><stop style="stop-color:white;stop-opacity:0" id="stop3377" offset="1"/></linearGradient><linearGradient id="linearGradient3205" x1="34.715" x2="34.739" y1="37.277" y2="39.821" gradientUnits="userSpaceOnUse" xlink:href="#linearGradient3373"/></defs><metadata id="metadata2641"/><g id="layer1"><image id="image2612" width="24" height="24" x="-2.183" y="-1.446" xlink:href="C:\data\projekte\eclipse-3.5-ws\JOSM\images\upload.png"/><g style="display:inline" id="g3199" transform="translate(-56.944674,-22.388676)"><path style="opacity:.6;fill:url(#linearGradient3205);fill-opacity:1;fill-rule:nonzero;stroke:none;stroke-width:1;stroke-linecap:round;stroke-linejoin:round;marker:none;marker-start:none;marker-mid:none;marker-end:none;stroke-miterlimit:4;stroke-dasharray:none;stroke-dashoffset:1.4;stroke-opacity:1;visibility:visible;display:inline;overflow:visible" id="path3191" d="M 32.25,22.25 C 32.043286,22.280154 31.842792,22.343467 31.65625,22.4375 C 28.640502,23.872923 26.5625,26.95081 26.5625,30.5 C 26.5625,33.580722 28.174273,36.238535 30.5625,37.84375 L 30.5625,52.53125 C 30.564822,53.600338 31.430912,54.466428 32.5,54.46875 L 38.53125,54.46875 C 39.600338,54.466428 40.466428,53.600338 40.46875,52.53125 L 40.46875,37.84375 C 42.844043,36.232086 44.4375,33.567313 44.4375,30.5 C 44.4375,26.966258 42.379089,23.882338 39.375,22.4375 C 38.773479,22.149072 38.066011,22.189623 37.501386,22.544893 C 36.936761,22.900162 36.594042,23.520404 36.59375,24.1875 L 36.59375,29.09375 L 35.53125,29.46875 L 34.4375,29.09375 L 34.4375,24.1875 C 34.440787,23.627701 34.202308,23.093722 33.783242,22.72255 C 33.364176,22.351377 32.805304,22.179131 32.25,22.25 z" transform="matrix(0.707107,-0.707107,0.707107,0.707107,24.376723,41.46818)"/><path id="path3193" d="M 64.460851,35.590353 C 63.585317,38.056395 64.123523,40.909882 66.096036,42.882394 C 68.06855,44.854908 70.92203,45.393112 73.388077,44.517579 L 84.496141,55.625643 L 88.76088,51.360904 L 77.652816,40.25284 C 78.514983,37.792861 77.960949,34.948311 75.995534,32.982896 C 74.03012,31.017482 71.185564,30.463448 68.72559,31.325614 L 73.189203,35.789227 L 71.76394,38.628703 L 68.924464,40.053966 L 64.460851,35.590353 z" style="opacity:1;fill:url(#linearGradient3207);fill-opacity:1;fill-rule:nonzero;stroke:url(#linearGradient3209);stroke-width:1.00000036;stroke-linecap:round;stroke-linejoin:round;marker:none;marker-start:none;marker-mid:none;marker-end:none;stroke-miterlimit:4;stroke-dasharray:none;stroke-dashoffset:1.4;stroke-opacity:1;visibility:visible;display:inline;overflow:visible"/><path id="path3195" d="M 65.278443,37.82216 C 65.241287,39.398428 65.595444,40.967588 66.803143,42.175287 C 68.500555,43.872699 70.939563,44.319035 73.05662,43.567404 C 73.420655,43.440219 73.825401,43.534946 74.095184,43.810472 L 84.480516,54.195804 L 87.331041,51.345279 L 76.945709,40.959947 C 76.670183,40.690164 76.575456,40.285418 76.702641,39.921383 C 77.441691,37.81269 76.980699,35.382275 75.288427,33.690003 C 74.087903,32.489479 72.524408,32.117827 70.957396,32.143206 L 73.89631,35.08212 C 74.196292,35.387224 74.267489,35.850006 74.073087,36.231169 L 72.636776,39.081694 C 72.540784,39.272675 72.385815,39.427645 72.194834,39.523636 L 69.366406,40.93785 C 68.985243,41.132253 68.522461,41.061055 68.217357,40.761073 L 65.278443,37.82216 z" style="fill:none;fill-opacity:1;fill-rule:nonzero;stroke:url(#linearGradient3211);stroke-width:1.00000036;stroke-linecap:round;stroke-linejoin:miter;marker:none;marker-start:none;marker-mid:none;marker-end:none;stroke-miterlimit:4;stroke-dashoffset:1.4;stroke-opacity:1;visibility:visible;display:inline;overflow:visible"/><rect id="rect3197" width="2" height="15" x="22.415" y="84.059" rx="1" ry="1" transform="matrix(0.7071068,-0.7071068,0.7071068,0.7071068,0,0)" style="opacity:.4;fill:none;fill-opacity:1;fill-rule:nonzero;stroke:url(#linearGradient3213);stroke-width:1.00000012;stroke-linecap:round;stroke-linejoin:miter;marker:none;marker-start:none;marker-mid:none;marker-end:none;stroke-miterlimit:4;stroke-dasharray:none;stroke-dashoffset:1.4;stroke-opacity:1;visibility:visible;display:inline;overflow:visible"/></g></g></svg>