<svg xmlns="http://www.w3.org/2000/svg" xmlns:svg="http://www.w3.org/2000/svg" id="svg2" width="102" height="102" version="1.1"><defs id="defs4"><filter id="filter5685" width="1.459" height="2.675" x="-.229" y="-.838" color-interpolation-filters="sRGB"><feGaussianBlur id="feGaussianBlur5687" stdDeviation="2.292"/></filter><filter id="filter5347" color-interpolation-filters="sRGB"><feGaussianBlur id="feGaussianBlur5349" stdDeviation=".6"/></filter><filter id="filter5347-1" color-interpolation-filters="sRGB"><feGaussianBlur id="feGaussianBlur5349-7" stdDeviation=".6"/></filter></defs><metadata id="metadata7"/><g id="layer1" transform="translate(-354.56025,-169.09633)"><g id="g3033" transform="translate(353.12275,167.65883)"><path id="path3035" d="m 22.429134,2.4448819 60.023622,0 c 11.055118,0 19.984254,8.9291341 19.984254,19.9842521 l 0,60.023622 c 0,11.055118 -8.929136,19.984254 -19.984254,19.984254 l -60.023622,0 c -11.055118,0 -19.9842521,-8.929136 -19.9842521,-19.984254 l 0,-60.023622 c 0,-11.055118 8.9291341,-19.9842521 19.9842521,-19.9842521 z" style="fill:#a8fa8b;fill-opacity:1;fill-rule:evenodd;stroke:#000;stroke-width:1.98425198px;stroke-linecap:round;stroke-linejoin:miter;stroke-miterlimit:4;stroke-opacity:1;stroke-dasharray:none"/><path id="path3037" d="M 98.43307,63.248031 C 96.590551,71.858267 78.838582,62.681102 68.031496,65.232283 58.96063,67.393701 66.366141,91.062992 54.744094,87.838582 40.96063,84.047244 39.791338,66.259842 32.562992,58.003937 26.433071,50.952756 13.181102,49.748031 9.9921259,41.988189 6.4133858,33.271653 12.401575,24.377953 22.216535,24.590551 c 16.334646,0.318898 19.346457,15.69685 32.456693,16.61811 37.133858,2.586614 47.125982,6.200788 43.759842,22.03937 z" style="fill:#fae675;fill-opacity:1;fill-rule:nonzero;stroke:#037200;stroke-width:1.59448814px;stroke-linecap:round;stroke-linejoin:miter;stroke-miterlimit:4;stroke-opacity:1;stroke-dasharray:none"/></g></g></svg>