<svg xmlns="http://www.w3.org/2000/svg" xmlns:svg="http://www.w3.org/2000/svg" id="svg2" width="16" height="16" version="1.1"><metadata id="metadata7"/><g id="layer1" transform="translate(-354.57551,-255.08796)"><g id="g3033" transform="translate(353.12275,167.65883)"><path id="path3035" d="m 4.7439303,87.584796 9.4176517,0 c 1.734537,0 3.13551,1.400973 3.13551,3.135511 l 0,9.417653 c 0,1.73454 -1.400973,3.13551 -3.13551,3.13551 l -9.4176517,0 c -1.7345378,0 -3.1355107,-1.40097 -3.1355107,-3.13551 l 0,-9.417653 c 0,-1.734538 1.4009729,-3.135511 3.1355107,-3.135511 z" style="fill:#2c9e06;fill-opacity:1;fill-rule:evenodd;stroke:#000;stroke-width:.31132731px;stroke-linecap:round;stroke-linejoin:miter;stroke-miterlimit:4;stroke-opacity:1;stroke-dasharray:none"/><path style="fill:none;stroke:#000;stroke-width:2.5;stroke-linecap:butt;stroke-linejoin:miter;stroke-miterlimit:4;stroke-opacity:1;stroke-dasharray:none" id="path2993" d="m 6.1875,101.40625 c -2.0310146,-3.586912 -2.9025066,-7.40966 0,-12"/><path style="fill:#fff;fill-opacity:1;stroke:none" id="path3867" d="m 12,89 c 0,0.552285 -0.447715,1 -1,1 -0.552285,0 -1,-0.447715 -1,-1 0,-0.552285 0.447715,-1 1,-1 0.552285,0 1,0.447715 1,1 z" transform="translate(1.4375,1.4375)"/><path style="fill:#fff;fill-opacity:1;stroke:none" id="path3867-7" d="m 12,89 c 0,0.552285 -0.447715,1 -1,1 -0.552285,0 -1,-0.447715 -1,-1 0,-0.552285 0.447715,-1 1,-1 0.552285,0 1,0.447715 1,1 z" transform="translate(-1.5625,3.4375)"/><path style="fill:#fff;fill-opacity:1;stroke:none" id="path3867-7-6" d="m 12,89 c 0,0.552285 -0.447715,1 -1,1 -0.552285,0 -1,-0.447715 -1,-1 0,-0.552285 0.447715,-1 1,-1 0.552285,0 1,0.447715 1,1 z" transform="translate(2.4375,5.4375)"/><path style="fill:#fff;fill-opacity:1;stroke:none" id="path3867-7-1" d="m 12,89 c 0,0.552285 -0.447715,1 -1,1 -0.552285,0 -1,-0.447715 -1,-1 0,-0.552285 0.447715,-1 1,-1 0.552285,0 1,0.447715 1,1 z" transform="translate(-1.5625,7.4375)"/><path style="fill:#fff;fill-opacity:1;stroke:none" id="path3867-7-4" d="m 12,89 c 0,0.552285 -0.447715,1 -1,1 -0.552285,0 -1,-0.447715 -1,-1 0,-0.552285 0.447715,-1 1,-1 0.552285,0 1,0.447715 1,1 z" transform="translate(3.4375,11.4375)"/><path style="fill:#fff;fill-opacity:1;stroke:none" id="path3867-7-2" d="m 12,89 c 0,0.552285 -0.447715,1 -1,1 -0.552285,0 -1,-0.447715 -1,-1 0,-0.552285 0.447715,-1 1,-1 0.552285,0 1,0.447715 1,1 z" transform="translate(4.4375,8.4375)"/><path style="fill:#fff;fill-opacity:1;stroke:none" id="path3867-7-3" d="m 12,89 c 0,0.552285 -0.447715,1 -1,1 -0.552285,0 -1,-0.447715 -1,-1 0,-0.552285 0.447715,-1 1,-1 0.552285,0 1,0.447715 1,1 z" transform="translate(4.4375,2.4375)"/></g></g></svg>