<svg xmlns="http://www.w3.org/2000/svg" xmlns:svg="http://www.w3.org/2000/svg" id="svg2" width="104.88" height="104.88" version="1.1"><defs id="defs4"><filter id="filter5685" width="1.459" height="2.675" x="-.229" y="-.838" color-interpolation-filters="sRGB"><feGaussianBlur id="feGaussianBlur5687" stdDeviation="2.292"/></filter><filter id="filter5347" color-interpolation-filters="sRGB"><feGaussianBlur id="feGaussianBlur5349" stdDeviation=".6"/></filter></defs><metadata id="metadata7"/><g id="layer1" transform="translate(-441.84125,-345.6225)"><rect style="opacity:.86386617;color:#000;fill:#000;fill-opacity:1;fill-rule:evenodd;stroke:#000;stroke-width:.54900002;stroke-linecap:round;stroke-linejoin:miter;stroke-miterlimit:4;stroke-opacity:1;stroke-dasharray:none;stroke-dashoffset:0;marker:none;visibility:visible;display:inline;overflow:visible;enable-background:accumulate" id="rect5622" width="61.367" height="38.891" x="449.42" y="403.92" rx="20" ry="20"/><rect style="color:#000;fill:#2c9e06;fill-opacity:1;fill-rule:evenodd;stroke:#000;stroke-width:2;stroke-linecap:round;stroke-linejoin:miter;stroke-miterlimit:4;stroke-opacity:1;stroke-dasharray:none;marker:none;visibility:visible;display:inline;overflow:visible;filter:url(#filter5347);enable-background:accumulate" id="rect3007" width="100" height="100" x="444.286" y="348.076" rx="20" ry="20"/><path style="color:#000;fill:#fff;fill-opacity:1;fill-rule:evenodd;stroke:#000;stroke-width:.54068196;stroke-miterlimit:4;stroke-opacity:1;stroke-dasharray:none;marker:none;visibility:visible;display:inline;overflow:visible;enable-background:accumulate" id="path5351" d="m 186.42856,207.71933 c 0,5.72009 -13.75125,10.35714 -30.71428,10.35714 -16.96303,0 -30.71429,-4.63705 -30.71429,-10.35714 0,-5.72009 13.75126,-10.35714 30.71429,-10.35714 16.96303,0 30.71428,4.63705 30.71428,10.35714 z" transform="matrix(0.88250467,0,0,0.84551904,349.48243,252.12946)"/><path style="opacity:.52788104;color:#000;fill:#000;fill-opacity:1;fill-rule:evenodd;stroke:#000;stroke-width:.54900002;stroke-linecap:round;stroke-linejoin:miter;stroke-miterlimit:4;stroke-opacity:1;stroke-dasharray:none;stroke-dashoffset:0;marker:none;visibility:visible;display:inline;overflow:visible;filter:url(#filter5685);enable-background:accumulate" id="path5627" d="m 78.034281,110.39494 c 0,1.81315 -5.370596,3.283 -11.995562,3.283 -6.624966,0 -11.995561,-1.46985 -11.995561,-3.283 0,-1.81315 5.370595,-3.28299 11.995561,-3.28299 6.624966,0 11.995562,1.46984 11.995562,3.28299 z" transform="matrix(1.9338771,0,0,1.5693135,358.46983,254.64499)"/><path style="color:#000;fill:#fff;fill-opacity:1;fill-rule:evenodd;stroke:#555;stroke-width:2;stroke-opacity:1;marker:none;visibility:visible;display:inline;overflow:visible;enable-background:accumulate" id="path5353" d="m 84.285715,189.50504 c 0,7.49529 -6.076135,13.57142 -13.571428,13.57142 -7.495293,0 -13.571428,-6.07613 -13.571428,-13.57142 0,-7.4953 6.076135,-13.57143 13.571428,-13.57143 7.495293,0 13.571428,6.07613 13.571428,13.57143 z" transform="matrix(0.75728873,0,0,0.75728873,471.07502,266.88949)"/><g id="g5456" transform="matrix(1.0720344,0,0,1.0720344,413.11861,307.28044)" style="fill:#fff;fill-opacity:1;stroke:#fff;stroke-width:3;stroke-miterlimit:4;stroke-opacity:1;stroke-dasharray:none"><path style="fill:#fff;fill-opacity:1;stroke:#fff;stroke-width:3;stroke-miterlimit:4;stroke-opacity:1;stroke-dasharray:none" id="path5454" d="m 58.230403,46.766947 c -0.931851,0 -1.65788,1.006862 -1.65788,2.257538 l 0,61.553155 c 0,1.25068 0.726029,2.25754 1.65788,2.25754 0.93185,0 1.693153,-1.00686 1.693153,-2.25754 l 0,-41.411684 L 91.03525,57.066964 59.817734,48.283731 c -0.227923,-0.883475 -0.849617,-1.516784 -1.587331,-1.516784 z"/><path id="path5409" d="m 57.802599,46.423856 c -0.931851,0 -1.657879,1.006862 -1.657879,2.257538 l 0,61.553186 c 0,1.25067 0.726028,2.25753 1.657879,2.25753 0.931851,0 1.693154,-1.00686 1.693154,-2.25753 l 0,-41.411715 L 90.607447,56.723873 59.38993,47.940639 c -0.227923,-0.883475 -0.849616,-1.516783 -1.587331,-1.516783 z" style="fill:#fff;fill-opacity:1;stroke:#fff;stroke-width:3;stroke-miterlimit:4;stroke-opacity:1;stroke-dasharray:none"/></g></g></svg>