<svg xmlns="http://www.w3.org/2000/svg" xmlns:svg="http://www.w3.org/2000/svg" id="svg2" width="102" height="102" version="1.1"><defs id="defs4"><filter id="filter5685" width="1.459" height="2.675" x="-.229" y="-.838" color-interpolation-filters="sRGB"><feGaussianBlur id="feGaussianBlur5687" stdDeviation="2.292"/></filter><filter id="filter5347" color-interpolation-filters="sRGB"><feGaussianBlur id="feGaussianBlur5349" stdDeviation=".6"/></filter><filter id="filter5347-1" color-interpolation-filters="sRGB"><feGaussianBlur id="feGaussianBlur5349-7" stdDeviation=".6"/></filter></defs><metadata id="metadata7"/><g id="layer1" transform="translate(-405.10491,-254.89469)"><g id="g3119" transform="translate(403.66741,253.45719)"><path id="path3121" d="m 22.429134,2.4448819 60.023622,0 c 11.055118,0 19.984254,8.9291341 19.984254,19.9842521 l 0,60.023622 c 0,11.055118 -8.929136,19.984254 -19.984254,19.984254 l -60.023622,0 c -11.055118,0 -19.9842521,-8.929136 -19.9842521,-19.984254 l 0,-60.023622 c 0,-11.055118 8.9291341,-19.9842521 19.9842521,-19.9842521 z" style="fill:#a8fa8b;fill-opacity:1;fill-rule:evenodd;stroke:#000;stroke-width:1.98425198px;stroke-linecap:round;stroke-linejoin:miter;stroke-miterlimit:4;stroke-opacity:1;stroke-dasharray:none"/><path id="path3123" d="M 88.937008,67.429134 C 85.606299,75.57874 74.728346,94.464567 63.637795,95.066929 54.318897,95.562992 21.862205,72.070866 15.377953,61.901575 -0.21259842,37.38189 25.15748,14.846457 36.389764,15.980315 c 26.53937,2.728346 58.677165,36.496063 52.547244,51.448819 z" style="fill:#2c9e06;fill-opacity:1;fill-rule:nonzero;stroke:#037200;stroke-width:1.41732287px;stroke-linecap:round;stroke-linejoin:miter;stroke-miterlimit:4;stroke-opacity:1;stroke-dasharray:none"/><path id="path3125" d="m 59.988189,10.771654 c -0.673229,0 -1.240158,0.744094 -1.240158,1.665354 l 0,45.389763 c 0,0.92126 0.566929,1.665355 1.240158,1.665355 0.673228,0 1.240157,-0.744095 1.240157,-1.665355 l 0,-30.543307 22.925197,-8.8937 -22.996063,-6.484252 c -0.177165,-0.637796 -0.637795,-1.133858 -1.169291,-1.133858 z" style="fill:#000;fill-opacity:1;fill-rule:nonzero;stroke:#000;stroke-width:.67322832px;stroke-linecap:butt;stroke-linejoin:miter;stroke-miterlimit:4;stroke-opacity:1;stroke-dasharray:none"/><path id="path3127" d="m 59.669291,10.523622 c -0.673228,0 -1.204724,0.744094 -1.204724,1.665354 l 0,45.389764 c 0,0.92126 0.531496,1.665354 1.204724,1.665354 0.673228,0 1.240158,-0.744094 1.240158,-1.665354 l 0,-30.543307 22.925196,-8.929134 -22.996063,-6.448819 c -0.177165,-0.673228 -0.637795,-1.133858 -1.169291,-1.133858 z" style="fill:#000;fill-opacity:1;fill-rule:nonzero;stroke:#000;stroke-width:.67322832px;stroke-linecap:butt;stroke-linejoin:miter;stroke-miterlimit:4;stroke-opacity:1;stroke-dasharray:none"/></g></g></svg>