<svg xmlns="http://www.w3.org/2000/svg" xmlns:svg="http://www.w3.org/2000/svg" id="svg2" width="102" height="102" version="1.1"><defs id="defs4"><filter id="filter5685" width="1.459" height="2.675" x="-.229" y="-.838" color-interpolation-filters="sRGB"><feGaussianBlur id="feGaussianBlur5687" stdDeviation="2.292"/></filter><filter id="filter5347" color-interpolation-filters="sRGB"><feGaussianBlur id="feGaussianBlur5349" stdDeviation=".6"/></filter><filter id="filter5347-1" color-interpolation-filters="sRGB"><feGaussianBlur id="feGaussianBlur5349-7" stdDeviation=".6"/></filter></defs><metadata id="metadata7"/><g id="layer1" transform="translate(-418.73271,-164.50219)"><g id="g3102" transform="translate(417.29521,163.06469)"><path id="path3104" d="m 22.429134,2.4448819 60.023622,0 c 11.055118,0 19.984254,8.9291341 19.984254,19.9842521 l 0,60.023622 c 0,11.055118 -8.929136,19.984254 -19.984254,19.984254 l -60.023622,0 c -11.055118,0 -19.9842521,-8.929136 -19.9842521,-19.984254 l 0,-60.023622 c 0,-11.055118 8.9291341,-19.9842521 19.9842521,-19.9842521 z" style="fill:#f74c42;fill-opacity:1;fill-rule:evenodd;stroke:#000;stroke-width:1.98425198px;stroke-linecap:round;stroke-linejoin:miter;stroke-miterlimit:4;stroke-opacity:1;stroke-dasharray:none"/><path id="path3106" d="M 82.488189,8.1850393 C 97.405511,9.531496 89.8937,52.830708 88.61811,66.11811 87.661417,76.748031 84.153543,86.881889 77.77559,92.374015 70.653543,98.503937 59.173228,101.23228 56.267716,91.877952 51.448819,76.251968 66.437008,58.818897 66.437008,45.673228 c 0,-11.65748 -0.03543,-38.9409446 16.051181,-37.4881887 z" style="fill:#4c49f8;fill-opacity:1;fill-rule:nonzero;stroke:#037200;stroke-width:1.59448814px;stroke-linecap:round;stroke-linejoin:miter;stroke-miterlimit:4;stroke-opacity:1;stroke-dasharray:none"/></g></g></svg>