<svg xmlns="http://www.w3.org/2000/svg" xmlns:svg="http://www.w3.org/2000/svg" id="svg2" width="104.88" height="104.88" version="1.1"><defs id="defs4"><filter id="filter5685" width="1.459" height="2.675" x="-.229" y="-.838" color-interpolation-filters="sRGB"><feGaussianBlur id="feGaussianBlur5687" stdDeviation="2.292"/></filter><filter id="filter5347" color-interpolation-filters="sRGB"><feGaussianBlur id="feGaussianBlur5349" stdDeviation=".6"/></filter><filter id="filter5347-1" color-interpolation-filters="sRGB"><feGaussianBlur id="feGaussianBlur5349-7" stdDeviation=".6"/></filter></defs><metadata id="metadata7"/><g id="layer1" transform="translate(-277.27432,-131.38222)"><rect id="rect5790" width="100" height="100" x="279.714" y="133.822" rx="20" ry="20" style="color:#000;fill:#2c9e06;fill-opacity:1;fill-rule:evenodd;stroke:#000;stroke-width:2;stroke-linecap:round;stroke-linejoin:miter;stroke-miterlimit:4;stroke-opacity:1;stroke-dasharray:none;marker:none;visibility:visible;display:inline;overflow:visible;filter:url(#filter5347-1);enable-background:accumulate"/><path style="color:#000;fill:#503700;fill-opacity:1;stroke:#000;stroke-width:1;stroke-linecap:round;stroke-linejoin:miter;stroke-miterlimit:4;stroke-opacity:1;stroke-dasharray:none;stroke-dashoffset:0;marker:none;visibility:visible;display:inline;overflow:visible;enable-background:accumulate" id="path5792" d="m 290.92394,97.768028 c 0,6.136812 -12.55023,11.111682 -28.03173,11.111682 -15.4815,0 -28.03173,-4.97487 -28.03173,-11.111682 0,-6.13681 12.55023,-11.111678 28.03173,-11.111678 15.4815,0 28.03173,4.974868 28.03173,11.111678 z" transform="matrix(1.4514077,0,0,1.4514077,-50.247753,42.529045)"/><path style="color:#000;fill:#fff;fill-opacity:1;stroke:#000;stroke-width:1.15252054;stroke-linecap:round;stroke-linejoin:miter;stroke-miterlimit:4;stroke-opacity:1;stroke-dashoffset:0;marker:none;visibility:visible;display:inline;overflow:visible;enable-background:accumulate" id="path5794" d="m 364.793,193.48732 c -2.88887,2.80067 -13.81594,7.22002 -33.72239,7.22002 -19.90645,0 -29.72875,-4.76668 -34.07952,-7.7288 10.17698,-9.78482 20.35376,-13.26892 35.07698,-12.98505 16.51439,0.3184 25.99414,1.7677 32.72493,13.49383 z"/></g></svg>