<svg xmlns="http://www.w3.org/2000/svg" xmlns:svg="http://www.w3.org/2000/svg" xmlns:xlink="http://www.w3.org/1999/xlink" id="svg2" width="104.88" height="104.88" version="1.1"><defs id="defs4"><filter id="filter5685" width="1.459" height="2.675" x="-.229" y="-.838" color-interpolation-filters="sRGB"><feGaussianBlur id="feGaussianBlur5687" stdDeviation="2.292"/></filter><filter id="filter5347" color-interpolation-filters="sRGB"><feGaussianBlur id="feGaussianBlur5349" stdDeviation=".6"/></filter><filter id="filter5347-1" color-interpolation-filters="sRGB"><feGaussianBlur id="feGaussianBlur5349-7" stdDeviation=".6"/></filter><filter id="filter5347-4" color-interpolation-filters="sRGB"><feGaussianBlur id="feGaussianBlur5349-0" stdDeviation=".6"/></filter><linearGradient id="linearGradient5766" x1="135.737" x2="135.851" y1="786.595" y2="796.065" gradientTransform="matrix(1.1811017,0,0,1.1811017,28.593093,-46.764246)" gradientUnits="userSpaceOnUse" xlink:href="#linearGradient5732"/><linearGradient id="linearGradient5732"><stop style="stop-color:#594f03;stop-opacity:1" id="stop5734" offset="0"/><stop style="stop-color:#c5ad09;stop-opacity:1" id="stop5736" offset="1"/></linearGradient><filter id="filter5347-9" color-interpolation-filters="sRGB"><feGaussianBlur id="feGaussianBlur5349-4" stdDeviation=".6"/></filter></defs><metadata id="metadata7"/><g id="layer1" transform="translate(-512.8725,-65.435)"><rect style="color:#000;fill:#a8fa8b;fill-opacity:1;fill-rule:evenodd;stroke:#000;stroke-width:2;stroke-linecap:round;stroke-linejoin:miter;stroke-miterlimit:4;stroke-opacity:1;stroke-dasharray:none;marker:none;visibility:visible;display:inline;overflow:visible;filter:url(#filter5347-9);enable-background:accumulate" id="rect5718" width="100" height="100" x="515.308" y="67.889" rx="20" ry="20"/><path id="path5768" d="m 84.285715,189.50504 c 0,7.49529 -6.076135,13.57142 -13.571428,13.57142 -7.495293,0 -13.571428,-6.07613 -13.571428,-13.57142 0,-7.4953 6.076135,-13.57143 13.571428,-13.57143 7.495293,0 13.571428,6.07613 13.571428,13.57143 z" transform="matrix(1.0345505,0,0,1.0345505,492.44413,-104.28)" style="color:#000;fill:#fff;fill-opacity:1;fill-rule:evenodd;stroke:#555;stroke-width:2;stroke-opacity:1;marker:none;visibility:visible;display:inline;overflow:visible;enable-background:accumulate"/><g id="g5748" transform="matrix(1.1117036,0,0,1.1117036,427.01869,-645.74278)"><g id="g5760" transform="matrix(0.76159434,0,0,0.76159434,-8.9997756,93.980999)"><g id="g5744" transform="translate(39.648487,-23.233509)"><path style="color:#000;fill:#c5ad09;fill-opacity:1;fill-rule:evenodd;stroke:none;stroke-width:1;marker:none;visibility:visible;display:inline;overflow:visible;enable-background:accumulate" id="rect5722" d="m 129.29953,795.78345 13.63706,0 0,46.46702 -7.07107,10.85914 -6.56599,-10.85914 z"/><path style="color:#000;fill:url(#linearGradient5766);fill-opacity:1;fill-rule:evenodd;stroke:none;stroke-width:1;marker:none;visibility:visible;display:inline;overflow:visible;enable-background:accumulate" id="rect5725" d="m 124.625,786.4375 c 5.37116,6.14247 3.70118,4.28544 4.6875,9.40625 l 13.625,0 c 1.01613,-4.79547 -0.26824,-3.18928 4.65625,-9.40625 z"/></g><path id="path5750" d="m 164.01319,763.44177 c 5.35831,6.12778 3.71616,4.29966 4.6875,9.375 0.002,0.0122 -0.002,0.019 0,0.0312 l 0,46.40625 6.5625,10.875 7.0625,-10.875 0,-46.40625 0,-0.0312 c 1.00219,-4.75171 -0.25595,-3.17355 4.65625,-9.375 l -22.96875,0 z" style="color:#000;fill:none;stroke:#000;stroke-width:1;stroke-opacity:1;marker:none;visibility:visible;display:inline;overflow:visible;enable-background:accumulate"/></g></g></g></svg>