<svg xmlns="http://www.w3.org/2000/svg" xmlns:svg="http://www.w3.org/2000/svg" id="svg2" width="102" height="102" version="1.1"><defs id="defs4"><filter id="filter5685" width="1.459" height="2.675" x="-.229" y="-.838" color-interpolation-filters="sRGB"><feGaussianBlur id="feGaussianBlur5687" stdDeviation="2.292"/></filter><filter id="filter5347" color-interpolation-filters="sRGB"><feGaussianBlur id="feGaussianBlur5349" stdDeviation=".6"/></filter><filter id="filter5347-1" color-interpolation-filters="sRGB"><feGaussianBlur id="feGaussianBlur5349-7" stdDeviation=".6"/></filter></defs><metadata id="metadata7"/><g id="layer1" transform="translate(-266.69549,-181.18586)"><g id="g3085" transform="translate(265.25799,179.74836)"><path id="path3087" d="m 22.429134,2.4448819 60.023622,0 c 11.055118,0 19.984254,8.9291341 19.984254,19.9842521 l 0,60.023622 c 0,11.055118 -8.929136,19.984254 -19.984254,19.984254 l -60.023622,0 c -11.055118,0 -19.9842521,-8.929136 -19.9842521,-19.984254 l 0,-60.023622 c 0,-11.055118 8.9291341,-19.9842521 19.9842521,-19.9842521 z" style="fill:#f6ed31;fill-opacity:1;fill-rule:evenodd;stroke:#000;stroke-width:1.98425198px;stroke-linecap:round;stroke-linejoin:miter;stroke-miterlimit:4;stroke-opacity:1;stroke-dasharray:none"/><path id="path3089" d="M 93.437007,75.755905 C 87.484252,89.468504 48.720472,68.740157 36.496063,63.35433 26.751968,59.102362 18.177165,52.61811 14.988189,44.822834 c -3.57874,-8.681102 -2.586614,-20.444881 7.228346,-20.232283 16.334646,0.318898 28.169292,19.984252 40.641732,24.129921 11.090552,3.649607 37.027559,12.188977 30.57874,27.035433 z" style="fill:#4c49f8;fill-opacity:1;fill-rule:nonzero;stroke:#037200;stroke-width:1.59448814px;stroke-linecap:round;stroke-linejoin:miter;stroke-miterlimit:4;stroke-opacity:1;stroke-dasharray:none"/></g></g></svg>