<svg xmlns="http://www.w3.org/2000/svg" xmlns:svg="http://www.w3.org/2000/svg" id="svg109" width="14" height="14" version="1.1" viewBox="0 0 14 14"><metadata id="metadata115"/><path id="path4176" d="M 7,0 0,2 v 1.4496303 l 7,-2 7,2 V 2 Z M 3.3553221,3.5722656 c -0.155977,0.00622 -0.3109228,0.037107 -0.4648438,0.095703 v 6.2207031 c 0,0 2.6859724,-0.2259841 3.3243655,2.2041363 V 5.6894531 C 5.7277087,4.6741673 4.4471651,3.5287194 3.3553221,3.5722656 Z M 6.2148438,12.092808 C 4.5943077,10.853444 1.9475512,10.59006 1.9475512,10.59006 V 4.7578125 l -0.8890346,-0.3125 v 7.2077565 l 5.1563272,1.502749 h 1.5703124 l 5.2082668,-1.42484 V 4.4453125 l -0.915004,0.3125 v 6.1427945 l -4.2932628,1.192201 c -0.5238089,-0.19805 -1.1333135,-0.16281 -1.5703124,0 z M 11.161461,3.6679688 C 9.5959099,3.5851111 7.5560179,4.515858 6.6074219,5.3164062 V 11.76859 c 0.875892,-0.719038 2.678998,-1.534319 4.5540391,-1.723668 z" style="fill:#734a08;fill-opacity:1;stroke:none"/></svg>