<svg xmlns="http://www.w3.org/2000/svg" xmlns:svg="http://www.w3.org/2000/svg" style="clip-rule:evenodd;fill-rule:evenodd;image-rendering:optimizeQuality;shape-rendering:geometricPrecision;text-rendering:geometricPrecision" id="svg2" width="16" height="16" version="1.0" viewBox="0 0 16 16" xml:space="preserve"><metadata id="metadata18"/><defs id="defs4"><style id="style6" type="text/css">.str0,.str2{stroke:#84c225}.str2{stroke-width:.0762}.str0,.str1{stroke-width:.2}.str1{stroke:#fff}.fil0{fill:#84c225}.fil1{fill:#fff}.fil2{fill:#84c225;fill-rule:nonzero}</style></defs><path style="fill:#957f66;fill-opacity:1;stroke:none;stroke-width:.15841587;stroke-opacity:1" id="path10" d="M 2.9499601,0 13.05,0 C 14.232641,0 16,1.175998 16,2.95 l 0,10.100038 c 0,1.773923 -1.767359,2.949869 -2.95,2.949879 L 2.9499601,16 C 1.76732,15.999917 9.4020901e-5,14.82396 7.9971801e-5,13.049962 L 0,2.95 C 7.9971801e-5,1.175998 1.76732,0 2.95004,0 Z" class="fil0 str0"/><ellipse style="fill:#fff;stroke:#fff;stroke-width:.15841587" id="circle12" cx="8" cy="8" class="fil1 str1" rx="4.752" ry="4.752"/><path style="fill:#957f66;fill-opacity:1;fill-rule:nonzero;stroke:#957f66;stroke-width:.06035645;stroke-opacity:1" id="_1" d="M 7.9991286,5.884992 C 7.737583,5.884992 7.5230098,5.8078497 7.3569903,5.6519566 7.1893848,5.4960277 7.1055041,5.3065323 7.1055041,5.0802353 c 0,-0.2330354 0.083881,-0.4224987 0.2514862,-0.5700627 0.1660182,-0.1475641 0.3805941,-0.2213104 0.6421383,-0.2213104 0.2666126,0 0.4811882,0.073746 0.6471287,0.2213104 0.1643563,0.147564 0.2481591,0.3370594 0.2481591,0.5700627 0,0.2363598 -0.083802,0.4291476 -0.2481591,0.5800397 C 8.4803172,5.8094834 8.2657427,5.8849813 7.9991286,5.8849813 Z m 0.7661786,5.826056 -1.5508121,0 0,-5.0297034 1.5508121,0 0,5.0297034 z" class="fil2 str2"/></svg>