<svg xmlns="http://www.w3.org/2000/svg" xmlns:svg="http://www.w3.org/2000/svg" id="svg4182" width="16" height="16" version="1.1" viewBox="0 0 16 16"><metadata id="metadata4187"/><g id="layer1" transform="translate(0,-1036.3622)"><path style="fill:#fff;fill-rule:evenodd;stroke:none;stroke-width:1px;stroke-linecap:butt;stroke-linejoin:miter;stroke-opacity:1" id="path4756" d="m 6,1052.3622 0,-5 -2,0 0,-5 -1,0 -3,-2.5 3,-2.5 3,0 0,-1 4,0 0,1 2,0 0,5 1,0 3,2.5 -3,2.5 -3,0 0,5 z"/><path style="fill:#000;fill-rule:evenodd;stroke:none;stroke-width:1px;stroke-linecap:butt;stroke-linejoin:miter;stroke-opacity:1" id="path4754" d="m 7.0000001,1052.3622 0,-6 -2,0 0,-3 2,0 0,-2 -4,0 -2.0000001,-1.5 2.0000001,-1.5 4,0 0,-1 2,0 0,1 1.9999999,0 0,3 -1.9999999,0 0,2 3.9999999,0 2,1.5 -2,1.5 -3.9999999,0 0,6 z"/></g></svg>