<svg xmlns="http://www.w3.org/2000/svg" xmlns:svg="http://www.w3.org/2000/svg" id="svg2" width="16" height="16" space="preserve" version="1.0" viewBox="0 0 16 16" style="clip-rule:evenodd;fill-rule:evenodd;image-rendering:optimizeQuality;shape-rendering:geometricPrecision;text-rendering:geometricPrecision"><metadata id="metadata3"/><defs id="defs4"><style id="style6" type="text/css">.fil0{fill:#ef7900}</style></defs><rect style="fill:#fff;fill-opacity:1;stroke:none;stroke-width:12.73160267;stroke-miterlimit:4;stroke-dasharray:none;stroke-dashoffset:0;stroke-opacity:1" id="rect2159" width="6.374" height="13.037" x="5.022" y="1.738"/><g id="Layer_x0020_1" transform="scale(1.2706945)" style="fill:#00f"><path id="path10" d="m 6.29577,0 c 3.47651,0 6.29577,2.81926 6.29577,6.29577 0,3.47651 -2.81926,6.29577 -6.29577,6.29577 C 2.81926,12.59154 0,9.77228 0,6.29577 0,2.81926 2.81926,0 6.29577,0 Z m 0.946169,4.51008 v 5.59696 h 0.746244 v 0.666294 H 7.854945 4.603355 V 10.10704 H 5.349633 V 5.17637 H 4.603355 V 4.510076 h 0.133272 2.50531 z M 5.296309,2.75105 c 0,-0.239884 0.086649,-0.455316 0.259879,-0.646332 0.17323,-0.191016 0.397573,-0.286507 0.672959,-0.286507 h 0.133272 c 0.230974,0 0.444196,0.084405 0.639633,0.253214 0.195471,0.168775 0.293172,0.395328 0.293172,0.679625 0,0.239849 -0.084371,0.455282 -0.25318,0.646298 C 6.873235,3.588364 6.646716,3.683855 6.362419,3.683855 H 6.229147 C 5.998173,3.683855 5.784951,3.59945 5.589514,3.430675 5.394043,3.261866 5.296308,3.035313 5.296308,2.75105 Z" class="fil0" style="fill:#00f"/></g></svg>