<svg xmlns="http://www.w3.org/2000/svg" xmlns:svg="http://www.w3.org/2000/svg" style="clip-rule:evenodd;fill-rule:evenodd;image-rendering:optimizeQuality;shape-rendering:geometricPrecision;text-rendering:geometricPrecision" id="svg2" width="16" height="16" version="1.0" viewBox="0 0 16 16" xml:space="preserve"><metadata id="metadata18"/><defs id="defs4"><style id="style6" type="text/css">.str0,.str2{stroke:#84c225}.str2{stroke-width:.0762}.str0,.str1{stroke-width:.2}.str1{stroke:#fff}.fil0{fill:#84c225}.fil1{fill:#fff}.fil2{fill:#84c225;fill-rule:nonzero}</style></defs><g id="Ebene_x0020_1" transform="scale(0.8,0.8)" style="stroke:none"><metadata id="CorelCorpID_0Corel-Layer"/><path id="path10" d="M 3.74995,0 16.25,5e-5 C 17.7283,5.5913176e-5 20,1.5325 20,3.75 l 0,12.50005 c 0,2.2174 -2.2717,3.749894 -3.75,3.7499 L 3.74995,20 C 2.27165,19.9999 1.1774007e-4,18.46745 1e-4,16.24995 L 0,3.75 C 1e-4,1.5325 2.27165,0 3.75005,0 Z" class="fil0 str0" style="fill:#84c225;stroke:none;stroke-width:.2"/><circle id="circle12" cx="10" cy="10" r="6" class="fil1 str1" style="fill:#fff;stroke:none;stroke-width:.2"/><path id="_1" d="M 9.9989,7.3298 C 9.6687,7.3298 9.3978,7.2324 9.1882,7.0356 8.9766,6.8387 8.8707,6.5995 8.8707,6.3138 8.8707,6.0196 8.9766,5.7804 9.1882,5.5941 9.3978,5.4078 9.6687,5.3147 9.9989,5.3147 c 0.3366,0 0.6075,0.0931 0.817,0.2794 0.2075,0.1863 0.3133,0.4255 0.3133,0.7197 0,0.2984 -0.1058,0.5418 -0.3133,0.7323 -0.2095,0.1884 -0.4804,0.2837 -0.817,0.2837 z m 0.9673,7.3554 -1.9579,0 0,-6.35 1.9579,0 0,6.35 z" class="fil2 str2" style="fill:#84c225;fill-rule:nonzero;stroke:none;stroke-width:.0762"/></g></svg>