<svg xmlns="http://www.w3.org/2000/svg" xmlns:svg="http://www.w3.org/2000/svg" id="svg2" width="16" height="16" version="1.1" viewBox="0 0 16 16"><metadata id="metadata7"/><g id="layer1" transform="translate(0,-1037.3622)"><rect style="opacity:1;fill:#fff;fill-opacity:1;stroke:#4d4d4d;stroke-width:0;stroke-linecap:round;stroke-miterlimit:4;stroke-dasharray:none;stroke-opacity:1" id="rect4510" width="16" height="16" x="0" y="1037.362"/><rect style="fill:#fff;fill-opacity:1;stroke:none;stroke-width:1.03218126" id="rect2987-8" width="16" height="16" x="0" y="1037.362" ry="2"/><path style="fill:none;stroke:#000;stroke-width:1.053;stroke-linecap:round;stroke-linejoin:miter;stroke-miterlimit:4;stroke-dasharray:none;stroke-opacity:1" id="path3770-1-2" d="m 6,1044.3622 c 1,-1 3,-1 4,0"/><path style="fill:none;stroke:#000;stroke-width:1.19461477;stroke-linecap:round;stroke-linejoin:miter;stroke-miterlimit:4;stroke-dasharray:none;stroke-opacity:1" id="path3772-7-82" d="m 4,1041.9178 c 3,-1.3519 5,-1.3519 8,-0.042 v 0 0"/><path style="fill:none;stroke:#000;stroke-width:1.16850221;stroke-linecap:round;stroke-linejoin:miter;stroke-miterlimit:4;stroke-dasharray:none;stroke-opacity:1" id="path3774-4-8" d="m 2,1039.6532 c 3.9557886,-1.3576 7.9540285,-1.3094 12,0 v 0"/><g id="g2915" transform="matrix(0.01362649,-0.01015404,0.0136759,0.01011735,1.6490894,1050.3959)" style="fill:#000"><path id="path2917" d="M 459.05707,51.95872 C 490.15573,20.862187 447.1424,-19.792747 416.43947,10.914453 L 303.05173,124.2976 43.301333,55.63552 0,98.936853 214.08853,211.68853 l -86.58666,86.58454 -67.314137,-8.2656 -34.2464,34.24533 76.367997,40.1536 40.15254,76.368 34.24533,-34.24747 -7.872,-66.92053 86.58667,-86.5856 110.33066,212.68267 43.30134,-43.30134 -65.73547,-254.4896 z" style="fill:#000;stroke:none;stroke-width:1.06666672"/></g></g></svg>