<svg xmlns="http://www.w3.org/2000/svg" xmlns:svg="http://www.w3.org/2000/svg" id="svg2" width="64" height="64" version="1.1"><metadata id="metadata7"/><g id="layer1" transform="translate(0,-988.36218)"><rect style="opacity:1;fill:#fff;fill-opacity:1;stroke:none;stroke-width:30;stroke-linecap:square;stroke-linejoin:miter;stroke-miterlimit:4;stroke-dasharray:none;stroke-dashoffset:.60000002;stroke-opacity:1" id="rect4149" width="64" height="64" x="0" y="988.362"/><g id="g4903" transform="matrix(0.81915204,-0.57357644,0.57357644,0.81915204,-573.35193,215.96837)" style="fill:#666"><rect id="rect4897" width="4.193" height="22.828" x="37.969" y="1016.955" style="opacity:.98999999;color:#000;fill:#666;fill-opacity:1;stroke:none;stroke-width:2;marker:none;visibility:visible;display:inline;overflow:visible;enable-background:accumulate"/><rect style="opacity:.98999999;color:#000;fill:#666;fill-opacity:1;stroke:none;stroke-width:2;marker:none;visibility:visible;display:inline;overflow:visible;enable-background:accumulate" id="rect4899" width="4.193" height="22.828" x="-1025.807" y="28.652" transform="matrix(0,-1,1,0,0,0)"/><rect id="rect4901" width="4.193" height="13.045" x="-1040.016" y="33.543" transform="matrix(0,-1,1,0,0,0)" style="opacity:.98999999;color:#000;fill:#666;fill-opacity:1;stroke:none;stroke-width:2;marker:none;visibility:visible;display:inline;overflow:visible;enable-background:accumulate"/></g><g style="fill:#666" id="g4908" transform="matrix(0.93969262,0.34202014,-0.34202014,0.93969262,331.3511,52.747916)"><rect style="opacity:.98999999;color:#000;fill:#666;fill-opacity:1;stroke:none;stroke-width:2;marker:none;visibility:visible;display:inline;overflow:visible;enable-background:accumulate" id="rect4910" width="4.193" height="22.828" x="37.969" y="1016.955"/><rect id="rect4912" width="4.193" height="22.828" x="-1025.807" y="28.652" transform="matrix(0,-1,1,0,0,0)" style="opacity:.98999999;color:#000;fill:#666;fill-opacity:1;stroke:none;stroke-width:2;marker:none;visibility:visible;display:inline;overflow:visible;enable-background:accumulate"/><rect style="opacity:.98999999;color:#000;fill:#666;fill-opacity:1;stroke:none;stroke-width:2;marker:none;visibility:visible;display:inline;overflow:visible;enable-background:accumulate" id="rect4914" width="4.193" height="13.045" x="-1040.016" y="33.543" transform="matrix(0,-1,1,0,0,0)"/></g><g id="g4916" transform="translate(7.9199279,-24.458599)" style="fill:#666"><rect id="rect4918" width="4.193" height="22.828" x="37.969" y="1016.955" style="opacity:.98999999;color:#000;fill:#666;fill-opacity:1;stroke:none;stroke-width:2;marker:none;visibility:visible;display:inline;overflow:visible;enable-background:accumulate"/><rect style="opacity:.98999999;color:#000;fill:#666;fill-opacity:1;stroke:none;stroke-width:2;marker:none;visibility:visible;display:inline;overflow:visible;enable-background:accumulate" id="rect4920" width="4.193" height="22.828" x="-1025.807" y="28.652" transform="matrix(0,-1,1,0,0,0)"/><rect id="rect4922" width="4.193" height="13.045" x="-1040.016" y="33.543" transform="matrix(0,-1,1,0,0,0)" style="opacity:.98999999;color:#000;fill:#666;fill-opacity:1;stroke:none;stroke-width:2;marker:none;visibility:visible;display:inline;overflow:visible;enable-background:accumulate"/></g><g style="fill:#666" id="g4924" transform="matrix(0.76604444,0.64278761,-0.64278761,0.76604444,646.24586,190.17483)"><rect style="opacity:.98999999;color:#000;fill:#666;fill-opacity:1;stroke:none;stroke-width:2;marker:none;visibility:visible;display:inline;overflow:visible;enable-background:accumulate" id="rect4926" width="4.193" height="22.828" x="37.969" y="1016.955"/><rect id="rect4928" width="4.193" height="22.828" x="-1025.807" y="28.652" transform="matrix(0,-1,1,0,0,0)" style="opacity:.98999999;color:#000;fill:#666;fill-opacity:1;stroke:none;stroke-width:2;marker:none;visibility:visible;display:inline;overflow:visible;enable-background:accumulate"/><rect style="opacity:.98999999;color:#000;fill:#666;fill-opacity:1;stroke:none;stroke-width:2;marker:none;visibility:visible;display:inline;overflow:visible;enable-background:accumulate" id="rect4930" width="4.193" height="13.045" x="-1040.016" y="33.543" transform="matrix(0,-1,1,0,0,0)"/></g></g></svg>