<svg xmlns="http://www.w3.org/2000/svg" xmlns:cc="http://web.resource.org/cc/" xmlns:svg="http://www.w3.org/2000/svg" xmlns:xlink="http://www.w3.org/1999/xlink" id="svg2" width="48" height="48" x="0" y="0" enable-background="new 0 0 48 48" version="1.1" viewBox="0 0 48 48" xml:space="preserve"><radialGradient id="path3773_1_" cx="-235.453" cy="-26.932" r="8" gradientTransform="matrix(3.0027 0 0 -0.8163 730.9988 16.5525)" gradientUnits="userSpaceOnUse"><stop offset="0" style="stop-color:#000"/><stop offset="1" style="stop-color:#000;stop-opacity:0"/></radialGradient><path id="path3773" fill="url(#path3773_1_)" d="M48.021,38.536c0,3.606-10.755,6.53-24.021,6.53s-24.022-2.924-24.022-6.53s10.755-6.53,24.022-6.53S48.021,34.93,48.021,38.536z" enable-background="new" opacity=".5"/><radialGradient id="path1871_1_" cx="45" cy="38.759" r="19.5" gradientTransform="matrix(1 0 0 -1.0356 -21 62.2397)" gradientUnits="userSpaceOnUse"><stop offset="0" style="stop-color:#eeeeec"/><stop offset=".5" style="stop-color:#eeeeec"/><stop offset=".783" style="stop-color:#fff"/><stop offset="1" style="stop-color:#d3d7cf"/></radialGradient><path id="path1871" fill="url(#path1871_1_)" stroke="#888A85" stroke-linecap="round" stroke-linejoin="round" stroke-width="1" d="M24,3.5c-10.488,0-19,8.824-19,19.695c0,10.871,8.512,19.695,19,19.695c10.488,0,19-8.824,19-19.695C43,12.324,34.488,3.5,24,3.5z M24,13.866c4.968,0,9,4.179,9,9.329c0,5.149-4.032,9.329-9,9.329s-9-4.18-9-9.329C15,18.045,19.032,13.866,24,13.866z"/><linearGradient id="path2764_1_" x1="-171.067" x2="-172.639" y1="186.633" y2="188.205" gradientTransform="matrix(2 0 0 -2.0732 356.5 400.1307)" gradientUnits="userSpaceOnUse"><stop offset="0" style="stop-color:#ef2929"/><stop offset="1" style="stop-color:#ef2929;stop-opacity:.45"/></linearGradient><path id="path2764" fill="url(#path2764_1_)" d="M16.375,5.185c-4.343,1.983-7.836,5.604-9.75,10.107	c3.995-0.047,6.59,2.004,9.125,4.146c0.906-2.125,2.575-3.855,4.625-4.794C19.654,11.053,18.398,7.845,16.375,5.185z"/><linearGradient id="path2772_1_" x1="-171.019" x2="-169.327" y1="177.048" y2="178.74" gradientTransform="matrix(2 0 0 -2.0732 356.5 400.1307)" gradientUnits="userSpaceOnUse"><stop offset="0" style="stop-color:#ef2929"/><stop offset="1" style="stop-color:#ef2929;stop-opacity:.45"/></linearGradient><path id="path2772" fill="url(#path2772_1_)" d="M15.75,26.953c-3.042,0.777-6.083,0.982-9.125,4.146	c1.914,4.502,5.407,8.123,9.75,10.106c0.542-3.681,1.581-7.03,4-9.459C18.325,30.809,16.656,29.078,15.75,26.953z"/><linearGradient id="path2795_1_" x1="-161.826" x2="-159.701" y1="186.24" y2="188.366" gradientTransform="matrix(2 0 0 -2.0732 356.5 400.1307)" gradientUnits="userSpaceOnUse"><stop offset="0" style="stop-color:#ef2929"/><stop offset="1" style="stop-color:#ef2929;stop-opacity:.45"/></linearGradient><path id="path2795" fill="url(#path2795_1_)" d="M31.625,5.185c-1.949,2.538-3.608,5.364-4,9.459	c2.051,0.939,3.719,2.669,4.625,4.794c3.18-2.622,6.259-4.345,9.125-4.146C39.461,10.789,35.969,7.168,31.625,5.185z"/><linearGradient id="path2797_1_" x1="-161.343" x2="-162.793" y1="176.912" y2="178.362" gradientTransform="matrix(2 0 0 -2.0732 356.5 400.1307)" gradientUnits="userSpaceOnUse"><stop offset="0" style="stop-color:#ef2929"/><stop offset="1" style="stop-color:#ef2929;stop-opacity:.45"/></linearGradient><path id="path2797" fill="url(#path2797_1_)" d="M32.25,26.953c-0.906,2.125-2.574,3.855-4.625,4.794	c2.021,2.465,3.233,5.739,4,9.459c4.344-1.983,7.836-5.604,9.75-10.106C39.211,28.664,35.98,27.508,32.25,26.953z"/><path id="path3706" fill="none" stroke="#A40000" stroke-linecap="round" stroke-width="1" d="M15.75,19.438c0.906-2.125,2.575-3.855,4.625-4.794 M16.375,5.185c-4.343,1.983-7.836,5.604-9.75,10.107"/><path id="path3708" fill="none" stroke="#A40000" stroke-linecap="round" stroke-width="1" d="M41.375,15.292c-1.914-4.502-5.406-8.124-9.75-10.107 M27.625,14.644c2.051,0.939,3.719,2.669,4.625,4.794"/><path id="path3710" fill="none" stroke="#A40000" stroke-linecap="round" stroke-width="1" d="M32.25,26.953c-0.906,2.125-2.574,3.855-4.625,4.794 M31.625,41.206c4.344-1.983,7.836-5.604,9.75-10.106"/><path id="path3712" fill="none" stroke="#A40000" stroke-linecap="round" stroke-width="1" d="M20.375,31.747c-2.05-0.938-3.719-2.669-4.625-4.794 M6.625,31.1c1.914,4.502,5.407,8.123,9.75,10.106"/><radialGradient id="path3722_1_" cx="-367.907" cy="321.345" r="8.462" gradientUnits="userSpaceOnUse"><stop offset="0" style="stop-color:#fff"/><stop offset="1" style="stop-color:#fff;stop-opacity:.3393"/></radialGradient><path id="path3722" fill="none" stroke="url(#path3722_1_)" stroke-linecap="round" stroke-width=".429" d="M41.973,23.195c0,10.325-8.047,18.695-17.973,18.695S6.028,33.521,6.028,23.195S14.074,4.5,24,4.5S41.973,12.87,41.973,23.195z" enable-background="new" opacity=".4"/><radialGradient id="path3724_1_" cx="-364.636" cy="308.351" r="8.714" gradientUnits="userSpaceOnUse"><stop offset="0" style="stop-color:#fff"/><stop offset="1" style="stop-color:#fff;stop-opacity:0"/></radialGradient><path id="path3724" fill="none" stroke="url(#path3724_1_)" stroke-linecap="round" stroke-width=".776" d="M33.939,23.195c0,5.691-4.45,10.305-9.939,10.305s-9.939-4.613-9.939-10.305S18.511,12.891,24,12.891S33.939,17.504,33.939,23.195z" enable-background="new" opacity=".8"/></svg>