<svg xmlns="http://www.w3.org/2000/svg" xmlns:xlink="http://www.w3.org/1999/xlink" width="650" height="812" viewBox="42 119 650 812"><linearGradient id="a"><stop offset="0" stop-color="#fff"/><stop offset="1" stop-color="#fff" stop-opacity="0"/></linearGradient><linearGradient id="b" x1="11.5" x2="11.779" y1="20.58" y2="14.26" gradientTransform="matrix(31.442825 0 0 15.721413 163.64608 98.870782)" gradientUnits="userSpaceOnUse" xlink:href="#a"/><linearGradient id="c" x1="14.218" x2="17.859" y1="6.88" y2="3.957" gradientTransform="matrix(31.442825 0 0 14.809689 -182.22526 119.54828)" gradientUnits="userSpaceOnUse" xlink:href="#a"/><linearGradient id="d" x1="10.907" x2="30.875" y1="25.002" y2="36.127" gradientTransform="matrix(14.541559 0 0 15.073297 19.247073 148.75198)" gradientUnits="userSpaceOnUse"><stop offset="0" stop-color="#fff"/><stop offset="1" stop-color="#fff" stop-opacity=".495"/></linearGradient><linearGradient id="e" x1="6.727" x2="40.938" y1="32.162" y2="32.162" gradientTransform="matrix(15.721413 0 0 17.134408 -9.289589 61.732234)" gradientUnits="userSpaceOnUse"><stop offset="0" stop-color="#fce94f"/><stop offset=".21" stop-color="#ffec41"/><stop offset=".84" stop-color="#edd400"/><stop offset="1" stop-color="#c4a00f" stop-opacity=".941"/></linearGradient><linearGradient id="f" x1="31.63" x2="8.671" y1="41.792" y2="25.794" gradientTransform="matrix(15.721413 0 0 17.134408 -9.289589 79.385615)" gradientUnits="userSpaceOnUse"><stop offset="0" stop-color="#8f5902"/><stop offset="1" stop-color="#c17d11"/></linearGradient><linearGradient id="g" x1="12.887" x2="20.087" y1="4.36" y2="18.414" gradientTransform="matrix(15.401043 0 0 15.948654 -11.070064 104.56497)" gradientUnits="userSpaceOnUse"><stop offset="0" stop-color="#babdb6"/><stop offset=".5" stop-color="#eeeeec"/><stop offset="1" stop-color="#babdb6"/></linearGradient><linearGradient id="h" x1="19.251" x2="16.198" y1="9.664" y2="6.04" gradientTransform="matrix(15.401043 0 0 15.948654 -11.070064 104.56497)" gradientUnits="userSpaceOnUse"><stop offset="0" stop-color="#555753"/><stop offset="1" stop-color="#888a85"/></linearGradient><path fill="none" d="m-64.879845 115.85568h850v850h-850z"/><path fill="url(#g)" fill-rule="evenodd" stroke="url(#h)" stroke-width="37.987" d="m149.64097 462.77119v-122.55827c0-125.51812 84.12878-182.74178 209.22253-181.17424 125.77437 1.56753 208.8138 56.17792 208.8138 183.17269l-.20845 120.55982h-76.73795v-88.997c-2.06012-30.8929 8.56244-134.37251-130.98679-134.37251-140.51178 0-132.25265 103.8535-131.74913 134.98757v88.38194h-78.35452z"/><rect style="fill-rule:evenodd;stroke-width:37.986675;stroke-linecap:round;stroke-linejoin:round;fill:url(#e);stroke:url(#f)" width="550.185" height="377.423" x="92.866" y="464.391" rx="84.899" ry="73.867"/><rect style="fill:none;stroke-width:37.98671;stroke-linecap:round;stroke-linejoin:round;stroke-opacity:.601093;stroke:url(#d)" width="480.317" height="302.71" x="127.869" y="501.445" rx="46.14" ry="46.14"/><g fill-rule="evenodd"><path fill="url(#c)" d="m163.64595 347.00672c4.16875-92.93931 30.00738-162.92832 202.36234-168.86158-111.60142 15.72802-172.30435 48.31298-172.30435 145.47854 0 0-2.78392 120.42879-2.78392 120.42879h-27.27407z"/><path fill="url(#b)" d="m509.51706 287.52774h31.442825v157.21413h-31.442825z"/></g></svg>