<svg xmlns="http://www.w3.org/2000/svg" xmlns:cc="http://web.resource.org/cc/" xmlns:svg="http://www.w3.org/2000/svg" xmlns:xlink="http://www.w3.org/1999/xlink" id="svg11300" width="48" height="48" version="1.0"><defs id="defs3"><linearGradient id="linearGradient2790"><stop id="stop2792" offset="0" style="stop-color:#edd400;stop-opacity:1"/><stop id="stop2794" offset="1" style="stop-color:#fce94f;stop-opacity:1"/></linearGradient><linearGradient id="linearGradient5891"><stop style="stop-color:#fff;stop-opacity:1" id="stop5893" offset="0"/><stop style="stop-color:#fff;stop-opacity:0" id="stop5895" offset="1"/></linearGradient><linearGradient id="linearGradient5132"><stop style="stop-color:white;stop-opacity:1" id="stop5134" offset="0"/><stop style="stop-color:white;stop-opacity:0" id="stop5136" offset="1"/></linearGradient><linearGradient id="linearGradient8662"><stop style="stop-color:#000;stop-opacity:1" id="stop8664" offset="0"/><stop style="stop-color:#000;stop-opacity:0" id="stop8666" offset="1"/></linearGradient><radialGradient id="radialGradient2782" cx="24.837" cy="36.421" r="15.645" fx="24.837" fy="36.421" gradientTransform="matrix(1,0,0,0.536723,0,16.87306)" gradientUnits="userSpaceOnUse" xlink:href="#linearGradient8662"/><linearGradient id="linearGradient2784" x1="25.446" x2="25.446" y1="20.688" y2="16.375" gradientUnits="userSpaceOnUse" xlink:href="#linearGradient2790"/><linearGradient id="linearGradient2786" x1="21.677" x2="18.072" y1="29.705" y2="55.692" gradientUnits="userSpaceOnUse" xlink:href="#linearGradient5132"/><linearGradient id="linearGradient2788" x1="15.457" x2="25.561" y1="8.734" y2="13.526" gradientTransform="matrix(-1.430635,0,0,1.430157,50.64595,2.354766)" gradientUnits="userSpaceOnUse" xlink:href="#linearGradient5891"/></defs><metadata id="metadata4"/><g id="layer1"><g id="g2776" transform="matrix(-1,0,0,1,45.9611,0)"><path style="opacity:.12999998;color:#000;fill:url(#radialGradient2782);fill-opacity:1;fill-rule:evenodd;stroke:none;stroke-width:1;stroke-linecap:butt;stroke-linejoin:miter;marker:none;marker-start:none;marker-mid:none;marker-end:none;stroke-miterlimit:10;stroke-dasharray:none;stroke-dashoffset:0;stroke-opacity:1;visibility:visible;display:inline;overflow:visible" id="path8660" d="M 40.481863 36.421127 A 15.644737 8.3968935 0 1 1 9.1923885,36.421127 A 15.644737 8.3968935 0 1 1 40.481863 36.421127 z" transform="matrix(1.47967,0,0,-0.872353,-13.55145,72.5668)"/><path id="path1432" d="M 17.424821,41.893434 C 0.283744,32.442251 9.935604,12.409146 26.422371,12.56649 L 26.422371,4.4999994 L 42.5,18.558177 L 26.422371,33.301549 C 26.422371,33.301549 26.422371,24.572517 26.422371,24.572517 C 16.187754,24.157353 11.680698,31.839537 20.650045,37.935965 C 23.217139,39.680812 21.438823,44.106661 17.424821,41.893434 z" style="opacity:1;color:#000;fill:url(#linearGradient2784);fill-opacity:1;fill-rule:nonzero;stroke:#c4a000;stroke-width:.99999887;stroke-linecap:butt;stroke-linejoin:miter;marker:none;marker-start:none;marker-mid:none;marker-end:none;stroke-miterlimit:4;stroke-dasharray:none;stroke-dashoffset:0;stroke-opacity:1;visibility:visible;display:block;overflow:visible"/><path id="path4247" d="M 27.4375,6.6875 L 27.4375,12.5625 C 27.429067,13.111254 26.986254,13.554067 26.4375,13.5625 C 18.60766,13.487775 12.455124,18.243926 10.28125,24 C 8.1073762,29.756074 9.7034903,36.491213 17.9375,41.03125 C 18.787678,41.500018 19.403324,41.546979 19.8125,41.46875 C 20.221676,41.390521 20.480107,41.171685 20.65625,40.875 C 21.008536,40.281629 20.95643,39.367611 20.09375,38.78125 C 17.736506,37.179041 16.184817,35.430234 15.40625,33.625 C 14.627683,31.819766 14.666426,29.952664 15.4375,28.375 C 16.979649,25.219673 21.09153,23.344375 26.46875,23.5625 C 27.005266,23.587284 27.429756,24.025468 27.4375,24.5625 C 27.4375,24.5625 27.4375,28.496601 27.4375,31 L 41,18.5625 L 27.4375,6.6875 z" style="opacity:.61797755;color:#000;fill:none;fill-opacity:1;fill-rule:nonzero;stroke:url(#linearGradient2786);stroke-width:.99999893;stroke-linecap:butt;stroke-linejoin:miter;marker:none;marker-start:none;marker-mid:none;marker-end:none;stroke-miterlimit:4;stroke-dashoffset:0;stroke-opacity:1;visibility:visible;display:block;overflow:visible"/><path id="path4920" d="M 41.660227,18.605336 C 23.110128,15.475328 12.765166,20.754837 8.865084,29.04107 C 8.711319,16.398198 21.828491,12.721185 26.954933,13.108518 L 26.939308,5.6020321 L 41.660227,18.605336 z" style="opacity:.45;fill:url(#linearGradient2788);fill-opacity:1;fill-rule:evenodd;stroke:none;stroke-width:1px;stroke-linecap:butt;stroke-linejoin:miter;stroke-opacity:1"/></g></g></svg>