<svg xmlns="http://www.w3.org/2000/svg" xmlns:svg="http://www.w3.org/2000/svg" id="svg2" width="16" height="16" version="1.0"><metadata id="metadata7"/><g id="layer1" transform="translate(-7.6573291,-6.9863105)"><rect style="opacity:1;fill:#fff;fill-opacity:1;stroke:none;stroke-width:2;stroke-linecap:square;stroke-linejoin:miter;stroke-miterlimit:4;stroke-dasharray:none;stroke-dashoffset:.60000002;stroke-opacity:1" id="rect4136" width="16" height="16" x="7.657" y="6.986"/><g id="g3523" transform="matrix(0.79409201,0,0,0.75334086,3.2063056,3.6026141)"><path id="path3417" d="M 64.999978,265.18224 A 25,23.928572 0 0 1 52.486661,285.94441 25,23.928572 0 0 1 27.444365,285.90621 25,23.928572 0 0 1 15.000256,265.10597" transform="matrix(2.4344654e-4,-0.3229747,0.3466886,2.2679447e-4,-84.550573,28.281801)" style="opacity:1;fill:none;fill-opacity:1;stroke:#090505;stroke-width:2.9884491;stroke-miterlimit:4;stroke-dasharray:none;stroke-dashoffset:0;stroke-opacity:1"/><path id="path3423" d="M 64.999978,265.18224 A 25,23.928572 0 0 1 52.486661,285.94441 25,23.928572 0 0 1 27.444365,285.90621 25,23.928572 0 0 1 15.000256,265.10597" transform="matrix(0.00169302,0.3229709,-0.3466846,0.00157722,115.89082,2.0256076)" style="opacity:1;fill:none;fill-opacity:1;stroke:#090505;stroke-width:2.9884491;stroke-miterlimit:4;stroke-dasharray:none;stroke-dashoffset:0;stroke-opacity:1"/></g></g></svg>