<svg xmlns="http://www.w3.org/2000/svg" xmlns:svg="http://www.w3.org/2000/svg" id="svg2" width="308.12" height="308.12" version="1.0"><metadata id="metadata21"/><rect style="fill:#fff;fill-opacity:1;fill-rule:nonzero;stroke:none" id="rect2172" width="308.117" height="235.544" x="2.043" y="1.059"/><g id="g8184" transform="translate(-87.091039,-129.47691)"><path style="color:#000;fill:#000;fill-opacity:1;fill-rule:nonzero;stroke:#000;stroke-width:1;stroke-linecap:round;stroke-linejoin:miter;stroke-miterlimit:4;stroke-opacity:1;stroke-dasharray:none;stroke-dashoffset:0;marker:none;visibility:visible;display:inline;overflow:visible" id="path3703" d="m 240.1875,155.15625 c -72.85179,0 -121.78125,63.87446 -121.78125,101.15625 0,0 0.0937,0.34375 0.0937,0.34375 l 0,90.90625 240.84375,-1.8125 0,-89.09375 0.40625,-0.21875 c 0,-36.90234 -47.93698,-99.84709 -119.5625,-101.125 l 0,-0.15625 z"/><path style="color:#000;fill:none;stroke:#000;stroke-width:3;stroke-linecap:round;stroke-linejoin:miter;stroke-miterlimit:4;stroke-opacity:1;stroke-dasharray:none;stroke-dashoffset:0;marker:none;visibility:visible;display:inline;overflow:visible" id="path1882" d="m 381.915,346.95341 -288.069634,0.59395 1.781874,-105.72452 23.16436,-45.73477 39.20123,-39.79519 52.86226,-22.5704 53.45623,0 54.05018,22.5704 43.06195,40.68613 20.78853,46.03175 -0.29698,103.94265 z"/><path style="fill:none;stroke:#000;stroke-width:3;stroke-linecap:round;stroke-linejoin:miter;stroke-miterlimit:4;stroke-opacity:1;stroke-dasharray:none;stroke-dashoffset:0" id="path2780" d="m 97.438084,244.21377 20.438476,11.80016"/><path style="fill:none;stroke:#000;stroke-width:3;stroke-linecap:round;stroke-linejoin:miter;stroke-miterlimit:4;stroke-opacity:1;stroke-dasharray:none;stroke-dashoffset:0" id="path3667" d="m 119.27765,196.38505 17.21967,13.56026"/><path style="fill:none;stroke:#000;stroke-width:3;stroke-linecap:round;stroke-linejoin:miter;stroke-miterlimit:4;stroke-opacity:1;stroke-dasharray:none;stroke-dashoffset:0" id="path3670" d="m 158.75688,156.29288 11.75977,19.6331"/><path style="fill:none;stroke:#000;stroke-width:3;stroke-linecap:round;stroke-linejoin:miter;stroke-miterlimit:4;stroke-opacity:1;stroke-dasharray:none;stroke-dashoffset:0" id="path3672" d="m 212.09583,133.92681 1.67997,22.36607"/><path style="fill:none;stroke:#000;stroke-width:3;stroke-linecap:round;stroke-linejoin:miter;stroke-miterlimit:4;stroke-opacity:1;stroke-dasharray:none;stroke-dashoffset:0" id="path3674" d="m 96.178108,301.50351 20.159602,0"/><path style="fill:none;stroke:#000;stroke-width:3;stroke-linecap:round;stroke-linejoin:miter;stroke-miterlimit:4;stroke-opacity:1;stroke-dasharray:none;stroke-dashoffset:0" id="path3685" d="m 380.09252,244.84375 -20.43848,11.80016"/><path style="fill:none;stroke:#000;stroke-width:3;stroke-linecap:round;stroke-linejoin:miter;stroke-miterlimit:4;stroke-opacity:1;stroke-dasharray:none;stroke-dashoffset:0" id="path3687" d="m 358.25295,197.01503 -17.21967,13.56026"/><path style="fill:none;stroke:#000;stroke-width:3;stroke-linecap:round;stroke-linejoin:miter;stroke-miterlimit:4;stroke-opacity:1;stroke-dasharray:none;stroke-dashoffset:0" id="path3689" d="m 318.77372,156.92286 -11.75977,19.6331"/><path style="fill:none;stroke:#000;stroke-width:3;stroke-linecap:round;stroke-linejoin:miter;stroke-miterlimit:4;stroke-opacity:1;stroke-dasharray:none;stroke-dashoffset:0" id="path3691" d="m 265.43477,134.55679 -1.67997,22.36607"/><path style="fill:none;stroke:#000;stroke-width:3;stroke-linecap:round;stroke-linejoin:miter;stroke-miterlimit:4;stroke-opacity:1;stroke-dasharray:none;stroke-dashoffset:0" id="path3693" d="m 381.35249,302.13349 -20.1596,0"/></g><path style="fill:none;stroke:none" id="path3709" d="m 33.115632,134.39536 c 0.49958,0 0.49958,0 0,0 z"/><g id="g3792" transform="matrix(1.8831168,0,0,1.9689361,22.772979,-300.97041)"><path id="path3784" d="m 8.9465267,230.15741 17.8078503,57.51338 60.92159,0 19.682363,-57.51339 z" style="fill:#a40;stroke:none"/><path id="path3786" d="m 102.24602,292.46356 c 0,7.94094 -6.437402,14.37835 -14.378344,14.37835 -7.940942,0 -14.378348,-6.43741 -14.378348,-14.37835 0,-7.94094 6.437406,-14.37835 14.378348,-14.37835 7.940942,0 14.378344,6.43741 14.378344,14.37835 z" transform="translate(-14.697867,-5.1123011)" style="opacity:.98999999;color:#000;fill:#520;fill-opacity:1;stroke:none;stroke-width:8;marker:none;visibility:visible;display:inline;overflow:visible;enable-background:accumulate"/><path style="opacity:.98999999;color:#000;fill:#520;fill-opacity:1;stroke:none;stroke-width:8;marker:none;visibility:visible;display:inline;overflow:visible;enable-background:accumulate" id="path3790" d="m 102.24602,292.46356 c 0,7.94094 -6.437402,14.37835 -14.378344,14.37835 -7.940942,0 -14.378348,-6.43741 -14.378348,-14.37835 0,-7.94094 6.437406,-14.37835 14.378348,-14.37835 7.940942,0 14.378344,6.43741 14.378344,14.37835 z" transform="translate(-47.288787,-5.1123011)"/></g></svg>