<svg xmlns="http://www.w3.org/2000/svg" xmlns:svg="http://www.w3.org/2000/svg" id="svg2" width="16" height="16" version="1.1" viewBox="0 0 16 16"><metadata id="metadata7"/><g id="layer1" transform="translate(0,-1036.3622)"><path style="fill:#999;fill-rule:evenodd;stroke:none;stroke-width:1px;stroke-linecap:butt;stroke-linejoin:miter;stroke-opacity:1" id="path4134" d="m 0,1052.3622 c 1.8596782,-12.543 4.0209341,-10.1773 8,-14 6.346321,0.9354 6.954976,8.2678 8,14 z"/><path id="path4136" d="m 2.5,1052.3622 c 0.5577641,-3.4792 -1.2259077,-6.3044 5.4776786,-11.5 5.4727264,1.9539 5.1434704,6.471 5.4776784,11.5 z" style="fill:#666;fill-rule:evenodd;stroke:none;stroke-width:1px;stroke-linecap:butt;stroke-linejoin:miter;stroke-opacity:1"/><path style="fill:#333;fill-rule:evenodd;stroke:none;stroke-width:1px;stroke-linecap:butt;stroke-linejoin:miter;stroke-opacity:1" id="path4138" d="m 4.2857143,1052.3622 c 0.026772,-5.2211 1.4939385,-6.924 3.5133928,-8.9107 3.7403139,0.5778 2.6949029,5.752 3.5133929,8.9107 z"/><path id="path4140" d="m 6.0491072,1052.3622 c 0.5705131,-4.61 1.0022491,-4.8607 1.6495535,-5.0714 1.3148637,0.7535 1.3447478,3.0808 1.6495536,5.0714 z" style="fill:#000;fill-rule:evenodd;stroke:none;stroke-width:1px;stroke-linecap:butt;stroke-linejoin:miter;stroke-opacity:1"/></g></svg>