<svg xmlns="http://www.w3.org/2000/svg" xmlns:svg="http://www.w3.org/2000/svg" id="svg2" width="16" height="14" version="1.1" viewBox="0 0 16 14"><metadata id="metadata7"/><g id="layer1" transform="translate(0,-1038.3622)"><rect style="color:#000;clip-rule:nonzero;display:inline;overflow:visible;visibility:visible;opacity:1;isolation:auto;mix-blend-mode:normal;color-interpolation:sRGB;color-interpolation-filters:linearRGB;solid-color:#000;solid-opacity:1;fill:#fff;fill-opacity:1;fill-rule:evenodd;stroke:none;stroke-width:1.10000002;stroke-linecap:round;stroke-linejoin:miter;stroke-miterlimit:4;stroke-dasharray:none;stroke-dashoffset:0;stroke-opacity:1;color-rendering:auto;image-rendering:auto;shape-rendering:auto;text-rendering:auto;enable-background:accumulate" id="rect4144" width="16" height="14" x="0" y="1038.362" ry="0"/><path style="fill:none;fill-rule:evenodd;stroke:#700000;stroke-width:1.10000002;stroke-linecap:butt;stroke-linejoin:miter;stroke-miterlimit:4;stroke-dasharray:none;stroke-opacity:1" id="path4136" d="m 0,1049.9888 c 1,0 3.0357587,0.051 4.0575035,0 3.0714285,-0.1566 -0.3341419,-6 3.0915065,-6 l 1.6954144,0 c 3.4664896,0.045 0.048835,6.0248 3.1415936,6.0007 0.975145,-0.01 1.586699,-7e-4 4.013982,-7e-4"/><path id="path4142" d="m 0,1046.001 c 1,0 1.102723,0.051 2.1244678,0 2.5580357,0.067 -0.1555704,-5.0609 2.9575779,-5.0609 l 5.8293423,0 c 3.131669,0 0.205082,5.1304 3.163915,5.0616 0.974912,-0.023 -0.502586,-7e-4 1.924697,-7e-4" style="fill:none;fill-rule:evenodd;stroke:#700000;stroke-width:1.10000002;stroke-linecap:butt;stroke-linejoin:miter;stroke-miterlimit:4;stroke-dasharray:none;stroke-opacity:1"/></g></svg>