<svg xmlns="http://www.w3.org/2000/svg" xmlns:svg="http://www.w3.org/2000/svg" id="svg4264" width="16" height="16" version="1.1" viewBox="0 0 16 16"><metadata id="metadata4269"/><g id="layer1" transform="translate(0,-1036.3621)"><path id="XMLID_164_-0" d="m 16,1048.8152 c 0,0 -14,0.2721 -14,-1.4531 0,-2.0207 12.1696238,0.3841 12.0781268,-2.5625 -0.05623,-1.811 -5.8615235,-1.0431 -6.6140873,-2.4265 -0.4067771,-0.7478 -1.4158735,-0.309 -1.1307543,0.4893 0.6093778,1.5884 4.1135776,1.3598 6.1447586,1.9615 C 8.5588211,1045.1734 0,1044.3621 0,1047.3621 c 0,5 16,5 16,5 z" class="st0" style="fill:#208ece;fill-opacity:1"/><path style="fill:none;fill-rule:evenodd;stroke:#208ece;stroke-width:1.28;stroke-linecap:butt;stroke-linejoin:miter;stroke-miterlimit:4;stroke-dasharray:1.28800018,1.288;stroke-dashoffset:1.288;stroke-opacity:1" id="path4136" d="m 6.846187,1042.3319 c 0.2209709,-4.0659 4.341426,-7.8043 6.153815,-2.9698"/><path id="path4162" d="m 6.7568882,1042.3319 c -0.2209709,-4.0659 -4.341426,-7.8043 -6.15381503,-2.9698" style="fill:none;fill-rule:evenodd;stroke:#208ece;stroke-width:1.288;stroke-linecap:butt;stroke-linejoin:miter;stroke-miterlimit:4;stroke-dasharray:1.288,1.288;stroke-dashoffset:1.288;stroke-opacity:1"/></g></svg>