<svg xmlns="http://www.w3.org/2000/svg" xmlns:cc="http://web.resource.org/cc/" xmlns:svg="http://www.w3.org/2000/svg" id="svg2" width="451.429" height="451.429" version="1.0"><metadata id="metadata7"/><g id="layer1" transform="translate(-160,-318.07648)"><rect style="fill:#37c837;fill-opacity:1;stroke:none;stroke-width:10;stroke-miterlimit:4;stroke-dasharray:none;stroke-dashoffset:0;stroke-opacity:1" id="rect2160" width="451.429" height="451.429" x="160.714" y="320.219"/><path style="fill:#b3b3b3;fill-opacity:1;stroke:#000;stroke-width:2;stroke-miterlimit:4;stroke-dasharray:none;stroke-dashoffset:0;stroke-opacity:1" id="path2172" d="M 622.85713 452.36218 A 88.571426 88.571426 0 1 1 445.71428,452.36218 A 88.571426 88.571426 0 1 1 622.85713 452.36218 z" transform="matrix(0.5175438,0,0,0.5175438,52.055178,293.60206)"/><g id="g3200"><rect id="rect2170" width="271.429" height="48.571" x="220" y="678.076" style="fill:#00f;fill-opacity:1;stroke:#000;stroke-width:2;stroke-miterlimit:4;stroke-dasharray:none;stroke-dashoffset:0;stroke-opacity:1"/><path id="path3147" d="M 289.2898,678.07241 L 288.56734,725.93773" style="fill:none;fill-rule:evenodd;stroke:#000;stroke-width:10;stroke-linecap:butt;stroke-linejoin:miter;stroke-miterlimit:4;stroke-dasharray:none;stroke-opacity:1"/></g><g id="g3196" transform="translate(0.7142857,15)"><rect id="rect2168" width="271.429" height="48.571" x="220" y="580.934" style="fill:#00f;fill-opacity:1;stroke:#000;stroke-width:2;stroke-miterlimit:4;stroke-dasharray:none;stroke-dashoffset:0;stroke-opacity:1"/><path style="fill:none;fill-rule:evenodd;stroke:#000;stroke-width:10;stroke-linecap:butt;stroke-linejoin:miter;stroke-miterlimit:4;stroke-dasharray:none;stroke-opacity:1" id="path3149" d="M 375.71837,581.64384 L 374.99591,629.50916"/></g><g id="g3179" transform="matrix(0,1,-1,0,814.50505,12.362187)"><path style="fill:#00f;fill-opacity:1;stroke:#000;stroke-width:2;stroke-miterlimit:4;stroke-dasharray:none;stroke-dashoffset:0;stroke-opacity:1" id="path3173" d="M 365.71429 478.07648 A 62.857143 62.857143 0 1 1 240,478.07648 A 62.857143 62.857143 0 1 1 365.71429 478.07648 z" transform="translate(97.857143,-64.285714)"/><path style="fill:#999;fill-rule:evenodd;stroke:#636363;stroke-width:11.83791447;stroke-linecap:butt;stroke-linejoin:miter;stroke-miterlimit:4;stroke-dasharray:none;stroke-opacity:1" id="path3175" d="M 397.19799,418.6473 L 362.80198,463.21999"/><path style="fill:#b3b3b3;fill-opacity:1;stroke:#000;stroke-width:10;stroke-miterlimit:4;stroke-dasharray:none;stroke-dashoffset:0;stroke-opacity:1" id="path3177" d="M 217.14286 198.92859 A 4.6428571 4.6428571 0 1 1 207.85714,198.92859 A 4.6428571 4.6428571 0 1 1 217.14286 198.92859 z" transform="translate(188.57143,214.50505)"/></g><g id="g3184" transform="translate(-144.28571,-0.7142857)"><path id="path3186" d="M 365.71429 478.07648 A 62.857143 62.857143 0 1 1 240,478.07648 A 62.857143 62.857143 0 1 1 365.71429 478.07648 z" transform="translate(97.857143,-64.285714)" style="fill:#00f;fill-opacity:1;stroke:#000;stroke-width:2;stroke-miterlimit:4;stroke-dasharray:none;stroke-dashoffset:0;stroke-opacity:1"/><path id="path3188" d="M 397.19799,418.6473 L 362.80198,463.21999" style="fill:#999;fill-rule:evenodd;stroke:#636363;stroke-width:11.83791447;stroke-linecap:butt;stroke-linejoin:miter;stroke-miterlimit:4;stroke-dasharray:none;stroke-opacity:1"/><path id="path3190" d="M 217.14286 198.92859 A 4.6428571 4.6428571 0 1 1 207.85714,198.92859 A 4.6428571 4.6428571 0 1 1 217.14286 198.92859 z" transform="translate(188.57143,214.50505)" style="fill:#b3b3b3;fill-opacity:1;stroke:#000;stroke-width:10;stroke-miterlimit:4;stroke-dasharray:none;stroke-dashoffset:0;stroke-opacity:1"/></g><rect style="fill:#c8c4b7;fill-opacity:1;stroke:#000;stroke-width:2;stroke-miterlimit:4;stroke-dasharray:none;stroke-dashoffset:0;stroke-opacity:1" id="rect3192" width="67.143" height="137.143" x="342.857" y="45.714" transform="translate(160,318.07648)"/></g></svg>