<svg xmlns="http://www.w3.org/2000/svg" xmlns:svg="http://www.w3.org/2000/svg" id="svg2" width="64" height="61.371" version="1.1"><metadata id="metadata7"/><g id="layer1" transform="translate(-0.78495419,-991.01227)"><rect style="fill:#803300;fill-opacity:1;stroke:none" id="rect2816" width="39.022" height="22.088" x="5.203" y="1030.295"/><rect id="rect3596" width="49.33" height="3.681" x=".785" y="997.163" style="fill:#666;fill-opacity:1;stroke:none"/><rect style="fill:#666;fill-opacity:1;stroke:none" id="rect3598" width="18.765" height="3.681" x="997.163" y="-53.276" transform="matrix(0,1,-1,0,0,0)"/><rect id="rect3600" width="14.725" height="3.681" x="-64.785" y="-1014.921" transform="scale(-1,-1)" style="fill:#666;fill-opacity:1;stroke:none"/><rect id="rect3602" width="28.001" height="1.859" x="996.122" y="-23.34" transform="matrix(0,1,-1,0,0,0)" style="fill:#d45500;fill-opacity:1;stroke:none"/><rect id="rect3592" width="32.738" height="5.02" x="991.273" y="-43.489" transform="matrix(0,1,-1,0,0,0)" style="fill:#803300;fill-opacity:1;stroke:none"/><rect style="fill:#803300;fill-opacity:1;stroke:none" id="rect3604" width="32.738" height="5.02" x="991.012" y="-11.991" transform="matrix(0,1,-1,0,0,0)"/><rect style="fill:#d45500;fill-opacity:1;stroke:none" id="rect3606" width="11.193" height="7.809" x="20.265" y="994.542"/><rect style="fill:#520;fill-opacity:1;stroke:none" id="rect3590" width="47.121" height="7.363" x="1.521" y="1023.669"/></g></svg>