<svg xmlns="http://www.w3.org/2000/svg" xmlns:svg="http://www.w3.org/2000/svg" id="svg2" width="16" height="16" version="1.1"><metadata id="metadata7"/><g id="layer1" transform="translate(-350,-516.36218)"><rect style="fill:#fff;fill-opacity:1;stroke:none" id="rect2987" width="16" height="16" x="350" y="516.362"/><rect style="fill:#000;fill-opacity:1;stroke:none" id="rect2989" width="2" height="16" x="357" y="516.362"/><rect style="fill:#000;fill-opacity:1;stroke:none" id="rect2991" width="16" height="2" x="350" y="521.362"/><path style="fill:none;stroke:#000;stroke-width:1px;stroke-linecap:square;stroke-linejoin:miter;stroke-opacity:1" id="path2997" d="m 355,521.36218 c -2,-3 -2,-3 -2,-3"/><rect style="fill:#000;fill-opacity:1;stroke:none" id="rect2999" width="14" height="1" x="351" y="517.362"/><path style="fill:none;stroke:#000;stroke-width:1px;stroke-linecap:square;stroke-linejoin:miter;stroke-opacity:1" id="path3769" d="m 361,521.36218 c 2,-3 2,-3 2,-3"/><path style="fill:#000;fill-opacity:1;stroke:none" id="path3827" d="m 364,523.36218 a 1,1 0 1 1 -2,0 1,1 0 1 1 2,0 z" transform="translate(0,1)"/><path style="fill:#000;fill-opacity:1;stroke:none" id="path3829" d="m 354,523.36218 a 1,1 0 1 1 -2,0 1,1 0 1 1 2,0 z" transform="translate(0,1)"/></g></svg>