<svg xmlns="http://www.w3.org/2000/svg" xmlns:svg="http://www.w3.org/2000/svg" id="svg4264" width="16" height="16" version="1.1" viewBox="0 0 16 16"><metadata id="metadata4269"/><g id="layer1" transform="translate(0,-1036.3621)"><path style="opacity:1;fill:#2090cf;fill-opacity:1;stroke:none;stroke-width:.3;stroke-linecap:round;stroke-linejoin:round;stroke-miterlimit:4;stroke-dasharray:none;stroke-opacity:1" id="rect4191-9" d="M 0,3 0,16 l 16,2e-6 0,-2 c -0.03627,-2.94 -2,-4 -3,-4 l -7,0 0,-7 z" transform="translate(-4.7683724e-7,1036.3621)"/><path style="fill:#fff;fill-rule:evenodd;stroke:none;stroke-width:1px;stroke-linecap:butt;stroke-linejoin:miter;stroke-opacity:1" id="path4146" d="m 6,1052.362 0,-4 7,0 1,4 z"/><path style="opacity:1;fill:#fff;fill-opacity:1;stroke:none;stroke-width:.30000001;stroke-linecap:round;stroke-linejoin:round;stroke-miterlimit:4;stroke-dasharray:none;stroke-opacity:1" id="rect4188" d="m 6,1036.36 4,0 2,10 -6,0 z"/><path style="fill:none;stroke:#000;stroke-width:1px;stroke-linecap:butt;stroke-linejoin:miter;stroke-opacity:1" id="path4139" d="m 6.5,1036.8621 0,9.025 5.5,0 -2.075,-9.025 z"/><path style="color:#000;solid-color:#000;solid-opacity:1;fill:#000;fill-opacity:1;fill-rule:evenodd;stroke:none;stroke-width:1px;stroke-linecap:butt;stroke-linejoin:miter;stroke-miterlimit:4;stroke-opacity:1" id="path4141" d="m 6,12 0,4 1,0 0,-3 5.21,0 0.79 3 1,0 -1,-4 z" transform="translate(-4.7683724e-7,1036.3621)"/></g></svg>