<svg xmlns="http://www.w3.org/2000/svg" xmlns:svg="http://www.w3.org/2000/svg" id="svg4264" width="16" height="16" version="1.1" viewBox="0 0 16 16"><metadata id="metadata4269"/><g id="layer1" transform="translate(0,-1036.3621)"><rect id="rect25" width="16" height="16" x="0" y="1036.362" class="st1" style="fill:#2090cf"/><path style="fill:#ffbe34;fill-opacity:1;fill-rule:evenodd;stroke:none;stroke-width:1.00000012;stroke-linecap:butt;stroke-linejoin:miter;stroke-miterlimit:4;stroke-dasharray:none;stroke-opacity:1" id="path4269" d="m 0.99609325,1036.3721 c 0,0 0.98077825,0.3395 1.02554325,1.6313 0.044765,1.2919 0.9228601,3.1002 1.9199562,3.2805 1.3121978,0.2885 2.3430696,-0.6038 2.9414029,-0.4447 1.084137,0.2884 1.8723132,2.0093 2.8109623,2.023 1.5066211,0.022 1.5976531,-1.3712 2.3489551,-2.4316 1.020786,-1.3419 2.671879,-3.8495 3.972712,-4.0637 -5.006504,-0.01 -10.0130247,10e-4 -15.01953175,0.01 z"/><path style="fill:#ffbe34;fill-opacity:1;fill-rule:evenodd;stroke:none;stroke-width:1.00000012;stroke-linecap:butt;stroke-linejoin:miter;stroke-miterlimit:4;stroke-dasharray:none;stroke-opacity:1" id="path4269-65" d="m 0.99282615,1052.3621 c -0.66750384,0 15.01719585,0.01 15.01719585,0.01 0,0 -1.396317,0 -1.464844,-2.952 -0.06853,-2.9492 0.386364,-5.2771 -0.511295,-5.4574 -1.749698,-0.6672 -3.795847,2.7734 -5.3164032,2.4461 -1.3948011,-0.3001 -1.6417488,-2.0999 -3.1013646,-2.0809 -0.9133381,0.012 -1.993181,0.041 -2.611899,1.0568 -1.020786,1.3419 -0.9545927,3.056 -1.020428,4.9779 -0.085825,0.8225 -0.5216258,1.9245 -0.99096205,2.0034 z"/></g></svg>