<svg xmlns="http://www.w3.org/2000/svg" xmlns:svg="http://www.w3.org/2000/svg" id="svg2" width="100%" height="100%" version="1.1" viewBox="0 0 16 16"><metadata id="metadata8"/><rect id="canvas" width="16" height="16" x="0" y="0" style="fill:none;stroke:none;visibility:hidden"/><rect id="shield" width="16" height="16" x="0" y="0" rx="2" ry="2" style="fill:#fff;stroke:none"/><path id="clock" d="M 7,0 C 3.1458514,0 0,3.1458514 0,7 c 0,3.854149 3.1458514,7 7,7 3.854149,0 7,-3.145851 7,-7 C 14,3.1458514 10.854149,0 7,0 z m 0,2 c 2.7732686,0 5,2.2267316 5,5 0,2.7732686 -2.2267314,5 -5,5 C 4.2267316,12 2,9.7732686 2,7 2,4.2267316 4.2267316,2 7,2 z M 6.75,3.21875 A 0.750075,0.750075 0 0 0 6.59375,3.25 0.750075,0.750075 0 0 0 6,4 l 0,3 0,0.375 0.3125,0.21875 2,1.5 a 0.750075,0.750075 0 1 0 0.875,-1.1875 L 7.5,6.625 7.5,4 A 0.750075,0.750075 0 0 0 6.75,3.21875 z" transform="translate(1,1)" style="fill:#734a08;fill-opacity:1"/></svg>