<svg xmlns="http://www.w3.org/2000/svg" xmlns:svg="http://www.w3.org/2000/svg" id="svg2" width="100%" height="100%" version="1.1" viewBox="0 0 16 16"><metadata id="metadata8"/><rect id="canvas" width="16" height="16" x="0" y="0" style="fill:none;stroke:none;visibility:hidden"/><rect id="shield" width="16" height="16" x="0" y="0" rx="2" ry="2" style="fill:#fff;stroke:none"/><path id="courthouse" d="M 7,0 C 6,0 6,1 6,1 L 2.25,2 2.25,3 0,8 C 0,9 0.792008,10 2.5,10 4.207992,10 5,9 5,8 L 2.75,3 6,3 6,13 2,13 1,14 13,14 12,13 8,13 8,3 11.25,3 9,8 c 0,1 0.77294,2 2.5,2 C 13.22706,10 14,9 14,8 L 11.75,3 11.75,2 8,1 C 8,1 8,0 7,0 z M 2.5,4 4.25,8 0.75,8 z m 9,0 1.75,4 -3.5,0 z" transform="translate(1,1)" style="fill:#734a08;fill-opacity:1"/></svg>