<svg xmlns="http://www.w3.org/2000/svg" xmlns:svg="http://www.w3.org/2000/svg" id="svg4264" width="16" height="16" version="1.1" viewBox="0 0 16 16"><defs id="defs4266"><marker id="EmptyTriangleInL" orient="auto" refX="0" refY="0" style="overflow:visible"><path id="path4298" d="m 5.77,0 -8.65,5 0,-10 8.65,5 z" transform="matrix(-0.8,0,0,-0.8,4.8,0)" style="fill:#fff;fill-rule:evenodd;stroke:#000;stroke-width:1pt;stroke-opacity:1"/></marker><marker id="marker4778" orient="auto" refX="0" refY="0" style="overflow:visible"><path id="path4780" d="M 0,0 5,-5 -12.5,0 5,5 0,0 Z" transform="matrix(0.8,0,0,0.8,10,0)" style="fill:#000;fill-opacity:1;fill-rule:evenodd;stroke:#000;stroke-width:1pt;stroke-opacity:1"/></marker><marker id="marker4657" orient="auto" refX="0" refY="0" style="overflow:visible"><path id="path4659" d="M 0,0 5,-5 -12.5,0 5,5 0,0 Z" transform="matrix(0.8,0,0,0.8,10,0)" style="fill:#000;fill-opacity:1;fill-rule:evenodd;stroke:#000;stroke-width:1pt;stroke-opacity:1"/></marker><marker style="overflow:visible" id="InfiniteLineStart" orient="auto" refX="0" refY="0"><g id="g4391" transform="translate(-13,0)" style="fill:#000;fill-opacity:1;stroke:#000;stroke-opacity:1"><circle id="circle4393" cx="3" cy="0" r=".8" style="fill:#000;fill-opacity:1;stroke:#000;stroke-opacity:1"/><circle id="circle4395" cx="6.5" cy="0" r=".8" style="fill:#000;fill-opacity:1;stroke:#000;stroke-opacity:1"/><circle id="circle4397" cx="10" cy="0" r=".8" style="fill:#000;fill-opacity:1;stroke:#000;stroke-opacity:1"/></g></marker><marker id="Arrow2Lstart" orient="auto" refX="0" refY="0" style="overflow:visible"><path id="path4165" d="M 8.7185878,4.0337352 -2.2072895,0.01601326 8.7185884,-4.0017078 c -1.7454984,2.3720609 -1.7354408,5.6174519 -6e-7,8.035443 z" transform="matrix(1.1,0,0,1.1,1.1,0)" style="fill:#000;fill-opacity:1;fill-rule:evenodd;stroke:#000;stroke-width:.625;stroke-linejoin:round;stroke-opacity:1"/></marker><marker id="Arrow1Mstart" orient="auto" refX="0" refY="0" style="overflow:visible"><path id="path4153" d="M 0,0 5,-5 -12.5,0 5,5 0,0 Z" transform="matrix(0.4,0,0,0.4,4,0)" style="fill:#000;fill-opacity:1;fill-rule:evenodd;stroke:#000;stroke-width:1pt;stroke-opacity:1"/></marker><marker id="Arrow1Lstart" orient="auto" refX="0" refY="0" style="overflow:visible"><path id="path4147" d="M 0,0 5,-5 -12.5,0 5,5 0,0 Z" transform="matrix(0.8,0,0,0.8,10,0)" style="fill:#000;fill-opacity:1;fill-rule:evenodd;stroke:#000;stroke-width:1pt;stroke-opacity:1"/></marker></defs><metadata id="metadata4269"/><g id="layer1" transform="translate(0,-1036.3621)"><rect style="opacity:1;fill:#005cff;fill-opacity:1;stroke:none;stroke-width:.99999994;stroke-linecap:round;stroke-linejoin:round;stroke-miterlimit:4;stroke-dasharray:none;stroke-opacity:1" id="rect4284" width="16" height="16" x="0" y="1036.362" rx="2" ry="2"/><path style="color:#000;fill:#fff;fill-opacity:1;stroke:none;stroke-width:45;marker:none" id="path3772" d="m 2.3751718,1041.0393 0,4.1972 c -0.00799,0.6574 0.8424554,0.6574 0.8344694,0 l 0,-3.4636 0.4300275,0 0,8.9553 c -0.010264,0.8453 1.0831517,0.8453 1.0728906,0 l 0,-5.4934 0.5311078,0 0,5.4934 c -0.010167,0.8452 1.0830581,0.8452 1.0728915,0 l 0,-8.9553 0.4737998,0 0,3.4636 c -0.00805,0.6574 0.8424938,0.6574 0.8344701,0 l 0,-4.1974 c 0,-0.5826 -0.4029823,-1.0521 -0.9030169,-1.0521 l -3.4016003,10e-5 c -0.5980515,10e-5 -0.9450395,0.4694 -0.9450395,1.0522 z"/><ellipse style="opacity:1;fill:#fff;fill-opacity:1;stroke:none;stroke-width:.3;stroke-linecap:round;stroke-linejoin:round;stroke-miterlimit:4;stroke-dasharray:none;stroke-opacity:1" id="path4145" cx="5" cy="1038.416" rx="1.054" ry="1.054"/><path style="color:#000;solid-color:#000;solid-opacity:1;fill:#fff;fill-opacity:1;fill-rule:evenodd;stroke:none;stroke-width:1.00000024;stroke-linecap:round;stroke-linejoin:round;stroke-miterlimit:4;stroke-dasharray:none;stroke-dashoffset:0;stroke-opacity:1" id="path4296-9" d="m 12.494142,1045.3739 c -0.276115,0 -0.497334,0.2297 -0.49414,0.5058 l 0,2.4824 -1.503907,0 c -0.447994,2e-4 -0.6697598,0.5441 -0.349609,0.8575 l 2,2 c 0.195265,0.1952 0.511766,0.1952 0.707031,0 l 2,-2 c 0.374791,-0.3616 0.03953,-0.8621 -0.351562,-0.8594 l -1.501953,0 0,-2.4805 c 0.0032,-0.2807 -0.225157,-0.5091 -0.50586,-0.5058 z"/><path id="path4225" d="m 12.494142,1043.3503 c -0.276115,0 -0.497334,-0.2297 -0.49414,-0.5058 l 0,-2.4824 -1.503907,0 c -0.447994,-2e-4 -0.6697605,-0.5441 -0.349609,-0.8575 l 2,-2 c 0.195265,-0.1952 0.511766,-0.1952 0.707031,0 l 2,2 c 0.37479,0.3616 0.03953,0.8621 -0.351562,0.8594 l -1.501953,0 0,2.4805 c 0.0032,0.2807 -0.225157,0.5091 -0.50586,0.5058 z" style="color:#000;solid-color:#000;solid-opacity:1;fill:#fff;fill-opacity:1;fill-rule:evenodd;stroke:none;stroke-width:1.00000024;stroke-linecap:round;stroke-linejoin:round;stroke-miterlimit:4;stroke-dasharray:none;stroke-dashoffset:0;stroke-opacity:1"/></g></svg>