<svg xmlns="http://www.w3.org/2000/svg" xmlns:cc="http://web.resource.org/cc/" xmlns:svg="http://www.w3.org/2000/svg" id="svg2" width="1000" height="500" version="1.1"><path style="fill:#00f;fill-opacity:1;stroke:none;stroke-width:20;stroke-miterlimit:4;stroke-dasharray:none;stroke-opacity:1" id="path3172" d="M 563.20227,25.983145 A 14.747191,25.983147 0 0 1 592.69665,25.983146" transform="matrix(2.1904762,0,0,1.7567568,-413.45641,54.77528)"/><circle style="fill:#000;stroke:none" id="circle10" cx="748" cy="412" r="77" transform="matrix(-1,0,0,1,1000.5636,0)"/><metadata id="metadata15"/><path style="fill:#d40000;fill-rule:evenodd;stroke:none" id="path4" d="M 704.78238,86.8125 L 884.50113,99.21875 C 914.98082,101.52687 905.67809,93.253968 939.37613,182.6875 C 972.12634,266.58484 966.60398,237.38284 966.25113,281.625 L 966.25113,380.625 C 965.98019,406.5123 962.10399,412.88408 934.00113,413.09375 C 929.93537,282.42164 742.82184,281.9606 739.09488,413.84375 L 350.03238,414.09375 C 350.22007,380.0998 335.84464,354.1971 312.84488,335.40625 L 704.78238,335.09375 L 704.78238,233.15625 L 746.34488,233.15625 L 746.34488,127.8125 L 704.78238,127.8125 L 704.78238,86.8125 z M 781.06363,127.71875 L 782.62613,233.1875 L 915.25113,248.71875 C 938.76806,251.77859 940.13062,245.59051 931.53238,224.65625 L 905.93863,156.40625 C 899.51145,135.25078 899.36579,135.15941 881.12613,133.9375 L 781.06363,127.71875 z M 192.12613,335.5625 C 168.29458,354.67068 154.83272,381.84496 155.06363,414.1875 L 98.344882,414.25 L 33.751132,391.375 L 33.938632,335.59375 L 192.12613,335.5625 z"/><path style="fill:#d40000;stroke:none" id="rect6" d="M 705.46988,86.59375 L 705.46988,127.8125 L 590.43863,127.8125 L 590.43863,233.15625 L 705.46988,233.15625 L 705.46988,337.75 L 34.813632,337.75 L 34.813632,86.59375 L 546.90738,86.59375 L 546.90738,314.59375 L 565.15738,314.59375 L 565.15738,86.59375 L 705.46988,86.59375 z"/><circle style="fill:#000;stroke:none" id="circle8" cx="164" cy="412" r="77" transform="matrix(-1,0,0,1,1000.5636,0)"/><rect style="fill:#333;fill-opacity:1;stroke:none;stroke-width:20;stroke-miterlimit:4;stroke-dasharray:none;stroke-opacity:1" id="rect3160" width="223.315" height="203.652" x="58.989" y="112.36"/><rect id="rect3162" width="223.315" height="203.652" x="58.989" y="112.36" style="fill:gray;fill-opacity:1;stroke:none;stroke-width:20;stroke-miterlimit:4;stroke-dasharray:none;stroke-opacity:1"/><rect style="fill:gray;fill-opacity:1;stroke:none;stroke-width:20;stroke-miterlimit:4;stroke-dasharray:none;stroke-opacity:1" id="rect3166" width="223.315" height="203.652" x="296.348" y="110.955"/><path style="fill:none;fill-opacity:1;fill-rule:evenodd;stroke:#00f;stroke-width:10.76448822;stroke-linecap:butt;stroke-linejoin:miter;stroke-miterlimit:4;stroke-dasharray:none;stroke-opacity:1" id="path3174" d="M 853.93264,48.318081 L 853.93264,7.7252111"/><path id="path5118" d="M 871.91661,52.531564 L 894.93735,19.097648" style="fill:none;fill-opacity:1;fill-rule:evenodd;stroke:#00f;stroke-width:10.76448822;stroke-linecap:butt;stroke-linejoin:miter;stroke-miterlimit:4;stroke-dasharray:none;stroke-opacity:1"/><path style="fill:none;fill-opacity:1;fill-rule:evenodd;stroke:#00f;stroke-width:10.76448822;stroke-linecap:butt;stroke-linejoin:miter;stroke-miterlimit:4;stroke-dasharray:none;stroke-opacity:1" id="path5120" d="M 835.94859,51.12707 L 812.92785,17.693154"/></svg>