<svg xmlns="http://www.w3.org/2000/svg" xmlns:svg="http://www.w3.org/2000/svg" id="svg2" width="227.253" height="337.697" version="1.0"><metadata id="metadata7"/><g id="layer1" transform="translate(-148.27343,-206.07371)"><g id="g3265"><rect id="rect3179" width="33.413" height="16.479" x="245.194" y="207.42" style="fill:#ff0404;fill-opacity:1;fill-rule:nonzero;stroke:#000;stroke-width:2.69352913;stroke-miterlimit:4;stroke-dasharray:none;stroke-opacity:1"/><path id="path3171" d="M 317.18789,298.78839 A 51.51778,49.497475 0 1 1 214.15232,298.78839 A 51.51778,49.497475 0 1 1 317.18789,298.78839 z" transform="matrix(1.083936,0,0,1.0771579,-26.069401,-47.297547)" style="fill:#ff0404;fill-opacity:1;fill-rule:nonzero;stroke:#000;stroke-width:2.77638531;stroke-miterlimit:4;stroke-dasharray:none;stroke-opacity:1"/><g id="g3257" transform="translate(1.2662501,0)"><g id="g3233" transform="translate(0,-2.2397341)"><rect id="rect3272" width="24.716" height="39.002" x="149.201" y="343.652" style="fill:#ff0404;fill-opacity:1;fill-rule:nonzero;stroke:#000;stroke-width:3;stroke-miterlimit:4;stroke-dasharray:none;stroke-opacity:1"/><rect id="rect3199" width="37.999" height="90.447" x="170.719" y="317.93" style="fill:#ff0404;fill-opacity:1;fill-rule:nonzero;stroke:#000;stroke-width:3.42258501;stroke-miterlimit:4;stroke-dasharray:none;stroke-opacity:1"/></g><g id="g3237" transform="matrix(-1,0,0,-1,521.26748,724.06593)"><rect id="rect3239" width="24.716" height="39.002" x="149.201" y="343.652" style="fill:#ff0404;fill-opacity:1;fill-rule:nonzero;stroke:#000;stroke-width:3;stroke-miterlimit:4;stroke-dasharray:none;stroke-opacity:1"/><rect id="rect3241" width="37.999" height="90.447" x="170.719" y="317.93" style="fill:#ff0404;fill-opacity:1;fill-rule:nonzero;stroke:#000;stroke-width:3.42258501;stroke-miterlimit:4;stroke-dasharray:none;stroke-opacity:1"/></g></g><rect id="rect3159" width="110.001" height="249.402" x="206.899" y="278.638" style="fill:#ff0404;fill-opacity:1;fill-rule:nonzero;stroke:#000;stroke-width:3;stroke-miterlimit:4;stroke-dasharray:none;stroke-opacity:1"/><rect id="rect3233" width="159.664" height="19.253" x="182.068" y="523.517" style="fill:#ff0404;fill-opacity:1;fill-rule:nonzero;stroke:#000;stroke-width:2;stroke-miterlimit:4;stroke-dasharray:none;stroke-opacity:1"/><rect id="rect3215" width="144.046" height="19.349" x="189.877" y="268.911" style="fill:#ff0404;fill-opacity:1;fill-rule:nonzero;stroke:#000;stroke-width:1.90437293;stroke-miterlimit:4;stroke-dasharray:none;stroke-opacity:1"/></g></g></svg>