<svg xmlns="http://www.w3.org/2000/svg" xmlns:svg="http://www.w3.org/2000/svg" id="svg2" width="48" height="48" version="1.0"><metadata id="metadata7"/><g id="layer1"><rect style="fill:none;fill-opacity:.5;stroke:none;stroke-width:4;stroke-linecap:round;stroke-linejoin:round;stroke-miterlimit:4;stroke-dasharray:none;stroke-opacity:1" id="rect3169" width="48" height="48" x="0" y="0"/><path id="path3201" d="M 20,34 L 32,41 L 24,23 L 16,41" style="fill:none;fill-opacity:1;fill-rule:evenodd;stroke:#fff;stroke-width:12;stroke-linecap:round;stroke-linejoin:round;stroke-miterlimit:4;stroke-dasharray:none;stroke-opacity:1"/><path style="fill:none;fill-opacity:1;stroke:#fff;stroke-width:11;stroke-linecap:round;stroke-linejoin:round;stroke-miterlimit:4;stroke-dasharray:none;stroke-opacity:1" id="path3199" d="M 36.349644,11.405586 A 14,14 0 0 1 36.493432,24.317765" transform="matrix(-1,0,0,1,51.849644,0.1394818)"/><path style="fill:none;fill-opacity:1;stroke:#fff;stroke-width:12;stroke-linecap:round;stroke-linejoin:round;stroke-miterlimit:4;stroke-dasharray:none;stroke-opacity:1" id="path3177" d="M 39.064398,6.4214032 A 19,19 0 0 1 39.24004,29.346418" transform="matrix(-1,0,0,1,49.122899,-0.4214032)"/><path id="path3175" d="M 39.064398,6.4214032 A 19,19 0 0 1 39.24004,29.346418" transform="translate(-1.0658982,-0.4214032)" style="fill:none;fill-opacity:1;stroke:#fff;stroke-width:12;stroke-linecap:round;stroke-linejoin:round;stroke-miterlimit:4;stroke-dasharray:none;stroke-opacity:1"/><path id="path3173" d="M 36.349644,11.405586 A 14,14 0 0 1 36.493432,24.317765" transform="translate(-3.600083,0.1394818)" style="fill:none;fill-opacity:1;stroke:#fff;stroke-width:11;stroke-linecap:round;stroke-linejoin:round;stroke-miterlimit:4;stroke-dasharray:none;stroke-opacity:1"/><path id="path3171" d="M 29,24 A 5,5 0 1 1 19,24 A 5,5 0 1 1 29,24 z" transform="translate(0,-6)" style="fill:#fff;fill-opacity:1;stroke:#fff;stroke-width:8;stroke-linecap:round;stroke-linejoin:round;stroke-miterlimit:4;stroke-dasharray:none;stroke-opacity:1"/><path style="fill:#000;fill-opacity:1;stroke:none;stroke-width:2;stroke-linecap:round;stroke-linejoin:round;stroke-miterlimit:4;stroke-dasharray:none;stroke-opacity:1" id="path2385" d="M 29,24 A 5,5 0 1 1 19,24 A 5,5 0 1 1 29,24 z" transform="translate(0,-6)"/><path style="fill:none;fill-opacity:1;fill-rule:evenodd;stroke:#000;stroke-width:4;stroke-linecap:round;stroke-linejoin:round;stroke-miterlimit:4;stroke-dasharray:none;stroke-opacity:1" id="path3157" d="M 20,34 L 32,41 L 24,23 L 16,41"/><path style="fill:none;fill-opacity:1;stroke:#000;stroke-width:3;stroke-linecap:round;stroke-linejoin:round;stroke-miterlimit:4;stroke-dasharray:none;stroke-opacity:1" id="path3159" d="M 36.349644,11.405586 A 14,14 0 0 1 36.493432,24.317765" transform="translate(-3.600083,0.1394818)"/><path id="path3163" d="M 36.429757,11.557862 A 14,14 0 0 1 36.529644,24.24564" transform="matrix(-1,0,0,1,51.600083,0.1394818)" style="fill:none;fill-opacity:1;stroke:#000;stroke-width:3;stroke-linecap:round;stroke-linejoin:round;stroke-miterlimit:4;stroke-dasharray:none;stroke-opacity:1"/><path style="fill:none;fill-opacity:1;stroke:#000;stroke-width:4;stroke-linecap:round;stroke-linejoin:round;stroke-miterlimit:4;stroke-dasharray:none;stroke-opacity:1" id="path3165" d="M 39.064398,6.4214032 A 19,19 0 0 1 39.24004,29.346418" transform="translate(-1.0658982,-0.4214032)"/><path id="path3167" d="M 39.064398,6.4214032 A 19,19 0 0 1 39.24004,29.346418" transform="matrix(-1,0,0,1,49.24004,-0.3464176)" style="fill:none;fill-opacity:1;stroke:#000;stroke-width:4;stroke-linecap:round;stroke-linejoin:round;stroke-miterlimit:4;stroke-dasharray:none;stroke-opacity:1"/></g></svg>