<svg xmlns="http://www.w3.org/2000/svg" xmlns:svg="http://www.w3.org/2000/svg" xmlns:xlink="http://www.w3.org/1999/xlink" id="svg2" width="16" height="13" version="1.1" viewBox="0 0 16 13"><defs id="defs4"><linearGradient id="linearGradient4497"><stop style="stop-color:#4d4d4d;stop-opacity:1" id="stop4493" offset="0"/><stop style="stop-color:#4d4d4d;stop-opacity:0" id="stop4495" offset="1"/></linearGradient><linearGradient id="linearGradient4499" x1="6" x2="14" y1="1045.362" y2="1045.362" gradientTransform="matrix(0.25,0,0,1.3333396,10.5,-347.4605)" gradientUnits="userSpaceOnUse" xlink:href="#linearGradient4497"/><linearGradient id="linearGradient4499-3" x1="6" x2="14" y1="1045.362" y2="1045.362" gradientTransform="matrix(0.25,0,0,1.3333396,-13.5,-347.4605)" gradientUnits="userSpaceOnUse" xlink:href="#linearGradient4497"/><linearGradient id="linearGradient4499-1" x1="6" x2="14" y1="1045.362" y2="1045.362" gradientTransform="matrix(0.25,0,0,1.3333396,6.5,-347.4605)" gradientUnits="userSpaceOnUse" xlink:href="#linearGradient4497"/><linearGradient id="linearGradient4499-3-3" x1="6" x2="14" y1="1045.362" y2="1045.362" gradientTransform="matrix(0.25,0,0,1.3333396,-9.5,-347.4605)" gradientUnits="userSpaceOnUse" xlink:href="#linearGradient4497"/></defs><metadata id="metadata7"/><g id="layer1" transform="translate(0,-1040.3622)"><rect style="fill:#333" id="rect8" width="16" height="13" x="0" y="1040.362"/><rect style="fill:#f9f9f9" id="rect10" width="8" height="5" x="6" y="1048.362"/><path style="fill:red;stroke:none;stroke-width:1.05035317px;stroke-linecap:butt;stroke-linejoin:miter;stroke-opacity:1" id="path14" d="m 6,1048.9817 v -6.6195 h 8 v 6.6195 c -0.970728,-0.063 -1.223517,1.9426 -1.735589,1.3808 C 10,1047.8784 8.8663147,1049.9779 7.6889016,1050.3723 7.0531622,1050.5852 6.3802638,1049.7973 6,1048.9817"/><rect style="opacity:.48900003;fill:url(#linearGradient4499);fill-opacity:1;stroke:none;stroke-width:.57735157" id="rect16" width="2" height="8" x="12" y="1042.362"/><rect style="opacity:.48900003;fill:url(#linearGradient4499-3);fill-opacity:1;stroke:none;stroke-width:.57735157" id="rect16-9" width="2" height="8" x="-12" y="1042.362" transform="scale(-1,1)"/><rect style="opacity:.48900003;fill:url(#linearGradient4499-1);fill-opacity:1;stroke:none;stroke-width:.57735157" id="rect16-7" width="2" height="8" x="8" y="1042.362"/><rect style="opacity:.48900003;fill:url(#linearGradient4499-3-3);fill-opacity:1;stroke:none;stroke-width:.57735157" id="rect16-9-4" width="2" height="8" x="-8" y="1042.362" transform="scale(-1,1)"/><rect style="opacity:1;fill:#fff;stroke:none" id="rect4568" width="3" height="4" x="1" y="1042.362"/><path style="fill:#00f;stroke:none;stroke-width:1px;stroke-linecap:butt;stroke-linejoin:miter;stroke-opacity:1" id="path4574" d="m 1,1046.3622 1,-2 h 1 l 1,2 H 1"/><ellipse style="opacity:1;fill:#ff7f2a;stroke:none" id="path4572" cx="2.5" cy="1044.158" rx="1.063" ry="1"/><rect style="opacity:1;fill:#fff;stroke:none" id="rect4568-3" width="3" height="4" x="1" y="1047.362"/><path style="fill:#00f;stroke:none;stroke-width:1px;stroke-linecap:butt;stroke-linejoin:miter;stroke-opacity:1" id="path4574-6" d="m 1,1051.3622 1,-2 h 1 l 1,2 H 1"/><ellipse style="opacity:1;fill:#ff7f2a;stroke:none" id="path4572-2" cx="2.5" cy="1049.158" rx="1.063" ry="1"/></g></svg>