<svg xmlns="http://www.w3.org/2000/svg" xmlns:svg="http://www.w3.org/2000/svg" id="svg2226" width="15" height="16" version="1.0"><defs id="defs2228"><radialGradient id="XMLID_15_" cx="-41.26" cy="-47.872" r="599.072" fx="-41.26" fy="-47.872" gradientUnits="userSpaceOnUse"><stop style="stop-color:#e8d776" id="stop2960" offset="0"/><stop style="stop-color:#b39949" id="stop2962" offset=".414"/><stop style="stop-color:#856422" id="stop2964" offset=".808"/><stop style="stop-color:#734f13" id="stop2966" offset="1"/></radialGradient><radialGradient id="radialGradient2241" cx="-41.26" cy="-47.872" r="599.072" fx="-41.26" fy="-47.872" gradientUnits="userSpaceOnUse"><stop style="stop-color:#e8d776" id="stop2243" offset="0"/><stop style="stop-color:#b39949" id="stop2245" offset=".414"/><stop style="stop-color:#856422" id="stop2247" offset=".808"/><stop style="stop-color:#734f13" id="stop2249" offset="1"/></radialGradient></defs><metadata id="metadata2231"/><g id="layer1" transform="translate(-255.89842,-523.38464)"><path style="fill:#917400;fill-opacity:1;stroke:#000;stroke-width:.28981712" id="path2968" d="m 263.40397,539.34905 c 0.39791,-1.57039 8.28034,-0.52347 7.06217,-3.14078 -3.72823,-8.01034 0,-9.42235 0,-9.42235 -1.17889,-0.39259 -1.40932,-1.5704 -1.41466,-1.5704 -3.53042,1.5704 -5.64751,-1.57038 -5.64751,-1.57038 v 0 c 0,0 -2.08759,3.14078 -5.65861,1.57038 -0.003,0 -0.23577,1.17781 -1.41465,1.5704 0,0 3.72822,1.41201 0,9.42235 -1.21818,2.61731 6.6754,1.57039 7.07326,3.14078 z"/><path id="path3435" d="m 263.80073,527.68804 2.52618,7.29497 -6.61366,-4.50853 h 8.17494 l -6.61366,4.50853 z" style="fill:#00f;stroke:#000;stroke-width:.01040768"/></g></svg>