<svg xmlns="http://www.w3.org/2000/svg" xmlns:svg="http://www.w3.org/2000/svg" id="svg2226" width="15" height="16" version="1.0"><defs id="defs2228"><radialGradient id="XMLID_15_" cx="-41.26" cy="-47.872" r="599.072" fx="-41.26" fy="-47.872" gradientUnits="userSpaceOnUse"><stop style="stop-color:#e8d776" id="stop2960" offset="0"/><stop style="stop-color:#b39949" id="stop2962" offset=".414"/><stop style="stop-color:#856422" id="stop2964" offset=".808"/><stop style="stop-color:#734f13" id="stop2966" offset="1"/></radialGradient><radialGradient id="radialGradient2241" cx="-41.26" cy="-47.872" r="599.072" fx="-41.26" fy="-47.872" gradientUnits="userSpaceOnUse"><stop style="stop-color:#e8d776" id="stop2243" offset="0"/><stop style="stop-color:#b39949" id="stop2245" offset=".414"/><stop style="stop-color:#856422" id="stop2247" offset=".808"/><stop style="stop-color:#734f13" id="stop2249" offset="1"/></radialGradient></defs><metadata id="metadata2231"/><g id="layer1" transform="translate(-255.89842,-523.38464)"><path style="fill:#917400;fill-opacity:1;stroke:#000;stroke-width:.28981566" id="path2968" d="m 263.40457,539.34897 c 0.3979,-1.57039 8.28022,-0.52347 7.06207,-3.14079 -3.72818,-8.01036 0,-9.42237 0,-9.42237 -1.17886,-0.3926 -1.40929,-1.57041 -1.41463,-1.57041 -3.53038,1.57041 -5.64744,-1.57038 -5.64744,-1.57038 v 0 c 0,0 -2.08756,3.14079 -5.65855,1.57038 -0.003,0 -0.23575,1.17781 -1.4146,1.57041 0,0 3.72816,1.41201 0,9.42237 -1.21816,2.61732 6.67527,1.5704 7.07315,3.14079 z"/><path id="path3435" d="m 263.80132,527.68793 2.52615,7.295 -6.61357,-4.50855 h 8.17481 l -6.61356,4.50855 z" style="fill:#fff;fill-opacity:1;stroke:#000;stroke-width:.01040763"/></g></svg>