<svg xmlns="http://www.w3.org/2000/svg" xmlns:svg="http://www.w3.org/2000/svg" id="svg2" width="16" height="16" version="1.0"><metadata id="metadata2975"/><circle style="fill:red;fill-opacity:1;stroke:none;stroke-width:23.80400085;stroke-miterlimit:4;stroke-dasharray:none;stroke-dashoffset:0;stroke-opacity:1" id="path2207" cx="8" cy="8" r="8"/><g id="layer3" transform="matrix(48.14969,0,0,48.14969,-554.32782,-583.03307)" style="display:none;stroke:#757575;stroke-opacity:1"><rect style="display:inline;fill:none;stroke:#757575;stroke-width:.1;stroke-miterlimit:4;stroke-dasharray:none;stroke-opacity:1" id="rect4134" width="10" height="10" x="1" y="1"/><rect style="display:inline;fill:none;stroke:#757575;stroke-width:.1;stroke-miterlimit:4;stroke-dasharray:none;stroke-opacity:1" id="rect4136" width="8" height="8" x="2" y="2"/></g><path style="fill:#fff;fill-opacity:1;stroke:none;stroke-width:1px;stroke-linecap:butt;stroke-linejoin:miter;stroke-opacity:1" id="flowRoot3192" d="m 2.892698,4.432354 3.0875517,3.0934688 -3.0875517,3.0784892 0,-6.171958 z M 12.498103,3.8523395 8.6949924,7.6297547 C 8.5059363,7.8182558 8.2672598,7.9125064 7.9789848,7.9125064 c -0.2983128,0 -0.5469942,-0.099211 -0.7460553,-0.2977315 l -3.7735224,-3.7624354 9.0386959,0 z M 13.09486,10.604312 10.007308,7.5258228 13.09486,4.432354 l 0,6.171958 z M 3.4443941,11.184337 6.5469587,8.1058482 6.6812443,8.2397288 c 0.3580694,0.3470536 0.7906569,0.520575 1.2977405,0.520575 0.5070727,0 0.9346522,-0.1735214 1.2827276,-0.520575 l 0.1342746,-0.1338806 3.102116,3.0784888 -9.0537089,0 z m -1.3869653,0.832818 11.9027372,0 0,-9.0126129 -11.9027372,0 0,9.0126129 z"/></svg>