<svg xmlns="http://www.w3.org/2000/svg" xmlns:svg="http://www.w3.org/2000/svg" id="svg2" width="371.825" height="282.37" version="1.0"><metadata id="metadata2975"/><rect style="opacity:1;fill:#fff;fill-opacity:1;stroke:none;stroke-width:14.9296093;stroke-linecap:square;stroke-linejoin:miter;stroke-miterlimit:4;stroke-dasharray:none;stroke-dashoffset:.60000002;stroke-opacity:1" id="rect4152" width="356.895" height="267.44" x="7.465" y="7.465"/><g id="layer3" transform="matrix(48.14969,0,0,48.14969,-641.97653,-180.61862)" style="display:none;stroke:#757575;stroke-opacity:1"><rect style="display:inline;fill:none;stroke:#757575;stroke-width:.1;stroke-miterlimit:4;stroke-dasharray:none;stroke-opacity:1" id="rect4134" width="10" height="10" x="1" y="1"/><rect style="display:inline;fill:none;stroke:#757575;stroke-width:.1;stroke-miterlimit:4;stroke-dasharray:none;stroke-opacity:1" id="rect4136" width="8" height="8" x="2" y="2"/></g><path style="fill:red;fill-opacity:1;stroke:none;stroke-width:1px;stroke-linecap:butt;stroke-linejoin:miter;stroke-opacity:1" id="flowRoot3192" d="m 26.092697,44.73442 96.450613,96.91985 -96.450613,96.45059 0,-193.37044 z M 326.15176,26.56194 207.34817,144.91052 c -5.90607,5.90595 -13.3618,8.85885 -22.36722,8.85872 -9.3187,1.3e-4 -17.08725,-3.10919 -23.30568,-9.32798 L 43.795947,26.56194 l 282.355813,0 z m 18.64172,211.54292 -96.45061,-96.45059 96.45061,-96.91985 0,193.37044 z m -301.466783,18.17247 96.919843,-96.4506 4.19475,4.19474 c 11.18576,10.87326 24.69897,16.30983 40.53966,16.30972 15.84023,1.1e-4 29.19704,-5.43646 40.07045,-16.30972 l 4.19473,-4.19474 96.90563,96.4506 -282.825063,0 z M 0,282.37004 l 371.82467,0 L 371.82467,0 0,0 0,282.37004 Z"/></svg>