<svg xmlns="http://www.w3.org/2000/svg" xmlns:svg="http://www.w3.org/2000/svg" id="svg5365" width="13" height="16" version="1.1" viewBox="0 0 13 16"><g id="layer1" transform="translate(-138.84,-673.30001)"><rect style="color:#000;clip-rule:nonzero;display:inline;overflow:visible;visibility:visible;opacity:1;isolation:auto;mix-blend-mode:normal;color-interpolation:sRGB;color-interpolation-filters:linearRGB;solid-color:#000;solid-opacity:1;fill:#fff;fill-opacity:1;fill-rule:evenodd;stroke:none;stroke-width:1;stroke-linecap:butt;stroke-linejoin:miter;stroke-miterlimit:4;stroke-dasharray:none;stroke-dashoffset:0;stroke-opacity:1;color-rendering:auto;image-rendering:auto;shape-rendering:auto;text-rendering:auto;enable-background:accumulate" id="rect4145" width="13" height="16" x="138.84" y="673.3" ry="2"/><path id="path5262" d="m 146.84468,677.81342 c 0,1.94046 -1.60305,3.51341 -3.58038,3.51341 -1.97744,0 -3.58036,-1.57307 -3.58036,-3.51341 0,-1.94046 1.60303,-3.51341 3.58036,-3.51341 1.97745,0 3.58038,1.57305 3.58038,3.51341 z" style="fill:#000"/><path id="path5268" d="m 140.78171,679.95723 1.4726,5.78378 2.04178,0 1.47246,-5.78378 -4.98706,0 z" style="fill:#000"/><rect id="rect5275" width="7.48" height="1.049" x="139.633" y="677.326" style="fill:#fff"/><rect id="rect5277" width=".998" height=".988" x="142.836" y="681.311" style="fill:#fff"/><path id="path5299" d="m 143.27547,685.32153 c 0.0677,0.87066 0.34144,1.82216 1.06706,2.33124 0.87086,0.6136 2.25422,0.18968 2.59739,-0.87502 0.49879,-1.17802 0.34309,-2.5905 1.07342,-3.67203 0.50925,-0.72881 1.73874,-0.49135 2.03168,0.33676 0.24669,0.483 0.27412,1.04271 0.34025,1.57493" style="fill:none;stroke:#000;stroke-width:1.06299213;stroke-linecap:round;stroke-miterlimit:4;stroke-dasharray:none"/></g><metadata id="metadata13"/></svg>