<svg xmlns="http://www.w3.org/2000/svg" xmlns:svg="http://www.w3.org/2000/svg" id="svg1" width="12.088" height="16" version="1.0"><metadata id="metadata2213"/><defs id="defs2"><marker id="ArrowEnd" markerHeight="3" markerUnits="strokeWidth" markerWidth="4" orient="auto" refX="0" refY="5" viewBox="0 0 10 10"><path id="path4" d="M 0,0 10,5 0,10 0,0 Z"/></marker><marker id="ArrowStart" markerHeight="3" markerUnits="strokeWidth" markerWidth="4" orient="auto" refX="10" refY="5" viewBox="0 0 10 10"><path id="path6" d="M 10,0 0,5 10,10 10,0 Z"/></marker></defs><path style="fill:#000;stroke:#fff;stroke-width:.80419183;stroke-miterlimit:4;stroke-dasharray:none;stroke-opacity:1" id="path11" d="m 3.6815815,0.41654839 c 0,0 -3.32396579,0.0435383 -3.28081049,3.04769391 0.0431811,3.0041556 0.64753619,5.6600048 1.64041819,7.1403067 0.992869,1.480381 3.5397939,5.355302 6.4321551,4.963444 0,0 1.4245124,-0.304807 2.5036537,-1.001472 L 7.4803977,11.823648 c 0,0 -1.0360373,0.653009 -1.6835605,-0.217757 C 5.1493139,10.735125 3.1203946,6.6860894 3.1203946,6.6860894 c 0,0 -0.5611868,-1.306162 0.6906916,-1.8721468 L 3.6815815,0.41654839 Z"/><path style="fill:#000;stroke:#fff;stroke-width:.304;stroke-miterlimit:4;stroke-dasharray:none;stroke-opacity:1" id="path12" d="m 4.0700955,0.41654839 c 0,0 0.2590222,-0.0870896 0.7338726,0.17415319 0.4748504,0.26122979 0.4748504,0.47892132 0.4748504,0.47892132 l 0.043168,3.0041686 c 0,0 -0.1295046,0.1741532 -0.3021775,0.3482934 C 4.8471363,4.5962511 4.2859366,4.8574678 4.1996001,4.6833277 4.1132766,4.5091615 4.0700955,0.41654839 4.0700955,0.41654839 Z"/><path style="fill:#000;stroke:#fff;stroke-width:.304;stroke-miterlimit:4;stroke-dasharray:none;stroke-opacity:1" id="path13" d="M 7.7712436,11.502692 8.732276,10.996407 c 0,0 0.2159057,-0.04352 0.5611481,0.174101 0.3453716,0.217757 2.1584109,1.654481 2.1584109,1.654481 0,0 0.302216,0.261282 0.215906,0.56609 -0.08631,0.304676 -0.302217,0.957816 -0.302217,0.957816 L 7.7712436,11.502692 Z"/></svg>