<svg xmlns="http://www.w3.org/2000/svg" xmlns:svg="http://www.w3.org/2000/svg" id="svg2" width="16" height="15.386" version="1.0"><metadata id="metadata12"/><rect style="opacity:1;fill:#fff;fill-opacity:1;stroke:none;stroke-width:.77915251;stroke-linecap:square;stroke-linejoin:miter;stroke-miterlimit:4;stroke-dasharray:none;stroke-dashoffset:.60000002;stroke-opacity:1" id="rect4137" width="16" height="15.386" x="0" y="0"/><rect id="divider" width="1.047" height="12.928" x="7.944" y="1.229" style="fill:#000;stroke:#000;stroke-width:.45820048px;stroke-linejoin:round;stroke-opacity:1"/><path id="manhead" d="m 13.691318,2.2600554 c 0,0.607337 -0.49235,1.099681 -1.09968,1.099681 -0.60734,0 -1.09968,-0.492344 -1.09968,-1.099681 0,-0.607337 0.49234,-1.099681 1.09968,-1.099681 0.60733,0 1.09968,0.492344 1.09968,1.099681 l 0,0 z" style="fill:#000;stroke:#000;stroke-width:.0916401;stroke-opacity:1"/><path id="womanhead" d="m 5.1491509,2.3746054 c 0,0.607337 -0.492344,1.099681 -1.099681,1.099681 -0.607337,0 -1.099681,-0.492344 -1.099681,-1.099681 0,-0.607337 0.492344,-1.099681 1.099681,-1.099681 0.607337,0 1.099681,0.492344 1.099681,1.099681 z" style="fill:#000;stroke:#000;stroke-width:.0916401;stroke-linejoin:round;stroke-opacity:1"/><path id="womanbody" d="m 3.7997869,10.205975 0.416567,0 0.06943,3.679679 0.671136,0 0.06943,-3.702819 1.110845,-0.0231 -1.203416,-4.4202426 0.323997,-0.185141 0.97199,3.193683 0.717421,-0.39343 -1.457985,-4.258238 -2.939113,-0.09257 -1.50427,4.443378 0.647993,0.25457 1.064561,-3.147392 0.300854,0.04628 -1.203416,4.5128126 1.018275,0.0232 0.138856,3.772239 0.671136,0 0.115713,-3.702819 z" style="fill:#000;fill-rule:evenodd;stroke:#000;stroke-width:.0916401px;stroke-linecap:butt;stroke-linejoin:round;stroke-opacity:1"/><path id="manbody" d="m 11.043428,3.9806134 2.8234,-0.02314 0.9257,0.717421 0.162,4.14253 -0.80999,-0.0232 -0.0926,-3.286245 -0.41657,-0.04629 0.0116,8.4586246 -0.77527,0.0232 -0.162,-5.0335196 -0.39343,-0.0232 -0.0926,5.0913796 -0.71742,-0.0463 -0.0463,-8.4007766 -0.43971,0 0.0463,3.216827 -0.78685,0.0231 -0.0694,-4.049959 0.83314,-0.740563 z" style="fill:#000;fill-opacity:1;fill-rule:evenodd;stroke:#000;stroke-width:.0916401px;stroke-linecap:butt;stroke-linejoin:round;stroke-opacity:1"/></svg>