<svg xmlns="http://www.w3.org/2000/svg" xmlns:svg="http://www.w3.org/2000/svg" id="svg2" width="16" height="16" version="1.1" viewBox="0 0 16 16"><metadata id="metadata8"/><rect style="color:#000;clip-rule:nonzero;display:inline;overflow:visible;visibility:visible;opacity:1;isolation:auto;mix-blend-mode:normal;color-interpolation:sRGB;color-interpolation-filters:linearRGB;solid-color:#000;solid-opacity:1;fill:#fff;fill-opacity:1;fill-rule:evenodd;stroke:none;stroke-width:1.20000005;stroke-linecap:butt;stroke-linejoin:miter;stroke-miterlimit:4;stroke-dasharray:none;stroke-dashoffset:0;stroke-opacity:1;color-rendering:auto;image-rendering:auto;shape-rendering:auto;text-rendering:auto;enable-background:accumulate" id="rect4135" width="16" height="16" x="0" y="0" ry="3"/><rect id="canvas" width="14" height="14" x="0" y="2" style="visibility:hidden;fill:none;stroke:none"/><path id="town-hall" d="M 8,1 C 7.75,1.0032 7.5,1.1644239 7.5,1.5 L 7.5,5.375 2,8 14,8 8.5,5.375 8.5,1.5 C 8.5,1.1516409 8.25,0.9968043 8,1 Z M 9,1 9,4 13,4 11,2.5 13,1 Z m -7,8 0,1 1,0 0,4 -1,0 0,1 12,0 0,-1 -1,0 0,-4 1,0 0,-1 z m 6,1.5 c 1,0 2,0.5 2,1.5 l 0,2 -4,0 0,-2 c 0,-1 1,-1.5 2,-1.5 z" style="fill:#734a08;fill-opacity:1;stroke:none"/></svg>