<svg xmlns="http://www.w3.org/2000/svg" xmlns:svg="http://www.w3.org/2000/svg" id="svg4264" width="16" height="16" version="1.1" viewBox="0 0 16 16"><defs id="defs4266"><marker id="EmptyTriangleInL" orient="auto" refX="0" refY="0" style="overflow:visible"><path id="path4298" d="m 5.77,0 -8.65,5 0,-10 8.65,5 z" transform="matrix(-0.8,0,0,-0.8,4.8,0)" style="fill:#fff;fill-rule:evenodd;stroke:#000;stroke-width:1pt;stroke-opacity:1"/></marker><marker id="marker4778" orient="auto" refX="0" refY="0" style="overflow:visible"><path id="path4780" d="M 0,0 5,-5 -12.5,0 5,5 0,0 Z" transform="matrix(0.8,0,0,0.8,10,0)" style="fill:#000;fill-opacity:1;fill-rule:evenodd;stroke:#000;stroke-width:1pt;stroke-opacity:1"/></marker><marker id="marker4657" orient="auto" refX="0" refY="0" style="overflow:visible"><path id="path4659" d="M 0,0 5,-5 -12.5,0 5,5 0,0 Z" transform="matrix(0.8,0,0,0.8,10,0)" style="fill:#000;fill-opacity:1;fill-rule:evenodd;stroke:#000;stroke-width:1pt;stroke-opacity:1"/></marker><marker style="overflow:visible" id="InfiniteLineStart" orient="auto" refX="0" refY="0"><g id="g4391" transform="translate(-13,0)" style="fill:#000;fill-opacity:1;stroke:#000;stroke-opacity:1"><circle id="circle4393" cx="3" cy="0" r=".8" style="fill:#000;fill-opacity:1;stroke:#000;stroke-opacity:1"/><circle id="circle4395" cx="6.5" cy="0" r=".8" style="fill:#000;fill-opacity:1;stroke:#000;stroke-opacity:1"/><circle id="circle4397" cx="10" cy="0" r=".8" style="fill:#000;fill-opacity:1;stroke:#000;stroke-opacity:1"/></g></marker><marker id="Arrow2Lstart" orient="auto" refX="0" refY="0" style="overflow:visible"><path id="path4165" d="M 8.7185878,4.0337352 -2.2072895,0.01601326 8.7185884,-4.0017078 c -1.7454984,2.3720609 -1.7354408,5.6174519 -6e-7,8.035443 z" transform="matrix(1.1,0,0,1.1,1.1,0)" style="fill:#000;fill-opacity:1;fill-rule:evenodd;stroke:#000;stroke-width:.625;stroke-linejoin:round;stroke-opacity:1"/></marker><marker id="Arrow1Mstart" orient="auto" refX="0" refY="0" style="overflow:visible"><path id="path4153" d="M 0,0 5,-5 -12.5,0 5,5 0,0 Z" transform="matrix(0.4,0,0,0.4,4,0)" style="fill:#000;fill-opacity:1;fill-rule:evenodd;stroke:#000;stroke-width:1pt;stroke-opacity:1"/></marker><marker id="Arrow1Lstart" orient="auto" refX="0" refY="0" style="overflow:visible"><path id="path4147" d="M 0,0 5,-5 -12.5,0 5,5 0,0 Z" transform="matrix(0.8,0,0,0.8,10,0)" style="fill:#000;fill-opacity:1;fill-rule:evenodd;stroke:#000;stroke-width:1pt;stroke-opacity:1"/></marker></defs><metadata id="metadata4269"/><g id="layer1" transform="translate(0,-1036.3621)"><rect style="opacity:1;fill:#fff;fill-opacity:1;stroke:none;stroke-width:0;stroke-linecap:butt;stroke-linejoin:miter;stroke-miterlimit:4;stroke-dasharray:none;stroke-opacity:1" id="rect4302-4" width="16" height="16" x="0" y="1036.362" ry="2"/><path style="fill:#c00;fill-opacity:1;fill-rule:evenodd;stroke:none;stroke-width:1px;stroke-linecap:butt;stroke-linejoin:miter;stroke-opacity:1" id="path1883-7" d="m 6.0000019,1042.3621 h 3.000001 v -2 h -3.000001 v -3 H 4.000001 v 3 H 1 v 2 h 3.000001 v 3 h 2.0000009 z"/><path style="opacity:1;vector-effect:none;fill:none;fill-opacity:1;stroke:#3771c8;stroke-width:1.99999988;stroke-linecap:round;stroke-linejoin:round;stroke-miterlimit:4;stroke-dasharray:none;stroke-opacity:1" id="path1009" d="m 11.657938,1042.3514 a 4.8627992,4.6111865 0 0 1 2.283411,4.375 4.8627992,4.6111865 0 0 1 -3.139915,3.8683 4.8627992,4.6111865 0 0 1 -5.044436,-0.9735"/><rect style="opacity:1;vector-effect:none;fill:#3771c8;fill-opacity:1;stroke:none;stroke-width:1;stroke-linecap:round;stroke-linejoin:round;stroke-miterlimit:4;stroke-dasharray:none;stroke-opacity:1" id="rect1011" width="6.304" height="1.361" x="3.138" y="1048.578"/><g id="g1022" transform="rotate(-12.40363,6.6284546,1039.4272)"><rect id="rect1013" width="8.181" height="2.33" x="-733.99" y="743.959" rx=".398" ry=".53" transform="rotate(-45)" style="opacity:1;vector-effect:none;fill:#3771c8;fill-opacity:1;stroke:none;stroke-width:1;stroke-linecap:round;stroke-linejoin:round;stroke-miterlimit:4;stroke-dasharray:none;stroke-opacity:1"/><rect style="opacity:1;vector-effect:none;fill:#3771c8;fill-opacity:1;stroke:none;stroke-width:1.00090325;stroke-linecap:round;stroke-linejoin:round;stroke-miterlimit:4;stroke-dasharray:none;stroke-opacity:1" id="rect1015" width="10.754" height="1.185" x="-692.807" y="743.936" rx=".397" ry=".477" transform="matrix(0.70518305,-0.70902529,0.66540886,0.7464791,0,0)"/><path id="path1017" d="m 12.208529,1042.3671 a 1.8165996,1.8165996 0 0 1 0.854536,1.7072 1.8165996,1.8165996 0 0 1 -1.143945,1.5285 1.8165996,1.8165996 0 0 1 -1.878923,-0.3385" style="opacity:1;vector-effect:none;fill:#3771c8;fill-opacity:1;stroke:none;stroke-width:1.99999988;stroke-linecap:round;stroke-linejoin:round;stroke-miterlimit:4;stroke-dasharray:none;stroke-opacity:1"/></g></g></svg>