<svg xmlns="http://www.w3.org/2000/svg" xmlns:svg="http://www.w3.org/2000/svg" id="svg2" width="16" height="16" version="1.1" viewBox="0 0 16 16"><metadata id="metadata7"/><g id="layer1" transform="translate(0,-1036.3622)"><rect style="color:#000;clip-rule:nonzero;display:inline;overflow:visible;visibility:visible;opacity:1;isolation:auto;mix-blend-mode:normal;color-interpolation:sRGB;color-interpolation-filters:linearRGB;solid-color:#000;solid-opacity:1;fill:#6ace6a;fill-opacity:1;fill-rule:evenodd;stroke:none;stroke-width:.89999998;stroke-linecap:round;stroke-linejoin:miter;stroke-miterlimit:4;stroke-dasharray:none;stroke-dashoffset:0;stroke-opacity:1;color-rendering:auto;image-rendering:auto;shape-rendering:auto;text-rendering:auto;enable-background:accumulate" id="rect4162" width="16" height="16" x="0" y="1036.362"/><path style="font-size:12px;fill:#7c3c11;fill-opacity:1;fill-rule:evenodd;stroke:#000;stroke-width:.02129138" id="path645" d="m 3.9996529,1036.3731 -3.9739294,3.5806 0.79478065,0 0,5.3708 2.38436295,0 0,-2.7294 1.6440693,0 5.1e-6,2.7294 2.3298605,0 0,-5.3708 0.7947858,0 -3.9739349,-3.5806 0,0 0,0 z"/><g id="g4150" transform="matrix(0.99999983,0,0,1.001178,2.0000007,3.7780574)"><path id="path4153" d="m 8.1107127,1037.3621 -1.0610248,3.8423 -5.048498,0.5092 -0.00119,2.8581 c 0,0 1.9439315,-0.017 6.0511112,-0.017 0.1430592,1.601 1.4544383,2.7956 2.9684849,2.7956 1.597498,0 2.980406,-1.3547 2.980406,-3.0788 0,-1.3793 -0.870279,-2.5123 -2.038598,-2.9187 l 0,-3.9779 -3.8506843,0 z" style="fill:#000"/><path id="path4151" d="m 8.718716,1038.1256 2.420089,0 0,3.0666 -3.23076,0.024 0.810671,-3.0787 z" style="fill:#fff"/><path id="path4149" d="m 11.007668,1043.0395 c 0.762984,0 1.216005,0.5788 1.216005,1.2315 0,0.6527 -0.453021,1.2315 -1.216005,1.2315 -0.762985,0 -1.2160071,-0.5788 -1.2160071,-1.2315 0,-0.6527 0.4530221,-1.2315 1.2160071,-1.2315 z" style="fill:#fff"/><circle style="opacity:1;fill:#000;fill-opacity:1;stroke:none;stroke-width:1.745;stroke-linecap:round;stroke-linejoin:round;stroke-miterlimit:4;stroke-dasharray:none;stroke-opacity:1" id="circle4145" cx="4.497" cy="1045.571" r="1.779"/><circle id="path4143" cx="4.497" cy="1045.571" r=".917" style="opacity:1;fill:#fff;fill-opacity:1;stroke:none;stroke-width:1.745;stroke-linecap:round;stroke-linejoin:round;stroke-miterlimit:4;stroke-dasharray:none;stroke-opacity:1"/></g></g></svg>