<svg xmlns="http://www.w3.org/2000/svg" xmlns:svg="http://www.w3.org/2000/svg" id="svg4264" width="16" height="16" version="1.1" viewBox="0 0 16 16"><metadata id="metadata4269"/><g id="layer1" transform="translate(0,-1036.3621)"><path style="fill:#d2691e;fill-rule:evenodd;stroke:none;stroke-width:1px;stroke-linecap:butt;stroke-linejoin:miter;stroke-opacity:1" id="path4138" d="m 0.58657473,1051.8611 15.00000227,0 c 0,0 -2.207106,-3.5 -3.207106,-4.5 -1,-1 -3.3605066,-3.3512 -5.3794702,-2.9885 -3.2347189,0.5811 -3.2962021,4.5644 -6.41342607,7.4885 z"/><path style="color:#000;font-style:normal;font-variant:normal;font-weight:400;font-stretch:normal;font-size:medium;line-height:normal;font-family:sans-serif;text-indent:0;text-align:start;text-decoration:none;text-decoration-line:none;text-decoration-style:solid;text-decoration-color:#000;letter-spacing:normal;word-spacing:normal;text-transform:none;direction:ltr;block-progression:tb;writing-mode:lr-tb;baseline-shift:baseline;text-anchor:start;white-space:normal;clip-rule:nonzero;display:inline;overflow:visible;visibility:visible;opacity:1;isolation:auto;mix-blend-mode:normal;color-interpolation:sRGB;color-interpolation-filters:linearRGB;solid-color:#000;solid-opacity:1;fill:#d2691e;fill-opacity:1;fill-rule:evenodd;stroke:none;stroke-width:1px;stroke-linecap:butt;stroke-linejoin:miter;stroke-miterlimit:4;stroke-dasharray:none;stroke-dashoffset:0;stroke-opacity:1;color-rendering:auto;image-rendering:auto;shape-rendering:auto;text-rendering:auto;enable-background:accumulate" id="path4326" d="M 7.3710938 7.4707031 C 7.2188245 7.4744924 7.0655994 7.4900031 6.9121094 7.5175781 C 5.0996053 7.8431781 4.1394134 9.16926 3.3144531 10.630859 C 2.489493 12.092459 1.7213234 13.749166 0.24414062 15.134766 L 0 15.363281 L 0 16 L 0.5859375 16 L 16 16 L 16 15.216797 C 15.991027 15.202592 15.447876 14.34323 14.771484 13.34375 C 14.089531 12.33615 13.308606 11.220731 12.732422 10.644531 C 12.231873 10.143931 11.372579 9.2837312 10.355469 8.5820312 C 9.4654972 7.9680439 8.4369781 7.4441783 7.3710938 7.4707031 z M 7.7148438 8.4941406 C 8.3701099 8.5800859 9.0986965 8.9313502 9.7871094 9.40625 C 10.704993 10.03945 11.525939 10.854016 12.025391 11.353516 C 12.449206 11.777316 13.27176 12.911897 13.943359 13.904297 C 14.338735 14.488497 14.438968 14.6534 14.662109 15 L 1.6210938 15 C 2.7496732 13.677 3.5333153 12.276594 4.1855469 11.121094 C 4.9793133 9.7146938 5.665677 8.7574531 7.0878906 8.5019531 C 7.2856511 8.4664281 7.4964216 8.4654922 7.7148438 8.4941406 z" transform="translate(-4.7683724e-7,1036.3621)"/><rect style="opacity:1;fill:#000;fill-opacity:.89302326;stroke:none;stroke-width:.99999982;stroke-linecap:round;stroke-linejoin:round;stroke-miterlimit:4;stroke-dasharray:none;stroke-opacity:1" id="rect4217" width="1.406" height="1.406" x="-533.077" y="904.954" transform="matrix(0.85618767,-0.51666495,0.516665,0.85618764,0,0)"/><rect style="opacity:1;fill:#000;fill-opacity:.89302326;stroke:none;stroke-width:.99999982;stroke-linecap:round;stroke-linejoin:round;stroke-miterlimit:4;stroke-dasharray:none;stroke-opacity:1" id="rect4217-5" width="1.406" height="1.406" x="44.133" y="1037.768" transform="matrix(0.9990994,0.04243094,-0.04243095,0.9990994,0,0)"/><rect style="opacity:1;fill:#000;fill-opacity:.89302326;stroke:none;stroke-width:.99999982;stroke-linecap:round;stroke-linejoin:round;stroke-miterlimit:4;stroke-dasharray:none;stroke-opacity:1" id="rect4217-6" width="1.406" height="1.406" x="111.607" y="1042.002" transform="matrix(0.99503719,0.09950371,-0.09950372,0.99503719,0,0)"/><rect style="opacity:1;fill:#000;fill-opacity:.89302326;stroke:none;stroke-width:.99999982;stroke-linecap:round;stroke-linejoin:round;stroke-miterlimit:4;stroke-dasharray:none;stroke-opacity:1" id="rect4217-1" width="1.406" height="1.406" x="-911.006" y="523.465" transform="matrix(0.49613898,-0.86824312,0.86824314,0.49613894,0,0)"/><rect style="opacity:1;fill:#000;fill-opacity:.89302326;stroke:none;stroke-width:.99999982;stroke-linecap:round;stroke-linejoin:round;stroke-miterlimit:4;stroke-dasharray:none;stroke-opacity:1" id="rect4217-2" width="1.406" height="1.406" x="755.565" y="721.453" transform="matrix(0.69678574,0.71727933,-0.71727937,0.6967857,0,0)"/><rect style="opacity:1;fill:#d2691e;fill-opacity:1;stroke:none;stroke-width:.99999982;stroke-linecap:round;stroke-linejoin:round;stroke-miterlimit:4;stroke-dasharray:none;stroke-opacity:1" id="rect4217-11" width="1.406" height="1.406" x="699.231" y="764.938" transform="matrix(0.73994012,0.67267274,-0.67267278,0.73994008,0,0)"/><rect style="opacity:1;fill:#d2691e;fill-opacity:1;stroke:none;stroke-width:.99999982;stroke-linecap:round;stroke-linejoin:round;stroke-miterlimit:4;stroke-dasharray:none;stroke-opacity:1" id="rect4217-5-6" width="1.406" height="1.406" x="-1028.56" y="-196.339" transform="matrix(-0.18884702,-0.98200652,0.98200652,-0.188847,0,0)"/><rect style="opacity:1;fill:#d2691e;fill-opacity:1;stroke:none;stroke-width:.99999982;stroke-linecap:round;stroke-linejoin:round;stroke-miterlimit:4;stroke-dasharray:none;stroke-opacity:1" id="rect4217-6-7" width="1.406" height="1.406" x="-485.015" y="922.515" transform="matrix(0.88311578,-0.46915511,0.46915515,0.88311576,0,0)"/><rect style="opacity:1;fill:#d2691e;fill-opacity:1;stroke:none;stroke-width:.99999982;stroke-linecap:round;stroke-linejoin:round;stroke-miterlimit:4;stroke-dasharray:none;stroke-opacity:1" id="rect4217-1-0" width="1.406" height="1.406" x="-560.874" y="877.912" transform="matrix(0.84227149,-0.53905356,0.5390536,0.84227146,0,0)"/><rect style="opacity:1;fill:#000;fill-opacity:.89302326;stroke:none;stroke-width:.99999982;stroke-linecap:round;stroke-linejoin:round;stroke-miterlimit:4;stroke-dasharray:none;stroke-opacity:1" id="rect4217-5-7" width="1.406" height="1.406" x="709.27" y="759.426" transform="matrix(0.73409949,0.67904193,-0.67904197,0.73409945,0,0)"/><rect style="opacity:1;fill:#000;fill-opacity:.89302326;stroke:none;stroke-width:.99999982;stroke-linecap:round;stroke-linejoin:round;stroke-miterlimit:4;stroke-dasharray:none;stroke-opacity:1" id="rect4217-5-7-6" width="1.406" height="1.406" x="296.849" y="999.922" transform="matrix(0.95938413,0.28210298,-0.28210301,0.95938412,0,0)"/></g></svg>