<svg xmlns="http://www.w3.org/2000/svg" xmlns:svg="http://www.w3.org/2000/svg" id="svg2" width="349.485" height="197.261" version="1.0"><metadata id="metadata18"/><rect style="opacity:1;fill:#fff;fill-opacity:1;stroke:none;stroke-width:30;stroke-linecap:square;stroke-linejoin:miter;stroke-miterlimit:4;stroke-dasharray:none;stroke-dashoffset:.60000002;stroke-opacity:1" id="rect4144" width="349.485" height="197.261" x="0" y="0"/><g id="g3554" transform="translate(-49.544584,-524.92884)"><path style="display:inline;overflow:visible;visibility:visible;fill:#000;fill-opacity:1;fill-rule:nonzero;stroke:none;stroke-width:1;stroke-linecap:round;stroke-linejoin:miter;stroke-miterlimit:4;stroke-dasharray:none;stroke-dashoffset:0;stroke-opacity:1;marker:none" id="path5534" d="m 290.61109,594.7957 -70.62176,0 -21.67599,-11.65375 0,-32.8636 138.91278,-12.81913 0,42.88583 -46.61503,9.08992 0,5.36073 z"/><path style="display:inline;overflow:visible;visibility:visible;fill:#000;fill-opacity:1;fill-rule:nonzero;stroke:none;stroke-width:1;stroke-linecap:round;stroke-linejoin:miter;stroke-miterlimit:4;stroke-dasharray:none;stroke-dashoffset:0;stroke-opacity:1;marker:none" id="path5536" d="m 65.22745,640.14176 318.38061,0.56974 -0.0533,-59.20108 -91.31212,20.04446 -132.85282,0 -94.16235,25.17211 c -5.54704,2.24346 -7.3857,13.41477 0,13.41477 z"/><path style="fill:#000;fill-opacity:1;fill-rule:evenodd;stroke:none;stroke-width:1px;stroke-linecap:butt;stroke-linejoin:miter;stroke-opacity:1" id="path1874" d="m 155.81493,666.86299 c -3e-5,11.30705 -9.15117,20.48115 -20.45818,20.50952 -11.30701,0.0284 -20.50407,-9.09969 -20.56084,-20.4066 -0.0568,-11.3069 9.04816,-20.52686 20.35489,-20.61203 11.30672,-0.0852 20.54952,8.99658 20.66309,20.30305"/><path style="fill:#000;fill-opacity:1;fill-rule:evenodd;stroke:none;stroke-width:1px;stroke-linecap:butt;stroke-linejoin:miter;stroke-opacity:1" id="path1876" d="m 201.97733,666.86299 c -3e-5,11.30705 -9.15117,20.48115 -20.45818,20.50952 -11.30701,0.0284 -20.50407,-9.09969 -20.56084,-20.4066 -0.0568,-11.3069 9.04816,-20.52686 20.35489,-20.61203 11.30672,-0.0852 20.54952,8.99658 20.66309,20.30305"/><path style="fill:#000;fill-opacity:1;fill-rule:evenodd;stroke:none;stroke-width:1px;stroke-linecap:butt;stroke-linejoin:miter;stroke-opacity:1" id="path1880" d="m 247.33033,666.86299 c -3e-5,11.30705 -9.15117,20.48115 -20.45818,20.50952 -11.30701,0.0284 -20.50407,-9.09969 -20.56084,-20.4066 -0.0568,-11.3069 9.04816,-20.52686 20.35489,-20.61203 11.30672,-0.0852 20.54952,8.99658 20.66309,20.30305"/><path style="fill:#000;fill-opacity:1;fill-rule:evenodd;stroke:none;stroke-width:1px;stroke-linecap:butt;stroke-linejoin:miter;stroke-opacity:1" id="path3511" d="m 293.76333,666.86299 c -3e-5,11.30705 -9.15117,20.48115 -20.45818,20.50952 -11.30701,0.0284 -20.50407,-9.09969 -20.56084,-20.4066 -0.0568,-11.3069 9.04816,-20.52686 20.35489,-20.61203 11.30672,-0.0852 20.54952,8.99658 20.66309,20.30305"/><path style="display:inline;overflow:visible;visibility:visible;fill:#000;fill-opacity:1;fill-rule:nonzero;stroke:none;stroke-width:1;stroke-linecap:round;stroke-linejoin:miter;stroke-miterlimit:4;stroke-dasharray:none;stroke-dashoffset:0;stroke-opacity:1;marker:none" id="path1890" d="m 83.75265,646.62921 -9.5625,0.4375 c -5.32566,13.2481 -0.88992,25.37037 13.75,34.34375 16.49748,10.11194 36.32098,19.84936 42.0625,20 l 195.0625,0.0625 c 5.74152,-0.15064 25.56503,-9.88804 42.0625,-20 14.63992,-8.97338 19.07566,-21.1269 13.75,-34.375 l -9.5625,-0.40625 c 2.87764,12.39545 5.36125,20.76159 -12.5625,29.25 -14.66994,6.94744 -30.17637,15.21816 -32.59375,15.71875 l -197.25,-0.0312 c -2.41737,-0.50061 -17.89256,-8.80256 -32.5625,-15.75 -17.92375,-8.4884 -15.47139,-16.85455 -12.59375,-29.25 z m -23.30406,-90.04305 0,13.58752 133.19884,4.52917 0,-18.32256 -133.19884,0.20587 z"/><path style="fill:#000;fill-opacity:1;fill-rule:evenodd;stroke:none;stroke-width:1px;stroke-linecap:butt;stroke-linejoin:miter;stroke-opacity:1" id="path1884" d="m 339.83623,667.93559 c -3e-5,11.30705 -9.15117,20.48115 -20.45818,20.50952 -11.30701,0.0284 -20.50407,-9.09969 -20.56084,-20.4066 -0.0568,-11.3069 9.04816,-20.52686 20.35489,-20.61203 11.30672,-0.0852 20.54952,8.99658 20.66309,20.30305"/><path style="fill:#000;fill-opacity:1;fill-rule:evenodd;stroke:none;stroke-width:1px;stroke-linecap:butt;stroke-linejoin:miter;stroke-opacity:1" id="path1886" d="m 368.27196,658.40424 c -2e-5,6.44528 -5.21638,11.67474 -11.66165,11.69091 -6.44527,0.0162 -11.68781,-5.18704 -11.72017,-11.63225 -0.0324,-6.4452 5.15767,-11.7008 11.60277,-11.74935 6.44511,-0.0486 11.71372,5.12827 11.77846,11.57323"/><path style="fill:#000;fill-opacity:1;fill-rule:evenodd;stroke:none;stroke-width:1px;stroke-linecap:butt;stroke-linejoin:miter;stroke-opacity:1" id="path1888" d="m 110.01126,658.40424 c -2e-5,6.44528 -5.21638,11.67474 -11.66165,11.69091 -6.44527,0.0162 -11.68781,-5.18704 -11.72017,-11.63225 -0.03236,-6.4452 5.15767,-11.7008 11.60277,-11.74935 6.44511,-0.0486 11.71372,5.12827 11.77846,11.57323"/></g></svg>