<svg xmlns="http://www.w3.org/2000/svg" xmlns:svg="http://www.w3.org/2000/svg" id="svg2" width="16" height="16" version="1.1"><metadata id="metadata7"/><g id="layer1" transform="translate(-765,-576.36218)"><rect style="fill:#fc0;fill-opacity:1;stroke:none" id="rect2987" width="16" height="16" x="765" y="576.362"/><path style="fill:#a05a2c;fill-opacity:1;stroke:none" id="path3757" d="m 768,578.86218 c 0,0.27614 -0.22386,0.5 -0.5,0.5 -0.27614,0 -0.5,-0.22386 -0.5,-0.5 0,-0.27614 0.22386,-0.5 0.5,-0.5 0.27614,0 0.5,0.22386 0.5,0.5 z"/><path style="fill:#a05a2c;fill-opacity:1;stroke:none" id="path3757-1" d="m 768,578.86218 c 0,0.27614 -0.22386,0.5 -0.5,0.5 -0.27614,0 -0.5,-0.22386 -0.5,-0.5 0,-0.27614 0.22386,-0.5 0.5,-0.5 0.27614,0 0.5,0.22386 0.5,0.5 z" transform="translate(5,3)"/><path style="fill:#a05a2c;fill-opacity:1;stroke:none" id="path3757-7" d="m 768,578.86218 c 0,0.27614 -0.22386,0.5 -0.5,0.5 -0.27614,0 -0.5,-0.22386 -0.5,-0.5 0,-0.27614 0.22386,-0.5 0.5,-0.5 0.27614,0 0.5,0.22386 0.5,0.5 z" transform="translate(1,5)"/><path style="fill:#a05a2c;fill-opacity:1;stroke:none" id="path3757-4" d="m 768,578.86218 c 0,0.27614 -0.22386,0.5 -0.5,0.5 -0.27614,0 -0.5,-0.22386 -0.5,-0.5 0,-0.27614 0.22386,-0.5 0.5,-0.5 0.27614,0 0.5,0.22386 0.5,0.5 z" transform="translate(1,2)"/><path style="fill:#a05a2c;fill-opacity:1;stroke:none" id="path3757-0" d="m 768,578.86218 c 0,0.27614 -0.22386,0.5 -0.5,0.5 -0.27614,0 -0.5,-0.22386 -0.5,-0.5 0,-0.27614 0.22386,-0.5 0.5,-0.5 0.27614,0 0.5,0.22386 0.5,0.5 z" transform="translate(4,1)"/><path style="fill:#a05a2c;fill-opacity:1;stroke:none" id="path3757-9" d="m 768,578.86218 c 0,0.27614 -0.22386,0.5 -0.5,0.5 -0.27614,0 -0.5,-0.22386 -0.5,-0.5 0,-0.27614 0.22386,-0.5 0.5,-0.5 0.27614,0 0.5,0.22386 0.5,0.5 z" transform="translate(4,5)"/><path style="fill:#a05a2c;fill-opacity:1;stroke:none" id="path3757-48" d="m 768,578.86218 c 0,0.27614 -0.22386,0.5 -0.5,0.5 -0.27614,0 -0.5,-0.22386 -0.5,-0.5 0,-0.27614 0.22386,-0.5 0.5,-0.5 0.27614,0 0.5,0.22386 0.5,0.5 z" transform="translate(-1,4)"/><path style="fill:#a05a2c;fill-opacity:1;stroke:none" id="path3757-8" d="m 768,578.86218 c 0,0.27614 -0.22386,0.5 -0.5,0.5 -0.27614,0 -0.5,-0.22386 -0.5,-0.5 0,-0.27614 0.22386,-0.5 0.5,-0.5 0.27614,0 0.5,0.22386 0.5,0.5 z" transform="translate(0,9)"/><path style="fill:#a05a2c;fill-opacity:1;stroke:none" id="path3757-2" d="m 768,578.86218 c 0,0.27614 -0.22386,0.5 -0.5,0.5 -0.27614,0 -0.5,-0.22386 -0.5,-0.5 0,-0.27614 0.22386,-0.5 0.5,-0.5 0.27614,0 0.5,0.22386 0.5,0.5 z" transform="translate(4,8)"/><path style="fill:#a05a2c;fill-opacity:1;stroke:none" id="path3757-45" d="m 768,578.86218 c 0,0.27614 -0.22386,0.5 -0.5,0.5 -0.27614,0 -0.5,-0.22386 -0.5,-0.5 0,-0.27614 0.22386,-0.5 0.5,-0.5 0.27614,0 0.5,0.22386 0.5,0.5 z" transform="translate(2,7)"/><path style="fill:#a05a2c;fill-opacity:1;stroke:none" id="path3757-5" d="m 768,578.86218 c 0,0.27614 -0.22386,0.5 -0.5,0.5 -0.27614,0 -0.5,-0.22386 -0.5,-0.5 0,-0.27614 0.22386,-0.5 0.5,-0.5 0.27614,0 0.5,0.22386 0.5,0.5 z" transform="translate(-1,12)"/><path style="fill:#a05a2c;fill-opacity:1;stroke:none" id="path3757-17" d="m 768,578.86218 c 0,0.27614 -0.22386,0.5 -0.5,0.5 -0.27614,0 -0.5,-0.22386 -0.5,-0.5 0,-0.27614 0.22386,-0.5 0.5,-0.5 0.27614,0 0.5,0.22386 0.5,0.5 z" transform="translate(2,11)"/><path style="fill:#a05a2c;fill-opacity:1;stroke:none" id="path3757-11" d="m 768,578.86218 c 0,0.27614 -0.22386,0.5 -0.5,0.5 -0.27614,0 -0.5,-0.22386 -0.5,-0.5 0,-0.27614 0.22386,-0.5 0.5,-0.5 0.27614,0 0.5,0.22386 0.5,0.5 z" transform="translate(5,12)"/><path style="fill:#a05a2c;fill-opacity:1;stroke:none" id="path3757-52" d="m 768,578.86218 c 0,0.27614 -0.22386,0.5 -0.5,0.5 -0.27614,0 -0.5,-0.22386 -0.5,-0.5 0,-0.27614 0.22386,-0.5 0.5,-0.5 0.27614,0 0.5,0.22386 0.5,0.5 z" transform="translate(6,10)"/><path style="fill:#a05a2c;fill-opacity:1;stroke:none" id="path3757-76" d="m 768,578.86218 c 0,0.27614 -0.22386,0.5 -0.5,0.5 -0.27614,0 -0.5,-0.22386 -0.5,-0.5 0,-0.27614 0.22386,-0.5 0.5,-0.5 0.27614,0 0.5,0.22386 0.5,0.5 z" transform="translate(7,7)"/><path style="fill:#a05a2c;fill-opacity:1;stroke:none" id="path3757-14" d="m 768,578.86218 c 0,0.27614 -0.22386,0.5 -0.5,0.5 -0.27614,0 -0.5,-0.22386 -0.5,-0.5 0,-0.27614 0.22386,-0.5 0.5,-0.5 0.27614,0 0.5,0.22386 0.5,0.5 z" transform="translate(8,4)"/><path style="fill:#a05a2c;fill-opacity:1;stroke:none" id="path3757-23" d="m 768,578.86218 c 0,0.27614 -0.22386,0.5 -0.5,0.5 -0.27614,0 -0.5,-0.22386 -0.5,-0.5 0,-0.27614 0.22386,-0.5 0.5,-0.5 0.27614,0 0.5,0.22386 0.5,0.5 z" transform="translate(6,0)"/><path style="fill:#a05a2c;fill-opacity:1;stroke:none" id="path3757-22" d="m 768,578.86218 c 0,0.27614 -0.22386,0.5 -0.5,0.5 -0.27614,0 -0.5,-0.22386 -0.5,-0.5 0,-0.27614 0.22386,-0.5 0.5,-0.5 0.27614,0 0.5,0.22386 0.5,0.5 z" transform="translate(3,-1)"/><path style="fill:#a05a2c;fill-opacity:1;stroke:none" id="path3757-85" d="m 768,578.86218 c 0,0.27614 -0.22386,0.5 -0.5,0.5 -0.27614,0 -0.5,-0.22386 -0.5,-0.5 0,-0.27614 0.22386,-0.5 0.5,-0.5 0.27614,0 0.5,0.22386 0.5,0.5 z" transform="translate(-2,-2)"/><path style="fill:#a05a2c;fill-opacity:1;stroke:none" id="path3757-761" d="m 768,578.86218 c 0,0.27614 -0.22386,0.5 -0.5,0.5 -0.27614,0 -0.5,-0.22386 -0.5,-0.5 0,-0.27614 0.22386,-0.5 0.5,-0.5 0.27614,0 0.5,0.22386 0.5,0.5 z" transform="translate(-1,7)"/><path style="fill:#a05a2c;fill-opacity:1;stroke:none" id="path3757-89" d="m 768,578.86218 c 0,0.27614 -0.22386,0.5 -0.5,0.5 -0.27614,0 -0.5,-0.22386 -0.5,-0.5 0,-0.27614 0.22386,-0.5 0.5,-0.5 0.27614,0 0.5,0.22386 0.5,0.5 z" transform="translate(9,1)"/><path style="fill:#a05a2c;fill-opacity:1;stroke:none" id="path3757-27" d="m 768,578.86218 c 0,0.27614 -0.22386,0.5 -0.5,0.5 -0.27614,0 -0.5,-0.22386 -0.5,-0.5 0,-0.27614 0.22386,-0.5 0.5,-0.5 0.27614,0 0.5,0.22386 0.5,0.5 z" transform="translate(10,-2)"/><path style="fill:#a05a2c;fill-opacity:1;stroke:none" id="path3757-95" d="m 768,578.86218 c 0,0.27614 -0.22386,0.5 -0.5,0.5 -0.27614,0 -0.5,-0.22386 -0.5,-0.5 0,-0.27614 0.22386,-0.5 0.5,-0.5 0.27614,0 0.5,0.22386 0.5,0.5 z" transform="translate(12,0)"/><path style="fill:#a05a2c;fill-opacity:1;stroke:none" id="path3757-43" d="m 768,578.86218 c 0,0.27614 -0.22386,0.5 -0.5,0.5 -0.27614,0 -0.5,-0.22386 -0.5,-0.5 0,-0.27614 0.22386,-0.5 0.5,-0.5 0.27614,0 0.5,0.22386 0.5,0.5 z" transform="translate(12,2)"/><path style="fill:#a05a2c;fill-opacity:1;stroke:none" id="path3757-12" d="m 768,578.86218 c 0,0.27614 -0.22386,0.5 -0.5,0.5 -0.27614,0 -0.5,-0.22386 -0.5,-0.5 0,-0.27614 0.22386,-0.5 0.5,-0.5 0.27614,0 0.5,0.22386 0.5,0.5 z" transform="translate(11,4)"/><path style="fill:#a05a2c;fill-opacity:1;stroke:none" id="path3757-3" d="m 768,578.86218 c 0,0.27614 -0.22386,0.5 -0.5,0.5 -0.27614,0 -0.5,-0.22386 -0.5,-0.5 0,-0.27614 0.22386,-0.5 0.5,-0.5 0.27614,0 0.5,0.22386 0.5,0.5 z" transform="translate(9,6)"/><path style="fill:#a05a2c;fill-opacity:1;stroke:none" id="path3757-34" d="m 768,578.86218 c 0,0.27614 -0.22386,0.5 -0.5,0.5 -0.27614,0 -0.5,-0.22386 -0.5,-0.5 0,-0.27614 0.22386,-0.5 0.5,-0.5 0.27614,0 0.5,0.22386 0.5,0.5 z" transform="translate(11,8)"/><path style="fill:#a05a2c;fill-opacity:1;stroke:none" id="path3757-113" d="m 768,578.86218 c 0,0.27614 -0.22386,0.5 -0.5,0.5 -0.27614,0 -0.5,-0.22386 -0.5,-0.5 0,-0.27614 0.22386,-0.5 0.5,-0.5 0.27614,0 0.5,0.22386 0.5,0.5 z" transform="translate(9,9)"/><path style="fill:#a05a2c;fill-opacity:1;stroke:none" id="path3757-87" d="m 768,578.86218 c 0,0.27614 -0.22386,0.5 -0.5,0.5 -0.27614,0 -0.5,-0.22386 -0.5,-0.5 0,-0.27614 0.22386,-0.5 0.5,-0.5 0.27614,0 0.5,0.22386 0.5,0.5 z" transform="translate(8,12)"/><path style="fill:#a05a2c;fill-opacity:1;stroke:none" id="path3757-42" d="m 768,578.86218 c 0,0.27614 -0.22386,0.5 -0.5,0.5 -0.27614,0 -0.5,-0.22386 -0.5,-0.5 0,-0.27614 0.22386,-0.5 0.5,-0.5 0.27614,0 0.5,0.22386 0.5,0.5 z" transform="translate(8,12)"/><path style="fill:#a05a2c;fill-opacity:1;stroke:none" id="path3757-77" d="m 768,578.86218 c 0,0.27614 -0.22386,0.5 -0.5,0.5 -0.27614,0 -0.5,-0.22386 -0.5,-0.5 0,-0.27614 0.22386,-0.5 0.5,-0.5 0.27614,0 0.5,0.22386 0.5,0.5 z" transform="translate(11,11)"/><path style="fill:#a05a2c;fill-opacity:1;stroke:none" id="path3757-93" d="m 768,578.86218 c 0,0.27614 -0.22386,0.5 -0.5,0.5 -0.27614,0 -0.5,-0.22386 -0.5,-0.5 0,-0.27614 0.22386,-0.5 0.5,-0.5 0.27614,0 0.5,0.22386 0.5,0.5 z" transform="translate(12,12)"/><path style="fill:#a05a2c;fill-opacity:1;stroke:none" id="path3757-19" d="m 768,578.86218 c 0,0.27614 -0.22386,0.5 -0.5,0.5 -0.27614,0 -0.5,-0.22386 -0.5,-0.5 0,-0.27614 0.22386,-0.5 0.5,-0.5 0.27614,0 0.5,0.22386 0.5,0.5 z" transform="translate(13,6)"/><path style="fill:#a05a2c;fill-opacity:1;stroke:none" id="path3757-86" d="m 768,578.86218 c 0,0.27614 -0.22386,0.5 -0.5,0.5 -0.27614,0 -0.5,-0.22386 -0.5,-0.5 0,-0.27614 0.22386,-0.5 0.5,-0.5 0.27614,0 0.5,0.22386 0.5,0.5 z" transform="translate(6,6)"/><path style="fill:#a05a2c;fill-opacity:1;stroke:none" id="path3757-50" d="m 768,578.86218 c 0,0.27614 -0.22386,0.5 -0.5,0.5 -0.27614,0 -0.5,-0.22386 -0.5,-0.5 0,-0.27614 0.22386,-0.5 0.5,-0.5 0.27614,0 0.5,0.22386 0.5,0.5 z" transform="translate(7,-2)"/><path style="fill:#a05a2c;fill-opacity:1;stroke:none" id="path3757-28" d="m 768,578.86218 c 0,0.27614 -0.22386,0.5 -0.5,0.5 -0.27614,0 -0.5,-0.22386 -0.5,-0.5 0,-0.27614 0.22386,-0.5 0.5,-0.5 0.27614,0 0.5,0.22386 0.5,0.5 z" transform="translate(3,13)"/><path style="fill:#a05a2c;fill-opacity:1;stroke:none" id="path3757-6" d="m 768,578.86218 c 0,0.27614 -0.22386,0.5 -0.5,0.5 -0.27614,0 -0.5,-0.22386 -0.5,-0.5 0,-0.27614 0.22386,-0.5 0.5,-0.5 0.27614,0 0.5,0.22386 0.5,0.5 z" transform="translate(-2,10)"/></g></svg>