<svg xmlns="http://www.w3.org/2000/svg" xmlns:svg="http://www.w3.org/2000/svg" id="svg2" width="16" height="16" version="1.1" viewBox="0 0 16 16"><metadata id="metadata7"/><g id="layer1" transform="translate(0,-1036.3622)"><rect style="color:#000;clip-rule:nonzero;display:inline;overflow:visible;visibility:visible;opacity:1;isolation:auto;mix-blend-mode:normal;color-interpolation:sRGB;color-interpolation-filters:linearRGB;solid-color:#000;solid-opacity:1;fill:#ccc;fill-opacity:1;fill-rule:evenodd;stroke:none;stroke-width:.80000001;stroke-linecap:round;stroke-linejoin:miter;stroke-miterlimit:4;stroke-dasharray:none;stroke-dashoffset:0;stroke-opacity:1;color-rendering:auto;image-rendering:auto;shape-rendering:auto;text-rendering:auto;enable-background:accumulate" id="rect4198" width="16" height="16" x="0" y="1036.362" ry="0"/><path id="path4138" d="m 10.258019,1045.507 -4.9315088,3.2084 1.1592131,-3.6528 3.7722957,0.4444" style="fill:#585858;fill-opacity:1;fill-rule:evenodd;stroke:none;stroke-width:1px;stroke-linecap:butt;stroke-linejoin:miter;stroke-opacity:1"/><path style="fill:#585858;fill-opacity:1;fill-rule:evenodd;stroke:none;stroke-width:1px;stroke-linecap:butt;stroke-linejoin:miter;stroke-opacity:1" id="path4140" d="m 13.38913,1051.5151 -1.6273,-4.4851 2.682687,1.2663 -1.055387,3.2188"/><path style="fill:#585858;fill-opacity:1;fill-rule:evenodd;stroke:none;stroke-width:1px;stroke-linecap:butt;stroke-linejoin:miter;stroke-opacity:1" id="path4144" d="m 7.8799812,1048.3717 0.7234787,3.3481 2.7905591,-0.8681 -0.723478,-3.3481 z"/><path style="fill:#585858;fill-opacity:1;fill-rule:evenodd;stroke:none;stroke-width:1px;stroke-linecap:butt;stroke-linejoin:miter;stroke-opacity:1" id="path4154" d="m 0.68507307,1046.6156 1.29312333,3.0912 2.5765242,-1.5513 -1.2931235,-3.0913 z"/><path style="fill:#585858;fill-opacity:1;fill-rule:evenodd;stroke:none;stroke-width:1px;stroke-linecap:butt;stroke-linejoin:miter;stroke-opacity:1" id="path4156" d="m 12.151955,1044.811 1.764384,2.7354 2.279824,-2.1169 -1.764384,-2.7355 z"/><path id="path4168" d="m 12.167974,1039.7264 -0.433942,-3.4195 -2.8499825,0.5208 0.4339416,3.4194 z" style="fill:#585858;fill-opacity:1;fill-rule:evenodd;stroke:none;stroke-width:1px;stroke-linecap:butt;stroke-linejoin:miter;stroke-opacity:1"/><path style="fill:#585858;fill-opacity:1;fill-rule:evenodd;stroke:none;stroke-width:1px;stroke-linecap:butt;stroke-linejoin:miter;stroke-opacity:1" id="path4176" d="m 4.8794189,1037.542 -3.38935,2.7184 0.5617244,-3.3923 2.8276256,0.6739"/><path style="fill:#585858;fill-opacity:1;fill-rule:evenodd;stroke:none;stroke-width:1px;stroke-linecap:butt;stroke-linejoin:miter;stroke-opacity:1" id="path4182" d="m 3.1519701,1044.0256 -1.0150809,-1.9343 -1.62893939,1.199 1.01508099,1.9345 z"/><path style="fill:#585858;fill-opacity:1;fill-rule:evenodd;stroke:none;stroke-width:1px;stroke-linecap:butt;stroke-linejoin:miter;stroke-opacity:1" id="path4186" d="m 5.2099268,1038.5399 1.5103828,-2.0853 1.5463443,1.415 0.8630758,1.8618 -1.5823057,0.7448 -2.5892277,-0.6703 z"/><path id="path4188" d="m 8.44135,1042.7781 1.5103828,-2.0854 1.5463452,1.4151 0.863076,1.8618 -1.582307,0.7448 -2.5892275,-0.6703 z" style="fill:#585858;fill-opacity:1;fill-rule:evenodd;stroke:none;stroke-width:1px;stroke-linecap:butt;stroke-linejoin:miter;stroke-opacity:1"/><path style="fill:#585858;fill-opacity:1;fill-rule:evenodd;stroke:none;stroke-width:1px;stroke-linecap:butt;stroke-linejoin:miter;stroke-opacity:1" id="path4190" d="m 13.511734,1038.1263 2.442605,0.6306 -0.658346,2.0252 -1.321377,1.5469 -1.27758,-1.2203 -0.409721,-2.7307 z"/><path id="path4192" d="m 2.0027142,1050.0028 1.3342328,0.2769 -0.3596109,0.8893 -0.7217805,0.6791 -0.6978566,-0.5357 -0.2238036,-1.199 z" style="fill:#585858;fill-opacity:1;fill-rule:evenodd;stroke:none;stroke-width:1px;stroke-linecap:butt;stroke-linejoin:miter;stroke-opacity:1"/><path id="path4194" d="m 6.7094966,1042.5684 0.5318053,1.615 -1.2558384,0.3635 -1.2444886,-0.1866 0.1731104,-1.1688 1.2410475,-1.226 z" style="fill:#585858;fill-opacity:1;fill-rule:evenodd;stroke:none;stroke-width:1px;stroke-linecap:butt;stroke-linejoin:miter;stroke-opacity:1"/><path style="fill:#585858;fill-opacity:1;fill-rule:evenodd;stroke:none;stroke-width:1px;stroke-linecap:butt;stroke-linejoin:miter;stroke-opacity:1" id="path4196" d="m 7.1784704,1049.3513 0.8442001,2.4558 -1.9935469,0.5527 -1.9755301,-0.2839 0.2747995,-1.777 1.9700675,-1.8643 z"/><path style="fill:#585858;fill-opacity:1;fill-rule:evenodd;stroke:none;stroke-width:1px;stroke-linecap:butt;stroke-linejoin:miter;stroke-opacity:1" id="path4200" d="m 4.8181901,1041.8885 -1.3415512,1.0446 -0.7652115,-1.0601 -0.2434248,-1.2346 1.1588218,-0.2306 1.5723445,0.7556 z"/></g></svg>