<svg xmlns="http://www.w3.org/2000/svg" xmlns:svg="http://www.w3.org/2000/svg" id="svg4264" width="16" height="16" version="1.1" viewBox="0 0 16 16"><metadata id="metadata4269"/><g id="layer1" transform="translate(0,-1036.3621)"><rect id="XMLID_33_" width="16" height="16" x="0" y="1036.362" class="st0" style="fill:#fff"/><rect id="XMLID_32_" width="4" height="1" x="8" y="1040.362" class="st1" style="fill:#2090cf"/><rect id="XMLID_31_" width="3" height="1.02" x="13" y="1037.362" class="st1" style="fill:#2090cf"/><rect id="XMLID_30_" width="4" height="1" x="11" y="1049.362" class="st1" style="fill:#2090cf"/><rect id="XMLID_29_" width="2.995" height="1" x=".005" y="1044.362" class="st1" style="fill:#2090cf"/><rect id="XMLID_28_" width="4" height="1" x="5" y="1047.362" class="st1" style="fill:#2090cf"/><rect id="XMLID_27_" width="4.066" height="1" x=".934" y="1050.362" class="st1" style="fill:#2090cf"/><rect id="XMLID_26_" width="4" height="1" x="2" y="1038.362" class="st1" style="fill:#2090cf"/><rect id="XMLID_25_" width="4" height="1" x="4" y="1042.362" class="st1" style="fill:#2090cf"/><rect id="XMLID_24_" width="4" height="1" x="10" y="1045.362" class="st1" style="fill:#2090cf"/><g id="g25" transform="matrix(0.07235156,0,0,0.07235156,-25.927739,1028.6929)"><path id="path27" d="M 362.7,285.1" class="st3" style="fill:none;stroke:#1f3d8a;stroke-miterlimit:10"/></g><g id="g29" transform="matrix(0.07235156,0,0,0.07235156,-25.927739,1028.6929)"><path id="path31" d="M 354.7,296.1" class="st3" style="fill:none;stroke:#1f3d8a;stroke-miterlimit:10"/></g><g id="g33" transform="matrix(0.07235156,0,0,0.07235156,-25.927739,1028.6929)"><path id="path35" d="M 354.7,296.1" class="st4" style="fill:none;stroke:#9c672c;stroke-width:2;stroke-miterlimit:10;stroke-dasharray:2,1"/></g></g></svg>