<svg xmlns="http://www.w3.org/2000/svg" xmlns:svg="http://www.w3.org/2000/svg" id="svg1960" width="515.941" height="541.277" version="1.1"><metadata id="metadata3"/><defs id="defs1962"><marker id="ArrowEnd" markerHeight="3" markerUnits="strokeWidth" markerWidth="4" orient="auto" refX="0" refY="5" viewBox="0 0 10 10"><path id="path1965" d="M 0,0 10,5 0,10 Z"/></marker><marker id="ArrowStart" markerHeight="3" markerUnits="strokeWidth" markerWidth="4" orient="auto" refX="10" refY="5" viewBox="0 0 10 10"><path id="path1968" d="M 10,0 0,5 10,10 Z"/></marker></defs><rect style="opacity:1;fill:#fff;fill-opacity:1;stroke:none;stroke-width:30;stroke-linecap:square;stroke-linejoin:miter;stroke-miterlimit:4;stroke-dasharray:none;stroke-dashoffset:.60000002;stroke-opacity:1" id="rect4151" width="515.941" height="541.277" x="0" y="0"/><g id="g1970" transform="translate(34.549606,39.150631)"><path id="path1972" d="m 196.91,25.3815 c 0.06,-34 51.309,-34 51.275,0.958 l 0,142.6915 199.764,120.064 0,52.717 -198.805,-65.43 0,106.647 46.008,35.944 0,41.694 -70.927,-22.046 -70.927,22.046 0,-41.694 45.529,-35.944 0,-106.647 L 0,341.812 0,289.095 196.91,169.031 l 0,-143.6495 z" style="fill:#000;stroke:none"/></g></svg>