<svg xmlns="http://www.w3.org/2000/svg" xmlns:svg="http://www.w3.org/2000/svg" id="svg4264" width="15" height="16" version="1.1" viewBox="0 0 15 16"><metadata id="metadata4269"/><g id="layer1" transform="translate(0,-1036.3621)"><path style="opacity:1;fill:#fff;fill-opacity:1;stroke:none;stroke-width:.30000001;stroke-linecap:round;stroke-linejoin:round;stroke-miterlimit:4;stroke-dasharray:none;stroke-opacity:1" id="rect4152-0-5" d="M 3.3636355,1037.3621 C 2.019072,1037.3621 1,1038.3665 1,1039.6954 l 0,8.1667 c 0,0.707 0.6047586,1.1667 1.1818178,1.1667 l 0,2.3333 c 4.8181822,0 5.8181822,0 10.6363652,0 l 0,-2.3333 c 0.561592,0 1.181817,-0.5156 1.181817,-1.1667 l 0,-8.1667 c 0,-1.3289 -1.019072,-2.3333 -2.363636,-2.3333 z"/><path style="opacity:1;fill:#000;fill-opacity:1;stroke:none;stroke-width:.30000001;stroke-linecap:round;stroke-linejoin:round;stroke-miterlimit:4;stroke-dasharray:none;stroke-opacity:1" id="rect4152-0" d="m 3.9999977,1038.3625 c -1.137708,0 -2,0.8609 -2,2 l 0,7 c 0,0.606 0.511719,1 1,1 l 0,2 2.000001,0 1e-6,-2 5.0000013,0 0,2 2.000001,0 0,-2 c 0.475194,0 1,-0.4419 1,-1 l 0,-7 c 0,-1.1391 -0.862292,-2 -2.000001,-2 z"/><rect style="opacity:1;fill:#fff;fill-opacity:1;stroke:none;stroke-width:.30000001;stroke-linecap:round;stroke-linejoin:round;stroke-miterlimit:4;stroke-dasharray:none;stroke-opacity:1" id="rect4152-9-3" width="9" height="4" x="3" y="-1043.362" rx="1" ry="1" transform="scale(1,-1)"/><ellipse style="opacity:1;fill:#fff;fill-opacity:1;stroke:none;stroke-width:.30000001;stroke-linecap:round;stroke-linejoin:round;stroke-miterlimit:4;stroke-dasharray:none;stroke-opacity:1" id="path4177-4" cx="4" cy="-1046.362" rx="1" ry="1" transform="scale(1,-1)"/><ellipse style="opacity:1;fill:#fff;fill-opacity:1;stroke:none;stroke-width:.30000001;stroke-linecap:round;stroke-linejoin:round;stroke-miterlimit:4;stroke-dasharray:none;stroke-opacity:1" id="path4177-6-5" cx="11" cy="-1046.362" rx="1" ry="1" transform="scale(1,-1)"/></g></svg>