<svg xmlns="http://www.w3.org/2000/svg" xmlns:svg="http://www.w3.org/2000/svg" id="svg2" width="10" height="12" version="1.1" viewBox="0 0 10 12"><metadata id="metadata9"/><rect style="color:#000;clip-rule:nonzero;display:inline;overflow:visible;visibility:visible;opacity:1;isolation:auto;mix-blend-mode:normal;color-interpolation:sRGB;color-interpolation-filters:linearRGB;solid-color:#000;solid-opacity:1;fill:#344fff;fill-opacity:1;fill-rule:evenodd;stroke:none;stroke-width:1;stroke-linecap:butt;stroke-linejoin:miter;stroke-miterlimit:4;stroke-dasharray:none;stroke-dashoffset:0;stroke-opacity:1;color-rendering:auto;image-rendering:auto;shape-rendering:auto;text-rendering:auto;enable-background:accumulate" id="rect4136" width="10" height="12" x="0" y="0" ry="0"/><rect style="color:#000;clip-rule:nonzero;display:inline;overflow:visible;visibility:visible;opacity:1;isolation:auto;mix-blend-mode:normal;color-interpolation:sRGB;color-interpolation-filters:linearRGB;solid-color:#000;solid-opacity:1;fill:#fff;fill-opacity:1;fill-rule:evenodd;stroke:none;stroke-width:1;stroke-linecap:butt;stroke-linejoin:miter;stroke-miterlimit:4;stroke-dasharray:none;stroke-dashoffset:0;stroke-opacity:1;color-rendering:auto;image-rendering:auto;shape-rendering:auto;text-rendering:auto;enable-background:accumulate" id="rect4137" width="6" height="7" x="2" y="2"/><path id="bus-stop" d="m 2,1 -1,1 0,8 0.65625,0 c 0,0 0.1011489,1 0.81275,1 0.6891295,0 0.781,-1 0.781,-1 l 3.5,0 c 0,0 0.1143421,1 0.781,1 0.816469,0 0.81275,-1 0.81275,-1 L 9,10 9,2 8,1 Z M 3,2 7,2 7,3 3,3 Z M 2,4 8,4 8,7 2,7 Z M 2,8 3,8 3,9 2,9 Z M 7,8 8,8 8,9 7,9 Z" style="fill:#000;fill-opacity:1;stroke:none"/></svg>