<svg xmlns="http://www.w3.org/2000/svg" xmlns:svg="http://www.w3.org/2000/svg" id="svg2103" width="395.393" height="480" version="1.1"><metadata id="metadata3"/><defs id="defs2105"><marker id="ArrowEnd" markerHeight="3" markerUnits="strokeWidth" markerWidth="4" orient="auto" refX="0" refY="5" viewBox="0 0 10 10"><path id="path2108" d="M 0,0 10,5 0,10 Z"/></marker><marker id="ArrowStart" markerHeight="3" markerUnits="strokeWidth" markerWidth="4" orient="auto" refX="10" refY="5" viewBox="0 0 10 10"><path id="path2111" d="M 10,0 0,5 10,10 Z"/></marker></defs><rect style="opacity:1;fill:#fff;fill-opacity:1;stroke:none;stroke-width:30;stroke-linecap:square;stroke-linejoin:miter;stroke-miterlimit:4;stroke-dasharray:none;stroke-dashoffset:.60000002;stroke-opacity:1" id="rect4163" width="395.393" height="480" x="0" y="0"/><g id="g2113" transform="translate(20,24.940002)"><path id="path2115" d="M 179.237,0 C 138.982,0 83.388,11.502 60.384,21.087 37.38,30.672 22.044,40.257 17.252,64.219 L 0,197.06 l 0,183.045 29.712,0 0,28.705 c 0,35 51.218,35 51.218,0 l 0,-28.705 94.557,0 0.3,0 98.307,0 0,28.705 c 0,35 51.218,35 51.218,0 l 0,-28.705 29.712,0 0,-183.045 L 337.772,64.219 C 332.98,40.257 317.644,30.672 294.64,21.087 271.636,11.502 216.042,0 175.787,0" style="fill:#000;stroke:none"/><g id="g2117"><g id="g2119"><g id="g2121"><path id="path2123" d="m 299.682,322.723 c 13.568,0 24.568,-11.002 24.568,-24.57 0,-13.568 -11,-24.57 -24.568,-24.57 -13.568,0 -24.569,11.002 -24.569,24.57 0,13.568 11.001,24.57 24.569,24.57 z" style="fill:#fff;stroke:none"/><path id="path2125" d="M 299.682,298.153" style="fill:#fff;stroke:none"/></g><g id="g2127"><path id="path2129" d="m 55.342,322.723 c -13.568,0 -24.568,-11.002 -24.568,-24.57 0,-13.568 11,-24.57 24.568,-24.57 13.568,0 24.569,11.002 24.569,24.57 0,13.568 -11.001,24.57 -24.569,24.57 z" style="fill:#fff;stroke:none"/><path id="path2131" d="M 55.342,298.153" style="fill:#fff;stroke:none"/></g></g><path id="path2133" d="m 175.612,55.113 -71.136,0 c -14.378,0 -14.378,-21.566 0,-21.566 l 71.311,0 74.761,0 c 14.378,0 14.378,21.566 0,21.566 l -74.936,0 z" style="fill:#fff;stroke:none"/><path id="path2135" d="m 175.612,76.887 -109.897,0 c -15.188,0 -19.156,7.717 -21,19.423 l -13.428,96.348 c -1.252,9.235 1.419,18.402 14.178,18.402 l 130.322,0 133.772,0 c 12.759,0 15.43,-9.167 14.178,-18.402 L 310.309,96.31 c -1.844,-11.706 -5.812,-19.423 -21,-19.423 l -113.697,0 z" style="fill:#fff;stroke:none"/></g></g></svg>