<svg xmlns="http://www.w3.org/2000/svg" xmlns:svg="http://www.w3.org/2000/svg" id="svg2217" width="390.411" height="512.486" version="1.1"><metadata id="metadata3"/><defs id="defs2219"><marker id="ArrowEnd" markerHeight="3" markerUnits="strokeWidth" markerWidth="4" orient="auto" refX="0" refY="5" viewBox="0 0 10 10"><path id="path2222" d="M 0,0 10,5 0,10 Z"/></marker><marker id="ArrowStart" markerHeight="3" markerUnits="strokeWidth" markerWidth="4" orient="auto" refX="10" refY="5" viewBox="0 0 10 10"><path id="path2225" d="M 10,0 0,5 10,10 Z"/></marker></defs><rect style="opacity:1;fill:#fff;fill-opacity:1;stroke:none;stroke-width:30;stroke-linecap:square;stroke-linejoin:miter;stroke-miterlimit:4;stroke-dasharray:none;stroke-dashoffset:.60000002;stroke-opacity:1" id="rect4160" width="390.411" height="512.486" x="0" y="0"/><g id="g2227" transform="matrix(1.1188119,0,0,1,20.615738,18.940395)"><path id="path2229" d="m 156.811,399.297 0.06,0 67.572,0 49.363,72.367 39.816,0 -69.012,-103.518 c 23.012,-3.708 45.919,-27.708 45.919,-56.958 l 0,-213.858 c 0,-30.192 -25.4,-57.906 -59.907,-57.906 l -73.53,-0.048 0.003,0 L 83,39.424 c -34.507,0 -59.907,27.714 -59.907,57.906 l 0,213.858 c 0,29.25 22.907,53.25 45.919,56.958 L 0,471.664 l 39.816,0 49.363,-72.367 67.572,0 0.06,0 z" style="fill:#000;stroke:none"/><g id="g2231"><path id="path2233" d="m 134.768,33.184 c -9.165,0 -16.591,-7.428 -16.591,-16.593 0,-9.163 7.426,-16.591 16.591,-16.591 9.163,0 16.591,7.428 16.591,16.591 0,9.165 -7.428,16.593 -16.591,16.593 z" style="fill:#000;stroke:none"/><path id="path2235" d="m 178.854,33.184 c 9.165,0 16.591,-7.428 16.591,-16.593 C 195.445,7.428 188.019,0 178.854,0 c -9.163,0 -16.591,7.428 -16.591,16.591 0,9.165 7.428,16.593 16.591,16.593 z" style="fill:#000;stroke:none"/><path id="path2237" d="m 231.263,336.951 c 14.505,0 26.263,-11.759 26.263,-26.263 0,-14.505 -11.758,-26.263 -26.263,-26.263 -14.505,0 -26.263,11.758 -26.263,26.263 0,14.504 11.758,26.263 26.263,26.263 z" style="fill:#fff;stroke:none"/><path id="path2239" d="m 156.811,198.014 0.06,0 71.751,0 c 16.5,0 30,-11.326 29.848,-29.826 l 0,-38.5 c 0,-16 -10.348,-29.962 -29.848,-29.962 l -71.751,0 -0.12,0 -71.751,0 c -19.5,0 -29.848,13.962 -29.848,29.962 l 0,38.5 C 55,186.688 68.5,198.014 85,198.014 l 71.751,0 0.06,0 z" style="fill:#fff;stroke:none"/><path id="path2241" d="m 156.811,88.201 0.06,0 29.001,0 c 5.5,0 9.816,-4.513 9.816,-9.763 l 0,-17 c 0,-5.25 -4.566,-9.66 -9.816,-9.66 l -29.001,0 -0.06,0 -0.06,0 -29.001,0 c -5.25,0 -9.816,4.41 -9.816,9.66 l 0,17 c 0,5.25 4.316,9.763 9.816,9.763 l 29.001,0 0.06,0 z" style="fill:#fff;stroke:none"/><path id="path2243" d="m 81.75,336.951 c -14.505,0 -26.263,-11.759 -26.263,-26.263 0,-14.505 11.758,-26.263 26.263,-26.263 14.505,0 26.263,11.758 26.263,26.263 0,14.504 -11.758,26.263 -26.263,26.263 z" style="fill:#fff;stroke:none"/></g></g></svg>