<svg xmlns="http://www.w3.org/2000/svg" xmlns:svg="http://www.w3.org/2000/svg" id="svg2" width="16" height="16" version="1.1"><path id="path4" d="M 0,16 16,16 16,0 0,0 0,16 Z" style="fill:#fff;fill-rule:evenodd;stroke:none;stroke-width:.25"/><metadata id="metadata26"/><g id="g4142" transform="matrix(1.0308709,0,0,1.0490975,-0.9384079,-1.0939817)"><path style="fill:#000;fill-rule:evenodd;stroke:none" id="path8" d="m 1.866667,15.36 0,-0.74667 1.013333,0 0,-0.53333 1.493333,0 0,0.53333 3.093334,0 0,-0.53333 1.493333,0 0,0.53333 1.813333,0 0,-2.142652 4.693334,0 0,2.889322 z"/><path style="fill:#000;fill-rule:evenodd;stroke:none" id="path10" d="M 3.36,13.81333 A 1.4933333,1.4933333 0 0 1 1.866795,12.30045 L 1.899715,9.78541 A 2.1333333,2.1333333 0 0 1 1.931945,9.44288 L 2.063603,8.69622 A 2.1333333,2.1333333 0 0 1 2.186534,8.26751 L 2.932849,6.42032 A 0.8,0.8 0 0 1 3.160366,6.10716 l 1e-6,10e-6 C 3.487211,5.83291 4.32,5.49333 5.644587,5.43299 l 5e-6,0 A 1.401056,1.401056 0 0 0 4.555639,4.41404 l -0.673527,0 A 0.15284267,0.15284267 0 0 1 3.749746,4.18477 0.15284267,0.15284267 0 0 1 3.882112,4.10837 l 4.075776,0 a 0.15284267,0.15284267 0 0 1 0.132366,0.22927 0.15284267,0.15284267 0 0 1 -0.132366,0.0764 l -0.673527,0 A 1.401056,1.401056 0 0 0 6.195408,5.43299 l 5e-6,0 C 7.52,5.49329 8.352789,5.83291 8.679637,6.10717 l 1e-6,-10e-6 A 0.8,0.8 0 0 1 8.907155,6.42032 L 9.65347,8.26751 a 2.1333333,2.1333333 0 0 1 0.122931,0.42871 l 0.131658,0.74666 a 2.1333333,2.1333333 0 0 1 0.03223,0.34253 l 0.03292,2.51504 A 1.4933333,1.4933333 0 0 1 8.48,13.81333 l -5.12,0 z"/><path style="fill:#fff;fill-rule:evenodd;stroke:none" id="path12" d="m 3.893333,12.26667 a 0.50666667,0.50666667 0 0 0 -0.76,-0.43879 0.50666667,0.50666667 0 0 0 0,0.87757 0.50666667,0.50666667 0 0 0 0.76,-0.43878 z"/><path style="fill:#fff;fill-rule:evenodd;stroke:none" id="path14" d="m 8.96,12.26667 a 0.50666667,0.50666667 0 0 0 -0.76,-0.43879 0.50666667,0.50666667 0 0 0 0,0.87757 0.50666667,0.50666667 0 0 0 0.76,-0.43878 z"/><path style="fill:#fff;fill-rule:evenodd;stroke:none" id="path16" d="m 6.426667,10.34667 a 0.50666667,0.50666667 0 0 0 -0.76,-0.43879 0.50666667,0.50666667 0 0 0 0,0.87757 0.50666667,0.50666667 0 0 0 0.76,-0.43878 z"/><path style="fill:#fff;fill-rule:evenodd;stroke:none" id="path18" d="M 4.266667,8.5919 3.121223,8.69212 A 0.32,0.32 0 0 1 2.796634,8.25346 L 3.278701,7.06031 A 0.8,0.8 0 0 1 3.695059,6.62916 l 2e-6,0 C 4.084843,6.45563 4.96,6.24 5.92,6.24 c 0.96,0 1.835157,0.21563 2.224939,0.38916 l 2e-6,0 A 0.8,0.8 0 0 1 8.561299,7.06031 L 9.043366,8.25346 A 0.32,0.32 0 0 1 8.718777,8.69212 L 7.573333,8.5919 C 7.148288,8.5547 6.453333,8.5333 5.92,8.5333 c -0.533333,0 -1.228288,0.0214 -1.653333,0.0586 z"/><path style="fill:#fff;fill-rule:evenodd;stroke:none" id="path20" d="m 5.3,4.41404 1.239999,0 A 1.7067413,1.7067413 0 0 0 5.919994,5.28462 l 1.1e-5,0 A 1.7067413,1.7067413 0 0 0 5.300001,4.41404 Z"/></g></svg>