<svg xmlns="http://www.w3.org/2000/svg" xmlns:svg="http://www.w3.org/2000/svg" id="svg2" width="16" height="13" version="1.1" viewBox="0 0 16 13"><metadata id="metadata7"/><g id="layer1" transform="translate(-420,-569.3622)"><rect style="opacity:1;fill:#fff;fill-opacity:1;stroke:none;stroke-width:1;stroke-linecap:round;stroke-linejoin:miter;stroke-miterlimit:4;stroke-dasharray:none;stroke-dashoffset:.60000002;stroke-opacity:1" id="rect4145" width="14" height="7" x="421" y="575.362"/><path style="opacity:1;fill:#999;fill-opacity:1;stroke:none;stroke-width:1;stroke-linecap:round;stroke-linejoin:miter;stroke-miterlimit:4;stroke-dasharray:none;stroke-dashoffset:.60000002;stroke-opacity:1" id="path4140-6" d="m -420,-575.36218 a 8,5.9999995 0 0 1 -4,5.19615 8,5.9999995 0 0 1 -8,0 8,5.9999995 0 0 1 -4,-5.19615 l 8,0 z" transform="scale(-1,-1)"/><rect style="opacity:1;fill:#999;fill-opacity:1;stroke:none;stroke-width:1;stroke-linecap:round;stroke-linejoin:miter;stroke-miterlimit:4;stroke-dasharray:none;stroke-dashoffset:.60000002;stroke-opacity:1" id="rect4142-0" width="1" height="7" x="420" y="575.362"/><rect style="opacity:1;fill:#999;fill-opacity:1;stroke:none;stroke-width:1;stroke-linecap:round;stroke-linejoin:miter;stroke-miterlimit:4;stroke-dasharray:none;stroke-dashoffset:.60000002;stroke-opacity:1" id="rect4144-4" width="1" height="7" x="435" y="575.362"/><path style="opacity:1;fill:#000;fill-opacity:1;stroke:none;stroke-width:.30000001;stroke-linecap:round;stroke-linejoin:round;stroke-miterlimit:4;stroke-dasharray:none;stroke-opacity:1" id="rect4152-0" d="m 422.90909,576.3622 c -0.51714,0 -0.90909,0.43045 -0.90909,1 l 0,4 c 0,0.616 0.3541,1 0.90909,1 l 3.18182,0 c 0.57005,0 0.90909,-0.3619 0.90909,-1 l 0,-4 c 0,-0.56955 -0.39195,-1 -0.90909,-1 z"/><rect style="opacity:1;fill:#fff;fill-opacity:1;stroke:none;stroke-width:.30000001;stroke-linecap:round;stroke-linejoin:round;stroke-miterlimit:4;stroke-dasharray:none;stroke-opacity:1" id="rect4152-9-3" width="4.091" height="2" x="422.455" y="-578.862" rx=".455" ry=".5" transform="scale(1,-1)"/><circle style="opacity:1;fill:#fff;fill-opacity:1;stroke:none;stroke-width:.30000001;stroke-linecap:round;stroke-linejoin:round;stroke-miterlimit:4;stroke-dasharray:none;stroke-opacity:1" id="path4177-4" cx="423.155" cy="-580.662" r=".7" transform="scale(1,-1)"/><circle style="opacity:1;fill:#fff;fill-opacity:1;stroke:none;stroke-width:.30000001;stroke-linecap:round;stroke-linejoin:round;stroke-miterlimit:4;stroke-dasharray:none;stroke-opacity:1" id="path4177-6-5" cx="425.899" cy="-580.662" r=".7" transform="scale(1,-1)"/><path style="opacity:1;fill:#000;fill-opacity:1;stroke:none;stroke-width:.30000001;stroke-linecap:round;stroke-linejoin:round;stroke-miterlimit:4;stroke-dasharray:none;stroke-opacity:1" id="rect4152-0-3" d="m 429.90909,576.3622 c -0.51714,0 -0.90909,0.43045 -0.90909,1 l 0,4 c 0,0.616 0.3541,1 0.90909,1 l 3.18182,0 c 0.57005,0 0.90909,-0.3619 0.90909,-1 l 0,-4 c 0,-0.56955 -0.39195,-1 -0.90909,-1 z"/><rect style="opacity:1;fill:#fff;fill-opacity:1;stroke:none;stroke-width:.30000001;stroke-linecap:round;stroke-linejoin:round;stroke-miterlimit:4;stroke-dasharray:none;stroke-opacity:1" id="rect4152-9-3-4" width="4.091" height="2" x="429.455" y="-578.862" rx=".455" ry=".5" transform="scale(1,-1)"/><circle style="opacity:1;fill:#fff;fill-opacity:1;stroke:none;stroke-width:.30000001;stroke-linecap:round;stroke-linejoin:round;stroke-miterlimit:4;stroke-dasharray:none;stroke-opacity:1" id="path4177-4-6" cx="430.155" cy="-580.662" r=".7" transform="scale(1,-1)"/><circle style="opacity:1;fill:#fff;fill-opacity:1;stroke:none;stroke-width:.30000001;stroke-linecap:round;stroke-linejoin:round;stroke-miterlimit:4;stroke-dasharray:none;stroke-opacity:1" id="path4177-6-5-6" cx="432.899" cy="-580.662" r=".7" transform="scale(1,-1)"/></g></svg>