<svg xmlns="http://www.w3.org/2000/svg" xmlns:svg="http://www.w3.org/2000/svg" id="svg4264" width="15" height="16" version="1.1" viewBox="0 0 15 16"><metadata id="metadata4269"/><g id="layer1" transform="translate(0,-1036.3621)"><path id="path4146" d="m 4.376685,1037.1121 c -1.372083,0 -2.376687,0.5446 -2.376687,1.9962 l 2e-6,12.2538 11.000001,0 1e-6,-12.2538 c 0,-1.3422 -1.035853,-1.9962 -2.376687,-1.9962 z" style="opacity:1;fill:#fff;fill-opacity:1;stroke:#fff;stroke-width:1.50000024;stroke-linecap:round;stroke-linejoin:round;stroke-miterlimit:4;stroke-dasharray:none;stroke-opacity:1"/><path style="opacity:1;fill:#000;fill-opacity:1;stroke:none;stroke-width:.30000001;stroke-linecap:round;stroke-linejoin:round;stroke-miterlimit:4;stroke-dasharray:none;stroke-opacity:1" id="rect4152-0" d="m 3.999999,1037.3621 c -1.137708,0 -2.0000013,0.8609 -2.000001,2 l 1.8e-6,8 c 2e-7,1.232 0.7790292,2 2.0000002,2 l 7.000001,0 c 1.254116,0 2,-0.7238 2,-2 l 1e-6,-8 c 0,-1.1391 -0.862292,-2 -2.000001,-2 z"/><rect style="opacity:1;fill:#fff;fill-opacity:1;stroke:none;stroke-width:.30000001;stroke-linecap:round;stroke-linejoin:round;stroke-miterlimit:4;stroke-dasharray:none;stroke-opacity:1" id="rect4152-9-3" width="9" height="4" x="3" y="-1042.362" rx="1" ry="1" transform="scale(1,-1)"/><ellipse style="opacity:1;fill:#fff;fill-opacity:1;stroke:none;stroke-width:.30000001;stroke-linecap:round;stroke-linejoin:round;stroke-miterlimit:4;stroke-dasharray:none;stroke-opacity:1" id="path4177-4" cx="4" cy="-1046.362" rx="1" ry="1" transform="scale(1,-1)"/><ellipse style="opacity:1;fill:#fff;fill-opacity:1;stroke:none;stroke-width:.30000001;stroke-linecap:round;stroke-linejoin:round;stroke-miterlimit:4;stroke-dasharray:none;stroke-opacity:1" id="path4177-6-5" cx="11" cy="-1046.362" rx="1" ry="1" transform="scale(1,-1)"/><rect style="opacity:1;fill:#c87137;fill-opacity:1;stroke:none;stroke-width:1;stroke-linecap:round;stroke-linejoin:bevel;stroke-miterlimit:4;stroke-dasharray:none;stroke-opacity:1" id="rect4249-2" width="15" height="2" x="0" y="1050.362" rx="0" ry="0"/><rect style="opacity:1;fill:#000;fill-opacity:1;stroke:none;stroke-width:1;stroke-linecap:round;stroke-linejoin:miter;stroke-miterlimit:4;stroke-dasharray:none;stroke-dashoffset:.60000002;stroke-opacity:1" id="rect4144" width="2" height="2" x="4" y="1049.362" rx="0" ry="0"/><rect style="opacity:1;fill:#000;fill-opacity:1;stroke:none;stroke-width:1;stroke-linecap:round;stroke-linejoin:miter;stroke-miterlimit:4;stroke-dasharray:none;stroke-dashoffset:.60000002;stroke-opacity:1" id="rect4146" width="2" height="2" x="9" y="1049.362" rx="0" ry="0"/></g></svg>