<svg xmlns="http://www.w3.org/2000/svg" xmlns:svg="http://www.w3.org/2000/svg" id="svg2" width="16" height="16" version="1.0"><metadata id="metadata7"/><g id="layer1" transform="translate(-767.63214,-289.54467)"><rect style="fill:#333;fill-opacity:1;stroke:none;stroke-width:5;stroke-miterlimit:4;stroke-dasharray:none;stroke-opacity:1" id="rect3183" width="16" height="16" x="767.632" y="289.529"/><g id="g3197" transform="matrix(0.04078562,0,0,0.04078562,767.78237,274.24304)"><path style="fill:#fff;fill-opacity:1;fill-rule:evenodd;stroke:#000;stroke-width:5.01541185;stroke-linecap:butt;stroke-linejoin:miter;stroke-miterlimit:4;stroke-dasharray:none;stroke-opacity:1" id="path3199" d="m 331.94786,761.34772 c 0,0 33.78147,-78.4488 32.13874,-117.88126 -1.64273,-39.43245 -40.80405,-99.32339 -39.6378,-132.25702 1.16625,-32.93362 23.93544,-55.41638 17.85487,-74.75396 -6.08057,-19.33758 -22.82671,-36.29032 -39.63781,-36.29032 -16.81109,0 -30.70046,16.95275 -36.78103,36.29032 -6.08057,19.33757 16.68862,41.82034 17.85487,74.75396 1.16625,32.93363 -37.99507,92.82457 -39.6378,132.25702 -1.64273,39.43246 29.28198,117.88126 29.28198,117.88126 l 58.56398,0 z"/><rect style="fill:red;fill-opacity:1;stroke:none;stroke-width:5;stroke-miterlimit:4;stroke-dasharray:none;stroke-opacity:1" id="rect3201" width="38.881" height="38.223" x="284.651" y="500.236"/></g><g style="fill:#fff;fill-opacity:1;stroke:none;stroke-width:1px;stroke-linecap:butt;stroke-linejoin:miter;stroke-opacity:1" id="text4146-7" transform="matrix(1.0297514,0,0,1,-23.436212,0.03559125)"><path id="path4199" d="m 772.18408,297.95572 q 0,-2.2522 0.60425,-3.41187 0.61035,-1.15966 1.79443,-1.15966 1.04981,0 1.65406,0.93994 0.73242,1.13525 0.73242,3.63159 0,2.23999 -0.60425,3.40576 -0.60425,1.15967 -1.79443,1.15967 -1.04981,0 -1.72119,-1.02539 -0.66529,-1.02539 -0.66529,-3.54004 z m 0.92163,0 q 0,2.17895 0.41504,2.92358 0.42114,0.73853 1.07422,0.73853 0.61646,0 1.03149,-0.75073 0.41504,-0.75074 0.41504,-2.91138 0,-2.18506 -0.42114,-2.92358 -0.41504,-0.73853 -1.08032,-0.73853 -0.61035,0 -1.02539,0.75073 -0.40894,0.75073 -0.40894,2.91138 z"/></g><g style="fill:#fff;fill-opacity:1;stroke:none;stroke-width:1px;stroke-linecap:butt;stroke-linejoin:miter;stroke-opacity:1" id="text4146-7-1"><path id="path4196" d="m 770.7179,302.49756 -0.90332,0 0,-7.00073 q -0.31128,0.36621 -0.83619,0.75073 -0.5249,0.37842 -0.96435,0.57373 l 0,-1.06201 q 0.74463,-0.42725 1.31225,-1.0437 0.57373,-0.61646 0.80567,-1.2024 l 0.58594,0 0,8.98438 z"/></g></g></svg>