<svg xmlns="http://www.w3.org/2000/svg" xmlns:svg="http://www.w3.org/2000/svg" id="svg2" width="16" height="16" version="1.0"><metadata id="metadata7"/><g id="layer1" transform="translate(-767.63214,-289.54467)"><rect style="fill:#333;fill-opacity:1;stroke:none;stroke-width:5;stroke-miterlimit:4;stroke-dasharray:none;stroke-opacity:1" id="rect3183" width="16" height="16" x="767.632" y="289.529"/><g id="g3197" transform="matrix(0.04078562,0,0,0.04078562,767.78237,274.24304)"><path style="fill:#fff;fill-opacity:1;fill-rule:evenodd;stroke:#000;stroke-width:5.01541185;stroke-linecap:butt;stroke-linejoin:miter;stroke-miterlimit:4;stroke-dasharray:none;stroke-opacity:1" id="path3199" d="m 331.94786,761.34772 c 0,0 33.78147,-78.4488 32.13874,-117.88126 -1.64273,-39.43245 -40.80405,-99.32339 -39.6378,-132.25702 1.16625,-32.93362 23.93544,-55.41638 17.85487,-74.75396 -6.08057,-19.33758 -22.82671,-36.29032 -39.63781,-36.29032 -16.81109,0 -30.70046,16.95275 -36.78103,36.29032 -6.08057,19.33757 16.68862,41.82034 17.85487,74.75396 1.16625,32.93363 -37.99507,92.82457 -39.6378,132.25702 -1.64273,39.43246 29.28198,117.88126 29.28198,117.88126 l 58.56398,0 z"/><rect style="fill:red;fill-opacity:1;stroke:none;stroke-width:5;stroke-miterlimit:4;stroke-dasharray:none;stroke-opacity:1" id="rect3201" width="38.881" height="38.223" x="284.651" y="500.236"/></g><g style="fill:#fff;fill-opacity:1;stroke:none;stroke-width:1px;stroke-linecap:butt;stroke-linejoin:miter;stroke-opacity:1" id="text4146"><path id="path4193" d="m 769.68704,300.62961 1.13593,-0.11791 q 0.27198,1.70974 1.5999,1.70974 0.59196,0 1.07194,-0.36848 0.48797,-0.37585 0.82394,-1.32652 0.33599,-0.95068 0.33599,-2.21825 l 0,-0.2653 q -0.36799,0.65589 -0.99194,1.03911 -0.62397,0.38322 -1.27193,0.38322 -1.17592,0 -2.03187,-0.94331 -0.84795,-0.95067 -0.84795,-2.59409 0,-1.695 0.87994,-2.66779 0.88795,-0.98015 2.15188,-0.98015 0.89594,0 1.67189,0.54535 0.77596,0.54535 1.19993,1.60657 0.42397,1.06121 0.42397,3.05837 0,2.22561 -0.45597,3.45633 -0.45597,1.23072 -1.23993,1.79818 -0.77595,0.56746 -1.74389,0.56746 -1.09593,0 -1.83189,-0.68537 -0.73595,-0.69274 -0.87994,-1.99716 z m 4.8397,-4.76812 q 0,-1.15702 -0.55996,-1.82028 -0.55997,-0.66326 -1.28792,-0.66326 -0.75996,0 -1.35992,0.70747 -0.59197,0.70748 -0.59197,1.88662 0,1.06122 0.56797,1.695 0.56796,0.62641 1.35992,0.62641 0.78395,0 1.32792,-0.63378 0.54396,-0.63378 0.54396,-1.79818 z"/></g></g></svg>