<svg xmlns="http://www.w3.org/2000/svg" xmlns:svg="http://www.w3.org/2000/svg" id="svg2" width="420" height="420" version="1.0"><metadata id="metadata7"/><g id="layer1" transform="translate(-192.14286,-170.57647)"><rect style="opacity:1;fill:#fff;fill-opacity:1;stroke:none;stroke-width:1;stroke-linecap:square;stroke-linejoin:miter;stroke-miterlimit:2;stroke-dasharray:none;stroke-dashoffset:.60000002;stroke-opacity:1" id="rect4141" width="420" height="420" x="192.143" y="170.576"/><path style="fill:#000;fill-opacity:1;stroke:none;stroke-width:10;stroke-miterlimit:4;stroke-dasharray:none;stroke-opacity:1" id="path3177" d="m -617.14283,-679.28571 a 105.71429,105.71429 0 0 1 -105.71429,105.71429 105.71429,105.71429 0 0 1 -105.71428,-105.71429 105.71429,105.71429 0 0 1 105.71428,-105.71428 105.71429,105.71429 0 0 1 105.71429,105.71428 z" transform="matrix(1.2027027,0,0,1.2027027,1331.525,1198.2695)"/><path style="fill:#2a7fff;fill-opacity:1;stroke:none;stroke-width:10;stroke-miterlimit:4;stroke-dasharray:none;stroke-opacity:1" id="path3173" d="m -94.285709,-666.42859 a 52.857143,52.857143 0 0 1 -52.857141,52.85714 52.857143,52.857143 0 0 1 -52.85715,-52.85714 52.857143,52.857143 0 0 1 52.85715,-52.85714 52.857143,52.857143 0 0 1 52.857141,52.85714 z" transform="matrix(1.6936937,0,0,1.6936937,711.35776,1510.0167)"/><path style="fill:red;fill-opacity:1;stroke:none;stroke-width:10;stroke-miterlimit:4;stroke-dasharray:none;stroke-opacity:1" id="path3171" d="m -5.7142868,-509.28574 a 30,30 0 0 1 -30.0000002,30 30,30 0 0 1 -30,-30 30,30 0 0 1 30,-30 30,30 0 0 1 30.0000002,30 z" transform="matrix(1.8587301,0,0,1.8587301,528.52605,1327.9155)"/><path style="fill:#ff0;fill-opacity:1;stroke:none;stroke-width:10;stroke-miterlimit:4;stroke-dasharray:none;stroke-opacity:1" id="path3167" d="M 0,-405 A 14.285714,14.285714 0 0 1 -14.285714,-390.71429 14.285714,14.285714 0 0 1 -28.571428,-405 14.285714,14.285714 0 0 1 -14.285714,-419.28571 14.285714,14.285714 0 0 1 0,-405 Z" transform="matrix(1.9666667,0,0,1.9666667,490.23807,1177.7908)"/><g id="g3191" transform="translate(-108.57143,-2.8571429)"><path id="path3155" d="M 394.28572,178.07647 C 394.28572,178.07647 410.26887,190.53866 408.57143,223.79075 C 406.87399,257.04284 340.33269,330.77939 340,383.79075 C 339.66731,436.80211 406.36284,516.02341 408.57143,549.50504 C 410.78002,582.98667 397.14286,592.36218 397.14286,592.36218" style="fill:none;fill-rule:evenodd;stroke:#000;stroke-width:15;stroke-linecap:butt;stroke-linejoin:miter;stroke-miterlimit:4;stroke-dasharray:none;stroke-opacity:1"/><path id="path3157" d="M 408.57143,552.36218 L 408.57143,218.07646" style="fill:none;fill-rule:evenodd;stroke:#000;stroke-width:10;stroke-linecap:butt;stroke-linejoin:miter;stroke-miterlimit:4;stroke-dasharray:none;stroke-opacity:1"/></g></g></svg>