<svg xmlns="http://www.w3.org/2000/svg" xmlns:svg="http://www.w3.org/2000/svg" xmlns:xlink="http://www.w3.org/1999/xlink" id="svg1" width="470" height="470.86" version="1.0"><metadata id="metadata3"/><defs id="defs3"><linearGradient id="linearGradient122"><stop id="stop123" offset="0" style="stop-color:red;stop-opacity:1"/><stop id="stop124" offset="1" style="stop-color:#761414;stop-opacity:1"/></linearGradient><linearGradient id="linearGradient118"><stop id="stop119" offset="0" style="stop-color:#fff;stop-opacity:1"/><stop id="stop120" offset="1" style="stop-color:#929648;stop-opacity:0"/></linearGradient><linearGradient id="linearGradient90"><stop id="stop91" offset="0" style="stop-color:#997c75;stop-opacity:1"/><stop id="stop92" offset="1" style="stop-color:#929648;stop-opacity:1"/></linearGradient><radialGradient id="radialGradient93" cx="257.644" cy="341.4" r="555.546" fx="257.644" fy="341.4" gradientTransform="scale(1.020069,0.980326)" gradientUnits="userSpaceOnUse" xlink:href="#linearGradient90"/><linearGradient id="linearGradient125" x1="457.41" x2="602.93" y1="292.322" y2="528.506" gradientTransform="scale(0.965896,1.035308)" gradientUnits="userSpaceOnUse" xlink:href="#linearGradient122"/><linearGradient id="linearGradient129" x1="408.173" x2="411.054" y1="307.255" y2="696.273" gradientTransform="matrix(1.021654,0,0,0.978805,0,-8.571429)" gradientUnits="userSpaceOnUse" xlink:href="#linearGradient118"/><linearGradient id="linearGradient131" x1="408.173" x2="411.054" y1="307.255" y2="696.273" gradientTransform="matrix(1.021654,0,0,0.978805,0,-8.571429)" gradientUnits="userSpaceOnUse" xlink:href="#linearGradient118"/><linearGradient id="linearGradient133" x1="301.981" x2="481.555" y1="354.118" y2="624.127" gradientTransform="scale(1.021654,0.978805)" gradientUnits="userSpaceOnUse" xlink:href="#linearGradient118"/></defs><g id="layer1" transform="translate(-182.14285,-260.21931)"><path id="path85" d="M 637.14285,486.64789 A 220,211.42857 0 1 1 197.14285,486.64789 A 220,211.42857 0 1 1 637.14285,486.64789 z" style="fill:url(#radialGradient93);fill-opacity:1;fill-rule:evenodd;stroke:none;stroke-width:30;stroke-linecap:butt;stroke-linejoin:round;marker:none;marker-start:none;marker-mid:none;marker-end:none;stroke-miterlimit:4;stroke-dasharray:none;stroke-dashoffset:0;stroke-opacity:1;visibility:visible;display:inline"/><path id="path94" d="M 394.85268,292.15625 C 322.25529,299.2018 254.03609,346.81512 225.52695,414.41895 C 192.77846,488.77754 215.78223,583.10321 278.78875,634.31019 C 341.76742,688.99027 438.51048,700.70417 512.37375,661.67624 C 574.31933,630.17505 619.29231,564.55185 620.20104,494.28335 C 623.66372,423.54731 583.02349,353.53899 521.23,319.52052 C 483.21911,297.58343 438.50599,288.27109 394.85268,292.15625 z" style="opacity:.68000034;fill:url(#linearGradient133);fill-opacity:1;fill-rule:evenodd;stroke:none;stroke-width:30;stroke-linecap:butt;stroke-linejoin:round;marker:none;marker-start:none;marker-mid:none;marker-end:none;stroke-miterlimit:4;stroke-dashoffset:0;stroke-opacity:1;visibility:visible;display:inline"/><path id="path9" d="M 325.71428,292.36218 C 420.78242,291.96605 434.59377,366.33984 405.71428,409.50504 C 368.59394,483.76824 325.35056,529.14132 362.85714,583.79075 C 395.92588,628.28806 486.94969,650.70223 511.42857,543.79075 C 543.48972,479.35216 568.05607,451.84683 631.42857,478.07647" style="fill:none;fill-opacity:1;fill-rule:evenodd;stroke:url(#linearGradient125);stroke-width:25;stroke-linecap:butt;stroke-linejoin:round;marker:none;marker-start:none;marker-mid:none;marker-end:none;stroke-miterlimit:4;stroke-dasharray:50,25;stroke-dashoffset:0;stroke-opacity:1;visibility:visible;display:inline"/><path id="path8" d="M 637.14285,486.64789 A 220,211.42857 0 1 1 197.14285,486.64789 A 220,211.42857 0 1 1 637.14285,486.64789 z" style="fill:none;fill-opacity:1;fill-rule:evenodd;stroke:#000;stroke-width:30;stroke-linecap:butt;stroke-linejoin:round;marker:none;marker-start:none;marker-mid:none;marker-end:none;stroke-miterlimit:4;stroke-dasharray:none;stroke-dashoffset:0;stroke-opacity:1;visibility:visible;display:inline"/></g></svg>