<svg xmlns="http://www.w3.org/2000/svg" xmlns:svg="http://www.w3.org/2000/svg" id="svg2" width="140" height="140" version="1.0"><metadata id="metadata7"/><g id="layer1" transform="translate(-257.14284,-335.21933)"><rect style="opacity:1;fill:#fff;fill-opacity:1;stroke:none;stroke-width:1;stroke-linecap:square;stroke-linejoin:miter;stroke-miterlimit:2;stroke-dasharray:none;stroke-dashoffset:.60000002;stroke-opacity:1" id="rect4138" width="140" height="140" x="257.143" y="335.219"/><path style="fill:#999;fill-opacity:1;stroke-width:5;stroke-miterlimit:4;stroke-dasharray:none" id="path2385" d="m 339.99999,342.36218 a 15.714286,15.714286 0 0 1 -15.71428,15.71429 15.714286,15.714286 0 0 1 -15.71429,-15.71429 15.714286,15.714286 0 0 1 15.71429,-15.71428 15.714286,15.714286 0 0 1 15.71428,15.71428 z" transform="translate(48.571429,14.285715)"/><path id="path2387" d="m 339.99999,342.36218 a 15.714286,15.714286 0 0 1 -15.71428,15.71429 15.714286,15.714286 0 0 1 -15.71429,-15.71429 15.714286,15.714286 0 0 1 15.71429,-15.71428 15.714286,15.714286 0 0 1 15.71428,15.71428 z" transform="translate(-42.857147,34.285714)" style="fill:#999;fill-opacity:1;stroke-width:5;stroke-miterlimit:4;stroke-dasharray:none"/><path style="fill:#999;fill-opacity:1;stroke-width:5;stroke-miterlimit:4;stroke-dasharray:none" id="path2389" d="m 339.99999,342.36218 a 15.714286,15.714286 0 0 1 -15.71428,15.71429 15.714286,15.714286 0 0 1 -15.71429,-15.71429 15.714286,15.714286 0 0 1 15.71429,-15.71428 15.714286,15.714286 0 0 1 15.71428,15.71428 z" transform="translate(8.5714257,111.42858)"/><path id="path2391" d="m 339.99999,342.36218 a 15.714286,15.714286 0 0 1 -15.71428,15.71429 15.714286,15.714286 0 0 1 -15.71429,-15.71429 15.714286,15.714286 0 0 1 15.71429,-15.71428 15.714286,15.714286 0 0 1 15.71428,15.71428 z" transform="matrix(0.8181819,0,0,0.8181819,81.818184,110.8191)" style="fill:#000;fill-opacity:1;stroke-width:5;stroke-miterlimit:4;stroke-dasharray:none"/></g></svg>