<svg xmlns="http://www.w3.org/2000/svg" xmlns:svg="http://www.w3.org/2000/svg" id="svg2" width="160" height="160" x="0" y="0" enable-background="new 0 0 580 580" version="1.1" viewBox="0 0 160 160" xml:space="preserve"><metadata id="metadata21"/><ellipse id="circle11" cx="54.784" cy="16.922" rx="14.842" ry="16.922" style="fill:#501616;stroke-width:.36258566"/><path id="path13" d="m 9.84984,123.89822 c 3.06946,-1.61674 6.54675,-2.56952 10.14086,-2.56952 3.59377,0 7.07107,0.95239 10.12151,2.56952 3.01105,1.52808 6.37187,2.41388 9.88821,2.41388 3.49665,0 6.85747,-0.8858 9.84951,-2.41388 3.04976,-1.61674 6.52739,-2.56952 10.14052,-2.56952 3.61312,0 7.05205,0.95239 10.14086,2.56952 2.97234,1.52808 6.35251,2.41388 9.8495,2.41388 3.49665,0 6.87683,-0.8858 9.84917,-2.41388 3.08915,-1.61674 6.54675,-2.56952 10.16055,-2.56952 3.61347,0 7.05205,0.95239 10.12151,2.56952 3.01105,1.52808 6.37187,2.41388 9.86886,2.41388 3.51634,0 6.85747,-0.8858 9.8692,-2.41388 3.04976,-1.61674 6.52739,-2.56952 10.1215,-2.56952 3.08882,0 6.08051,0.66474 8.8002,1.88271 4.40978,-5.49289 7.12982,-12.80151 7.12982,-20.79733 0,-17.054372 -12.1033,-30.852802 -27.04242,-30.852802 l -3.03074,0.3767 c -3.32177,15.37103 -16.80409,16.03577 -16.80409,16.03577 l -61.73861,-0.0224 -5.16772,-3.45532 12.45272,-23.80937 13.6185,8.96989 c 8.15907,6.02484 12.41366,-2.41388 12.41366,-2.41388 l 13.65721,-25.38197 c 5.94468,-11.02992 -6.66323,-19.86702 -12.54984,-8.79297 l -9.5578,17.80699 -22.72941,-14.32999 c -15.75513,-10.01094 -22.4187,6.57808 -22.4187,6.57808 L 9.15031,77.984538 C 6.1199,85.226968 8.8199,88.349718 8.8199,88.349718 L 0,88.327618 v 38.006562 h 0.0387 c 3.47831,3.9e-4 6.81944,-0.90787 9.81113,-2.43595 z" style="fill:#501616;stroke-width:.36258566"/><path id="path15" d="m 150.17019,140.73075 c -3.08915,-1.61713 -6.52773,-2.56952 -10.16021,-2.56952 -3.59411,0 -7.07141,0.95239 -10.12151,2.56952 -3.01105,1.52808 -6.35251,2.43633 -9.8692,2.43633 -3.49699,0 -6.85747,-0.90825 -9.86886,-2.43633 -3.06946,-1.61713 -6.50804,-2.56952 -10.1215,-2.56952 -3.61347,0 -7.07141,0.95239 -10.16022,2.56952 -2.97234,1.52808 -6.35285,2.43633 -9.8495,2.43633 -3.49699,0 -6.87717,-0.90825 -9.84951,-2.43633 -3.08915,-1.61713 -6.52773,-2.56952 -10.14086,-2.56952 -3.61312,0 -7.09076,0.95239 -10.14052,2.56952 -2.99204,1.52808 -6.35251,2.43633 -9.8495,2.43633 -3.51601,0 -6.87717,-0.90825 -9.88822,-2.43633 -3.04976,-1.61713 -6.52773,-2.56952 -10.1215,-2.56952 -3.59411,0 -7.07141,0.95239 -10.14087,2.56952 -2.99169,1.52808 -6.35251,2.43633 -9.8495,2.43633 V 160 c 3.49699,0 6.85781,-0.8858 9.8495,-2.41427 3.06946,-1.61674 6.54676,-2.56913 10.14087,-2.56913 3.59377,0 7.0714,0.95239 10.1215,2.56913 C 33.16163,159.1142 36.52279,160 40.0388,160 c 3.49699,0 6.85746,-0.8858 9.8495,-2.41427 3.04976,-1.61674 6.50804,-2.56913 10.14052,-2.56913 3.59411,0 7.05205,0.95239 10.14086,2.56913 C 73.14202,159.1142 76.5222,160 80.01919,160 c 3.49665,0 6.87716,-0.8858 9.8495,-2.41427 3.08881,-1.61674 6.5274,-2.56913 10.16022,-2.56913 3.59377,0 7.05204,0.95239 10.1215,2.56913 3.01105,1.52847 6.37187,2.41427 9.86886,2.41427 3.51635,0 6.85781,-0.8858 9.8692,-2.41427 3.04976,-1.61674 6.50804,-2.56913 10.12151,-2.56913 3.61346,0 7.07106,0.95239 10.16021,2.56913 C 153.14253,159.1142 156.50335,160 160,160 v -16.83292 c -3.49665,0 -6.85747,-0.90825 -9.82981,-2.43633 z" style="fill:#00f;stroke-width:.36258566"/></svg>