<svg xmlns="http://www.w3.org/2000/svg" xmlns:svg="http://www.w3.org/2000/svg" xmlns:xlink="http://www.w3.org/1999/xlink" id="svg1" width="271.938" height="659.236" version="1.0"><metadata id="metadata3"/><defs id="defs3"><linearGradient id="linearGradient1738"><stop id="stop1739" offset="0" style="stop-color:#ca3030;stop-opacity:1"/><stop id="stop1740" offset="1" style="stop-color:#a52727;stop-opacity:1"/></linearGradient><linearGradient id="linearGradient1734"><stop id="stop1735" offset="0" style="stop-color:#826b35;stop-opacity:1"/><stop id="stop1737" offset=".5" style="stop-color:#bfad62;stop-opacity:1"/><stop id="stop1736" offset="1" style="stop-color:#b1a855;stop-opacity:1"/></linearGradient><linearGradient id="linearGradient1733" x1="284.055" x2="622.533" y1="298.134" y2="345.068" gradientTransform="matrix(0.50364,0.153907,-0.55494,1.815962,69.28644,-234.43574)" gradientUnits="userSpaceOnUse" xlink:href="#linearGradient1734"/><linearGradient id="linearGradient1741" x1="611.542" x2="729.052" y1="125.261" y2="125.261" gradientTransform="matrix(0.347622,0.10623,-0.804006,2.630995,71.67734,-233.70511)" gradientUnits="userSpaceOnUse" xlink:href="#linearGradient1738"/></defs><path id="rect1104" d="M 122.00016,220.02161 L 164.36931,217.16372 L 203.6977,229.18209 L 240.7656,256.31516 L 119.39043,653.49792 C 98.06361,654.78622 78.04637,662.87218 55.93584,655.64194 C 29.6144,647.69553 18.88665,630.59052 0.625,617.20437 L 122.00016,220.02161 z" style="fill:url(#linearGradient1733);fill-opacity:1;stroke:#473b18;stroke-width:1pt;stroke-linecap:butt;stroke-linejoin:miter;stroke-opacity:1"/><path id="rect1106" d="M 231.20112,7.0080694 L 270.86866,19.130079 L 206.49976,229.76805 L 156.91717,321.05576 L 166.83221,217.64604 L 231.20112,7.0080694 z" style="fill:url(#linearGradient1741);fill-opacity:1;stroke:#7b0505;stroke-width:.98828926pt;stroke-linecap:butt;stroke-linejoin:miter;stroke-opacity:1"/><path id="path1108" d="M 263.08085,183.7635 A 19.074261,13.495939 0 1 1 224.93233,183.7635 A 19.074261,13.495939 0 1 1 263.08085,183.7635 z" transform="matrix(1.042164,0.318475,-0.229092,0.749672,39.04414,-203.09324)" style="fill:#bd1e1e;fill-opacity:1;stroke:#810404;stroke-width:1pt;stroke-linecap:butt;stroke-linejoin:miter;stroke-opacity:1"/></svg>