<svg xmlns="http://www.w3.org/2000/svg" xmlns:svg="http://www.w3.org/2000/svg" id="svg3339" width="284.398" height="284.398" version="1.0"><metadata id="metadata3344"/><g id="layer1" transform="translate(-50.6582, -318.735)"><rect style="opacity:1;fill:#fff;fill-opacity:1;stroke:#000;stroke-width:15;stroke-linejoin:round;stroke-miterlimit:4;stroke-dasharray:none;stroke-opacity:1" id="rect3941" width="269.398" height="269.398" x="58.158" y="326.235" ry="21.771"/><path style="fill:#000;fill-opacity:1;fill-rule:evenodd;stroke:#000;stroke-width:0;stroke-linecap:butt;stroke-linejoin:miter;stroke-miterlimit:4;stroke-dasharray:none;stroke-opacity:1" id="path8185" d="M 185.45832,465.0883 C 185.45832,465.0883 156.74867,486.9591 150.55137,491.10912 C 144.25452,495.32585 140.8397,497.04873 135.7005,491.95886 C 130.63792,486.94498 134.89339,484.69205 139.62261,480.01985 C 144.25062,475.44754 173.38367,452.33833 173.38367,452.33833 L 185.45832,465.0883 z"/><path style="fill:#000;fill-opacity:1;fill-rule:evenodd;stroke:#000;stroke-width:0;stroke-linecap:butt;stroke-linejoin:miter;stroke-miterlimit:4;stroke-dasharray:none;stroke-opacity:1" id="path8187" d="M 193.55946,471.57843 C 193.55946,471.57843 125.78578,554.36915 121.73564,559.68217 C 117.63013,565.06782 119.27164,568.20007 122.5971,570.76794 C 125.84651,573.27716 130.39457,572.66063 133.85232,568.37547 C 137.25066,564.16383 204.3454,480.98059 204.3454,480.98059 L 193.55946,471.57843 z"/><path style="fill:#000;fill-opacity:1;stroke:#000;stroke-width:.177745;stroke-linejoin:miter;stroke-miterlimit:4;stroke-dasharray:none;stroke-opacity:1" id="path8189" d="m 176.96875,238.12976 a 0.61328125,0.78710937 0 0 1 -0.61328,0.78711 0.61328125,0.78710937 0 0 1 -0.61328,-0.78711 0.61328125,0.78710937 0 0 1 0.61328,-0.78711 0.61328125,0.78710937 0 0 1 0.61328,0.78711 z" transform="matrix(17.8035, 0, 0, 13.3809, -2958.09, -2825.88)"/><path style="fill:#000;fill-opacity:1;fill-rule:evenodd;stroke:red;stroke-width:0;stroke-linecap:butt;stroke-linejoin:miter;stroke-miterlimit:4;stroke-dasharray:none;stroke-opacity:1" id="path8191" d="M 253.67202,401.81635 C 265.3946,407.79432 291.97458,433.16294 291.97458,433.16294 C 300.77023,443.87387 300.94444,455.51828 287.67454,462.48072 C 275.02624,469.117 258.13294,475.82009 249.72456,478.47505 C 241.39433,481.10541 237.57804,481.00142 236.4665,475.51062 C 235.3598,470.04374 241.25181,466.66443 246.69517,464.27215 C 252.34701,461.78839 257.84132,460.3623 269.36748,453.06646 C 281.0099,445.69699 277.41335,443.48784 268.84628,436.22495 C 260.21458,428.90726 249.61315,426.74123 243.20953,435.70399 C 234.22375,447.71942 220.6116,469.24651 217.80103,472.74174 C 215.03565,476.18068 212.16929,478.76326 207.90535,476.6927 C 203.67702,474.63942 181.73163,457.05137 178.67972,452.26681 C 175.76474,447.69708 175.50689,446.53967 179.23303,441.40512 C 182.91522,436.33102 190.82866,426.81094 190.82866,426.81094 C 200.53913,414.65166 210.40186,409.28808 188.49678,405.52384 C 166.62218,401.76484 161.78333,385.41626 160.61236,373.06028 C 159.51316,361.4616 165.06034,359.21388 167.61492,363.06761 C 170.20137,366.96943 169.94145,378.7317 179.37191,385.0525 C 188.9707,391.48613 214.98292,386.90287 229.10101,391.0498 C 243.2191,395.19674 242.04991,395.88962 253.67202,401.81635 z"/><path style="fill:#000;fill-opacity:1;stroke:#000;stroke-width:0;stroke-linejoin:miter;stroke-miterlimit:4;stroke-dasharray:none;stroke-opacity:1" id="path8193" d="m 179.09375,229.38562 a 0.703125,0.6484375 0 0 1 -0.70313,0.64844 0.703125,0.6484375 0 0 1 -0.70312,-0.64844 0.703125,0.6484375 0 0 1 0.70312,-0.64844 0.703125,0.6484375 0 0 1 0.70313,0.64844 z" transform="matrix(25.0177, 0, 0, 27.1277, -4209.89, -5846.56)"/></g></svg>