<svg xmlns="http://www.w3.org/2000/svg" xmlns:svg="http://www.w3.org/2000/svg" id="svg3339" width="284.398" height="284.398" version="1.0"><metadata id="metadata3344"/><g id="layer1" transform="translate(-50.6582, -318.735)"><rect style="opacity:1;fill:#fff;fill-opacity:1;stroke:#000;stroke-width:15;stroke-linejoin:round;stroke-miterlimit:4;stroke-dasharray:none;stroke-opacity:1" id="rect3941" width="269.398" height="269.398" x="58.158" y="326.235" ry="21.771"/><g id="g3271" transform="matrix(1.0059105,0,0,0.91621256,5.45151,35.853391)"><ellipse id="path2481" cx="-10.607" cy="381.373" rx="17.173" ry="35.355" transform="translate(227.269,33.6121)" style="fill:none;fill-opacity:1;stroke:#724500;stroke-width:7;stroke-linecap:round;stroke-linejoin:round;stroke-miterlimit:4;stroke-dasharray:none;stroke-opacity:1"/><path id="path2487" d="m 220.19643,323.73214 c -2.09526,0.0127 -3.78582,1.71721 -3.78125,3.8125 l -0.58929,55.24107 c -0.0173,2.10559 0.77235,2.68751 3.33483,4.29019 2.56247,1.60268 4.27291,1.89576 4.29017,-0.20983 l 0.58929,-59.22768 c 0.0278,-1.03339 -0.36621,-2.03359 -1.09127,-2.77044 -0.72506,-0.73685 -1.71877,-1.14691 -2.75248,-1.13581 z" style="fill:#dddd89;fill-opacity:1;fill-rule:evenodd;stroke:#000;stroke-width:1.10000002;stroke-linecap:round;stroke-linejoin:miter;stroke-miterlimit:4;stroke-dasharray:none;stroke-opacity:1"/></g><path style="opacity:1;fill:#a54f00;fill-opacity:1;fill-rule:evenodd;stroke:none;stroke-width:7;stroke-linecap:butt;stroke-linejoin:miter;stroke-miterlimit:4;stroke-dasharray:none;stroke-opacity:1" id="path3238" d="M 180.95481,544.89121 C 148.15849,502.69562 100.84661,458.71025 75.645579,425.33675 C 72.096708,420.6304 87.325486,410.51671 90.005257,413.33401 C 115.05585,439.67028 156.33119,502.27648 187.57073,539.81352 C 196.72868,550.83022 202.84757,558.95238 214.79899,572.12087 C 223.9162,571.91782 218.55,577.60709 216.55496,579.19843 C 214.55989,580.78977 207.07868,586.20125 208.65959,578.19707 C 198.17297,565.38324 190.34569,556.97347 180.95481,544.89121 z"/><g id="g3187"><path style="fill:#000;fill-opacity:.14377;stroke:#000;stroke-width:6.04296;stroke-linecap:round;stroke-linejoin:round;stroke-miterlimit:4;stroke-dasharray:none;stroke-opacity:1" id="path3540" d="m -207.57811,269.4982 a 35.616119,39.714497 0 0 1 -35.61612,39.7145 35.616119,39.714497 0 0 1 -35.61612,-39.7145 35.616119,39.714497 0 0 1 35.61612,-39.7145 35.616119,39.714497 0 0 1 35.61612,39.7145 z" transform="matrix(1.43652, -0.432524, 0.217915, 0.868469, 543.475, 170.614)"/><path id="path3548" d="M 252.81295,546.57068 C 210.85852,552.6683 215.37286,529.22454 173.1223,538.68494 C 199.75372,522.73365 201.43185,496.95657 227.15324,482.67443" style="fill:none;fill-rule:evenodd;stroke:#000;stroke-width:7;stroke-linecap:round;stroke-linejoin:round;stroke-miterlimit:4;stroke-dasharray:none;stroke-opacity:1"/><path id="path3559" d="M 175.3271,537.93677 L 125.15492,556.17698" style="fill:none;fill-rule:evenodd;stroke:#000;stroke-width:7;stroke-linecap:round;stroke-linejoin:round;stroke-miterlimit:4;stroke-dasharray:none;stroke-opacity:1"/></g><g id="g3706" transform="matrix(0.744933, 0, 0, 0.728604, 16.1045, 104.159)" style="fill:none;fill-opacity:1"><path id="path3618" d="m -333.60289,985.94891 a 47.855976,44.699249 0 0 1 -47.85597,44.69929 47.855976,44.699249 0 0 1 -47.85598,-44.69929 47.855976,44.699249 0 0 1 47.85598,-44.69925 47.855976,44.699249 0 0 1 47.85597,44.69925 z" transform="matrix(1.0972, 0, 0, 1.21706, 595.681, -802.555)" style="fill:none;fill-opacity:1;stroke:#000;stroke-width:6.05757;stroke-linecap:round;stroke-linejoin:round;stroke-miterlimit:4;stroke-dasharray:none;stroke-opacity:1"/><path id="path3626" d="M 226.13628,377.58016 C 197.10771,400.74572 162.90913,393.14381 127.89894,383.13599" style="fill:none;fill-opacity:1;fill-rule:evenodd;stroke:#000;stroke-width:7;stroke-linecap:round;stroke-linejoin:miter;stroke-miterlimit:4;stroke-dasharray:none;stroke-opacity:1"/><path id="path3630" d="M 229.16674,407.63222 C 194.49711,422.96002 155.35304,420.74072 129.66671,411.92532" style="fill:none;fill-opacity:1;fill-rule:evenodd;stroke:#000;stroke-width:7;stroke-linecap:round;stroke-linejoin:miter;stroke-miterlimit:4;stroke-dasharray:none;stroke-opacity:1"/><path id="path3620" d="M 160.7289,345.25527 C 160.60075,361.53065 165.91132,384.13142 170.07281,391.21721" style="fill:none;fill-opacity:1;fill-rule:evenodd;stroke:#000;stroke-width:7;stroke-linecap:round;stroke-linejoin:miter;stroke-miterlimit:4;stroke-dasharray:none;stroke-opacity:1"/><path id="path3632" d="M 191.7911,345.00274 C 195.83243,361.73782 193.43903,377.50212 190.78094,392.22737" style="fill:none;fill-opacity:1;fill-rule:evenodd;stroke:#000;stroke-width:7;stroke-linecap:round;stroke-linejoin:miter;stroke-miterlimit:4;stroke-dasharray:none;stroke-opacity:1"/></g><g id="g3278" transform="matrix(1.0061126,0,0,0.91342111,55.915321,37.116473)"><ellipse id="path3280" cx="-10.607" cy="381.373" rx="17.173" ry="35.355" transform="translate(227.269,33.6121)" style="fill:none;fill-opacity:1;stroke:#724500;stroke-width:7;stroke-linecap:round;stroke-linejoin:round;stroke-miterlimit:4;stroke-dasharray:none;stroke-opacity:1"/><path id="path3282" d="m 220.19643,323.73214 c -2.09526,0.0127 -3.78582,1.71721 -3.78125,3.8125 l -0.58929,55.24107 c -0.0173,2.10559 0.77235,2.68751 3.33483,4.29019 2.56247,1.60268 4.27291,1.89576 4.29017,-0.20983 l 0.58929,-59.22768 c 0.0278,-1.03339 -0.36621,-2.03359 -1.09127,-2.77044 -0.72506,-0.73685 -1.71877,-1.14691 -2.75248,-1.13581 z" style="fill:#dddd89;fill-opacity:1;fill-rule:evenodd;stroke:#000;stroke-width:1.10000002;stroke-linecap:round;stroke-linejoin:miter;stroke-miterlimit:4;stroke-dasharray:none;stroke-opacity:1"/></g></g></svg>