<svg xmlns="http://www.w3.org/2000/svg" xmlns:svg="http://www.w3.org/2000/svg" id="svg2" width="16" height="16" version="1.0"><metadata id="metadata11"/><rect style="opacity:1;fill:#fff;fill-opacity:1;stroke:none;stroke-width:30;stroke-linecap:square;stroke-linejoin:miter;stroke-miterlimit:4;stroke-dasharray:none;stroke-dashoffset:.60000002;stroke-opacity:1" id="rect4138" width="16" height="16" x="0" y="-.002"/><g id="layer1" transform="matrix(-0.02121368,0,0,0.03086009,15.297342,7.1159688)"><path style="opacity:1;fill:#000;fill-opacity:1;fill-rule:nonzero;stroke:none;stroke-width:30;stroke-linecap:round;stroke-linejoin:round;stroke-miterlimit:4;stroke-dasharray:none;stroke-dashoffset:0;stroke-opacity:1" id="path25345" d="m 640.23853,222.03787 c 0,27.10477 -21.97275,49.07752 -49.07752,49.07752 -27.10477,0 -49.07752,-21.97275 -49.07752,-49.07752 0,-27.10477 21.97275,-49.07752 49.07752,-49.07752 27.10477,0 49.07752,21.97275 49.07752,49.07752 l 0,0 z" transform="matrix(1.079545,0,0,1.079545,-521.3741,-27.12071)"/><path style="fill:#000;fill-opacity:1;fill-rule:evenodd;stroke:none;stroke-width:1px;stroke-linecap:butt;stroke-linejoin:miter;stroke-opacity:1" id="path24454" d="m 285.83418,10.247082 c 2.82136,-3.2663359 6.0364,-6.0733784 11.97048,-5.7082016 l 256.30729,0 127.38367,101.1426896 c 1.40564,2.97091 2.11691,5.24745 2.47353,7.16934 l 0.48411,89.62664 c -2.36768,5.13743 -5.15318,9.52279 -10.12099,9.97998 l -29.56544,0 c 0,-87.62676 -129.5449,-87.80573 -129.5449,0 l -332.83376,0 c 0,-87.28688 -130.530777,-87.62179 -130.530777,0 l -36.065656,0 C 12.71653,211.01909 9.9497784,212.35674 5.8866518,202.02701 L 5.492299,137.57457 c 2.0973064,-5.86412 4.713128,-8.09863 7.323065,-10.37434 L 200.16379,96.077198 285.83418,10.247082 Z"/><path style="opacity:1;fill:#000;fill-opacity:1;fill-rule:nonzero;stroke:none;stroke-width:30;stroke-linecap:round;stroke-linejoin:round;stroke-miterlimit:4;stroke-dasharray:none;stroke-dashoffset:0;stroke-opacity:1" id="path25343" d="m 640.23853,222.03787 c 0,27.10477 -21.97275,49.07752 -49.07752,49.07752 -27.10477,0 -49.07752,-21.97275 -49.07752,-49.07752 0,-27.10477 21.97275,-49.07752 49.07752,-49.07752 27.10477,0 49.07752,21.97275 49.07752,49.07752 l 0,0 z" transform="matrix(1.079545,0,0,1.079545,-58.73586,-27.14299)"/><path style="fill:#fff;fill-opacity:1;fill-rule:evenodd;stroke:none;stroke-width:1px;stroke-linecap:butt;stroke-linejoin:miter;stroke-opacity:1" id="path25349" d="m 226.41173,97.07302 63.84346,-62.997849 c 1.43945,-1.223265 2.57157,-2.907517 5.07365,-2.536826 l 113.52297,0 0,77.161795 -177.57783,0 c -6.7601,-2.66645 -7.67484,-6.70827 -4.86225,-11.62712 z"/><path style="fill:#fff;fill-opacity:1;fill-rule:evenodd;stroke:none;stroke-width:1px;stroke-linecap:butt;stroke-linejoin:miter;stroke-opacity:1" id="path26236" d="M 585.23723,89.186408 530.52565,34.0864 c -1.43945,-1.223265 -2.57157,-2.907517 -5.07365,-2.536826 l -95.50602,0 0,77.161786 162.76938,0 c 7.70221,-1.53592 -2.43326,-11.927375 -7.47813,-19.524952 z"/></g><path style="fill:none;fill-rule:evenodd;stroke:#000;stroke-width:1px;stroke-linecap:round;stroke-linejoin:miter;stroke-opacity:1" id="path4141" d="M 7.1668715,7.3663586 C 5.9316807,2.9497725 5.894881,3.5765954 3.9567242,2.0605688"/><circle style="color:#000;clip-rule:nonzero;display:inline;overflow:visible;visibility:visible;opacity:1;isolation:auto;mix-blend-mode:normal;color-interpolation:sRGB;color-interpolation-filters:linearRGB;solid-color:#000;solid-opacity:1;fill:#000;fill-opacity:1;fill-rule:evenodd;stroke:none;stroke-width:.89999998;stroke-linecap:round;stroke-linejoin:miter;stroke-miterlimit:4;stroke-dasharray:none;stroke-dashoffset:0;stroke-opacity:1;color-rendering:auto;image-rendering:auto;shape-rendering:auto;text-rendering:auto;enable-background:accumulate" id="path4143" cx="3.604" cy="1.995" r="1.05"/></svg>