<svg xmlns="http://www.w3.org/2000/svg" xmlns:svg="http://www.w3.org/2000/svg" id="svg2" width="15" height="16" version="1.1"><metadata id="metadata7"/><g id="layer1" transform="translate(-310.5,-485.36218)"><path style="fill:#540;fill-opacity:1;stroke:none" id="path3757" d="m 315,499.36218 a 1,1 0 1 1 -2,0 1,1 0 1 1 2,0 z" transform="matrix(1.4,0,0,1.4,-127.6,-199.24488)"/><path style="fill:maroon;fill-opacity:1;stroke:none" id="path3791" d="m 315,497.36218 7,0 c 4,0 4,-4 0,-4 l -1.5,0 c -0.5,0 -3.5,-2 -3.5,-3 l 0,-3 c 0,-2 -1,-2 -3,-2 -2,0 -3,0 -3,2 l 0,3 0,5 c 0,1 1,2 2,2 z"/><path style="fill:#540;fill-opacity:1;stroke:none" id="path3757-0" d="m 315,499.36218 a 1,1 0 1 1 -2,0 1,1 0 1 1 2,0 z" transform="matrix(1.4,0,0,1.4,-123.6,-199.24488)"/><path style="fill:#540;fill-opacity:1;stroke:none" id="path3757-1" d="m 315,499.36218 a 1,1 0 1 1 -2,0 1,1 0 1 1 2,0 z" transform="matrix(1.4,0,0,1.4,-119.6,-199.24489)"/><path style="fill:#540;fill-opacity:1;stroke:none" id="path3757-0-7" d="m 315,499.36218 a 1,1 0 1 1 -2,0 1,1 0 1 1 2,0 z" transform="matrix(1.4,0,0,1.4,-115.6,-199.24489)"/></g></svg>