<svg xmlns="http://www.w3.org/2000/svg" xmlns:svg="http://www.w3.org/2000/svg" id="svg2" width="343.857" height="330.986" version="1.0"><metadata id="metadata7"/><g id="layer1" transform="translate(-156.64286,-326.86933)"><path id="path2385" d="M 157.14286,489.50504 C 157.14286,489.50504 242.43056,530.91946 280,538.07647 C 317.56944,545.23348 357.72748,545.6099 391.42857,538.07647 C 425.12966,530.54304 500,492.36219 500,492.36219 C 500,492.36219 428.66208,449.30617 391.42857,440.93361 C 354.19506,432.56105 315.88544,434.09741 280,440.93361 C 244.11456,447.76981 157.14286,489.50504 157.14286,489.50504 z" style="fill:#de8787;fill-opacity:1;fill-rule:evenodd;stroke:#000;stroke-width:1px;stroke-linecap:butt;stroke-linejoin:miter;stroke-opacity:1"/><path style="opacity:1;fill:#000;fill-opacity:1;stroke:none;stroke-width:11.60000038;stroke-miterlimit:4;stroke-dasharray:none;stroke-dashoffset:0;stroke-opacity:1" id="path3163" d="M 434.28572,492.36218 A 61.42857,31.428572 0 1 1 311.42858,492.36218 A 61.42857,31.428572 0 1 1 434.28572,492.36218 z" transform="translate(-37.142857,0)"/><path style="fill:#a40;fill-rule:evenodd;stroke:#4a4f4f;stroke-width:16.70000076;stroke-linecap:butt;stroke-linejoin:miter;stroke-miterlimit:4;stroke-dasharray:none;stroke-opacity:1" id="path3165" d="M 320,495.21933 L 445.71428,649.50504"/><path id="path3167" d="M 320,489.50504 L 445.71428,335.21933" style="fill:#a40;fill-rule:evenodd;stroke:#4a4f4f;stroke-width:16.70000076;stroke-linecap:butt;stroke-linejoin:miter;stroke-miterlimit:4;stroke-dasharray:none;stroke-opacity:1"/><rect style="opacity:1;fill:#4d4d4d;fill-opacity:1;stroke:#4a4f4f;stroke-width:12.61962414;stroke-miterlimit:4;stroke-dasharray:none;stroke-dashoffset:0;stroke-opacity:1" id="rect3169" width="60.019" height="21.747" x="-68.327" y="549.475" transform="matrix(0.6470835,-0.7624192,0.8014277,0.5980917,0,0)"/><rect id="rect3171" width="60.019" height="21.747" x="723.313" y="-89.706" transform="matrix(0.6470835,0.7624192,0.8014277,-0.5980917,0,0)" style="opacity:1;fill:#4d4d4d;fill-opacity:1;stroke:#4a4f4f;stroke-width:12.61962414;stroke-miterlimit:4;stroke-dasharray:none;stroke-dashoffset:0;stroke-opacity:1"/></g></svg>