<svg xmlns="http://www.w3.org/2000/svg" xmlns:svg="http://www.w3.org/2000/svg" id="svg2" width="160" height="160" version="1.1" viewBox="0 0 160 160"><g id="layer1" transform="translate(-152.32,45713.79)"><rect style="fill:#036;stroke-width:.55240053" id="rect3708" width="160" height="160" x="152.32" y="-45713.789" rx="8.286" ry="8.286"/><g style="fill:#eee" id="g3710" transform="matrix(0.38353219,0,0,0.40913443,103.79335,-45786.257)"><circle style="fill:#eee" id="path2908" cx="245.215" cy="279.848" r="31.062" transform="translate(1.4286,-1.4286)"/><rect style="fill:#eee" id="rect2912" width="59.052" height="132.33" x="-60.716" y="407.51" rx="8.403" ry="8.437" transform="rotate(-46.834)"/><rect style="fill:#eee" id="rect2914" width="26.429" height="80" x="-128.07" y="363.82" rx="8.435" ry="8.405" transform="rotate(-43.388)"/><rect style="fill:#eee" id="rect2920" width="26.811" height="81.237" x="-71.902" y="-487.41" rx="8.391" ry="8.45" transform="matrix(-0.67101,0.74145,-0.74746,-0.6643,0,0)"/><rect style="fill:#eee" id="rect3694" width="36.371" height="110.11" x="545.58" y="-22.955" rx="8.409" ry="8.407" transform="matrix(0.69576,0.71827,-0.69297,0.72097,0,0)"/><rect style="fill:#eee" id="rect3698" width="57.143" height="28.571" x="-109.03" y="410.64" rx="8.306" ry="8.306" transform="rotate(-45)"/><rect style="fill:#eee" id="rect3700" width="49.286" height="30.714" x=".226" y="406.76" rx="8.347" ry="8.388" transform="rotate(-47.197)"/><rect style="fill:#eee" id="rect3702" width="35" height="132.86" x="-27.4" y="590.72" rx="8.415" ry="8.425" transform="rotate(-45.533)"/><rect style="fill:#eee" id="rect3704" width="30.714" height="72.857" x="-450.83" y="413.13" rx="8.167" ry="8.697" transform="rotate(-83.261)"/></g></g><metadata id="metadata17"/></svg>