<svg xmlns="http://www.w3.org/2000/svg" xmlns:svg="http://www.w3.org/2000/svg" id="svg27" width="160" height="150" enable-background="new 0 0 105.66 100.619" style="overflow:visible" overflow="visible" space="preserve" version="1.1" viewBox="0 0 160 150"><metadata id="metadata2"/><g id="Layer_1" transform="matrix(1.5142815,0,0,1.4907573,0,-2.2958984e-6)"><g id="g24"><path id="path4" stroke-miterlimit="10" d="m 52.83,0.018 c 29.152,0 52.813,22.531 52.813,50.292 0,27.76 -23.66,50.292 -52.813,50.292 C 23.677,100.602 0.018,78.07 0.018,50.31 0.018,22.549 23.678,0.018 52.83,0.018" style="clip-rule:evenodd;fill-rule:evenodd;stroke:#000;stroke-width:.036;stroke-miterlimit:10"/><path id="path6" stroke-miterlimit="10" d="m 25.254,11.218 c -1.548,0.648 -2.664,1.332 -3.78,2.196 -1.116,0.756 -1.908,1.692 -2.664,2.664 -0.864,0.9 -1.584,1.872 -2.16,2.916 l 7.128,-1.836 v 0 c 0.468,-1.98 0.972,-3.96 1.476,-5.94 z" style="clip-rule:evenodd;fill:#fff;fill-rule:evenodd;stroke:#000;stroke-width:.036;stroke-miterlimit:10"/><path id="path8" stroke-miterlimit="10" d="M 32.886,8.086 48.87,4.198 59.886,13.306 56.97,24.934 44.73,30.622 29.25,26.518 26.946,17.05 Z" style="clip-rule:evenodd;fill:#fff;fill-rule:evenodd;stroke:#000;stroke-width:.036;stroke-miterlimit:10"/><path id="path10" stroke-miterlimit="10" d="M 63.342,14.026 61.399,25.042 73.53,37.174 86.49,35.23 90.486,20.686 76.302,9.058 Z" style="clip-rule:evenodd;fill:#fff;fill-rule:evenodd;stroke:#000;stroke-width:.036;stroke-miterlimit:10"/><path id="path12" stroke-miterlimit="10" d="M 76.05,41.278 88.29,39.082 95.562,51.322 85.518,67.918 72.918,66.73 68.311,56.181 Z" style="clip-rule:evenodd;fill:#fff;fill-rule:evenodd;stroke:#000;stroke-width:.036;stroke-miterlimit:10"/><path id="path14" stroke-miterlimit="10" d="M 94.482,75.91 88.65,69.142 98.838,51.933 102.366,49.99 c 0.036,4.176 -0.288,7.703 -0.972,11.268 -0.828,3.527 -2.053,6.732 -3.276,9.324 -1.223,2.447 -2.34,4.176 -3.636,5.328 z" style="clip-rule:evenodd;fill:#fff;fill-rule:evenodd;stroke:#000;stroke-width:.036;stroke-miterlimit:10"/><path id="path16" stroke-miterlimit="10" d="M 33.894,63.418 48.33,52.762 64.566,57.01 69.75,69.215 60.786,80.986 40.554,76.738 Z" style="clip-rule:evenodd;fill:#fff;fill-rule:evenodd;stroke:#000;stroke-width:.036;stroke-miterlimit:10"/><path id="path18" stroke-miterlimit="10" d="m 64.962,97.113 c -2.988,0.434 -6.012,0.756 -9.216,0.828 -3.312,0.072 -6.84,0 -10.044,-0.359 -3.42,-0.504 -6.588,-1.404 -9.36,-2.305 -2.772,-0.971 -4.896,-2.051 -6.768,-3.383 l -0.252,-4.861 9.576,-7.271 21.457,3.781 6.155,9.432 z" style="clip-rule:evenodd;fill:#fff;fill-rule:evenodd;stroke:#000;stroke-width:.036;stroke-miterlimit:10"/><path id="path20" stroke-miterlimit="10" d="M 14.31,43.726 27.522,30.298 41.814,34.294 45.45,49.774 30.546,61.295 17.586,60.934 Z" style="clip-rule:evenodd;fill:#fff;fill-rule:evenodd;stroke:#000;stroke-width:.036;stroke-miterlimit:10"/><path id="path22" stroke-miterlimit="10" d="M 9.45,71.123 C 8.298,71.59 7.218,70.365 6.066,67.846 4.806,65.11 3.114,59.602 2.538,55.498 1.998,51.357 2.034,47.326 2.79,43.258 l 7.524,2.412 3.996,16.705 z" style="clip-rule:evenodd;fill:#fff;fill-rule:evenodd;stroke:#000;stroke-width:.036;stroke-miterlimit:10"/></g></g></svg>