<svg xmlns="http://www.w3.org/2000/svg" xmlns:svg="http://www.w3.org/2000/svg" id="svg2" width="16" height="16" version="1.1" viewBox="0 0 16 16"><metadata id="metadata7"/><g id="layer1" transform="translate(0,-1036.3622)"><rect style="color:#000;clip-rule:nonzero;display:inline;overflow:visible;visibility:visible;opacity:1;isolation:auto;mix-blend-mode:normal;color-interpolation:sRGB;color-interpolation-filters:linearRGB;solid-color:#000;solid-opacity:1;fill:#13cc00;fill-opacity:1;fill-rule:evenodd;stroke:none;stroke-width:.60000002;stroke-linecap:round;stroke-linejoin:miter;stroke-miterlimit:4;stroke-dasharray:none;stroke-dashoffset:0;stroke-opacity:1;color-rendering:auto;image-rendering:auto;shape-rendering:auto;text-rendering:auto;enable-background:accumulate" id="rect4147" width="16" height="16" x="0" y="1036.362" ry="0"/><rect style="color:#000;clip-rule:nonzero;display:inline;overflow:visible;visibility:visible;opacity:1;isolation:auto;mix-blend-mode:normal;color-interpolation:sRGB;color-interpolation-filters:linearRGB;solid-color:#000;solid-opacity:1;fill:none;fill-opacity:1;fill-rule:evenodd;stroke:#cc4300;stroke-width:2;stroke-linecap:round;stroke-linejoin:miter;stroke-miterlimit:4;stroke-dasharray:none;stroke-dashoffset:0;stroke-opacity:1;color-rendering:auto;image-rendering:auto;shape-rendering:auto;text-rendering:auto;enable-background:accumulate" id="rect4145" width="12" height="5" x="2" y="1045.362" ry="2.5"/><rect style="color:#000;clip-rule:nonzero;display:inline;overflow:visible;visibility:visible;opacity:1;isolation:auto;mix-blend-mode:normal;color-interpolation:sRGB;color-interpolation-filters:linearRGB;solid-color:#000;solid-opacity:1;fill:#999;fill-opacity:1;fill-rule:evenodd;stroke:none;stroke-width:2;stroke-linecap:round;stroke-linejoin:miter;stroke-miterlimit:4;stroke-dasharray:none;stroke-dashoffset:0;stroke-opacity:1;color-rendering:auto;image-rendering:auto;shape-rendering:auto;text-rendering:auto;enable-background:accumulate" id="rect4149" width="1" height="2" x="5" y="1044.362" ry="0"/><rect style="color:#000;clip-rule:nonzero;display:inline;overflow:visible;visibility:visible;opacity:1;isolation:auto;mix-blend-mode:normal;color-interpolation:sRGB;color-interpolation-filters:linearRGB;solid-color:#000;solid-opacity:1;fill:#000;fill-opacity:1;fill-rule:evenodd;stroke:none;stroke-width:2;stroke-linecap:round;stroke-linejoin:miter;stroke-miterlimit:4;stroke-dasharray:none;stroke-dashoffset:0;stroke-opacity:1;color-rendering:auto;image-rendering:auto;shape-rendering:auto;text-rendering:auto;enable-background:accumulate" id="rect4182" width="7" height="6" x="8" y="1037.362" ry="2"/><rect style="color:#000;clip-rule:nonzero;display:inline;overflow:visible;visibility:visible;opacity:1;isolation:auto;mix-blend-mode:normal;color-interpolation:sRGB;color-interpolation-filters:linearRGB;solid-color:#000;solid-opacity:1;fill:#000;fill-opacity:1;fill-rule:evenodd;stroke:none;stroke-width:2;stroke-linecap:round;stroke-linejoin:miter;stroke-miterlimit:4;stroke-dasharray:none;stroke-dashoffset:0;stroke-opacity:1;color-rendering:auto;image-rendering:auto;shape-rendering:auto;text-rendering:auto;enable-background:accumulate" id="rect4184" width="7" height="4" x="8" y="1039.362" ry="0"/><rect style="color:#000;clip-rule:nonzero;display:inline;overflow:visible;visibility:visible;opacity:1;isolation:auto;mix-blend-mode:normal;color-interpolation:sRGB;color-interpolation-filters:linearRGB;solid-color:#000;solid-opacity:1;fill:#999;fill-opacity:1;fill-rule:evenodd;stroke:none;stroke-width:2;stroke-linecap:round;stroke-linejoin:miter;stroke-miterlimit:4;stroke-dasharray:none;stroke-dashoffset:0;stroke-opacity:1;color-rendering:auto;image-rendering:auto;shape-rendering:auto;text-rendering:auto;enable-background:accumulate" id="rect4186" width="1" height="2" x="13" y="1041.362"/><rect style="color:#000;clip-rule:nonzero;display:inline;overflow:visible;visibility:visible;opacity:1;isolation:auto;mix-blend-mode:normal;color-interpolation:sRGB;color-interpolation-filters:linearRGB;solid-color:#000;solid-opacity:1;fill:#ff0;fill-opacity:1;fill-rule:evenodd;stroke:none;stroke-width:2;stroke-linecap:round;stroke-linejoin:miter;stroke-miterlimit:4;stroke-dasharray:none;stroke-dashoffset:0;stroke-opacity:1;color-rendering:auto;image-rendering:auto;shape-rendering:auto;text-rendering:auto;enable-background:accumulate" id="rect4188" width="1" height="1" x="13" y="1039.362"/><rect style="color:#000;clip-rule:nonzero;display:inline;overflow:visible;visibility:visible;opacity:1;isolation:auto;mix-blend-mode:normal;color-interpolation:sRGB;color-interpolation-filters:linearRGB;solid-color:#000;solid-opacity:1;fill:#ff0;fill-opacity:1;fill-rule:evenodd;stroke:none;stroke-width:2;stroke-linecap:round;stroke-linejoin:miter;stroke-miterlimit:4;stroke-dasharray:none;stroke-dashoffset:0;stroke-opacity:1;color-rendering:auto;image-rendering:auto;shape-rendering:auto;text-rendering:auto;enable-background:accumulate" id="rect4190" width="1" height="1" x="11" y="1039.362"/><rect style="color:#000;clip-rule:nonzero;display:inline;overflow:visible;visibility:visible;opacity:1;isolation:auto;mix-blend-mode:normal;color-interpolation:sRGB;color-interpolation-filters:linearRGB;solid-color:#000;solid-opacity:1;fill:#ff0;fill-opacity:1;fill-rule:evenodd;stroke:none;stroke-width:2;stroke-linecap:round;stroke-linejoin:miter;stroke-miterlimit:4;stroke-dasharray:none;stroke-dashoffset:0;stroke-opacity:1;color-rendering:auto;image-rendering:auto;shape-rendering:auto;text-rendering:auto;enable-background:accumulate" id="rect4192" width="1" height="1" x="9" y="1039.362"/><g id="Layer_1" transform="matrix(0.06509311,0,0,0.06509311,0.60336176,1037.134)"><g id="g7"><path style="clip-rule:evenodd;fill-rule:evenodd;stroke:#000;stroke-width:.036;stroke-miterlimit:10" id="path9" stroke-miterlimit="10" d="m 52.83,0.018 c 29.152,0 52.813,22.531 52.813,50.292 0,27.76 -23.66,50.292 -52.813,50.292 C 23.677,100.602 0.018,78.07 0.018,50.31 0.018,22.549 23.678,0.018 52.83,0.018"/><path style="clip-rule:evenodd;fill:#fff;fill-rule:evenodd;stroke:#000;stroke-width:.036;stroke-miterlimit:10" id="path11" stroke-miterlimit="10" d="m 25.254,11.218 c -1.548,0.648 -2.664,1.332 -3.78,2.196 -1.116,0.756 -1.908,1.692 -2.664,2.664 -0.864,0.9 -1.584,1.872 -2.16,2.916 l 7.128,-1.836 0,0 c 0.468,-1.98 0.972,-3.96 1.476,-5.94 z"/><path style="clip-rule:evenodd;fill:#fff;fill-rule:evenodd;stroke:#000;stroke-width:.036;stroke-miterlimit:10" id="path13" stroke-miterlimit="10" d="M 32.886,8.086 48.87,4.198 59.886,13.306 56.97,24.934 44.73,30.622 29.25,26.518 26.946,17.05 32.886,8.086 Z"/><path style="clip-rule:evenodd;fill:#fff;fill-rule:evenodd;stroke:#000;stroke-width:.036;stroke-miterlimit:10" id="path15" stroke-miterlimit="10" d="M 63.342,14.026 61.399,25.042 73.53,37.174 86.49,35.23 90.486,20.686 76.302,9.058 63.342,14.026 Z"/><path style="clip-rule:evenodd;fill:#fff;fill-rule:evenodd;stroke:#000;stroke-width:.036;stroke-miterlimit:10" id="path17" stroke-miterlimit="10" d="M 76.05,41.278 88.29,39.082 95.562,51.322 85.518,67.918 72.918,66.73 68.311,56.181 76.05,41.278 Z"/><path style="clip-rule:evenodd;fill:#fff;fill-rule:evenodd;stroke:#000;stroke-width:.036;stroke-miterlimit:10" id="path19" stroke-miterlimit="10" d="M 94.482,75.91 88.65,69.142 98.838,51.933 102.366,49.99 c 0.036,4.176 -0.288,7.703 -0.972,11.268 -0.828,3.527 -2.053,6.732 -3.276,9.324 -1.223,2.447 -2.34,4.176 -3.636,5.328 z"/><path style="clip-rule:evenodd;fill:#fff;fill-rule:evenodd;stroke:#000;stroke-width:.036;stroke-miterlimit:10" id="path21" stroke-miterlimit="10" d="M 33.894,63.418 48.33,52.762 64.566,57.01 69.75,69.215 60.786,80.986 40.554,76.738 33.894,63.418 Z"/><path style="clip-rule:evenodd;fill:#fff;fill-rule:evenodd;stroke:#000;stroke-width:.036;stroke-miterlimit:10" id="path23" stroke-miterlimit="10" d="m 64.962,97.113 c -2.988,0.434 -6.012,0.756 -9.216,0.828 -3.312,0.072 -6.84,0 -10.044,-0.359 -3.42,-0.504 -6.588,-1.404 -9.36,-2.305 -2.772,-0.971 -4.896,-2.051 -6.768,-3.383 l -0.252,-4.861 9.576,-7.271 21.457,3.781 6.155,9.432 -1.548,4.138 z"/><path style="clip-rule:evenodd;fill:#fff;fill-rule:evenodd;stroke:#000;stroke-width:.036;stroke-miterlimit:10" id="path25" stroke-miterlimit="10" d="M 14.31,43.726 27.522,30.298 41.814,34.294 45.45,49.774 30.546,61.295 17.586,60.934 14.31,43.726 Z"/><path style="clip-rule:evenodd;fill:#fff;fill-rule:evenodd;stroke:#000;stroke-width:.036;stroke-miterlimit:10" id="path27" stroke-miterlimit="10" d="M 9.45,71.123 C 8.298,71.59 7.218,70.365 6.066,67.846 4.806,65.11 3.114,59.602 2.538,55.498 1.998,51.357 2.034,47.326 2.79,43.258 l 7.524,2.412 3.996,16.705 -4.86,8.748 z"/></g></g></g></svg>