<svg xmlns="http://www.w3.org/2000/svg" xmlns:svg="http://www.w3.org/2000/svg" id="svg2" width="16" height="14" version="1.1" viewBox="0 0 16 14"><metadata id="metadata7"/><g id="layer1" transform="translate(0,-1039.3622)"><path id="path64" d="M 4.6304099,1048.2513 H 0 l 0.052925,0.2986 0.1234649,0.1073 c 1.0940142,0.9496 2.6886292,1.3205 4.1830857,0.9727 l 0.2709344,-1.3786" style="fill:#312e31;fill-opacity:1;fill-rule:evenodd;stroke:none;stroke-width:.00405175"/><path id="path66" d="m 3.2577618,1047.5208 h 7.7615392 l -0.07056,0.4298 c -0.223718,1.3624 -1.1864536,2.4288 -2.4166975,2.6766 -0.9333541,0.1879 -1.1910254,1.4139 -0.4490268,2.111 h 1.0311337 v 0.624 H 3.7516831 l 0.00222,-0.624 h 0.9502945 l 0.1940899,-0.4896 c 0.2078019,-0.5243 0.1777662,-1.1268 -0.08068,-1.6225 -0.2584873,-0.4959 -0.7145336,-0.8257 -1.2284233,-0.8886 l -0.331418,-2.2167" style="fill:#616068;fill-opacity:1;fill-rule:evenodd;stroke:none;stroke-width:.0042947"/><path id="path68" d="m 3.7516831,1053.3622 h 5.3624673 v -0.624 H 3.7516831 v 0.624" style="fill:#807d87;fill-opacity:1;fill-rule:evenodd;stroke:none;stroke-width:.0042947"/><path id="path70" d="m 3.1662587,1047.7529 h 8.0702303 v -0.3907 H 3.1662587 v 0.3907" style="fill:#807d87;fill-opacity:1;fill-rule:evenodd;stroke:none;stroke-width:.0042947"/><path id="path72" d="m 7.9690764,1043.2109 1.471346,-2.6877 0.8511226,0.4659 -1.4714276,2.6878 -0.851041,-0.466" style="fill:#3f3b3f;fill-opacity:1;fill-rule:evenodd;stroke:none;stroke-width:.00408095"/><path id="path74" d="m 9.4404224,1040.5232 0.08435,-0.154 c 0.312928,-0.5717 0.9070726,-0.933 1.5586376,-0.9478 0.104023,0 0.19662,0.066 0.22588,0.1653 0.02922,0.1 -0.01228,0.2069 -0.101167,0.261 -0.288972,0.1757 -0.526483,0.4242 -0.688864,0.7209 l -0.227717,0.4205 -0.6425046,0.029 -0.208618,-0.4952" style="fill:#3f3b3f;fill-opacity:1;fill-rule:evenodd;stroke:none;stroke-width:.00408095"/><path id="path76" d="m 9.4676014,1042.4116 0.373162,-0.6817 1.0898996,0.5967 -0.373203,0.6817 -1.0898586,-0.5967" style="fill:#3f3b3f;fill-opacity:1;fill-rule:evenodd;stroke:none;stroke-width:.00408095"/><path id="path78" d="m 10.115778,1043.0007 0.570477,-1.0421 4.915301,2.6908 -0.570558,1.0421 -4.91522,-2.6908" style="fill:#882e1b;fill-opacity:1;fill-rule:evenodd;stroke:none;stroke-width:.00408095"/><path id="path80" d="m 14.24215,1045.4007 0.689313,-1.2592 0.937885,0.5134 c 0.419685,0.2298 -0.269588,1.489 -0.689314,1.2592 l -0.937884,-0.5134" style="fill:#bc4c1f;fill-opacity:1;fill-rule:evenodd;stroke:none;stroke-width:.00408095"/><path id="path82" d="m 8.2118929,1042.3139 0.8698955,-1.5892 1.2332216,0.6751 -0.8700576,1.5892 -1.2330595,-0.6751" style="fill:#5c5b63;fill-opacity:1;fill-rule:evenodd;stroke:none;stroke-width:.00408095"/><path id="path84" d="m 7.3571379,1043.6689 0.4777976,-0.8727 1.4068259,0.7702 -0.477757,0.8727 -1.4068665,-0.7702" style="fill:#78747e;fill-opacity:1;fill-rule:evenodd;stroke:none;stroke-width:.00408095"/></g></svg>