<svg xmlns="http://www.w3.org/2000/svg" xmlns:svg="http://www.w3.org/2000/svg" id="svg2" width="11" height="16" version="1.1" viewBox="0 0 11 16"><g id="layer1" transform="matrix(0.03796796,0,0,0.03984102,-5.9074342,-3.3966066)" style="fill:#ffe300;fill-opacity:1"><path id="rect5826" d="m 221.34215,85.254 c -9.026,0 -16.281,8.660882 -16.281,17.62058 v 83.72805 H 155.59 c 3.2312,58.438 -0.32874,198.65037 99.67106,229.15037 v 69.5 c 30.674,0 39.46988,3.5935 89.46988,0 v -69.25 c 100,-30.75 97.33206,-162.09888 100.57706,-229.40037 h -49.83324 v -83.72805 c 0,-8.960198 -7.2553,-17.62058 -16.281,-17.62058 -9.026,0 -16.281,8.660882 -16.281,17.62058 v 83.72805 H 237.65415 v -83.72805 c 0,-8.960198 -7.2865,-17.62058 -16.312,-17.62058 z" style="fill:#ffc100;fill-opacity:1"/></g><metadata id="metadata6"/></svg>