<svg xmlns="http://www.w3.org/2000/svg" xmlns:svg="http://www.w3.org/2000/svg" id="svg2" width="12" height="16" version="1.1" viewBox="0 0 12 16"><metadata id="metadata7"/><g id="layer1" transform="translate(0,-1037.3622)"><rect style="fill:#8abaff;fill-opacity:1;fill-rule:nonzero;stroke:none;stroke-width:.86603296;stroke-linecap:round;stroke-linejoin:round;stroke-miterlimit:4;stroke-dasharray:none;stroke-opacity:1;paint-order:normal" id="rect900" width="12" height="2" x="0" y="1051.362" ry=".6"/><rect style="fill:#8abaff;fill-opacity:1;stroke:none;stroke-width:.86603296;stroke-linecap:round;stroke-linejoin:round;stroke-miterlimit:4;stroke-dasharray:none;stroke-opacity:1;paint-order:normal" id="rect902" width="12" height="2" x="0" y="1037.362" ry=".6"/><path style="fill:#8abaff;fill-opacity:1;stroke:none;stroke-width:1.15470052;stroke-linecap:round;stroke-linejoin:round;stroke-miterlimit:4;stroke-dasharray:none;stroke-opacity:1;paint-order:normal" id="rect904" d="m 3,1039.3622 c 0.554,0 1.0545156,0.2225 1.4160156,0.584 0.3615,0.3615 0.5839844,0.862 0.5839844,1.416 v 8 c 0,0.554 -0.2224844,1.0545 -0.5839844,1.416 -0.3615,0.3615 -0.8620156,0.584 -1.4160156,0.584 h 6 c -0.554,0 -1.0545156,-0.2225 -1.4160156,-0.584 C 7.2224844,1050.4167 7,1049.9162 7,1049.3622 v -8 c 0,-0.554 0.2224844,-1.0545 0.5839844,-1.416 0.3615,-0.3615 0.8620156,-0.584 1.4160156,-0.584 z"/></g></svg>