<svg xmlns="http://www.w3.org/2000/svg" xmlns:svg="http://www.w3.org/2000/svg" id="svg127" width="12" height="16" version="1.1" viewBox="0 0 12 16"><defs id="defs87"><filter id="filter5851" width="1.274" height="2.94" x="-.137" y="-.97" style="color-interpolation-filters:sRGB"><feGaussianBlur id="feGaussianBlur4" stdDeviation="4.178"/></filter><filter id="filter5889" style="color-interpolation-filters:sRGB"><feGaussianBlur id="feGaussianBlur7" stdDeviation="3.265"/></filter><filter id="filter18598" width="3.225" height="1.155" x="-1.112" y="-.078" style="color-interpolation-filters:sRGB"><feGaussianBlur id="feGaussianBlur10" stdDeviation="4.104"/></filter><filter id="filter18634" width="1.468" height="1.022" x="-.234" y="-.011" style="color-interpolation-filters:sRGB"><feGaussianBlur id="feGaussianBlur13" stdDeviation="1.038"/></filter><filter id="filter18638" width="1.258" height="1.021" x="-.129" y="-.011" style="color-interpolation-filters:sRGB"><feGaussianBlur id="feGaussianBlur16" stdDeviation="1.038"/></filter><filter id="filter18646" width="1.607" height="1.065" x="-.304" y="-.033" style="color-interpolation-filters:sRGB"><feGaussianBlur id="feGaussianBlur19" stdDeviation="2.165"/></filter><filter id="filter18650" width="1.765" height="1.047" x="-.383" y="-.023" style="color-interpolation-filters:sRGB"><feGaussianBlur id="feGaussianBlur22" stdDeviation="2.671"/></filter><filter id="filter18654" width="1.494" height="1.037" x="-.247" y="-.019" style="color-interpolation-filters:sRGB"><feGaussianBlur id="feGaussianBlur25" stdDeviation="2.829"/></filter><filter id="filter18670" width="2.207" height="1.256" x="-.604" y="-.128" style="color-interpolation-filters:sRGB"><feGaussianBlur id="feGaussianBlur28" stdDeviation="2.868"/></filter><filter id="filter25984" width="1.118" height="1.358" x="-.059" y="-.179" style="color-interpolation-filters:sRGB"><feGaussianBlur id="feGaussianBlur31" stdDeviation="19.043"/></filter><filter id="filter26000" style="color-interpolation-filters:sRGB"><feGaussianBlur id="feGaussianBlur34" stdDeviation="12.323"/></filter><filter id="filter26008" width="1.771" height="1.238" x="-.385" y="-.119" style="color-interpolation-filters:sRGB"><feGaussianBlur id="feGaussianBlur37" stdDeviation="23.091"/></filter><linearGradient id="linearGradient48025" x1="-61.35" x2="82.448" y1="463.91" y2="463.91" gradientTransform="matrix(0.01502804,0,0,0.01604687,25.853839,827.96121)" gradientUnits="userSpaceOnUse"><stop id="stop40" offset="0" stop-color="#ffbd55"/><stop id="stop42" offset=".3" stop-color="#cd7b44"/><stop id="stop44" offset=".55" stop-color="#d19829"/><stop id="stop46" offset=".799"/><stop id="stop48" offset="1" stop-color="#ffc155"/></linearGradient><linearGradient id="linearGradient50451" x1="-49.422" x2="69.258" y1="451.99" y2="451.99" gradientTransform="matrix(0.01502804,0,0,0.01604687,25.853839,827.96121)" gradientUnits="userSpaceOnUse"><stop id="stop51" offset="0" stop-color="#2c2f33"/><stop id="stop53" offset=".024" stop-color="#959799"/><stop id="stop55" offset=".048" stop-color="#FFF"/><stop id="stop57" offset=".114" stop-color="#2d2d2d"/><stop id="stop59" offset=".211" stop-color="#adadae"/><stop id="stop61" offset=".281" stop-color="#898989"/><stop id="stop63" offset=".402" stop-color="#FFF"/><stop id="stop65" offset=".642" stop-color="#FFF"/><stop id="stop67" offset=".861"/><stop id="stop69" offset=".943" stop-color="#FFF"/><stop id="stop71" offset="1"/></linearGradient><linearGradient id="linearGradient52877" x1="63.104" x2="63.104" y1="-276.88" y2="-25.189" gradientTransform="matrix(0.01502804,0,0,0.01604687,25.853839,827.96121)" gradientUnits="userSpaceOnUse"><stop id="stop74" offset="0" stop-color="#FFF"/><stop id="stop76" offset=".15" stop-color="#f8f8d5"/><stop id="stop78" offset=".575" stop-color="#a29e89"/><stop id="stop80" offset=".806" stop-color="#bfb69a"/><stop id="stop82" offset=".916" stop-color="#eeeebe"/><stop id="stop84" offset="1" stop-color="#FFF"/></linearGradient></defs><g id="g123" transform="translate(-19.691,-823.66114)"><rect style="color:#000;fill:#b3b3b3;filter:url(#filter25984)" id="rect89" width="777.27" height="255.29" x="34.588" y="-7.735" rx="49.098" ry="93.403" transform="matrix(0.01368437,0,0,0.01341039,20.00755,824.59424)"/><path style="color:#000;fill:#666;filter:url(#filter26008)" id="path91" d="M 426.17,456.7 H 545.5 c 19.45,154.41 14.645,302.88 0.2703,457.3 -41.636,12.659 -79.246,8.247 -118.79,0.8111 -13.975,-154.41 -18.601,-303.69 -0.81106,-458.11 z" transform="matrix(0.0108859,0,0,0.01688333,21.054394,823.56031)"/><path style="color:#000;text-indent:0;text-transform:none;fill:#ccc;filter:url(#filter26000)" id="path93" d="m 99.764,134.92 c -28.563,0 -49.656,26.332 -49.656,56.062 v 106.12 c 0,29.731 21.093,56.031 49.656,56.031 h 301.5 c 23.058,0 36.233,4.7943 43.5,11.5 7.2667,6.7058 10.969,16.889 10.969,34 l 0.062,61.625 27,-0.031 -0.062,-61.594 v -0.031 c -0.01,-21.347 -5.3933,-40.651 -19.656,-53.812 -14.27,-13.168 -35.049,-18.656 -61.812,-18.656 h -301.5 c -11.522,0 -22.656,-11.623 -22.656,-29.031 v -106.12 c 0,-17.408 11.135,-29.062 22.656,-29.062 h 423.16 v -27 H 99.765 Z" transform="matrix(0.01379309,0,0,0.01604687,19.640321,823.9417)"/><rect style="color:#000;fill:url(#linearGradient50451);stroke-width:.08201257" id="rect95" width="1.786" height="9.095" x="25.116" y="830.667" ry=".323"/><path style="color:#000;fill:#fff;filter:url(#filter5851)" id="path97" d="m 45.652,180.66 c 0,2.8543 -14.698,-5.7295 -34.916,-5.7295 -32.567,0 -34.745,25.455 -41.006,25.19 -2.4241,-0.10284 -0.86439,-38.25 40.837,-35.137 20.207,1.5088 35.085,4.6491 35.085,15.677 z" transform="matrix(0.01971225,0,0,0.01037389,25.833999,829.08754)"/><path style="color:#000;text-indent:0;text-transform:none;stroke-width:.08201257" id="path99" d="m 20.442796,825.44681 c -0.429245,0 -0.746235,0.42253 -0.746235,0.89956 v 1.70302 c 0,0.47705 0.31699,0.89915 0.746235,0.89915 h 4.530951 c 0.346522,0 0.544517,0.077 0.653717,0.18454 0.109201,0.1076 0.164837,0.27102 0.164837,0.5456 l 9.39e-4,0.98892 0.405753,-5.3e-4 -9.38e-4,-0.98839 v -5.1e-4 c -7.3e-5,-0.34256 -0.08105,-0.65232 -0.295393,-0.8635 -0.214447,-0.2113 -0.526716,-0.29937 -0.928904,-0.29937 h -4.530951 c -0.173147,0 -0.340484,-0.18651 -0.340484,-0.46585 v -1.703 c 0,-0.27936 0.167337,-0.46637 0.340484,-0.46637 H 31.23823 v -0.43324 H 20.442807 Z"/><path style="color:#000;text-indent:0;text-transform:none;fill:#fff;filter:url(#filter5889)" id="path101" d="m 781.7,97.401 c -237.4,0.23749 -474.84,-0.16911 -712.25,0.21875 -23.369,2.2736 -39.727,26.327 -38.076,48.969 -0.39642,37.585 -0.51427,75.224 0.23226,112.78 2.4929,21.387 20.996,41.917 43.531,40.356 95.285,0.20258 190.59,-0.58711 285.88,0.27198 18.99,0.3521 39.64,-1.8231 56.375,9.0591 12.329,6.8164 17.719,20.963 18.872,34.336 1.1809,23.642 0.44642,54.32 1.0966,75.992 l 10.719,0.0489 -0.79265,-74.183 c -0.0783,-7.3321 -1.9233,-14.522 -4.1448,-21.601 -7.2588,-18.772 -25.832,-31.125 -45.5,-33 -28.933,-4.5637 -58.425,-0.41465 -87.594,-1.997 -81.083,-0.33177 -162.25,0.89916 -243.28,-0.72172 -18.098,-4.6063 -26.872,-25.305 -24.611,-42.719 0.79876,-37.31 -1.7771,-74.818 1.4862,-112 3.8996,-15.669 20.151,-27.828 36.5,-24.75 234.22,-0.0625 468.69,0.125 702.75,-0.0937 -0.58755,-3.3702 1.9433,-8.2067 -0.15625,-10.937 -0.33018,-0.1077 -0.69388,-0.0744 -1.0312,-0.0312 z" transform="matrix(0.01502804,0,0,0.01604687,19.400714,823.9417)"/><rect style="color:#000;fill:url(#linearGradient52877);stroke-width:.08201257" id="rect103" width="11.681" height="4.097" x="19.92" y="823.502" rx=".738" ry="1.499"/><path style="color:#000;fill:url(#linearGradient48025);stroke-width:.08201257" id="path105" d="m 25.10613,831.67233 h 1.793285 c 0.292291,2.47782 0.220084,4.86027 0.0041,7.33815 -0.625701,0.20318 -1.190894,0.13238 -1.785188,0.0134 -0.210021,-2.47789 -0.279546,-4.87338 -0.01219,-7.35114 z"/><path style="color:#000;fill:#fc0;filter:url(#filter18670)" id="path107" d="m 439.17,487.01 h 7.1576 c -8.4859,8.9501 -6.5044,32.321 -9.7148,53.689 -1.3723,-17.915 -3.9847,-36.366 2.5572,-53.689 z" transform="matrix(0.01502804,0,0,0.01604687,19.400714,823.9417)"/><path style="color:#000;opacity:.81667002;fill:#c87137;filter:url(#filter18646)" id="path109" d="m 393.6,482.68 h 12.108 c -3.345,26.498 -8.8476,95.689 -16.433,158.95 -1.9116,-52.984 0.50524,-105.97 4.3257,-158.95 z" transform="matrix(0.01502804,0,0,0.01604687,19.400714,823.9417)"/><path style="color:#000;fill:#c87137;filter:url(#filter18638)" id="path111" d="m 434.22,946.74 h 12.108 c -14.354,-38.99 -11.003,-140.8 -16.433,-233.89 -2.3214,78.047 -6.7404,158.42 4.3257,233.89 z" transform="matrix(0.01502804,0,0,0.01604687,19.400714,823.9417)"/><path style="color:#000;opacity:.55832998;fill:#c87137;filter:url(#filter18654)" id="path113" d="m 480.24,487.27 h -12.108 c 15.983,38.861 24.555,220.56 15.352,366.98 19.755,-137.83 13.012,-286.47 -3.2443,-366.98 z" transform="matrix(0.01502804,0,0,0.01604687,19.400714,823.9417)"/><path style="color:#000;opacity:.52082998;fill:#fc0;filter:url(#filter18634)" id="path115" d="m 439.65,946.74 h 6.6776 c -7.9169,-38.269 -6.0683,-138.2 -9.0634,-229.56 -1.2803,76.603 -3.7175,155.49 2.3857,229.56 z" transform="matrix(0.01502804,0,0,0.01604687,19.400714,823.9417)"/><path style="color:#000;fill:#fc0;filter:url(#filter18650)" id="path117" d="m 472.39,487.27 h -5.3392 c 7.0482,29.242 17.317,162.72 13.258,272.9 8.7116,-103.71 -0.75019,-212.32 -7.9192,-272.9 z" transform="matrix(0.01502804,0,0,0.01604687,19.400714,823.9417)"/><path style="color:#000;filter:url(#filter5851)" id="path119" d="m 42.898,176.9 c 0,2.8543 -20.207,-4.4749 -40.425,-4.4749 -20.277,0 -38.737,9.4161 -44.608,5.1158 -2.4241,-1.7756 2.5119,-14.411 44.227,-12.136 19.995,1.0906 40.806,0.46705 40.806,11.495 z" transform="matrix(-0.01917492,0,0,-0.01037389,26.041464,833.4859)"/><path style="color:#000;fill:#fc0;filter:url(#filter18598)" id="path121" d="m -37.824,392.25 h 7.1576 c -8.4859,21.029 -6.5044,75.939 -9.7148,126.14 -1.3723,-42.093 -3.9847,-85.442 2.5572,-126.14 z" transform="matrix(0.02404486,0.00149451,0.0012809,-0.02805469,25.72987,848.10822)"/></g><metadata id="metadata125"/></svg>