<svg xmlns="http://www.w3.org/2000/svg" xmlns:svg="http://www.w3.org/2000/svg" xmlns:xlink="http://www.w3.org/1999/xlink" id="svg1901" width="13" height="16" version="1.0" viewBox="0 0 13 16"><defs id="defs1903"><linearGradient id="linearGradient3152"><stop id="stop3154" offset="0" style="stop-color:#009a11"/><stop id="stop3156" offset="1" style="stop-color:#00cb17"/></linearGradient><linearGradient id="linearGradient3158" x1="-742.14" x2="-286.43" y1="139.51" y2="139.51" gradientTransform="matrix(0.02853817,0,0,0.02749137,-720.96285,617.04918)" gradientUnits="userSpaceOnUse" xlink:href="#linearGradient3152"/><linearGradient id="linearGradient3166" x1="-742.14" x2="-286.43" y1="139.51" y2="139.51" gradientTransform="matrix(0.02256855,0,0,0.06968035,-723.96015,618.96697)" gradientUnits="userSpaceOnUse" xlink:href="#linearGradient3152"/></defs><g id="layer1" transform="translate(742.13968,-618.50493)"><rect id="rect3164" width="10.059" height="11.348" x="-740.596" y="623.014" style="fill:url(#linearGradient3166);stroke:#005e04;stroke-width:.28397593;stroke-linejoin:round"/><rect id="rect2380" width="12.72" height="4.477" x="-741.999" y="618.646" style="fill:url(#linearGradient3158);stroke:#005e04;stroke-width:.2800988;stroke-linejoin:round"/><rect id="rect3160" width="1.958" height="4.192" x="-734.315" y="618.783" style="fill:#00d818"/><rect id="rect3162" width=".775" height="4.192" x="-731.844" y="618.783" style="fill:#00d818"/><rect id="rect3168" width="2.013" height="10.906" x="-734.918" y="623.279" style="fill:#00d818"/><rect id="rect3170" width=".797" height="10.906" x="-732.378" y="623.279" style="fill:#00d818"/><rect id="rect3172" width="1.468" height="4.197" x="-741.847" y="618.784" style="fill:#00820e"/><rect id="rect3174" width="1.509" height="10.95" x="-740.439" y="623.269" style="fill:#00820e"/><rect id="rect3178" width=".461" height="4.304" x="-742.065" y="618.682" style="fill:#005e04"/><rect id="rect3180" width=".703" height="11.078" x="-740.72" y="623.217" style="fill:#005e04"/><rect id="rect3182" width=".228" height="4.197" x="-740.02" y="618.784" style="fill:#00820e"/><rect id="rect3184" width=".234" height="10.957" x="-738.611" y="623.263" style="fill:#00820e"/></g><metadata id="metadata23"/></svg>