<svg xmlns="http://www.w3.org/2000/svg" xmlns:svg="http://www.w3.org/2000/svg" xmlns:xlink="http://www.w3.org/1999/xlink" id="svg2985" width="160" height="160" version="1.1"><metadata id="metadata2991"/><defs id="defs2989"><radialGradient id="radialGradient3204" cx="15.312" cy="34.656" r="9.5" gradientTransform="matrix(1,0,0,1.0033,0,-0.114)" gradientUnits="userSpaceOnUse" xlink:href="#linearGradient3198"/><linearGradient id="linearGradient3191" x1="14.496" x2="26.737" y1="29.88" y2="42.564" gradientTransform="translate(-3,1)" gradientUnits="userSpaceOnUse" xlink:href="#linearGradient2895"/><radialGradient id="radialGradient3187" cx="42.5" cy="34.5" r="8.688" gradientTransform="matrix(1,0,0,0.9964,-26,1.1241)" gradientUnits="userSpaceOnUse"><stop id="stop3027" offset="0"/><stop id="stop3029" offset="1" stop-opacity="0"/></radialGradient><linearGradient id="linearGradient3184" x1="16.794" x2="22.053" y1="30.676" y2="37.128" gradientTransform="translate(-3,1)" gradientUnits="userSpaceOnUse" xlink:href="#linearGradient2903"/><linearGradient id="linearGradient3179" x1="17.66" x2="23.032" y1="36.68" y2="31.111" gradientUnits="userSpaceOnUse"><stop id="stop3067" offset="0" stop-color="#eeeeec"/><stop id="stop3069" offset="1" stop-color="#eeeeec" stop-opacity="0"/></linearGradient><linearGradient id="linearGradient3177" x1="20.807" x2="17.449" y1="36.825" y2="30.901" gradientUnits="userSpaceOnUse"><stop id="stop3073" offset="0" stop-color="#eeeeec"/><stop id="stop3075" offset="1" stop-color="#eeeeec" stop-opacity="0"/></linearGradient><linearGradient id="linearGradient3171" x1="14.375" x2="30.438" y1="31.062" y2="44.062" gradientUnits="userSpaceOnUse" xlink:href="#linearGradient2892"/><linearGradient id="linearGradient3122" x1="28.357" x2="17.732" y1="22.795" y2="5.188" gradientTransform="matrix(0.96593,-0.25882,0.25882,0.96593,-4.1168,6.7296)" gradientUnits="userSpaceOnUse" xlink:href="#linearGradient2892"/><linearGradient id="linearGradient3120" x1="16.488" x2="32.567" y1="13.971" y2="30.758" gradientTransform="matrix(0.96593,-0.25882,0.25882,0.96593,-4.1168,6.7297)" gradientUnits="userSpaceOnUse" xlink:href="#linearGradient2892"/><linearGradient id="linearGradient3118" x1="21.788" x2="10.211" y1="21.877" y2="3.423" gradientTransform="matrix(0.90911,-0.24359,0.24359,0.90911,8.6768,1.4171)" gradientUnits="userSpaceOnUse" xlink:href="#linearGradient2895"/><radialGradient id="radialGradient3116" cx="31" cy="12" r="11.125" gradientTransform="matrix(0.97747,-0.26191,0.26191,0.97747,-2.4444,8.3897)" gradientUnits="userSpaceOnUse" xlink:href="#linearGradient3198"/><linearGradient id="linearGradient3114" x1="17.413" x2="17.028" y1="7.871" y2="52.505" gradientTransform="matrix(0.96593,-0.25882,0.25882,0.96593,7.2816,0.75564)" gradientUnits="userSpaceOnUse" xlink:href="#linearGradient2892"/><linearGradient id="linearGradient3112" x1="22.965" x2="12.641" y1="35.311" y2="11.424" gradientTransform="matrix(0.96593,-0.25882,0.25882,0.96593,7.2816,0.75564)" gradientUnits="userSpaceOnUse" xlink:href="#linearGradient2903"/><linearGradient id="linearGradient2895"><stop id="stop2897" offset="0" stop-color="#d3d7cf"/><stop id="stop2899" offset="1" stop-color="#888a85"/></linearGradient><linearGradient id="linearGradient2903"><stop id="stop2905" offset="0" stop-color="#888a85"/><stop id="stop2907" offset="1" stop-color="#d3d7cf"/></linearGradient><linearGradient id="linearGradient2892"><stop id="stop2894" offset="0" stop-color="#fff"/><stop id="stop2896" offset="1" stop-color="#fff" stop-opacity="0"/></linearGradient><linearGradient id="linearGradient3198"><stop id="stop3200" offset="0"/><stop id="stop3202" offset="1" stop-opacity="0"/></linearGradient><radialGradient id="radialGradient4105" cx="15.312" cy="34.656" r="9.5" gradientTransform="matrix(1,0,0,1.0033,0,-0.114)" gradientUnits="userSpaceOnUse" xlink:href="#linearGradient3198"/><linearGradient id="linearGradient4107" x1="22.965" x2="12.641" y1="35.311" y2="11.424" gradientTransform="matrix(0.96593,-0.25882,0.25882,0.96593,7.2816,0.75564)" gradientUnits="userSpaceOnUse" xlink:href="#linearGradient2903"/><linearGradient id="linearGradient4109" x1="17.413" x2="17.028" y1="7.871" y2="52.505" gradientTransform="matrix(0.96593,-0.25882,0.25882,0.96593,7.2816,0.75564)" gradientUnits="userSpaceOnUse" xlink:href="#linearGradient2892"/><radialGradient id="radialGradient4111" cx="31" cy="12" r="11.125" gradientTransform="matrix(0.97747,-0.26191,0.26191,0.97747,-2.4444,8.3897)" gradientUnits="userSpaceOnUse" xlink:href="#linearGradient3198"/><linearGradient id="linearGradient4113" x1="21.788" x2="10.211" y1="21.877" y2="3.423" gradientTransform="matrix(0.90911,-0.24359,0.24359,0.90911,8.6768,1.4171)" gradientUnits="userSpaceOnUse" xlink:href="#linearGradient2895"/><linearGradient id="linearGradient4115" x1="16.488" x2="32.567" y1="13.971" y2="30.758" gradientTransform="matrix(0.96593,-0.25882,0.25882,0.96593,-4.1168,6.7297)" gradientUnits="userSpaceOnUse" xlink:href="#linearGradient2892"/><linearGradient id="linearGradient4117" x1="28.357" x2="17.732" y1="22.795" y2="5.188" gradientTransform="matrix(0.96593,-0.25882,0.25882,0.96593,-4.1168,6.7296)" gradientUnits="userSpaceOnUse" xlink:href="#linearGradient2892"/><linearGradient id="linearGradient4127" x1="69.19" x2="333.449" y1="99.569" y2="457.065" gradientUnits="userSpaceOnUse" xlink:href="#linearGradient2903"/><linearGradient id="linearGradient4137" x1="720.957" x2="800.311" y1="363.781" y2="447.997" gradientUnits="userSpaceOnUse" xlink:href="#linearGradient2892"/><linearGradient id="linearGradient4147" x1="-45.709" x2="-145.909" y1="267.432" y2="146.808" gradientUnits="userSpaceOnUse" xlink:href="#linearGradient2892"/><linearGradient id="linearGradient4153" x1="69.19" x2="333.449" y1="99.569" y2="457.065" gradientUnits="userSpaceOnUse" xlink:href="#linearGradient2903"/><linearGradient id="linearGradient4155" x1="-45.709" x2="-145.909" y1="267.432" y2="146.808" gradientUnits="userSpaceOnUse" xlink:href="#linearGradient2892"/></defs><g id="layer1" transform="translate(487.28467,-218.17057)" style="display:inline"><g id="g4149" transform="matrix(0.34579636,0,0,0.34724585,-493.27311,210.51518)"><path id="path3771" d="m 247.56629,24.345646 -50.9375,21.71875 -22.46875,41.59375 c 0,0 -0.30193,0.41959 -0.78125,1.03125 -4.72196,2.26844 -9.33001,4.74888 -13.8125,7.40625 -0.43624,0.0297 -0.88763,0.0625 -1.34375,0.0625 -11.39238,0 -18.15625,-10.75 -18.15625,-10.75 l 0.75,-14.625 -6.5625,-14.96875 -32.375,42.6875 v 52.031254 c 0,0 -4.414469,12.13879 -14.156254,13.875 -9.97653,1.79472 -16.96875,-3.4375 -16.96875,-3.4375 l -2.90625,-8.21875 -17.09375,-14.40625 -6.46875,55.34375 22.21875,41.96875 c 0,0 5.53609,11.30702 1.46875,17.46875 -6.194896,9.38483 -17.75,8.34375 -17.75,8.34375 l -28.71875,-9.78125 18.53125,49.65625 41.4375,25.03125 c 0,0 11.478902,6.95717 10.3125,17.0625 -0.7017,12.94051 -11.09375,15.5 -11.09375,15.5 l -11.65625,-0.125 -17.875,6.625 43.96875,34.53125 49.687504,1.09375 c 0,0 13.95797,1.49711 13.71875,16 -0.0978,5.92798 -5.28125,12.84375 -5.28125,12.84375 l -17.875,19.1875 53.625,7.4375 40.03125,-22.625 c -0.10575,-0.15863 13.52448,-5.71117 20.71875,1.09375 5.11529,4.83846 7.96875,15.5625 7.96875,15.5625 l -5.9375,9.65625 -2.78125,18.6875 49.90625,-19.59375 22.78125,-39.84375 c 0,0 6.5001,-11.13239 19.59375,-10.5625 7.65057,0.33298 15.34375,9.875 15.34375,9.875 l -1.03125,13.5 7.40625,16.15625 32.84375,-41.84375 -0.25,-48.03125 c 0,0 1.22616,-17.41269 13.46875,-20.96875 7.03747,-2.04415 15.625,5.71875 15.625,5.71875 l 7.4375,11.65625 12.96875,10.3125 7.40625,-56.125 -22.53125,-36.9375 c 0,0 -7.72513,-18.73165 1.1875,-25.8125 7.26897,-5.77501 14.71875,-4.53125 14.71875,-4.53125 l 9.03125,5.84375 20.90625,4.75 -22.5,-53.21875 -36.5625,-19 c 0,0 -12.64392,-11.96202 -12.375,-23.78125 0.15921,-6.99756 10.59375,-12.09375 10.59375,-12.09375 l 13.6875,0.75 16.09375,-7.65625 -41.6875,-32.59375 h -46.78125 c 0,0 -16.61523,-5.369173 -19.9375,-12.468754 -4.34895,-9.293572 4.46875,-19 4.46875,-19 l 9.1875,-3.9375 12.34375,-15.34375 -55.8125,-7.125 -39.4375,24.75 c -5.23291,-0.45746 -10.52336,-0.71875 -15.875,-0.71875 -1.88912,0 -3.78115,0.036 -5.65625,0.0937 -8.05223,-6.43364 -7,-17.5625 -7,-17.5625 l 6.9375,-11.25 2.0625,-17.96875 z m 3.65625,176.687504 c 27.61424,0 50,22.38576 50,50 0,27.61424 -22.38576,50 -50,50 -27.61424,0 -50,-22.38576 -50,-50 0,-27.61424 22.38576,-50 50,-50 z" style="color:#000;display:inline;overflow:visible;visibility:visible;fill:url(#linearGradient4153);fill-opacity:1;fill-rule:nonzero;stroke:#2e3436;stroke-width:5;stroke-miterlimit:4;stroke-dasharray:none;stroke-opacity:1;marker:none;enable-background:accumulate"/><circle id="path4139" cx="-91.199" cy="210.578" r="57.052" transform="matrix(0.96403942,0,0,0.96403942,339.32975,49.12176)" style="color:#000;display:inline;overflow:visible;visibility:visible;fill:none;stroke:url(#linearGradient4155);stroke-width:5.18651009;stroke-linecap:square;stroke-linejoin:miter;stroke-miterlimit:4;stroke-dasharray:none;stroke-dashoffset:0;stroke-opacity:1;marker:none;enable-background:accumulate"/></g></g></svg>