<svg xmlns="http://www.w3.org/2000/svg" xmlns:svg="http://www.w3.org/2000/svg" id="svg4264" width="16" height="16" version="1.1" viewBox="0 0 16 16"><metadata id="metadata4269"/><g id="layer1" transform="translate(0,-1036.3621)"><rect style="opacity:1;fill:#fff;fill-opacity:1;stroke:none;stroke-width:.41999999;stroke-linecap:round;stroke-linejoin:round;stroke-miterlimit:4;stroke-dasharray:none;stroke-opacity:1" id="rect4142" width="16" height="14" x="0" y="1036.362" ry="1"/><rect style="opacity:1;fill:#c87137;fill-opacity:1;stroke:none;stroke-width:.30000001;stroke-linecap:round;stroke-linejoin:round;stroke-miterlimit:4;stroke-dasharray:none;stroke-opacity:1" id="rect4978-3" width="16" height="3" x="0" y="1049.362"/><rect style="opacity:1;fill:#000;fill-opacity:1;stroke:none;stroke-width:.30000001;stroke-linecap:round;stroke-linejoin:round;stroke-miterlimit:4;stroke-dasharray:none;stroke-opacity:1" id="rect4980-3" width="2" height="4" x="2" y="1047.362"/><rect style="opacity:1;fill:#000;fill-opacity:1;stroke:none;stroke-width:.30000001;stroke-linecap:round;stroke-linejoin:round;stroke-miterlimit:4;stroke-dasharray:none;stroke-opacity:1" id="rect4984-4" width="2" height="4" x="12" y="1047.362"/><g id="g4139" transform="matrix(1.083336,0,0,1.083336,-0.28539483,-86.366234)"><path style="fill:#3771c8;fill-opacity:1;fill-rule:nonzero;stroke:none" id="path31-1-7-9" d="m 8.9974621,1039.7475 c -0.2717474,-0.4801 -0.6027334,-0.9009 -1.1216077,-0.898 -0.7735773,0 -0.991882,0.323 -1.2938063,0.6249 l -1.917091,2.0517 c -0.5040482,0.52 0.1994342,1.1172 0.6184552,0.6436 l 1.3551756,-1.4802 0,2.4877 -1.0948375,4.39 c -0.2462742,0.9191 0.8082853,1.1119 1.026968,0.2957 0.3840289,-1.3964 1.1226074,-4.0049 1.1226074,-4.0049 l 1.5046684,4.0314 c 0.3446734,0.8212 1.3301008,0.3642 1.0508278,-0.3645 l -1.5813288,-4.4278 0,-2.1678 1.3510968,2.4636 c 0.293345,0.5349 1.093409,0.1 0.76408,-0.467"/><path style="fill:#3771c8;fill-opacity:1;fill-rule:nonzero;stroke:none" id="path47-86-1-7" d="m 8.7153441,1037.285 c 0,-0.5097 -0.413226,-0.9229 -0.9230502,-0.9229 -0.5098266,0 -0.9230995,0.4132 -0.9230995,0.9229 0,0.51 0.4132729,0.9232 0.9230995,0.9232 0.5098242,0 0.9230502,-0.4132 0.9230502,-0.9232"/></g></g></svg>