<svg xmlns="http://www.w3.org/2000/svg" xmlns:svg="http://www.w3.org/2000/svg" id="svg4264" width="16" height="16" version="1.1" viewBox="0 0 16 16"><metadata id="metadata4269"/><g id="layer1" transform="translate(0,-1036.3621)"><rect style="opacity:1;fill:#fff;fill-opacity:1;stroke:none;stroke-width:.41999999;stroke-linecap:round;stroke-linejoin:round;stroke-miterlimit:4;stroke-dasharray:none;stroke-opacity:1" id="rect4151" width="16" height="14" x="0" y="1036.362" ry="1"/><path style="fill:#3771c8;fill-opacity:1" id="path4159-1" d="m 4.0000002,1037.8317 -1.546875,2.9961 -2.45312563841862,1.0039 0,3 1.25585933841862,0 c 0.067814,-1.2331 1.0872995,-2.1992 2.3222656,-2.2012 1.2374593,10e-4 2.2586354,0.9693 2.3242188,2.2051 l 4.8183597,0 c 0.0632,-1.2367 1.083993,-2.2067 2.322266,-2.209 1.240774,0 2.261316,0.9755 2.322265,2.2149 l 0.634766,0 2e-6,-3.0098 -4.847657,-1.0117 -1.60547,-2.9883 z m 0.78125,1 4,0 1.0000008,2 -6.0000008,0 z"/><circle style="opacity:1;fill:#3771c8;fill-opacity:1;stroke:none;stroke-width:1.745;stroke-linecap:round;stroke-linejoin:round;stroke-miterlimit:4;stroke-dasharray:none;stroke-opacity:1" id="path4153-4" cx="3.578" cy="1044.961" r="1.4"/><circle id="circle4238" cx="13.042" cy="1044.961" r="1.4" style="opacity:1;fill:#3771c8;fill-opacity:1;stroke:none;stroke-width:1.745;stroke-linecap:round;stroke-linejoin:round;stroke-miterlimit:4;stroke-dasharray:none;stroke-opacity:1"/><rect style="opacity:1;fill:#c87137;fill-opacity:1;stroke:none;stroke-width:.30000001;stroke-linecap:round;stroke-linejoin:round;stroke-miterlimit:4;stroke-dasharray:none;stroke-opacity:1" id="rect4978-3" width="16" height="3" x="0" y="1049.362"/><rect style="opacity:1;fill:#000;fill-opacity:1;stroke:none;stroke-width:.30000001;stroke-linecap:round;stroke-linejoin:round;stroke-miterlimit:4;stroke-dasharray:none;stroke-opacity:1" id="rect4980-3" width="2" height="4" x="2" y="1047.362"/><rect style="opacity:1;fill:#000;fill-opacity:1;stroke:none;stroke-width:.30000001;stroke-linecap:round;stroke-linejoin:round;stroke-miterlimit:4;stroke-dasharray:none;stroke-opacity:1" id="rect4984-4" width="2" height="4" x="12" y="1047.362"/></g></svg>