<svg xmlns="http://www.w3.org/2000/svg" xmlns:svg="http://www.w3.org/2000/svg" id="svg4264" width="15" height="16" version="1.1" viewBox="0 0 15 16"><metadata id="metadata4269"/><g id="layer1" transform="translate(0,-1036.3621)"><path style="fill:#c87137;fill-opacity:1" id="path3387-0-99-7-4-2-9-2-8-3-7-6-5" d="m -1.0476837e-5,1039.3621 0,-2 15.000015476837,0 0,2 z" class="st5"/><path style="fill:#c87137;fill-opacity:1" id="path3387-0-99-7-4-2-9-2-2-0-9-3-7-8" d="m -4.7683722e-7,1043.3621 0,-2 14.00000147683722,0 0,2 z" class="st5"/><path style="fill:#c87137;fill-opacity:1" id="path3387-0-99-7-4-2-9-2-1-0-8-5-3-6" d="m -4.7683722e-7,1047.3621 0,-2 13.00000147683722,0 0,2 z" class="st5"/><path style="fill:#c87137;fill-opacity:1" id="path3387-0-99-7-4-2-9-2-5-0-5-8-3-4" d="m -4.7683722e-7,1051.3621 0,-2 12.00000147683722,0 0,2 z" class="st5"/><path style="fill:#000;fill-opacity:1" id="path3387-0-99-9-7-8-7-2-8-3-9" d="m 3.0000019,1052.3621 -1.000011,0 0,-16 1.000011,0 z" class="st5"/><path style="color:#000;font-style:normal;font-variant:normal;font-weight:400;font-stretch:normal;font-size:medium;line-height:normal;font-family:sans-serif;text-indent:0;text-align:start;text-decoration:none;text-decoration-line:none;text-decoration-style:solid;text-decoration-color:#000;letter-spacing:normal;word-spacing:normal;text-transform:none;direction:ltr;block-progression:tb;writing-mode:lr-tb;baseline-shift:baseline;text-anchor:start;white-space:normal;clip-rule:nonzero;display:inline;overflow:visible;visibility:visible;opacity:1;isolation:auto;mix-blend-mode:normal;color-interpolation:sRGB;color-interpolation-filters:linearRGB;solid-color:#000;solid-opacity:1;fill:#000;fill-opacity:1;fill-rule:evenodd;stroke:none;stroke-width:1px;stroke-linecap:butt;stroke-linejoin:miter;stroke-miterlimit:4;stroke-dasharray:none;stroke-dashoffset:0;stroke-opacity:1;color-rendering:auto;image-rendering:auto;shape-rendering:auto;text-rendering:auto;enable-background:accumulate" id="path4812-4" d="m 5.9868759,1036.3621 c -3.703746,7.0026 -3.986328,15.2305 -3.986328,15.2305 l 1,0.035 c 0,0 0.323914,-8.4499 4.117188,-15.2656 l -1.13086,0 z"/><path id="path4143" d="m 10.000001,1052.3621 -1.0000113,0 0,-16 1.0000113,0 z" class="st5" style="fill:#000;fill-opacity:1"/><path id="path4145" d="m 12.986875,1036.3621 c -3.7037463,7.0026 -3.9863283,15.2305 -3.9863283,15.2305 l 1.0000003,0.035 c 0,0 0.323914,-8.4499 4.117188,-15.2656 l -1.13086,0 z" style="color:#000;font-style:normal;font-variant:normal;font-weight:400;font-stretch:normal;font-size:medium;line-height:normal;font-family:sans-serif;text-indent:0;text-align:start;text-decoration:none;text-decoration-line:none;text-decoration-style:solid;text-decoration-color:#000;letter-spacing:normal;word-spacing:normal;text-transform:none;direction:ltr;block-progression:tb;writing-mode:lr-tb;baseline-shift:baseline;text-anchor:start;white-space:normal;clip-rule:nonzero;display:inline;overflow:visible;visibility:visible;opacity:1;isolation:auto;mix-blend-mode:normal;color-interpolation:sRGB;color-interpolation-filters:linearRGB;solid-color:#000;solid-opacity:1;fill:#000;fill-opacity:1;fill-rule:evenodd;stroke:none;stroke-width:1px;stroke-linecap:butt;stroke-linejoin:miter;stroke-miterlimit:4;stroke-dasharray:none;stroke-dashoffset:0;stroke-opacity:1;color-rendering:auto;image-rendering:auto;shape-rendering:auto;text-rendering:auto;enable-background:accumulate"/></g></svg>