<svg xmlns="http://www.w3.org/2000/svg" xmlns:svg="http://www.w3.org/2000/svg" id="svg2" width="24" height="24" version="1.1"><metadata id="metadata7"/><g id="layer1" transform="translate(0,-1028.3622)"><path style="fill:#ae8f8f;fill-opacity:1;stroke:#000;stroke-width:.5;stroke-linecap:butt;stroke-linejoin:miter;stroke-miterlimit:4;stroke-opacity:1;stroke-dasharray:none" id="path2816-6-3" d="m 1.1887976,1048.7981 5.7614909,-5.8419 14.9487355,0 -4.415101,5.8527 -16.2951254,-0.011 z"/><path style="fill:#ae8f8f;fill-opacity:1;stroke:#000;stroke-width:.5;stroke-linecap:butt;stroke-linejoin:miter;stroke-miterlimit:4;stroke-opacity:1;stroke-dasharray:none" id="path2816-6" d="m 1.07869,1043.8267 5.7614916,-5.8418 14.9487324,0 -4.415101,5.8527 -16.295123,-0.011 z"/><path style="fill:#ae8f8f;fill-opacity:1;stroke:#000;stroke-width:.5;stroke-linecap:butt;stroke-linejoin:miter;stroke-miterlimit:4;stroke-opacity:1;stroke-dasharray:none" id="path2816" d="m 1.21211,1038.9234 5.7614908,-5.8418 14.9487352,0 -4.415106,5.8527 -16.29512,-0.011 z"/><path style="fill:#189f5c;fill-opacity:1;fill-rule:nonzero;stroke:none" id="path3761" d="m 389.91887,757.39764 a 79.802048,72.73098 0 1 1 -159.6041,0 79.802048,72.73098 0 1 1 159.6041,0 z" transform="matrix(0.05915865,0,0,0.07067087,-0.08694729,980.72553)"/><path style="fill:none;stroke:#fff;stroke-width:1.5;stroke-linecap:round;stroke-linejoin:round;stroke-miterlimit:4;stroke-opacity:1;stroke-dasharray:none" id="path3771" d="m 15.963287,1035.182 2.183922,1.5692 2.582129,-4.934"/></g></svg>