<svg xmlns="http://www.w3.org/2000/svg" xmlns:svg="http://www.w3.org/2000/svg" xmlns:xlink="http://www.w3.org/1999/xlink" id="svg2" width="48" height="48" version="1.0"><defs id="defs4"><linearGradient id="linearGradient4131"><stop id="stop4133" offset="0" stop-color="#fff"/><stop id="stop4135" offset="1" stop-color="#fff" stop-opacity="0"/></linearGradient><linearGradient id="linearGradient4478"><stop id="stop4480" offset="0"/><stop id="stop4482" offset="1" stop-opacity="0"/></linearGradient><linearGradient id="linearGradient3147"><stop id="stop3149" offset="0"/><stop id="stop3151" offset="1" stop-color="#fff"/></linearGradient><linearGradient id="linearGradient3218" x1="36.649" x2="-4.368" y1="18.572" y2="16.28" gradientUnits="userSpaceOnUse"><stop id="stop3214" offset="0" stop-color="#555753"/><stop id="stop3233" offset=".99" stop-color="#d5d9d2"/><stop id="stop3216" offset="1" stop-color="#888a85"/></linearGradient><linearGradient id="linearGradient3323" x1="20.54" x2="7.596" y1="15.398" y2="12.481" gradientUnits="userSpaceOnUse"><stop id="stop3327" offset="0" stop-color="#6d6f6a"/><stop id="stop3329" offset=".801" stop-color="#e7e8e5"/><stop id="stop3331" offset="1" stop-color="#999b96"/></linearGradient><radialGradient id="radialGradient3341" cx="18.034" cy="27.858" r="15.447" fx="18.034" fy="27.858" gradientTransform="matrix(1.0764847,-0.22396096,0.05618656,0.27006859,-1.3080586,13.863602)" gradientUnits="userSpaceOnUse" xlink:href="#linearGradient4131"/><linearGradient id="linearGradient3359" x1="20.147" x2="15.96" y1="17.062" y2="20.609" gradientTransform="matrix(0.96774,0,0,0.83333,0.77419,1.5833)" gradientUnits="userSpaceOnUse"><stop id="stop3355" offset="0" stop-color="#babdb6"/><stop id="stop3357" offset="1" stop-color="#fff"/></linearGradient><radialGradient id="radialGradient3454" cx="23.969" cy="12.219" r="14.969" gradientTransform="matrix(1.2846519,0,0,0.4477622,-6.7905103,34.71878)" gradientUnits="userSpaceOnUse"><stop id="stop3450" offset="0"/><stop id="stop3452" offset="1" stop-opacity="0"/></radialGradient><linearGradient id="linearGradient3505" x1="6.25" x2="6.25" y1="9.037" y2="10.94" gradientTransform="translate(18)" gradientUnits="userSpaceOnUse"><stop id="stop3501" offset="0" stop-opacity=".323"/><stop id="stop3503" offset="1" stop-opacity="0"/></linearGradient><radialGradient id="radialGradient3517" cx="24" cy="12.5" r="15.5" gradientTransform="matrix(0.54006,0,0,0.18002086,11.039,8.2497876)" gradientUnits="userSpaceOnUse"><stop id="stop3513" offset="0"/><stop id="stop3515" offset="1" stop-opacity="0"/></radialGradient><linearGradient id="linearGradient3524" x1="29" x2="19" y1="7.75" y2="7.75" gradientUnits="userSpaceOnUse"><stop id="stop3489" offset="0" stop-color="#95998e"/><stop id="stop3526" offset=".595" stop-color="#fff"/><stop id="stop3491" offset="1" stop-color="#dfdfdb"/></linearGradient><linearGradient id="linearGradient3554" x1="26.464" x2="26.127" y1="9.528" y2="10.809" gradientTransform="scale(1,0.99999693)" gradientUnits="userSpaceOnUse"><stop id="stop3550" offset="0" stop-color="#888a85"/><stop id="stop3552" offset="1" stop-color="#d3d7cf"/></linearGradient><linearGradient id="linearGradient3563" x1="21.084" x2="21.674" y1="-8.572" y2="-10.483" gradientTransform="matrix(1,0,0.30875,-0.95114,0,0)" gradientUnits="userSpaceOnUse"><stop id="stop3559" offset="0" stop-color="#d3d7cf"/><stop id="stop3561" offset="1" stop-color="#eeeeec"/></linearGradient><radialGradient id="radialGradient4484" cx="18.75" cy="10.75" r="2.75" gradientTransform="matrix(0.90909,0,0,0.54544961,1.4545,4.636346)" gradientUnits="userSpaceOnUse" xlink:href="#linearGradient4478"/><radialGradient id="radialGradient4488" cx="18.75" cy="10.75" r="2.75" gradientTransform="matrix(0.90909,0,0,0.54544961,12.455,4.636346)" gradientUnits="userSpaceOnUse" xlink:href="#linearGradient4478"/><radialGradient id="radialGradient2277" cx="24" cy="18.468" r="14" gradientTransform="matrix(1,0,0,0.30363,0,14.142)" gradientUnits="userSpaceOnUse"><stop id="stop2273" offset="0"/><stop id="stop2275" offset="1" stop-opacity="0"/></radialGradient><radialGradient id="radialGradient2275" cx="12.143" cy="17.987" r="15.447" gradientTransform="matrix(0.89934812,-0.02275083,0.00385931,0.1525644,6.4972586,11.595607)" gradientUnits="userSpaceOnUse" xlink:href="#linearGradient4131"/><linearGradient id="linearGradient3221" x1="11.871" x2="39.457" y1="38.688" y2="39.438" gradientUnits="userSpaceOnUse" xlink:href="#linearGradient4095"><stop id="stop3215" offset="0" stop-color="#fff"/><stop id="stop3217" offset="1" stop-color="#fff" stop-opacity="0"/></linearGradient><linearGradient id="linearGradient3229" x1="18.247" x2="39.522" y1="16.375" y2="15.447" gradientUnits="userSpaceOnUse"><stop id="stop3225" offset="0" stop-color="#fff"/><stop id="stop3227" offset="1" stop-color="#fff" stop-opacity="0"/></linearGradient><linearGradient id="linearGradient2297" x1="12.02" x2="20.114" y1="25.62" y2="25.562" gradientTransform="matrix(1.1429,0,0,1,-3,1)" gradientUnits="userSpaceOnUse" xlink:href="#linearGradient3147"/><linearGradient id="linearGradient2300" x1="6.875" x2="15.672" y1="24.827" y2="25" gradientTransform="matrix(0.83333,0,0,1,2.25,1)" gradientUnits="userSpaceOnUse" xlink:href="#linearGradient3147"/><linearGradient id="linearGradient2305" x1="33.274" x2="37.535" y1="24.788" y2="24.5" gradientTransform="matrix(1.25,0,0,1,-8.875,1)" gradientUnits="userSpaceOnUse" xlink:href="#linearGradient3147"/><linearGradient id="linearGradient2308" x1="28.444" x2="31.362" y1="25.188" y2="25.276" gradientTransform="matrix(1.1429,0,0,1,-3.8571,1)" gradientUnits="userSpaceOnUse" xlink:href="#linearGradient3147"/><linearGradient id="linearGradient2311" x1="21.096" x2="25.977" y1="26.125" y2="26.125" gradientTransform="matrix(0.83333,0,0,1,3.6667,1)" gradientUnits="userSpaceOnUse" xlink:href="#linearGradient3147"/><linearGradient id="linearGradient4087" x1="20.002" x2="16.62" y1="39.688" y2="38.461" gradientTransform="translate(1.0052,-5.6326e-6)" gradientUnits="userSpaceOnUse" xlink:href="#linearGradient4131"/><linearGradient id="linearGradient4095" x1="27.006" x2="21.97" y1="41" y2="39.023" gradientTransform="matrix(0.61028,0,0,1,9.3454,0)" gradientUnits="userSpaceOnUse"><stop id="stop4091" offset="0" stop-color="#fff"/><stop id="stop4093" offset="1" stop-color="#fff" stop-opacity="0"/></linearGradient><linearGradient id="linearGradient4103" x1="33.399" x2="30" y1="41.207" y2="37.973" gradientTransform="translate(-0.99704,5.0008e-4)" gradientUnits="userSpaceOnUse" xlink:href="#linearGradient4131"/><linearGradient id="linearGradient4137" x1="36.562" x2="36.562" y1="40.76" y2="32.848" gradientUnits="userSpaceOnUse" xlink:href="#linearGradient4131"/><linearGradient id="linearGradient4139" x1="11.5" x2="11.5" y1="38.062" y2="29.922" gradientUnits="userSpaceOnUse" xlink:href="#linearGradient4131"/><linearGradient id="linearGradient1434" x1="21.445" x2="17.216" y1="38.813" y2="38.211" gradientTransform="matrix(0.69296,0,0,1,2.0699,-0.97775)" gradientUnits="userSpaceOnUse" xlink:href="#linearGradient4131"/><linearGradient id="linearGradient1438" x1="33.399" x2="30" y1="41.207" y2="37.973" gradientTransform="matrix(0.64642,0,0,1,14.071,-0.9995)" gradientUnits="userSpaceOnUse" xlink:href="#linearGradient4131"/><linearGradient id="linearGradient956" x1="29" x2="19" y1="7.75" y2="7.75" gradientUnits="userSpaceOnUse" xlink:href="#linearGradient3524"/><linearGradient id="linearGradient958" x1="25.685" x2="19" y1="7.706" y2="7.75" gradientUnits="userSpaceOnUse" xlink:href="#linearGradient3524"/></defs><metadata id="metadata7"/><path style="color:#000;opacity:.8;fill:url(#radialGradient3454);stroke-width:1.36652625" id="path3445" d="m 44.336773,40.190237 a 20.335387,7.0877125 0 1 1 -40.670773,0 20.335386,7.0877127 0 1 1 40.670773,0 z"/><path style="color:#000;fill:url(#linearGradient3218);stroke:#131313;stroke-width:1.02919996;stroke-linecap:round;stroke-opacity:1" id="path3089" d="m 22.5,7.5 c -6.757,0.234 -13,2.255 -13,5 v 27 c 0,2.766 6.441,5 14.469,5 8.028,0 14.531,-2.234 14.531,-5 v -27 c 0,-2.7656 -6.503,-5 -14.531,-5 -0.377,0 -0.756,-0.0097 -1.125,0 -0.118,0.0031 -0.228,-0.004 -0.344,0 z"/><path style="color:#000;opacity:.70980003;fill:none;stroke:url(#linearGradient3221);stroke-linecap:round" id="path3226" d="M 22.938,8.5 C 16.357,8.6584 11.101,10.444 10.518,12.516 10.502,12.579 10.5,39.435 10.5,39.5 c 0,2 6.411,4 13.469,4 7.291,0 13.531,-2 13.531,-4 0,-0.046 0.005,-26.829 0,-26.875 C 37.225,10.342 31.26,8.5 23.969,8.5 c -0.35,0 -0.688,-0.0083 -1.031,0 z"/><rect style="color:#000;opacity:.3;fill:url(#linearGradient2311)" id="rect3235" width="4" height="22" x="22" y="19" rx="2" ry="2"/><rect style="color:#000;opacity:.3;fill:url(#linearGradient2308)" id="rect3237" width="4" height="22" x="27" y="18.5" rx="2.286" ry="2"/><rect style="color:#000;opacity:.3;fill:url(#linearGradient2305)" id="rect3239" width="3" height="22" x="32" y="17.5" rx="1.5" ry="1.5"/><rect style="color:#000;opacity:.3" id="rect3241" width="1" height="22" x="36" y="15.5" rx=".5" ry="2"/><rect style="color:#000;opacity:.3;fill:#fff" id="rect3243" width="1" height="22" x="11" y="16" rx=".5" ry="2"/><rect style="color:#000;opacity:.5;fill:url(#linearGradient2300)" id="rect3245" width="3" height="22" x="13" y="17.5" rx="1.5" ry="1.5"/><rect style="color:#000;opacity:.5;fill:url(#linearGradient2297)" id="rect3247" width="4" height="22" x="17" y="18.5" rx="2.286" ry="2"/><rect style="color:#000;fill:none;stroke:url(#linearGradient4095);stroke-linecap:round" id="rect2315" width="3.063" height="21.023" x="22.459" y="19.478" rx="1.531" ry="1.531"/><rect style="color:#000;opacity:.49412004;fill:none;stroke:url(#linearGradient4103);stroke-linecap:round" id="rect2317" width="3.006" height="21.001" x="27.5" y="19" rx="1.503" ry="1.492"/><rect style="color:#000;fill:none;stroke:url(#linearGradient4087);stroke-linecap:round" id="rect2325" width="3.007" height="21.022" x="17.5" y="18.978" rx="1.718" ry="1.536"/><rect style="color:#000;opacity:.4;fill:url(#linearGradient4137)" id="rect4127" width="1" height="22" x="36" y="15.5" rx=".5" ry="2"/><rect style="color:#000;opacity:.3;fill:url(#linearGradient4139)" id="rect4129" width="1" height="22" x="11" y="16" rx=".5" ry="2"/><rect style="color:#000;fill:none;stroke:url(#linearGradient1434);stroke-linecap:round" id="rect1432" width="2.084" height="21.022" x="13.5" y="18" rx="1.718" ry="1.536"/><rect style="color:#000;opacity:.49412004;fill:none;stroke:url(#linearGradient1438);stroke-linecap:round" id="rect1436" width="1.943" height="21.001" x="32.492" y="18" rx=".972" ry=".972"/><path style="color:#000;opacity:.55294004;fill:url(#radialGradient2277)" id="rect2268" d="M 23.188,15.5 C 17.505,15.577 12.602,16.457 10,17.707 v 4.086 C 12.727,23.103 17.97,24 24,24 30.03,24 35.273,23.103 38,21.793 V 17.707 C 35.273,16.397 30.03,15.5 24,15.5 c -0.276,0 -0.54,-0.004 -0.812,0 z"/><path style="color:#000;fill:url(#linearGradient3323);stroke:#000;stroke-linecap:round;stroke-opacity:1" id="path3119" d="M 22.419,6.5091 C 14.605,6.8165 8.498,9.3807 8.498,12.486 v 3.004 c 0,3.311 6.927,6.007 15.485,6.007 8.558,0 15.517,-2.696 15.517,-6.007 v -3.004 c 0,-3.3123 -6.959,-5.9769 -15.517,-5.9769 -0.535,0 -1.043,-0.0205 -1.564,0 z"/><path style="color:#000;fill:url(#linearGradient956);stroke:#000;stroke-width:2;stroke-linecap:round;stroke-opacity:1" id="path3567" d="M 19.5,9 19,11 h 1 c 0,-1.5 2.301,-3.9964 4,-3.9964 1.699,0 4,2.4964 4,3.9964 h 1 L 28.5,9 C 28.229,7.1691 27,4.5 24,4.5036 21,4.5072 19.758,7.255 19.5,9 Z"/><path style="color:#000;fill:url(#linearGradient3359);stroke-width:.89802384" id="path3343" d="m 38.99992,12.176591 c 0,2.759989 -6.719987,4.823314 -14.99997,4.823314 -8.279983,0 -14.99997,-2.239991 -14.99997,-4.99998 0,-2.759989 6.719987,-4.99998 14.99997,-4.99998 8.279983,0 14.99997,3.033321 14.99997,5.176646 z"/><path style="color:#000;opacity:.3;fill:url(#radialGradient3517);stroke-width:.50115359" id="path3507" d="m 32.37137,10.500025 a 8.37093,2.7903 0 1 1 -16.74186,0 8.37093,2.7903 0 1 1 16.74186,0 z"/><path style="color:#000;opacity:.56471001;fill:none;stroke:url(#linearGradient3229);stroke-linecap:round" id="path3321" d="M 22.53,7.5 C 15.216,7.7674 9.5,9.9974 9.5,12.698 v 2.612 c 0,2.881 6.484,5.225 14.494,5.225 8.01,0 14.523,-2.344 14.523,-5.225 V 12.698 C 38.517,9.8174 32.004,7.5 23.994,7.5 c -0.501,0 -0.977,-0.0178 -1.464,0 z"/><path style="color:#000;fill:none;stroke:url(#radialGradient3341);stroke-width:1.0000006;stroke-linecap:round" id="path3333" d="m 38.53219,11.6745 a 14.5161,5.1744 0 1 1 -29.0322,0 14.5161,5.1744 0 1 1 29.0322,0 z"/><path id="path4486" d="m 32.000435,10.499955 a 2.4999975,1.499995 0 1 1 -4.999995,0 2.4999975,1.499995 0 1 1 4.999995,0 z" style="color:#000;opacity:.55686005;fill:url(#radialGradient4488);stroke-width:.88273293"/><path id="path4476" d="m 20.999935,10.499955 a 2.4999975,1.499995 0 1 1 -4.999995,0 2.4999975,1.499995 0 1 1 4.999995,0 z" style="color:#000;opacity:.55686005;fill:url(#radialGradient4484);stroke-width:.88273293"/><rect style="color:#000;fill:url(#linearGradient3554);stroke-width:.99999845" id="rect3528" width="2.543" height="2.038" x="24.957" y="9.462" rx=".418" ry=".391" transform="matrix(1,0,0.30875095,0.95114292,0,0)"/><path style="color:#000;fill:url(#linearGradient3563);stroke-width:.97526407" id="rect3530" d="m 17.367375,10.93811 h 1.706 c 0.232,0 0.471722,-0.165498 0.538721,-0.371896 L 19.999824,9.3717726 C 20.066669,9.1658508 19.934515,8.999972 19.702515,8.999972 h -1.706 c -0.232,0 -0.471846,0.1658788 -0.538691,0.3718006 l -0.387728,1.1944414 c -0.067,0.206398 0.06528,0.371896 0.297279,0.371896 z"/><path style="color:#000;fill:url(#linearGradient958)" id="path3461" d="M 19.5,9 19,11 h 1 c 0,-1.5 2.301,-3.9964 4,-3.9964 1.699,0 4,2.4964 4,3.9964 h 1 L 28.5,9 C 28.229,7.1691 27,4.5 24,4.5036 21,4.5072 19.758,7.255 19.5,9 Z"/><path style="color:#000;fill:url(#linearGradient3505);stroke:#fff;stroke-linecap:round" id="path3366" d="m 17.5,11 h 2 C 19.5,11 20,7.5 24,7.5036 28.002,7.5072 28.5,11 28.5,11 h 1.971"/><path style="color:#000;fill:none;stroke:url(#radialGradient2275);stroke-width:.99998951;stroke-linecap:round" id="path2273" d="m 32.047515,11.67433 a 8.03085,2.86264 0 1 1 -16.0617,0 8.03085,2.86264 0 1 1 16.0617,0 z"/></svg>