<svg xmlns="http://www.w3.org/2000/svg" width="48" height="48"><defs><radialGradient id="rG" cx="11" cy="19" r="8" gradientUnits="userSpaceOnUse"><stop id="stop5107" offset="0"/><stop id="stop5109" offset="1" stop-opacity="0"/></radialGradient><linearGradient id="lG" x1="17" x2="35" y1="10" y2="40" gradientTransform="matrix(1.0046 0 0 1 -1 .05)" gradientUnits="userSpaceOnUse"><stop id="stop5115" offset="0" stop-color="#fff"/><stop id="stop5117" offset="1" stop-color="#fff" stop-opacity="0"/></linearGradient></defs><path fill="url(#rG)" d="m19,19a8,2 0 1,1-16,0 8,2 0 1,1 16,0z" opacity=".2" transform="matrix(2.5 0 0 2.4 -3.9 -5.4)"/><path fill="#3465a4" stroke="#204a87" d="m22.5,9.5 19,16.5-19,16.5v-8h-15v-17h15v-8z"/><path fill="#729fcf" d="m8,18v8h32.8l-17.6-14.7v6.7" opacity=".4"/><path fill="none" stroke="url(#lG)" d="m23.5,11.8 16.5,14.3-16.5,14.3v-6.8h-15v-15h15v-6.8z" opacity=".4"/></svg>