<svg xmlns="http://www.w3.org/2000/svg" xmlns:cc="http://web.resource.org/cc/" xmlns:xlink="http://www.w3.org/1999/xlink" id="svg2" width="48" height="48" version="1.0"><defs id="defs4"><radialGradient id="radialGradient4354" cx="11.25" cy="19.031" r="8.063" gradientTransform="matrix(1 0 0 .28295 0 13.646)" gradientUnits="userSpaceOnUse"><stop id="stop5107" offset="0"/><stop id="stop5109" offset="1" stop-opacity="0"/></radialGradient><linearGradient id="linearGradient5315" x1="30.377" x2="11.726" y1="11.133" y2="41.419" gradientTransform="matrix(-1.0046 0 0 1 48.044 .0078752)" gradientUnits="userSpaceOnUse"><stop id="stop5115" offset="0" stop-color="#fff"/><stop id="stop5117" offset="1" stop-color="#fff" stop-opacity="0"/></linearGradient></defs><metadata id="metadata7"/><g id="layer1"><path id="path4346" fill="url(#radialGradient4354)" d="m19.312 19.031a8.0625 2.2812 0 1 1 -16.124 0 8.0625 2.2812 0 1 1 16.124 0z" opacity=".163" transform="matrix(2.4806 0 0 2.411 -3.907 -5.3836)" style="color:#000"/><path id="path4348" fill="#3465a4" stroke="#204a87" d="m24.504 9.5l-19.004 16.506 19.004 16.423v-7.87h14.996v-17.055h-14.996v-8.004z" style="color:#000"/><path id="path4352" fill="#729fcf" d="m39.006 18.008v7.952l-32.768-0.024 17.614-15.344v7.416h15.154z" opacity=".354" style="color:#000"/><path id="path4360" fill="none" stroke="url(#linearGradient5315)" d="m23.433 11.641l-16.516 14.386 16.516 14.2v-6.739h15.067v-14.978h-15.067v-6.869z" opacity=".354" style="color:#000"/></g></svg>