<svg xmlns="http://www.w3.org/2000/svg" xmlns:cc="http://web.resource.org/cc/" xmlns:xlink="http://www.w3.org/1999/xlink" id="svg1117" width="173.177" height="76.8"><metadata/><defs id="defs1118"><marker id="ArrowEnd" markerHeight="3" markerUnits="strokeWidth" markerWidth="4" orient="auto" refX="0" refY="5" viewBox="0 0 10 10"><path id="path1120" d="M 0 0 L 10 5 L 0 10 z"/></marker><marker id="ArrowStart" markerHeight="3" markerUnits="strokeWidth" markerWidth="4" orient="auto" refX="10" refY="5" viewBox="0 0 10 10"><path id="path1122" d="M 10 0 L 0 5 L 10 10 z"/></marker></defs><g id="g1123"><path id="path1124" d="M 120.04 15.7225L 81.5306 15.7225L 157.455 55.8654L 157.455 35.5045L 120.04 15.7225z" style="stroke:none;fill:#000"/><path id="path1125" d="M 157.455 15.7225L 120.04 15.7225L 157.455 35.5045L 157.455 15.7225z" style="stroke:none;fill:#fc0"/><path id="path1126" d="M 42.277700,15.722500 L 128.05900,61.077100 L 157.45500,61.077100 L 157.45500,55.865400 L 82.069052,15.543016 L 42.277700,15.722500 z" style="stroke:none;fill:#fc0"/><path id="path1127" d="M 15.7224 15.7225L 15.7224 23.1283L 87.4967 61.0771L 128.059 61.0771L 42.2777 15.7225L 15.7224 15.7225z" style="stroke:none;fill:#000"/><path id="path1128" d="M 15.7224 43.8822L 48.2439 61.0771L 87.4967 61.0771L 15.7224 23.1283L 15.7224 43.8822z" style="stroke:none;fill:#fc0"/><path id="path1129" d="M 15.7224 61.0771L 48.2439 61.0771L 15.7224 43.8822L 15.7224 61.0771z" style="stroke:none;fill:#000"/><path id="path1130" d="M 157.455 61.0772L 157.455 15.7225L 15.7225 15.7225L 15.7225 61.0772L 157.455 61.0772z" style="stroke:#000;stroke-width:3;fill:none"/></g></svg>