<svg xmlns="http://www.w3.org/2000/svg" xmlns:svg="http://www.w3.org/2000/svg" id="svg2" width="11" height="16" version="1.1"><metadata id="metadata7"/><g id="layer1" transform="translate(-310,-577.36218)"><rect style="fill:#fea;fill-opacity:1;stroke:none" id="rect2987" width="11" height="16" x="310" y="577.362"/><path style="fill:none;stroke:#000;stroke-width:.40000001;stroke-linecap:butt;stroke-linejoin:miter;stroke-miterlimit:4;stroke-opacity:1;stroke-dasharray:none" id="path2989" d="m 311,580.36218 1,-1 2,1 1,-1 1,1 2,-1 1,1 1,-1 0,0"/><path style="fill:none;stroke:#000;stroke-width:.40000001;stroke-linecap:butt;stroke-linejoin:miter;stroke-miterlimit:4;stroke-opacity:1;stroke-dasharray:none" id="path2989-1" d="m 311,583.36218 1,-1 2,1 1,-1 1,1 2,-1 1,1 1,-1 0,0"/><path style="fill:none;stroke:#000;stroke-width:.40000001;stroke-linecap:butt;stroke-linejoin:miter;stroke-miterlimit:4;stroke-opacity:1;stroke-dasharray:none" id="path2989-7" d="m 311,586.36218 1,-1 2,1 1,-1 1,1 2,-1 1,1 1,-1 0,0"/><path style="fill:none;stroke:#000;stroke-width:.40000001;stroke-linecap:butt;stroke-linejoin:miter;stroke-miterlimit:4;stroke-opacity:1;stroke-dasharray:none" id="path2989-4" d="m 311,589.36218 1,-1 2,1 1,-1 1,1 2,-1 1,1 1,-1 0,0"/><path style="fill:none;stroke:#000;stroke-width:.40000001;stroke-linecap:butt;stroke-linejoin:miter;stroke-miterlimit:4;stroke-opacity:1;stroke-dasharray:none" id="path2989-0" d="m 311,592.36218 1,-1 2,1 1,-1 1,1 2,-1 1,1 1,-1 0,0"/></g></svg>