<svg xmlns="http://www.w3.org/2000/svg" xmlns:svg="http://www.w3.org/2000/svg" id="svg2" width="16" height="16" version="1.1" viewBox="0 0 16 16"><metadata id="metadata7"/><g id="layer1" transform="translate(0,-1036.3622)"><rect style="color:#000;clip-rule:nonzero;display:inline;overflow:visible;visibility:visible;opacity:1;isolation:auto;mix-blend-mode:normal;color-interpolation:sRGB;color-interpolation-filters:linearRGB;solid-color:#000;solid-opacity:1;fill:#fff;fill-opacity:1;fill-rule:evenodd;stroke:none;stroke-width:1.60000002;stroke-linecap:round;stroke-linejoin:miter;stroke-miterlimit:4;stroke-dasharray:none;stroke-dashoffset:0;stroke-opacity:1;color-rendering:auto;image-rendering:auto;shape-rendering:auto;text-rendering:auto;enable-background:accumulate" id="rect4138" width="16" height="16" x="0" y="1036.362" ry="0"/><g id="g5653" transform="matrix(0.12490242,0,0,0.12490242,-44.952356,984.74003)" style="fill:#090;fill-opacity:1"><path id="path3495" d="m 471.9,510.8 -3.2,-8.5 c -1.4,-3.5 -4.6,-5.9 -8.6,-5.9 l -1.4,0 0,-73.2 -69.5,0 0,40.5 9.1,0 10.4,-13 c 2.1,-2.4 5.3,-4 8.8,-4 l 22.2,0 c 3.5,0 6.6,1.9 8.2,5 l 6.6,12.5 c 0.3,0.5 0.5,1.1 0.5,1.9 0,2.2 -1.9,4.2 -4.2,4.2 -1.8,0 -3,-0.8 -3.8,-2.2 l -5.9,-11.4 -9.6,0 7.4,18.4 2.2,23.5 19,0 c 3,0 5.4,1.9 6.6,4.5 l 2.1,5.4 -32.8,0 c -2.4,0 -4.5,-1.8 -4.6,-4.2 l -2.2,-20.6 -17.6,36.5 c -1,2.1 -3.2,3.5 -5.8,3.5 l -8.5,0 21.6,-44.7 -6.7,-16.8 -6.4,7.8 c -1.6,2.1 -4.3,3.5 -7.2,3.5 l -9.4,0 0,52.8 15,14.9 -44.3,0 0,-127.9 128.1,0 0,128.1 -14.4,0 -14.9,-14.9 0,-15.7 13.2,0" style="fill:#090;fill-opacity:1"/><path id="path3497" d="m 412,428 0.5,0 0.5,0 0.5,0.1 0.4,0.1 0.4,0.1 0.4,0.1 0.4,0.2 0.4,0.2 0.4,0.2 0.4,0.2 0.4,0.2 0.4,0.2 0.3,0.3 0.3,0.3 0.3,0.3 0.3,0.3 0.3,0.3 0.3,0.3 0.3,0.3 0.3,0.4 0.2,0.4 0.2,0.4 0.2,0.4 0.2,0.4 0.2,0.4 0.1,0.4 0.1,0.4 0.1,0.4 0.1,0.4 0.1,0.5 0,0.5 0,0.5 c 0,5 -4.2,9 -9.1,9 -5,0 -9,-4 -9,-9 0,-5 4.2,-9.2 9.1,-9.2 z" style="fill:#090;fill-opacity:1"/><path id="path3499" d="m 416,529.8 11.5,11.5 -13.9,0 -15,-14.9 9,0 c 3.1,0 6.2,1.3 8.4,3.4 z" style="fill:#090;fill-opacity:1"/></g></g></svg>