<svg xmlns="http://www.w3.org/2000/svg" xmlns:svg="http://www.w3.org/2000/svg" id="svg2" width="16" height="16" version="1.0"><defs id="defs22"><marker id="ArrowStart" markerHeight="3" markerUnits="strokeWidth" markerWidth="4" orient="auto" refX="10" refY="5" viewBox="0 0 10 10"><path id="path3568" d="M 10,0 0,5 10,10 Z"/></marker><marker id="ArrowEnd" markerHeight="3" markerUnits="strokeWidth" markerWidth="4" orient="auto" refX="0" refY="5" viewBox="0 0 10 10"><path id="path3565" d="M 0,0 10,5 0,10 Z"/></marker><marker id="marker2959" markerHeight="3" markerUnits="strokeWidth" markerWidth="4" orient="auto" refX="10" refY="5" viewBox="0 0 10 10"><path id="path2626" d="M 10,0 0,5 10,10 Z"/></marker><marker id="marker2956" markerHeight="3" markerUnits="strokeWidth" markerWidth="4" orient="auto" refX="0" refY="5" viewBox="0 0 10 10"><path id="path2623" d="M 0,0 10,5 0,10 Z"/></marker><marker id="marker3077" markerHeight="3" markerUnits="strokeWidth" markerWidth="4" orient="auto" refX="10" refY="5" viewBox="0 0 10 10"><path id="path3298" d="M 10,0 0,5 10,10 Z"/></marker><marker id="marker3074" markerHeight="3" markerUnits="strokeWidth" markerWidth="4" orient="auto" refX="0" refY="5" viewBox="0 0 10 10"><path id="path3295" d="M 0,0 10,5 0,10 Z"/></marker></defs><metadata id="metadata10"/><path id="path1329" d="M 1.792253,0.00176061 C 0.64495383,0.00176061 0,0.59391061 0,1.8037806 L 0,14.275761 c 0,1.13171 0.57994055,1.72424 1.726228,1.72424 l 12.546522,0 c 1.146528,0 1.72725,-0.56291 1.72725,-1.72424 L 16,1.8037806 c 0,-1.18038999 -0.580722,-1.80201999 -1.763142,-1.80201999 -8e-5,0 -12.4485419,-0.004 -12.444605,0 z" style="fill:#4d4d4d;stroke:none;stroke-width:3.40799999;fill-opacity:1"/><g id="g2319" transform="translate(879.29125,-527.19488)"><path id="path2323" style="fill:#fff;stroke:none"/></g><g id="g2325" transform="translate(879.29125,-527.19488)"><path id="path2329" style="fill:#fff;stroke:none"/></g><g id="g4264" transform="translate(5.9999998,0)"><path id="path8372" d="m 2.478544,11.578874 0,-8.0822 5.0753842,0 0,8.0822" style="fill:none;stroke:#fff;stroke-width:1.03557968;stroke-linecap:round;stroke-linejoin:round;stroke-miterlimit:4;stroke-dasharray:none;stroke-opacity:1"/><rect id="rect8376" width="4.293" height="7.421" x="2.834" y="4.055" style="opacity:.2;fill:#fff;fill-opacity:1;stroke:#fff;stroke-width:1.10825205;stroke-linecap:round;stroke-linejoin:round;stroke-miterlimit:4;stroke-dasharray:none;stroke-dashoffset:0;stroke-opacity:1"/></g><g id="g8450" transform="matrix(0.03016554,0,0,0.02741884,-0.26275126,-0.49419966)"><path id="path8395" d="m 53.457112,288.64978 160.583208,0 -39.38834,-75.7468" style="fill:none;stroke:#fff;stroke-width:42.84885788;stroke-linecap:round;stroke-linejoin:round;stroke-miterlimit:4;stroke-dasharray:none;stroke-opacity:1"/><path style="fill:none;stroke:#fff;stroke-width:42.84885788;stroke-linecap:round;stroke-linejoin:round;stroke-miterlimit:4;stroke-dasharray:none;stroke-opacity:1" id="path8397" d="m 53.457112,294.31581 160.583208,0 -39.38834,75.7468"/></g></svg>