<svg xmlns="http://www.w3.org/2000/svg" xmlns:svg="http://www.w3.org/2000/svg" id="svg4264" width="16" height="13" version="1.1" viewBox="0 0 16 13"><defs id="defs4266"><marker id="EmptyTriangleInL" orient="auto" refX="0" refY="0" style="overflow:visible"><path id="path4298" d="m 5.77,0 -8.65,5 0,-10 8.65,5 z" transform="matrix(-0.8,0,0,-0.8,4.8,0)" style="fill:#fff;fill-rule:evenodd;stroke:#000;stroke-width:1pt;stroke-opacity:1"/></marker><marker id="marker4778" orient="auto" refX="0" refY="0" style="overflow:visible"><path id="path4780" d="M 0,0 5,-5 -12.5,0 5,5 0,0 Z" transform="matrix(0.8,0,0,0.8,10,0)" style="fill:#000;fill-opacity:1;fill-rule:evenodd;stroke:#000;stroke-width:1pt;stroke-opacity:1"/></marker><marker id="marker4657" orient="auto" refX="0" refY="0" style="overflow:visible"><path id="path4659" d="M 0,0 5,-5 -12.5,0 5,5 0,0 Z" transform="matrix(0.8,0,0,0.8,10,0)" style="fill:#000;fill-opacity:1;fill-rule:evenodd;stroke:#000;stroke-width:1pt;stroke-opacity:1"/></marker><marker style="overflow:visible" id="InfiniteLineStart" orient="auto" refX="0" refY="0"><g id="g4391" transform="translate(-13,0)" style="fill:#000;fill-opacity:1;stroke:#000;stroke-opacity:1"><circle id="circle4393" cx="3" cy="0" r=".8" style="fill:#000;fill-opacity:1;stroke:#000;stroke-opacity:1"/><circle id="circle4395" cx="6.5" cy="0" r=".8" style="fill:#000;fill-opacity:1;stroke:#000;stroke-opacity:1"/><circle id="circle4397" cx="10" cy="0" r=".8" style="fill:#000;fill-opacity:1;stroke:#000;stroke-opacity:1"/></g></marker><marker id="Arrow2Lstart" orient="auto" refX="0" refY="0" style="overflow:visible"><path id="path4165" d="M 8.7185878,4.0337352 -2.2072895,0.01601326 8.7185884,-4.0017078 c -1.7454984,2.3720609 -1.7354408,5.6174519 -6e-7,8.035443 z" transform="matrix(1.1,0,0,1.1,1.1,0)" style="fill:#000;fill-opacity:1;fill-rule:evenodd;stroke:#000;stroke-width:.625;stroke-linejoin:round;stroke-opacity:1"/></marker><marker id="Arrow1Mstart" orient="auto" refX="0" refY="0" style="overflow:visible"><path id="path4153" d="M 0,0 5,-5 -12.5,0 5,5 0,0 Z" transform="matrix(0.4,0,0,0.4,4,0)" style="fill:#000;fill-opacity:1;fill-rule:evenodd;stroke:#000;stroke-width:1pt;stroke-opacity:1"/></marker><marker id="Arrow1Lstart" orient="auto" refX="0" refY="0" style="overflow:visible"><path id="path4147" d="M 0,0 5,-5 -12.5,0 5,5 0,0 Z" transform="matrix(0.8,0,0,0.8,10,0)" style="fill:#000;fill-opacity:1;fill-rule:evenodd;stroke:#000;stroke-width:1pt;stroke-opacity:1"/></marker></defs><metadata id="metadata4269"/><g id="layer1" transform="translate(0,-1039.3621)"><path style="opacity:1;fill:none;fill-opacity:1;stroke:#fff;stroke-width:1.5;stroke-linecap:butt;stroke-linejoin:miter;stroke-miterlimit:4;stroke-dasharray:none;stroke-opacity:1" id="rect4208" d="m 10.30469,1040.5228 a 0.50005003,0.50005003 0 0 0 -0.3496108,0.8594 l 3.0429698,3.043 -2.998048,0 c -0.5540224,0 -0.9999999,0.446 -0.9999999,1 l 0,5 c 0,0.554 0.4459775,1 0.9999999,1 l 4.000001,0 c 0.554022,0 1,-0.446 1,-1 l 0,-5 c 0,-0.2821 -0.118019,-0.5334 -0.304688,-0.7149 a 0.50005003,0.50005003 0 0 0 -0.0332,-0.035 l -4,-4 a 0.50005003,0.50005003 0 0 0 -0.357421,-0.1524 z"/><path id="path4206" d="m 1.2412669,1051.3621 c 0,0 1.7520542,-3.3347 3.5041086,-3.3347 1.7520544,0 3.5041087,3.3347 3.5041087,3.3347 z" style="fill:none;fill-rule:evenodd;stroke:#fff;stroke-width:1.50000024;stroke-linecap:butt;stroke-linejoin:miter;stroke-miterlimit:4;stroke-dasharray:none;stroke-opacity:1"/><rect style="opacity:1;fill:green;fill-opacity:1;stroke:none;stroke-width:1;stroke-linecap:butt;stroke-linejoin:miter;stroke-miterlimit:4;stroke-dasharray:none;stroke-opacity:1" id="rect4227" width="6" height="7" x="9" y="1044.362" rx="1" ry="1"/><path style="fill:none;fill-rule:evenodd;stroke:green;stroke-width:1;stroke-linecap:round;stroke-linejoin:round;stroke-miterlimit:4;stroke-dasharray:none;stroke-opacity:1" id="path4229" d="m 14.309365,1044.9644 -4,-4"/><path style="fill:#999;fill-rule:evenodd;stroke:none;stroke-width:1px;stroke-linecap:butt;stroke-linejoin:miter;stroke-opacity:1" id="path4233" d="m 1.2412669,1051.3621 c 0,0 1.7520541,-3.3346 3.5041084,-3.3346 1.7520543,0 3.5041086,3.3346 3.5041086,3.3346 z"/></g></svg>