<svg xmlns="http://www.w3.org/2000/svg" xmlns:svg="http://www.w3.org/2000/svg" id="svg2" width="16" height="12" version="1.1" viewBox="0 0 16 12" xml:space="preserve"><title id="title3096">Pancarte</title><g id="g10" transform="matrix(1.25,0,0,-1.25,0,12)"><rect id="rect3749" width="12.8" height="9.6" x="0" y="-9.6" transform="scale(1,-1)" style="fill:#0000a0;fill-opacity:1"/><path id="rect3759" d="M 2.6842219,8.407381 C 2.6837888,7.6789791 1.9414953,6.9452137 1.2309486,6.9254159 l 0,-4.2688679 C 1.9482318,2.6570042 2.6972619,1.8471268 2.6842219,1.1187517 l 7.4493391,-6.82e-5 c 0.02726,0.7351116 0.778174,1.5087896 1.451606,1.5378645 l 0,4.2688679 c -0.642861,-0.00701 -1.451304,0.7670481 -1.451606,1.4819857 l -7.4493391,5.04e-5 z" style="fill:none;stroke:#fff;stroke-width:.67839998;stroke-miterlimit:4;stroke-dasharray:none"/><g style="fill:#fff;fill-opacity:1;stroke:none;stroke-width:1px;stroke-linecap:butt;stroke-linejoin:miter;stroke-opacity:1" id="text4146" transform="scale(1,-1)"><path id="path4151" d="m 5.861626,-5.4307982 0,-0.013176 c 0,-0.00439 0.0022,-0.010981 0.00659,-0.019764 l 0,-0.026351 0,-0.026352 c 0,-0.017567 -0.0022,-0.037331 -0.00659,-0.059291 0,-0.021959 -0.0022,-0.043919 -0.00659,-0.065879 -0.013176,-0.052703 -0.039527,-0.098818 -0.079054,-0.1383455 -0.035135,-0.043919 -0.092249,-0.067553 -0.1712849,-0.065879 l -0.5204426,0 0,-0.4971595 0.4677396,0 c 0.2108122,0 0.4062527,-0.063683 0.5863214,-0.1910486 0.1844607,-0.1317576 0.3293941,-0.2443564 0.4348002,-0.4024656 0.026351,-0.035135 0.048311,-0.068075 0.065879,-0.098818 0.021959,-0.035135 0.039527,-0.070271 0.052703,-0.1054061 l 0.4677396,0 0,3.7957744 c 0,0.1054061 0.024155,0.1932446 0.072466,0.2635153 0.048311,0.065879 0.1097978,0.098818 0.1844608,0.098818 l 0.5731457,0 0,0.6215714 -2.9052558,0 0,-0.6215714 0.5204426,0 c 0.1010142,0 0.1690889,-0.02196 0.2042243,-0.065879 0.035135,-0.048311 0.052703,-0.1646974 0.052703,-0.3491577 z"/></g></g><metadata id="metadata16"/></svg>