<svg xmlns="http://www.w3.org/2000/svg" xmlns:svg="http://www.w3.org/2000/svg" id="svg2" width="16" height="16" version="1.1" viewBox="0 0 16 16"><metadata id="metadata7"/><g id="layer1" transform="translate(0,-1036.3622)"><path style="color:#000;clip-rule:nonzero;display:inline;overflow:visible;visibility:visible;opacity:1;isolation:auto;mix-blend-mode:normal;color-interpolation:sRGB;color-interpolation-filters:linearRGB;solid-color:#000;solid-opacity:1;fill:#ecac00;fill-opacity:1;fill-rule:evenodd;stroke:none;stroke-width:4;stroke-linecap:butt;stroke-linejoin:miter;stroke-miterlimit:4;stroke-dasharray:none;stroke-dashoffset:0;stroke-opacity:1;color-rendering:auto;image-rendering:auto;shape-rendering:auto;text-rendering:auto;enable-background:accumulate" id="rect4145" d="M 3,0 C 1.3379904,0 0,1.3379904 0,3 l 0,7 c 0,1.66201 1.3379904,3 3,3 1.3333333,0 3.6629126,-0.03157 4,1.325553 C 7.0315673,16.050699 8.3379889,16 10,16 l 3,0 c 1.662011,0 3,-1.337989 3,-3 l 0,-2 C 16,10.828411 15.97663,10.663566 15.94922,10.5 15.976626,10.336434 16,10.171589 16,10 L 16,3 C 16,1.3379904 14.66201,0 13,0 Z M 3.5,3 C 4.331,3 5,3.669 5,4.5 l 0,1 C 5,6.331 4.331,7 3.5,7 2.669,7 2,6.331 2,5.5 l 0,-1 C 2,3.669 2.669,3 3.5,3 Z m 7,1 2,0 C 13.331,4 14,4.669 14,5.5 l 0,6 c 0,0.831 -0.669,1.5 -1.5,1.5 l -2,0 C 9.669,13 9,12.331 9,11.5 l 0,-6 C 9,4.669 9.669,4 10.5,4 Z" transform="translate(0,1036.3622)"/></g></svg>