<svg xmlns="http://www.w3.org/2000/svg" xmlns:svg="http://www.w3.org/2000/svg" id="svg3042" width="13" height="16" version="1.1"><metadata id="metadata3047"/><g id="layer1" transform="translate(-340,-462.36218)"><rect style="fill:#fc0;fill-opacity:1;stroke:none" id="rect3052" width="13" height="16" x="340" y="462.362" ry="2"/><rect style="fill:#000;fill-opacity:1;stroke:none" id="rect3054" width="9" height="1" x="342" y="468.362" ry="0"/><rect style="fill:#000;fill-opacity:1;stroke:none" id="rect3056" width="1" height="5" x="346" y="469.362"/><rect style="fill:#ffe680;fill-opacity:1;stroke:none" id="rect3058" width="3" height="3" x="341" y="464.362"/><rect style="fill:#ffe680;fill-opacity:1;stroke:none" id="rect3060" width="5" height="3" x="347" y="464.362"/><rect style="fill:#ffe680;fill-opacity:1;stroke:none" id="rect3062" width="4" height="2" x="341" y="470.362"/><rect style="fill:#ffe680;fill-opacity:1;stroke:none" id="rect3064" width="4" height="2" x="348" y="470.362"/><rect style="fill:#ffe680;fill-opacity:1;stroke:none" id="rect3066" width="7" height="2" x="343" y="475.362"/><text style="font-size:1.421085px;font-style:normal;font-weight:400;line-height:125%;letter-spacing:0;word-spacing:0;fill:#000;fill-opacity:1;stroke:none;font-family:Sans" id="text3068" x="327.967" y="488.479" transform="scale(1.051936,0.95062818)" xml:space="preserve"><tspan id="tspan3070" x="327.967" y="488.479">GAS</tspan></text><text style="font-size:4.3321867px;font-style:normal;font-weight:400;line-height:125%;letter-spacing:0;word-spacing:0;fill:#000;fill-opacity:1;stroke:none;font-family:Sans" id="text3068-1" x="329.891" y="483.107" transform="scale(1.0336891,0.96740886)" xml:space="preserve"><tspan id="tspan3070-7" x="329.891" y="483.107">A</tspan></text><text style="font-size:2.38257885px;font-style:normal;font-weight:400;line-height:125%;letter-spacing:0;word-spacing:0;fill:#000;fill-opacity:1;stroke:none;font-family:Sans" id="text3068-1-4" x="332.923" y="483.929" transform="scale(1.0249278,0.97567849)" xml:space="preserve"><tspan id="tspan3070-7-0" x="332.923" y="483.929">1,2</tspan></text><text style="font-size:2.38257885px;font-style:normal;font-weight:400;line-height:125%;letter-spacing:0;word-spacing:0;fill:#000;fill-opacity:1;stroke:none;font-family:Sans" id="text3068-1-4-9" x="336.364" y="489.076" transform="scale(1.0249278,0.97567849)" xml:space="preserve"><tspan id="tspan3070-7-0-4" x="336.364" y="489.076">3,4</tspan></text></g></svg>