<svg xmlns="http://www.w3.org/2000/svg" xmlns:svg="http://www.w3.org/2000/svg" id="Ebene_1" width="16" height="13" x="0" y="0" enable-background="new 0 0 16 16" version="1.1" viewBox="0 0 16 13" xml:space="preserve"><metadata id="metadata9"/><path style="fill:#636363;fill-opacity:1;stroke:#000;stroke-width:.89999998;stroke-linecap:butt;stroke-linejoin:miter;stroke-miterlimit:4;stroke-opacity:1;stroke-dasharray:none" id="path2988" d="m 0.45,8.872259 c 1.6140233,1.408284 4.8950869,-0.8866663 6.4705465,4.391e-4 0.3838252,-0.6940654 1.029243,-1.56139 0,-2.2653676 -1.4392696,-0.6147503 -2.8785401,-4.886e-4 -4.3178094,0 -0.7074582,-1.1326923 -0.2086311,-2.2653766 0,-3.3980642 0.4562285,-0.8209334 0.724337,-1.6888664 2.1589047,-2.26537404 2.5810987,-0.4254466 5.1652443,-0.871682 7.5561662,0 1.474375,1.07176704 1.942152,2.22478294 2.158907,3.39806164 -0.475694,1.369464 -1.195326,2.1245872 -2.158907,2.2653766 -0.766809,0.8892275 -0.374262,1.5756988 0,2.2653676 1.300072,-0.512887 1.81114,-0.3943491 3.232192,-6.25e-5 l 0,3.3592464 -15.1,-0.0056 z"/><path style="fill:none;stroke:#636363;stroke-width:1;stroke-linecap:butt;stroke-linejoin:miter;stroke-miterlimit:4;stroke-opacity:1;stroke-dasharray:none" id="path3758" d="m 0.45,9.629259 0,2.597 15.1,0.006 0,-3.006"/></svg>