<svg xmlns="http://www.w3.org/2000/svg" xmlns:svg="http://www.w3.org/2000/svg" id="Ebene_2" width="16" height="11" x="0" y="0" enable-background="new 0 0 16 11" version="1.1" viewBox="0 0 16 11" xml:space="preserve"><metadata id="metadata19"/><polygon style="fill:#666" id="polygon5" points="19 6 16.942 9.3 12.828 9.3 10.771 6 12.144 6" transform="matrix(0.88888889,0,0,1,-0.88888889,-6)"/><polygon style="fill:#734a08" id="polygon7" points="1 13.7 10.872 6 19 6 9.229 13.7" transform="matrix(0.88888889,0,0,1,-0.88888889,-6)"/><polygon style="fill:#0092da" id="polygon9" points="10.558 7.386 15.76 7.386 9.506 12.313 4.24 12.313" transform="matrix(0.83947215,0,0,1,-0.11008101,-6)"/><polygon style="fill:#734a08" id="polygon11" points="9.229 13.7 7.171 17 3.057 17 1 13.7 2.372 13.7" transform="matrix(0.88888889,0,0,1,-0.88888889,-6)"/><polyline style="fill:#734a08" id="polyline13" points="7.171 17 16.942 9.3 19 6 9.229 13.7" transform="matrix(0.88888889,0,0,1,-0.88888889,-6)"/></svg>