<svg xmlns="http://www.w3.org/2000/svg" xmlns:svg="http://www.w3.org/2000/svg" id="svg2" width="16" height="16" version="1.1" viewBox="0 0 16 16"><metadata id="metadata7"/><g id="layer1" transform="translate(0,-1037.3622)"><path id="path4505" d="m 12.950121,1044.5987 h 1.099758 v 8.3134 h -1.099758 z" style="fill:#000;fill-opacity:1;fill-rule:nonzero;stroke:#000;stroke-width:.90024137px;stroke-linecap:butt;stroke-linejoin:miter;stroke-miterlimit:4;stroke-dasharray:none;stroke-opacity:1"/><path id="path4507" d="m 1.9506728,1044.5695 h 1.0986544 v 8.342 H 1.9506728 Z" style="fill:#000;fill-opacity:1;fill-rule:nonzero;stroke:#000;stroke-width:.90134561px;stroke-linecap:butt;stroke-linejoin:miter;stroke-miterlimit:4;stroke-dasharray:none;stroke-opacity:1"/><path id="path4509" d="m 0.65608686,1045.0952 c 2.86231384,-1.608 4.85576634,-3.1193 7.34391344,-6.7697 1.8047296,2.9678 4.7539467,5.1619 7.3439127,6.7697 l -0.47895,0.7768 -2.47458,-1.6645 c -3.2916596,-0.034 -5.6880806,0 -8.7807657,0 l -2.4745795,1.6645 z" style="fill:#000;fill-opacity:1;fill-rule:evenodd;stroke:#000;stroke-width:1.0353359px;stroke-linecap:butt;stroke-linejoin:miter;stroke-miterlimit:4;stroke-dasharray:none;stroke-opacity:1"/><path id="path4511" d="m 0.65608686,1045.0952 c 2.93149114,-1.6752 5.93722924,-3.835 7.34391344,-6.7697 1.2124028,2.3936 3.9145767,4.882 7.3439127,6.7697 l -0.47895,0.7768 -2.47458,-1.6645 c -3.8177457,-0.1512 -6.1379732,0.1354 -8.7807657,0 l -2.4745795,1.6645 z" style="fill:#d40000;fill-opacity:1;fill-rule:evenodd;stroke:none;stroke-width:1.17652678"/><path id="path4513" d="m 1.9506728,1044.5695 h 1.0986544 v 8.342 H 1.9506728 Z" style="fill:#d40000;fill-opacity:1;fill-rule:nonzero;stroke:none;stroke-width:1.02426386"/><path id="path4515" d="m 12.950121,1044.5987 h 1.099758 v 8.3134 h -1.099758 z" style="fill:#d40000;fill-opacity:1;fill-rule:nonzero;stroke:none;stroke-width:1.02300906"/><path id="path4517" d="m 7.1959317,1045.4231 v 4.6145 c -1.6156554,-0.577 -2.3225045,0.2884 -2.019569,1.1535 0.3029352,0.5768 1.7166335,0.9615 2.6254396,-0.1923 0,-0.9612 -0.1009783,-2.3562 -0.1009783,-3.606 l 2.524463,0.9615 v 2.5485 c -1.5146783,-0.5768 -2.3225061,0.2883 -1.9185923,1.1535 0.2019569,0.5768 1.6156555,0.9614 2.5244633,-0.1922 v -5.1913 0 0 c -0.302935,-0.097 -3.4332693,-1.2497 -3.6352263,-1.2497 z m 0.5048922,0.9615 2.5244631,0.9611 v 0.5283 l -2.5244631,-0.9614 z" style="fill:#409dff;fill-opacity:1;fill-rule:nonzero;stroke:none;stroke-width:1.23159504"/></g></svg>