<svg xmlns="http://www.w3.org/2000/svg" xmlns:svg="http://www.w3.org/2000/svg" id="svg3616" width="17.067" height="17.067" version="1.1" viewBox="0 0 16 16"><metadata id="metadata3621"/><g id="layer1" transform="translate(522.28571,261.35208)"><g id="g252" transform="matrix(1.6191054,0,0,1.6189416,-523.20536,-261.35208)"><path style="fill:#fff" id="path254" d="M 1.75,0.2 C 1.209,0.2 0.768,0.64 0.768,1.18 l 0,7.523 c 0,0.54 0.441,0.979 0.982,0.979 l 7.52,0 c 0.541,0 0.98,-0.439 0.98,-0.979 l 0,-7.523 C 10.25,0.64 9.811,0.201 9.27,0.201 l -7.52,0 z"/><path id="path256" d="m 9.27,9.883 c 0.652,0 1.18,-0.527 1.18,-1.18 l 0,-7.523 C 10.449,0.527 9.922,0 9.27,0 L 1.75,0 C 1.098,0 0.568,0.527 0.568,1.18 l 0,7.523 c 0,0.652 0.529,1.18 1.182,1.18 l 7.52,0 z"/><rect style="fill:#fff" id="rect258" width="1.254" height=".898" x="3.662" y="1.545"/><path style="fill:#fff" id="path260" d="M 6.332,5.42 C 6.213,5.42 6.117,5.324 6.117,5.205 l 0,-2.48 1.896,0 0.799,3.385 -0.003,0.218 0,1.496 c 0,0.115 -0.094,0.209 -0.209,0.209 l -1.844,0 C 6.641,8.033 6.547,7.939 6.547,7.824 l 0,-2.404 -0.199,0"/><path style="fill:#fff" id="path262" d="M 4.695,5.426 C 4.814,5.426 4.91,5.33 4.91,5.211 l 0,-2.482 -1.892,0 -0.801,3.384 0.004,0.221 0,1.496 c 0,0.115 0.094,0.209 0.209,0.209 l 1.842,0 c 0.117,0 0.211,-0.094 0.211,-0.209 l 0,-2.404 0.197,0"/><rect style="fill:#fff" id="rect264" width=".65" height="2.305" x="5.188" y="2.729"/><rect style="fill:#fff" id="rect266" width="1.256" height=".898" x="6.117" y="1.545"/></g></g></svg>