<svg xmlns="http://www.w3.org/2000/svg" xmlns:svg="http://www.w3.org/2000/svg" id="svg2" width="12" height="16" version="1.1" viewBox="0 0 12 16"><metadata id="metadata7"/><g id="layer1" transform="translate(0,-1036.3622)"><path style="fill:green;fill-opacity:1;fill-rule:evenodd;stroke:none;stroke-width:1px;stroke-linecap:butt;stroke-linejoin:miter;stroke-opacity:1" id="path4145" d="m 3.390276,1052.1244 c -0.8020071,-0.2731 -0.5005155,-1.2998 -1.3727381,-2.0263 -0.7171393,-0.5974 -1.33136388,-0.6001 -1.80573674,-1.197 -0.20345284,-0.6868 -0.26409877,-1.3498 -0.16554557,-2.3407 0.35474047,-0.8347 0.97077541,-2.0272 3.34402041,-3.0314 0.9218686,-0.3644 1.5738332,-0.2724 2.1189832,0 1.4599653,0.6346 0.767543,-5.3121 2.1189832,-6.4466 0.9080683,-0.4607 1.6720546,-1.3596 3.1784756,0 0.861097,0.9618 0.706328,5.0141 1.059491,7.521 0.185883,1.0273 0.170732,2.1056 0,3.2233 -0.769456,2.7992 -2.568982,3.4098 -4.2379666,4.2977 -1.5278603,0.4089 -2.8845155,0.2101 -4.2379664,0 z"/></g></svg>