<svg xmlns="http://www.w3.org/2000/svg" xmlns:svg="http://www.w3.org/2000/svg" id="svg2" width="16" height="16" version="1.1" viewBox="0 0 16 16"><metadata id="metadata8"/><rect style="color:#000;clip-rule:nonzero;display:inline;overflow:visible;visibility:visible;opacity:1;isolation:auto;mix-blend-mode:normal;color-interpolation:sRGB;color-interpolation-filters:linearRGB;solid-color:#000;solid-opacity:1;fill:#fff;fill-opacity:1;fill-rule:evenodd;stroke:none;stroke-width:1;stroke-linecap:butt;stroke-linejoin:miter;stroke-miterlimit:4;stroke-dasharray:none;stroke-dashoffset:0;stroke-opacity:1;color-rendering:auto;image-rendering:auto;shape-rendering:auto;text-rendering:auto;enable-background:accumulate" id="rect4137" width="16" height="16" x="0" y="0" ry="3"/><path id="table" d="m 3.9995255,3.071 c -1.322034,0 -1.322034,1.9 0,1.9 l 8.0000005,0 c 1.33909,0 1.338983,-1.9 0,-1.9 z M 4.9,5.3710014 4.1495255,8.0714466 1.9995255,8.071 c -1.32203397,-2.746e-4 -1.32015778,1.970408 0,1.9 L 3.775,9.9714466 2.9,13.370999 4.7,13.370552 5.575,9.971 l 4.85,4.466e-4 0.875,3.3995524 1.8,-4.47e-4 -0.875,-3.399552 1.774526,0 c 1.33909,0 1.337663,-1.9594517 0,-1.9 L 11.85,8.071 11.1,5.3705548 9.2999998,5.3710014 10.05,8.0714466 5.95,8.071 6.7,5.3705548 Z" style="fill:#734a08;fill-opacity:1;stroke:none"/></svg>