<svg xmlns="http://www.w3.org/2000/svg" xmlns:svg="http://www.w3.org/2000/svg" id="svg2" width="12" height="16" x="0" y="0" enable-background="new 0 0 580 580" version="1.1" viewBox="0 0 12 16" xml:space="preserve"><metadata id="metadata19"/><rect style="color:#000;clip-rule:nonzero;display:inline;overflow:visible;visibility:visible;opacity:1;isolation:auto;mix-blend-mode:normal;color-interpolation:sRGB;color-interpolation-filters:linearRGB;solid-color:#000;solid-opacity:1;fill:#fff;fill-opacity:1;fill-rule:evenodd;stroke:none;stroke-width:1.20000005;stroke-linecap:round;stroke-linejoin:miter;stroke-miterlimit:4;stroke-dasharray:none;stroke-dashoffset:0;stroke-opacity:1;color-rendering:auto;image-rendering:auto;shape-rendering:auto;text-rendering:auto;enable-background:accumulate" id="rect4152" width="12" height="16" x="-12" y="0" ry=".134" transform="scale(-1,1)"/><path id="path11" d="M 3.8635101,4.3151508 C 4.1684622,4.3151799 4.4310024,4.2106648 4.651189,4.0016929 4.8713755,3.7927211 4.9814542,3.5359484 4.9814542,3.2313458 4.9814542,2.9263937 4.8713755,2.6694462 4.651189,2.4604452 4.4310024,2.2514734 4.1684622,2.1469874 3.8635101,2.1469874 c -0.3046026,0 -0.5642299,0.104486 -0.778882,0.3134578 -0.214652,0.209001 -0.3219926,0.4659485 -0.3219926,0.7709006 0,0.3046026 0.1073406,0.5613753 0.3219926,0.7703471 0.2146521,0.2089719 0.4742794,0.313487 0.778882,0.3134579 z" style="fill:#000"/><path id="path13" d="M 10.81614,4.5903483 C 10.77648,4.4435669 10.67712,4.3193315 10.518049,4.2177002 c 0,0 -0.356534,-0.029433 -0.5430602,-0.027484 l 0,-2.9514936 c 0,-0.2091467 -0.199139,-0.37867781 -0.4448108,-0.37867781 -0.2456719,0 -0.4448097,0.16953111 -0.4448097,0.37867781 l 0,2.9960902 -4.9611323,0.761813 C 3.9384425,5.0303864 3.7891917,5.1122391 3.6764839,5.2421256 3.563776,5.3720412 3.5339053,5.5103751 3.5869403,5.6571564 L 4.6809666,9.298318 1.1386498,13.931107 c -0.066345,0.101311 -0.0995,0.208447 -0.0995,0.321468 0,0.180571 0.076268,0.335771 0.2288715,0.465687 0.1525697,0.129886 0.3348732,0.194815 0.5469789,0.194844 0.2784166,-2.9e-5 0.5039009,-0.112846 0.6762817,-0.338538 l 3.7013532,-4.8700452 0.035736,0.7961252 -0.3933288,3.454941 c -0.026689,0.180571 0.019639,0.34148 0.1390199,0.482726 0.1193802,0.141247 0.2851231,0.22878 0.4972289,0.26257 0.2124821,0.03376 0.4081641,-0.0029 0.5870459,-0.110079 0.1788819,-0.107137 0.2817014,-0.25118 0.3084243,-0.432071 l 0.3847789,-3.886008 c 0.013343,-0.124381 2.054e-4,-0.254268 -0.039451,-0.3896893 L 6.6303613,5.7754495 9.0853681,5.4000633 l 0,9.2982577 c 0,0.209147 0.1991378,0.378678 0.4448097,0.378678 0.2456717,0 0.4448098,-0.169531 0.4448098,-0.378678 l 0,-9.4346982 C 10.137137,5.2377558 10.595718,5.1296437 10.697136,5.0053791 10.803171,4.8754926 10.842828,4.7371587 10.81614,4.5903483 Z" style="fill:#000"/></svg>