<svg xmlns="http://www.w3.org/2000/svg" xmlns:svg="http://www.w3.org/2000/svg" id="svg2" width="16" height="15" version="1.1" viewBox="0 0 16 15"><metadata id="metadata8"/><rect style="color:#000;clip-rule:nonzero;display:inline;overflow:visible;visibility:visible;opacity:1;isolation:auto;mix-blend-mode:normal;color-interpolation:sRGB;color-interpolation-filters:linearRGB;solid-color:#000;solid-opacity:1;fill:#fff;fill-opacity:1;fill-rule:evenodd;stroke:none;stroke-width:1.20000005;stroke-linecap:butt;stroke-linejoin:miter;stroke-miterlimit:4;stroke-dasharray:none;stroke-dashoffset:0;stroke-opacity:1;color-rendering:auto;image-rendering:auto;shape-rendering:auto;text-rendering:auto;enable-background:accumulate" id="rect4137" width="16" height="15" x="0" y="0" ry="3"/><rect id="canvas" width="14" height="14" x="0" y="1" style="visibility:hidden;fill:none;stroke:none"/><path id="cafe" d="m 2,2 0,6 c 0,2 2,3 4.5,3 C 9,11 11,10 11,8 l 2,0 c 1,0 2,-1 2,-2 L 15,5 C 15,4 14,3 13,3 l -2,0 0,-1 z m 9,2.25 1.75,0 c 0.667788,0 1,0.5628359 1,1.25 0,0.6871641 -0.388201,1.25 -1,1.25 L 11,6.75 Z M 1,12 c 0,1 1,2 2,2 l 7,0 c 1,0 2,-1 2,-2 z" style="fill:#734a08;fill-opacity:1;stroke:none"/></svg>