<svg xmlns="http://www.w3.org/2000/svg" xmlns:svg="http://www.w3.org/2000/svg" id="svg2" width="16" height="14.06" version="1.0"><metadata id="metadata2975"/><path style="fill:#cb7842;fill-opacity:1;stroke:none;stroke-width:1px;stroke-linecap:butt;stroke-linejoin:miter;stroke-opacity:1" id="path4152" d="m 8.0256981,9.0650255 c 0.1066,-0.93342 -0.59998,-1.8638298 -2.11974,-1.9435898 l -2.8804316,0 c -1.51977,0.0798 -2.23306996,1.0101698 -2.13988996,1.9435898 z"/><path style="fill:#cb7842;fill-opacity:1;stroke:none;stroke-width:1px;stroke-linecap:butt;stroke-linejoin:miter;stroke-opacity:1" id="path4150" d="m 0.90258933,12.068739 c -0.0932,0.93302 0.62011997,1.924531 2.13988997,1.991261 l 2.8804316,0 c 1.51976,-0.0667 2.22634,-1.058241 2.11974,-1.991261 z"/><path style="fill:#6e1f00;fill-opacity:1;stroke:none;stroke-width:1px;stroke-linecap:butt;stroke-linejoin:miter;stroke-opacity:1" id="flowRoot3192" d="m 8.3299442,9.9039051 -7.6500142,0 c -0.18637,1e-5 -0.34628,0.0666 -0.47974,0.1998899 C 0.06673,10.237065 0,10.390365 0,10.563695 c 0,0.2002 0.0667,0.36357 0.20019,0.49011 0.13346,0.12655 0.29337,0.18982 0.47974,0.18982 l 7.6500142,0 c 0.18676,0 0.34677,-0.0633 0.48004,-0.18982 0.13325,-0.12654 0.19988,-0.28991 0.19989,-0.49011 -10e-6,-0.17333 -0.0666,-0.32663 -0.19989,-0.4599 -0.13327,-0.1332499 -0.29328,-0.1998799 -0.48004,-0.1998899 z"/><path id="path4146" d="m 14.900682,0 -1.587616,3.74022 1.239622,0 1.447612,-3.56017 z" style="fill:red;fill-opacity:1;stroke:none;stroke-width:1px;stroke-linecap:butt;stroke-linejoin:miter;stroke-opacity:1"/><path style="fill:#a2afc1;fill-opacity:1;stroke:none;stroke-width:1px;stroke-linecap:butt;stroke-linejoin:miter;stroke-opacity:1" id="path4154" d="m 8.92025,3.74022 1.30004,10.31978 4.41954,0 1.32018,-10.31978 z"/></svg>