<svg xmlns="http://www.w3.org/2000/svg" xmlns:svg="http://www.w3.org/2000/svg" id="svg2" width="100%" height="100%" version="1.1" viewBox="0 0 16 16"><metadata id="metadata10"/><circle style="color:#000;clip-rule:nonzero;display:inline;overflow:visible;visibility:visible;opacity:1;isolation:auto;mix-blend-mode:normal;color-interpolation:sRGB;color-interpolation-filters:linearRGB;solid-color:#000;solid-opacity:1;fill:#fff;fill-opacity:1;fill-rule:evenodd;stroke:#734a08;stroke-width:1.22870338;stroke-linecap:round;stroke-linejoin:miter;stroke-miterlimit:4;stroke-dasharray:none;stroke-dashoffset:0;stroke-opacity:1;color-rendering:auto;image-rendering:auto;shape-rendering:auto;text-rendering:auto;enable-background:accumulate" id="path4137" cx="8" cy="8" r="7.386"/><path id="path4" d="m 5.4939468,3.2033898 c -0.7417271,0 -2.2251817,1.4205006 -2.2251817,3.5512511 0,2.1307505 1.6688862,2.841001 1.6688862,2.841001 l -0.5403549,3.5512511 2.2271992,0 L 6.050242,9.5956419 c 0,0 1.6688863,-0.7102505 1.6688863,-2.841001 0,-2.1307505 -1.4834546,-3.5512511 -2.2251815,-3.5512511 z m 2.7974171,0.6682808 0,4.3034708 c 0,0.71025 1.56921,0.71025 1.56921,1.4205005 l -0.5403561,3.5512511 2.4644872,0 -0.540354,-3.5512511 c 0,-0.7102505 1.467514,-0.7102505 1.467514,-1.4205005 l 0,-4.3034708 c 0,-0.7102501 -0.825622,-0.7102501 -0.825622,0 l 0,3.5932205 c 0,0.4000757 -0.912922,0.4000757 -0.912922,0 l 0,-3.5932205 c 0,-0.7102501 -0.909515,-0.7102501 -0.909515,0 l 0,3.5932205 c 0,0.3745389 -0.9468207,0.3745389 -0.9468207,0 l 0,-3.5932205 c 0,-0.7102501 -0.8256214,-0.7102501 -0.8256214,0 z" style="fill:#734a08;fill-opacity:1"/></svg>