<svg xmlns="http://www.w3.org/2000/svg" xmlns:svg="http://www.w3.org/2000/svg" id="svg2" width="16" height="12" version="1.1" viewBox="0 0 16 12"><metadata id="metadata7"/><g id="layer1" transform="translate(0,-1040.3622)"><path style="fill:#a7ff92;fill-opacity:1;fill-rule:evenodd;stroke:#000;stroke-width:.97307134;stroke-linecap:butt;stroke-linejoin:miter;stroke-miterlimit:4;stroke-dasharray:none;stroke-opacity:1" id="path4145" d="m 8.5380631,1049.6846 c -0.603283,-2.4222 1.9922899,-1.3924 3.2209819,0 0.756162,0.511 1.507072,0.3248 2.257945,0.1345 1.957005,-0.36 1.461761,-3.0218 1.379903,-3.4492 -0.277846,-0.8432 -0.22161,-1.061 -1.438908,-2.1021 -1.073374,-0.499 -2.076717,-0.1483 -2.459486,-0.4388 -0.707308,-0.3481 0.356589,-2.2339 -1.187385,-2.3689 -2.8155432,0.2884 -3.877829,0.1299 -4.0699413,-0.067 -1.060499,-0.6232 -1.1916803,-0.7814 -2.4885151,-0.1017 -1.6245177,1.2331 -1.0990479,2.7364 -1.2962578,4.0287 -0.3541192,1.4112 -1.97341599,2.4273 -1.95745343,3.1791 -0.20462469,2.8006 1.90658613,2.653 2.27351833,2.9443 1.051048,0.4388 6.4448484,0.9064 6.6276018,-0.5853 -3.162e-4,-0.6497 -0.7628576,-0.6939 -0.8620034,-1.1738 z"/></g></svg>