<svg xmlns="http://www.w3.org/2000/svg" xmlns:svg="http://www.w3.org/2000/svg" id="svg6271" width="418.382" height="339.995" version="1.1"><metadata id="metadata3"/><g id="layer1" transform="translate(-72.469649,-255.22273)"><path id="path3708" d="m 140.76834,567.84201 80.03335,-6.11575 c -59.94724,-28.79554 12.10553,-181.59108 20.15829,-203.38662 28.43237,11.50475 12.86474,58.00949 68.29711,76.51424 -22.90096,-40.16192 -15.80193,-83.32385 -65.70289,-84.48577 50.44143,-4.87381 79.88285,-34.74763 90.32428,-49.62144 -91.89191,20.12619 -71.78381,27.25237 -95.67572,41.37856 4.88285,-20.08096 46.76571,-40.16192 32.64856,-85.24288 -15.89191,27.95952 -46.78381,40.91903 -47.67572,83.87855 -28.77929,-52.85357 -57.55858,-27.70715 -96.33787,-40.56072 -6.77929,12.14643 35.44143,12.29285 89.66214,48.43928 -57.22524,-2.04048 -77.45048,52.91904 -75.67572,65.87856 31.10809,-40.70715 37.21619,-19.41429 87.32428,-60.12144 -109.86997,215.0613 -78.3091,189.98217 -87.38009,213.44543 z" style="font-style:normal;font-variant:normal;font-weight:400;font-stretch:normal;font-size:317.1362915px;font-family:'Bitstream Charter';writing-mode:lr-tb;text-anchor:start;fill:#67bb27;fill-opacity:1;fill-rule:nonzero;stroke:#000;stroke-width:6.71712637;stroke-linecap:butt;stroke-linejoin:miter;stroke-miterlimit:0;stroke-dashoffset:0;stroke-opacity:1"/><path id="path6292" d="M 297.15179,591.06696 C 177.6722,592.60884 75.53125,587.59375 75.53125,587.59375 l -0.866071,0.96875 c 0,0 201.535251,-114.14593 413.553571,0 l 1.95982,0.45982 c -64.48838,6.38052 -130.44223,1.23699 -193.02678,2.04464 z" style="fill:#e6cc00;fill-opacity:1;fill-rule:evenodd;stroke:#000;stroke-width:5.88999987;stroke-linecap:butt;stroke-linejoin:miter;stroke-miterlimit:4;stroke-dasharray:none;stroke-opacity:1"/></g></svg>