<svg xmlns="http://www.w3.org/2000/svg" xmlns:svg="http://www.w3.org/2000/svg" id="svg3835" width="16" height="16" version="1.1"><metadata id="metadata3840"/><g id="layer1" transform="translate(-534.8525,-552.90935)"><path style="fill:#fff;fill-opacity:1;stroke:#c00;stroke-opacity:1" id="path3002" d="m -3,5.5 c 0,3.0803252 -2.4624339,5.577422 -5.5,5.577422 -3.037566,0 -5.5,-2.4970968 -5.5,-5.577422 0,-3.0803252 2.462434,-5.57742214 5.5,-5.57742214 3.0375661,0 5.5,2.49709694 5.5,5.57742214 z" transform="matrix(1.3341078,0,0,1.315587,554.19242,553.67363)"/><path style="fill:#c00;fill-opacity:1;fill-rule:evenodd;stroke:none" id="path1883" d="m 544.8525,562.90935 3,0 0,-4 -3,0 0,-3 -4,0 0,3 -3,0 0,4 3,0 0,3 4,0 z"/></g></svg>