<svg xmlns="http://www.w3.org/2000/svg" xmlns:svg="http://www.w3.org/2000/svg" id="svg2" width="16" height="16" version="1.0"><defs id="defs22"><marker id="ArrowStart" markerHeight="3" markerUnits="strokeWidth" markerWidth="4" orient="auto" refX="10" refY="5" viewBox="0 0 10 10"><path id="path3568" d="M 10,0 0,5 10,10 Z"/></marker><marker id="ArrowEnd" markerHeight="3" markerUnits="strokeWidth" markerWidth="4" orient="auto" refX="0" refY="5" viewBox="0 0 10 10"><path id="path3565" d="M 0,0 10,5 0,10 Z"/></marker><marker id="marker2959" markerHeight="3" markerUnits="strokeWidth" markerWidth="4" orient="auto" refX="10" refY="5" viewBox="0 0 10 10"><path id="path2626" d="M 10,0 0,5 10,10 Z"/></marker><marker id="marker2956" markerHeight="3" markerUnits="strokeWidth" markerWidth="4" orient="auto" refX="0" refY="5" viewBox="0 0 10 10"><path id="path2623" d="M 0,0 10,5 0,10 Z"/></marker><marker id="marker3077" markerHeight="3" markerUnits="strokeWidth" markerWidth="4" orient="auto" refX="10" refY="5" viewBox="0 0 10 10"><path id="path3298" d="M 10,0 0,5 10,10 Z"/></marker><marker id="marker3074" markerHeight="3" markerUnits="strokeWidth" markerWidth="4" orient="auto" refX="0" refY="5" viewBox="0 0 10 10"><path id="path3295" d="M 0,0 10,5 0,10 Z"/></marker></defs><metadata id="metadata10"/><path id="path1329" d="M 1.792253,0.00176061 C 0.64495383,0.00176061 0,0.59391061 0,1.8037806 L 0,14.275761 c 0,1.13171 0.57994055,1.72424 1.726228,1.72424 l 12.546522,0 c 1.146528,0 1.72725,-0.56291 1.72725,-1.72424 L 16,1.8037806 c 0,-1.18038999 -0.580722,-1.80201999 -1.763142,-1.80201999 -8e-5,0 -12.4485419,-0.004 -12.444605,0 z" style="fill:#4d4d4d;stroke:none;stroke-width:3.40799999;fill-opacity:1"/><g id="g2319" transform="translate(879.29125,-527.19488)"><path id="path2323" style="fill:#fff;stroke:none"/></g><g id="g2325" transform="translate(879.29125,-527.19488)"><path id="path2329" style="fill:#fff;stroke:none"/></g><g id="g8450" transform="matrix(0.03016554,0,0,0.02741884,-0.26275126,-0.49455001)"><path id="path8395" d="M 51.484508,291.68574 H 182.60595 l -58.06063,-69.35799" style="fill:none;stroke:#fff;stroke-width:37.05033112;stroke-linecap:round;stroke-linejoin:round;stroke-miterlimit:4;stroke-dasharray:none;stroke-opacity:1"/><path style="fill:none;stroke:#fff;stroke-width:37.05033112;stroke-linecap:round;stroke-linejoin:round;stroke-miterlimit:4;stroke-dasharray:none;stroke-opacity:1" id="path8397" d="M 51.484508,296.87387 H 182.60595 l -58.06063,69.35799"/></g><rect style="fill:#fff;fill-opacity:1;stroke:none;stroke-width:.94099998;stroke-linecap:round;stroke-linejoin:round;stroke-miterlimit:4;stroke-dasharray:none;stroke-opacity:1;paint-order:normal" id="rect878-6" width="4" height="8" x="9" y="4" ry="0"/><rect style="fill:#fff;fill-opacity:1;stroke:none;stroke-width:.94099998;stroke-linecap:round;stroke-linejoin:round;stroke-miterlimit:4;stroke-dasharray:none;stroke-opacity:1;paint-order:normal" id="rect916-8" width="8" height="4" x="7" y="6"/><rect style="fill:red;fill-opacity:1;stroke:none;stroke-width:.94099998;stroke-linecap:round;stroke-linejoin:round;stroke-miterlimit:4;stroke-dasharray:none;stroke-opacity:1;paint-order:normal" id="rect918-0" width="2" height="6" x="10" y="5"/><rect style="fill:red;fill-opacity:1;stroke:none;stroke-width:.94099998;stroke-linecap:round;stroke-linejoin:round;stroke-miterlimit:4;stroke-dasharray:none;stroke-opacity:1;paint-order:normal" id="rect920-6" width="6" height="2" x="8" y="7"/></svg>