<svg xmlns="http://www.w3.org/2000/svg" xmlns:svg="http://www.w3.org/2000/svg" id="Ebene_1" width="16" height="16" x="0" y="0" enable-background="new 0 0 16 16" version="1.1" viewBox="0 0 16 16" xml:space="preserve"><metadata id="metadata21"/><rect style="fill:#fff;fill-opacity:1;stroke:none;stroke-width:4;stroke-linecap:butt;stroke-linejoin:miter;stroke-miterlimit:0;stroke-opacity:1;stroke-dasharray:none;stroke-dashoffset:.59999999999999998" id="rect3006" width="16" height="16" x="0" y="0" ry="0"/><g id="g3"><path id="path5" fill="none" stroke="#000" d="M1,7.156c0.02,4.616,5.878,8.566,10.124,6.496"/><path id="path7" fill="none" stroke="#000" d="M1,7.156C1,4.05,3.473,1.532,6.523,1.532c3.049,0,5.523,2.519,5.523,5.625"/><path id="path9" fill="none" stroke="#000" d="M3.455,7.156L3.455,7.156c0,2.416,1.923,4.375,4.295,4.375s4.296-1.959,4.296-4.375v0"/><path id="path11" fill="none" stroke="#000" d="M5.909,7.156L5.909,7.156c0,1.036,0.825,1.875,1.841,1.875s1.841-0.839,1.841-1.875v0"/><path id="path13" fill="none" stroke="#000" d="M3.455,7.156c0-1.726,1.374-3.125,3.068-3.125c1.694,0,3.068,1.399,3.068,3.125"/><polyline id="polyline15" fill="#0092DA" points="9.544 12.118 11.527 15.361 15.002 12.12 14.007 10.5"/></g></svg>