<svg xmlns="http://www.w3.org/2000/svg" xmlns:svg="http://www.w3.org/2000/svg" id="svg2" width="16" height="16" version="1.0"><title id="title3319">Map icon for baisc_hut</title><metadata id="metadata10"/><path style="fill:none;stroke:#0092da;stroke-width:2;stroke-linecap:butt;stroke-linejoin:round;stroke-miterlimit:4;stroke-dasharray:none;stroke-opacity:1" id="rect3055" d="M 7.9998586,0.99999965 0.99985861,8 2.9998586,7.999652 l 0,7.000348 10.0000004,0 0,-7 2,0 z"/><path id="path3501" d="m 8.7046586,6.189 c 0.4562,0 0.825,-0.3711 0.825,-0.8281 0,-0.4562 -0.3688,-0.825 -0.825,-0.825 -0.4562,0 -0.8273,0.3688 -0.8273,0.825 0,0.457 0.3711,0.8281 0.8273,0.8281 z" style="fill:#0092da;fill-opacity:1"/><path id="path3503" d="m 7.3085586,6.3257 c 0.032,-0.1273 -0.0484,-0.2539 -0.1734,-0.2859 l -0.6883,-0.1656 c -0.1289,-0.0297 -0.2562,0.0461 -0.2852,0.1727 l -0.5788,2.3953 c -0.032,0.1273 0.0461,0.2539 0.1734,0.2859 l 0.6906,0.1656 c 0.125,0.032 0.2539,-0.0461 0.2836,-0.1734 l 0.5781,-2.3946 z" style="fill:#0092da;fill-opacity:1"/><path id="path3507" d="m 5.8734586,14.3507 c -0.0078,0.0391 -0.0102,0.0781 -0.0102,0.1172 0,0.3219 0.2594,0.5805 0.5812,0.5805 0.2641,0 0.4859,-0.1758 0.557,-0.4148 l 0.9984,-4.1336 0.9516,4.1094 c 0.0609,0.2539 0.2906,0.4391 0.5609,0.4391 0.3227,0 0.5812004,-0.2586 0.5812004,-0.5805 0,-0.0445 -0.0047,-0.0859 -0.0125,-0.1273 L 8.7757586,8.882 l 0.1094,-0.4812 0.0859,0.3781 c 0.0781,0.2469 0.3023,0.2711 0.3023,0.2711 l 1.3453004,0.3422 c 0.0266,0.0047 0.0539,0.007 0.0805,0.007 0.2195,0 0.3977,-0.1758 0.3977,-0.3953 0,-0.1883 -0.1289,-0.3469 -0.3047,-0.3883 l -1.1648004,-0.293 -0.3195,-1.2992 c -0.1516,-0.725 -0.8445,-0.7078 -0.8445,-0.7078 -0.6734,-0.0172 -0.8422,0.6914 -0.8422,0.6914 l -1.7477,7.3437 z" style="fill:#0092da;fill-opacity:1"/></svg>