<svg xmlns="http://www.w3.org/2000/svg" xmlns:svg="http://www.w3.org/2000/svg" id="svg2" width="16" height="16" version="1.0"><metadata id="metadata7"/><g id="layer1" transform="translate(-8,-8.000001)"><rect id="shield" width="16" height="16" x="8" y="8" rx="2" ry="2" style="fill:#fff;stroke:none"/><g id="g4264" transform="matrix(1.3960228,0,0,1.4671449,9.0011285,4.4882701)" style="fill:#cd9369;fill-opacity:1;stroke:#c67036;stroke-opacity:1"><path id="path8372" d="m 2.478544,11.578874 0,-8.0822 5.0753842,0 0,8.0822" style="fill:#cd9369;fill-opacity:1;stroke:#c67036;stroke-width:1.03557968;stroke-linecap:round;stroke-linejoin:round;stroke-miterlimit:4;stroke-dasharray:none;stroke-opacity:1"/><rect id="rect8376" width="4.293" height="7.421" x="2.834" y="4.055" style="opacity:.2;fill:#cd9369;fill-opacity:1;stroke:#c67036;stroke-width:1.10825205;stroke-linecap:round;stroke-linejoin:round;stroke-miterlimit:4;stroke-dasharray:none;stroke-dashoffset:0;stroke-opacity:1"/></g><rect style="color:#000;clip-rule:nonzero;display:inline;overflow:visible;visibility:visible;opacity:1;isolation:auto;mix-blend-mode:normal;color-interpolation:sRGB;color-interpolation-filters:linearRGB;solid-color:#000;solid-opacity:1;fill:#ae6230;fill-opacity:1;fill-rule:evenodd;stroke:none;stroke-width:.80000001;stroke-linecap:round;stroke-linejoin:miter;stroke-miterlimit:4;stroke-dasharray:none;stroke-dashoffset:0;stroke-opacity:1;color-rendering:auto;image-rendering:auto;shape-rendering:auto;text-rendering:auto;enable-background:accumulate" id="rect4174" width="2" height="1" x="17" y="15" rx="0" ry="0"/><path id="path4152" d="M 9.59893,15.000001 C 9.224597,15.000001 9,15.224302 9,15.747664 l 0,7.252337 1.272728,0 0,-1.794396 c 0,0 10.331534,0.07478 11.454537,0 l 0,1.794396 1.272735,0 0,-2.392519 0,-3.887853 c 0,-0.29908 -0.149722,-0.747664 -0.673802,-0.747664 -0.449201,0 -0.598933,0.448598 -0.598933,0.747664 l 0,3.289715 -11.454537,0 0,-4.26168 c 0,-0.523366 -0.299479,-0.747663 -0.673798,-0.747663 z m 2.919783,0.971964 c -0.823528,0 -1.497319,0.672899 -1.497319,1.495323 0,0.822439 0.673791,1.495331 1.497319,1.495331 0.823534,0 1.497325,-0.672892 1.497325,-1.495331 0,-0.822424 -0.673791,-1.495323 -1.497325,-1.495323 z m 1.946526,1.046732 0,1.943922 6.513356,0 c 0,-0.971961 -1.048135,-1.943922 -2.021373,-1.943922 z" style="fill:#0083c3;fill-opacity:1;fill-rule:nonzero;stroke:none"/></g></svg>