<svg xmlns="http://www.w3.org/2000/svg" xmlns:svg="http://www.w3.org/2000/svg" id="svg2" width="16" height="16" version="1.0"><metadata id="metadata7"/><g id="layer1" transform="translate(-8,-8.000001)"><rect id="shield" width="16" height="16" x="8" y="8" rx="2" ry="2" style="fill:#fff;stroke:none"/><path style="font-size:12px;fill:#c3c3c3;fill-rule:evenodd;stroke:#000;stroke-width:.03181237;fill-opacity:1" id="path645" d="m 16.249466,8.6436365 -5.563218,5.7098325 1.112637,0 0,8.564744 3.337938,0 0,-4.352519 2.30158,0 7e-6,4.352519 3.261638,0 0,-8.564744 1.112644,0 -5.563226,-5.7098325 0,0 0,0 z"/><path id="path4152" d="M 9.59893,15.000001 C 9.224597,15.000001 9,15.224302 9,15.747664 l 0,7.252337 1.272728,0 0,-1.794396 c 0,0 10.331534,0.07478 11.454537,0 l 0,1.794396 1.272735,0 0,-2.392519 0,-3.887853 c 0,-0.29908 -0.149722,-0.747664 -0.673802,-0.747664 -0.449201,0 -0.598933,0.448598 -0.598933,0.747664 l 0,3.289715 -11.454537,0 0,-4.26168 c 0,-0.523366 -0.299479,-0.747663 -0.673798,-0.747663 z m 2.919783,0.971964 c -0.823528,0 -1.497319,0.672899 -1.497319,1.495323 0,0.822439 0.673791,1.495331 1.497319,1.495331 0.823534,0 1.497325,-0.672892 1.497325,-1.495331 0,-0.822424 -0.673791,-1.495323 -1.497325,-1.495323 z m 1.946526,1.046732 0,1.943922 6.513356,0 c 0,-0.971961 -1.048135,-1.943922 -2.021373,-1.943922 z" style="fill:#007ebc;fill-opacity:1;fill-rule:nonzero;stroke:none"/></g></svg>