<svg xmlns="http://www.w3.org/2000/svg" xmlns:svg="http://www.w3.org/2000/svg" id="svg2" width="16" height="15.5" version="1.1"><metadata id="metadata7"/><g id="layer1" transform="translate(-595,-751.86218)"><rect style="fill:#502d16;fill-opacity:1;stroke:none" id="rect3768" width="2" height="7" x="608" y="760.362"/><path style="fill:#956531;fill-opacity:1;stroke:none" id="path3772" d="m 608,767.36218 0,-7 -11,-2 0,9 z"/><path style="fill:#502d16;fill-opacity:1;stroke:none" id="path3770" d="m 595,759.36218 16,3 0,-3 -16,-3 z"/><path style="fill:#00f;stroke:#0078ff;stroke-width:1;stroke-linecap:round;stroke-linejoin:miter;stroke-miterlimit:4;stroke-opacity:1;stroke-dasharray:none" id="path3774" d="m 597,756.36218 c 4,-4 4,-4 4,-4"/><path style="fill:#00f;stroke:#0078ff;stroke-width:1;stroke-linecap:round;stroke-linejoin:miter;stroke-miterlimit:4;stroke-opacity:1;stroke-dasharray:none" id="path3776" d="m 600,756.36218 1,-1"/><path style="fill:#00f;stroke:#0078ff;stroke-width:1;stroke-linecap:round;stroke-linejoin:miter;stroke-miterlimit:4;stroke-opacity:1;stroke-dasharray:none" id="path3778" d="m 602,754.36218 2,-2"/><path style="fill:#00f;stroke:#0078ff;stroke-width:1;stroke-linecap:round;stroke-linejoin:miter;stroke-miterlimit:4;stroke-opacity:1;stroke-dasharray:none" id="path3782" d="m 603,757.36218 3,-3"/><path style="fill:#00f;stroke:#0078ff;stroke-width:1;stroke-linecap:round;stroke-linejoin:miter;stroke-miterlimit:4;stroke-opacity:1;stroke-dasharray:none" id="path3786" d="m 596,754.36218 2,-2"/><path style="fill:#00f;stroke:#0078ff;stroke-width:1;stroke-linecap:round;stroke-linejoin:miter;stroke-miterlimit:4;stroke-opacity:1;stroke-dasharray:none" id="path3788" d="m 606,758.36218 1,-1"/><path style="fill:#00f;stroke:#0078ff;stroke-width:1;stroke-linecap:round;stroke-linejoin:miter;stroke-miterlimit:4;stroke-opacity:1;stroke-dasharray:none" id="path3790" d="m 608,756.36218 2,-2"/><path style="fill:#00f;stroke:#0078ff;stroke-width:1;stroke-linecap:round;stroke-linejoin:miter;stroke-miterlimit:4;stroke-opacity:1;stroke-dasharray:none" id="path3792" d="m 609,758.36218 1,-1"/><path style="fill:#0078ff;fill-opacity:1;stroke:#0078ff;stroke-width:1px;stroke-linecap:round;stroke-linejoin:miter;stroke-opacity:1" id="path3794" d="m 607,753.36218 1,-1"/></g></svg>