<svg xmlns="http://www.w3.org/2000/svg" xmlns:svg="http://www.w3.org/2000/svg" id="svg4264" width="16" height="16" version="1.1" viewBox="0 0 16 16"><defs id="defs4266"><marker id="EmptyTriangleInL" orient="auto" refX="0" refY="0" style="overflow:visible"><path id="path4298" d="m 5.77,0 -8.65,5 0,-10 8.65,5 z" transform="matrix(-0.8,0,0,-0.8,4.8,0)" style="fill:#fff;fill-rule:evenodd;stroke:#000;stroke-width:1pt;stroke-opacity:1"/></marker><marker id="marker4778" orient="auto" refX="0" refY="0" style="overflow:visible"><path id="path4780" d="M 0,0 5,-5 -12.5,0 5,5 0,0 Z" transform="matrix(0.8,0,0,0.8,10,0)" style="fill:#000;fill-opacity:1;fill-rule:evenodd;stroke:#000;stroke-width:1pt;stroke-opacity:1"/></marker><marker id="marker4657" orient="auto" refX="0" refY="0" style="overflow:visible"><path id="path4659" d="M 0,0 5,-5 -12.5,0 5,5 0,0 Z" transform="matrix(0.8,0,0,0.8,10,0)" style="fill:#000;fill-opacity:1;fill-rule:evenodd;stroke:#000;stroke-width:1pt;stroke-opacity:1"/></marker><marker style="overflow:visible" id="InfiniteLineStart" orient="auto" refX="0" refY="0"><g id="g4391" transform="translate(-13,0)" style="fill:#000;fill-opacity:1;stroke:#000;stroke-opacity:1"><circle id="circle4393" cx="3" cy="0" r=".8" style="fill:#000;fill-opacity:1;stroke:#000;stroke-opacity:1"/><circle id="circle4395" cx="6.5" cy="0" r=".8" style="fill:#000;fill-opacity:1;stroke:#000;stroke-opacity:1"/><circle id="circle4397" cx="10" cy="0" r=".8" style="fill:#000;fill-opacity:1;stroke:#000;stroke-opacity:1"/></g></marker><marker id="Arrow2Lstart" orient="auto" refX="0" refY="0" style="overflow:visible"><path id="path4165" d="M 8.7185878,4.0337352 -2.2072895,0.01601326 8.7185884,-4.0017078 c -1.7454984,2.3720609 -1.7354408,5.6174519 -6e-7,8.035443 z" transform="matrix(1.1,0,0,1.1,1.1,0)" style="fill:#000;fill-opacity:1;fill-rule:evenodd;stroke:#000;stroke-width:.625;stroke-linejoin:round;stroke-opacity:1"/></marker><marker id="Arrow1Mstart" orient="auto" refX="0" refY="0" style="overflow:visible"><path id="path4153" d="M 0,0 5,-5 -12.5,0 5,5 0,0 Z" transform="matrix(0.4,0,0,0.4,4,0)" style="fill:#000;fill-opacity:1;fill-rule:evenodd;stroke:#000;stroke-width:1pt;stroke-opacity:1"/></marker><marker id="Arrow1Lstart" orient="auto" refX="0" refY="0" style="overflow:visible"><path id="path4147" d="M 0,0 5,-5 -12.5,0 5,5 0,0 Z" transform="matrix(0.8,0,0,0.8,10,0)" style="fill:#000;fill-opacity:1;fill-rule:evenodd;stroke:#000;stroke-width:1pt;stroke-opacity:1"/></marker></defs><metadata id="metadata4269"/><g id="layer1" transform="translate(0,-1036.3621)"><rect style="opacity:1;fill:#fff;fill-opacity:1;stroke:none;stroke-width:0;stroke-linecap:butt;stroke-linejoin:miter;stroke-miterlimit:4;stroke-dasharray:none;stroke-opacity:1" id="rect4302" width="16" height="16" x="0" y="1036.362" ry="2"/><path style="fill:none;fill-rule:evenodd;stroke:#006400;stroke-width:1.00000024;stroke-linecap:round;stroke-linejoin:round;stroke-miterlimit:4;stroke-dasharray:none;stroke-opacity:1" id="path4209" d="m 0.9999997,1041.8565 7.0000013,-4 7.000001,4"/><path style="fill:#3771c8;fill-rule:evenodd;stroke:none;stroke-width:1px;stroke-linecap:butt;stroke-linejoin:miter;stroke-opacity:1;fill-opacity:1" id="path4211" d="m 7.9999984,1044.669 c 0.897468,0 0.8974694,-0.6038 1.7949372,-0.6038 1.7949364,0 2.6924044,0.9182 2.6924044,2.7547 0,3.6728 -2.320796,5.5092 -3.2182646,5.5092 -0.8974676,0 -0.3716088,-0.4632 -1.2690767,-0.4632 -0.8974679,0 -0.4627556,0.4632 -1.3602235,0.4632 -0.897468,0 -3.1271158,-1.8364 -3.1271136,-5.5092 1.2e-6,-1.8365 0.8974658,-2.7547 2.692402,-2.7547 0.8974681,0 0.8974669,0.6038 1.7949348,0.6038 z"/><path style="fill:#3771c8;fill-rule:evenodd;stroke:none;stroke-width:1px;stroke-linecap:butt;stroke-linejoin:miter;stroke-opacity:1;fill-opacity:1" id="path4213" d="m 7.5872564,1044.0956 c 0,0 -0.071797,-2.8153 2.6206066,-3.7335 -0.0718,2.6939 -2.6206066,3.7335 -2.6206066,3.7335"/></g></svg>