<svg xmlns="http://www.w3.org/2000/svg" xmlns:svg="http://www.w3.org/2000/svg" id="svg4264" width="16" height="16" version="1.1" viewBox="0 0 16 16"><defs id="defs4266"><marker id="EmptyTriangleInL" orient="auto" refX="0" refY="0" style="overflow:visible"><path id="path4298" d="m 5.77,0 -8.65,5 0,-10 8.65,5 z" transform="matrix(-0.8,0,0,-0.8,4.8,0)" style="fill:#fff;fill-rule:evenodd;stroke:#000;stroke-width:1pt;stroke-opacity:1"/></marker><marker id="marker4778" orient="auto" refX="0" refY="0" style="overflow:visible"><path id="path4780" d="M 0,0 5,-5 -12.5,0 5,5 0,0 Z" transform="matrix(0.8,0,0,0.8,10,0)" style="fill:#000;fill-opacity:1;fill-rule:evenodd;stroke:#000;stroke-width:1pt;stroke-opacity:1"/></marker><marker id="marker4657" orient="auto" refX="0" refY="0" style="overflow:visible"><path id="path4659" d="M 0,0 5,-5 -12.5,0 5,5 0,0 Z" transform="matrix(0.8,0,0,0.8,10,0)" style="fill:#000;fill-opacity:1;fill-rule:evenodd;stroke:#000;stroke-width:1pt;stroke-opacity:1"/></marker><marker style="overflow:visible" id="InfiniteLineStart" orient="auto" refX="0" refY="0"><g id="g4391" transform="translate(-13,0)" style="fill:#000;fill-opacity:1;stroke:#000;stroke-opacity:1"><circle id="circle4393" cx="3" cy="0" r=".8" style="fill:#000;fill-opacity:1;stroke:#000;stroke-opacity:1"/><circle id="circle4395" cx="6.5" cy="0" r=".8" style="fill:#000;fill-opacity:1;stroke:#000;stroke-opacity:1"/><circle id="circle4397" cx="10" cy="0" r=".8" style="fill:#000;fill-opacity:1;stroke:#000;stroke-opacity:1"/></g></marker><marker id="Arrow2Lstart" orient="auto" refX="0" refY="0" style="overflow:visible"><path id="path4165" d="M 8.7185878,4.0337352 -2.2072895,0.01601326 8.7185884,-4.0017078 c -1.7454984,2.3720609 -1.7354408,5.6174519 -6e-7,8.035443 z" transform="matrix(1.1,0,0,1.1,1.1,0)" style="fill:#000;fill-opacity:1;fill-rule:evenodd;stroke:#000;stroke-width:.625;stroke-linejoin:round;stroke-opacity:1"/></marker><marker id="Arrow1Mstart" orient="auto" refX="0" refY="0" style="overflow:visible"><path id="path4153" d="M 0,0 5,-5 -12.5,0 5,5 0,0 Z" transform="matrix(0.4,0,0,0.4,4,0)" style="fill:#000;fill-opacity:1;fill-rule:evenodd;stroke:#000;stroke-width:1pt;stroke-opacity:1"/></marker><marker id="Arrow1Lstart" orient="auto" refX="0" refY="0" style="overflow:visible"><path id="path4147" d="M 0,0 5,-5 -12.5,0 5,5 0,0 Z" transform="matrix(0.8,0,0,0.8,10,0)" style="fill:#000;fill-opacity:1;fill-rule:evenodd;stroke:#000;stroke-width:1pt;stroke-opacity:1"/></marker></defs><metadata id="metadata4269"/><g id="layer1" transform="translate(0,-1036.3621)"><rect style="opacity:1;fill:#fff;fill-opacity:1;stroke:none;stroke-width:0;stroke-linecap:butt;stroke-linejoin:miter;stroke-miterlimit:4;stroke-dasharray:none;stroke-opacity:1" id="rect4302" width="16" height="16" x="0" y="1036.362" ry="2"/><path style="color:#000;font-style:normal;font-variant:normal;font-weight:400;font-stretch:normal;font-size:medium;line-height:normal;font-family:Sans;text-indent:0;text-align:start;text-decoration:none;text-decoration-line:none;letter-spacing:normal;word-spacing:normal;text-transform:none;direction:ltr;block-progression:tb;writing-mode:lr-tb;baseline-shift:baseline;text-anchor:start;display:inline;overflow:visible;visibility:visible;fill:#3771c8;fill-opacity:1;stroke:none;stroke-width:0;stroke-miterlimit:4;stroke-dasharray:none;marker:none;enable-background:accumulate" id="path3772-4" d="m 6.0314662,1040.5085 c -0.571473,0 -1.031173,0.5365 -1.031173,1.2025 l 0,0.6846 c -3.92e-4,0.013 -3.92e-4,0.026 0,0.039 l 0,0.1148 0,3.9584 c -0.0091,0.7514 0.962812,0.7514 0.953685,0 l 0,-3.9584 0.491463,0 0,4.5316 3.059322,0 0,-4.5316 0.5414898,0 0,3.9584 c -0.0092,0.7514 0.962855,0.7514 0.953685,0 l 0,-4.0735 0,-0.7235 c 0,-0.6658 -0.460553,-1.2024 -1.0320248,-1.2024 l -3.936447,0 z"/><path style="clip-rule:evenodd;fill:#fff;fill-rule:evenodd" id="path4358" d="m 11.97686,1049.6284 c -4.022971,0.9453 -7.3800062,-1.5272 -7.9768598,-4.5436 3.5301755,-0.4888 5.1686099,3.3454 7.9768598,4.5436 z"/><ellipse style="opacity:1;fill:#3771c8;fill-opacity:1;stroke:none;stroke-width:1;stroke-linecap:butt;stroke-linejoin:miter;stroke-miterlimit:4;stroke-dasharray:none;stroke-opacity:1" id="path4211" cx="8" cy="1038.685" rx="1.323" ry="1.323"/><path id="path13" d="m 7.4293712,1049.3137 c -2.8678269,0.5504 -4.1366914,-2.7034 -6.1092282,-3.8915 2.8903702,-0.5473 4.0231699,2.7961 6.1092282,3.8915 z" style="clip-rule:evenodd;fill-rule:evenodd;fill:green;fill-opacity:1"/><path id="path15" d="m 10.085452,1049.3137 c -2.8130786,0.7556 -4.0135081,-2.3039 -5.5778506,-3.632 2.4684889,-0.3908 3.6141705,2.6742 5.5778506,3.632 z" style="clip-rule:evenodd;fill-rule:evenodd;fill:green;fill-opacity:1"/><path id="path17" d="m 16.000003,1047.6442 0,4.7179 c -4.267926,-0.5583 -7.0105355,0.5619 -9.985443,-0.5853 -2.5852309,-0.9971 -3.7992879,-2.4057 -5.5754397,-4.1298 -0.67010537,-0.6505 -0.47054745,-1.0383 -0.0812025,-1.2438 1.0797932,-0.5699 3.1328208,2.9899 5.7430103,3.6889 2.9950355,0.8029 4.3147829,-0.6661 8.2888399,-0.089 -0.309083,-2.6632 -4.025586,-0.026 -4.025586,-2.0598 0,-1.5727 4.851385,-0.7379 5.635821,-0.2991 z" style="clip-rule:evenodd;fill-rule:evenodd;fill:green;fill-opacity:1"/></g></svg>