<svg xmlns="http://www.w3.org/2000/svg" xmlns:svg="http://www.w3.org/2000/svg" id="svg2" width="725" height="725" version="1.1"><metadata id="metadata13"/><circle style="fill:#fff;stroke:#000;stroke-width:2.5px" id="OuterCircle" cx="362.5" cy="362.5" r="350"/><circle style="stroke:#c00;stroke-width:93.75;fill:none" id="RedCircle" cx="362.5" cy="362.5" r="290"/><g id="BikeSymbol" transform="matrix(0.446708, 0, 0, 0.446708, 138.029, 227.267)"><circle style="fill:none;stroke:#000;stroke-width:40px" id="FrontWheel" cx="215" cy="409" r="161"/><circle style="fill:none;stroke:#000;stroke-width:40px" id="RearWheel" cx="790" cy="406" r="161"/><path style="fill:#000;fill-rule:evenodd;stroke:none" id="Frame" d="M 429.48437,15.467118 C 296.91790,16.759190 319.39993,1.7711686 248.07762,230.98455 C 189.97511,414.12586 196.30387,394.15363 196.00000,407.00000 C 195.78704,416.98022 203.84333,424.89312 213.96694,425.57043 C 235.02054,423.44166 226.16492,427.84741 299.15748,201.18078 C 565.86963,482.53640 465.80592,436.91194 609.34064,442.62576 C 797.98299,440.81686 813.31557,452.44550 815.55516,424.79518 C 815.29674,415.40613 810.90371,409.80716 681.43820,121.67535 L 693.84208,87.564675 L 736.48042,86.789433 L 734.92994,51.128275 L 576.00521,51.128275 C 561.96471,70.337063 581.69033,70.250925 652.75423,86.014190 L 640.35035,120.90010 L 323.27614,121.67535 C 344.63838,47.079788 332.57905,51.731243 428.70913,51.903518 L 429.48437,15.467118 z M 314.11415,159.91012 L 624.37752,159.36001 L 534.70921,400.30922 L 314.11415,159.91012 z M 661.78516,174.21304 L 573.76718,405.26023 L 766.30650,405.81034 L 661.78516,174.21304 z"/></g></svg>