<svg xmlns="http://www.w3.org/2000/svg" xmlns:svg="http://www.w3.org/2000/svg" id="svg4264" width="16" height="16" version="1.1" viewBox="0 0 16 16"><defs id="defs4266"><marker id="EmptyTriangleInL" orient="auto" refX="0" refY="0" style="overflow:visible"><path id="path4298" d="m 5.77,0 -8.65,5 0,-10 8.65,5 z" transform="matrix(-0.8,0,0,-0.8,4.8,0)" style="fill:#fff;fill-rule:evenodd;stroke:#000;stroke-width:1pt;stroke-opacity:1"/></marker><marker id="marker4778" orient="auto" refX="0" refY="0" style="overflow:visible"><path id="path4780" d="M 0,0 5,-5 -12.5,0 5,5 0,0 Z" transform="matrix(0.8,0,0,0.8,10,0)" style="fill:#000;fill-opacity:1;fill-rule:evenodd;stroke:#000;stroke-width:1pt;stroke-opacity:1"/></marker><marker id="marker4657" orient="auto" refX="0" refY="0" style="overflow:visible"><path id="path4659" d="M 0,0 5,-5 -12.5,0 5,5 0,0 Z" transform="matrix(0.8,0,0,0.8,10,0)" style="fill:#000;fill-opacity:1;fill-rule:evenodd;stroke:#000;stroke-width:1pt;stroke-opacity:1"/></marker><marker style="overflow:visible" id="InfiniteLineStart" orient="auto" refX="0" refY="0"><g id="g4391" transform="translate(-13,0)" style="fill:#000;fill-opacity:1;stroke:#000;stroke-opacity:1"><circle id="circle4393" cx="3" cy="0" r=".8" style="fill:#000;fill-opacity:1;stroke:#000;stroke-opacity:1"/><circle id="circle4395" cx="6.5" cy="0" r=".8" style="fill:#000;fill-opacity:1;stroke:#000;stroke-opacity:1"/><circle id="circle4397" cx="10" cy="0" r=".8" style="fill:#000;fill-opacity:1;stroke:#000;stroke-opacity:1"/></g></marker><marker id="Arrow2Lstart" orient="auto" refX="0" refY="0" style="overflow:visible"><path id="path4165" d="M 8.7185878,4.0337352 -2.2072895,0.01601326 8.7185884,-4.0017078 c -1.7454984,2.3720609 -1.7354408,5.6174519 -6e-7,8.035443 z" transform="matrix(1.1,0,0,1.1,1.1,0)" style="fill:#000;fill-opacity:1;fill-rule:evenodd;stroke:#000;stroke-width:.625;stroke-linejoin:round;stroke-opacity:1"/></marker><marker id="Arrow1Mstart" orient="auto" refX="0" refY="0" style="overflow:visible"><path id="path4153" d="M 0,0 5,-5 -12.5,0 5,5 0,0 Z" transform="matrix(0.4,0,0,0.4,4,0)" style="fill:#000;fill-opacity:1;fill-rule:evenodd;stroke:#000;stroke-width:1pt;stroke-opacity:1"/></marker><marker id="Arrow1Lstart" orient="auto" refX="0" refY="0" style="overflow:visible"><path id="path4147" d="M 0,0 5,-5 -12.5,0 5,5 0,0 Z" transform="matrix(0.8,0,0,0.8,10,0)" style="fill:#000;fill-opacity:1;fill-rule:evenodd;stroke:#000;stroke-width:1pt;stroke-opacity:1"/></marker></defs><metadata id="metadata4269"/><g id="layer1" transform="translate(0,-1036.3621)"><rect style="opacity:1;fill:#f0c900;fill-opacity:1;stroke:#000;stroke-width:.5;stroke-linecap:butt;stroke-linejoin:miter;stroke-miterlimit:4;stroke-dasharray:none;stroke-opacity:1" id="rect4360" width="15.5" height="10.5" x=".25" y="1036.612" ry="1.657"/><g style="font-style:normal;font-weight:400;font-size:40px;line-height:125%;font-family:sans-serif;letter-spacing:0;word-spacing:0;fill:#000;fill-opacity:1;stroke:none;stroke-width:1px;stroke-linecap:butt;stroke-linejoin:miter;stroke-opacity:1" id="text4362" transform="matrix(0.86368746,0,0,0.86368746,1.0902142,137.09815)"><path style="font-style:normal;font-variant:normal;font-weight:400;font-stretch:normal;font-size:10.00000191px;font-family:Ubuntu" id="path4423" d="m 6.8139168,1047.7859 q 0,0.9 -0.28,1.57 -0.2800001,0.66 -0.7900002,1.1 -0.5100001,0.43 -1.2200002,0.65 -0.7100002,0.21 -1.5600003,0.21 -0.4200001,0 -0.9300002,-0.04 -0.5000001,-0.03 -0.9100002,-0.13 l 0,-6.72 q 0.4100001,-0.1 0.9100002,-0.13 0.5100001,-0.04 0.9300002,-0.04 0.8500001,0 1.5600003,0.22 0.7100001,0.21 1.2200002,0.65 0.5100001,0.43 0.7900002,1.1 0.28,0.66 0.28,1.56 z m -3.7700007,2.68 q 1.3800003,0 2.0600004,-0.7 0.6800001,-0.71 0.6800001,-1.98 0,-1.27 -0.6800001,-1.97 -0.6800001,-0.71 -2.0600004,-0.71 -0.4100001,0 -0.6400001,0.01 -0.2200001,0.01 -0.3100001,0.02 l 0,5.3 q 0.09,0.01 0.3100001,0.02 0.23,0.01 0.6400001,0.01 z"/><path style="font-style:normal;font-variant:normal;font-weight:400;font-stretch:normal;font-size:10.00000191px;font-family:Ubuntu" id="path4425" d="m 9.1228236,1051.2559 -0.93,0 0,-5.2 0.93,0 0,5.2 z m -0.47,-6.14 q -0.25,0 -0.43,-0.16 -0.17,-0.17 -0.17,-0.45 0,-0.28 0.17,-0.44 0.18,-0.17 0.43,-0.17 0.25,0 0.42,0.17 0.18,0.16 0.18,0.44 0,0.28 -0.18,0.45 -0.17,0.16 -0.42,0.16 z"/><path style="font-style:normal;font-variant:normal;font-weight:400;font-stretch:normal;font-size:10.00000191px;font-family:Ubuntu" id="path4427" d="m 14.871887,1051.1059 q -0.32,0.08 -0.85,0.17 -0.52,0.09 -1.21,0.09 -0.6,0 -1.01,-0.17 -0.41,-0.18 -0.66,-0.5 -0.25,-0.32 -0.36,-0.75 -0.11,-0.44 -0.11,-0.97 l 0,-2.92 0.93,0 0,2.72 q 0,0.95 0.3,1.36 0.3,0.41 1.01,0.41 0.15,0 0.31,-0.01 0.16,-0.01 0.3,-0.02 0.14,-0.02 0.25,-0.03 0.12,-0.02 0.17,-0.04 l 0,-4.39 0.93,0 0,5.05 z"/></g><rect style="opacity:1;fill:#000;fill-opacity:1;stroke:none;stroke-width:.4;stroke-linecap:round;stroke-linejoin:round;stroke-miterlimit:4;stroke-dasharray:none;stroke-opacity:1" id="rect4263" width="2" height="5" x="7" y="1047.362" ry="0"/></g></svg>