<svg xmlns="http://www.w3.org/2000/svg" xmlns:svg="http://www.w3.org/2000/svg" id="svg4264" width="16" height="16" version="1.1" viewBox="0 0 16 16"><metadata id="metadata4269"/><g id="layer1" transform="translate(0,-1036.3621)"><circle style="opacity:1;fill:#fff;fill-opacity:1;stroke:none;stroke-width:1;stroke-linecap:round;stroke-linejoin:miter;stroke-miterlimit:4;stroke-dasharray:none;stroke-opacity:1" id="path4315" cx="8" cy="1044.362" r="8"/><path style="fill:none;fill-rule:evenodd;stroke:#000;stroke-width:.92387849;stroke-linecap:butt;stroke-linejoin:miter;stroke-miterlimit:4;stroke-dasharray:none;stroke-opacity:1" id="path4271-3" d="m 11.634905,1042.8175 0,3.2262 c 0,0.7333 -0.661947,1.1733 -1.3952,1.1733 -0.733254,0 -1.3911168,-0.44 -1.3911168,-1.1733 0,-0.7333 -1.79e-5,-2.4671 0,-3.2262 1.74e-5,-0.7332 0.6578628,-1.3199 1.3911168,-1.3199 0.733253,0 1.3952,0.5867 1.3952,1.3199 z"/><path style="fill:#000;fill-rule:evenodd;stroke:none" id="path4312" d="m 5.8378906,4.7363281 -1.796875,3.59375 c -0.066003,0.1667 -0.2148437,0.5342907 -0.2148437,0.8378907 -0.029575,0.5693998 0.091255,1.0140622 0.4472656,1.4765622 0.7272679,0.8256 1.9339375,0.918029 2.7519531,0.173829 C 7.6977325,10.28166 7.757444,8.8691811 7.3808594,8.1757812 6.968269,7.5014814 6.222665,7.2521907 5.484375,7.5253906 L 6.8847656,4.7363281 Z M 5.8066406,8.234375 C 6.2871077,8.27945 6.7353466,8.6845783 6.6425781,9.4550781 6.5727722,10.782678 4.6124976,10.685468 4.7792969,9.1679688 4.8129141,8.5036689 5.3261735,8.1893 5.8066406,8.234375 Z" transform="translate(-4.7683724e-7,1036.3621)"/><path style="fill:#000;fill-rule:evenodd;stroke:none" id="path4264" d="m 657.32083,1187.3629 c -0.46092,0 -0.92605,0.034 -1.39423,0.09 -16.366,3.2398 -9.73707,20.3533 -11.05691,32.2739 0.007,7.7011 6.59052,13.4062 14.19453,12.5508 16.36601,-3.37 9.74065,-20.1946 11.05675,-32.2737 0.0455,-7.1342 -5.88632,-12.7075 -12.80014,-12.6408 z m 0.24197,6.313 c 3.4452,0.026 6.21492,2.7762 6.20804,6.3285 l 0,20.0962 -0.0747,0.8222 -0.22416,0.7469 -0.29889,0.747 -0.37344,0.6709 c -0.94381,1.6214 -2.72557,2.6584 -4.55716,2.914 -1.83782,0.1898 -3.76286,-0.3932 -5.08022,-1.7182 -1.59852,-1.5277 -1.7879,-2.4868 -2.01696,-4.5568 l 0,-19.7229 0.0747,-0.4475 0.0746,-0.7469 0.14945,-0.7468 0.29888,-0.7478 0.37343,-0.7469 c 1.28871,-1.6619 2.44311,-2.4977 4.55733,-2.8387 0.30039,-0.038 0.5972,-0.055 0.88916,-0.053 z"/><path style="fill:none;fill-rule:evenodd;stroke:red;stroke-width:6.3;stroke-linecap:butt;stroke-linejoin:miter;stroke-opacity:1;stroke-miterlimit:4;stroke-dasharray:none" id="path4271" d="m 667.00012,1199.3621 0,22 c 0,5.0001 -4.51387,8 -9.51398,8 -5.00012,0 -9.48614,-3 -9.48614,-8 0,-5 -1.2e-4,-16.8236 0,-22 1.2e-4,-5 4.48602,-9 9.48614,-9 5.00011,0 9.51398,4 9.51398,9 z"/><ellipse id="circle4317" cx="8" cy="1044.362" rx="6.581" ry="6.581" style="opacity:1;fill:none;fill-opacity:1;stroke:#c1121c;stroke-width:2;stroke-linecap:round;stroke-linejoin:miter;stroke-miterlimit:4;stroke-dasharray:none;stroke-opacity:1"/></g></svg>