<svg xmlns="http://www.w3.org/2000/svg" xmlns:svg="http://www.w3.org/2000/svg" id="svg4264" width="16" height="16" version="1.1" viewBox="0 0 16 16"><metadata id="metadata4269"/><g id="layer1" transform="translate(0,-1036.3621)"><ellipse style="fill:#fff;stroke:#000;stroke-width:.05693951px" id="circle4" cx="8" cy="1044.362" rx="7.972" ry="7.972"/><g id="g4140" transform="matrix(0.95565069,0,0,0.95565069,0.3547948,46.316634)"><path id="path1883" d="m 15.473773,1044.362 a 7.473766,7.4737665 0 0 1 -14.94753137,0 7.473766,7.4737665 0 1 1 14.94753137,0 z" style="fill:#00f;fill-opacity:1;fill-rule:nonzero;stroke:none"/><path id="path2806" d="m 3.2007794,1045.9956 1.8789881,-1.9111 -0.00863,-1.1154 -1.3830885,1.3524 c -0.045876,-2.1633 1.8168783,-3.9802 3.5664448,-4.2139 l -0.1550028,-0.936 c -3.0719145,0.608 -4.3090049,3.0094 -4.3681119,5.1419 l -1.3962344,-1.3574 -0.00637,1.1599 1.8719852,1.8796 z" style="fill:#fff;fill-opacity:1;fill-rule:evenodd;stroke:none"/><path id="path3753" d="m 11.819626,1047.7035 -2.5971756,-0.6612 -0.9593787,0.569 1.8648633,0.514 c -1.8459758,1.1289 -4.3536894,0.4343 -5.4365024,-0.9596 l -0.7306829,0.6052 c 2.0720634,2.348 4.7698086,2.2077 6.6420313,1.185 l -0.469823,1.8898 1.005388,-0.5785 0.68128,-2.5637 z" style="fill:#fff;fill-opacity:1;fill-rule:evenodd;stroke:none"/><path id="path3755" d="m 8.9807164,1039.4097 0.7321898,2.5782 0.9738458,0.5439 -0.491799,-1.8708 c 1.903114,1.0296 2.561547,3.5471 1.899717,5.1833 l 0.890273,0.3281 c 0.990166,-2.9708 -0.485704,-5.2334 -2.310139,-6.3391 l 1.870232,-0.5425 -1.005139,-0.5791 -2.5591806,0.698 z" style="fill:#fff;fill-opacity:1;fill-rule:evenodd;stroke:none"/><ellipse id="path4165" cx="8" cy="1044.362" rx="1.5" ry="1.5" style="opacity:1;fill:#fff;fill-opacity:1;stroke:none;stroke-width:.30000001;stroke-linecap:round;stroke-linejoin:round;stroke-miterlimit:4;stroke-dasharray:none;stroke-opacity:1"/></g></g></svg>