<svg xmlns="http://www.w3.org/2000/svg" xmlns:svg="http://www.w3.org/2000/svg" id="svg4264" width="16" height="16" version="1.1" viewBox="0 0 16 16"><defs id="defs4266"><marker id="EmptyTriangleInL" orient="auto" refX="0" refY="0" style="overflow:visible"><path id="path4298" d="m 5.77,0 -8.65,5 0,-10 8.65,5 z" transform="matrix(-0.8,0,0,-0.8,4.8,0)" style="fill:#fff;fill-rule:evenodd;stroke:#000;stroke-width:1pt;stroke-opacity:1"/></marker><marker id="marker4778" orient="auto" refX="0" refY="0" style="overflow:visible"><path id="path4780" d="M 0,0 5,-5 -12.5,0 5,5 0,0 Z" transform="matrix(0.8,0,0,0.8,10,0)" style="fill:#000;fill-opacity:1;fill-rule:evenodd;stroke:#000;stroke-width:1pt;stroke-opacity:1"/></marker><marker id="marker4657" orient="auto" refX="0" refY="0" style="overflow:visible"><path id="path4659" d="M 0,0 5,-5 -12.5,0 5,5 0,0 Z" transform="matrix(0.8,0,0,0.8,10,0)" style="fill:#000;fill-opacity:1;fill-rule:evenodd;stroke:#000;stroke-width:1pt;stroke-opacity:1"/></marker><marker style="overflow:visible" id="InfiniteLineStart" orient="auto" refX="0" refY="0"><g id="g4391" transform="translate(-13,0)" style="fill:#000;fill-opacity:1;stroke:#000;stroke-opacity:1"><circle id="circle4393" cx="3" cy="0" r=".8" style="fill:#000;fill-opacity:1;stroke:#000;stroke-opacity:1"/><circle id="circle4395" cx="6.5" cy="0" r=".8" style="fill:#000;fill-opacity:1;stroke:#000;stroke-opacity:1"/><circle id="circle4397" cx="10" cy="0" r=".8" style="fill:#000;fill-opacity:1;stroke:#000;stroke-opacity:1"/></g></marker><marker id="Arrow2Lstart" orient="auto" refX="0" refY="0" style="overflow:visible"><path id="path4165" d="M 8.7185878,4.0337352 -2.2072895,0.01601326 8.7185884,-4.0017078 c -1.7454984,2.3720609 -1.7354408,5.6174519 -6e-7,8.035443 z" transform="matrix(1.1,0,0,1.1,1.1,0)" style="fill:#000;fill-opacity:1;fill-rule:evenodd;stroke:#000;stroke-width:.625;stroke-linejoin:round;stroke-opacity:1"/></marker><marker id="Arrow1Mstart" orient="auto" refX="0" refY="0" style="overflow:visible"><path id="path4153" d="M 0,0 5,-5 -12.5,0 5,5 0,0 Z" transform="matrix(0.4,0,0,0.4,4,0)" style="fill:#000;fill-opacity:1;fill-rule:evenodd;stroke:#000;stroke-width:1pt;stroke-opacity:1"/></marker><marker id="Arrow1Lstart" orient="auto" refX="0" refY="0" style="overflow:visible"><path id="path4147" d="M 0,0 5,-5 -12.5,0 5,5 0,0 Z" transform="matrix(0.8,0,0,0.8,10,0)" style="fill:#000;fill-opacity:1;fill-rule:evenodd;stroke:#000;stroke-width:1pt;stroke-opacity:1"/></marker></defs><metadata id="metadata4269"/><g id="layer1" transform="translate(0,-1036.3621)"><path id="path11065" d="M 0.33858979,1048.0149 C 0.15507532,1047.8313 -4.7683724e-7,1047.4582 -4.7683724e-7,1047.2001 l 0,-5.676 c 0,-0.258 0.15507579683724,-0.6312 0.33859026683724,-0.8148 l 4.00839351,-4.0088 c 0.1832714,-0.1834 0.5585646,-0.3384 0.819617,-0.3384 l 5.6619687,0 c 0.260809,0 0.636346,0.155 0.819617,0.3384 l 4.008393,4.0088 c 0.183514,0.1836 0.33859,0.5568 0.33859,0.8146 l 0,5.6762 c 0,0.2581 -0.155076,0.631 -0.33859,0.8148 l -4.008393,4.009 c -0.183514,0.1832 -0.558808,0.3382 -0.81986,0.3382 l -5.6617257,-2e-4 c -0.2610524,0 -0.6363456,-0.1548 -0.819617,-0.338 l -4.00839351,-4.009 z" style="fill:#fff;fill-rule:nonzero;stroke:none"/><path id="path10312" d="m 0.97021708,1047.2613 0,-5.8244 4.11760982,-4.1183 5.8234081,0 4.117849,4.1183 0,5.8242 -4.117849,4.1184 -5.8234081,0 -4.11760982,-4.1182" style="fill:#ee1c23;fill-rule:nonzero;stroke:none"/><path id="path10314" d="m 8.0274364,1042.7657 c 0,-0.9769 0.7505385,-1.4651 1.4585192,-1.4651 0.7079814,0 1.4587824,0.4882 1.4587824,1.4651 l 0,3.1656 c 0,0.9766 -0.750801,1.4647 -1.4587824,1.4647 -0.7079807,0 -1.4585192,-0.4881 -1.4585192,-1.4647 l 0,-3.1656 z m 0.8700677,3.1656 c 0,0.4126 0.2729469,0.606 0.5884515,0.606 0.3157674,0 0.5887144,-0.1934 0.5887144,-0.606 l 0,-3.1656 c 0,-0.4126 -0.272947,-0.6063 -0.5887144,-0.6063 -0.3155046,0 -0.5884515,0.1937 -0.5884515,0.6063 l 0,3.1656" style="fill:#fff;fill-rule:nonzero;stroke:none"/><path id="path10316" d="m 11.911315,1041.3383 1.305101,0 c 0.477854,0 0.827509,0.1092 1.125939,0.4212 0.298691,0.3114 0.392475,0.6902 0.392475,1.4058 0,0.5222 -0.04256,0.9922 -0.247464,1.3204 -0.238796,0.3874 -0.622602,0.6232 -1.262281,0.6232 l -0.443704,0 0,2.224 -0.870066,0 0,-5.9946 z m 0.870066,2.9622 0.417958,0 c 0.707982,0 0.716652,-0.5289 0.716652,-1.1266 0,-0.5644 0,-1.0273 -0.682499,-1.0273 l -0.452111,0 0,2.1539" style="fill:#fff;fill-rule:nonzero;stroke:none"/><path id="path10318" d="m 6.0177719,1042.1604 -0.9181421,0 0,-0.8084 2.7063516,0 0,0.8084 -0.918142,0 0,5.1863 -0.8700675,0 0,-5.1863" style="fill:#fff;fill-rule:nonzero;stroke:none"/><path id="path10320" d="m 3.4437736,1044.6913 c -0.7079806,0 -1.4241051,-0.486 -1.4241051,-1.4629 l 0,-0.488 c 0,-0.9765 0.750801,-1.4647 1.4587817,-1.4647 0.7079807,0 1.4585191,0.4882 1.4585191,1.4647 l -0.8700677,0 c 0,-0.4122 -0.2729468,-0.606 -0.5884514,-0.606 -0.3157672,0 -0.5887141,0.1938 -0.5887141,0.606 l 0,0.488 c 0,0.4125 0.2382703,0.6033 0.5540375,0.6033 l 0.052015,0.011 c 0.7079808,0 1.4325117,0.4822 1.4325117,1.4588 l 0,0.6627 c 0,0.9767 -0.7505383,1.4651 -1.4585189,1.4651 -0.7079808,0 -1.458782,-0.4884 -1.458782,-1.4651 l 0.8700677,0 c 0,0.4126 0.272947,0.606 0.5887143,0.606 0.3155046,0 0.5884514,-0.1934 0.5884514,-0.606 l 0,-0.6627 c 0,-0.4123 -0.2729468,-0.6061 -0.5884514,-0.6061 l -0.026007,6e-4" style="fill:#fff;fill-rule:nonzero;stroke:none"/></g></svg>