<svg xmlns="http://www.w3.org/2000/svg" xmlns:svg="http://www.w3.org/2000/svg" id="svg2" width="24" height="24" version="1.1"><defs id="defs4"><marker style="overflow:visible" id="Arrow1Mend" orient="auto" refX="0" refY="0"><path style="fill-rule:evenodd;stroke:#000;stroke-width:1pt;marker-start:none" id="path3715" d="M 0.0,0.0 L 5.0,-5.0 L -12.5,0.0 L 5.0,5.0 L 0.0,0.0 z" transform="scale(0.4) rotate(180) translate(10,0)"/></marker></defs><metadata id="metadata7"/><g id="layer1"><path id="path2906" d="M19.5 8.5L13.5 14.5000000572L13.5 21.5000000072" transform="matrix(1.000000,0.000000,0.000000,1.000000,0.000000,0.000000)" style="stroke-linejoin:miter;stroke-opacity:1;stroke:#000;stroke-linecap:butt;stroke-width:1;fill:none"/><path id="path2904" d="M14.50000013 3.5L5.5 13.5000000473L5.5 21.5000000052" transform="matrix(1.000000,0.000000,0.000000,1.000000,0.000000,0.000000)" style="stroke-linejoin:miter;stroke-opacity:1;stroke:#000;stroke-linecap:butt;stroke-width:1;fill:none"/><rect id="rect2826-54-4-52" width="3" height="3" x="12.5" y="19.5" transform="matrix(1.000000,0.000000,0.000000,1.000000,0.000000,0.000000)" style="stroke-linejoin:miter;stroke-opacity:1;fill-opacity:1;stroke:#df421e;stroke-linecap:butt;stroke-miterlimit:4;stroke-dasharray:none;stroke-width:1;fill:#fff"/><rect id="rect2826-54-4-4" width="3" height="3" x="12.5" y="12.5" transform="matrix(1.000000,0.000000,0.000000,1.000000,0.000000,0.000000)" style="stroke-linejoin:miter;stroke-opacity:1;fill-opacity:1;stroke:#df421e;stroke-linecap:butt;stroke-miterlimit:4;stroke-dasharray:none;stroke-width:1;fill:#fff"/><rect id="rect2826-54-4-7" width="3" height="3" x="18.5" y="6.5" transform="matrix(1.000000,0.000000,0.000000,1.000000,0.000000,0.000000)" style="stroke-linejoin:miter;stroke-opacity:1;fill-opacity:1;stroke:#df421e;stroke-linecap:butt;stroke-miterlimit:4;stroke-dasharray:none;stroke-width:1;fill:#fff"/><rect id="rect2826-54-4-5" width="3" height="3" x="13.5" y="1.5" transform="matrix(1.000000,0.000000,0.000000,1.000000,0.000000,0.000000)" style="stroke-linejoin:miter;stroke-opacity:1;fill-opacity:1;stroke:#df421e;stroke-linecap:butt;stroke-miterlimit:4;stroke-dasharray:none;stroke-width:1;fill:#fff"/><rect id="rect2826-54-4" width="3" height="3" x="4.5" y="11.5" transform="matrix(1.000000,0.000000,0.000000,1.000000,0.000000,0.000000)" style="stroke-linejoin:miter;stroke-opacity:1;fill-opacity:1;stroke:#df421e;stroke-linecap:butt;stroke-miterlimit:4;stroke-dasharray:none;stroke-width:1;fill:#fff"/><rect id="rect2826-54-4-54" width="3" height="3" x="4.5" y="19.5" transform="matrix(1.000000,0.000000,0.000000,1.000000,0.000000,0.000000)" style="stroke-linejoin:miter;stroke-opacity:1;fill-opacity:1;stroke:#df421e;stroke-linecap:butt;stroke-miterlimit:4;stroke-dasharray:none;stroke-width:1;fill:#fff"/></g></svg>