<svg xmlns="http://www.w3.org/2000/svg" xmlns:svg="http://www.w3.org/2000/svg" id="svg4619" width="16" height="11" x="0" y="0" version="1.1" viewBox="0 0 16 11" xml:space="preserve"><metadata id="metadata8"/><rect style="opacity:1;fill:#fff;fill-opacity:1;stroke:none;stroke-width:.48997605;stroke-linecap:round;stroke-miterlimit:4;stroke-dasharray:none;stroke-opacity:1" id="rect817" width="16" height="11" x="0" y="0"/><path id="path17499" d="m 8.831558,2.3194733 c 0,0 -0.6587222,1.0489095 -1.2947749,1.0489095 H 5.2045277 c -0.6360526,0 -1.2112801,0.3870886 -1.6537556,0.8181343 L 1.4729192,6.210443 C 1.2219685,6.45486 1.013185,6.938105 1.0064681,7.157796 c -0.0145533,0.473677 0,0.947353 0,0.947353 0,0 0.9329021,0 0.9329021,-0.947353 V 6.68412 L 2.8722724,5.736766 h 0.466451 L 3.486122,6.010741 c 0,0 -0.8895222,1.728351 -0.8895222,3.343114 9.33e-5,0.646 0.636146,0.646 0.636146,0.646 h 0.6360526 c 0,0 0.3180264,0 0,-0.322953 L 3.5507721,9.35395 c 0,-0.645906 0.7210401,-1.564553 1.1873046,-2.196154 0,0 0.015673,1.09694 0,1.894706 -0.00746,0.388036 0.2538426,0.947353 0.6360526,0.947353 H 6.010182 c 0,0 0.3180264,0 0,-0.322953 L 5.6921557,9.35395 C 5.4009036,8.81519 6.1374299,6.68412 6.1374299,6.68412 c 1.1862783,0 1.3993532,0.473676 2.7987064,0.473676 L 9.2753395,9.35395 c 0.1039253,0.67262 0.5936987,0.645905 0.5936987,0.645905 h 1.3993528 c 0.318027,0 0.896613,-0.2951 0.318027,-0.732872 L 11.268391,9.052502 V 7.157796 c 1.13273,-0.163134 1.865805,-0.947353 1.865805,-1.8947066 h 0.932902 c 0.299835,0 0.932902,0 0.932902,-0.4736767 V 3.8420595 L 13.409868,2.2488008 C 12.709165,1.546812 12.201294,0.9999997 11.268391,0.9999997 c -1.3555997,0 -1.9930515,0.5388545 -2.436833,1.3194736 z" style="stroke-width:.94009995"/></svg>