<svg xmlns="http://www.w3.org/2000/svg" xmlns:svg="http://www.w3.org/2000/svg" id="svg2" width="15" height="16" version="1.1" viewBox="0 0 15 16"><metadata id="metadata7"/><g id="layer1" transform="translate(0,-1036.3622)"><rect style="color:#000;clip-rule:nonzero;display:inline;overflow:visible;visibility:visible;opacity:1;isolation:auto;mix-blend-mode:normal;color-interpolation:sRGB;color-interpolation-filters:linearRGB;solid-color:#000;solid-opacity:1;fill:#fff;fill-opacity:1;fill-rule:evenodd;stroke:none;stroke-width:1.60000002;stroke-linecap:round;stroke-linejoin:miter;stroke-miterlimit:4;stroke-dasharray:none;stroke-dashoffset:0;stroke-opacity:1;color-rendering:auto;image-rendering:auto;shape-rendering:auto;text-rendering:auto;enable-background:accumulate" id="rect4170" width="15" height="16" x="0" y="1036.362"/><path style="fill:#000;fill-rule:evenodd;stroke:none;stroke-width:1px;stroke-linecap:butt;stroke-linejoin:miter;stroke-opacity:1" id="path4160" d="m 1,1049.3622 0,-8 11.957726,0 c 0,0 -0.999999,9.9864 -3.9154515,9.9921 L 4,1051.3622 Z"/><path style="color:#000;clip-rule:nonzero;display:inline;overflow:visible;visibility:visible;opacity:1;isolation:auto;mix-blend-mode:normal;color-interpolation:sRGB;color-interpolation-filters:linearRGB;solid-color:#000;solid-opacity:1;fill:gray;fill-opacity:1;fill-rule:evenodd;stroke:none;stroke-width:.28999999;stroke-linecap:round;stroke-linejoin:miter;stroke-miterlimit:4;stroke-dasharray:none;stroke-dashoffset:0;stroke-opacity:1;color-rendering:auto;image-rendering:auto;shape-rendering:auto;text-rendering:auto;enable-background:accumulate" id="path4162" d="m 5.5341818,1049.3621 a 2.4841819,2.4289775 0 0 1 -2.4839326,2.4289 2.4841819,2.4289775 0 0 1 -2.48443108,-2.4285 2.4841819,2.4289775 0 0 1 2.48343398,-2.4294 2.4841819,2.4289775 0 0 1 2.4849295,2.428"/><path style="color:#000;clip-rule:nonzero;display:inline;overflow:visible;visibility:visible;opacity:1;isolation:auto;mix-blend-mode:normal;color-interpolation:sRGB;color-interpolation-filters:linearRGB;solid-color:#000;solid-opacity:1;fill:#000;fill-opacity:1;fill-rule:evenodd;stroke:none;stroke-width:.28999999;stroke-linecap:round;stroke-linejoin:miter;stroke-miterlimit:4;stroke-dasharray:none;stroke-dashoffset:0;stroke-opacity:1;color-rendering:auto;image-rendering:auto;shape-rendering:auto;text-rendering:auto;enable-background:accumulate" id="path4166" d="m 4.0212269,1049.3621 a 0.97122699,0.94964403 0 0 1 -0.9711295,0.9496 0.97122699,0.94964403 0 0 1 -0.9713244,-0.9494 0.97122699,0.94964403 0 0 1 0.9709346,-0.9499 0.97122699,0.94964403 0 0 1 0.9715193,0.9493"/><path style="fill:none;fill-rule:evenodd;stroke:#000;stroke-width:1.60000002;stroke-linecap:round;stroke-linejoin:miter;stroke-miterlimit:4;stroke-dasharray:none;stroke-opacity:1" id="path4168" d="m 1.7954951,1041.4341 10.8132299,-3.4214"/></g></svg>