<svg xmlns="http://www.w3.org/2000/svg" xmlns:svg="http://www.w3.org/2000/svg" id="svg2160" width="6.986" height="16" version="1.0"><defs id="defs2162"><linearGradient id="linearGradient5233"><stop style="stop-color:#fff;stop-opacity:1" id="stop5235" offset="0"/><stop style="stop-color:#fff;stop-opacity:0" id="stop5237" offset="1"/></linearGradient></defs><metadata id="metadata2165"/><g id="layer3" transform="translate(-1.0316229,1.9999999)" style="display:none"><rect style="display:inline;fill:none;stroke:#000;stroke-width:.1;stroke-miterlimit:4;stroke-dasharray:none;stroke-opacity:1" id="rect4134" width="10" height="10" x="1" y="1"/><rect style="display:inline;fill:none;stroke:#000;stroke-width:.1;stroke-miterlimit:4;stroke-dasharray:none;stroke-opacity:1" id="rect4136" width="8" height="8" x="2" y="2"/></g><g id="layer4" transform="translate(-1.0316229,1.9999999)" style="display:inline"><g id="g5618" transform="matrix(2.0253165,0,0,2.0253165,-4.6392633,-6.1518987)"><path id="path5584" d="m 4.8698904,9.4954858 c 0,0 0.8732259,-1.1124102 1.1232259,-1.3624102 0.25,-0.25 -0.382891,-0.4406386 -0.7578125,-0.4296875 -0.3531977,0.00693 -0.9707272,0.1236 -1.2421875,0.4296875 C 3.5239366,8.6621034 3.0069672,9.2438827 3.0069672,9.2438827 l 1.8629232,0.2516031 z" style="display:inline;fill:#000;fill-opacity:1;fill-rule:evenodd;stroke:#000;stroke-width:.40000001;stroke-linecap:butt;stroke-linejoin:round;stroke-miterlimit:4;stroke-dasharray:none;stroke-opacity:1"/><rect id="rect5588" width="2" height="7.5" x="3" y="2.25" rx="1" ry=".504" style="display:inline;fill:#fff;fill-opacity:1;fill-rule:evenodd;stroke:#000;stroke-width:.40000001;stroke-linejoin:miter;stroke-miterlimit:4;stroke-dasharray:none;stroke-opacity:1"/><rect id="rect4213" width="2" height="7.5" x="3" y="2.25" rx="1" ry=".504" style="display:inline;fill:#d50000;fill-opacity:1;fill-rule:evenodd;stroke:none;stroke-width:.40000001;stroke-linejoin:miter;stroke-miterlimit:4;stroke-dasharray:none;stroke-opacity:1"/><rect id="rect5188" width="2" height="3" x="3" y="5.5" rx=".93" ry=".504" style="display:inline;fill:#d2d2d2;fill-opacity:1;fill-rule:evenodd;stroke:none;stroke-width:.40000001;stroke-linejoin:miter;stroke-miterlimit:4;stroke-dasharray:none;stroke-opacity:1"/><rect id="rect5184" width="2" height="3" x="3" y="3.5" rx=".93" ry=".504" style="display:inline;fill:#d50000;fill-opacity:1;fill-rule:evenodd;stroke:none;stroke-width:.40000001;stroke-linejoin:miter;stroke-miterlimit:4;stroke-dasharray:none;stroke-opacity:1"/><rect id="rect5186" width="2" height="2.25" x="3" y="2.25" rx=".93" ry=".504" style="display:inline;fill:#d2d2d2;fill-opacity:1;fill-rule:evenodd;stroke:none;stroke-width:.40000001;stroke-linejoin:miter;stroke-miterlimit:4;stroke-dasharray:none;stroke-opacity:1"/><path id="path5212" d="M 3,2.75 C 3,3.0912603 3.4505635,3.407152 4,3.4096272 4.5519855,3.412114 4.9959964,3.0928343 5,2.75 4.9959962,2.9807125 4.5519854,3.1163708 4,3.1146973 3.4505635,3.1130315 3,2.9796532 3,2.75 Z" style="display:inline;fill:#fff;fill-opacity:1;fill-rule:evenodd;stroke:none;stroke-width:.40000001;stroke-linejoin:miter;stroke-miterlimit:4;stroke-dasharray:none;stroke-opacity:1"/><path id="path5223" d="M 4,3.25 3.75,5.25 4,10 4.25,5.25 4,3.25 Z" transform="matrix(1,0,0,0.962963,0,0.1203704)" style="fill:#fff;fill-opacity:.875;fill-rule:evenodd;stroke:none;stroke-width:1px;stroke-linecap:butt;stroke-linejoin:miter;stroke-opacity:1;filter:url(#filter5579)"/></g></g></svg>