<svg xmlns="http://www.w3.org/2000/svg" xmlns:svg="http://www.w3.org/2000/svg" id="svg2" width="16" height="14" version="1.1" viewBox="0 0 16 14"><metadata id="metadata7"/><g id="layer1" transform="translate(0,-1038.3622)"><path style="fill:#666;fill-rule:evenodd;stroke:none;stroke-width:1px;stroke-linecap:butt;stroke-linejoin:miter;stroke-opacity:1" id="path4140" d="m 0,1052.3622 8,0 0,-1 -1,0 -2,-2 0,-9 -2,0 0,9 -2,2 -1,0 z"/><path style="fill:#333;fill-rule:evenodd;stroke:none;stroke-width:1px;stroke-linecap:butt;stroke-linejoin:miter;stroke-opacity:1" id="path4144" d="m 3,1040.3622 8,-2 2,0 -8,2 z"/><path style="fill:#b3b3b3;fill-rule:evenodd;stroke:none;stroke-width:1px;stroke-linecap:butt;stroke-linejoin:miter;stroke-opacity:1" id="path4146" d="m 5,1049.3622 8,-2 0,-9 -8,2 z"/><path style="fill:gray;fill-rule:evenodd;stroke:none;stroke-width:1px;stroke-linecap:butt;stroke-linejoin:miter;stroke-opacity:1" id="path4148" d="m 7,1051.3622 8,-2 -2,-2 -8,2 z"/><path style="fill:#1a1a1a;fill-rule:evenodd;stroke:none;stroke-width:1px;stroke-linecap:butt;stroke-linejoin:miter;stroke-opacity:1" id="path4150" d="m 7,1051.3622 8,-2 1,0 -8,2 z"/><path style="fill:#666;fill-rule:evenodd;stroke:none;stroke-width:1px;stroke-linecap:butt;stroke-linejoin:miter;stroke-opacity:1" id="path4152" d="m 8,1052.3622 8,-2 0,-1 -8,2 z"/><path style="fill:#1a1a1a;fill-rule:evenodd;stroke:none;stroke-width:1px;stroke-linecap:butt;stroke-linejoin:miter;stroke-opacity:1" id="path4154" d="M 0,1051.3622 1.4084821,1050.976 1,1051.3622 Z"/></g></svg>