<svg xmlns="http://www.w3.org/2000/svg" xmlns:svg="http://www.w3.org/2000/svg" id="svg2" width="64" height="64" version="1.1"><metadata id="metadata7"/><g id="layer1" transform="translate(0,-988.36218)"><rect style="fill:#999;fill-opacity:1;stroke:none" id="rect3618" width="65.155" height="42.174" x="-.505" y="1010.693"/><rect style="fill:#c83737;fill-opacity:1;stroke:none" id="rect3616" width="16.162" height="5.607" x="-2.02" y="1047.513"/><rect id="rect3620" width="16.162" height="5.607" x="15.973" y="1047.513" style="fill:#c83737;fill-opacity:1;stroke:none"/><rect style="fill:#c83737;fill-opacity:1;stroke:none" id="rect3622" width="16.162" height="5.607" x="33.966" y="1047.513"/><rect style="fill:#c83737;fill-opacity:1;stroke:none" id="rect3624" width="16.162" height="5.607" x="51.96" y="1047.513"/><rect id="rect3636" width="16.162" height="5.607" x="-10.859" y="1039.936" style="fill:#c83737;fill-opacity:1;stroke:none"/><rect style="fill:#c83737;fill-opacity:1;stroke:none" id="rect3638" width="16.162" height="5.607" x="7.134" y="1039.936"/><rect id="rect3640" width="16.162" height="5.607" x="25.128" y="1039.936" style="fill:#c83737;fill-opacity:1;stroke:none"/><rect id="rect3642" width="16.162" height="5.607" x="43.121" y="1039.936" style="fill:#c83737;fill-opacity:1;stroke:none"/><rect id="rect3644" width="16.162" height="5.607" x="61.114" y="1039.936" style="fill:#c83737;fill-opacity:1;stroke:none"/><rect style="fill:#c83737;fill-opacity:1;stroke:none" id="rect3646" width="16.162" height="5.607" x="-1.768" y="1032.108"/><rect id="rect3648" width="16.162" height="5.607" x="16.226" y="1032.108" style="fill:#c83737;fill-opacity:1;stroke:none"/><rect style="fill:#c83737;fill-opacity:1;stroke:none" id="rect3650" width="16.162" height="5.607" x="34.219" y="1032.108"/><rect style="fill:#c83737;fill-opacity:1;stroke:none" id="rect3652" width="16.162" height="5.607" x="52.212" y="1032.108"/><rect id="rect3656" width="16.162" height="5.607" x="-10.859" y="1024.531" style="fill:#c83737;fill-opacity:1;stroke:none"/><rect style="fill:#c83737;fill-opacity:1;stroke:none" id="rect3658" width="16.162" height="5.607" x="7.134" y="1024.531"/><rect id="rect3660" width="16.162" height="5.607" x="25.128" y="1024.531" style="fill:#c83737;fill-opacity:1;stroke:none"/><rect id="rect3662" width="16.162" height="5.607" x="43.121" y="1024.531" style="fill:#c83737;fill-opacity:1;stroke:none"/><rect id="rect3664" width="16.162" height="5.607" x="61.114" y="1024.531" style="fill:#c83737;fill-opacity:1;stroke:none"/><rect style="fill:#c83737;fill-opacity:1;stroke:none" id="rect3666" width="16.162" height="5.607" x="-2.02" y="1016.955"/><rect id="rect3668" width="16.162" height="5.607" x="15.973" y="1016.955" style="fill:#c83737;fill-opacity:1;stroke:none"/><rect style="fill:#c83737;fill-opacity:1;stroke:none" id="rect3670" width="16.162" height="5.607" x="33.966" y="1016.955"/><rect style="fill:#c83737;fill-opacity:1;stroke:none" id="rect3672" width="16.162" height="5.607" x="51.96" y="1016.955"/><rect style="fill:#4d4d4d;fill-opacity:1;stroke:none" id="rect3676" width="73.236" height="7.324" x="-4.546" y="1007.915"/></g></svg>