<svg xmlns="http://www.w3.org/2000/svg" xmlns:svg="http://www.w3.org/2000/svg" xmlns:xlink="http://www.w3.org/1999/xlink" id="svg2" width="160" height="120" version="1.1" viewBox="0 0 160 120"><defs id="defs4"><linearGradient id="linearGradient1580" x1="34.276" x2="58.388" y1="65.076" y2="94.506" gradientTransform="matrix(1.266993,0,0,1.0463596,-13.532305,910.58021)" gradientUnits="userSpaceOnUse" xlink:href="#linearGradient1577"/><linearGradient id="linearGradient1577"><stop id="stop1578" offset="0" style="stop-color:#fff;stop-opacity:.50196"/><stop id="stop1579" offset="1" style="stop-color:#fff;stop-opacity:0"/></linearGradient><linearGradient id="linearGradient1583" x1="59.954" x2="72.248" y1="24.069" y2="51.273" gradientTransform="matrix(1.5163223,0,0,0.87425748,-13.532305,910.58021)" gradientUnits="userSpaceOnUse" xlink:href="#linearGradient1577"/><linearGradient id="linearGradient1595" x1="106.48" x2="65.23" y1="99.251" y2="63.92" gradientTransform="matrix(1.4806874,0,0,0.89532767,-13.532305,910.58021)" gradientUnits="userSpaceOnUse" xlink:href="#linearGradient1590"/><linearGradient id="linearGradient1590"><stop id="stop1591" offset="0" style="stop-color:#ff5c00;stop-opacity:.42697"/><stop id="stop1592" offset="1" style="stop-color:#fff;stop-opacity:0"/></linearGradient><linearGradient id="linearGradient1597" x1="128.81" x2="72.964" y1="123.48" y2="100.47" gradientTransform="matrix(1.3419412,0,0,0.98788892,-13.532305,910.58021)" gradientUnits="userSpaceOnUse" xlink:href="#linearGradient1590"/><linearGradient id="linearGradient1585" x1="75.866" x2="86.158" y1="77.42" y2="86.34" gradientTransform="matrix(0.95932587,0,0,1.3818451,-13.532305,910.58021)" gradientUnits="userSpaceOnUse" xlink:href="#linearGradient1577"/><linearGradient id="linearGradient1587" x1="17.386" x2="32.846" y1="41.249" y2="49.898" gradientTransform="matrix(0.72780251,0,0,1.8214706,-13.532305,910.58021)" gradientUnits="userSpaceOnUse" xlink:href="#linearGradient1577"/></defs><metadata id="metadata7"/><g id="layer1" transform="translate(0,-933.3622)"><path style="fill:#ff0;fill-rule:evenodd;stroke-width:1.15138853" id="path1559" d="m 75.634247,934.19914 c -11.65261,0.18453 -24.128273,2.01244 -36.96603,6.33143 -8.7317,1.82447 -34.4520462,19.99652 -34.6612572,39.31605 -0.06782,-0.67927 -0.23795,-1.30665 -0.251744,-2.01246 -3.37841702,5.9993 -3.12897302,22.32724 -2.84964202,29.59744 0.15748302,1.61 0.81730402,3.4864 1.59322502,5.3996 0.416124,5.2532 2.928959,10.5628 8.1718852,15.613 0.01494,0.012 0.02759,0.035 0.04253,0.046 1.400107,1.7529 2.918613,3.3099 4.526781,4.2209 1.323089,-1.9029 24.036312,-12.6144 42.204361,-20.5673 0.158633,0.2341 0.32761,0.4636 0.503486,0.6873 0.898919,9.6286 -3.056554,23.2822 -2.347305,28.8063 -0.08276,0.1154 -0.341406,0.4383 -0.419572,0.5421 2.584104,4.9129 8.594906,7.7269 16.346071,9.0877 9.544409,2.3873 20.017619,1.8222 28.373419,0.5882 9.473135,-1.4416 16.898985,-3.4944 24.221385,-6.0431 4.58655,-1.4416 8.63284,-3.0562 12.11586,-4.763 0.78167,-0.346 1.4254,-0.5075 2.21856,-0.8765 1.12652,-0.692 1.87371,-1.4531 2.85079,-2.1566 0.63223,-0.4383 1.60932,-0.8419 2.1381,-1.2802 0.40233,-0.3344 0.6782,-0.7727 1.04605,-1.1302 1.184,-1.061 2.17258,-2.2719 3.14967,-3.4367 0.26439,-0.346 0.58625,-0.6228 0.83915,-0.9803 3.82787,-4.959 6.41427,-10.9445 9.09263,-19.8788 3.28761,-5.9659 3.5635,-20.62163 -1.59782,-38.72793 0.023,0.50514 -0.0575,0.88226 -0.0345,1.3747 -0.97708,-7.31979 -3.94282,-14.25784 -8.93171,-19.19152 -8.75929,-6.82504 -36.41656,-21.11979 -71.374385,-20.56623 z m 18.356568,31.56031 c -0.16783,0.15109 -0.53108,0.56511 -0.7127,0.73694 -0.24484,-0.0334 -0.46555,-0.0657 -0.71155,-0.098 0.30233,-0.13724 1.14376,-0.50976 1.42425,-0.63893 z"/><path style="fill:url(#linearGradient1580);fill-rule:evenodd;stroke-width:1.15138853" id="path1576" d="m 16.801036,1030.52 c 0,0 1.236875,-26.4951 1.443788,-28.5652 0.205762,-2.07017 69.942101,-32.08394 72.623911,-32.7044 1.34148,-0.31138 -8.66503,19.40489 -10.264,28.09936 -18.517496,13.66164 -61.01843,30.17184 -63.803699,33.17024 z"/><path style="fill:#ffd900;fill-rule:evenodd;stroke-width:1.15138853" id="path908" d="m 17.09876,1001.9421 c -34.13708,-24.80335 10.113413,-58.32421 22.101681,-60.82796 51.349874,-17.27711 96.623439,5.34308 108.302479,14.44236 9.74788,10.93413 12.72512,38.07283 -2.04612,50.8729 -15.66787,12.8498 -78.154222,24.6788 -88.282579,5.4527 6.752239,-8.9309 29.463164,-38.28157 37.345374,-45.35456 -16.089733,7.33939 -67.028091,28.58258 -77.420835,35.41456 z"/><path style="fill:url(#linearGradient1583);fill-rule:evenodd;stroke-width:1.15138853" id="path1582" d="m 17.099909,1001.9467 c -34.13593,-24.80334 10.113413,-58.3242 22.101681,-60.82796 51.348725,-17.27824 96.62229,5.34195 108.30133,14.44238 9.73638,10.93412 12.72512,38.07167 -2.04612,50.87178 -15.66787,12.8497 -78.154222,24.6868 -88.282579,5.4538 6.753388,-8.9309 29.463164,-38.28157 37.345374,-45.3557 -16.089733,7.33938 -67.025792,28.58258 -77.419686,35.4157 z"/><path style="fill:url(#linearGradient1595);fill-rule:evenodd;stroke-width:1.15138853" id="path1588" d="m 17.130945,1001.7483 c -34.135929,-24.8033 10.113413,-58.32416 22.101682,-60.82792 51.348728,-17.27825 96.614243,5.34195 108.304783,14.44237 10.46057,11.65492 11.28822,36.63009 -3.48303,49.43025 -32.91054,24.0202 -75.642522,28.6448 -86.489324,7.6161 6.753387,-8.9309 29.103359,-39.00232 36.985569,-46.07531 -16.089727,7.33824 -67.025785,28.58143 -77.41968,35.41451 z"/><path style="fill:#ffc600;fill-rule:evenodd;stroke-width:1.15138853" id="path1550" d="m 58.307642,1012.6951 c 1.263314,10.993 -4.334813,27.7776 -1.733466,31.2259 11.718133,10.6792 30.724179,8.9147 44.013694,6.9312 15.47588,-2.3412 24.46507,-5.6626 37.77643,-11.7749 10.98934,-6.8158 13.85163,-12.7897 18.31174,-27.713 3.2991,-5.9647 4.82795,-17.34056 -0.33336,-35.44686 -2.18407,15.78361 -4.56357,18.36002 -10.49506,28.00016 -11.15026,9.112 -29.59995,16.4341 -44.46545,17.7915 -13.947025,0.6839 -28.826318,1.0368 -43.074528,-9.014 z"/><path style="fill:#ffc600;fill-rule:evenodd;stroke-width:1.15138853" id="path1551" d="m 16.502163,1007.5896 c 0.01264,5.711 1.018468,7.7604 0.02989,13.3802 -0.629932,3.7389 0.03104,6.5518 -1.386312,10.3921 -3.248522,-1.8452 -4.241702,-3.0907 -6.5706132,-6.5701 -5.52226,-6.2623 -4.186526,-9.4488 -6.726949,-15.2774 -0.278182,-7.2702 -1.35872402,-23.60044 2.020843,-29.59858 0.270136,14.71799 12.6975172,22.53828 12.9688022,22.68938 z"/><path style="fill:url(#linearGradient1597);fill-rule:evenodd;stroke-width:1.15138853" id="path1596" d="m 58.320286,1013.2995 c 1.263314,10.9929 -4.334812,27.7729 -1.733465,31.2212 11.718133,10.6792 30.724174,8.9147 44.014839,6.9427 15.47358,-2.3411 24.46277,-5.6741 37.78563,-11.7749 10.97785,-6.8273 13.84013,-12.8013 18.30024,-27.7188 3.29911,-5.9658 4.82796,-17.34165 -0.33336,-35.44795 -2.18407,15.78361 -4.56356,18.36002 -10.49505,28.00135 -11.15027,9.1108 -29.58846,16.4329 -44.46315,17.7903 -13.948175,0.685 -28.827474,1.0368 -43.075684,-9.0139 z"/><path style="fill:none;stroke:#000;stroke-width:1.43923581" id="path1574" d="m 4.0265008,977.5055 c -0.772472,5.12281 3.785346,22.348 13.3056092,24.1552 17.496733,-9.94349 77.349565,-34.86099 77.349565,-34.86099 l -37.20973,45.10779 c 0.772473,7.5331 29.07692,10.5466 39.88349,10.2456 9.776605,-0.6032 62.941575,-6.2334 58.309035,-50.23058"/><path style="fill:none;stroke:#000;stroke-width:1.43923581" id="path1575" d="m 17.358549,1001.2928 c 0,0 -0.417273,30.1037 -2.089814,30.8418"/><path style="fill:url(#linearGradient1585);fill-rule:evenodd;stroke-width:1.15138853" id="path1584" d="m 58.554787,1015.0155 c 0.442562,4.4366 -3.095638,22.8509 -2.653076,27.2909 4.20147,3.5406 23.217859,-21.7448 18.353121,-21.3008 -4.864739,-1.332 -11.056014,-2.2189 -15.700045,-5.9901 z"/><path style="fill:url(#linearGradient1587);fill-rule:evenodd;stroke-width:1.15138853" id="path1586" d="m 3.2735698,981.51539 c -1.326537,3.99377 -2.65422502,16.41792 -1.548393,27.51011 3.980762,6.2114 10.3927442,-5.9901 11.2778682,-7.9864 -1.10583,-1.99749 -6.6338362,-4.43781 -9.7294752,-19.52371 z"/><path style="fill:none;stroke:#000;stroke-width:1.43923581;stroke-linejoin:round" id="path1598" d="m 75.569874,934.09765 c -11.65261,0.18454 -24.125973,2.02284 -36.963731,6.34298 -8.282239,1.7299 -31.5782642,18.18933 -34.1623682,36.36366 0,0 -0.63683,1.40008 -0.643727,1.04834 -3.37841802,5.99812 -3.22668202,22.20617 -2.94850002,29.47747 0.15748302,1.6088 0.80580702,3.4921 1.58057902,5.4054 0.417273,5.2531 3.389913,10.4486 8.1902772,15.6049 0.01494,0.011 3.176104,3.0446 4.784273,3.9557 1.32079,-1.9029 23.759278,-12.2593 41.914682,-20.2087 1.925434,6.7362 -2.464555,23.9453 -1.759904,29.4464 0.692008,4.094 3.895699,5.1781 5.064753,5.8701 2.805961,1.7184 14.474665,5.132 21.805107,5.2242 2.07257,0.1038 15.05517,-0.5074 17.42201,-0.8649 7.612075,-1.1532 13.819445,-2.7909 19.796905,-4.6822 4.62105,-1.6146 13.06996,-4.4286 16.55299,-6.1239 2.77032,-1.6838 8.97769,-5.8586 12.21932,-9.872 3.83937,-4.9705 6.41427,-10.9283 9.08114,-19.8627 3.95433,-10.2917 0.34486,-37.57228 -1.89669,-39.39214 -0.44831,-4.99134 -5.73606,-15.03747 -8.65583,-17.15485 -1.48287,-1.75988 -9.9203,-6.0189 -11.51812,-7.02686 -7.14997,-3.67315 -29.85285,-14.02604 -59.863166,-13.5509 z"/></g></svg>