<svg xmlns="http://www.w3.org/2000/svg" xmlns:svg="http://www.w3.org/2000/svg" id="svg2" width="16" height="16" version="1.1"><defs id="defs4"><marker id="ArrowStart" markerHeight="3" markerUnits="strokeWidth" markerWidth="4" orient="auto" refX="10" refY="5" viewBox="0 0 10 10"><path style="font-size:12px" id="path607" d="M 10,0 L 0,5 L 10,10 L 10,0 z"/></marker><marker id="ArrowEnd" markerHeight="3" markerUnits="strokeWidth" markerWidth="4" orient="auto" refX="0" refY="5" viewBox="0 0 10 10"><path style="font-size:12px" id="path605" d="M 0,0 L 10,5 L 0,10 L 0,0 z"/></marker></defs><metadata id="metadata7"/><g id="layer1" transform="translate(0, -1036.36)"><path style="fill:#f9f9f9;stroke:none" id="path2619" d="m 113.53775,95.709503 a 15.48242,15.951584 0 1 1 -30.964842,0 15.48242,15.951584 0 1 1 30.964842,0 z" transform="matrix(0.0215669, -0.0196285, 0.0196285, 0.0215669, -2.8971, 1048.31)"/><path id="path6298" d="m 11.43658,1041.0297 c 1.28208,1.4028 0.687401,4.0358 -1.327404,5.8773 -2.0148066,1.8415 -4.690541,2.1977 -5.9726187,0.795 -1.28208,-1.4028 -0.6874027,-4.0358 1.327402,-5.8773 2.0062635,-1.8337 4.6670897,-2.1963 5.9570687,-0.8118 l 0.01555,0.017 z" style="fill:#ac39ac;fill-opacity:.443925;fill-rule:evenodd;stroke:none;stroke-width:.658947;stroke-linecap:butt;stroke-linejoin:round;stroke-miterlimit:4;stroke-opacity:1;stroke-dasharray:none;stroke-dashoffset:0;marker:none;visibility:visible;display:inline;overflow:visible"/><path style="fill:#ac39ac;fill-rule:evenodd;stroke:none;fill-opacity:1" id="path6296" d="m 4.2048193,1043.4327 c 2.0381607,0.7471 3.6846991,2.0635 4.4358552,4.6815 l 2.6532355,-2.7439 c -0.580375,-2.3514 -2.0556572,-3.8335 -4.4222966,-4.45 l -2.6667941,2.5124 z"/><path style="fill:none;stroke:none;stroke-width:0;stroke-linecap:butt;stroke-linejoin:round;stroke-miterlimit:4;stroke-opacity:1;stroke-dasharray:none;stroke-dashoffset:0;marker:none;visibility:visible;display:inline;overflow:visible" id="path5784" d="m 11.464877,1041.0245 c 1.282079,1.4027 0.687401,4.0357 -1.327403,5.8773 -2.0148085,1.8415 -4.6905416,2.1976 -5.9726194,0.7949 -1.2820801,-1.4027 -0.6874028,-4.0357 1.327402,-5.8772 2.0062635,-1.8338 4.6670894,-2.1964 5.9570684,-0.8118 l 0.01555,0.017 z"/><path style="fill:#ac39ac;fill-opacity:1;fill-rule:evenodd;stroke:none" id="path6310" d="m 11.307244,1041.0235 c 1.276776,0.5607 3.209861,0.2774 3.854468,-0.4512 -0.329317,-0.069 -0.640118,-0.4024 -0.831499,-0.7873 -0.200859,-0.404 -0.01844,-0.9301 -0.359731,-1.2424 -0.389681,-0.3566 -0.931856,-0.1608 -1.344943,-0.375 -0.363497,-0.1886 -0.480802,-0.5868 -0.857377,-1.0287 -0.902309,1.2192 -0.823187,2.6807 -0.460918,3.8846 z"/><path id="path6312" d="m 4.3829514,1047.9272 c -1.2733164,-0.5685 -3.2081009,-0.297 -3.85715833,0.4276 0.32888722,0.071 0.63763903,0.4063 0.82665763,0.7924 0.1983813,0.4052 0.012749,0.9301 0.3521145,1.2445 0.3874887,0.359 0.9308529,0.1665 1.3426201,0.3833 0.3623346,0.1908 0.4771977,0.5897 0.8510578,1.0339 0.9097604,-1.2136 0.8395945,-2.6756 0.4847083,-3.8817 z" style="fill:#ac39ac;fill-opacity:1;fill-rule:evenodd;stroke:none;stroke-width:.166;stroke-linecap:round;stroke-linejoin:round;stroke-miterlimit:4;stroke-opacity:1;stroke-dasharray:none"/></g></svg>