<svg xmlns="http://www.w3.org/2000/svg" xmlns:svg="http://www.w3.org/2000/svg" id="svg2" width="7" height="16" version="1.1" viewBox="0 0 7 16" xml:space="preserve"><defs id="defs6"><clipPath id="clipPath136"><path id="path138" d="m 7,-0.48208 18,0 0,32 -18,0 0,-32 z"/></clipPath><mask id="mask140"><g id="g142"><g id="g144" clip-path="url(#clipPath136)"><path id="path146" d="m 7,-0.48208 18,0 0,32 -18,0 0,-32 z" style="fill:#000;fill-opacity:.19140003"/></g></g></mask><clipPath id="clipPath152"><path id="path154" d="m 7,-0.48208 18,0 0,32 -18,0 0,-32 z"/></clipPath><clipPath id="clipPath156"><path id="path158" d="M 7,0 25,0 25,32 7,32 7,0 Z"/></clipPath></defs><path style="fill:#ac39ac;fill-opacity:1;fill-rule:evenodd" id="path58" d="M 5.3631235,0.00774818 1.5401075,1.1827408e-6 C 1.3973465,-2.8781726e-4 1.2801525,0.05240118 1.1870195,0.14087718 c -0.109654,0.08523 -0.170769,0.272815 -0.173665,0.424574 -0.0032,0.168207 0.05486,0.352497 0.174409,0.47687802 0.08542,0.08887 0.205432,0.154175 0.346398,0.149328 l 0.08325,0 c 0.0044,0.131856 0.0026,0.268998 -0.01264,0.417696 -0.03895,0.485996 -0.169381,0.846752 -0.392486,1.087561 -0.71158374,0.820981 -1.09851424,1.666133 -1.16035824,2.533649 -0.061996,0.815672 -0.070072,4.018498 -0.01561,9.6112438 0.014813,0.227243 0.087732,0.649355 0.3553182,0.76425 1.34001704,0.57537 4.89228804,0.471792 6.20617204,0.0028 0.251276,-0.08969 0.35427,-0.503931 0.367966,-0.67902 0.02699,-2.500997 0.03582,-4.649253 0.03345,-6.4098438 -1.31e-4,-0.125155 10e-4,-0.290943 7.39e-4,-0.409243 -0.0049,-1.974562 -0.0269,-3.343804 -0.0617,-3.768427 -0.04282,-0.430252 -0.131129,-0.543198 -0.862245,-1.42917 -0.194328,-0.206683 -0.359485,-0.597264 -0.483946,-0.918506 -0.100326,-0.258948 -0.206501,-0.604122 -0.208136,-0.803696 0.02622,-0.0037 0.05523,-9.45e-4 0.08251,-0.0014 0.140965,0.0048 0.255953,-0.04362 0.346397,-0.149328 0.09955,-0.09892 0.160514,-0.31033002 0.157591,-0.47687802 -0.0026,-0.149924 -0.05176,-0.334317 -0.156845,-0.424573 -0.161553,-0.138757997259 -0.284599,-0.130678 -0.450465,-0.131014 z m -2.762412,1.18390802 1.726627,7.05e-4 c 0.02062,0.714898 0.238555,1.059519 0.454183,1.558085 0.316569,0.731957 1.209465,1.250105 1.219083,2.072986 0.01031,0.882134 0.02821,1.030358 0.03419,2.167372 -1.215613,-0.05278 -0.683203,-0.190747 -1.786775,-0.185979 -0.706613,0.108989 -1.085961,-0.06004 -1.848883,0.06175 -1.259184,0.244038 -1.378523,0.58324 -1.378523,0.58324 0,0 -0.06352,-1.722234 0.111906,-2.55995 0.06718,-0.320799 0.203937,-0.627675 0.355406,-0.921549 0.221286,-0.42933 0.44274,-0.783932 0.801324,-1.215758 0.251074,-0.25545 0.34978,-0.784096 0.31146,-1.560902 z"/><metadata id="metadata133"/></svg>