<svg xmlns="http://www.w3.org/2000/svg" xmlns:svg="http://www.w3.org/2000/svg" id="svg2" width="16" height="16" version="1.0"><defs id="defs11"><linearGradient id="linearGradient850" x1="62.832" x2="312.91" y1="339.77" y2="191.32" gradientTransform="scale(1.533,0.65232)" gradientUnits="userSpaceOnUse"><stop id="stop830" offset="0" style="stop-color:#fff;stop-opacity:.525"/><stop id="stop831" offset="1" style="stop-color:#fff;stop-opacity:0"/></linearGradient><linearGradient id="linearGradient854" x1="109.53" x2="370.9" y1="332.17" y2="332.17" gradientTransform="scale(1.2211,0.81893)" gradientUnits="userSpaceOnUse"><stop id="stop856" offset="0" style="stop-color:#fff;stop-opacity:0"/><stop id="stop857" offset="1" style="stop-color:#5f0e00;stop-opacity:.41667"/></linearGradient></defs><metadata id="metadata2975"/><g id="g4152" transform="matrix(0.6971837,0,0,0.64415306,0.03590025,1.2887395e-4)"><path style="fill:#009100;fill-opacity:1" id="path6571" d="m 12.54946,1.24301 c 0,0 -0.9764,5.34442 -4.76925,3.33284 -6.6e-4,0.003 0.0908,-4.36172995 4.76925,-3.33284 z"/><path style="fill:red;fill-opacity:1" id="path6573" d="M 6.16561,7.04786 C 6.82104,6.39948 7.74229,5.61528 8.736,5.61528 c 2.00506,0 3.63659,1.62448 3.63659,3.63305 0,0.074 0,0.13743 -0.004,0.21496 l -0.007,0 c -0.0634,0.78581 -0.31362,1.76191 -0.90563,2.9741 0,0 -1.01838,1.94867 -1.83591,2.84372 l -0.074,0.0705 C 9.15139,15.74981 8.59462,16 7.99205,16 7.25205,16 6.59662,15.64057 6.19843,15.0838 l -0.0106,0 C 5.78964,15.64057 5.13421,16 4.3942,16 3.78458,16 3.23487,15.75333 2.83668,15.35161 l -0.074,-0.0705 C 1.9522,14.38606 0.92677,12.43739 0.92677,12.43739 0.33477,11.2252 0.08458,10.24205 0.0282,9.46329 l -0.0176,0 C 0,9.38929 0,9.32586 0,9.24833 0,7.23976 1.63153,5.61528 3.64363,5.61528 c 0.99019,0 1.83284,0.75799 2.49531,1.40638"/><path id="path10957" d="m 0.56464106,0.04697604 c 0,0 0.74802014,5.01014976 4.28647864,3.29890476 3.663e-4,0.0022 0.00419,-3.80803669 -4.28647864,-3.29890476 z" style="fill:#009100;fill-opacity:1"/><path id="path10959" d="m 5.71287,6.09502 c 0,0 0.26571,-3.9979 -0.55861,-5.11601995 -0.82432,-1.11812 2.53688,0 2.53688,0 C 7.10465,2.90508 7.23332,7.02891 5.71287,6.09502 Z" style="fill:#722a00;fill-opacity:1;stroke:none;stroke-width:4.83599997;stroke-linecap:butt;stroke-linejoin:miter;stroke-miterlimit:4;stroke-dasharray:none;stroke-opacity:1"/></g><g id="g845" transform="matrix(0.03655311,0,0,0.03377273,-0.89620056,2.9752221)"><path id="path847" d="M 388.75,93.75 C 370,76.25 420,63.75 426.25,70 c 10,5 -8.75,8.75 -7.5,17.5 1.25,8.75 0,55 10,57.5 10,2.5 22.5,11.25 22.5,23.75 C 482.5,246.25 360,458.75 70,352.5 65,348.75 37.5,317.5 32.5,310 30,301.25 26.25,280 41.25,272.5 170,238.75 318.75,305 386.25,153.75 c 11.25,-26.25 2.5,-60 2.5,-60 z" style="fill:#ffe200;fill-rule:evenodd;stroke:#000;stroke-width:10;stroke-linejoin:round"/><path id="path849" d="m 43.75,290 2.5,-12.5 C 138.75,242.5 310,316.25 392.5,157.5 351.25,270 278.75,338.75 43.75,290 Z" style="fill:url(#linearGradient850);fill-rule:evenodd;stroke-width:1pt"/><path id="path851" d="m 386.15,89.136 c 2.92,-17.6 29.12,-18.073 36.45,-18.944 11.98,1.566 -15.49,21.444 -36.45,18.944 z" style="fill:#442400;fill-rule:evenodd;stroke-width:1pt"/><path id="path852" d="m 32.518,305.14 c -0.933,-18.37 -1.866,-24.43 8.743,-30.49 4.617,6.93 3.75,28.37 -8.743,30.49 z" style="fill:#442400;fill-rule:evenodd;stroke-width:1pt"/><path id="path853" d="M 133.75,366.25 C 352.5,421.25 426.74,283.13 440,250 c 22.5,-40 8.75,-85 8.75,-85 -1.25,135 -142.5,243.75 -315,201.25 z" style="fill:url(#linearGradient854);fill-rule:evenodd;stroke-width:1pt"/></g></svg>