<svg xmlns="http://www.w3.org/2000/svg" xmlns:svg="http://www.w3.org/2000/svg" id="svg4395" width="16" height="16" version="1.1"><title id="title2986">Cake</title><metadata id="metadata4400"/><g id="layer1" transform="translate(-249.77932,-560.05786)"><path style="fill:#5a3216;fill-opacity:1;stroke:#0c0800;stroke-width:.58682603;stroke-linecap:round;stroke-linejoin:round;stroke-miterlimit:4;stroke-dasharray:none;stroke-dashoffset:0;stroke-opacity:1" id="rect3160" d="m 264.54725,564.77062 c 0.60865,0 0.94075,-0.11108 0.93866,0.91051 l -0.0179,8.72654 c -0.002,0.87839 -0.44133,1.33204 -1.11545,1.33204 l -13.41784,0 c -0.67411,0 -0.77938,0.21184 -0.78589,-0.66652 l -0.0761,-10.25207 c 0,0 10.86094,-0.0505 14.47453,-0.0505 z"/><path style="fill:#ffe680;fill-opacity:1;stroke:#0c0800;stroke-width:.57370043;stroke-linecap:round;stroke-linejoin:round;stroke-miterlimit:4;stroke-dashoffset:0;stroke-opacity:1" id="rect3160-1-7" d="m 262.19456,571.43578 c 0.57153,0 1.03161,0.17862 1.03161,0.4005 l 0,2.25795 c 0,0.22188 -0.4601,0.39953 -1.03161,0.4005 l -12.01574,0.0201 c 0,0 -0.0476,-2.25849 -0.0476,-3.06633 0,0 8.99978,-0.0128 12.06335,-0.0128 z"/><path style="fill:#ffe680;fill-opacity:1;stroke:#0c0800;stroke-width:.58644468;stroke-linecap:round;stroke-linejoin:round;stroke-miterlimit:4;stroke-dashoffset:0;stroke-opacity:1" id="rect3160-1-7-0" d="m 262.20558,566.34711 c 0.57483,0 1.03756,0.18557 1.03756,0.41609 l 0,2.34581 c 0,0.23052 -0.46274,0.4151 -1.03756,0.41611 l -12.08515,0.0209 c 0,0 -0.0478,-2.34639 -0.0478,-3.18566 0,0 9.05176,-0.0133 12.13302,-0.0133 z"/><path style="fill:#5a3216;fill-opacity:1;stroke:#0c0800;stroke-width:.68468547;stroke-linecap:round;stroke-linejoin:round;stroke-miterlimit:4;stroke-dasharray:none;stroke-opacity:1" id="path3242" d="m 250.12167,564.63757 10.24272,-4.1736 c 0,0 0.28532,-0.50151 2.69822,1.31047 1.77832,1.33544 2.163,2.94496 2.163,2.94496 z"/></g></svg>