<svg xmlns="http://www.w3.org/2000/svg" xmlns:svg="http://www.w3.org/2000/svg" id="svg2" width="16" height="15.987" version="1.1"><metadata id="metadata7"/><g id="layer1" transform="translate(-370,-617.375)"><path style="fill:#000;fill-opacity:1;stroke:none" id="path2987" d="m 377,622.36218 2,-2 5,0 2,2 0,11 -9,0 z"/><path style="fill:#ccc;fill-opacity:1;stroke:none" id="path4221" d="m 378,632.36218 0,-9 2,-2 3,0 2,2 0,9 z"/><path style="fill:none;stroke:#4f4f4f;stroke-width:1px;stroke-linecap:butt;stroke-linejoin:miter;stroke-opacity:1" id="path4223" d="m 379.4917,621.85388 1,1 2,0 1,-1"/><path style="fill:none;stroke:#000;stroke-width:1px;stroke-linecap:square;stroke-linejoin:miter;stroke-opacity:1" id="path4382" d="m 381.5,621.86218 0,-3 -1,-1 -6,0 -2,2 0,4 0,0"/><rect style="fill:green;fill-opacity:1;stroke:none" id="rect4227" width="5" height="5" x="370" y="624.362" ry="1"/><path style="fill:#75750b;fill-opacity:1;stroke:none" id="path4229" d="m 381,629.86218 a 0.5,0.5 0 1 1 -1,0 0.5,0.5 0 1 1 1,0 z"/><path style="fill:#75750b;fill-opacity:1;stroke:none" id="path4229-1" d="m 381,629.86218 a 0.5,0.5 0 1 1 -1,0 0.5,0.5 0 1 1 1,0 z" transform="translate(1,-1)"/><path style="fill:#75750b;fill-opacity:1;stroke:none" id="path4229-7" d="m 381,629.86218 a 0.5,0.5 0 1 1 -1,0 0.5,0.5 0 1 1 1,0 z" transform="translate(1,0)"/><path style="fill:#75750b;fill-opacity:1;stroke:none" id="path4229-4" d="m 381,629.86218 a 0.5,0.5 0 1 1 -1,0 0.5,0.5 0 1 1 1,0 z" transform="translate(-1,0)"/><path style="fill:#75750b;fill-opacity:1;stroke:none" id="path4229-0" d="m 381,629.86218 a 0.5,0.5 0 1 1 -1,0 0.5,0.5 0 1 1 1,0 z" transform="translate(2,-1)"/><path style="fill:#75750b;fill-opacity:1;stroke:none" id="path4229-9" d="m 381,629.86218 a 0.5,0.5 0 1 1 -1,0 0.5,0.5 0 1 1 1,0 z" transform="translate(3,-1)"/><path style="fill:#75750b;fill-opacity:1;stroke:none" id="path4229-48" d="m 381,629.86218 a 0.5,0.5 0 1 1 -1,0 0.5,0.5 0 1 1 1,0 z" transform="translate(3,0)"/><path style="fill:#75750b;fill-opacity:1;stroke:none" id="path4229-8" d="m 381,629.86218 a 0.5,0.5 0 1 1 -1,0 0.5,0.5 0 1 1 1,0 z" transform="translate(2,0)"/><path style="fill:#75750b;fill-opacity:1;stroke:none" id="path4229-2" d="m 381,629.86218 a 0.5,0.5 0 1 1 -1,0 0.5,0.5 0 1 1 1,0 z" transform="translate(2,1)"/><path style="fill:#75750b;fill-opacity:1;stroke:none" id="path4229-45" d="m 381,629.86218 a 0.5,0.5 0 1 1 -1,0 0.5,0.5 0 1 1 1,0 z" transform="translate(1,1)"/><path style="fill:#75750b;fill-opacity:1;stroke:none" id="path4229-5" d="m 381,629.86218 a 0.5,0.5 0 1 1 -1,0 0.5,0.5 0 1 1 1,0 z" transform="translate(0,1)"/><path style="fill:#75750b;fill-opacity:1;stroke:none" id="path4229-17" d="m 381,629.86218 a 0.5,0.5 0 1 1 -1,0 0.5,0.5 0 1 1 1,0 z" transform="translate(-1,1)"/><path style="fill:#75750b;fill-opacity:1;stroke:none" id="path4229-11" d="m 381,629.86218 a 0.5,0.5 0 1 1 -1,0 0.5,0.5 0 1 1 1,0 z" transform="translate(-2,1)"/><path style="fill:#75750b;fill-opacity:1;stroke:none" id="path4229-52" d="m 381,629.86218 a 0.5,0.5 0 1 1 -1,0 0.5,0.5 0 1 1 1,0 z" transform="translate(3,1)"/><path style="fill:#75750b;fill-opacity:1;stroke:none" id="path4229-76" d="m 381,629.86218 a 0.5,0.5 0 1 1 -1,0 0.5,0.5 0 1 1 1,0 z" transform="translate(-2,0)"/><path style="fill:#75750b;fill-opacity:1;stroke:none" id="path4229-14" d="m 381,629.86218 a 0.5,0.5 0 1 1 -1,0 0.5,0.5 0 1 1 1,0 z" transform="translate(4,0)"/><path style="fill:#75750b;fill-opacity:1;stroke:none" id="path4229-23" d="m 381,629.86218 a 0.5,0.5 0 1 1 -1,0 0.5,0.5 0 1 1 1,0 z" transform="translate(4,1)"/><path style="fill:#75750b;fill-opacity:1;stroke:none" id="path4229-76-8" d="m 381,629.86218 a 0.5,0.5 0 1 1 -1,0 0.5,0.5 0 1 1 1,0 z" transform="translate(-2,2)"/><path style="fill:#75750b;fill-opacity:1;stroke:none" id="path4229-76-9" d="m 381,629.86218 a 0.5,0.5 0 1 1 -1,0 0.5,0.5 0 1 1 1,0 z" transform="translate(-1,2)"/><path style="fill:#75750b;fill-opacity:1;stroke:none" id="path4229-76-2" d="m 381,629.86218 a 0.5,0.5 0 1 1 -1,0 0.5,0.5 0 1 1 1,0 z" transform="translate(0,2)"/><path style="fill:#75750b;fill-opacity:1;stroke:none" id="path4229-76-7" d="m 381,629.86218 a 0.5,0.5 0 1 1 -1,0 0.5,0.5 0 1 1 1,0 z" transform="translate(1,2)"/><path style="fill:#75750b;fill-opacity:1;stroke:none" id="path4229-76-95" d="m 381,629.86218 a 0.5,0.5 0 1 1 -1,0 0.5,0.5 0 1 1 1,0 z" transform="translate(2,2)"/><path style="fill:#75750b;fill-opacity:1;stroke:none" id="path4229-76-4" d="m 381,629.86218 a 0.5,0.5 0 1 1 -1,0 0.5,0.5 0 1 1 1,0 z" transform="translate(3,2)"/><path style="fill:#75750b;fill-opacity:1;stroke:none" id="path4229-76-3" d="m 381,629.86218 a 0.5,0.5 0 1 1 -1,0 0.5,0.5 0 1 1 1,0 z" transform="translate(4,2)"/><path style="fill:#75750b;fill-opacity:1;stroke:none" id="path4229-76-34" d="m 381,629.86218 a 0.5,0.5 0 1 1 -1,0 0.5,0.5 0 1 1 1,0 z" transform="translate(0,-1)"/><path style="fill:#75750b;fill-opacity:1;stroke:none" id="path4229-76-1" d="m 381,629.86218 a 0.5,0.5 0 1 1 -1,0 0.5,0.5 0 1 1 1,0 z" transform="translate(-1,-1)"/><path style="fill:#75750b;fill-opacity:1;stroke:none" id="path4229-76-13" d="m 381,629.86218 a 0.5,0.5 0 1 1 -1,0 0.5,0.5 0 1 1 1,0 z" transform="translate(1,-2)"/><path style="fill:#75750b;fill-opacity:1;stroke:none" id="path4229-76-87" d="m 381,629.86218 a 0.5,0.5 0 1 1 -1,0 0.5,0.5 0 1 1 1,0 z" transform="translate(3,-2)"/><path style="fill:#75750b;fill-opacity:1;stroke:none" id="path4229-76-42" d="m 381,629.86218 a 0.5,0.5 0 1 1 -1,0 0.5,0.5 0 1 1 1,0 z" transform="translate(2,-2)"/><path style="fill:#75750b;fill-opacity:1;stroke:none" id="path4229-76-77" d="m 381,629.86218 a 0.5,0.5 0 1 1 -1,0 0.5,0.5 0 1 1 1,0 z" transform="translate(4,-1)"/></g></svg>