<svg xmlns="http://www.w3.org/2000/svg" xmlns:svg="http://www.w3.org/2000/svg" id="svg4264" width="16" height="16" version="1.1" viewBox="0 0 16 16"><metadata id="metadata4269"/><g id="layer1" transform="translate(0,-1036.3621)"><rect style="fill:#1a1a1a;fill-opacity:1;stroke:none;stroke-opacity:1" id="rect4202-1" width="6.155" height="2.363" x="-733.526" y="738.267" transform="matrix(0.70710695,-0.70710662,0.70710695,0.70710662,0,0)"/><path style="fill:#1a1a1a" id="path3444-5-9" d="m -4.7683724e-7,1042.3621 0,3 C 2.0000005,1045.3621 3.0000005,1046.0887 3.0253915,1048.3621 l 0,4 0.330078,0 1.09375,0 0.550781,0 0,-4 0,-6 -5.00000097683724,0 z"/><path style="fill:#1a1a1a" id="path3444-5-1-4" d="m 11.000003,1042.3621 0,5.5625 c 0.01005,0.1443 0.02734,0.2784 0.02734,0.4375 l 0,4 1.972662,0 0,-4 c 1e-6,-2.2734 1,-3 3,-3 l 0,-3 -5.000002,0 z"/></g></svg>