<svg xmlns="http://www.w3.org/2000/svg" xmlns:svg="http://www.w3.org/2000/svg" id="svg4264" width="16" height="10" version="1.1" viewBox="0 0 16 10"><metadata id="metadata4269"/><g id="layer1" transform="translate(0,-1042.3621)"><path style="fill:#fff;stroke:#1a1a1a;stroke-width:.92470521000000006;stroke-opacity:1" id="path3444-5" d="m 0.46235529,1042.8244 -2.73e-6,2.7226 c 1.88441214,0 2.82661874,0.6595 2.85054234,2.7226 l -6e-7,3.6302 0.3110015,0 1.0305377,0 0.5189493,0 5e-7,-3.6302 c 5e-7,-2.0631 0.9422056,-2.7226 2.826618,-2.7226 1.8844119,0 2.8523817,0.6595 2.8523807,2.7226 l 0,3.6302 1.858649,0 0,-3.6302 c 10e-7,-2.0631 0.942207,-2.7226 2.826619,-2.7226 l 0,-2.7226 z"/><path style="fill:#1a1a1a;fill-rule:evenodd;stroke:none;stroke-width:1px;stroke-linecap:butt;stroke-linejoin:miter;stroke-opacity:1;fill-opacity:1" id="path4135" d="M -4.7683724e-7,1042.3621 16,1042.3621 l -0.0017,3.0173 -16.02038857,0 z"/></g></svg>