<svg xmlns="http://www.w3.org/2000/svg" xmlns:svg="http://www.w3.org/2000/svg" id="svg2" width="16" height="16" version="1.1"><metadata id="metadata7"/><g id="layer1" transform="translate(-355,-501.36218)"><rect style="fill:#999;fill-opacity:1;stroke:none" id="rect2991" width="10" height="16" x="358" y="501.362"/><rect style="fill:#fff;fill-opacity:1;stroke:none" id="rect3808" width="1" height="2" x="361" y="515.362"/><rect style="fill:#fff;fill-opacity:1;stroke:none" id="rect3810" width="1" height="2" x="361" y="512.362"/><rect style="fill:#fff;fill-opacity:1;stroke:none" id="rect3812" width="1" height="2" x="552.175" y="292.873" transform="matrix(0.89384905,0.44836801,-0.44836801,0.89384905,0,0)"/><rect style="fill:#fff;fill-opacity:1;stroke:none" id="rect3816" width="1" height="2" x="364" y="504.362"/><rect style="fill:#fff;fill-opacity:1;stroke:none" id="rect3818" width="1" height="2" x="364" y="501.362"/><rect style="fill:green;fill-opacity:1;stroke:none" id="rect3901" width="3" height="16" x="355" y="501.362"/><rect style="fill:green;fill-opacity:1;stroke:none" id="rect3903" width="3" height="16" x="368" y="501.362"/><rect style="fill:green;fill-opacity:1;stroke:none" id="rect3901-1" width="3.028" height="4" x="357.972" y="501.362"/><rect style="fill:green;fill-opacity:1;stroke:none" id="rect3901-1-6" width="3" height="4" x="365" y="513.362"/><path style="fill:green;fill-opacity:1;stroke:none" id="path4036" d="m 361,505.36218 c -3,6 -3,6 -3,6 l 0,-6 z"/><path style="fill:green;fill-opacity:1;stroke:none" id="path4036-8" d="m 365,513.36218 c 3,-6 3,-6 3,-6 l 0,6 z"/><rect style="fill:#fff;fill-opacity:1;stroke:none" id="rect3812-6" width="1" height="2" x="552.311" y="290.078" transform="matrix(0.89384905,0.44836801,-0.44836801,0.89384905,0,0)"/></g></svg>