<svg xmlns="http://www.w3.org/2000/svg" xmlns:svg="http://www.w3.org/2000/svg" id="svg2" width="16" height="16" version="1.1"><metadata id="metadata7"/><g id="layer1" transform="translate(-375,-501.36218)"><rect style="fill:#999;fill-opacity:1;stroke:none" id="rect2991-0" width="9" height="16" x="378" y="501.362"/><path style="fill:#1a1a1a;fill-opacity:1;stroke:none" id="path2993-9" d="m 362,506.36218 c 0,1.10457 -0.89543,2 -2,2 -1.10457,0 -2,-0.89543 -2,-2 0,-1.10457 0.89543,-2 2,-2 1.10457,0 2,0.89543 2,2 z" transform="matrix(1.25,0,0,1.75,-72.5,-376.77164)"/><path style="fill:#1a1a1a;fill-opacity:1;stroke:none" id="path2993-1-4" d="m 362,506.36218 c 0,1.10457 -0.89543,2 -2,2 -1.10457,0 -2,-0.89543 -2,-2 0,-1.10457 0.89543,-2 2,-2 1.10457,0 2,0.89543 2,2 z" transform="matrix(1.5,0,0,1.75,-152,-376.77164)"/><rect style="fill:#fff;fill-opacity:1;stroke:none" id="rect3808-8" width="1" height="2" x="382" y="515.362"/><rect style="fill:#fff;fill-opacity:1;stroke:none" id="rect3810-8" width="1" height="2" x="382" y="512.362"/><rect style="fill:#fff;fill-opacity:1;stroke:none" id="rect3814-4" width="1" height="2" x="382" y="506.362"/><rect style="fill:#fff;fill-opacity:1;stroke:none" id="rect3816-5" width="1" height="2" x="382" y="503.362"/><rect style="fill:#fff;fill-opacity:1;stroke:none" id="rect3818-5" width="1" height="1" x="382" y="501.362"/><rect style="fill:#fff;fill-opacity:1;stroke:none" id="rect3810-8-1" width="1" height="2" x="382" y="509.362"/><rect style="fill:green;fill-opacity:1;stroke:none" id="rect3905" width="3" height="16" x="375" y="501.362"/><rect style="fill:green;fill-opacity:1;stroke:none" id="rect3907" width="4" height="16" x="387" y="501.362"/></g></svg>