<svg xmlns="http://www.w3.org/2000/svg" xmlns:svg="http://www.w3.org/2000/svg" id="svg2" width="16" height="16" version="1.1"><metadata id="metadata7"/><g id="layer1" transform="translate(-395,-501.36218)"><rect style="fill:#999;fill-opacity:1;stroke:none" id="rect2991-0-7" width="9" height="16" x="398" y="501.362"/><rect style="fill:#fff;fill-opacity:1;stroke:none" id="rect3808-8-5" width="1" height="1" x="402" y="516.362"/><rect style="fill:#fff;fill-opacity:1;stroke:none" id="rect3818-5-1" width="1" height="1" x="402" y="501.362"/><rect style="fill:green;fill-opacity:1;stroke:none" id="rect3905-2" width="3" height="16" x="395" y="501.362"/><rect style="fill:green;fill-opacity:1;stroke:none" id="rect3907-3" width="4" height="16" x="407" y="501.362"/><path style="fill:#1a1a1a;fill-opacity:1;stroke:none" id="path2993-9-2" d="m 360,504.36218 c 1.10457,0 2,0.89543 2,2 0,1.10457 -0.89543,2 -2,2" transform="matrix(1.3991553,0,0,1.5000012,-101.69592,-250.18169)"/><path style="fill:#999;fill-opacity:1;stroke:none" id="path2993-9-2-2" d="m 361,504.63013 c 0.95659,0.55229 1.28434,1.77547 0.73205,2.73205 -0.17554,0.30404 -0.42801,0.55652 -0.73205,0.73205 l -1,-1.73205 z" transform="matrix(1.9999998,0,0,2.8867455,-314.99995,-952.37657)"/><rect style="fill:#fff;fill-opacity:1;stroke:none" id="rect3818-5-1-1" width="1" height="2" x="402" y="503.362"/><rect style="fill:#fff;fill-opacity:1;stroke:none" id="rect3818-5-1-8" width="1" height="2" x="402" y="513.362"/></g></svg>