<svg xmlns="http://www.w3.org/2000/svg" xmlns:cc="http://web.resource.org/cc/" xmlns:svg="http://www.w3.org/2000/svg" id="svg1307" width="64" height="64" version="1.0"><metadata id="metadata1312"/><g id="layer1"><g id="g6865"><rect id="rect2216" width="50.067" height="34" x="10.326" y="-1.361" transform="matrix(0.963141,0.268997,-0.268997,0.963141,0,0)" style="fill:#d99f9f;fill-opacity:1;stroke:#000;stroke-width:.93292624;stroke-linecap:butt;stroke-linejoin:miter;stroke-miterlimit:4;stroke-dasharray:none;stroke-opacity:1"/><rect id="rect2224" width="6" height="6" x="20.36" y=".605" transform="matrix(0.963141,0.268997,-0.268997,0.963141,0,0)" style="fill:none;fill-opacity:1;stroke:#b50023;stroke-width:1;stroke-linecap:butt;stroke-linejoin:miter;stroke-miterlimit:4;stroke-dasharray:none;stroke-opacity:1"/><rect id="rect2226" width="6" height="6" x="28.36" y=".605" transform="matrix(0.963141,0.268997,-0.268997,0.963141,0,0)" style="fill:none;fill-opacity:1;stroke:#b50023;stroke-width:1;stroke-linecap:butt;stroke-linejoin:miter;stroke-miterlimit:4;stroke-dasharray:none;stroke-opacity:1"/><rect id="rect2228" width="6" height="6" x="36.36" y=".605" transform="matrix(0.963141,0.268997,-0.268997,0.963141,0,0)" style="fill:none;fill-opacity:1;stroke:#b50023;stroke-width:1;stroke-linecap:butt;stroke-linejoin:miter;stroke-miterlimit:4;stroke-dasharray:none;stroke-opacity:1"/><rect id="rect2235" width="6" height="6" x="44.36" y=".605" transform="matrix(0.963141,0.268997,-0.268997,0.963141,0,0)" style="fill:none;fill-opacity:1;stroke:#b50023;stroke-width:1;stroke-linecap:butt;stroke-linejoin:miter;stroke-miterlimit:4;stroke-dasharray:none;stroke-opacity:1"/><rect id="rect2286" width="6" height="6" x="12.36" y=".605" transform="matrix(0.963141,0.268997,-0.268997,0.963141,0,0)" style="fill:none;fill-opacity:1;stroke:#b50023;stroke-width:1;stroke-linecap:butt;stroke-linejoin:miter;stroke-miterlimit:4;stroke-dasharray:none;stroke-opacity:1"/><rect id="rect2288" width="6" height="6" x="52.36" y=".605" transform="matrix(0.963141,0.268997,-0.268997,0.963141,0,0)" style="fill:none;fill-opacity:1;stroke:#b50023;stroke-width:1;stroke-linecap:butt;stroke-linejoin:miter;stroke-miterlimit:4;stroke-dasharray:none;stroke-opacity:1"/><rect id="rect2290" width="6" height="6" x="20.36" y="8.605" transform="matrix(0.963141,0.268997,-0.268997,0.963141,0,0)" style="fill:none;fill-opacity:1;stroke:#b50023;stroke-width:1;stroke-linecap:butt;stroke-linejoin:miter;stroke-miterlimit:4;stroke-dasharray:none;stroke-opacity:1"/><rect id="rect2292" width="6" height="6" x="28.36" y="8.605" transform="matrix(0.963141,0.268997,-0.268997,0.963141,0,0)" style="fill:none;fill-opacity:1;stroke:#b50023;stroke-width:1;stroke-linecap:butt;stroke-linejoin:miter;stroke-miterlimit:4;stroke-dasharray:none;stroke-opacity:1"/><rect id="rect2294" width="6" height="6" x="36.36" y="8.605" transform="matrix(0.963141,0.268997,-0.268997,0.963141,0,0)" style="fill:none;fill-opacity:1;stroke:#b50023;stroke-width:1;stroke-linecap:butt;stroke-linejoin:miter;stroke-miterlimit:4;stroke-dasharray:none;stroke-opacity:1"/><rect id="rect2296" width="6" height="6" x="44.36" y="8.605" transform="matrix(0.963141,0.268997,-0.268997,0.963141,0,0)" style="fill:none;fill-opacity:1;stroke:#b50023;stroke-width:1;stroke-linecap:butt;stroke-linejoin:miter;stroke-miterlimit:4;stroke-dasharray:none;stroke-opacity:1"/><rect id="rect2298" width="6" height="6" x="12.36" y="8.605" transform="matrix(0.963141,0.268997,-0.268997,0.963141,0,0)" style="fill:none;fill-opacity:1;stroke:#b50023;stroke-width:1;stroke-linecap:butt;stroke-linejoin:miter;stroke-miterlimit:4;stroke-dasharray:none;stroke-opacity:1"/><rect id="rect2300" width="6" height="6" x="52.36" y="8.605" transform="matrix(0.963141,0.268997,-0.268997,0.963141,0,0)" style="fill:none;fill-opacity:1;stroke:#b50023;stroke-width:1;stroke-linecap:butt;stroke-linejoin:miter;stroke-miterlimit:4;stroke-dasharray:none;stroke-opacity:1"/><rect id="rect2302" width="6" height="6" x="20.36" y="16.605" transform="matrix(0.963141,0.268997,-0.268997,0.963141,0,0)" style="fill:none;fill-opacity:1;stroke:#b50023;stroke-width:1;stroke-linecap:butt;stroke-linejoin:miter;stroke-miterlimit:4;stroke-dasharray:none;stroke-opacity:1"/><rect id="rect2304" width="6" height="6" x="28.36" y="16.605" transform="matrix(0.963141,0.268997,-0.268997,0.963141,0,0)" style="fill:none;fill-opacity:1;stroke:#b50023;stroke-width:1;stroke-linecap:butt;stroke-linejoin:miter;stroke-miterlimit:4;stroke-dasharray:none;stroke-opacity:1"/><rect id="rect2306" width="6" height="6" x="36.36" y="16.605" transform="matrix(0.963141,0.268997,-0.268997,0.963141,0,0)" style="fill:none;fill-opacity:1;stroke:#b50023;stroke-width:1;stroke-linecap:butt;stroke-linejoin:miter;stroke-miterlimit:4;stroke-dasharray:none;stroke-opacity:1"/><rect id="rect2308" width="6" height="6" x="44.36" y="16.605" transform="matrix(0.963141,0.268997,-0.268997,0.963141,0,0)" style="fill:none;fill-opacity:1;stroke:#b50023;stroke-width:1;stroke-linecap:butt;stroke-linejoin:miter;stroke-miterlimit:4;stroke-dasharray:none;stroke-opacity:1"/><rect id="rect2310" width="6" height="6" x="12.36" y="16.605" transform="matrix(0.963141,0.268997,-0.268997,0.963141,0,0)" style="fill:none;fill-opacity:1;stroke:#b50023;stroke-width:1;stroke-linecap:butt;stroke-linejoin:miter;stroke-miterlimit:4;stroke-dasharray:none;stroke-opacity:1"/><rect id="rect2312" width="6" height="6" x="52.36" y="16.605" transform="matrix(0.963141,0.268997,-0.268997,0.963141,0,0)" style="fill:none;fill-opacity:1;stroke:#b50023;stroke-width:1;stroke-linecap:butt;stroke-linejoin:miter;stroke-miterlimit:4;stroke-dasharray:none;stroke-opacity:1"/><rect id="rect2314" width="6" height="6" x="20.36" y="24.605" transform="matrix(0.963141,0.268997,-0.268997,0.963141,0,0)" style="fill:none;fill-opacity:1;stroke:#b50023;stroke-width:1;stroke-linecap:butt;stroke-linejoin:miter;stroke-miterlimit:4;stroke-dasharray:none;stroke-opacity:1"/><rect id="rect2316" width="6" height="6" x="28.36" y="24.605" transform="matrix(0.963141,0.268997,-0.268997,0.963141,0,0)" style="fill:none;fill-opacity:1;stroke:#b50023;stroke-width:1;stroke-linecap:butt;stroke-linejoin:miter;stroke-miterlimit:4;stroke-dasharray:none;stroke-opacity:1"/><rect id="rect2318" width="6" height="6" x="36.36" y="24.605" transform="matrix(0.963141,0.268997,-0.268997,0.963141,0,0)" style="fill:none;fill-opacity:1;stroke:#b50023;stroke-width:1;stroke-linecap:butt;stroke-linejoin:miter;stroke-miterlimit:4;stroke-dasharray:none;stroke-opacity:1"/><rect id="rect2320" width="6" height="6" x="44.36" y="24.605" transform="matrix(0.963141,0.268997,-0.268997,0.963141,0,0)" style="fill:none;fill-opacity:1;stroke:#b50023;stroke-width:1;stroke-linecap:butt;stroke-linejoin:miter;stroke-miterlimit:4;stroke-dasharray:none;stroke-opacity:1"/><rect id="rect2322" width="6" height="6" x="12.36" y="24.605" transform="matrix(0.963141,0.268997,-0.268997,0.963141,0,0)" style="fill:none;fill-opacity:1;stroke:#b50023;stroke-width:1;stroke-linecap:butt;stroke-linejoin:miter;stroke-miterlimit:4;stroke-dasharray:none;stroke-opacity:1"/><rect id="rect2324" width="6" height="6" x="52.36" y="24.605" transform="matrix(0.963141,0.268997,-0.268997,0.963141,0,0)" style="fill:none;fill-opacity:1;stroke:#b50023;stroke-width:1;stroke-linecap:butt;stroke-linejoin:miter;stroke-miterlimit:4;stroke-dasharray:none;stroke-opacity:1"/><path id="path4082" d="M 11.394423,3.291391 C 13.19723,7.6344064 14.111461,10.595961 15.865574,13.305076 C 16.073049,13.625509 16.407577,13.842783 16.678578,14.111636" style="fill:none;fill-opacity:.75;fill-rule:evenodd;stroke:#000;stroke-width:1px;stroke-linecap:butt;stroke-linejoin:miter;stroke-opacity:1"/><path id="path4084" d="M 16.904272,5.868514 C 17.309376,6.4941709 15.445697,6.1804209 14.708993,6.293661 C 12.874321,6.5756717 11.899317,9.161173 10.609804,9.8182242" style="fill:none;fill-opacity:.75;fill-rule:evenodd;stroke:#000;stroke-width:1px;stroke-linecap:butt;stroke-linejoin:miter;stroke-opacity:1"/></g><g id="g6894" transform="translate(-0.163838,-37.41383)"><g id="g4137" transform="matrix(1.310345,0,0,1.310345,-27.2672,12.59487)"><path style="fill:#fff;fill-opacity:1;stroke:#000;stroke-width:.76315778;stroke-linecap:butt;stroke-linejoin:miter;stroke-miterlimit:4;stroke-dasharray:none;stroke-opacity:1" id="path1315" d="M 26.516505 30.85437 A 6.805903 6.805903 0 1 1 12.904699,30.85437 A 6.805903 6.805903 0 1 1 26.516505 30.85437 z" transform="translate(33.5953,16.45153)"/><text style="font-size:6px;font-style:normal;font-variant:normal;font-weight:400;font-stretch:normal;text-align:start;line-height:125%;writing-mode:lr-tb;text-anchor:start;fill:#000;fill-opacity:1;stroke:none;stroke-width:1px;stroke-linecap:butt;stroke-linejoin:miter;stroke-opacity:1;font-family:Bitstream Vera Sans" id="text2212" x="49.561" y="49.453" xml:space="preserve"><tspan id="tspan2214" x="49.561" y="49.453">23</tspan></text></g><g id="g4127" transform="matrix(1.310345,0,0,1.310345,-0.646509,6.456979)"><path style="font-size:8px;font-style:normal;font-variant:normal;font-weight:400;font-stretch:normal;text-align:center;line-height:100%;writing-mode:lr-tb;text-anchor:middle;fill:#fff;fill-opacity:1;stroke:#000;stroke-width:.76315778;stroke-linecap:butt;stroke-linejoin:miter;stroke-miterlimit:4;stroke-dasharray:none;stroke-opacity:1;font-family:Bitstream Vera Sans" id="path2202" d="M 26.516505 30.85437 A 6.805903 6.805903 0 1 1 12.904699,30.85437 A 6.805903 6.805903 0 1 1 26.516505 30.85437 z" transform="translate(2.595301,21.45153)"/><text style="font-size:4.94748735px;font-style:normal;font-variant:normal;font-weight:400;font-stretch:normal;text-align:center;line-height:100%;writing-mode:lr-tb;text-anchor:middle;fill:#000;fill-opacity:1;stroke:none;stroke-width:1px;stroke-linecap:butt;stroke-linejoin:miter;stroke-opacity:1;font-family:Bitstream Vera Sans" id="text2204" x="39.434" y="58.445" transform="matrix(1.143483,0.274659,-0.403949,0.777495,0,0)" xml:space="preserve"><tspan id="tspan2206" x="39.434" y="58.445">12</tspan></text></g><g id="g4132" transform="matrix(1.310345,0,0,1.310345,4.353479,2.465499)"><path style="fill:#fff;fill-opacity:1;stroke:#000;stroke-width:.76315778;stroke-linecap:butt;stroke-linejoin:miter;stroke-miterlimit:4;stroke-dasharray:none;stroke-opacity:1" id="path2198" d="M 26.516505 30.85437 A 6.805903 6.805903 0 1 1 12.904699,30.85437 A 6.805903 6.805903 0 1 1 26.516505 30.85437 z" transform="translate(17.9835,18.83973)"/><text style="font-size:5.03230143px;font-style:normal;font-variant:normal;font-weight:400;font-stretch:normal;text-align:start;line-height:125%;writing-mode:lr-tb;text-anchor:start;fill:#000;fill-opacity:1;stroke:none;stroke-width:1px;stroke-linecap:butt;stroke-linejoin:miter;stroke-opacity:1;font-family:Bitstream Vera Sans" id="text2208" x="45.062" y="43.613" transform="scale(0.838717,1.192297)" xml:space="preserve"><tspan id="tspan2210" x="45.062" y="43.613">42</tspan></text></g></g></g></svg>