<svg xmlns="http://www.w3.org/2000/svg" xmlns:svg="http://www.w3.org/2000/svg" id="svg2" width="10" height="16" version="1.1"><metadata id="metadata7"/><g id="layer1" transform="translate(-235,-496.36218)"><path style="fill:red;fill-opacity:1;stroke:none" id="path2989" d="m 241,500.36218 c 0,1.65686 -1.34315,3 -3,3 -1.65685,0 -3,-1.34314 -3,-3 0,-1.65685 1.34315,-3 3,-3 1.65685,0 3,1.34315 3,3 z" transform="matrix(1.6666667,0,0,1.5,-156.66667,-249.68109)"/><rect style="fill:#4d4d4d;fill-opacity:1;stroke:none" id="rect2987" width="10" height="12" x="235" y="500.362" rx="0" ry="0"/><rect style="fill:#b3b3b3;fill-opacity:1;stroke:none" id="rect2991-9" width="1.018" height="6.135" x="-7.765" y="-564.498" transform="matrix(-0.90519741,0.42499136,-0.42025266,-0.90740713,0,0)"/><rect style="fill:#b3b3b3;fill-opacity:1;stroke:none" id="rect2991-0-4" width="1.018" height="6.135" x="-3.178" y="-562.35" transform="matrix(-0.9051974,0.42499137,-0.42025265,-0.90740713,0,0)"/><rect style="fill:#b3b3b3;fill-opacity:1;stroke:none" id="rect2991-9-1" width="1.018" height="6.135" x="-435.212" y="-360.637" transform="matrix(-0.90741195,-0.42024226,0.42498099,-0.90520228,0,0)"/><rect style="fill:#b3b3b3;fill-opacity:1;stroke:none" id="rect2991-0-4-7" width="1.018" height="6.135" x="-430.664" y="-362.748" transform="matrix(-0.90741195,-0.42024225,0.424981,-0.90520227,0,0)"/></g></svg>