<svg xmlns="http://www.w3.org/2000/svg" xmlns:svg="http://www.w3.org/2000/svg" id="svg3850" width="10" height="16" version="1.1"><metadata id="metadata3855"/><g id="layer1" transform="translate(2,-1036.3622)"><rect style="fill:#000;fill-opacity:1;stroke:none" id="rect3804" width="10" height="16" x="-2" y="1036.362" ry="2"/><path style="fill:#fff;fill-opacity:.70588235;stroke:#fff;stroke-width:.2;stroke-miterlimit:4;stroke-opacity:.56078419;stroke-dasharray:none" id="path3024" d="m 640,709.36218 c 0,1.10457 -0.89543,2 -2,2 -1.10457,0 -2,-0.89543 -2,-2 0,-1.10457 0.89543,-2 2,-2 1.10457,0 2,0.89543 2,2 z" transform="matrix(1.0952381,0,0,1.0952381,-695.7619,262.44171)"/><path style="fill:#fff;fill-opacity:.70744683;stroke:#fff;stroke-width:.2;stroke-linecap:square;stroke-linejoin:miter;stroke-miterlimit:4;stroke-opacity:.56078419;stroke-dasharray:none" id="path3796" d="m 640,714.36218 c 0,1.10457 -0.89543,2 -2,2 -1.10457,0 -2,-0.89543 -2,-2 0,-1.10457 0.89543,-2 2,-2 1.10457,0 2,0.89543 2,2 z" transform="matrix(1.0952381,0,0,1.0952381,-695.7619,261.96552)"/><path style="fill:red;fill-opacity:1;stroke:#b20505;stroke-width:.2;stroke-linecap:square;stroke-linejoin:miter;stroke-miterlimit:4;stroke-opacity:1;stroke-dasharray:none" id="path3798" d="m 640,719.36218 c 0,1.10457 -0.89543,2 -2,2 -1.10457,0 -2,-0.89543 -2,-2 0,-1.10457 0.89543,-2 2,-2 1.10457,0 2,0.89543 2,2 z" transform="matrix(1.0952381,0,0,1.0952381,-695.76189,261.48934)"/></g></svg>