<svg xmlns="http://www.w3.org/2000/svg" xmlns:svg="http://www.w3.org/2000/svg" id="svg2" width="11" height="16" version="1.1"><metadata id="metadata7"/><g id="layer1" transform="translate(-337,-566.36218)"><rect style="fill:#c8b7b7;fill-opacity:1;stroke:none" id="rect2989-3" width="9" height="6" x="338" y="567.362"/><rect style="fill:#ccc;fill-opacity:1;stroke:none" id="rect2991-1" width="1" height="8" x="342" y="574.362"/><rect style="fill:#fff;fill-opacity:1;stroke:none" id="rect2993-2" width="1" height="1" x="337" y="567.362"/><rect style="fill:#fff;fill-opacity:1;stroke:none" id="rect2995-3" width="1" height="1" x="337" y="571.362"/><rect style="fill:#fff;fill-opacity:1;stroke:none" id="rect2997-3" width="1" height="1" x="339" y="573.362"/><rect style="fill:#fff;fill-opacity:1;stroke:none" id="rect2999-4" width="1" height="1" x="343" y="573.362"/><rect style="fill:#fff;fill-opacity:1;stroke:none" id="rect3001-1" width="1" height="1" x="345" y="573.362"/><rect style="fill:#fff;fill-opacity:1;stroke:none" id="rect3003-1" width="1" height="1" x="347" y="571.362"/><rect style="fill:#fff;fill-opacity:1;stroke:none" id="rect3009-3" width="1" height="1" x="347" y="567.362"/><rect style="fill:#fff;fill-opacity:1;stroke:none" id="rect3011-8" width="1" height="1" x="344" y="566.362"/><rect style="fill:#fff;fill-opacity:1;stroke:none" id="rect3013-7" width="1" height="1" x="340" y="566.362"/><rect style="fill:red;fill-opacity:1;stroke:none" id="rect3015-4" width="1" height="1" x="337" y="568.362"/><rect style="fill:red;fill-opacity:1;stroke:none" id="rect3017-2" width="1" height="1" x="337" y="572.362"/><rect style="fill:red;fill-opacity:1;stroke:none" id="rect3019-7" width="1" height="1" x="340" y="573.362"/><rect style="fill:red;fill-opacity:1;stroke:none" id="rect3021-7" width="1" height="1" x="344" y="573.362"/><rect style="fill:red;fill-opacity:1;stroke:none" id="rect3023-9" width="1" height="1" x="346" y="573.362"/><rect style="fill:red;fill-opacity:1;stroke:none" id="rect3025-3" width="1" height="1" x="347" y="568.362"/><rect style="fill:red;fill-opacity:1;stroke:none" id="rect3027-1" width="1" height="1" x="347" y="566.362"/><rect style="fill:red;fill-opacity:1;stroke:none" id="rect3029-9" width="1" height="1" x="343" y="566.362"/><rect style="fill:red;fill-opacity:1;stroke:none" id="rect3031-8" width="1" height="1" x="339" y="566.362"/><rect style="fill:#fff;fill-opacity:1;stroke:none" id="rect3968" width="1" height="1" x="337" y="573.362"/><rect style="fill:#fff;fill-opacity:1;stroke:none" id="rect3970" width="1" height="1" x="341" y="573.362"/><rect style="fill:#fff;fill-opacity:1;stroke:none" id="rect3972" width="1" height="1" x="347" y="573.362"/><rect style="fill:#fff;fill-opacity:1;stroke:none" id="rect3974" width="1" height="1" x="347" y="569.362"/><rect style="fill:#fff;fill-opacity:1;stroke:none" id="rect3976" width="1" height="1" x="346" y="566.362"/><rect style="fill:#fff;fill-opacity:1;stroke:none" id="rect3978" width="1" height="1" x="342" y="566.362"/><rect style="fill:#fff;fill-opacity:1;stroke:none" id="rect3980" width="1" height="1" x="338" y="566.362"/><rect style="fill:#fff;fill-opacity:1;stroke:none" id="rect3982" width="1" height="1" x="337" y="569.362"/><rect style="fill:red;fill-opacity:1;stroke:none" id="rect3984" width="1" height="1" x="337" y="570.362"/><rect style="fill:red;fill-opacity:1;stroke:none" id="rect3986" width="1" height="1" x="338" y="573.362"/><rect style="fill:red;fill-opacity:1;stroke:none" id="rect3988" width="1" height="1" x="342" y="573.362"/><rect style="fill:red;fill-opacity:1;stroke:none" id="rect3990" width="1" height="1" x="347" y="572.362"/><rect style="fill:red;fill-opacity:1;stroke:none" id="rect3992" width="1" height="1" x="347" y="570.362"/><rect style="fill:red;fill-opacity:1;stroke:none" id="rect3994" width="1" height="1" x="345" y="566.362"/><rect style="fill:red;fill-opacity:1;stroke:none" id="rect3996" width="1" height="1" x="341" y="566.362"/><rect style="fill:red;fill-opacity:1;stroke:none" id="rect3998" width="1" height="1" x="337" y="566.362"/></g></svg>