<svg xmlns="http://www.w3.org/2000/svg" xmlns:svg="http://www.w3.org/2000/svg" xmlns:xlink="http://www.w3.org/1999/xlink" id="svg2" width="101.976" height="101.976" version="1.1"><defs id="defs4"><filter id="filter5685" width="1.459" height="2.675" x="-.229" y="-.838" color-interpolation-filters="sRGB"><feGaussianBlur id="feGaussianBlur5687" stdDeviation="2.292"/></filter><filter id="filter5347" color-interpolation-filters="sRGB"><feGaussianBlur id="feGaussianBlur5349" stdDeviation=".6"/></filter><filter id="filter5347-1" color-interpolation-filters="sRGB"><feGaussianBlur id="feGaussianBlur5349-7" stdDeviation=".6"/></filter><filter id="filter5347-4" color-interpolation-filters="sRGB"><feGaussianBlur id="feGaussianBlur5349-0" stdDeviation=".6"/></filter><linearGradient id="linearGradient5766" x1="135.737" x2="135.851" y1="786.595" y2="796.065" gradientTransform="matrix(1.1811017,0,0,1.1811017,28.593093,-46.764246)" gradientUnits="userSpaceOnUse" xlink:href="#linearGradient5732"/><linearGradient id="linearGradient5732"><stop style="stop-color:#594f03;stop-opacity:1" id="stop5734" offset="0"/><stop style="stop-color:#c5ad09;stop-opacity:1" id="stop5736" offset="1"/></linearGradient><filter id="filter5347-9" color-interpolation-filters="sRGB"><feGaussianBlur id="feGaussianBlur5349-4" stdDeviation=".6"/></filter></defs><metadata id="metadata7"/><g id="layer1" transform="translate(-436.6305,-349.64159)"><g id="g3268" transform="translate(435.17774,348.18883)"><path id="path3270" d="m 22.429134,2.4448819 60.023622,0 c 11.055118,0 19.984254,8.9291341 19.984254,19.9842521 l 0,60.023622 c 0,11.055118 -8.929136,19.984254 -19.984254,19.984254 l -60.023622,0 c -11.055118,0 -19.9842521,-8.929136 -19.9842521,-19.984254 l 0,-60.023622 c 0,-11.055118 8.9291341,-19.9842521 19.9842521,-19.9842521 z" style="fill:#a8fa8b;fill-opacity:1;fill-rule:evenodd;stroke:#000;stroke-width:1.98425198px;stroke-linecap:round;stroke-linejoin:miter;stroke-miterlimit:4;stroke-opacity:1;stroke-dasharray:none"/><path id="path3272" d="m 10.062992,41.279527 86.173228,0 0,39.720473 -86.173228,0 z" style="fill:#06910e;fill-opacity:1;fill-rule:evenodd;stroke:#000;stroke-width:.92125982px;stroke-linecap:round;stroke-linejoin:miter;stroke-miterlimit:4;stroke-opacity:1;stroke-dasharray:none"/><path id="path3274" d="m 49.889764,25.688976 c 0,4.606299 -3.720473,8.326772 -8.326772,8.326772 -4.606299,0 -8.326772,-3.720473 -8.326772,-8.326772 0,-4.606299 3.720473,-8.362204 8.326772,-8.362204 4.606299,0 8.326772,3.755905 8.326772,8.362204 z" style="fill:#fff;fill-opacity:1;fill-rule:evenodd;stroke:#555;stroke-width:1.20472443px;stroke-linecap:butt;stroke-linejoin:miter;stroke-miterlimit:4;stroke-opacity:1;stroke-dasharray:none"/><path id="path3276" d="m 38.267716,38.161417 6.874016,0 0,23.385827 -3.57874,5.456693 -3.295276,-5.456693 z" style="fill:#c5ad09;fill-opacity:1;fill-rule:evenodd;stroke:none"/><path id="path3278" d="m 35.787401,33.590551 c 2.692914,3.082677 1.877953,2.161417 2.338583,4.712598 0.03543,0 0,0.03543 0,0.03543 l 0,23.31496 3.330709,5.492126 L 45,61.653543 l 0,-23.31496 0,-0.03543 c 0.496063,-2.374015 -0.141732,-1.594488 2.338582,-4.712598 l -11.551181,0 z" style="fill:none;stroke:#000;stroke-width:.49606299px;stroke-linecap:butt;stroke-linejoin:miter;stroke-miterlimit:4;stroke-opacity:1;stroke-dasharray:none"/></g></g></svg>