<svg xmlns="http://www.w3.org/2000/svg" xmlns:cc="http://web.resource.org/cc/" xmlns:xlink="http://www.w3.org/1999/xlink" id="svg1328" width="48" height="48"><defs id="defs1330"><linearGradient id="linearGradient2781"><stop id="stop2783" offset="0"/><stop id="stop2785" offset="1" stop-opacity="0"/></linearGradient><linearGradient id="linearGradient2780" x1="8.177" x2="8.177" y1="5.858" y2="15.677" gradientTransform="matrix(3.1372 0 0 3.1841 -1.6067 -4.8611)" gradientUnits="userSpaceOnUse"><stop id="stop5108" offset="0" stop-color="#729fcf"/><stop id="stop5110" offset="1" stop-color="#386ea6"/></linearGradient><linearGradient id="linearGradient2788" x1="26.062" x2="29.031" y1="23.266" y2="55.266" gradientUnits="userSpaceOnUse"><stop id="stop2784" offset="0" stop-color="#fff"/><stop id="stop2786" offset="1" stop-color="#fff" stop-opacity="0"/></linearGradient><radialGradient id="radialGradient2827" cx="1" cy="44" r="5" gradientTransform="matrix(2 0 0 .8 -13 -79.2)" gradientUnits="userSpaceOnUse" xlink:href="#linearGradient2781"/><radialGradient id="radialGradient2829" cx="1" cy="44" r="5" gradientTransform="matrix(2 0 0 .8 36 8.8)" gradientUnits="userSpaceOnUse" xlink:href="#linearGradient2781"/><linearGradient id="linearGradient2831" x1="21.875" x2="21.875" y1="48.001" y2="40" gradientUnits="userSpaceOnUse"><stop id="stop2806" offset="0" stop-opacity="0"/><stop id="stop2812" offset=".5"/><stop id="stop2808" offset="1" stop-opacity="0"/></linearGradient></defs><metadata id="metadata1333"/><g id="layer1"><g id="g2822" opacity=".3" transform="matrix(1 0 0 1.0374 0 -1.6486)"><rect id="rect1892" width="10" height="8" x="-11" y="-48" fill="url(#radialGradient2827)" opacity="1" transform="scale(-1)" style="color:#000"/><rect id="rect2789" width="10" height="8" x="38" y="40" fill="url(#radialGradient2829)" opacity="1" style="color:#000"/><rect id="rect2793" width="27" height="8" x="11" y="40" fill="url(#linearGradient2831)" opacity="1" style="color:#000"/></g><path id="rect5117" fill="url(#linearGradient2780)" stroke="#204a87" d="m24.046 1.5072l-22.828 24.069h5.2682l0.0625 18.979 35.998-0.062-0.148-19.024 4.476 0.044-9.334-9.829 0.009-12.151-7.044-0.0095 0.031 4.6635-6.491-6.6798z" style="color:#000"/><path id="path2778" fill="none" stroke="url(#linearGradient2788)" d="m24.031 3.0312l-20.344 21.469h2.813c0.282-0.001 0.5527 0.111 0.7522 0.31 0.1994 0.2 0.3111 0.47 0.3103 0.752l0.0625 17.938 33.844-0.062-0.125-17.969c-0.001-0.282 0.111-0.553 0.31-0.752 0.2-0.2 0.47-0.312 0.752-0.311h1.969l-7.625-8c-0.181-0.195-0.281-0.452-0.281-0.718l0.031-11.094-4.938-0.0002 0.032 3.5937c0.002 0.4303-0.257 0.8191-0.655 0.9836-0.397 0.1645-0.855 0.0722-1.158-0.2336l-5.75-5.9063z" opacity=".412" style="color:#000"/></g></svg>