<svg xmlns="http://www.w3.org/2000/svg" xmlns:cc="http://web.resource.org/cc/" xmlns:svg="http://www.w3.org/2000/svg" id="svg2" width="320" height="320" version="1.0"><metadata id="metadata7"/><g id="layer1" transform="translate(-231.42857,-429.50504)"><rect style="opacity:1;fill:#55d400;fill-opacity:1;stroke:none;stroke-width:10.07386494;stroke-linecap:round;stroke-miterlimit:4;stroke-dasharray:40.29545975,10.07386494;stroke-dashoffset:0;stroke-opacity:1" id="rect2162" width="320" height="320" x="231.429" y="429.505" ry="0"/><path style="opacity:1;fill:#ffe680;fill-opacity:1;stroke:none;stroke-width:10.07386494;stroke-linecap:round;stroke-miterlimit:4;stroke-dasharray:40.29545975,10.07386494;stroke-dashoffset:0;stroke-opacity:1" id="path2166" d="M 514.2857 589.50507 A 82.85714 62.857143 0 1 1 348.57142,589.50507 A 82.85714 62.857143 0 1 1 514.2857 589.50507 z" transform="matrix(0.9655172,0,0,1.409091,14.876847,-281.16117)"/><path style="opacity:1;fill:#ffe680;fill-opacity:1;stroke:none;stroke-width:10.07386494;stroke-linecap:round;stroke-miterlimit:4;stroke-dasharray:40.29545975,10.07386494;stroke-dashoffset:0;stroke-opacity:1" id="path2168" d="M 434.28573 622.36218 A 75.714287 90 0 1 1 282.85715,622.36218 A 75.714287 90 0 1 1 434.28573 622.36218 z" transform="matrix(1.1132075,0,0,1.3492063,-46.307278,-231.61854)"/><path style="opacity:1;fill:#000;fill-opacity:1;stroke:none;stroke-width:10.07386494;stroke-linecap:round;stroke-miterlimit:4;stroke-dasharray:40.29545975,10.07386494;stroke-dashoffset:0;stroke-opacity:1" id="path2172" d="M 491.42859 530.93359 A 32.857143 32.857143 0 1 1 425.7143,530.93359 A 32.857143 32.857143 0 1 1 491.42859 530.93359 z" transform="matrix(0.826087,0,0,0.826087,71.180125,83.764847)"/><path style="opacity:1;fill:#000;fill-opacity:1;stroke:none;stroke-width:10.07386494;stroke-linecap:round;stroke-miterlimit:4;stroke-dasharray:40.29545975,10.07386494;stroke-dashoffset:0;stroke-opacity:1" id="path2176" d="M 417.14287 595.2193 A 11.428572 11.428572 0 1 1 394.28572,595.2193 A 11.428572 11.428572 0 1 1 417.14287 595.2193 z"/><path id="path2178" d="M 417.14287 595.2193 A 11.428572 11.428572 0 1 1 394.28572,595.2193 A 11.428572 11.428572 0 1 1 417.14287 595.2193 z" transform="translate(-17.142857,-37.142857)" style="opacity:1;fill:#000;fill-opacity:1;stroke:none;stroke-width:10.07386494;stroke-linecap:round;stroke-miterlimit:4;stroke-dasharray:40.29545975,10.07386494;stroke-dashoffset:0;stroke-opacity:1"/><g id="g2184" transform="matrix(1.0909091,0,0,0.9482759,-30.909089,32.954691)"><rect id="rect2180" width="20" height="165.714" x="330" y="526.648" ry="12.34" style="opacity:1;fill:#000;fill-opacity:1;stroke:none;stroke-width:10.07386494;stroke-linecap:round;stroke-miterlimit:4;stroke-dasharray:40.29545975,10.07386494;stroke-dashoffset:0;stroke-opacity:1"/><rect id="rect2182" width="62.857" height="22.857" x="308.571" y="632.362" ry="10" style="opacity:1;fill:#000;fill-opacity:1;stroke:none;stroke-width:10.07386494;stroke-linecap:round;stroke-miterlimit:4;stroke-dasharray:40.29545975,10.07386494;stroke-dashoffset:0;stroke-opacity:1"/></g></g></svg>