<svg xmlns="http://www.w3.org/2000/svg" xmlns:xlink="http://www.w3.org/1999/xlink" id="svg1" width="60" height="60" x="0" y="0" version="1.0"><metadata><rdf:RDF xmlns:cc="http://web.resource.org/cc/" xmlns:dc="http://purl.org/dc/elements/1.1/" xmlns:rdf="http://www.w3.org/1999/02/22-rdf-syntax-ns#"><cc:Work><dc:title>Part of the Flat Icon Collection (Wed Aug 25 23:23:49 2004)</dc:title><dc:description/><dc:subject><rdf:Bag><rdf:li>hash</rdf:li><rdf:li/><rdf:li>application</rdf:li><rdf:li>computer</rdf:li><rdf:li>icons</rdf:li><rdf:li>theme</rdf:li></rdf:Bag></dc:subject><dc:publisher><cc:Agent rdf:about="http://www.openclipart.org"><dc:title>Danny Allen</dc:title></cc:Agent></dc:publisher><dc:creator><cc:Agent><dc:title>Danny Allen</dc:title></cc:Agent></dc:creator><dc:rights><cc:Agent><dc:title>Danny Allen</dc:title></cc:Agent></dc:rights><dc:date/><dc:format>image/svg+xml</dc:format><dc:type rdf:resource="http://purl.org/dc/dcmitype/StillImage"/><cc:license rdf:resource="http://web.resource.org/cc/PublicDomain"/><dc:language>en</dc:language></cc:Work><cc:License rdf:about="http://web.resource.org/cc/PublicDomain"><cc:permits rdf:resource="http://web.resource.org/cc/Reproduction"/><cc:permits rdf:resource="http://web.resource.org/cc/Distribution"/><cc:permits rdf:resource="http://web.resource.org/cc/DerivativeWorks"/></cc:License></rdf:RDF></metadata><path id="path906" d="M 4.3727943,8.4361263 C 4.1636684,4.2536057 22.443885,17.601051 30.390675,3.5896070 C 36.405696,17.601051 53.308286,4.4627303 54.353915,8.4361263 C 56.236050,11.782142 45.792763,51.171074 29.849550,51.097836 C 12.694708,50.795948 1.4450304,11.782141 4.3727943,8.4361263 z" style="fill:#ccc;fill-rule:evenodd;stroke:#4c4c4c;stroke-width:2.8828011;stroke-linecap:round;stroke-linejoin:round;stroke-opacity:1"/><path id="path840" d="M 43.902772,48.302951 L 17.563890,21.964069 L 17.112363,17.707680 L 21.380954,18.274247 L 47.656215,44.549508 L 43.902772,48.302951 z" style="fill:#7f7f7f;fill-rule:evenodd;stroke:#333;stroke-width:1.8750006;stroke-linecap:round;stroke-linejoin:round"/><path id="path841" d="M 17.633530,18.331682 L 38.501051,39.199203" style="fill:none;fill-opacity:.75;fill-rule:evenodd;stroke:#b3b3b3;stroke-width:1.2500004;stroke-linecap:round;stroke-linejoin:round"/><path id="path842" d="M 43.902772,48.302951 L 17.563890,21.964069 L 17.112363,17.707680 L 21.380954,18.274247 L 47.656215,44.549508 L 43.902772,48.302951 z" style="fill:none;fill-rule:evenodd;stroke:#333;stroke-width:1.8750006;stroke-linecap:round;stroke-linejoin:round"/><path id="path843" d="M 45.393550,48.848029 C 48.192852,53.683187 50.355948,59.154549 54.936623,55.591801 C 58.626612,51.138367 52.773527,49.356994 48.192852,46.048728 L 45.393550,48.848029 z" style="fill:#4c4c4c;fill-rule:evenodd;stroke:#333;stroke-width:2.4250007;stroke-linecap:round;stroke-linejoin:round"/><rect id="rect844" width="8.884" height="3.998" x="-4.944" y="63.574" rx="1" transform="matrix(0.707107,-0.707107,0.707107,0.707107,0.000000,0.000000)" style="fill:#7f7f7f;fill-rule:evenodd;stroke:#333;stroke-width:1.8750006"/></svg>