<svg xmlns="http://www.w3.org/2000/svg" xmlns:svg="http://www.w3.org/2000/svg" id="svg2" width="160" height="90" version="1.1"><metadata id="metadata7"/><g id="layer1" transform="translate(0,-962.3622)"><path style="fill:#784421;fill-opacity:1;stroke:none" id="path3004" d="m 10,1052.3622 0,-65 -10,0 0,-25 10,0 0,10 10,0 0,-10 10,0 0,10 10,0 0,-10 10,0 0,25 -10,0 0,25 20,0 20,-30 20,30 20,0 0,-25 -10,0 0,-25 10,0 0,10 10,0 0,-10 10,0 0,10 10,0 0,-10 10,0 0,25 -10,0 0,65 z"/><path style="fill:#fff;fill-opacity:1;stroke:none" id="path3774" d="m 70,1052.3622 0,-20 10,-10 10,10 0,20 z"/></g></svg>