<svg xmlns="http://www.w3.org/2000/svg" xmlns:cc="http://web.resource.org/cc/" xmlns:svg="http://www.w3.org/2000/svg" id="svg2" width="171.429" height="365.714" version="1.0"><defs id="defs4"><marker id="ArrowEnd" markerHeight="3" markerUnits="strokeWidth" markerWidth="4" orient="auto" refX="0" refY="5" viewBox="0 0 10 10"><path id="path1512" d="M 0,0 L 10,5 L 0,10 L 0,0 z"/></marker><marker id="ArrowStart" markerHeight="3" markerUnits="strokeWidth" markerWidth="4" orient="auto" refX="10" refY="5" viewBox="0 0 10 10"><path id="path1515" d="M 10,0 L 0,5 L 10,10 L 10,0 z"/></marker></defs><metadata id="metadata7"/><g id="layer1" transform="translate(-282.85715,-220.93361)"><path style="fill:#999;fill-opacity:1;stroke:none;stroke-width:10;stroke-linecap:round;stroke-miterlimit:4;stroke-dashoffset:0;stroke-opacity:1" id="rect2160" d="M 283.53058,289.65994 L 369.24487,220.93361 L 454.95915,289.65994 L 454.95915,586.64788 L 283.53058,586.64788 L 283.53058,289.65994 z"/><path style="fill:#ffd42a;fill-rule:evenodd;stroke:#ffd42a;stroke-width:10.07386494;stroke-linecap:butt;stroke-linejoin:miter;stroke-miterlimit:4;stroke-dasharray:40.29545975,10.07386494;stroke-dashoffset:0;stroke-opacity:1" id="path3139" d="M 313.617,440.8657 L 424.87273,441.00105"/><g style="fill:#ffd42a;fill-opacity:1" id="g3293" transform="matrix(0.6686826,0,0,1.2524888,305.13693,289.76346)"><path id="path3295" d="M 95.872,81.671 C 118.422,81.671 136.706,63.387 136.706,40.835 C 136.706,18.284 118.422,0 95.872,0 C 73.319,0 55.038,18.284 55.038,40.835 C 55.038,63.387 73.319,81.671 95.872,81.671 z" style="fill:#ffd42a;fill-opacity:1;stroke:none"/><path id="path3297" style="fill:#ffd42a;fill-opacity:1;stroke:none"/></g><g style="fill:#000;fill-opacity:1" id="g2248" transform="matrix(0.3223502,0,0,0.6037843,338.34051,316.25363)"><path id="path2250" d="M 95.872,81.671 C 118.422,81.671 136.706,63.387 136.706,40.835 C 136.706,18.284 118.422,0 95.872,0 C 73.319,0 55.038,18.284 55.038,40.835 C 55.038,63.387 73.319,81.671 95.872,81.671 z" style="fill:#000;fill-opacity:1;stroke:none"/><path id="path2252" style="fill:#000;fill-opacity:1;stroke:none"/></g><path style="fill:#ffd42a;fill-rule:evenodd;stroke:#ffd42a;stroke-width:10.07386494;stroke-linecap:butt;stroke-linejoin:miter;stroke-miterlimit:4;stroke-dasharray:40.29545975,10.07386494;stroke-dashoffset:0;stroke-opacity:1" id="path3299" d="M 424.87273,483.54464 L 313.617,483.67999"/></g></svg>