<svg xmlns="http://www.w3.org/2000/svg" xmlns:svg="http://www.w3.org/2000/svg" id="svg2" width="100%" height="100%" version="1.1" viewBox="0 0 16 16"><metadata id="metadata8"/><rect id="canvas" width="16" height="16" x="0" y="0" style="fill:none;stroke:none;visibility:hidden"/><rect id="shield" width="16" height="16" x="0" y="0" rx="2" ry="2" style="fill:#fff;stroke:none"/><path id="museum" d="M 7,1 1,3 1,4 13,4 13,3 z m -6,4 0,1 1,0 0,5 -1,0 -1,2 14,0 -1,-2 -1,0 0,-5 1,0 0,-1 z M 5,6 C 5.497372,6 6,6.5325904 6,7 L 6,11 4,11 4,7 C 4,6.4726661 4.502628,6 5,6 z m 4,0 c 0.503364,0 1,0.4726661 1,1 l 0,4 -2,0 0,-4 C 8,6.4726661 8.496636,6 9,6 z" transform="translate(1,1)" style="fill:#734a08;fill-opacity:1"/></svg>