<svg xmlns="http://www.w3.org/2000/svg" xmlns:svg="http://www.w3.org/2000/svg" id="svg4264" width="16" height="16" version="1.1" viewBox="0 0 16 16"><metadata id="metadata4269"/><g id="layer1" transform="translate(0,-1036.3621)"><path id="XMLID_164_" d="M 4.4008639e-5,1048.734 C 1.9933876,1048.5426 10.335253,1046.9632 13.82955,1044.5055 c -3.270239,-1.7867 -7.8460909,-1.3191 -11.158955,-2.3481 -0.732418,-0.2338 -1.92431899,-1.0063 -0.791149,-1.7567 2.2628503,-1.0859 6.120555,-1.0386 7.2723277,-1.7347 1.4084223,-0.8512 -2.4742121,-1.9985 -3.7795367,-2.3039 0.8291485,0.1288 5.650922,0.7645 4.815971,2.2113 -0.8503911,1.4735 -4.9613089,1.7863 -6.992489,2.388 3.9192208,0.3495 14.684712,0.046 12.527055,4.5682 -1.505951,3.1563 -10.9486225,6.4727 -15.71927399,6.8325 z" class="st0" style="fill:#c87137"/></g></svg>