<svg xmlns="http://www.w3.org/2000/svg" xmlns:svg="http://www.w3.org/2000/svg" id="svg4264" width="16" height="16" version="1.1" viewBox="0 0 16 16"><metadata id="metadata4269"/><g id="layer1" transform="translate(0,-1036.3621)"><path style="fill:none;fill-opacity:1;fill-rule:evenodd;stroke:#fff;stroke-width:1.50000024;stroke-miterlimit:4;stroke-dasharray:none" id="path4173" d="m 10.134575,1039.558 2.104004,2.0626 c 0.45853,0.4108 -0.149351,0.9707 -0.520359,0.5993 l -1.583645,-1.5852 c 0,0 -0.0048,4.9292 -0.0094,6.8612 -0.0014,0.5918 -0.8840495,0.631 -0.8840495,-0.019 0,-0.5897 0.00187,-3.9202 0.00187,-3.9202 l -0.3133288,1.3193 -1.0985332,1.0692 c -0.4826779,0.4809 -1.1167814,-0.1368 -0.5744453,-0.6295 l 0.9008346,-0.8906 0.2704369,-1.6971 -0.00746,-1.4734 -0.8057155,1.3436 c -0.3019068,0.504 -0.9434561,0.047 -0.6248024,-0.4678 l 1.6897644,-2.7324 c 0.1234001,-0.1934 0.1749921,-0.2151 0.6646964,-0.2219 0.4897044,-0.01 0.5142236,0.1051 0.7901324,0.3819 z"/><path style="fill:none;fill-rule:evenodd;stroke:#fff;stroke-width:1.00000024;stroke-linecap:butt;stroke-linejoin:miter;stroke-miterlimit:4;stroke-dasharray:none;stroke-opacity:1" id="path4179" d="m -4.7683724e-7,1044.8646 3.50088317683724,0 0,2 4,0 0,2 3.9999993,0 0,2 3.99912,0 0,1.4975"/><ellipse style="opacity:1;fill:#0031ff;fill-opacity:1;stroke:#fff;stroke-width:.75000012;stroke-linecap:round;stroke-linejoin:round;stroke-miterlimit:4;stroke-dasharray:none;stroke-opacity:.98823529" id="path4137" cx="9.391" cy="1037.857" rx="1.111" ry="1.12"/><path id="path4140" d="m 10.134575,1039.558 2.104004,2.0626 c 0.45853,0.4108 -0.132466,0.953 -0.520359,0.5993 l -1.583645,-1.5852 c 0,0 -0.0048,4.9292 -0.0094,6.8612 -0.0014,0.5918 -0.8840495,0.631 -0.8840495,-0.019 0,-0.5897 0.00187,-3.9202 0.00187,-3.9202 l -0.3133288,1.3193 -1.0985332,1.0692 c -0.4826779,0.4809 -1.1167814,-0.1368 -0.5744453,-0.6295 l 0.9008346,-0.8906 0.2704369,-1.6971 -0.00746,-1.4734 -0.8057155,1.3436 c -0.3019068,0.504 -0.9434561,0.047 -0.6248024,-0.4678 l 1.6897644,-2.7324 c 0.1234001,-0.1934 0.1515267,-0.2152 0.6529638,-0.222 0.501437,-0.01 0.5259562,0.1052 0.801865,0.382 z" style="fill:#0031ff;fill-opacity:1;fill-rule:evenodd;stroke:none"/><path id="path4145" d="m -4.7683724e-7,1045.8621 2.50147647683724,0 0,2 4.0000001,0 0,2 4.0000009,0 0,2 4.498525,0" style="fill:none;fill-rule:evenodd;stroke:#333;stroke-width:1.00000024;stroke-linecap:butt;stroke-linejoin:miter;stroke-miterlimit:4;stroke-dasharray:none;stroke-opacity:1"/></g></svg>