<svg xmlns="http://www.w3.org/2000/svg" xmlns:svg="http://www.w3.org/2000/svg" id="svg4264" width="16" height="16" version="1.1" viewBox="0 0 16 16"><metadata id="metadata4269"/><g id="layer1" transform="translate(0,-1036.3621)"><path id="path243" d="m -4.7683724e-7,1052.3621 7.00000127683724,0 0,-16 -7.00000127683724,0 0,16 z" style="fill:#00f;fill-opacity:1;fill-rule:nonzero;stroke:none"/><path style="fill:#00f;fill-opacity:1" id="XMLID_61_" d="m 7.9999995,1036.3621 0,16 7.0000005,0 0,-3 1,0 0,-9 -1,0 0,-4 -7.0000005,0 z"/><path style="fill:#fff;fill-opacity:1" id="path3387-0" d="m 4.0000027,1039.3621 -1.000003,0 0,-2 1.000003,0 z" class="st5"/><path style="fill:#fff;fill-opacity:1" id="path3387-0-9" d="m 4.0000057,1043.3621 -1.000003,0 0,-2 1.000003,0 z" class="st5"/><path style="fill:#fff;fill-opacity:1" id="path3387-0-9-8" d="m 4.0000033,1047.3621 -1.0000032,0 0,-2 1.0000032,0 z" class="st5"/><path style="fill:#fff;fill-opacity:1" id="path3387-0-9-6" d="m 4.0000033,1051.3621 -1.0000032,0 0,-2 1.0000032,0 z" class="st5"/><path style="fill:#fff;fill-opacity:1" id="path3387-0-6" d="m 11.999999,1039.3621 -1.000003,0 0,-2 1.000003,0 z" class="st5"/><path style="fill:#fff;fill-opacity:1" id="path3387-0-9-7" d="m 12.000002,1043.3621 -1.000003,0 0,-2 1.000003,0 z" class="st5"/><path style="fill:#fff;fill-opacity:1" id="path3387-0-9-8-5" d="m 11.999999,1047.3621 -1.000003,0 0,-2 1.000003,0 z" class="st5"/><path style="fill:#fff;fill-opacity:1" id="path3387-0-9-6-9" d="m 11.999999,1051.3621 -1.000003,0 0,-2 1.000003,0 z" class="st5"/><path style="fill:#fff;fill-opacity:1" id="path3387-0-9-7-0" d="m 12.000002,1045.3621 0,-1 2,0 0,1 z" class="st5"/><path style="fill:#fff;fill-opacity:1" id="path3387-0-9-7-0-6" d="m 15.000002,1045.3621 0,-1 1,0 0,1 z" class="st5"/></g></svg>