<svg xmlns="http://www.w3.org/2000/svg" xmlns:svg="http://www.w3.org/2000/svg" id="svg4264" width="16" height="16" version="1.1" viewBox="0 0 16 16"><metadata id="metadata4269"/><g id="layer1" transform="translate(0,-1036.3621)"><path style="fill:#ff2a2a;fill-opacity:1" id="XMLID_61_-5" d="m 16,1040.3621 0,8.9999 -6.999998,0 0,-8.9999 z m -15.999949545768,-4.0016 8.999941545768,0 0,15.9984 -8.999941545768,0 z"/><path style="fill:#fff;fill-opacity:1" id="path3387-0" d="m 5.0000006,1039.3621 -1.000003,0 0,-2 1.000003,0 z" class="st5"/><path style="fill:#fff;fill-opacity:1" id="path3387-0-9" d="m 5.0000036,1043.3621 -1.0000031,0 0,-2 1.0000031,0 z" class="st5"/><path style="fill:#fff;fill-opacity:1" id="path3387-0-9-7" d="m 5.0000037,1047.3621 -1.0000032,0 0,-2 1.0000032,0 z" class="st5"/><path style="fill:#fff;fill-opacity:1" id="path3387-0-9-4" d="m 5.0000006,1051.3621 -1.0000032,0 0,-2 1.0000032,0 z" class="st5"/><path style="fill:#fff;fill-opacity:1" id="path3387-0-9-3" d="m 13.000002,1045.3621 0,-1 2,0 0,1 z" class="st5"/><path style="fill:#fff;fill-opacity:1" id="path3387-0-9-3-0" d="m 9.0000011,1045.3621 0,-1 1.9999999,0 0,1 z" class="st5"/><path style="fill:#fff;fill-opacity:1" id="path3387-0-9-3-2" d="m 5.0000004,1045.3621 0,-1 2.0000009,0 0,1 z" class="st5"/></g></svg>