<svg xmlns="http://www.w3.org/2000/svg" xmlns:svg="http://www.w3.org/2000/svg" id="svg4264" width="16" height="16" version="1.1" viewBox="0 0 16 16"><metadata id="metadata4269"/><g id="layer1" transform="translate(0,-1036.3621)"><g id="g3382" transform="matrix(1.3846064,0,0,1.1346381,-204.78328,616.43253)" style="fill:#fff;fill-opacity:1"><rect id="XMLID_61_" width="6.5" height="14.1" x="147.9" y="370.1" class="st4" style="fill:#fff;fill-opacity:1"/></g><path style="fill:gray;fill-opacity:1" id="path3387-0" d="m 4.9999404,1039.3637 -1.000003,0 0,-2 1.000003,0 z" class="st5"/><path style="fill:gray;fill-opacity:1" id="path3387-0-9" d="m 4.9999434,1043.3637 -1.000003,0 0,-2 1.000003,0 z" class="st5"/><path style="fill:gray;fill-opacity:1" id="path3387-0-9-7" d="m 4.9999434,1047.3637 -1.000003,0 0,-2 1.000003,0 z" class="st5"/><path style="fill:gray;fill-opacity:1" id="path3387-0-9-4" d="m 4.9999404,1051.3637 -1.000004,0 0,-2 1.000004,0 z" class="st5"/><path id="path4144" d="m 1.0000025,1052.3605 -1.00000297683724,0 0,-15.9984 1.00000297683724,0 z" class="st5" style="fill:gray;fill-opacity:1"/><path style="fill:gray;fill-opacity:1" id="path4146" d="m 9.0000011,1052.3605 -1.0000029,0 0,-15.9984 1.0000029,0 z" class="st5"/><path id="path4150" d="m 8.9658564,1040.0181 c -0.7445917,0 -1.3435512,0.5365 -1.3435512,1.2025 l 0,4.5869 c -0.011891,0.7514 1.2544814,0.7514 1.2425902,0 l 0,-3.7485 0.6403454,0 0,9.1285 c -0.01528,0.9661 1.6128972,0.9661 1.5976172,0 l 0,-5.3819 0.790862,0 0,5.3819 c 0,0.966 1.612758,0.9659 1.597619,0 l 0,-9.1285 0.705526,0 0,3.7485 c -0.01195,0.7514 1.254538,0.7514 1.242589,0 l 0,-3.8636 0,-0.7235 c 0,-0.6658 -0.60007,-1.2024 -1.344661,-1.2024 l -5.1289366,0 z" style="color:#000;font-style:normal;font-variant:normal;font-weight:400;font-stretch:normal;font-size:medium;line-height:normal;font-family:Sans;text-indent:0;text-align:start;text-decoration:none;text-decoration-line:none;letter-spacing:normal;word-spacing:normal;text-transform:none;direction:ltr;block-progression:tb;writing-mode:lr-tb;baseline-shift:baseline;text-anchor:start;display:inline;overflow:visible;visibility:visible;fill:none;fill-opacity:1;stroke:#fff;stroke-width:.90000015;stroke-linecap:round;stroke-linejoin:round;stroke-miterlimit:4;stroke-dasharray:none;marker:none;enable-background:accumulate"/><ellipse style="opacity:1;fill:#0031ff;fill-opacity:1;stroke:#fff;stroke-width:.50000012;stroke-linecap:round;stroke-linejoin:round;stroke-miterlimit:4;stroke-dasharray:none;stroke-opacity:1" id="path4145" cx="11.531" cy="1038.271" rx="1.659" ry="1.659"/><path style="color:#000;font-style:normal;font-variant:normal;font-weight:400;font-stretch:normal;font-size:medium;line-height:normal;font-family:Sans;text-indent:0;text-align:start;text-decoration:none;text-decoration-line:none;letter-spacing:normal;word-spacing:normal;text-transform:none;direction:ltr;block-progression:tb;writing-mode:lr-tb;baseline-shift:baseline;text-anchor:start;display:inline;overflow:visible;visibility:visible;fill:#0031ff;fill-opacity:1;stroke:none;stroke-width:0;stroke-miterlimit:4;stroke-dasharray:none;marker:none;enable-background:accumulate" id="path3772" d="m 8.9658564,1040.0181 c -0.7445917,0 -1.3435512,0.5365 -1.3435512,1.2025 l 0,4.5869 c -0.011891,0.7514 1.2544814,0.7514 1.2425902,0 l 0,-3.7485 0.6403454,0 0,9.1285 c -0.01528,0.9661 1.6128972,0.9661 1.5976172,0 l 0,-5.3819 0.790862,0 0,5.3819 c 0,0.966 1.612758,0.9659 1.597619,0 l 0,-9.1285 0.705526,0 0,3.7485 c -0.01195,0.7514 1.254538,0.7514 1.242589,0 l 0,-4.5871 c 0,-0.6658 -0.60007,-1.2024 -1.344661,-1.2024 l -5.1289366,0 z"/></g></svg>