<svg xmlns="http://www.w3.org/2000/svg" xmlns:svg="http://www.w3.org/2000/svg" id="svg4264" width="16" height="16" version="1.1" viewBox="0 0 16 16"><metadata id="metadata4269"/><g id="layer1" transform="translate(0,-1036.3621)"><g id="g3382" transform="matrix(1.3846064,0,0,1.1346381,-204.78322,616.43092)" style="fill:#fff;fill-opacity:1"><rect id="XMLID_61_" width="6.5" height="14.1" x="147.9" y="370.1" class="st4" style="fill:#fff;fill-opacity:1"/></g><path style="fill:gray;fill-opacity:1" id="path4158" d="m 9.0000011,1052.3621 -1.0000029,0 0,-16 1.0000029,0 z" class="st5"/><path style="fill:gray;fill-opacity:1" id="path3387-0" d="m 5.0000006,1039.3621 -1.000003,0 0,-2 1.000003,0 z" class="st5"/><path style="fill:gray;fill-opacity:1" id="path3387-0-9" d="m 5.0000036,1043.3621 -1.0000031,0 0,-2 1.0000031,0 z" class="st5"/><path style="fill:gray;fill-opacity:1" id="path3387-0-9-7" d="m 5.0000037,1047.3621 -1.0000032,0 0,-2 1.0000032,0 z" class="st5"/><path style="fill:gray;fill-opacity:1" id="path3387-0-9-4" d="m 5.0000006,1051.3621 -1.0000032,0 0,-2 1.0000032,0 z" class="st5"/><rect style="fill:#ff0" id="XMLID_308_-8" width="1.955" height="1.955" x="379.534" y="964.444" class="st11" transform="matrix(0.9348333,0.35508688,-0.35508688,0.9348333,0,0)"/><rect id="XMLID_307_-3" width="1.955" height="1.955" x="381.49" y="964.433" transform="matrix(0.9348333,0.35508688,-0.35508688,0.9348333,0,0)" style="fill:#000;fill-opacity:1"/><rect id="XMLID_306_-4" width="1.955" height="1.955" x="379.534" y="966.399" transform="matrix(0.9348333,0.35508688,-0.35508688,0.9348333,0,0)"/><rect style="fill:#ff0" id="XMLID_305_-0" width="1.955" height="1.955" x="381.49" y="966.388" class="st11" transform="matrix(0.9348333,0.35508688,-0.35508688,0.9348333,0,0)"/><rect style="fill:#ff0" id="XMLID_304_-9" width="1.955" height="1.955" x="379.534" y="968.354" class="st11" transform="matrix(0.9348333,0.35508688,-0.35508688,0.9348333,0,0)"/><rect id="XMLID_303_-4" width="1.955" height="1.955" x="381.49" y="968.343" transform="matrix(0.9348333,0.35508688,-0.35508688,0.9348333,0,0)"/><rect id="XMLID_302_-4" width="1.955" height="1.955" x="379.534" y="970.309" transform="matrix(0.9348333,0.35508688,-0.35508688,0.9348333,0,0)"/><rect style="fill:#ff0" id="XMLID_301_-4" width="1.955" height="1.955" x="381.49" y="970.298" class="st11" transform="matrix(0.9348333,0.35508688,-0.35508688,0.9348333,0,0)"/><rect style="fill:#ff0" id="XMLID_300_-8" width="1.955" height="1.955" x="379.534" y="972.265" class="st11" transform="matrix(0.9348333,0.35508688,-0.35508688,0.9348333,0,0)"/><rect id="XMLID_299_-9" width="1.955" height="1.955" x="381.49" y="972.254" transform="matrix(0.9348333,0.35508688,-0.35508688,0.9348333,0,0)"/><rect id="XMLID_298_-0" width="1.955" height="1.955" x="379.534" y="974.22" transform="matrix(0.9348333,0.35508688,-0.35508688,0.9348333,0,0)"/><rect style="fill:#ff0" id="XMLID_297_-5" width="1.955" height="1.955" x="381.49" y="974.209" class="st11" transform="matrix(0.9348333,0.35508688,-0.35508688,0.9348333,0,0)"/><rect style="fill:#ff0" id="XMLID_296_-7" width="1.955" height="1.955" x="379.534" y="976.175" class="st11" transform="matrix(0.9348333,0.35508688,-0.35508688,0.9348333,0,0)"/><rect id="XMLID_295_-6" width="1.955" height="1.955" x="381.49" y="976.164" transform="matrix(0.9348333,0.35508688,-0.35508688,0.9348333,0,0)"/><rect id="XMLID_294_-7" width="1.955" height="1.955" x="379.534" y="978.13" transform="matrix(0.9348333,0.35508688,-0.35508688,0.9348333,0,0)"/><rect style="fill:#ff0" id="XMLID_293_-0" width="1.955" height="1.955" x="381.49" y="978.119" class="st11" transform="matrix(0.9348333,0.35508688,-0.35508688,0.9348333,0,0)"/><path id="path4156" d="m 1.0000025,1052.3621 -1.00000297683724,0 0,-16 1.00000297683724,0 z" class="st5" style="fill:gray;fill-opacity:1"/></g></svg>