<svg xmlns="http://www.w3.org/2000/svg" xmlns:svg="http://www.w3.org/2000/svg" id="svg4264" width="16" height="16" version="1.1" viewBox="0 0 16 16"><defs id="defs4266"><clipPath id="clipPath19"><path id="path21" d="m 0.496094,0.0351562 5952.500006,0 0,7934.6400438 -5952.500006,0 0,-7934.6400438 z"/></clipPath></defs><metadata id="metadata4269"/><g id="layer1" transform="translate(0,-1036.3621)"><rect style="fill:#fff;fill-opacity:1;stroke:none;stroke-width:.99999994" id="XMLID_61_" width="9" height="16" x="0" y="1036.362" class="st4"/><rect style="fill:gray;fill-opacity:1;stroke:none;stroke-width:.99999994" id="rect4151" width="1" height="16" x="8" y="1036.362" class="st4"/><path style="fill:gray;fill-opacity:1" id="path3387-0" d="m 4.9999557,1039.3655 -1.000003,0 0,-2 1.000003,0 z" class="st5"/><path style="fill:gray;fill-opacity:1" id="path3387-0-9" d="m 4.9999587,1043.3655 -1.000004,0 0,-2 1.000004,0 z" class="st5"/><path style="fill:gray;fill-opacity:1" id="path3387-0-9-7" d="m 4.9999587,1047.3655 -1.000004,0 0,-2 1.000004,0 z" class="st5"/><path id="path35" d="m 7.3492603,1049.6462 c 0,-0.9478 -0.7682665,-1.7164 -1.7161141,-1.7164 -0.947775,0 -1.7161169,0.7686 -1.7161169,1.7164 0,0.9478 0.7683419,1.7159 1.7161169,1.7159 0.9478476,0 1.7161141,-0.7681 1.7161141,-1.7159" style="fill:#0031ff;fill-opacity:1;fill-rule:nonzero;stroke:none"/><path style="fill:#0031ff;fill-opacity:1;fill-rule:nonzero;stroke:#fff" id="path4144" d="m 10.140966,1046.7542 -0.9944619,-1.8507 -1.1156893,2.2312 c -0.138165,0.2764 -0.4743006,0.3906 -0.7507955,0.2513 -0.2764418,-0.1396 -0.3884647,-0.474 -0.2501991,-0.7507 l 1.5057313,-3.0115 c 0.303321,-0.6064 0.923453,-0.9897 1.6018125,-0.9897 l 1.997355,0 c 0.329737,0 0.63265,0.1787 0.788747,0.4713 l 1.156119,2.1521 c 0.09721,0.1759 0.09224,0.3906 -0.01312,0.5631 -0.105417,0.1703 -0.294717,0.2764 -0.495912,0.2681 -0.201287,0 -0.383325,-0.1229 -0.476788,-0.2988 l -1.052813,-1.9595 -0.677681,0 2.162397,4.0463 1.228131,0.022 c 0.412041,0.01 0.746203,0.3347 0.746203,0.7462 0,0.4121 -0.334121,0.7519 -0.746203,0.7462 l -1.585043,-0.022 c -0.329624,0 -0.632656,-0.1786 -0.788822,-0.4718 l -0.843783,-1.5923 -2.0731756,4.1461 c -0.1843969,0.3705 -0.6325023,0.5179 -1.0010868,0.3347 -0.3686626,-0.1842 -0.5179724,-0.6323 -0.3336765,-1.0036 z"/><path id="path39" d="m 10.140966,1046.7542 -0.9944619,-1.8507 -1.1156893,2.2312 c -0.138165,0.2764 -0.4743006,0.3906 -0.7507955,0.2513 -0.2764418,-0.1396 -0.3884647,-0.474 -0.2501991,-0.7507 l 1.5057313,-3.0115 c 0.303321,-0.6064 0.923453,-0.9897 1.6018125,-0.9897 l 1.997355,0 c 0.329737,0 0.63265,0.1787 0.788747,0.4713 l 1.156119,2.1521 c 0.09721,0.1759 0.09224,0.3906 -0.01312,0.5631 -0.105417,0.1703 -0.294717,0.2764 -0.495912,0.2681 -0.201287,0 -0.383325,-0.1229 -0.476788,-0.2988 l -1.052813,-1.9595 -0.677681,0 2.162397,4.0463 1.228131,0.022 c 0.412041,0.01 0.746203,0.3347 0.746203,0.7462 0,0.4121 -0.334121,0.7519 -0.746203,0.7462 l -1.585043,-0.022 c -0.329624,0 -0.632656,-0.1786 -0.788822,-0.4718 l -0.843783,-1.5923 -2.0731756,4.1461 c -0.1843969,0.3705 -0.6325023,0.5179 -1.0010868,0.3347 -0.3686626,-0.1842 -0.5179724,-0.6323 -0.3336765,-1.0036 z" style="fill:#0031ff;fill-opacity:1;fill-rule:nonzero;stroke:none"/><path id="path43" d="m 10.01789,1040.8625 c 0,-0.917 -0.7435855,-1.661 -1.6606726,-1.661 -0.9172669,0 -1.6608557,0.744 -1.6608557,1.661 0,0.917 0.7435888,1.6607 1.6608557,1.6607 0.9170871,0 1.6606726,-0.7437 1.6606726,-1.6607" style="fill:#0031ff;fill-opacity:1;fill-rule:nonzero;stroke:#fff;stroke-width:.50000006;stroke-miterlimit:4;stroke-dasharray:none"/><rect id="rect4149" width="1" height="16" x="0" y="1036.362" class="st4" style="fill:gray;fill-opacity:1;stroke:none;stroke-width:.99999994"/></g></svg>