<svg xmlns="http://www.w3.org/2000/svg" xmlns:svg="http://www.w3.org/2000/svg" id="svg2" width="480" height="480" version="1.0"><metadata id="metadata8"/><path style="fill:#fff;fill-opacity:1;fill-rule:evenodd;stroke:#000;stroke-width:2;stroke-linecap:butt;stroke-linejoin:miter;stroke-miterlimit:4;stroke-dasharray:none;stroke-opacity:1" id="path3669" d="M 30.856274,5.7720243 L 450.86109,5.7720243 C 461.67691,6.5627045 473.93298,17.615789 474.52755,30.636789 L 474.52755,449.4433 C 474.57722,459.76184 462.73404,473.63554 449.36321,474.30807 L 29.957547,474.30807 C 20.433732,473.72489 5.5262338,458.92955 5.0927831,449.14373 L 5.691934,30.936364 C 4.6103723,24.633922 19.978002,5.6381226 30.856274,5.7720243 z"/><path style="fill:#039;fill-opacity:1;fill-rule:evenodd;stroke:none;stroke-width:1px;stroke-linecap:butt;stroke-linejoin:miter;stroke-opacity:.94117647" id="path3661" d="M 34.91962,16.78125 C 23.159007,16.266334 16.446451,24.30046 16.88837,37.15625 L 16.88837,443.5625 C 16.934923,452.2297 20.616541,462.63293 32.57587,462.84375 L 447.01337,462.8125 C 458.9727,462.6017 462.68557,452.19845 462.73212,443.53125 L 462.73212,37.09375 C 463.17403,24.237959 456.46149,16.20383 444.70087,16.71875 L 34.91962,16.78125 z"/><path style="font-size:458.69091797px;font-style:normal;font-variant:normal;font-weight:400;font-stretch:normal;text-align:center;line-height:100%;writing-mode:lr-tb;text-anchor:middle;fill:#fff;fill-opacity:1;stroke:none;stroke-width:1px;stroke-linecap:butt;stroke-linejoin:miter;stroke-opacity:1;font-family:DIN 1451 Mittelschrift" id="text5426" d="M 189.40096,85.664662 L 189.40096,168.50508 L 247.213,168.50508 C 261.66587,168.50521 272.44686,164.15756 279.55602,155.46211 C 286.66485,146.76697 290.21935,137.30789 290.21951,127.08487 C 290.21935,111.57451 284.63791,100.17662 273.47518,92.891162 C 266.30728,88.073712 257.08322,85.664872 245.80295,85.664662 L 189.40096,85.664662 z M 150.44834,305.6324 L 150.44834,48.827112 L 243.68788,48.827112 C 253.6756,48.827362 263.28156,49.884902 272.50577,51.999722 C 281.72969,54.115042 291.33564,59.050212 301.32365,66.805242 C 309.07875,72.798192 315.65897,81.052852 321.06435,91.569242 C 326.46934,102.08606 329.17193,114.2771 329.17214,128.1424 C 329.17193,146.47321 322.32732,163.92255 308.63829,180.4905 C 294.94889,197.05869 274.94383,205.34272 248.62305,205.34262 L 189.40096,205.34262 L 189.40096,305.6324 L 150.44834,305.6324 z"/><path style="fill:none;fill-rule:evenodd;stroke:#fff;stroke-width:36.63752747;stroke-linecap:butt;stroke-linejoin:miter;stroke-miterlimit:4;stroke-dasharray:none;stroke-opacity:1" id="path3129" d="M 82.981344,340.99604 L 396.63914,410.1976"/></svg>