<svg xmlns="http://www.w3.org/2000/svg" xmlns:svg="http://www.w3.org/2000/svg" id="svg2" width="16" height="16" version="1.0"><metadata id="metadata7"/><g id="layer1" transform="translate(-8,-8.000001)"><rect style="opacity:1;fill:#fff;fill-opacity:1;stroke:none;stroke-width:1.10000002;stroke-linecap:round;stroke-linejoin:miter;stroke-miterlimit:4;stroke-dasharray:none;stroke-dashoffset:.60000002;stroke-opacity:1" id="rect4140" width="16" height="16" x="8" y="8"/><path style="font-size:12px;fill:#b3b3b3;fill-rule:evenodd;stroke:#000;stroke-width:.03181237" id="path645" d="m 16.249466,8.6436365 -5.563218,5.7098325 1.112637,0 0,8.564744 3.337938,0 0,-4.352519 2.30158,0 7e-6,4.352519 3.261638,0 0,-8.564744 1.112644,0 -5.563226,-5.7098325 0,0 0,0 z"/><path style="fill:none;fill-rule:evenodd;stroke:#000;stroke-width:1;stroke-linecap:butt;stroke-linejoin:miter;stroke-miterlimit:4;stroke-dasharray:none;stroke-opacity:1" id="path2157" d="M 9.3392857,15.160715 9.25,22.125"/><path style="fill:none;fill-rule:evenodd;stroke:#000;stroke-width:1;stroke-linecap:butt;stroke-linejoin:miter;stroke-miterlimit:4;stroke-dasharray:none;stroke-opacity:1" id="path2159" d="M 9.4285715,19.535715 22.821428,19.625"/><path style="fill:none;fill-rule:evenodd;stroke:#000;stroke-width:1;stroke-linecap:butt;stroke-linejoin:miter;stroke-miterlimit:4;stroke-dasharray:none;stroke-opacity:1" id="path2161" d="M 22.910714,21.857143 23,17.303572"/><rect style="fill:#000;fill-opacity:1;stroke:#000;stroke-width:1.14999998;stroke-miterlimit:4;stroke-dasharray:none;stroke-opacity:1" id="rect2163" width="7.054" height="1.25" x="14.696" y="16.991" ry=".625"/><ellipse style="fill:#000;fill-opacity:1;stroke:#000;stroke-width:1.47860229;stroke-miterlimit:4;stroke-dasharray:none;stroke-opacity:1" id="path2167" cx="12.531" cy="15.741" rx=".974" ry=".862"/><rect style="fill:#000;fill-opacity:1;stroke:#000;stroke-width:1;stroke-miterlimit:4;stroke-dasharray:none;stroke-opacity:1" id="rect2169" width="2.723" height=".223" x="10.545" y="17.973" ry=".112"/></g></svg>