<svg xmlns="http://www.w3.org/2000/svg" xmlns:svg="http://www.w3.org/2000/svg" id="svg2" width="575" height="575" version="1.1"><title id="title68846">Bicycle repair station</title><metadata id="metadata13"/><rect style="fill:#fff;fill-opacity:1;stroke:#0078ff;stroke-width:.98967296;stroke-linecap:round;stroke-linejoin:miter;stroke-miterlimit:4;stroke-opacity:1;stroke-dasharray:none" id="rect2990" width="574.01" height="574.01" x=".495" y=".495"/><g id="g3138" transform="matrix(0.98757845,0,0,1,-171.61601,7.0110373)"><circle style="fill:none;stroke:#000;stroke-width:40px;stroke-opacity:1" id="FrontWheel" cx="215" cy="409" r="161" d="m 376,409 c 0,88.91784 -72.08216,161 -161,161 -88.91784,0 -161,-72.08216 -161,-161 0,-88.91784 72.08216,-161 161,-161 88.91784,0 161,72.08216 161,161 z" transform="matrix(0.612193,0,0,0.612193,156.40859,178.29391)"/><circle style="fill:none;stroke:#000;stroke-width:40px;stroke-opacity:1" id="RearWheel" cx="790" cy="406" r="161" d="m 951,406 c 0,88.91784 -72.08216,161 -161,161 -88.91784,0 -161,-72.08216 -161,-161 0,-88.91784 72.08216,-161 161,-161 88.91784,0 161,72.08216 161,161 z" transform="matrix(0.612193,0,0,0.612193,156.40859,178.29391)"/><path style="fill:#000;fill-opacity:1;fill-rule:evenodd;stroke:#000;stroke-width:.61219299;stroke-opacity:1" id="Frame" d="m 419.33591,187.76277 c -81.15626,0.791 -67.39292,-8.38456 -111.05594,131.93826 -35.56995,112.11783 -31.69552,99.89097 -31.88155,107.75543 -0.13037,6.10982 4.80163,10.95404 10.99923,11.36869 12.88887,-1.30322 7.46752,1.39395 52.15306,-137.36977 163.27931,172.24394 102.021,144.31296 189.89195,147.81092 115.48553,-1.10739 124.87203,6.01158 126.24309,-10.91575 -0.1582,-5.74792 -2.84759,-9.17557 -82.10546,-185.56784 l 7.59356,-20.88232 26.1029,-0.4746 -0.9492,-21.83151 -97.2926,0 c -8.5955,11.75949 3.48039,11.70675 46.98521,21.35692 l -7.59357,21.3569 -194.11061,0.47461 c 13.07781,-45.66688 5.69518,-42.8193 64.54534,-42.71383 l 0.47459,-22.30611 z m -70.62884,88.427 189.94107,-0.33678 -54.89431,147.50742 -135.04676,-147.17064 z m 212.84176,8.75614 -53.88399,141.44548 117.87123,0.33677 -63.98724,-141.78225 z"/></g><g id="Layer_2" transform="matrix(0,-1.6091568,1.6672138,0,-129.48538,524.0285)"><path id="path68800" d="m 230.667,88 5,42 20,6.333 18,-11 -6.333,-43 c 0,0 36.667,11 39.667,37.333 0,0 3.999,23 -10.334,34 l -10.999,10 c 0,0 -14,10.667 -10.667,34 v 204 l -0.333,7.667 c 0,0 1,9 -9,9.333 h -19 c 0,0 -10,1.667 -11.667,-12.333 V 185.999 c 0,0 1.333,-12.333 -8.333,-18.333 l -12.333,-10 c 0,0 -21.333,-16.334 -7.333,-45.667 -0.001,0 4.999,-13.999 23.665,-23.999 z" style="fill:#1e1916"/></g></svg>