<svg xmlns="http://www.w3.org/2000/svg" xmlns:svg="http://www.w3.org/2000/svg" id="svg2287" width="411.933" height="394.879" version="1.0"><metadata id="metadata3"/><defs id="defs2289"><marker id="ArrowEnd" markerHeight="3" markerUnits="strokeWidth" markerWidth="4" orient="auto" refX="0" refY="5" viewBox="0 0 10 10"><path id="path2292" d="M 0,0 10,5 0,10 0,0 Z"/></marker><marker id="ArrowStart" markerHeight="3" markerUnits="strokeWidth" markerWidth="4" orient="auto" refX="10" refY="5" viewBox="0 0 10 10"><path id="path2295" d="M 10,0 0,5 10,10 10,0 Z"/></marker></defs><g id="g2297" transform="translate(-612.85914,202.69102)"><rect style="opacity:1;fill:#fff;fill-opacity:1;stroke:none;stroke-width:30;stroke-linecap:square;stroke-linejoin:miter;stroke-miterlimit:4;stroke-dasharray:none;stroke-dashoffset:.60000002;stroke-opacity:1" id="rect4166" width="411.933" height="394.879" x="612.859" y="-202.691"/><g id="g2303" transform="translate(628.80282,-202.69102)"><g id="g2305"><path style="fill:#000;stroke:none" id="path2307" d="m 101.99,148.102 c 40.486,0 73.305,-33.154 73.305,-74.049 C 175.295,33.154 142.476,0 101.99,0 61.506,0 28.684,33.154 28.684,74.053 c 0,40.895 32.822,74.049 73.306,74.049 z"/><path style="fill:#000;stroke:none" id="path2309"/></g><path style="fill:#000;stroke:none" id="path2311" d="m 156.681,37.263 156.553,0 25.144,25.4 c 4.626,4.673 4.508,7.909 0,12.461 l -30.599,30.908 -18.027,-18.207 -18.028,18.207 -17.792,-17.969 -17.314,17.49 -18.028,-18.207 -23.485,23.72 -38.424,0 0,-73.803 z"/></g><g id="g2873" transform="matrix(-2.3580476,0,0,2.3580476,1298.8426,-348.60879)"><circle id="path596" cx="200.532" cy="461.963" r="78.381" transform="matrix(0.336803,0,0,0.336803,192.5945,42.97304)" style="font-size:12px;fill:none;fill-opacity:1;fill-rule:evenodd;stroke:#000;stroke-width:26;stroke-opacity:1"/><circle id="path595" cx="200.532" cy="461.963" r="78.381" transform="matrix(0.336803,0,0,0.336803,79.45661,42.45877)" style="font-size:12px;fill:none;fill-opacity:1;fill-rule:evenodd;stroke:#000;stroke-width:26;stroke-opacity:1"/><path id="path594" d="m 167.90982,153.1369 67.88271,0.34285 23.99893,44.56945 -45.94082,0 -47.99787,-32.56998" style="font-size:12px;fill:none;fill-opacity:1;fill-rule:evenodd;stroke:#000;stroke-width:7.03076267;stroke-linejoin:round;stroke-opacity:1"/><path id="path593" d="m 170.5183,126.42646 c -3.68727,0 -6.47436,-0.0823 -9.3311,4.28198 -0.8223,1.45485 -1.19826,3.23121 -0.89463,4.99942 0.36424,2.01063 1.55461,3.98605 2.9579,5.15545 1.8582,1.54851 3.62168,1.42905 3.33668,2.82107 -0.36568,1.78612 -1.48168,4.26817 -2.68771,8.29852 -1.22421,4.09107 -2.67788,9.09815 -4.10479,14.02995 -1.42691,4.93179 -2.82762,9.79096 -3.93638,13.57737 -0.55439,1.8932 -1.03856,3.51883 -1.41037,4.73629 -0.36225,1.18617 -0.68208,2.10756 -0.65255,2.04187 -1.15517,2.03243 -1.31241,3.35676 -3.24999,5.08664 -2.17245,1.9013 -3.94123,3.30588 -4.5551,3.73494 -1.5592,1.13265 -2.28405,3.52298 -1.46069,4.70406 1.03764,1.60962 3.18064,1.85653 4.74689,1.37498 1.4872,-0.4721 3.84141,-1.28303 6.57128,-3.54405 l 0.0211,-0.0316 0.0316,-0.0211 c 3.79847,-3.25812 5.20374,-7.21245 5.34674,-7.44124 l 0.19998,-0.30523 0.13683,-0.3368 c 0.32914,-0.81022 0.52629,-1.52463 0.91568,-2.79968 0.38939,-1.27505 0.88302,-2.92231 1.44194,-4.83102 1.11784,-3.8174 2.51144,-8.68396 3.93638,-13.60894 1.42495,-4.92498 2.87506,-9.90657 4.08374,-13.94575 1.20868,-4.03918 1.97229,-7.35653 2.25456,-8.06222 0.68704,-1.71759 1.03803,-3.57187 0.56836,-5.43095 -0.46966,-1.85908 -1.87315,-3.35951 -3.13301,-3.7083 -2.87573,-0.80454 -2.1127,-2.87302 -0.64144,-2.87602 l 12.329,-0.0251 0.0304,-7.87445 c -8e-5,-1.7e-4 -8.00272,-1.7e-4 -12.85122,-1.7e-4 z" style="font-size:12px;fill:#000;fill-opacity:1;fill-rule:evenodd;stroke-width:25;stroke-linecap:round"/><path id="path599" d="m 214.73026,196.65372 23.27289,-56.97008" style="font-size:12px;fill:#fff;fill-opacity:1;fill-rule:evenodd;stroke:#000;stroke-width:8.42007542;stroke-opacity:1"/><path id="path600" d="m 204.30595,178.47178 18.90921,40.00027" style="font-size:12px;fill:#fff;fill-opacity:1;fill-rule:evenodd;stroke:#000;stroke-width:3.0733273;stroke-linecap:round;stroke-opacity:1"/><circle id="path597" cx="200.532" cy="461.963" r="78.381" transform="matrix(0.132315,0,0,0.136689,187.5743,134.9894)" style="font-size:12px;fill:none;fill-opacity:1;fill-rule:evenodd;stroke:#000;stroke-width:31.30500031;stroke-opacity:1"/><path id="path601" d="m 199.25786,179.69861 12.42128,0.11386" style="font-size:12px;fill:#fff;fill-opacity:1;fill-rule:evenodd;stroke:#000;stroke-width:4.29423809;stroke-opacity:1"/><path id="path602" d="m 216.88312,216.79001 12.42128,0.11386" style="font-size:12px;fill:#fff;fill-opacity:1;fill-rule:evenodd;stroke:#000;stroke-width:4.29423809;stroke-opacity:1"/><path id="path603" d="m 249.39728,134.59251 -29.21234,0 c -1.09092,0 -2.49896,1.92976 -1.09092,3.21215 1.52286,1.44934 15.21224,4.42427 15.21224,4.42427 0,0 3.7576,1.03031 5.75762,0.78789 2.00001,-0.24243 8.90915,-0.84849 9.3334,-8.42431 z" style="font-size:12px;fill:#000;fill-opacity:1;fill-rule:evenodd;stroke:#000;stroke-width:.33680301pt;stroke-opacity:1"/></g><circle style="fill:#fff;fill-opacity:1;fill-rule:nonzero;stroke:none;stroke-width:10;stroke-miterlimit:4;stroke-dasharray:none;stroke-dashoffset:0;stroke-opacity:1" id="path2352" cx="101.346" cy="83.932" r="18.426" transform="translate(594.43268,-211.90425)"/></g></svg>