<svg xmlns="http://www.w3.org/2000/svg" xmlns:svg="http://www.w3.org/2000/svg" id="svg2" width="505.72" height="408.414" version="1.0"><metadata id="metadata11"/><rect style="opacity:1;fill:#fff;fill-opacity:1;stroke:none;stroke-width:30;stroke-linecap:square;stroke-linejoin:miter;stroke-miterlimit:4;stroke-dasharray:none;stroke-dashoffset:.60000002;stroke-opacity:1" id="rect4146" width="505.72" height="408.414" x="0" y="0"/><g id="layer1" transform="matrix(-0.6874148,0,0,1,492.43156,129.14804)"><path style="opacity:1;fill:#000;fill-opacity:1;fill-rule:nonzero;stroke:none;stroke-width:30;stroke-linecap:round;stroke-linejoin:round;stroke-miterlimit:4;stroke-dasharray:none;stroke-dashoffset:0;stroke-opacity:1" id="path25345" d="m 640.23853,222.03787 c 0,27.10477 -21.97275,49.07752 -49.07752,49.07752 -27.10477,0 -49.07752,-21.97275 -49.07752,-49.07752 0,-27.10477 21.97275,-49.07752 49.07752,-49.07752 27.10477,0 49.07752,21.97275 49.07752,49.07752 l 0,0 z" transform="matrix(1.079545,0,0,1.079545,-521.3741,-27.12071)"/><path style="fill:#000;fill-opacity:1;fill-rule:evenodd;stroke:none;stroke-width:1px;stroke-linecap:butt;stroke-linejoin:miter;stroke-opacity:1" id="path24454" d="m 285.83418,10.247082 c 2.82136,-3.2663359 6.0364,-6.0733784 11.97048,-5.7082016 l 256.30729,0 127.38367,101.1426896 c 1.40564,2.97091 2.11691,5.24745 2.47353,7.16934 l 0.48411,89.62664 c -2.36768,5.13743 -5.15318,9.52279 -10.12099,9.97998 l -29.56544,0 c 0,-87.62676 -129.5449,-87.80573 -129.5449,0 l -332.83376,0 c 0,-87.28688 -130.530777,-87.62179 -130.530777,0 l -36.065656,0 C 12.71653,211.01909 9.9497784,212.35674 5.8866518,202.02701 L 5.492299,137.57457 c 2.0973064,-5.86412 4.713128,-8.09863 7.323065,-10.37434 L 200.16379,96.077198 285.83418,10.247082 Z"/><path style="opacity:1;fill:#000;fill-opacity:1;fill-rule:nonzero;stroke:none;stroke-width:30;stroke-linecap:round;stroke-linejoin:round;stroke-miterlimit:4;stroke-dasharray:none;stroke-dashoffset:0;stroke-opacity:1" id="path25343" d="m 640.23853,222.03787 c 0,27.10477 -21.97275,49.07752 -49.07752,49.07752 -27.10477,0 -49.07752,-21.97275 -49.07752,-49.07752 0,-27.10477 21.97275,-49.07752 49.07752,-49.07752 27.10477,0 49.07752,21.97275 49.07752,49.07752 l 0,0 z" transform="matrix(1.079545,0,0,1.079545,-58.73586,-27.14299)"/><path style="fill:#fff;fill-opacity:1;fill-rule:evenodd;stroke:none;stroke-width:1px;stroke-linecap:butt;stroke-linejoin:miter;stroke-opacity:1" id="path25349" d="m 226.41173,97.07302 63.84346,-62.997849 c 1.43945,-1.223265 2.57157,-2.907517 5.07365,-2.536826 l 113.52297,0 0,77.161795 -177.57783,0 c -6.7601,-2.66645 -7.67484,-6.70827 -4.86225,-11.62712 z"/><path style="fill:#fff;fill-opacity:1;fill-rule:evenodd;stroke:none;stroke-width:1px;stroke-linecap:butt;stroke-linejoin:miter;stroke-opacity:1" id="path26236" d="M 585.23723,89.186408 530.52565,34.0864 c -1.43945,-1.223265 -2.57157,-2.907517 -5.07365,-2.536826 l -95.50602,0 0,77.161786 162.76938,0 c 7.70221,-1.53592 -2.43326,-11.927375 -7.47813,-19.524952 z"/></g><ellipse style="fill:#00f;fill-opacity:1;stroke:none;stroke-width:10;stroke-miterlimit:4;stroke-dasharray:none;stroke-opacity:1" id="path3169" cx="439.126" cy="92.834" rx="19.867" ry="34.403"/><ellipse id="path3171" cx="374.197" cy="145.165" rx="19.867" ry="34.403" style="fill:#00f;fill-opacity:1;stroke:none;stroke-width:10;stroke-miterlimit:4;stroke-dasharray:none;stroke-opacity:1"/><ellipse style="fill:#00f;fill-opacity:1;stroke:none;stroke-width:10;stroke-miterlimit:4;stroke-dasharray:none;stroke-opacity:1" id="path3173" cx="309.267" cy="69.575" rx="19.867" ry="34.403"/><ellipse style="fill:#00f;fill-opacity:1;stroke:none;stroke-width:10;stroke-miterlimit:4;stroke-dasharray:none;stroke-opacity:1" id="path3177" cx="169.716" cy="84.112" rx="19.867" ry="34.403"/><ellipse id="path3179" cx="101.879" cy="48.255" rx="19.867" ry="34.403" style="fill:#00f;fill-opacity:1;stroke:none;stroke-width:10;stroke-miterlimit:4;stroke-dasharray:none;stroke-opacity:1"/><ellipse style="fill:#00f;fill-opacity:1;stroke:none;stroke-width:10;stroke-miterlimit:4;stroke-dasharray:none;stroke-opacity:1" id="path3181" cx="51.486" cy="101.556" rx="19.867" ry="34.403"/><ellipse id="path3183" cx="238.522" cy="41.471" rx="19.867" ry="34.403" style="fill:#00f;fill-opacity:1;stroke:none;stroke-width:10;stroke-miterlimit:4;stroke-dasharray:none;stroke-opacity:1"/></svg>