<svg xmlns="http://www.w3.org/2000/svg" xmlns:svg="http://www.w3.org/2000/svg" id="svg2287" width="403.079" height="527.457" version="1.1"><metadata id="metadata3"/><defs id="defs2289"><marker id="ArrowEnd" markerHeight="3" markerUnits="strokeWidth" markerWidth="4" orient="auto" refX="0" refY="5" viewBox="0 0 10 10"><path id="path2292" d="M 0,0 10,5 0,10 Z"/></marker><marker id="ArrowStart" markerHeight="3" markerUnits="strokeWidth" markerWidth="4" orient="auto" refX="10" refY="5" viewBox="0 0 10 10"><path id="path2295" d="M 10,0 0,5 10,10 Z"/></marker></defs><rect style="opacity:1;fill:#fff;fill-opacity:1;stroke:none;stroke-width:30;stroke-linecap:square;stroke-linejoin:miter;stroke-miterlimit:4;stroke-dasharray:none;stroke-dashoffset:.60000002;stroke-opacity:1" id="rect4169" width="403.079" height="527.457" x="0" y="0"/><g id="g2297" transform="translate(25.336378,31.27854)"><g id="g2299"><path id="path2301" d="m 214.064,176.821 41.43,0 c 22.548,0 34.512,12.316 40.034,26.725 l 29.335,75.669 c 11.62,1.49 32.218,15.146 32.218,40.985 l 0,96.245 -28.527,0 0,30.769 c 0,37.87 -53.599,37.424 -53.599,0 l 0,-30.769 -96.389,0 -0.054,0 0.056,0 -0.052,0 -96.389,0 0,30.769 c 0,37.424 -53.599,37.87 -53.599,0 l 0,-30.769 -28.528,0 0,-96.245 c 0,-25.839 20.577,-39.495 32.197,-40.985 l 29.335,-75.669 c 5.522,-14.409 17.487,-26.725 40.035,-26.725 l 41.911,0 70.586,0 z" style="fill:#000;stroke:none"/><g id="g2303"><g id="g2305"><path id="path2307" d="m 101.99,148.102 c 40.486,0 73.305,-33.154 73.305,-74.049 C 175.295,33.154 142.476,0 101.99,0 61.506,0 28.684,33.154 28.684,74.053 c 0,40.895 32.822,74.049 73.306,74.049 z" style="fill:#000;stroke:none"/><path id="path2309" d="M 101.99,74.053" style="fill:#000;stroke:none"/></g><path id="path2311" d="m 156.681,37.263 156.553,0 25.144,25.4 c 4.626,4.673 4.508,7.909 0,12.461 l -30.599,30.908 -18.027,-18.207 -18.028,18.207 -17.792,-17.969 -17.314,17.49 -18.028,-18.207 -23.485,23.72 -38.424,0 0,-73.803 z" style="fill:#000;stroke:none"/></g></g><g id="g2313"><path id="path2315" d="m 178.512,278.445 -0.054,0 -115.89,0 22.087,-59.56 c 2.761,-8.367 6.904,-14.409 16.568,-14.499 l 77.235,0 0.054,0 0.054,0 77.274,0 c 9.663,0.09 13.805,6.132 16.566,14.499 l 22.086,59.56 -115.926,0 -0.054,0 z" style="fill:#fff;stroke:none"/><g id="g2317"><g id="g2319"><path id="path2321" d="m 56.18,358.445 c -13.672,0 -24.758,-11.426 -24.758,-25.519 0,-14.092 11.086,-25.517 24.758,-25.517 13.673,0 24.757,11.425 24.757,25.517 0,14.093 -11.084,25.519 -24.757,25.519 z" style="fill:#fff;stroke:none"/><path id="path2323" d="M 56.18,332.926" style="fill:#fff;stroke:none"/></g><g id="g2325"><path id="path2327" d="m 300.881,358.445 c 13.673,0 24.757,-11.426 24.757,-25.519 0,-14.092 -11.084,-25.517 -24.757,-25.517 -13.672,0 -24.758,11.425 -24.758,25.517 0,14.093 11.086,25.519 24.758,25.519 z" style="fill:#fff;stroke:none"/><path id="path2329" d="M 300.881,332.926" style="fill:#fff;stroke:none"/></g></g><g id="g2331"><path id="path2333" d="m 69.789,93.342 c 10.745,0 19.457,-8.802 19.457,-19.656 0,-10.855 -8.712,-19.656 -19.457,-19.656 -10.745,0 -19.457,8.801 -19.457,19.656 0,10.854 8.712,19.656 19.457,19.656 z" style="fill:#fff;stroke:none"/><path id="path2335" d="M 69.789,73.686" style="fill:#fff;stroke:none"/></g></g></g></svg>