<svg xmlns="http://www.w3.org/2000/svg" xmlns:svg="http://www.w3.org/2000/svg" id="svg3009" width="149.287" height="139.996" version="1.1"><metadata id="metadata3014"/><g id="layer1" transform="translate(-305.35701,-413.79721)"><path style="fill:#fff;fill-opacity:1;stroke:#000;stroke-width:12.4419775;stroke-miterlimit:4;stroke-opacity:1;stroke-dasharray:none;display:inline" id="path2985" d="m 425.71429,469.50504 c 0,86.7876 -70.35525,157.14285 -157.14285,157.14285 -86.7876,0 -157.14285,-70.35525 -157.14285,-157.14285 0,-86.78761 70.35525,-157.14286 157.14285,-157.14286 86.7876,0 157.14285,70.35525 157.14285,157.14286 z" transform="matrix(0.42849139,0,0,0.42849139,269.56245,282.61189)"/><path style="fill:red;stroke:none;display:inline" id="path4019" d="m 343.92899,423.79074 0,120.00003 -15.00015,0 c -31.81806,-40.28928 -31.03773,-80.28218 0,-120.00003 z"/><path style="fill:#000;fill-opacity:1;stroke:#fff;stroke-width:14.46901035;stroke-miterlimit:4;stroke-opacity:1;stroke-dasharray:none;display:inline" id="path2991" d="m 40,432.36218 c 0,77.31987 -62.680135,140 -140,140 -77.31986,0 -140,-62.68013 -140,-140 0,-77.31986 62.68014,-140 140,-140 77.319865,0 140,62.68014 140,140 z" transform="matrix(0.3395943,0,0,0.33959431,418.60243,336.96302)"/><path style="fill:#fff;fill-opacity:1;stroke:none;display:inline" id="path3944" d="m 80,472.36218 c 0,11.0457 -8.954305,20 -20,20 -11.045695,0 -20,-8.9543 -20,-20 0,-11.04569 8.954305,-20 20,-20 11.045695,0 20,8.95431 20,20 z" transform="matrix(0.75,0,0,0.75,339.643,129.51912)"/><path style="fill:#fff;fill-opacity:1;stroke:none;display:inline" id="path4021-4" d="m 160,642.36218 c 0,16.56855 -13.43146,30 -30,30 -16.56854,0 -30,-13.43145 -30,-30 0,-16.56854 13.43146,-30 30,-30 16.56854,0 30,13.43146 30,30 z" transform="matrix(0.16666667,0,0,0.16666667,362.97633,346.73039)"/><path style="fill:#fff;fill-opacity:1;stroke:none;display:inline" id="path4021-4-9" d="m 160,642.36218 c 0,16.56855 -13.43146,30 -30,30 -16.56854,0 -30,-13.43145 -30,-30 0,-16.56854 13.43146,-30 30,-30 16.56854,0 30,13.43146 30,30 z" transform="matrix(0.16666667,0,0,0.16666667,392.97633,376.73039)"/><path style="fill:#fff;fill-opacity:1;stroke:none;display:inline" id="path4021-4-4" d="m 160,642.36218 c 0,16.56855 -13.43146,30 -30,30 -16.56854,0 -30,-13.43145 -30,-30 0,-16.56854 13.43146,-30 30,-30 16.56854,0 30,13.43146 30,30 z" transform="matrix(0.16666667,0,0,0.16666667,332.97633,376.73039)"/><path style="fill:#fff;fill-opacity:1;stroke:none;display:inline" id="path4021-4-7" d="m 160,642.36218 c 0,16.56855 -13.43146,30 -30,30 -16.56854,0 -30,-13.43145 -30,-30 0,-16.56854 13.43146,-30 30,-30 16.56854,0 30,13.43146 30,30 z" transform="matrix(0.16666667,0,0,0.16666667,362.97633,406.73039)"/></g></svg>