<svg xmlns="http://www.w3.org/2000/svg" xmlns:svg="http://www.w3.org/2000/svg" id="svg2" width="16" height="15" version="1.1" viewBox="0 0 16 15"><metadata id="metadata8"/><rect style="color:#000;clip-rule:nonzero;display:inline;overflow:visible;visibility:visible;opacity:1;isolation:auto;mix-blend-mode:normal;color-interpolation:sRGB;color-interpolation-filters:linearRGB;solid-color:#000;solid-opacity:1;fill:#ff0;fill-opacity:1;fill-rule:evenodd;stroke:none;stroke-width:.477;stroke-linecap:butt;stroke-linejoin:miter;stroke-miterlimit:4;stroke-dasharray:none;stroke-dashoffset:0;stroke-opacity:1;color-rendering:auto;image-rendering:auto;shape-rendering:auto;text-rendering:auto;enable-background:accumulate" id="rect4136" width="5" height="8" x="2" y="3" ry="0"/><path id="charging-station" d="M 3.2,1 C 2.0344723,1 1,1.9950215 1,3.1995 L 1,14 8,14 8,6.125 C 8,6.125 8.875,6 8.875,7 l 0,4 c 0,2 1.864698,2.125 2.125,2.125 0.275652,0 2.125,-0.124975 2.125,-2.125 l 0,-4 c 0,0 1.687558,0.017377 1.675,-2.96875 l -0.85,0 0,-1.799625 C 13.95,1.6644667 13,1.6678829 13,2.200375 L 13,4 12,4 12,2.200375 c 0,-0.5461843 -0.95,-0.5451872 -0.95,0 L 11.05,4 10.2,4 c 0.01252,2.9863904 1.675,3 1.675,3 l 0,4 c 0,0.874159 -0.767136,0.875 -0.875,0.875 -0.107864,0 -0.875,-0.04279 -0.875,-0.875 l 0,-4 C 10.125,5.7190916 9,5.0745 8,5.0745 L 8,3.1995 C 8,1.9770442 6.9835046,1 5.8,1 Z M 4,4 6,4 4.75,6 6.25,6 3.5,10 3,10 4,7 2.75,7 Z" style="fill:green;fill-opacity:1;stroke:none"/></svg>