<svg xmlns="http://www.w3.org/2000/svg" xmlns:svg="http://www.w3.org/2000/svg" id="svg2" width="16" height="16" version="1.1"><metadata id="metadata7"/><g id="layer1" transform="translate(-349.99999,-607.36218)"><rect style="fill:#0000b3;fill-opacity:1;stroke:none" id="rect2989-6" width="7" height="7" x="350" y="616.362"/><rect style="fill:#00b9ff;fill-opacity:1;stroke:none" id="rect3769-27" width="5" height="1" x="360" y="610.362"/><path style="fill:#666;fill-opacity:1;stroke:none" id="path3771-7" d="m 357,612.36218 2,-1 0,-1 -2,-1 z"/><path style="fill:none;stroke:#666;stroke-width:1px;stroke-linecap:butt;stroke-linejoin:miter;stroke-opacity:1" id="path3852" d="m 353.5,614.36218 0,-2.5 c -0.006,-0.43612 0.37464,-0.9872 1,-1 0.83333,0 1.66667,0 2.5,0"/><path style="fill:none;stroke:#00b9ff;stroke-width:1px;stroke-linecap:butt;stroke-linejoin:miter;stroke-opacity:1" id="path3879" d="m 360,612.36218 5,1.5"/><path style="fill:none;stroke:#00b9ff;stroke-width:1px;stroke-linecap:butt;stroke-linejoin:miter;stroke-opacity:1" id="path3879-4" d="m 360,609.36218 5,-1.5"/><path style="fill:#0000b3;fill-opacity:1;stroke:none" id="path2991-8" d="m 328,616.36218 c 0,1.65686 -1.34315,3 -3,3 -1.65685,0 -3,-1.34314 -3,-3 0,-1.65685 1.34315,-3 3,-3 1.65685,0 3,1.34315 3,3 z" transform="matrix(1.1666667,0,0,1.1666667,-25.666689,-102.22702)"/></g></svg>