<svg xmlns="http://www.w3.org/2000/svg" xmlns:svg="http://www.w3.org/2000/svg" id="svg3044" width="16" height="7" version="1.1"><metadata id="metadata3049"/><g id="layer1" transform="translate(-492,-423.14789)"><rect style="fill:#999;fill-opacity:1;stroke:none" id="rect3817" width="16" height="7" x="492" y="423.148"/><rect style="fill:#999;fill-opacity:1;stroke:none" id="rect3819" width="2" height="1" x="492" y="426.148"/><rect style="fill:#fff;fill-opacity:1;stroke:none" id="rect3823" width="2" height="1" x="493" y="426.148"/><rect style="fill:#fff;fill-opacity:1;stroke:none" id="rect3825" width="2" height="1" x="505" y="426.148"/><path style="fill:#fff;fill-opacity:1;stroke:none" id="path3827" d="m 657,731.86218 a 2.5,2.5 0 1 1 -5,0 2.5,2.5 0 1 1 5,0 z" transform="translate(-156,-305.21428)"/><path style="fill:#fff;fill-opacity:1;stroke:none" id="path3827-1" d="m 657,731.86218 a 2.5,2.5 0 1 1 -5,0 2.5,2.5 0 1 1 5,0 z" transform="translate(-153,-305.21428)"/><rect style="fill:#999;fill-opacity:1;stroke:none" id="rect3847" width="4" height="7" x="498" y="423.148"/></g></svg>