<svg xmlns="http://www.w3.org/2000/svg" xmlns:svg="http://www.w3.org/2000/svg" id="svg2" width="224.842" height="258.686" version="1.0"><metadata id="metadata13"/><rect style="opacity:1;fill:#fff;fill-opacity:1;stroke:none;stroke-width:30;stroke-linecap:square;stroke-linejoin:miter;stroke-miterlimit:4;stroke-dasharray:none;stroke-dashoffset:.60000002;stroke-opacity:1" id="rect4135" width="224.842" height="258.686" x="0" y="0"/><path style="fill:#000;fill-opacity:1;fill-rule:evenodd;stroke:none;stroke-width:1px;stroke-linecap:butt;stroke-linejoin:miter;stroke-opacity:1" id="path1897" d="m 96.722164,245.98729 104.307056,-0.0664 0.0665,-16.17865 9.77818,0.0665 0,-207.584932 c -4e-5,-4.42786 -2.56575,-8.25555 -7.39162,-8.25555 l -107.076166,0 c -5.52644,0 -11.03631,3.98245 -11.03631,10.37179 l -0.11953,205.402142 11.35519,0 0.1167,16.2451 z"/><path style="fill:#000;fill-opacity:1;fill-rule:evenodd;stroke:none;stroke-width:1px;stroke-linecap:butt;stroke-linejoin:miter;stroke-opacity:1" id="path1899" d="m 85.876604,84.559648 -10.43835,-0.06182 c -0.06768,42.474392 0.24187,126.299802 0.41877,127.734072 0.37762,3.06168 0.14928,6.23358 -0.63683,9.12325 -16.36381,41.22353 -69.3136398,22.28952 -61.79545,-17.82336 16.51257,-39.7885 39.66654,-66.71211 51.19026,-113.641132 l 1.02585,34.885372 c -10.37097,20.18119 -28.66742,55.62424 -42.85675,85.2509 -1.19545,27.35321 31.34375,36.36524 41.5347,7.00526 4.54142,-51.39277 -0.17075,-107.41233 -0.25612,-161.118502 6.62236,-19.68707 13.92944,-21.57153 21.34506,-20.63384"/><path style="fill:#fff;fill-opacity:1;fill-rule:evenodd;stroke:none;stroke-width:1px;stroke-linecap:butt;stroke-linejoin:miter;stroke-opacity:1" id="path1901" d="m 107.00321,43.248708 -0.36109,53.08018 c 0,4.272082 3.42921,7.221792 7.40234,7.221792 l 68.78758,0.18055 c 4.17321,0 6.13852,-2.66164 6.13852,-6.319072 l 0,-53.9829 c 0,-5.21832 -2.98624,-6.77043 -6.77043,-6.77043 l -68.33621,0 c -3.91657,0 -6.86071,2.33958 -6.86071,6.58988 z"/></svg>