<svg xmlns="http://www.w3.org/2000/svg" xmlns:svg="http://www.w3.org/2000/svg" id="svg4264" width="9" height="16" version="1.1" viewBox="0 0 9 16"><metadata id="metadata4269"/><g id="layer1" transform="translate(0,-1036.3621)"><g id="g3382" transform="matrix(1.3846066,0,0,1.1346381,-204.78325,616.43414)" style="fill:gray;fill-opacity:1"><rect id="XMLID_61_" width="6.5" height="14.1" x="147.9" y="370.1" class="st4" style="fill:gray;fill-opacity:1"/></g><path style="fill:#fff;fill-opacity:1" id="path3387-0" d="m 5,1039.3653 -1,0 0,-2 1,0 z" class="st5"/><path style="fill:#fff;fill-opacity:1" id="path3387-0-9" d="m 5,1043.3621 -1,0 0,-2 1,0 z" class="st5"/><path style="fill:#fff;fill-opacity:1" id="path3387-0-9-7" d="m 5,1047.3621 -1,0 0,-2 1,0 z" class="st5"/><path style="fill:#fff;fill-opacity:1" id="path3387-0-9-4" d="m 5,1051.3653 -1,0 0,-2 1,0 z" class="st5"/><path style="fill:#000;fill-opacity:1" id="path3387-0-9-7-4" d="m 9,1047.3621 -3,0 0,-1 3,0 z" class="st5"/><path id="path4173" d="m 9,1049.3621 -3,0 0,-1 3,0 z" class="st5" style="fill:#000;fill-opacity:1"/><path style="fill:#000;fill-opacity:1" id="path4175" d="m 9,1051.3621 -3,0 0,-1 3,0 z" class="st5"/><path id="path4177" d="m 3,1042.3621 -3,0 0,-1 3,0 z" class="st5" style="fill:#000;fill-opacity:1"/><path style="fill:#000;fill-opacity:1" id="path4179" d="m 3,1040.3621 -3,0 0,-1 3,0 z" class="st5"/><path id="path4181" d="m 3,1038.3621 -3,0 0,-1 3,0 z" class="st5" style="fill:#000;fill-opacity:1"/><path style="fill:#000;fill-opacity:1" id="path4147" d="m 3,1044.3621 -3,0 0,-1 3,0 z" class="st5"/><path id="path4149" d="m 9,1045.3621 -3,0 0,-1 3,0 z" class="st5" style="fill:#000;fill-opacity:1"/></g></svg>