<svg xmlns="http://www.w3.org/2000/svg" xmlns:svg="http://www.w3.org/2000/svg" id="svg3850" width="16" height="16" version="1.1"><metadata id="metadata3855"/><g id="layer1" transform="translate(0,-1036.3622)"><g id="g3933" transform="translate(0,1.7382813e-5)"><rect id="rect2998" width="16" height="7" x="0" y="1045.319" style="fill:#999;fill-opacity:1;stroke:none"/><rect id="rect3772" width="1" height="1" x="5" y="1045.319" style="fill:#fff;fill-opacity:1;stroke:none"/><rect id="rect3774" width="1" height="1" x="10" y="1045.319" style="fill:#fff;fill-opacity:1;stroke:none"/><rect id="rect3776" width="1" height="2" x="10" y="1047.319" style="fill:#fff;fill-opacity:1;stroke:none"/><rect id="rect3778" width="1" height="2" x="10" y="1050.319" style="fill:#fff;fill-opacity:1;stroke:none"/><rect id="rect3780" width="1" height="2" x="5" y="1050.319" style="fill:#fff;fill-opacity:1;stroke:none"/><rect id="rect3782" width="1" height="2" x="5" y="1047.319" style="fill:#fff;fill-opacity:1;stroke:none"/><rect id="rect3861" width="2" height="1" x="2" y="1048.319" style="fill:#fff;fill-opacity:1;stroke:none"/><rect id="rect3863" width="2" height="1" x="12" y="1048.319" style="fill:#fff;fill-opacity:1;stroke:none"/><rect id="rect3865" width="1" height="1" x="0" y="1048.319" style="fill:#fff;fill-opacity:1;stroke:none"/><rect id="rect3867" width="1" height="1" x="15" y="1048.319" style="fill:#fff;fill-opacity:1;stroke:none"/></g><g id="g3927" transform="translate(0,1.7382813e-5)"><rect id="rect3804" width="6" height="16" x="0" y="1036.362" ry="2" style="fill:#000;fill-opacity:1;stroke:none"/><path id="path3024" d="m 640,709.36218 c 0,1.10457 -0.89543,2 -2,2 -1.10457,0 -2,-0.89543 -2,-2 0,-1.10457 0.89543,-2 2,-2 1.10457,0 2,0.89543 2,2 z" transform="matrix(1.0952381,0,0,1.0952381,-695.7619,262.44169)" style="fill:red;fill-opacity:1;stroke:#b20505;stroke-width:.2;stroke-miterlimit:4;stroke-opacity:1;stroke-dasharray:none"/><path id="path3796" d="m 640,714.36218 c 0,1.10457 -0.89543,2 -2,2 -1.10457,0 -2,-0.89543 -2,-2 0,-1.10457 0.89543,-2 2,-2 1.10457,0 2,0.89543 2,2 z" transform="matrix(1.0952381,0,0,1.0952381,-695.7619,261.9655)" style="fill:#ff0;fill-opacity:1;stroke:#ffd600;stroke-width:.2;stroke-linecap:square;stroke-linejoin:miter;stroke-miterlimit:4;stroke-opacity:1;stroke-dasharray:none"/><path id="path3798" d="m 640,719.36218 c 0,1.10457 -0.89543,2 -2,2 -1.10457,0 -2,-0.89543 -2,-2 0,-1.10457 0.89543,-2 2,-2 1.10457,0 2,0.89543 2,2 z" transform="matrix(1.0952381,0,0,1.0952381,-695.76189,261.48932)" style="fill:#0f0;fill-opacity:1;stroke:#00b200;stroke-width:.2;stroke-linecap:square;stroke-linejoin:miter;stroke-miterlimit:4;stroke-opacity:1;stroke-dasharray:none"/></g></g></svg>