<svg xmlns="http://www.w3.org/2000/svg" xmlns:svg="http://www.w3.org/2000/svg" id="svg3850" width="12" height="16" version="1.1"><metadata id="metadata3855"/><g id="layer1" transform="translate(0,-1036.3622)"><rect style="fill:#000;fill-opacity:1;stroke:none" id="rect3804" width="6" height="16" x="0" y="1036.362" ry="2"/><path style="fill:red;fill-opacity:1;stroke:#b20505;stroke-width:.2;stroke-miterlimit:4;stroke-opacity:1;stroke-dasharray:none" id="path3024" d="m 640,709.36218 c 0,1.10457 -0.89543,2 -2,2 -1.10457,0 -2,-0.89543 -2,-2 0,-1.10457 0.89543,-2 2,-2 1.10457,0 2,0.89543 2,2 z" transform="matrix(1.0952381,0,0,1.0952381,-695.7619,262.44169)"/><path style="fill:#ff0;fill-opacity:1;stroke:#ffd600;stroke-width:.2;stroke-linecap:square;stroke-linejoin:miter;stroke-miterlimit:4;stroke-opacity:1;stroke-dasharray:none" id="path3796" d="m 640,714.36218 c 0,1.10457 -0.89543,2 -2,2 -1.10457,0 -2,-0.89543 -2,-2 0,-1.10457 0.89543,-2 2,-2 1.10457,0 2,0.89543 2,2 z" transform="matrix(1.0952381,0,0,1.0952381,-695.7619,261.9655)"/><path style="fill:#0f0;fill-opacity:1;stroke:#00b200;stroke-width:.2;stroke-linecap:square;stroke-linejoin:miter;stroke-miterlimit:4;stroke-opacity:1;stroke-dasharray:none" id="path3798" d="m 640,719.36218 c 0,1.10457 -0.89543,2 -2,2 -1.10457,0 -2,-0.89543 -2,-2 0,-1.10457 0.89543,-2 2,-2 1.10457,0 2,0.89543 2,2 z" transform="matrix(1.0952381,0,0,1.0952381,-695.76189,261.48932)"/><rect style="fill:#000;fill-opacity:1;stroke:none" id="rect3804-1" width="6" height="11" x="6" y="1041.362" ry="2"/><path style="fill:red;fill-opacity:1;stroke:#b20505;stroke-width:.2;stroke-miterlimit:4;stroke-opacity:1;stroke-dasharray:none" id="path3024-7" d="m 640,709.36218 c 0,1.10457 -0.89543,2 -2,2 -1.10457,0 -2,-0.89543 -2,-2 0,-1.10457 0.89543,-2 2,-2 1.10457,0 2,0.89543 2,2 z" transform="matrix(1.0952381,0,0,1.0952381,-689.7619,267.44172)"/><path style="fill:#0f0;fill-opacity:1;stroke:#00b200;stroke-width:.2;stroke-linecap:square;stroke-linejoin:miter;stroke-miterlimit:4;stroke-opacity:1;stroke-dasharray:none" id="path3798-0" d="m 640,719.36218 c 0,1.10457 -0.89543,2 -2,2 -1.10457,0 -2,-0.89543 -2,-2 0,-1.10457 0.89543,-2 2,-2 1.10457,0 2,0.89543 2,2 z" transform="matrix(1.0952381,0,0,1.0952381,-689.76189,261.48935)"/></g></svg>