<svg xmlns="http://www.w3.org/2000/svg" xmlns:svg="http://www.w3.org/2000/svg" id="svg4264" width="16" height="12" version="1.1" viewBox="0 0 16 12"><defs id="defs4266"><marker id="EmptyTriangleInL" orient="auto" refX="0" refY="0" style="overflow:visible"><path id="path4298" d="m 5.77,0 -8.65,5 0,-10 8.65,5 z" transform="matrix(-0.8,0,0,-0.8,4.8,0)" style="fill:#fff;fill-rule:evenodd;stroke:#000;stroke-width:1pt;stroke-opacity:1"/></marker><marker id="marker4778" orient="auto" refX="0" refY="0" style="overflow:visible"><path id="path4780" d="M 0,0 5,-5 -12.5,0 5,5 0,0 Z" transform="matrix(0.8,0,0,0.8,10,0)" style="fill:#000;fill-opacity:1;fill-rule:evenodd;stroke:#000;stroke-width:1pt;stroke-opacity:1"/></marker><marker id="marker4657" orient="auto" refX="0" refY="0" style="overflow:visible"><path id="path4659" d="M 0,0 5,-5 -12.5,0 5,5 0,0 Z" transform="matrix(0.8,0,0,0.8,10,0)" style="fill:#000;fill-opacity:1;fill-rule:evenodd;stroke:#000;stroke-width:1pt;stroke-opacity:1"/></marker><marker style="overflow:visible" id="InfiniteLineStart" orient="auto" refX="0" refY="0"><g id="g4391" transform="translate(-13,0)" style="fill:#000;fill-opacity:1;stroke:#000;stroke-opacity:1"><circle id="circle4393" cx="3" cy="0" r=".8" style="fill:#000;fill-opacity:1;stroke:#000;stroke-opacity:1"/><circle id="circle4395" cx="6.5" cy="0" r=".8" style="fill:#000;fill-opacity:1;stroke:#000;stroke-opacity:1"/><circle id="circle4397" cx="10" cy="0" r=".8" style="fill:#000;fill-opacity:1;stroke:#000;stroke-opacity:1"/></g></marker><marker id="Arrow2Lstart" orient="auto" refX="0" refY="0" style="overflow:visible"><path id="path4165" d="M 8.7185878,4.0337352 -2.2072895,0.01601326 8.7185884,-4.0017078 c -1.7454984,2.3720609 -1.7354408,5.6174519 -6e-7,8.035443 z" transform="matrix(1.1,0,0,1.1,1.1,0)" style="fill:#000;fill-opacity:1;fill-rule:evenodd;stroke:#000;stroke-width:.625;stroke-linejoin:round;stroke-opacity:1"/></marker><marker id="Arrow1Mstart" orient="auto" refX="0" refY="0" style="overflow:visible"><path id="path4153" d="M 0,0 5,-5 -12.5,0 5,5 0,0 Z" transform="matrix(0.4,0,0,0.4,4,0)" style="fill:#000;fill-opacity:1;fill-rule:evenodd;stroke:#000;stroke-width:1pt;stroke-opacity:1"/></marker><marker id="Arrow1Lstart" orient="auto" refX="0" refY="0" style="overflow:visible"><path id="path4147" d="M 0,0 5,-5 -12.5,0 5,5 0,0 Z" transform="matrix(0.8,0,0,0.8,10,0)" style="fill:#000;fill-opacity:1;fill-rule:evenodd;stroke:#000;stroke-width:1pt;stroke-opacity:1"/></marker></defs><metadata id="metadata4269"/><g id="layer1" transform="translate(0,-1040.3621)"><ellipse style="opacity:1;fill:#fff;fill-opacity:1;stroke:#000;stroke-width:1;stroke-linecap:round;stroke-linejoin:round;stroke-miterlimit:4;stroke-dasharray:none;stroke-opacity:1" id="path4221" cx="6" cy="1046.362" rx="5.5" ry="5.5"/><ellipse id="circle4223" cx="6" cy="1046.362" rx="2" ry="2" style="opacity:1;fill:#000;fill-opacity:1;stroke:none;stroke-width:.4;stroke-linecap:round;stroke-linejoin:round;stroke-miterlimit:4;stroke-dasharray:none;stroke-opacity:1"/><path style="fill:none;fill-rule:evenodd;stroke:#000;stroke-width:1px;stroke-linecap:butt;stroke-linejoin:miter;stroke-opacity:1" id="path4209" d="m 16,1043.8621 -5,0"/><path id="path4211" d="m 16,1048.8621 -5,0" style="fill:none;fill-rule:evenodd;stroke:#000;stroke-width:1px;stroke-linecap:butt;stroke-linejoin:miter;stroke-opacity:1"/><path id="path4213" d="m 16,1046.3621 -6,0" style="fill:none;fill-opacity:1;fill-rule:evenodd;stroke:#fff;stroke-width:4;stroke-linecap:butt;stroke-linejoin:miter;stroke-miterlimit:4;stroke-dasharray:none;stroke-opacity:1"/></g></svg>