<svg xmlns="http://www.w3.org/2000/svg" xmlns:svg="http://www.w3.org/2000/svg" id="svg4264" width="16" height="16" version="1.1" viewBox="0 0 16 16"><defs id="defs4266"><marker id="EmptyTriangleInL" orient="auto" refX="0" refY="0" style="overflow:visible"><path id="path4298" d="m 5.77,0 -8.65,5 0,-10 8.65,5 z" transform="matrix(-0.8,0,0,-0.8,4.8,0)" style="fill:#fff;fill-rule:evenodd;stroke:#000;stroke-width:1pt;stroke-opacity:1"/></marker><marker id="marker4778" orient="auto" refX="0" refY="0" style="overflow:visible"><path id="path4780" d="M 0,0 5,-5 -12.5,0 5,5 0,0 Z" transform="matrix(0.8,0,0,0.8,10,0)" style="fill:#000;fill-opacity:1;fill-rule:evenodd;stroke:#000;stroke-width:1pt;stroke-opacity:1"/></marker><marker id="marker4657" orient="auto" refX="0" refY="0" style="overflow:visible"><path id="path4659" d="M 0,0 5,-5 -12.5,0 5,5 0,0 Z" transform="matrix(0.8,0,0,0.8,10,0)" style="fill:#000;fill-opacity:1;fill-rule:evenodd;stroke:#000;stroke-width:1pt;stroke-opacity:1"/></marker><marker style="overflow:visible" id="InfiniteLineStart" orient="auto" refX="0" refY="0"><g id="g4391" transform="translate(-13,0)" style="fill:#000;fill-opacity:1;stroke:#000;stroke-opacity:1"><circle id="circle4393" cx="3" cy="0" r=".8" style="fill:#000;fill-opacity:1;stroke:#000;stroke-opacity:1"/><circle id="circle4395" cx="6.5" cy="0" r=".8" style="fill:#000;fill-opacity:1;stroke:#000;stroke-opacity:1"/><circle id="circle4397" cx="10" cy="0" r=".8" style="fill:#000;fill-opacity:1;stroke:#000;stroke-opacity:1"/></g></marker><marker id="Arrow2Lstart" orient="auto" refX="0" refY="0" style="overflow:visible"><path id="path4165" d="M 8.7185878,4.0337352 -2.2072895,0.01601326 8.7185884,-4.0017078 c -1.7454984,2.3720609 -1.7354408,5.6174519 -6e-7,8.035443 z" transform="matrix(1.1,0,0,1.1,1.1,0)" style="fill:#000;fill-opacity:1;fill-rule:evenodd;stroke:#000;stroke-width:.625;stroke-linejoin:round;stroke-opacity:1"/></marker><marker id="Arrow1Mstart" orient="auto" refX="0" refY="0" style="overflow:visible"><path id="path4153" d="M 0,0 5,-5 -12.5,0 5,5 0,0 Z" transform="matrix(0.4,0,0,0.4,4,0)" style="fill:#000;fill-opacity:1;fill-rule:evenodd;stroke:#000;stroke-width:1pt;stroke-opacity:1"/></marker><marker id="Arrow1Lstart" orient="auto" refX="0" refY="0" style="overflow:visible"><path id="path4147" d="M 0,0 5,-5 -12.5,0 5,5 0,0 Z" transform="matrix(0.8,0,0,0.8,10,0)" style="fill:#000;fill-opacity:1;fill-rule:evenodd;stroke:#000;stroke-width:1pt;stroke-opacity:1"/></marker></defs><metadata id="metadata4269"/><g id="layer1" transform="translate(0,-1036.3621)"><rect style="opacity:1;fill:#fc0;fill-opacity:1;stroke:none;stroke-width:2;stroke-linecap:round;stroke-linejoin:round;stroke-miterlimit:4;stroke-dasharray:none;stroke-opacity:1" id="rect4288" width="16" height="16" x="0" y="1036.362"/><g id="g4212" transform="translate(-4.4804688,0)"><path id="path4211" d="M 7.5078125,1.9999999 4.4804688,16 5.5,16 8.0019531,4.4640781 10.521484,16 11.539062,16 8.4902344,1.9999999 Z" transform="translate(0,1036.3621)" style="color:#000;font-style:normal;font-variant:normal;font-weight:400;font-stretch:normal;font-size:medium;line-height:normal;font-family:sans-serif;text-indent:0;text-align:start;text-decoration:none;text-decoration-line:none;text-decoration-style:solid;text-decoration-color:#000;letter-spacing:normal;word-spacing:normal;text-transform:none;direction:ltr;block-progression:tb;writing-mode:lr-tb;baseline-shift:baseline;text-anchor:start;white-space:normal;clip-rule:nonzero;display:inline;overflow:visible;visibility:visible;opacity:1;isolation:auto;mix-blend-mode:normal;color-interpolation:sRGB;color-interpolation-filters:linearRGB;solid-color:#000;solid-opacity:1;fill:#000;fill-opacity:1;fill-rule:evenodd;stroke:none;stroke-width:1.00000012;stroke-linecap:butt;stroke-linejoin:miter;stroke-miterlimit:4;stroke-dasharray:none;stroke-dashoffset:0;stroke-opacity:1;color-rendering:auto;image-rendering:auto;shape-rendering:auto;text-rendering:auto;enable-background:accumulate"/><path style="fill:none;fill-rule:evenodd;stroke:#000;stroke-width:1.00000012;stroke-linecap:butt;stroke-linejoin:miter;stroke-miterlimit:4;stroke-dasharray:none;stroke-opacity:1" id="path4311" d="m 9.1385373,1043.8621 -2.1385365,0"/><path style="fill:none;fill-rule:evenodd;stroke:#000;stroke-width:1.00000024;stroke-linecap:butt;stroke-linejoin:miter;stroke-miterlimit:4;stroke-dasharray:none;stroke-opacity:1" id="path4226" d="m 10.031748,1048.8621 -4.0317473,0"/><path id="path4221" d="m 8.000001,1038.5007 0,-2.1386" style="fill:none;fill-rule:evenodd;stroke:#000;stroke-width:1.00000012;stroke-linecap:butt;stroke-linejoin:miter;stroke-miterlimit:4;stroke-dasharray:none;stroke-opacity:1"/></g><g id="g4218" transform="translate(4.4609399,0)"><path style="color:#000;font-style:normal;font-variant:normal;font-weight:400;font-stretch:normal;font-size:medium;line-height:normal;font-family:sans-serif;text-indent:0;text-align:start;text-decoration:none;text-decoration-line:none;text-decoration-style:solid;text-decoration-color:#000;letter-spacing:normal;word-spacing:normal;text-transform:none;direction:ltr;block-progression:tb;writing-mode:lr-tb;baseline-shift:baseline;text-anchor:start;white-space:normal;clip-rule:nonzero;display:inline;overflow:visible;visibility:visible;opacity:1;isolation:auto;mix-blend-mode:normal;color-interpolation:sRGB;color-interpolation-filters:linearRGB;solid-color:#000;solid-opacity:1;fill:#000;fill-opacity:1;fill-rule:evenodd;stroke:none;stroke-width:1.00000012;stroke-linecap:butt;stroke-linejoin:miter;stroke-miterlimit:4;stroke-dasharray:none;stroke-dashoffset:0;stroke-opacity:1;color-rendering:auto;image-rendering:auto;shape-rendering:auto;text-rendering:auto;enable-background:accumulate" id="path4220" d="M 7.5078125,1.9999999 4.4804688,16 5.5,16 8.0019531,4.4640781 10.521484,16 11.539062,16 8.4902344,1.9999999 Z" transform="translate(0,1036.3621)"/><path id="path4222" d="m 9.1385373,1043.8621 -2.1385365,0" style="fill:none;fill-rule:evenodd;stroke:#000;stroke-width:1.00000012;stroke-linecap:butt;stroke-linejoin:miter;stroke-miterlimit:4;stroke-dasharray:none;stroke-opacity:1"/><path id="path4224" d="m 10.031748,1048.8621 -4.0317473,0" style="fill:none;fill-rule:evenodd;stroke:#000;stroke-width:1.00000024;stroke-linecap:butt;stroke-linejoin:miter;stroke-miterlimit:4;stroke-dasharray:none;stroke-opacity:1"/><path style="fill:none;fill-rule:evenodd;stroke:#000;stroke-width:1.00000012;stroke-linecap:butt;stroke-linejoin:miter;stroke-miterlimit:4;stroke-dasharray:none;stroke-opacity:1" id="path4227" d="m 8.000001,1038.5007 0,-2.1386"/></g><path style="fill:none;fill-rule:evenodd;stroke:#000;stroke-width:1px;stroke-linecap:butt;stroke-linejoin:miter;stroke-opacity:1" id="path4229" d="m 4.0000005,1038.8621 7.9999995,0"/><path style="fill:none;fill-rule:evenodd;stroke:#000;stroke-width:1px;stroke-linecap:butt;stroke-linejoin:miter;stroke-opacity:1" id="path4231" d="m 6.5000008,1039.3621 0,2"/><path style="fill:none;fill-rule:evenodd;stroke:#000;stroke-width:1px;stroke-linecap:butt;stroke-linejoin:miter;stroke-opacity:1" id="path4233" d="m 9.5000011,1039.3621 0,2"/></g></svg>