<svg xmlns="http://www.w3.org/2000/svg" xmlns:svg="http://www.w3.org/2000/svg" id="svg2" width="16" height="16" version="1.0"><metadata id="metadata10"/><metadata id="metadata7"/><ellipse style="fill:#ff0;fill-opacity:1;stroke:#000;stroke-width:.80000001;stroke-opacity:1" id="background" cx="8" cy="8" rx="7.6" ry="7.6"/><g id="g2397" transform="scale(0.8,0.80000003)" style="fill:#000"><path id="path4369" d="m 14,3.074 -2.5,4.33 C 12.396,7.922 13.001,8.889 13.001,10 L 18,10 C 18,7.041 16.39,4.457 14,3.074 Z" style="fill:#000"/><path id="path4371" d="m 2.006,10 4.999,0 C 7.005,8.964 7.54,7.957 8.501,7.402 L 6.002,3.072 C 3.441,4.552 2.008,7.238 2.006,10 Z" style="fill:#000"/><path id="path4373" d="m 14,16.925 -2.5,-4.329 c -0.897,0.516 -2.037,0.556 -2.998,10e-4 l -2.499,4.328 c 2.562,1.481 5.604,1.377 7.997,0 z" style="fill:#000"/><circle id="path4395" cx="10" cy="10" r="2" style="fill:#000;fill-opacity:1;stroke:none;stroke-opacity:1"/></g></svg>