<svg xmlns="http://www.w3.org/2000/svg" xmlns:svg="http://www.w3.org/2000/svg" id="svg4264" width="16" height="16" version="1.1" viewBox="0 0 16 16"><metadata id="metadata4269"/><g id="layer1" transform="translate(0,-1036.3621)"><rect style="fill:#fff;fill-opacity:1" id="rect4148" width="16" height="16" x="0" y="1036.362" ry="2.386"/><path style="fill:#000" id="path4153" d="m 8.1107127,1037.3621 -1.0610248,3.8423 -5.048498,0.5092 -0.00119,2.8581 c 0,0 1.9439315,-0.017 6.0511112,-0.017 0.1430592,1.601 1.4544383,2.7956 2.9684849,2.7956 1.597498,0 2.980406,-1.3547 2.980406,-3.0788 0,-1.3793 -0.870279,-2.5123 -2.038598,-2.9187 l 0,-3.9779 -3.8506843,0 z"/><path style="fill:none;fill-rule:evenodd;stroke:#0070ff;stroke-width:1.73526525;stroke-linecap:butt;stroke-linejoin:miter;stroke-miterlimit:4;stroke-dasharray:none;stroke-opacity:1" id="path4181" d="m 0.62451997,1051.114 1.84387033,-1.9325 1.8438702,1.9325 1.8438701,-1.9325 1.8438703,1.9325 1.8438707,-1.9325 1.8438704,1.9325 1.843869,-1.9325 1.843871,1.9325"/><path style="fill:#fff" id="path4151" d="m 8.718716,1038.1256 2.420089,0 0,3.0666 -3.23076,0.024 0.810671,-3.0787 z"/><path style="fill:#fff" id="path4149" d="m 11.007668,1043.0395 c 0.762984,0 1.216005,0.5788 1.216005,1.2315 0,0.6527 -0.453021,1.2315 -1.216005,1.2315 -0.762985,0 -1.2160071,-0.5788 -1.2160071,-1.2315 0,-0.6527 0.4530221,-1.2315 1.2160071,-1.2315 z"/><circle id="circle4145" cx="4.497" cy="1045.571" r="1.779" style="opacity:1;fill:#000;fill-opacity:1;stroke:none;stroke-width:1.745;stroke-linecap:round;stroke-linejoin:round;stroke-miterlimit:4;stroke-dasharray:none;stroke-opacity:1"/><circle style="opacity:1;fill:#fff;fill-opacity:1;stroke:none;stroke-width:1.745;stroke-linecap:round;stroke-linejoin:round;stroke-miterlimit:4;stroke-dasharray:none;stroke-opacity:1" id="path4143" cx="4.497" cy="1045.571" r=".917"/></g></svg>