<svg xmlns="http://www.w3.org/2000/svg" xmlns:svg="http://www.w3.org/2000/svg" xmlns:xlink="http://www.w3.org/1999/xlink" id="svg2" width="24" height="24" version="1.0"><defs id="defs4"><linearGradient id="linearGradient1400"><stop id="stop1401" offset="0" style="stop-color:#000;stop-opacity:.67843139"/><stop id="stop1403" offset=".57" style="stop-color:#000;stop-opacity:.32941177"/><stop id="stop1402" offset="1" style="stop-color:#000;stop-opacity:0"/></linearGradient><linearGradient id="linearGradient17450" x1="537.424" x2="539.396" y1="580.167" y2="510.392" gradientTransform="matrix(0.1148815,0,0,0.111489,-49.944348,-46.709945)" gradientUnits="userSpaceOnUse" xlink:href="#linearGradient1400"/><linearGradient id="linearGradient3718"><stop id="stop3720" offset="0" style="stop-color:#003700;stop-opacity:1"/><stop id="stop3722" offset="1" style="stop-color:#00c700;stop-opacity:1"/></linearGradient><linearGradient id="linearGradient3842"><stop id="stop3844" offset="0" style="stop-color:#003700;stop-opacity:1"/><stop id="stop3846" offset="1" style="stop-color:#00c700;stop-opacity:1"/></linearGradient><linearGradient id="linearGradient1400-0"><stop id="stop1401-4" offset="0" style="stop-color:#000;stop-opacity:.67843139"/><stop id="stop1403-9" offset=".57" style="stop-color:#000;stop-opacity:.32941177"/><stop id="stop1402-4" offset="1" style="stop-color:#000;stop-opacity:0"/></linearGradient></defs><metadata id="metadata7"/><g id="layer1"><path style="fill:#000;fill-opacity:1;stroke:none;display:inline" id="path2509" d="m 546.96875,490.34375 c -0.23806,0.0151 -0.48339,0.0251 -0.71875,0.0625 a 4.5838972,4.5838972 0 0 0 -0.0312,0 c -0.0317,0.005 -0.11088,0.0312 -0.125,0.0312 -0.0108,3e-5 -0.0855,0.0319 -0.0937,0.0312 -21.96366,3.68725 -60.08126,9.62515 -83.4375,18 -2.43418,0.88927 -4.2668,2.9793 -4.8125,5.53125 -0.10696,0.50016 -0.0565,0.7502 -0.0625,1.125 l -0.0312,0 c -0.0108,0.072 0.009,0.14644 0,0.21875 0.003,0.24894 -0.0434,0.65366 -0.0312,0.8125 l 0.0937,0 c -0.0183,1.83625 0.48802,3.71599 1.78125,5.15625 6.81992,7.63965 11.25702,17.37965 13.71875,26.4375 2.45539,9.03454 2.80069,17.72005 2.25,21.375 -0.5054,3.35438 -3.58641,11.3469 -5.34375,18.75 -0.86868,3.65948 -1.59862,7.65653 -0.71875,11.90625 1.01022,4.87929 4.80257,9.22277 10.3125,10.46875 a 4.5838972,4.5838972 0 0 0 0.0937,0.0312 c 0.11424,0.0228 0.22811,0.0137 0.34375,0.0312 l 0,0.0312 c 21.83291,3.66822 26.6239,5.1335 48.5625,13 a 4.5838972,4.5838972 0 0 0 0.0312,0 c 1.65543,0.58134 3.42716,0.45744 5,-0.0937 l 0.0312,0.0625 c 0.2487,-0.0747 0.34809,-0.12637 0.53125,-0.1875 0.25406,-0.0848 0.57988,-0.16689 0.75,-0.21875 a 4.5838972,4.5838972 0 0 0 0.1875,-0.0625 C 556.41348,615.33558 577.64691,609.52458 598.625,606 a 4.5838972,4.5838972 0 0 0 0.15625,-0.0312 c 0.17246,-0.0353 0.36217,-0.0779 0.53125,-0.125 0.0399,-0.0111 0.0853,-0.0195 0.125,-0.0312 l 0,-0.0312 c 5.32424,-1.47423 8.47849,-6.01878 9.28125,-10.59375 0.70608,-4.02399 0.12263,-7.82792 -0.625,-11.4375 -1.51601,-7.31931 -4.24541,-15.20497 -4.8125,-18.96875 -0.54777,-3.63558 -0.17657,-12.33151 2.28125,-21.375 2.46172,-9.05784 6.89885,-18.79788 13.71875,-26.4375 1.22901,-1.37466 1.77551,-3.20261 1.78125,-5.0625 l 0.125,0 c 0.0185,-0.21144 -0.0635,-0.44091 -0.0625,-0.65625 -0.009,-0.10683 0.0454,-0.20569 0.0312,-0.3125 0.17307,1.29873 0.1925,1.25512 0,-0.0937 l -0.0625,0 c -0.0259,-0.53834 -0.004,-1.07327 -0.15625,-1.625 -0.68218,-2.47491 -2.6082,-4.46081 -5.0625,-5.21875 -22.18929,-6.82265 -44.6866,-10.65484 -67.28125,-13.5625 -0.001,-1.8e-4 0.001,-0.0311 0,-0.0312 -0.0409,-0.006 -0.084,0.006 -0.125,0 -0.48237,-0.067 -0.98206,-0.0891 -1.46875,-0.0625 a 4.5838972,4.5838972 0 0 0 -0.0312,0 z" transform="matrix(0.09182455,0,0,0.08701405,-37.867506,-39.007232)"/><path style="fill:#a55959;fill-opacity:1;stroke:none;display:inline" id="path2444" d="m 12.479331,3.9670444 c -0.0088,5.213e-4 -0.01747,0.00143 -0.02614,0.00271 -0.02191,0.00344 -0.02625,0.00502 -0.01164,0.00271 -0.07394,0.01188 -0.139637,0.051177 -0.182253,0.1090028 -0.04261,0.057825 -0.05854,0.1292995 -0.04419,0.1982647 0.376652,1.8036131 -0.03921,3.5561928 -0.150962,4.5464839 -0.03422,0.3031736 -0.138845,0.7033497 -0.22934,1.1121481 -0.0905,0.4088011 -0.168701,0.8256181 -0.124834,1.2046021 0.01128,0.09021 0.07168,0.168475 0.159668,0.206658 l 0,0.03263 c 0.03076,-9.36e-4 0.06909,-0.0016 0.116126,-0.0055 l 0,-0.0028 c 0.0097,4.74e-4 0.01936,4.74e-4 0.02903,0 0.855753,-0.08218 1.668499,-0.624658 2.714385,-1.5825661 1.04588,-0.9579099 2.336501,-2.3525846 4.125285,-4.2283402 0.06367,-0.066192 0.0869,-0.1582298 0.06163,-0.2441208 -0.02528,-0.085894 -0.09558,-0.1537842 -0.186461,-0.1800711 -2.030873,-0.5848866 -4.101089,-0.9174997 -6.192284,-1.1692515 -0.0192,-0.0028 -0.03866,-0.00371 -0.05806,-0.00271 z"/><path style="fill:#aa6262;fill-opacity:1;stroke:none;display:inline" id="path2453" d="m 12.456104,3.9697634 c -0.0048,7.883e-4 -0.0097,0.00169 -0.01452,0.00271 -2.043852,0.3214846 -5.5926373,0.8473893 -7.6844627,1.5499415 -0.09005,0.030813 -0.1568729,0.1028124 -0.1769205,0.1906248 -0.020044,0.087811 0.00949,0.1791129 0.078217,0.2417255 1.9750136,1.8025801 3.3412084,3.1758534 4.4417214,4.0950978 1.1005138,0.919246 1.9710078,1.414868 2.9146978,1.324245 0.07407,-0.0068 0.142148,-0.04118 0.189048,-0.09531 0.04689,-0.05414 0.06872,-0.123606 0.06062,-0.192914 -0.03041,-0.262686 0.02866,-0.64636 0.116114,-1.041448 0.08747,-0.3950852 0.197114,-0.8009861 0.238056,-1.1638112 0.103164,-0.9141287 0.549524,-2.7651502 0.145157,-4.7014763 -0.0279,-0.1346892 -0.16235,-0.2261654 -0.307728,-0.2093778 z"/><rect style="fill:#fff;fill-opacity:1;stroke:#df421e;stroke-width:1.5;stroke-miterlimit:4;stroke-opacity:1;stroke-dasharray:none" id="rect3807-82" width="3.625" height="3.339" x="6.595" y="3.106"/><path style="fill:#c08a8a;fill-opacity:1;stroke:none;display:inline" id="path2442" d="m 4.8355033,5.5632067 c -0.1069833,0.0057 -0.2010153,0.068315 -0.241878,0.1610973 -0.040857,0.092784 -0.021318,0.1992943 0.050277,0.2739723 0.6911985,0.7252326 1.1279798,1.6286127 1.3702566,2.4635868 0.2422718,0.8349731 0.2844446,1.6083349 0.2177277,2.0230779 -0.064301,0.399745 -0.3503743,1.064945 -0.5022327,1.664143 -0.075924,0.299598 -0.1244313,0.588006 -0.063868,0.86198 0.060563,0.273978 0.2940042,0.531887 0.6328736,0.603662 0.00577,0.0011 0.011581,0.0019 0.017418,0.0028 2.0373858,0.320624 2.5455047,0.46461 4.5868765,1.150217 0.08139,0.02677 0.171448,0.01673 0.24386,-0.02719 1.316034,-0.797276 2.191354,-1.271774 2.781154,-1.694055 0.589804,-0.422279 0.911776,-0.841713 0.97544,-1.405819 0.03967,-0.351608 -0.130926,-0.699626 -0.377404,-1.087745 C 14.279527,10.164813 13.937546,9.7408448 13.553471,9.3048259 12.785315,8.4327905 11.848771,7.5135184 11.207779,6.8167675 11.161322,6.766029 11.095866,6.7339125 11.024884,6.7270335 8.8348353,6.527313 6.9601534,6.2560623 4.9458243,5.5795357 4.910602,5.5671808 4.8730759,5.5616317 4.8355037,5.5632239 z"/><path style="fill:#c08a8a;fill-opacity:1;stroke:none;display:inline" id="path2440" d="m 18.645482,5.1852396 c -0.03796,1.374e-4 -0.07551,0.00757 -0.110317,0.021752 -1.903851,0.77867 -5.428436,1.3976953 -7.562539,1.5173065 -0.126826,0.00787 -0.23191,0.095107 -0.255471,0.2120965 -0.405988,1.9380245 0.03903,3.7895264 0.142252,4.7041994 0.061,0.540526 0.23315,1.197267 0.33966,1.723964 0.07105,0.351368 0.218596,1.408814 -0.296116,1.403103 0.125233,0.03113 0.207345,-0.01152 0.319341,-0.04351 1.985202,-0.659678 3.981883,-1.173377 5.960034,-1.48468 0.0078,-0.0014 0.01557,-0.0032 0.02322,-0.0055 0.314453,-0.07796 0.51646,-0.344121 0.5661,-0.609099 0.04964,-0.264979 0.0078,-0.547841 -0.05806,-0.845667 -0.131718,-0.595655 -0.383665,-1.260062 -0.449979,-1.672302 -0.06672,-0.4147443 -0.02164,-1.1881044 0.220636,-2.0230783 0.242274,-0.834971 0.679059,-1.7383534 1.370256,-2.4635838 0.0734,-0.0769 0.09164,-0.1860099 0.04645,-0.2800787 -0.04519,-0.094063 -0.145342,-0.1554482 -0.255473,-0.1549923 z"/><path style="fill:#000;fill-opacity:1;stroke:none;display:inline" id="path2495" d="m 10.566299,6.9096172 c -0.0728,1.7438166 0.100368,3.2581858 0.13644,4.1398718 0.0305,0.74515 0.167088,1.651119 0.243859,2.377205 0.03744,0.354166 0.09337,1.229444 -0.08035,1.671363 l 0.373558,-0.0375 c -0.111997,0.04327 -0.194106,0.101002 -0.31934,0.05888 0.514712,0.0077 0.367169,-1.423315 0.296116,-1.898821 -0.106513,-0.71278 -0.278658,-1.60155 -0.339659,-2.333045 -0.07096,-0.851008 -0.304165,-2.3023973 -0.31063,-3.9779562 z"/><g id="g4485" transform="matrix(0.64029893,0,0,0.67873325,4.0530571,7.9301866)"><path id="path3700-7" d="m 4.0758633,12.740279 19.1223917,0 L 14.136835,23.39043 4.0758633,12.740279 z" style="fill:#828282;fill-opacity:1;stroke:#828282;stroke-width:.75845361;stroke-linecap:round;stroke-linejoin:round;stroke-miterlimit:4;stroke-opacity:1;stroke-dasharray:none;display:inline"/><path id="path3700" d="m 2.145754,11.828544 19.122392,0 -9.06142,10.650151 L 2.145754,11.828544 z" style="fill:#00a300;fill-opacity:1;stroke:#00a300;stroke-width:.75845361;stroke-linecap:round;stroke-linejoin:round;stroke-miterlimit:4;stroke-opacity:1;stroke-dasharray:none;display:inline"/></g><path style="fill:none;stroke:#fff;stroke-width:.5;stroke-linecap:round;stroke-linejoin:miter;stroke-miterlimit:4;stroke-opacity:1;stroke-dasharray:none" id="path3664" d="m 4.7424098,5.7805573 1.859168,0.4355312 1.6425658,0.3135826 2.2743224,0.27874 1.064958,-0.034843 1.985522,-0.2613187 2.725576,-0.5749014 1.02886,-0.2613188 0.667857,-0.1742124 0.758107,-0.1742122"/><rect style="fill:#fff;fill-opacity:1;stroke:#df421e;stroke-width:1.5;stroke-miterlimit:4;stroke-opacity:1;stroke-dasharray:none" id="rect3807-82-2" width="3.625" height="3.339" x="13.03" y="1.128"/></g></svg>