<svg xmlns="http://www.w3.org/2000/svg" xmlns:svg="http://www.w3.org/2000/svg" id="svg4264" width="16" height="16" version="1.1" viewBox="0 0 16 16"><metadata id="metadata4269"/><g id="layer1" transform="translate(0,-1036.3621)"><rect style="opacity:1;fill:#fff;fill-opacity:1;stroke:none;stroke-width:.75;stroke-linecap:round;stroke-linejoin:miter;stroke-miterlimit:4;stroke-dasharray:none;stroke-opacity:1" id="rect4142" width="16" height="16" x="0" y="1036.362"/><path style="fill:gray;fill-rule:evenodd;stroke:none;stroke-width:1px;stroke-linecap:butt;stroke-linejoin:miter;stroke-opacity:1;fill-opacity:1" id="path4714" d="m 2.9999998,1036.3621 -3.0000010248382,0 0,16 3.0000010248382,0 0,-1 -2.00000092,0 0,-2 2.00000092,0 0,-2 -2.00000092,0 0,-2 2.00000092,0 0,-2 -2.00000092,0 0,-2 2.00000092,0 0,-2 -2.00000092,0 0,-2 2.00000092,0 0,-1 z"/><path style="fill:gray;fill-rule:evenodd;stroke:none;stroke-width:1px;stroke-linecap:butt;stroke-linejoin:miter;stroke-opacity:1;fill-opacity:1" id="path4714-4" d="m 13.000016,1036.3621 3,0 0,16 -3,0 0,-1 2,0 0,-2 -2,0 0,-2 2,0 0,-2 -2,0 0,-2 2,0 0,-2 -2,0 0,-2 2,0 0,-2 -2,0 0,-1 z"/><rect style="fill:gray;fill-opacity:1;stroke:none;stroke-width:.30000001;stroke-linecap:round;stroke-linejoin:round;stroke-miterlimit:4;stroke-dasharray:none;stroke-opacity:1" id="rect4731" width="8" height="1" x="4" y="1036.362"/><rect style="fill:gray;fill-opacity:1;stroke:none;stroke-width:.30000001;stroke-linecap:round;stroke-linejoin:round;stroke-miterlimit:4;stroke-dasharray:none;stroke-opacity:1" id="rect4733" width="8" height="2" x="4" y="1039.362"/><rect style="fill:gray;fill-opacity:1;stroke:none;stroke-width:.30000001;stroke-linecap:round;stroke-linejoin:round;stroke-miterlimit:4;stroke-dasharray:none;stroke-opacity:1" id="rect4735" width="8" height="2" x="4" y="1043.362"/><rect style="fill:gray;fill-opacity:1;stroke:none;stroke-width:.30000001;stroke-linecap:round;stroke-linejoin:round;stroke-miterlimit:4;stroke-dasharray:none;stroke-opacity:1" id="rect4737" width="8" height="2" x="4" y="1047.362"/><rect style="fill:gray;fill-opacity:1;stroke:none;stroke-width:.30000001;stroke-linecap:round;stroke-linejoin:round;stroke-miterlimit:4;stroke-dasharray:none;stroke-opacity:1" id="rect4739" width="8" height="1" x="4" y="1051.362"/></g></svg>