<svg xmlns="http://www.w3.org/2000/svg" xmlns:svg="http://www.w3.org/2000/svg" id="svg4264" width="15" height="16" version="1.1" viewBox="0 0 15 16"><metadata id="metadata4269"/><g id="layer1" transform="translate(0,-1036.3621)"><path style="color:#000;font-style:normal;font-variant:normal;font-weight:400;font-stretch:normal;font-size:medium;line-height:normal;font-family:sans-serif;text-indent:0;text-align:start;text-decoration:none;text-decoration-line:none;text-decoration-style:solid;text-decoration-color:#000;letter-spacing:normal;word-spacing:normal;text-transform:none;direction:ltr;block-progression:tb;writing-mode:lr-tb;baseline-shift:baseline;text-anchor:start;white-space:normal;clip-rule:nonzero;display:inline;overflow:visible;visibility:visible;opacity:1;isolation:auto;mix-blend-mode:normal;color-interpolation:sRGB;color-interpolation-filters:linearRGB;solid-color:#000;solid-opacity:1;fill:#fff;fill-opacity:1;fill-rule:nonzero;stroke:none;stroke-width:1.50000024;stroke-linecap:round;stroke-linejoin:round;stroke-miterlimit:4;stroke-dasharray:none;stroke-dashoffset:0;stroke-opacity:1;color-rendering:auto;image-rendering:auto;shape-rendering:auto;text-rendering:auto;enable-background:accumulate" id="path4146" d="m 4.3769482,1036.3625 c -0.78527,0 -1.544061,0.1469 -2.154297,0.6055 -0.610236,0.4585 -0.972656,1.2418 -0.972656,2.1406 l 0,8.4414 -1.2499999683717,0 0,3.8125 14.9999997683717,0 0,-3.8125 -1.25,0 0,-8.4414 c 0,-0.864 -0.37599,-1.6288 -0.974609,-2.0937 -0.59862,-0.4649 -1.359988,-0.6524 -2.152344,-0.6524 l -6.2460938,0 z"/><path style="opacity:1;fill:#000;fill-opacity:1;stroke:none;stroke-width:.30000001;stroke-linecap:round;stroke-linejoin:round;stroke-miterlimit:4;stroke-dasharray:none;stroke-opacity:1" id="rect4152-0" d="m 3.9999977,1037.3625 c -1.137708,0 -2,0.8609 -2,2 l 0,7 c 0,0.606 0.511719,1 1,1 l 0,2 2.000001,0 1e-6,-2 5.0000013,0 0,2 2.000001,0 0,-2 c 0.475194,0 1,-0.4419 1,-1 l 0,-7 c 0,-1.1391 -0.862292,-2 -2.000001,-2 z"/><rect style="opacity:1;fill:#fff;fill-opacity:1;stroke:none;stroke-width:.30000001;stroke-linecap:round;stroke-linejoin:round;stroke-miterlimit:4;stroke-dasharray:none;stroke-opacity:1" id="rect4152-9-3" width="9" height="4" x="3" y="-1042.362" rx="1" ry="1" transform="scale(1,-1)"/><ellipse style="opacity:1;fill:#fff;fill-opacity:1;stroke:none;stroke-width:.30000001;stroke-linecap:round;stroke-linejoin:round;stroke-miterlimit:4;stroke-dasharray:none;stroke-opacity:1" id="path4177-4" cx="4" cy="-1045.362" rx="1" ry="1" transform="scale(1,-1)"/><ellipse style="opacity:1;fill:#fff;fill-opacity:1;stroke:none;stroke-width:.30000001;stroke-linecap:round;stroke-linejoin:round;stroke-miterlimit:4;stroke-dasharray:none;stroke-opacity:1" id="path4177-6-5" cx="11" cy="-1045.362" rx="1" ry="1" transform="scale(1,-1)"/><rect style="opacity:1;fill:#000;fill-opacity:1;stroke:none;stroke-width:.30000001;stroke-linecap:round;stroke-linejoin:round;stroke-miterlimit:4;stroke-dasharray:none;stroke-opacity:1" id="rect4227" width="15" height="2" x="0" y="-1052.362" rx="0" ry="0" transform="scale(1,-1)"/><rect style="color:#000;clip-rule:nonzero;display:inline;overflow:visible;visibility:visible;opacity:1;isolation:auto;mix-blend-mode:normal;color-interpolation:sRGB;color-interpolation-filters:linearRGB;solid-color:#000;solid-opacity:1;fill:#000;fill-opacity:1;fill-rule:nonzero;stroke:none;stroke-width:1.5;stroke-linecap:round;stroke-linejoin:round;stroke-miterlimit:4;stroke-dasharray:none;stroke-dashoffset:0;stroke-opacity:1;color-rendering:auto;image-rendering:auto;shape-rendering:auto;text-rendering:auto;enable-background:accumulate" id="rect4189" width="2" height="2" x="0" y="1048.362" rx="0" ry="0"/><rect id="rect4191" width="2" height="2" x="13" y="1048.362" rx="0" ry="0" style="color:#000;clip-rule:nonzero;display:inline;overflow:visible;visibility:visible;opacity:1;isolation:auto;mix-blend-mode:normal;color-interpolation:sRGB;color-interpolation-filters:linearRGB;solid-color:#000;solid-opacity:1;fill:#000;fill-opacity:1;fill-rule:nonzero;stroke:none;stroke-width:1.5;stroke-linecap:round;stroke-linejoin:round;stroke-miterlimit:4;stroke-dasharray:none;stroke-dashoffset:0;stroke-opacity:1;color-rendering:auto;image-rendering:auto;shape-rendering:auto;text-rendering:auto;enable-background:accumulate"/></g></svg>