<svg xmlns="http://www.w3.org/2000/svg" xmlns:svg="http://www.w3.org/2000/svg" id="svg2" width="16" height="16" preserveAspectRatio="none" version="1.0" viewBox="0 0 16 16"><metadata id="metadata21"/><rect style="opacity:1;fill:#fff;fill-opacity:1;stroke:none;stroke-width:.653;stroke-linecap:round;stroke-linejoin:miter;stroke-miterlimit:4;stroke-dasharray:none;stroke-dashoffset:0;stroke-opacity:1" id="rect4170" width="16" height="16" x="0" y="0" rx="0"/><path id="slope" d="M 1,7.905 15,15 1,15" style="fill:#000;stroke:none"/><circle id="wheel" cx="6.339" cy="8.44" r="1.999" style="fill:#000"/><circle id="circle6" cx="11.003" cy="10.772" r="1.999" style="fill:#000"/><rect style="fill:#000" id="cab" width="12.3" height="7.225" x="3.354" y="-.955" rx=".372" transform="matrix(0.89442763,0.44721272,0,1,0,0)"/><rect style="fill:#fff;fill-opacity:1" id="window" width="2.615" height="2.844" x="4.472" y=".428" rx=".186" transform="matrix(0.89442763,0.44721272,0,1,0,0)"/><rect style="fill:#fff;fill-opacity:1" id="rect12" width="2.59" height="2.847" x="8.222" y=".425" rx=".186" transform="matrix(0.89442763,0.44721272,0,1,0,0)"/><rect style="fill:#fff;fill-opacity:1" id="rect14" width="2.572" height="2.821" x="11.964" y=".45" rx=".186" transform="matrix(0.89442763,0.44721272,0,1,0,0)"/><path id="rope" d="M 0.2830851,5.2241778 7.2789999,8.722118" style="stroke:#000;stroke-width:1.26600003;stroke-miterlimit:4;stroke-dasharray:none;stroke-dashoffset:0"/></svg>