<svg xmlns="http://www.w3.org/2000/svg" xmlns:svg="http://www.w3.org/2000/svg" id="svg2" width="739.413" height="489.536" version="1.0"><metadata id="metadata12"/><g id="g3026" transform="translate(119.70668,-129.88811)"><g id="layer1" transform="matrix(0,1,-1,0,624.65603,124.65599)"><path id="path1890" d="m 94.296621,210.11445 94.615669,164.77919 -94.15567,163.986 89.626,53.63626 64.82856,-111.17112 66.57569,111.26142 90.31697,-52.53732 -95.97746,-165.29774 96.18785,-166.13881 -90.40646,-52.16115 -65.75735,113.34204 -64.94244,-111.82073 z" style="fill:#fff;fill-opacity:1;fill-rule:evenodd;stroke:#000;stroke-width:2;stroke-linecap:butt;stroke-linejoin:miter;stroke-miterlimit:4;stroke-opacity:1;stroke-dasharray:none"/><path id="path1882" d="M 94.311338,211.92538 187.08494,159.21453 98.120108,4.9493054 5.7746385,58.534605 94.311338,211.92538 z" style="fill:#c1121c;fill-opacity:1;fill-rule:evenodd;stroke:none"/><path id="path1884" d="m 401.99432,744.3627 92.7736,-52.71085 -88.96483,-154.26522 -92.34547,53.5853 88.5367,153.39077 z" style="fill:#c1121c;fill-opacity:1;fill-rule:evenodd;stroke:none"/><path id="path1886" d="m 98.00572,744.36271 -92.7736,-52.71085 88.96483,-154.26522 92.34547,53.5853 -88.5367,153.39077 z" style="fill:#c1121c;fill-opacity:1;fill-rule:evenodd;stroke:none"/><path id="path1888" d="M 405.4739,212.22565 312.7003,159.5148 401.66513,5.249578 494.0106,58.83488 405.4739,212.22565 z" style="fill:#c1121c;fill-opacity:1;fill-rule:evenodd;stroke:none"/></g></g></svg>