<svg xmlns="http://www.w3.org/2000/svg" xmlns:svg="http://www.w3.org/2000/svg" id="svg4264" width="15" height="16" version="1.1" viewBox="0 0 15 16"><metadata id="metadata4269"/><g id="layer1" transform="translate(0,-1036.3621)"><path id="path4146" d="m 4.3766856,1037.1121 c -1.3720829,0 -2.3766858,0.5446 -2.3766858,1.9962 l 0,12.2538 11.0000012,0 0,-12.2538 c 0,-1.3422 -1.035853,-1.9962 -2.376686,-1.9962 z" style="opacity:1;fill:#fff;fill-opacity:1;stroke:#fff;stroke-width:1.50000024;stroke-linecap:round;stroke-linejoin:round;stroke-miterlimit:4;stroke-dasharray:none;stroke-opacity:1"/><path style="opacity:1;fill:#000;fill-opacity:1;stroke:none;stroke-width:.30000001;stroke-linecap:round;stroke-linejoin:round;stroke-miterlimit:4;stroke-dasharray:none;stroke-opacity:1" id="rect4152-0" d="m 4,1037.3621 c -1.1377079,0 -2.0000002,0.8609 -2.0000002,2 l 0,10 3.0000003,0 0,-1 -1.0000001,0 0,-1 7.000001,0 0,1 -1,0 0,1 3,0 0,-10 c 0,-1.1391 -0.862292,-2 -2,-2 z"/><rect style="opacity:1;fill:#fff;fill-opacity:1;stroke:none;stroke-width:.30000001;stroke-linecap:round;stroke-linejoin:round;stroke-miterlimit:4;stroke-dasharray:none;stroke-opacity:1" id="rect4152-9-3" width="9" height="4" x="3" y="-1042.362" rx="1" ry="1" transform="scale(1,-1)"/><ellipse style="opacity:1;fill:#fff;fill-opacity:1;stroke:none;stroke-width:.30000001;stroke-linecap:round;stroke-linejoin:round;stroke-miterlimit:4;stroke-dasharray:none;stroke-opacity:1" id="path4177-4" cx="4" cy="-1045.362" rx="1" ry="1" transform="scale(1,-1)"/><ellipse style="opacity:1;fill:#fff;fill-opacity:1;stroke:none;stroke-width:.30000001;stroke-linecap:round;stroke-linejoin:round;stroke-miterlimit:4;stroke-dasharray:none;stroke-opacity:1" id="path4177-6-5" cx="11" cy="-1045.362" rx="1" ry="1" transform="scale(1,-1)"/><rect style="opacity:1;fill:#c87137;fill-opacity:1;stroke:none;stroke-width:.30000001;stroke-linecap:round;stroke-linejoin:round;stroke-miterlimit:4;stroke-dasharray:none;stroke-opacity:1" id="rect4227" width="15" height="1" x="0" y="-1052.362" rx="0" ry="0" transform="scale(1,-1)"/><rect style="opacity:1;fill:#000;fill-opacity:1;stroke:none;stroke-width:.30000001;stroke-linecap:round;stroke-linejoin:round;stroke-miterlimit:4;stroke-dasharray:none;stroke-opacity:1" id="rect4229" width="3" height="3" x="6" y="-1051.362" rx="0" ry="0" transform="scale(1,-1)"/></g></svg>