<svg xmlns="http://www.w3.org/2000/svg" xmlns:svg="http://www.w3.org/2000/svg" id="svg4264" width="16" height="16" version="1.1" viewBox="0 0 16 16"><metadata id="metadata4269"/><g id="layer1" transform="translate(0,-1036.3621)"><path style="color:#000;font-style:normal;font-variant:normal;font-weight:400;font-stretch:normal;font-size:medium;line-height:normal;font-family:sans-serif;text-indent:0;text-align:start;text-decoration:none;text-decoration-line:none;text-decoration-style:solid;text-decoration-color:#000;letter-spacing:normal;word-spacing:normal;text-transform:none;direction:ltr;block-progression:tb;writing-mode:lr-tb;baseline-shift:baseline;text-anchor:start;white-space:normal;clip-rule:nonzero;display:inline;overflow:visible;visibility:visible;opacity:1;isolation:auto;mix-blend-mode:normal;color-interpolation:sRGB;color-interpolation-filters:linearRGB;solid-color:#000;solid-opacity:1;fill:#fff;fill-opacity:1;fill-rule:nonzero;stroke:none;stroke-width:1;stroke-linecap:butt;stroke-linejoin:miter;stroke-miterlimit:4;stroke-dasharray:none;stroke-dashoffset:0;stroke-opacity:1;color-rendering:auto;image-rendering:auto;shape-rendering:auto;text-rendering:auto;enable-background:accumulate" id="path4147" d="m 0.20439762,1039.6141 0,9.498 15.52997938,0 -2e-6,-7.5078 -4.492188,0 0,2.0078 -5.5000009,0 0,-3.998 z"/><g id="g4156" transform="translate(0.03314564,0)"><ellipse style="opacity:1;fill:none;fill-opacity:1;stroke:#fff;stroke-width:1.00000012;stroke-linecap:round;stroke-linejoin:round;stroke-miterlimit:4;stroke-dasharray:none;stroke-opacity:1" id="ellipse4143" cx="-12.478" cy="1049.862" rx="1.5" ry="1.5" transform="scale(-1,1)"/><ellipse id="path4158-5-4-8-4-1-8" cx="-12.478" cy="1049.862" rx="1.5" ry="1.5" transform="scale(-1,1)" style="opacity:1;fill:#000;fill-opacity:1;stroke:none;stroke-width:.30000001;stroke-linecap:round;stroke-linejoin:round;stroke-miterlimit:4;stroke-dasharray:none;stroke-opacity:1"/></g><g id="g4160" transform="translate(-3.9664278,0)"><ellipse id="ellipse4162" cx="-12.478" cy="1049.862" rx="1.5" ry="1.5" transform="scale(-1,1)" style="opacity:1;fill:none;fill-opacity:1;stroke:#fff;stroke-width:1.00000012;stroke-linecap:round;stroke-linejoin:round;stroke-miterlimit:4;stroke-dasharray:none;stroke-opacity:1"/><ellipse style="opacity:1;fill:#000;fill-opacity:1;stroke:none;stroke-width:.30000001;stroke-linecap:round;stroke-linejoin:round;stroke-miterlimit:4;stroke-dasharray:none;stroke-opacity:1" id="ellipse4164" cx="-12.478" cy="1049.862" rx="1.5" ry="1.5" transform="scale(-1,1)"/></g><path style="color:#000;font-style:normal;font-variant:normal;font-weight:400;font-stretch:normal;font-size:medium;line-height:normal;font-family:sans-serif;text-indent:0;text-align:start;text-decoration:none;text-decoration-line:none;text-decoration-style:solid;text-decoration-color:#000;letter-spacing:normal;word-spacing:normal;text-transform:none;direction:ltr;block-progression:tb;writing-mode:lr-tb;baseline-shift:baseline;text-anchor:start;white-space:normal;clip-rule:nonzero;display:inline;overflow:visible;visibility:visible;opacity:1;isolation:auto;mix-blend-mode:normal;color-interpolation:sRGB;color-interpolation-filters:linearRGB;solid-color:#000;solid-opacity:1;fill:#fff;fill-opacity:1;fill-rule:evenodd;stroke:none;stroke-width:1.00000012;stroke-linecap:butt;stroke-linejoin:miter;stroke-miterlimit:4;stroke-dasharray:none;stroke-dashoffset:0;stroke-opacity:1;color-rendering:auto;image-rendering:auto;shape-rendering:auto;text-rendering:auto;enable-background:accumulate" id="path4168" d="m 3.0955463,1036.3621 c 0.5125623,0.999 0.97181,1.8717 1.4610941,2.6379 0.3986952,0.6188 0.8550782,1.2542 1.3476563,1.7754 0.492578,0.5212 1.0129603,0.9506 1.6445312,1.0762 1.1305518,0.2247 2.1390799,0.091 2.9648441,-0.022 0.812643,-0.1109 1.362494,-0.4119 1.814453,-0.01 0.310345,0.276 0.138014,0.7906 0.138673,1.2382 l 2.281247,0.1645 c 0,0 0.04233,-0.5266 -0.01758,-1.1699 -0.05991,-0.6433 -0.194441,-1.4328 -0.707031,-2.0215 -0.805313,-0.9248 -1.987932,-1.3027 -2.814454,-1.7637 -0.41326,-0.2304 -0.728995,-0.4697 -0.90625,-0.7343 -0.177255,-0.2647 -0.260028,-0.6496 -0.164062,-1.1708 z"/><ellipse id="ellipse4145" cx="-3.988" cy="1049.362" rx="2.004" ry="2" transform="scale(-1,1)" style="opacity:1;fill:none;fill-opacity:1;stroke:#fff;stroke-width:1.00000012;stroke-linecap:round;stroke-linejoin:round;stroke-miterlimit:4;stroke-dasharray:none;stroke-opacity:1"/><rect style="opacity:1;fill:#c87137;fill-opacity:1;stroke:none;stroke-width:.30000001;stroke-linecap:round;stroke-linejoin:round;stroke-miterlimit:4;stroke-dasharray:none;stroke-opacity:1" id="rect4156-7-0-0-3-6" width="16" height="1" x="-16" y="1051.362" transform="scale(-1,1)"/><path style="fill:#000;fill-rule:nonzero;stroke:none" id="path15-2-6-8-8-2-1" d="m 0.9999997,1048.3621 14.0000023,0 2.4e-5,-4.0001 0,-1.9978 -3,0 0,2 -7.0000013,-10e-5 0,-4 -4.000025,0 z"/><path style="fill:#000;fill-opacity:1;fill-rule:evenodd;stroke:none;stroke-width:.40000007;stroke-linecap:butt;stroke-linejoin:miter;stroke-miterlimit:4;stroke-dasharray:none;stroke-opacity:1" id="path4206-1-9-2-8-3" d="m 14.249067,1043.1847 c 0,0 0.158276,-1.9488 -0.602595,-2.8226 -1.269906,-1.4584 -4.0495184,-1.5188 -4.0455229,-3.5343 l -5.6893134,-0.01 c 0,0 1.949201,4.1866 3.7348356,4.5415 2.0741968,0.4123 3.7537347,-0.4865 4.9062557,0 0.666404,0.3649 0.374995,1.8282 0.374995,1.8282 z"/><ellipse style="opacity:1;fill:#000;fill-opacity:1;stroke:none;stroke-width:.30000001;stroke-linecap:round;stroke-linejoin:round;stroke-miterlimit:4;stroke-dasharray:none;stroke-opacity:1" id="path4158-3-1-4-1-4-6-3" cx="-3.988" cy="1049.362" rx="2.004" ry="2" transform="scale(-1,1)"/><rect style="opacity:1;fill:#fff;fill-opacity:1;stroke:none;stroke-width:.30000001;stroke-linecap:round;stroke-linejoin:round;stroke-miterlimit:4;stroke-dasharray:none;stroke-opacity:1" id="rect4140" width="2" height="3" x="-4" y="1041.362" transform="scale(-1,1)"/></g></svg>