<svg xmlns="http://www.w3.org/2000/svg" xmlns:svg="http://www.w3.org/2000/svg" id="svg2390" width="16" height="16" version="1.0" viewBox="0 0 16 16"><g id="layer1" transform="translate(-21.913,-80.984)"><g id="g2387" transform="matrix(0.08440925,0,0,0.08440925,23.293105,82.369597)" style="fill:#ffb93f;fill-opacity:1"><path id="path2389" d="m 12.473,121.08 c -0.914,1.76 -1.991,3.41 -1.991,5.34 l 0.009,0.81 c 0,4.17 3.266,6.69 7.02,6.69 h 121.32 c 3.76,0 6.99,-3.12 6.99,-7.29 l -0.04,-0.81 c 0,-1.94 -0.95,-3.62 -1.99,-5.35 L 83.707,12.69 C 81.052,9.7442 76.748,9.7442 74.093,12.694 l -61.619,108.39 z" style="fill:#ffb93f;stroke:#000;stroke-width:6.83139992;fill-opacity:1"/></g><circle id="path2393" cx="29.913" cy="91.681" r=".808" style="fill:#000;stroke-width:.10048076"/><path id="path2395" d="m 29.933379,86.067101 c 0.317501,0 0.810156,0.225559 0.810156,0.50565 l -0.23706,2.910794 c 0,0.280091 -0.255595,0.505651 -0.573096,0.505651 -0.3175,0 -0.57291,-0.22556 -0.57291,-0.505651 l -0.276724,-2.910794 c 0,-0.280091 0.532134,-0.50565 0.849634,-0.50565 z" style="fill:#000;stroke-width:.1750081"/></g><metadata id="metadata8"/></svg>